<svg width="48" height="48" viewBox="0 0 48 48" fill="none" xmlns="http://www.w3.org/2000/svg">
<g clip-path="url(#clip0)">
<path d="M38.2713 14.228C36.0497 13.3621 34.1729 11.7822 33.025 9.69228C31.0947 6.17787 27.3597 3.79559 23.0668 3.79559C18.6108 3.79559 14.7562 6.36219 12.8971 10.0974C11.7584 12.385 9.82074 14.1811 7.45111 15.1375C3.94974 16.5507 1.0103 19.7803 0.0774896 24.8296C-0.0248854 25.3837 -0.0263854 25.9533 0.0759896 26.5074C1.52424 34.3422 7.8009 37.7982 13.5136 36.8818C16.7129 36.3686 19.9516 37.4357 22.323 39.6438C27.1449 44.1337 34.8746 45.5413 42.3782 40.7285C43.2573 40.1647 44.4367 38.9816 45 38.1021C51.4656 28.008 46.6761 17.5038 38.2713 14.228Z" fill="url(#paint0_linear)"/>
<path opacity="0.1" d="M37.0406 2.95337H16.4321C15.6566 2.95337 15.027 3.5829 15.027 4.35849V7.55349H11.0985C10.3229 7.55349 9.6934 8.18303 9.6934 8.95862V41.2061C9.6934 41.9817 10.3229 42.6112 11.0985 42.6112H31.7069C32.4825 42.6112 33.1121 41.9817 33.1121 41.2061V38.0111H37.0406C37.8161 38.0111 38.4457 37.3816 38.4457 36.606V4.35849C38.4457 3.5829 37.8162 2.95337 37.0406 2.95337Z" fill="#091E42"/>
<path d="M33.1121 10.9261V43.1733C33.1121 43.9495 32.4821 44.5786 31.7068 44.5786H11.0987C10.3234 44.5786 9.6934 43.9495 9.6934 43.1733V10.9261C9.6934 10.1508 10.3234 9.52075 11.0987 9.52075H31.7068C32.4821 9.52075 33.1121 10.1508 33.1121 10.9261Z" fill="white"/>
<path d="M30.8197 28.2271V16.6114C30.8197 16.4562 30.6939 16.3304 30.5386 16.3304H12.2666C12.1113 16.3304 11.9855 16.4562 11.9855 16.6114V28.2271C11.9855 28.3823 12.1113 28.5081 12.2666 28.5081H30.5387C30.6939 28.5081 30.8197 28.3823 30.8197 28.2271Z" fill="#0052CC"/>
<path d="M33.1133 14.0331V10.9259C33.1133 10.1498 32.4842 9.52075 31.7081 9.52075H11.0997C10.3237 9.52075 9.69463 10.1498 9.69463 10.9259V14.0332L33.1133 14.0331Z" fill="white"/>
<path d="M38.4451 6.32572V38.5732C38.4451 39.3488 37.8156 39.9783 37.04 39.9783H16.4316C15.656 39.9783 15.0265 39.3488 15.0265 38.5732V6.32572C15.0265 5.55012 15.656 4.92059 16.4316 4.92059H37.04C37.8157 4.92069 38.4451 5.55012 38.4451 6.32572Z" fill="#0052CC"/>
<path d="M15.0265 36.3522V38.5732C15.0265 39.3488 15.656 39.9783 16.4316 39.9783H37.04C37.8156 39.9783 38.4451 39.3489 38.4451 38.5732V36.3522H15.0265Z" fill="white"/>
<path d="M20.1395 4.92072H16.4316C15.656 4.92072 15.0265 5.55015 15.0265 6.32584V38.5733C15.0265 39.3489 15.656 39.9784 16.4316 39.9784H20.1395V4.92072Z" fill="white"/>
<path d="M38.4451 9.43306V6.32572C38.4451 5.54966 37.8161 4.92059 37.04 4.92059H16.4316C15.6556 4.92059 15.0265 5.54966 15.0265 6.32572V9.43306H38.4451Z" fill="white"/>
<path d="M6.36358 12.9497C6.10474 12.9497 5.89483 12.7398 5.89483 12.481C5.89483 12.1704 5.64208 11.9176 5.33149 11.9176C5.07265 11.9176 4.86274 11.7077 4.86274 11.4489C4.86274 11.1901 5.07265 10.9802 5.33149 10.9802C5.64208 10.9802 5.89483 10.7275 5.89483 10.4168C5.89483 10.158 6.10474 9.94806 6.36358 9.94806C6.62243 9.94806 6.83233 10.158 6.83233 10.4168C6.83233 10.7274 7.08499 10.9802 7.39568 10.9802C7.65452 10.9802 7.86443 11.1901 7.86443 11.4489C7.86443 11.7077 7.65452 11.9176 7.39568 11.9176C7.08508 11.9176 6.83233 12.1704 6.83233 12.481C6.83233 12.7399 6.62243 12.9497 6.36358 12.9497Z" fill="#0052CC"/>
<path d="M37.4202 44.9567C37.3002 44.9567 37.1803 44.9109 37.0887 44.8194L36.0559 43.7867C35.8728 43.6036 35.8728 43.3067 36.0559 43.1237L37.0887 42.091C37.2718 41.908 37.5685 41.908 37.7516 42.091L38.7843 43.1237C38.9674 43.3068 38.9674 43.6036 38.7843 43.7867L37.7516 44.8194C37.6601 44.9108 37.5402 44.9567 37.4202 44.9567ZM37.0504 43.4551L37.4202 43.8249L37.7899 43.4551L37.4202 43.0854L37.0504 43.4551Z" fill="#0052CC"/>
<path d="M10.7199 6.41059C10.4611 6.41059 10.2512 6.20069 10.2512 5.94184C10.2512 5.63087 9.99816 5.37784 9.68719 5.37784C9.42835 5.37784 9.21844 5.16794 9.21844 4.90909C9.21844 4.65025 9.42835 4.44034 9.68719 4.44034C9.99816 4.44034 10.2512 4.18731 10.2512 3.87634C10.2512 3.6175 10.4611 3.40759 10.7199 3.40759C10.9788 3.40759 11.1887 3.6175 11.1887 3.87634C11.1887 4.18731 11.4417 4.44034 11.7527 4.44034C12.0115 4.44034 12.2214 4.65025 12.2214 4.90909C12.2214 5.16794 12.0115 5.37784 11.7527 5.37784C11.4417 5.37784 11.1887 5.63087 11.1887 5.94184C11.1887 6.20069 10.9788 6.41059 10.7199 6.41059Z" fill="#0052CC"/>
<path d="M41.6351 12.9429C41.3762 12.9429 41.1663 12.733 41.1663 12.4742C41.1663 12.1632 40.9133 11.9102 40.6023 11.9102C40.3435 11.9102 40.1336 11.7003 40.1336 11.4414C40.1336 11.1826 40.3435 10.9727 40.6023 10.9727C40.9133 10.9727 41.1663 10.7197 41.1663 10.4087C41.1663 10.1498 41.3762 9.93994 41.6351 9.93994C41.8939 9.93994 42.1038 10.1498 42.1038 10.4087C42.1038 10.7197 42.3568 10.9727 42.6678 10.9727C42.9267 10.9727 43.1366 11.1826 43.1366 11.4414C43.1366 11.7003 42.9267 11.9102 42.6678 11.9102C42.3568 11.9102 42.1038 12.1632 42.1038 12.4742C42.1038 12.733 41.894 12.9429 41.6351 12.9429Z" fill="#0052CC"/>
<path d="M27.2004 19.9834H25.7256C25.4804 19.9834 25.2615 20.1626 25.2382 20.4067C25.2115 20.6866 25.4309 20.9222 25.7054 20.9222H27.2004C27.4596 20.9222 27.6698 20.712 27.6698 20.4528C27.6698 20.1936 27.4597 19.9834 27.2004 19.9834Z" fill="#091E42"/>
<path d="M32.8648 19.9834H29.3576C29.0984 19.9834 28.8882 20.1936 28.8882 20.4528C28.8882 20.712 29.0984 20.9222 29.3576 20.9222H32.8849C33.1594 20.9222 33.3789 20.6866 33.3522 20.4067C33.3289 20.1626 33.1099 19.9834 32.8648 19.9834Z" fill="#091E42"/>
<path d="M30.5754 21.949H25.7256C25.4804 21.949 25.2615 22.1282 25.2382 22.3723C25.2115 22.6522 25.4309 22.8879 25.7054 22.8879H30.5754C30.8346 22.8879 31.0448 22.6777 31.0448 22.4185C31.0448 22.1591 30.8347 21.949 30.5754 21.949Z" fill="#091E42"/>
<path d="M35.6773 21.949H32.7326C32.4734 21.949 32.2632 22.1592 32.2632 22.4184C32.2632 22.6776 32.4734 22.8878 32.7326 22.8878H35.6974C35.9719 22.8878 36.1914 22.6522 36.1647 22.3722C36.1414 22.1281 35.9224 21.949 35.6773 21.949Z" fill="#091E42"/>
<path d="M29.1691 23.9145H25.7256C25.4804 23.9145 25.2615 24.0937 25.2382 24.3378C25.2115 24.6177 25.4309 24.8534 25.7054 24.8534H29.1691C29.4283 24.8534 29.6385 24.6432 29.6385 24.384C29.6385 24.1246 29.4284 23.9145 29.1691 23.9145Z" fill="#091E42"/>
<path d="M32.8648 23.9145H31.3263C31.0671 23.9145 30.8569 24.1247 30.8569 24.3839C30.8569 24.6431 31.0671 24.8533 31.3263 24.8533H32.8849C33.1594 24.8533 33.3789 24.6177 33.3522 24.3377C33.3289 24.0936 33.1099 23.9145 32.8648 23.9145Z" fill="#091E42"/>
<path d="M35.6783 25.88H29.9211C29.6618 25.88 29.4517 26.0902 29.4517 26.3494C29.4517 26.6086 29.6618 26.8188 29.9211 26.8188H35.6984C35.9729 26.8188 36.1924 26.5832 36.1657 26.3033C36.1423 26.0593 35.9234 25.88 35.6783 25.88Z" fill="#091E42"/>
<path d="M27.7629 25.88H25.7256C25.4804 25.88 25.2615 26.0593 25.2382 26.3033C25.2115 26.5832 25.4309 26.8188 25.7055 26.8188H27.7629C28.0221 26.8188 28.2323 26.6086 28.2323 26.3494C28.2323 26.0902 28.0222 25.88 27.7629 25.88Z" fill="#091E42"/>
<path d="M24.4816 16.7162H22.9131C22.6679 16.7162 22.449 16.8954 22.4257 17.1395C22.399 17.4194 22.6183 17.655 22.8929 17.655H24.4816C24.7408 17.655 24.951 17.4448 24.951 17.1856C24.951 16.9264 24.7409 16.7162 24.4816 16.7162Z" fill="#091E42"/>
<path d="M32.8649 16.7162H26.7639C26.5047 16.7162 26.2945 16.9264 26.2945 17.1856C26.2945 17.4448 26.5047 17.655 26.7639 17.655H32.885C33.1595 17.655 33.379 17.4194 33.3523 17.1395C33.3289 16.8954 33.11 16.7162 32.8649 16.7162Z" fill="#091E42"/>
<path d="M24.4816 29.4255H22.9131C22.6679 29.4255 22.449 29.6047 22.4257 29.8488C22.399 30.1287 22.6183 30.3643 22.8929 30.3643H24.4816C24.7408 30.3643 24.951 30.1541 24.951 29.8949C24.951 29.6356 24.7409 29.4255 24.4816 29.4255Z" fill="#091E42"/>
<path d="M32.8649 29.4255H26.7639C26.5047 29.4255 26.2945 29.6357 26.2945 29.8949C26.2945 30.1541 26.5047 30.3643 26.7639 30.3643H32.885C33.1595 30.3643 33.379 30.1287 33.3523 29.8488C33.3289 29.6046 33.11 29.4255 32.8649 29.4255Z" fill="#091E42"/>
<path d="M17.2241 41.7264H7.06947C6.68022 41.7264 6.36466 41.4108 6.36466 41.0216V34.4115C6.36466 34.0223 6.68022 33.7067 7.06947 33.7067H17.2241C17.6134 33.7067 17.9289 34.0223 17.9289 34.4115V41.0216C17.929 41.4108 17.6135 41.7264 17.2241 41.7264Z" fill="white"/>
<path d="M12.7926 11.7699V11.7835C12.7926 12.0423 13.0025 12.2522 13.2613 12.2522C13.5202 12.2522 13.7301 12.0423 13.7301 11.7835V11.7699C13.7301 11.5111 13.5202 11.3011 13.2613 11.3011C13.0025 11.3011 12.7926 11.5111 12.7926 11.7699Z" fill="#091E42"/>
<path d="M18.595 6.70117C18.3361 6.70117 18.1262 6.91108 18.1262 7.16992V7.18352C18.1262 7.44236 18.3361 7.65227 18.595 7.65227C18.8538 7.65227 19.0637 7.44236 19.0637 7.18352V7.16992C19.0637 6.91108 18.8538 6.70117 18.595 6.70117Z" fill="#091E42"/>
<path d="M20.4055 6.70117C20.1467 6.70117 19.9368 6.91108 19.9368 7.16992V7.18352C19.9368 7.44236 20.1467 7.65227 20.4055 7.65227C20.6644 7.65227 20.8743 7.44236 20.8743 7.18352V7.16992C20.8743 6.91108 20.6644 6.70117 20.4055 6.70117Z" fill="#091E42"/>
<path d="M22.2162 6.70117C21.9573 6.70117 21.7474 6.91108 21.7474 7.16992V7.18352C21.7474 7.44236 21.9573 7.65227 22.2162 7.65227C22.475 7.65227 22.6849 7.44236 22.6849 7.18352V7.16992C22.6849 6.91108 22.4751 6.70117 22.2162 6.70117Z" fill="#091E42"/>
<path d="M37.0412 4.45197H16.4328C15.3996 4.45197 14.559 5.29253 14.559 6.32584V9.0519H11.0995C10.0663 9.0519 9.22563 9.89247 9.22563 10.9258V33.2382H7.06947C6.42241 33.2382 5.89591 33.7647 5.89591 34.4117V41.0218C5.89591 41.6689 6.42241 42.1954 7.06947 42.1954H9.22554V43.173C9.22554 44.2062 10.0661 45.0468 11.0994 45.0468H31.7078C32.741 45.0468 33.5817 44.2063 33.5817 43.173V39.9781C33.5817 39.7192 33.3718 39.5093 33.1129 39.5093H33.1128H33.1128H18.3978V34.4117C18.3978 33.7646 17.8713 33.2381 17.2242 33.2381H15.4965V14.0331C15.4965 13.7743 15.2866 13.5644 15.0277 13.5644H10.1631V10.9258C10.1631 10.4095 10.5831 9.9894 11.0995 9.9894H14.559V11.4527C14.559 11.7115 14.7689 11.9214 15.0277 11.9214C15.2866 11.9214 15.4965 11.7115 15.4965 11.4527V9.90184H37.9776V38.5729C37.9776 39.0892 37.5576 39.5093 37.0413 39.5093H35.6931C35.4343 39.5093 35.2244 39.7192 35.2244 39.9781C35.2244 40.2369 35.4343 40.4468 35.6931 40.4468H37.0413C38.0745 40.4468 38.9151 39.6062 38.9151 38.5729V6.32584C38.915 5.29253 38.0745 4.45197 37.0412 4.45197ZM32.6442 40.4468V43.173C32.6442 43.6892 32.2241 44.1093 31.7078 44.1093H11.0994C10.5831 44.1093 10.163 43.6893 10.163 43.173V42.1954H17.2241C17.8712 42.1954 18.3977 41.6689 18.3977 41.0218V40.4468H32.6442ZM17.4603 34.4117V41.0218C17.4603 41.152 17.3544 41.2579 17.2242 41.2579H7.06947C6.93926 41.2579 6.83341 41.152 6.83341 41.0218V34.4117C6.83341 34.2815 6.93926 34.1757 7.06947 34.1757H17.2241C17.3543 34.1757 17.4603 34.2815 17.4603 34.4117ZM14.5589 14.5019V33.2382H10.163V14.5019H14.5589ZM15.4964 8.96434V6.32584C15.4964 5.80956 15.9164 5.38947 16.4328 5.38947H37.0411C37.5574 5.38947 37.9774 5.80947 37.9774 6.32584V8.96443L15.4964 8.96434Z" fill="#091E42"/>
<path d="M18.332 17.1722C18.332 16.9133 18.1221 16.7034 17.8633 16.7034C17.6044 16.7034 17.3945 16.9133 17.3945 17.1722V17.1859C17.3945 17.4447 17.6044 17.6546 17.8633 17.6546C18.1221 17.6546 18.332 17.4447 18.332 17.1859V17.1722Z" fill="#091E42"/>
<path d="M18.332 21.4221C18.332 21.1633 18.1221 20.9534 17.8633 20.9534C17.6044 20.9534 17.3945 21.1633 17.3945 21.4221V21.4357C17.3945 21.6946 17.6044 21.9045 17.8633 21.9045C18.1221 21.9045 18.332 21.6946 18.332 21.4357V21.4221Z" fill="#091E42"/>
<path d="M18.332 25.6722C18.332 25.4133 18.1221 25.2034 17.8633 25.2034C17.6044 25.2034 17.3945 25.4133 17.3945 25.6722V25.6858C17.3945 25.9446 17.6044 26.1545 17.8633 26.1545C18.1221 26.1545 18.332 25.9446 18.332 25.6858V25.6722Z" fill="#091E42"/>
<path d="M17.8633 29.4534C17.6044 29.4534 17.3945 29.6633 17.3945 29.9222V29.9359C17.3945 30.1947 17.6044 30.4046 17.8633 30.4046C18.1221 30.4046 18.332 30.1947 18.332 29.9359V29.9222C18.332 29.6633 18.1221 29.4534 17.8633 29.4534Z" fill="#091E42"/>
<path d="M18.332 35.8834H38.4467V36.8209H18.332V35.8834Z" fill="#091E42"/>
<path d="M9.95544 39.3135C9.83554 39.3135 9.71554 39.2678 9.62413 39.1763L8.49632 38.0485C8.31332 37.8655 8.31332 37.5687 8.49632 37.3858L9.62413 36.258C9.80694 36.0751 10.1038 36.0751 10.2867 36.258C10.4697 36.441 10.4697 36.7377 10.2867 36.9207L9.49016 37.7172L10.2867 38.5137C10.4697 38.6966 10.4697 38.9934 10.2867 39.1763C10.1953 39.2678 10.0754 39.3135 9.95544 39.3135Z" fill="#091E42"/>
<path d="M14.3381 36.12C14.458 36.12 14.578 36.1657 14.6694 36.2572L15.7972 37.3851C15.9802 37.5681 15.9802 37.8648 15.7972 38.0477L14.6694 39.1755C14.4866 39.3584 14.1897 39.3584 14.0069 39.1755C13.8239 38.9925 13.8239 38.6958 14.0069 38.5129L14.8034 37.7164L14.0069 36.9199C13.8239 36.7369 13.8239 36.4401 14.0069 36.2572C14.0982 36.1657 14.2182 36.12 14.3381 36.12Z" fill="#091E42"/>
<path d="M11.5087 39.3134C11.4306 39.3134 11.3516 39.2939 11.2788 39.2527C11.0534 39.1255 10.9738 38.8397 11.1011 38.6143L12.3748 36.3586C12.5021 36.1333 12.7879 36.0537 13.0132 36.1809C13.2386 36.3081 13.3182 36.594 13.1908 36.8193L11.9171 39.0751C11.831 39.2276 11.6723 39.3134 11.5087 39.3134Z" fill="#091E42"/>
</g>
<defs>
<linearGradient id="paint0_linear" x1="4.39318" y1="14.5842" x2="49.0172" y2="34.5959" gradientUnits="userSpaceOnUse">
<stop stop-color="#D2DEFF" stop-opacity="0"/>
<stop offset="1" stop-color="#B7C5FF"/>
</linearGradient>
<clipPath id="clip0">
<rect width="48" height="48" fill="white"/>
</clipPath>
</defs>
</svg>
