<svg width="48" height="48" viewBox="0 0 48 48" fill="none" xmlns="http://www.w3.org/2000/svg">
<g clip-path="url(#clip0)">
<path d="M43.2375 2.56879C37.2563 -0.993709 29.5219 -0.796834 23.6532 2.85004C20.3532 4.90317 17.8032 7.8563 14.9157 10.4063C12.3844 12.6375 9.44067 14.2313 6.81567 16.3313C-2.67183 23.9626 -1.77183 44.5501 11.5969 47.2782C17.3907 48.4594 25.3032 48.8438 28.7063 43.1907C31.95 37.8001 33.0375 32.2782 39.3844 29.4188C41.5969 28.4251 45.2907 28.4719 46.7813 26.2782C48.675 23.5126 46.3219 20.6532 45.075 18.2438C43.4625 15.1407 43.125 12.0844 44.2594 8.7563C45.225 5.92505 45.9094 4.65004 43.2375 2.56879Z" fill="url(#paint0_linear)"/>
<path opacity="0.1" d="M42 20.3436H38.7844C38.3438 20.3436 37.9875 20.6998 37.9875 21.1404V21.4498H35.8125V6.34668C35.8125 6.08418 35.6062 5.87793 35.3437 5.87793H17.7656L12.1875 11.4561V15.3186C9.975 15.7686 8.30625 17.7186 8.30625 20.0623C8.30625 20.1561 8.30625 20.2498 8.31562 20.3436H6C5.55937 20.3436 5.20312 20.6998 5.20312 21.1404V35.8029C5.20312 36.2436 5.55937 36.5998 6 36.5998H9.21562C9.65625 36.5998 10.0125 36.2436 10.0125 35.8029V35.2498H12.75C12.6844 35.8311 12.8719 36.4404 13.3125 36.8811C13.8937 37.4623 14.7375 37.6029 15.4594 37.3217L15.6844 37.5467C15.3937 38.2592 15.5437 39.1123 16.125 39.6936C16.7062 40.2748 17.55 40.4154 18.2719 40.1342L18.4969 40.3592C18.2062 41.0717 18.3562 41.9248 18.9375 42.5061C19.5187 43.0873 20.3625 43.2279 21.0844 42.9467L21.3094 43.1717C21.0187 43.8842 21.1687 44.7373 21.75 45.3186C22.3312 45.8998 23.175 46.0404 23.8969 45.7592L24.1781 46.0404C24.9562 46.8186 26.2125 46.8186 26.9906 46.0404C27.7687 45.2623 27.7687 44.0061 26.9906 43.2279C27.7687 44.0061 29.025 44.0061 29.8031 43.2279C30.1875 42.8436 30.3844 42.3279 30.3844 41.8217C30.3844 41.3154 30.1875 40.8092 29.8031 40.4154C30.5812 41.1936 31.8375 41.1936 32.6156 40.4154C33.3937 39.6373 33.3937 38.3811 32.6156 37.6029C33.3844 38.3717 34.6219 38.3811 35.4 37.6311C36.0562 37.0029 36.1594 36.0186 35.7562 35.2498H38.0156V35.8029C38.0156 36.2436 38.3719 36.5998 38.8125 36.5998H42C42.4406 36.5998 42.7969 36.2436 42.7969 35.8029V21.1404C42.8062 20.6998 42.4406 20.3436 42 20.3436Z" fill="#091E42"/>
<path d="M35.8125 26.6436V4.09668C35.8125 3.83418 35.6063 3.62793 35.3438 3.62793H17.7656L12.1875 9.20606V26.6436H35.8125Z" fill="white"/>
<path d="M12.1875 9.20605H17.2969C17.5594 9.20605 17.7656 8.9998 17.7656 8.7373V3.62793L12.1875 9.20605Z" fill="#0052CC"/>
<path d="M25.2467 19.9033L14.8592 30.2908C14.0717 31.0783 14.0529 32.3814 14.8592 33.1596C15.6373 33.9096 16.8748 33.9002 17.6436 33.1314C16.8654 33.9096 16.8654 35.1658 17.6436 35.9439C18.4217 36.7221 19.6779 36.7221 20.4561 35.9439C19.6779 36.7221 19.6779 37.9783 20.4561 38.7564C21.2342 39.5346 22.4904 39.5346 23.2686 38.7564C22.4904 39.5346 22.4904 40.7908 23.2686 41.5689C24.0467 42.3471 25.3029 42.3471 26.0811 41.5689L34.6311 33.0189H39.7123V19.2002H26.9436C26.3061 19.2002 25.6967 19.4533 25.2467 19.9033Z" fill="white"/>
<path d="M35.3816 35.3908C34.6035 36.1408 33.366 36.1314 32.5972 35.3627C33.3754 36.1408 33.3754 37.3971 32.5972 38.1752C31.8191 38.9533 30.5629 38.9533 29.7847 38.1752C30.1691 38.5596 30.366 39.0752 30.366 39.5814C30.366 40.0877 30.1691 40.5939 29.7847 40.9877C29.0066 41.7658 27.7504 41.7658 26.9722 40.9877C27.7504 41.7658 27.7504 43.0221 26.9722 43.8002C26.1941 44.5783 24.9379 44.5783 24.1597 43.8002L13.3785 33.0189H8.3066V19.2002H21.066C21.7035 19.2002 22.3129 19.4533 22.7629 19.9033L35.3816 32.5221C36.1691 33.3096 36.1879 34.6221 35.3816 35.3908Z" fill="white"/>
<path d="M24.5524 43.0684L26.418 41.2027C27.1961 40.4246 27.1961 39.1684 26.418 38.3902C25.6399 37.6121 24.3837 37.6121 23.6055 38.3902L21.7399 40.2559C20.9618 41.034 20.9618 42.2902 21.7399 43.0684C22.518 43.8465 23.7743 43.8465 24.5524 43.0684Z" fill="white"/>
<path d="M21.7403 40.2559L23.6059 38.3902C24.384 37.6121 24.384 36.3559 23.6059 35.5777C22.8278 34.7996 21.5715 34.7996 20.7934 35.5777L18.9371 37.4527C18.159 38.2309 18.159 39.4871 18.9371 40.2652C19.7059 41.034 20.9621 41.034 21.7403 40.2559Z" fill="white"/>
<path d="M18.9371 37.4531L20.8028 35.5875C21.5809 34.8094 21.5809 33.5531 20.8028 32.775C20.0246 31.9969 18.7684 31.9969 17.9903 32.775L16.1246 34.6406C15.3465 35.4187 15.3465 36.675 16.1246 37.4531C16.9028 38.2219 18.159 38.2219 18.9371 37.4531Z" fill="white"/>
<path d="M16.1246 34.6406L17.9903 32.775C18.7684 31.9969 18.7684 30.7406 17.9903 29.9625C17.2121 29.1844 15.9559 29.1844 15.1778 29.9625L13.3121 31.8281C12.534 32.6062 12.534 33.8625 13.3121 34.6406C14.0903 35.4187 15.3465 35.4187 16.1246 34.6406Z" fill="white"/>
<path d="M32.6899 19.2002H26.9337C26.2962 19.2002 25.6868 19.4533 25.2368 19.9033L20.7555 24.3846C19.9774 25.1627 19.9774 26.4377 20.7555 27.2158C21.5337 27.994 22.8087 27.994 23.5868 27.2158L26.3055 24.4971C26.7368 24.0658 27.318 23.8221 27.9274 23.8221H32.6899V19.2002Z" fill="white"/>
<path d="M10.0125 18.9V33.5625C10.0125 34.0031 9.65625 34.3593 9.21563 34.3593H6C5.55938 34.3593 5.20312 34.0031 5.20312 33.5625V18.9C5.20312 18.4593 5.55938 18.1031 6 18.1031H9.21563C9.64688 18.0937 10.0125 18.45 10.0125 18.9Z" fill="#0052CC"/>
<path d="M42.0007 34.3594H38.7851C38.3445 34.3594 37.9882 34.0031 37.9882 33.5625V18.8906C37.9882 18.45 38.3445 18.0938 38.7851 18.0938H42.0007C42.4413 18.0938 42.7976 18.45 42.7976 18.8906V33.5625C42.807 34.0031 42.4413 34.3594 42.0007 34.3594Z" fill="#0052CC"/>
<path d="M24.9465 16.9871H23.6621C23.1465 16.9871 22.7246 16.5652 22.7246 16.0496V7.11523C22.7246 6.59961 23.1465 6.17773 23.6621 6.17773H24.9465C25.4621 6.17773 25.884 6.59961 25.884 7.11523V16.0496C25.884 16.5652 25.4715 16.9871 24.9465 16.9871ZM23.6715 7.11523V16.0496H24.9559V7.11523H23.6715Z" fill="#091E42"/>
<path d="M23.2031 12.0747V16.0497C23.2031 16.3122 23.4094 16.5185 23.6719 16.5185H24.9563C25.2188 16.5185 25.425 16.3122 25.425 16.0497V12.0747H23.2031Z" fill="#0052CC"/>
<path d="M28.7531 16.9871H27.4688C26.9531 16.9871 26.5312 16.5652 26.5312 16.0496V9.92774C26.5312 9.41211 26.9531 8.99023 27.4688 8.99023H28.7531C29.2688 8.99023 29.6906 9.41211 29.6906 9.92774V16.0496C29.6906 16.5652 29.2688 16.9871 28.7531 16.9871ZM27.4688 9.92774V16.0496H28.7531V9.92774H27.4688Z" fill="#091E42"/>
<path d="M27 14.8872V16.0497C27 16.3122 27.2063 16.5185 27.4688 16.5185H28.7531C29.0156 16.5185 29.2219 16.3122 29.2219 16.0497V14.8872H27Z" fill="#0052CC"/>
<path d="M32.55 16.5184H31.2656C31.0031 16.5184 30.7969 16.3121 30.7969 16.0496V7.11523C30.7969 6.85273 31.0031 6.64648 31.2656 6.64648H32.55C32.8125 6.64648 33.0188 6.85273 33.0188 7.11523V16.0496C33.0188 16.3027 32.8125 16.5184 32.55 16.5184Z" fill="white"/>
<path d="M30.8066 9.26221V16.0497C30.8066 16.3122 31.0129 16.5185 31.2754 16.5185H32.5597C32.8222 16.5185 33.0285 16.3122 33.0285 16.0497V9.26221C33.0191 9.26221 30.8066 9.26221 30.8066 9.26221Z" fill="#0052CC"/>
<path d="M24.9465 16.9871H23.6621C23.1465 16.9871 22.7246 16.5652 22.7246 16.0496V7.11523C22.7246 6.59961 23.1465 6.17773 23.6621 6.17773H24.9465C25.4621 6.17773 25.884 6.59961 25.884 7.11523V16.0496C25.884 16.5652 25.4715 16.9871 24.9465 16.9871ZM23.6715 7.11523V16.0496H24.9559V7.11523H23.6715Z" fill="#091E42"/>
<path d="M28.7531 16.9871H27.4688C26.9531 16.9871 26.5312 16.5652 26.5312 16.0496V9.92774C26.5312 9.41211 26.9531 8.99023 27.4688 8.99023H28.7531C29.2688 8.99023 29.6906 9.41211 29.6906 9.92774V16.0496C29.6906 16.5652 29.2688 16.9871 28.7531 16.9871ZM27.4688 9.92774V16.0496H28.7531V9.92774H27.4688Z" fill="#091E42"/>
<path d="M32.55 16.9871H31.2656C30.75 16.9871 30.3281 16.5652 30.3281 16.0496V7.11523C30.3281 6.59961 30.75 6.17773 31.2656 6.17773H32.55C33.0656 6.17773 33.4875 6.59961 33.4875 7.11523V16.0496C33.4875 16.5652 33.0656 16.9871 32.55 16.9871ZM31.275 7.11523V16.0496H32.5594V7.11523H31.275Z" fill="#091E42"/>
<path d="M20.6719 13.0029H19.6875C19.425 13.0029 19.2188 12.7967 19.2188 12.5342C19.2188 12.2717 19.425 12.0654 19.6875 12.0654H20.6719C20.9344 12.0654 21.1406 12.2717 21.1406 12.5342C21.1406 12.7967 20.9344 13.0029 20.6719 13.0029Z" fill="#091E42"/>
<path d="M17.5684 13.0029H17.1465C16.884 13.0029 16.6778 12.7967 16.6778 12.5342C16.6778 12.2717 16.884 12.0654 17.1465 12.0654H17.5684C17.8309 12.0654 18.0371 12.2717 18.0371 12.5342C18.0371 12.7967 17.8309 13.0029 17.5684 13.0029Z" fill="#091E42"/>
<path d="M20.6712 14.9062H15.4493C15.1868 14.9062 14.9805 14.7 14.9805 14.4375C14.9805 14.175 15.1868 13.9688 15.4493 13.9688H20.6712C20.9337 13.9688 21.1399 14.175 21.1399 14.4375C21.1399 14.7 20.9337 14.9062 20.6712 14.9062Z" fill="#091E42"/>
<path d="M20.6712 16.5278H15.4493C15.1868 16.5278 14.9805 16.3216 14.9805 16.0591C14.9805 15.7966 15.1868 15.5903 15.4493 15.5903H20.6712C20.9337 15.5903 21.1399 15.7966 21.1399 16.0591C21.1399 16.3122 20.9337 16.5278 20.6712 16.5278Z" fill="#091E42"/>
<path d="M13.1441 22.6496C15.8158 22.6496 17.9816 20.4838 17.9816 17.8121C17.9816 15.1404 15.8158 12.9746 13.1441 12.9746C10.4724 12.9746 8.3066 15.1404 8.3066 17.8121C8.3066 20.4838 10.4724 22.6496 13.1441 22.6496Z" fill="white"/>
<path d="M42 17.6248H38.7844C38.1375 17.6248 37.6031 18.1123 37.5281 18.7311H36.2812V4.09668C36.2812 3.58105 35.8594 3.15918 35.3438 3.15918H31.0781C30.8156 3.15918 30.6094 3.36543 30.6094 3.62793C30.6094 3.89043 30.8156 4.09668 31.0781 4.09668H35.3438V18.7311H26.9344C26.1656 18.7311 25.4438 19.0311 24.9094 19.5748L24 20.4842L23.0906 19.5748C22.5469 19.0311 21.825 18.7311 21.0656 18.7311H18.375C18.4312 18.4311 18.4594 18.1311 18.4594 17.8123C18.4594 14.8873 16.0781 12.5061 13.1531 12.5061C12.9844 12.5061 12.825 12.5154 12.6656 12.5342V9.68418H17.3063C17.8219 9.68418 18.2438 9.2623 18.2438 8.74668V4.10605H27.9938C28.2563 4.10605 28.4625 3.8998 28.4625 3.6373C28.4625 3.3748 28.2563 3.16855 27.9938 3.16855H17.775C17.6531 3.16855 17.5313 3.21543 17.4469 3.30918L11.8687 8.8873C11.7844 8.97168 11.7281 9.09356 11.7281 9.21543V12.7123C9.54375 13.3123 7.92187 15.2811 7.8375 17.6248H6C5.29688 17.6248 4.73438 18.1967 4.73438 18.8904V33.5623C4.73438 34.2654 5.30625 34.8279 6 34.8279H9.21563C9.91875 34.8279 10.4813 34.2561 10.4813 33.5623V33.4779H12.2812C12.3375 34.0217 12.5719 34.5561 12.9844 34.9779C13.4438 35.4373 14.0625 35.6998 14.7188 35.6998C14.85 35.6998 14.9813 35.6904 15.1031 35.6717C14.9813 36.4217 15.2156 37.2186 15.7875 37.7904C16.2656 38.2686 16.8937 38.5123 17.5219 38.5123C17.6531 38.5123 17.7844 38.5029 17.9062 38.4842C17.7844 39.2342 18.0188 40.0311 18.5906 40.6029C19.0688 41.0811 19.6969 41.3248 20.325 41.3248C20.4563 41.3248 20.5875 41.3154 20.7094 41.2967C20.5875 42.0467 20.8219 42.8436 21.3937 43.4154C21.8719 43.8936 22.5 44.1373 23.1281 44.1373C23.3344 44.1373 23.5406 44.1092 23.7375 44.0623L23.8219 44.1467C24.2812 44.6061 24.9 44.8686 25.5563 44.8686C26.2125 44.8686 26.8313 44.6154 27.2906 44.1467C27.8719 43.5748 28.0969 42.7779 27.975 42.0279C28.725 42.1498 29.5219 41.9154 30.0938 41.3436C30.5531 40.8842 30.8156 40.2654 30.8156 39.6092C30.8156 39.4779 30.8062 39.3467 30.7875 39.2248C30.9094 39.2436 31.0406 39.2529 31.1719 39.2529C31.8281 39.2529 32.4469 38.9998 32.9062 38.5311C33.4875 37.9498 33.7125 37.1529 33.5906 36.4029C34.3312 36.5154 35.1094 36.2998 35.6813 35.7561C36.15 35.3061 36.4125 34.6873 36.4219 34.0217C36.4219 33.8436 36.4031 33.6748 36.375 33.4967H37.5V33.5811C37.5 34.2842 38.0719 34.8467 38.7656 34.8467H42C42.7031 34.8467 43.2656 34.2748 43.2656 33.5811V18.8904C43.275 18.1967 42.7031 17.6248 42 17.6248ZM13.3125 8.7373L17.2969 4.75293V8.7373H13.3125ZM13.1437 13.4436C15.5531 13.4436 17.5125 15.4029 17.5125 17.8123C17.5125 20.2217 15.5531 22.1811 13.1437 22.1811C10.7344 22.1811 8.775 20.2217 8.775 17.8123C8.775 15.4029 10.7344 13.4436 13.1437 13.4436ZM9.20625 33.8904H6C5.82187 33.8904 5.67188 33.7404 5.67188 33.5623V18.8904C5.67188 18.7123 5.82187 18.5623 6 18.5623H7.89375C8.07187 19.7998 8.67188 20.8967 9.54375 21.7123V33.5623C9.54375 33.7404 9.39375 33.8904 9.20625 33.8904ZM14.7188 34.7529C14.3156 34.7529 13.9313 34.5936 13.65 34.3123C13.0594 33.7217 13.0594 32.7561 13.65 32.1654L15.5156 30.2998C15.8062 30.0092 16.1812 29.8592 16.5844 29.8592C16.9875 29.8592 17.3719 30.0186 17.6531 30.2998C18.2438 30.8904 18.2438 31.8561 17.6531 32.4467L15.7969 34.3123C15.5063 34.5936 15.1219 34.7529 14.7188 34.7529ZM17.5312 37.5654C17.1281 37.5654 16.7438 37.4061 16.4625 37.1248C15.8719 36.5342 15.8719 35.5686 16.4625 34.9779L18.3281 33.1123C18.6187 32.8217 18.9937 32.6717 19.3969 32.6717C19.8 32.6717 20.1844 32.8311 20.4656 33.1123C21.0562 33.7029 21.0562 34.6686 20.4656 35.2592L18.6 37.1248C18.3187 37.4061 17.9344 37.5654 17.5312 37.5654ZM20.3344 40.3686C19.9312 40.3686 19.5469 40.2092 19.2656 39.9279C18.675 39.3373 18.675 38.3717 19.2656 37.7811L21.1312 35.9154C21.4312 35.6154 21.8156 35.4748 22.2 35.4748C22.5844 35.4748 22.9781 35.6248 23.2687 35.9154C23.5594 36.2061 23.7094 36.5811 23.7094 36.9842C23.7094 37.3873 23.55 37.7717 23.2687 38.0529L21.4031 39.9186C21.1219 40.2092 20.7469 40.3686 20.3344 40.3686ZM22.0687 42.7311C21.4781 42.1404 21.4781 41.1748 22.0687 40.5842L23.9344 38.7186C24.2344 38.4186 24.6188 38.2779 25.0031 38.2779C25.3875 38.2779 25.7812 38.4279 26.0719 38.7186C26.6625 39.3092 26.6625 40.2748 26.0719 40.8654L24.2063 42.7311C23.625 43.3311 22.6687 43.3311 22.0687 42.7311ZM26.6531 43.4623C26.3625 43.7529 25.9875 43.9029 25.5844 43.9029C25.2469 43.9029 24.9281 43.7904 24.6656 43.5936C24.7406 43.5373 24.8156 43.4717 24.8906 43.3967L26.7562 41.5311L26.8031 41.4842C27 41.7467 27.1031 42.0561 27.1031 42.3842C27.0938 42.7873 26.9344 43.1717 26.6531 43.4623ZM36 32.5404C35.9156 32.4186 35.8219 32.2967 35.7094 32.1936L29.4281 25.9123C29.2406 25.7248 28.95 25.7248 28.7625 25.9123C28.575 26.0998 28.575 26.3904 28.7625 26.5779L35.0437 32.8592C35.3437 33.1592 35.5125 33.5717 35.5031 33.9936C35.5031 34.4061 35.3438 34.7811 35.0531 35.0529C34.4625 35.6248 33.5063 35.6154 32.925 35.0342L26.9625 29.0717C26.775 28.8842 26.4844 28.8842 26.2969 29.0717C26.1094 29.2592 26.1094 29.5498 26.2969 29.7373L32.2594 35.6998C32.85 36.2904 32.85 37.2561 32.2594 37.8467C31.6688 38.4373 30.7031 38.4373 30.1125 37.8467L24.15 31.8842C23.9625 31.6967 23.6719 31.6967 23.4844 31.8842C23.2969 32.0717 23.2969 32.3623 23.4844 32.5498L29.4469 38.5123C29.7375 38.8029 29.8875 39.1779 29.8875 39.5811C29.8875 39.9842 29.7281 40.3686 29.4469 40.6498C28.8563 41.2404 27.8906 41.2404 27.3 40.6498C27.6281 39.7779 27.4406 38.7561 26.7375 38.0529C26.1656 37.4811 25.3688 37.2467 24.6188 37.3686C24.6375 37.2467 24.6469 37.1154 24.6469 36.9842C24.6469 36.3279 24.3937 35.7092 23.925 35.2498C23.3438 34.6686 22.5563 34.4436 21.8063 34.5654C21.9281 33.8154 21.6938 33.0186 21.1219 32.4467C20.6625 31.9873 20.0438 31.7248 19.3875 31.7248C19.2563 31.7248 19.125 31.7342 19.0031 31.7529C19.125 31.0029 18.8906 30.2061 18.3187 29.6342C17.8594 29.1748 17.2406 28.9123 16.5844 28.9123C15.9281 28.9123 15.3094 29.1654 14.85 29.6342L12.9844 31.4998C12.6844 31.7998 12.4781 32.1561 12.3656 32.5404H10.4813V22.4061C11.2688 22.8654 12.1781 23.1279 13.1437 23.1279C15.4219 23.1279 17.3625 21.6842 18.1219 19.6686H21.0656C21.5812 19.6686 22.0688 19.8654 22.4344 20.2311L23.3438 21.1404L20.4375 24.0467C19.9688 24.5154 19.7156 25.1342 19.7156 25.7904C19.7156 26.4467 19.9688 27.0748 20.4375 27.5342C20.9156 28.0123 21.5531 28.2561 22.1813 28.2561C22.8094 28.2561 23.4469 28.0123 23.925 27.5342L26.6438 24.8154C26.9906 24.4686 27.45 24.2811 27.9375 24.2811H32.7C32.9625 24.2811 33.1687 24.0748 33.1687 23.8123C33.1687 23.5498 32.9625 23.3436 32.7 23.3436H27.9375C27.1969 23.3436 26.5031 23.6342 25.9781 24.1498L23.2594 26.8686C22.6594 27.4686 21.6938 27.4686 21.0938 26.8686C20.8031 26.5779 20.6437 26.1936 20.6437 25.7811C20.6437 25.3686 20.8031 24.9842 21.0938 24.6936L25.575 20.2123C25.9406 19.8467 26.4281 19.6498 26.9437 19.6498H37.5281V32.5217L36 32.5404ZM42.3375 33.5623C42.3375 33.7404 42.1875 33.8904 42.0094 33.8904H38.7937C38.6156 33.8904 38.4656 33.7404 38.4656 33.5623V18.8904C38.4656 18.7123 38.6156 18.5623 38.7937 18.5623H42C42.1781 18.5623 42.3281 18.7123 42.3281 18.8904V33.5623H42.3375Z" fill="#091E42"/>
<path d="M13.6871 17.3435H13.6121V16.5935H14.3528C14.6153 16.5935 14.8215 16.3872 14.8215 16.1247C14.8215 15.8622 14.6153 15.656 14.3528 15.656H13.6121V15.4966C13.6121 15.2341 13.4059 15.0278 13.1434 15.0278C12.8809 15.0278 12.6746 15.2341 12.6746 15.4966V15.656H12.5996C11.8778 15.656 11.2871 16.2466 11.2871 16.9685C11.2871 17.6903 11.8778 18.281 12.5996 18.281H12.6746V19.031H11.934C11.6715 19.031 11.4653 19.2372 11.4653 19.4997C11.4653 19.7622 11.6715 19.9685 11.934 19.9685H12.6746V20.1278C12.6746 20.3903 12.8809 20.5966 13.1434 20.5966C13.4059 20.5966 13.6121 20.3903 13.6121 20.1278V19.9685H13.6871C14.409 19.9685 14.9996 19.3778 14.9996 18.656C14.9996 17.9341 14.409 17.3435 13.6871 17.3435ZM12.5996 17.3435C12.3934 17.3435 12.2246 17.1747 12.2246 16.9685C12.2246 16.7622 12.3934 16.5935 12.5996 16.5935H12.6746V17.3435H12.5996ZM13.6871 19.031H13.6121V18.281H13.6871C13.8934 18.281 14.0621 18.4497 14.0621 18.656C14.0621 18.8622 13.8934 19.031 13.6871 19.031Z" fill="#091E42"/>
<path d="M9.05625 11.7652C8.93438 11.7652 8.8125 11.7184 8.72812 11.6246L8.30625 11.2027L7.88437 11.6246C7.69687 11.8121 7.40625 11.8121 7.21875 11.6246C7.03125 11.4371 7.03125 11.1465 7.21875 10.959L7.96875 10.209C8.15625 10.0215 8.44687 10.0215 8.63437 10.209L9.38438 10.959C9.57188 11.1465 9.57188 11.4371 9.38438 11.6246C9.29063 11.7184 9.17812 11.7652 9.05625 11.7652Z" fill="#0052CC"/>
<path d="M16.566 42.6001C16.4441 42.6001 16.3222 42.5533 16.2379 42.4595L15.816 42.0376L15.3941 42.4595C15.2066 42.647 14.916 42.647 14.7285 42.4595C14.541 42.272 14.541 41.9814 14.7285 41.7939L15.4785 41.0439C15.666 40.8564 15.9566 40.8564 16.1441 41.0439L16.8941 41.7939C17.0816 41.9814 17.0816 42.272 16.8941 42.4595C16.8097 42.5533 16.6879 42.6001 16.566 42.6001Z" fill="#0052CC"/>
<path d="M41.082 13.6875H40.8007V13.4062C40.8007 13.1438 40.5945 12.9375 40.332 12.9375C40.0695 12.9375 39.8632 13.1438 39.8632 13.4062V13.6875H39.582C39.3195 13.6875 39.1132 13.8938 39.1132 14.1562C39.1132 14.4188 39.3195 14.625 39.582 14.625H39.8632V14.9062C39.8632 15.1688 40.0695 15.375 40.332 15.375C40.5945 15.375 40.8007 15.1688 40.8007 14.9062V14.625H41.082C41.3445 14.625 41.5507 14.4188 41.5507 14.1562C41.5507 13.8938 41.3445 13.6875 41.082 13.6875Z" fill="#0052CC"/>
<path d="M12.5059 39.5059H12.2246V39.2246C12.2246 38.9621 12.0184 38.7559 11.7559 38.7559C11.4934 38.7559 11.2871 38.9621 11.2871 39.2246V39.5059H11.0059C10.7434 39.5059 10.5371 39.7121 10.5371 39.9746C10.5371 40.2371 10.7434 40.4434 11.0059 40.4434H11.2871V40.7246C11.2871 40.9871 11.4934 41.1934 11.7559 41.1934C12.0184 41.1934 12.2246 40.9871 12.2246 40.7246V40.4434H12.5059C12.7684 40.4434 12.9746 40.2371 12.9746 39.9746C12.9746 39.7121 12.7684 39.5059 12.5059 39.5059Z" fill="#0052CC"/>
<path d="M40.35 10.0499C40.2281 10.0499 40.1062 10.003 40.0219 9.90928L39.6 9.4874L39.2438 9.84365C39.0563 10.0312 38.7656 10.0312 38.5781 9.84365C38.3906 9.65615 38.3906 9.36553 38.5781 9.17803L39.2625 8.49365C39.45 8.30615 39.7406 8.30615 39.9281 8.49365L40.6781 9.24365C40.8656 9.43115 40.8656 9.72178 40.6781 9.90928C40.5844 10.003 40.4719 10.0499 40.35 10.0499Z" fill="#0052CC"/>
</g>
<defs>
<linearGradient id="paint0_linear" x1="0.506291" y1="24.0001" x2="47.494" y2="24.0001" gradientUnits="userSpaceOnUse">
<stop stop-color="#D2DEFF" stop-opacity="0"/>
<stop offset="1" stop-color="#B7C5FF"/>
</linearGradient>
<clipPath id="clip0">
<rect width="48" height="48" fill="white"/>
</clipPath>
</defs>
</svg>
