<svg width="48" height="48" viewBox="0 0 48 48" fill="none" xmlns="http://www.w3.org/2000/svg">
<g clip-path="url(#clip0)">
<path d="M47.4026 27.3676C46.294 24.1229 43.8272 21.7276 40.854 20.5987C39.3137 20.0138 38.2903 18.5497 38.2677 16.9022C38.2673 16.8662 38.2666 16.8301 38.2658 16.794C38.1245 10.7395 33.0638 5.88809 27.0086 5.99206C23.4372 6.05337 20.2784 7.80659 18.2987 10.4846C16.5939 12.7907 13.9403 14.2313 11.0725 14.2298C10.9883 14.2298 10.904 14.2306 10.8193 14.2325C5.01461 14.3594 0.0786757 19.3398 0.00123817 25.1454C-0.0812618 31.3264 4.90455 36.3629 11.0667 36.3629C15.843 36.3629 19.912 33.337 21.4623 29.0976C21.868 27.9883 23.0703 27.3938 24.2076 27.7127C24.2217 27.7167 24.236 27.7207 24.2502 27.7246C25.2908 28.0119 25.9807 29.0034 25.8956 30.0795C25.7815 31.5217 25.95 33.0097 26.4391 34.4667C28.363 40.1981 34.613 43.3434 40.3603 41.4679C46.2395 39.5493 49.3959 33.2006 47.4026 27.3676Z" fill="url(#paint0_linear)"/>
<path opacity="0.1" d="M42.75 19.1003V10.3835C42.75 9.60725 42.12 8.97725 41.3438 8.97725H27.7377L24.8058 4.04844C24.4423 3.43747 23.5578 3.43747 23.1943 4.04844L20.2624 8.97725H6.65625C5.88 8.97725 5.25 9.60725 5.25 10.3835V19.1003H42.75Z" fill="#091E42"/>
<path d="M29.3165 44.4109H18.6833L20.8097 35.9824H27.1901L29.3165 44.4109Z" fill="white"/>
<path d="M42.75 12.3526V36.1885C42.75 36.9648 42.12 37.5948 41.3438 37.5948H6.65625C5.88 37.5948 5.25 36.9648 5.25 36.1885V12.3526C5.25 11.5764 5.88 10.9464 6.65625 10.9464H41.3438C42.12 10.9464 42.75 11.5764 42.75 12.3526Z" fill="white"/>
<path d="M42.75 19.3815V12.3526C42.75 11.5764 42.12 10.9464 41.3438 10.9464H6.65625C5.88 10.9464 5.25 11.5764 5.25 12.3526V19.3815H42.75Z" fill="#0052CC"/>
<path d="M42.75 15.4624V12.3526C42.75 11.576 42.1204 10.9464 41.3438 10.9464H6.65625C5.87962 10.9464 5.25 11.576 5.25 12.3526V15.4624H42.75Z" fill="white"/>
<path d="M5.25 32.8701V36.1879C5.25 36.9646 5.87962 37.5942 6.65625 37.5942H41.3438C42.1204 37.5942 42.75 36.9646 42.75 36.1879V32.8701H5.25Z" fill="white"/>
<path d="M8.82016 13.6797C8.56122 13.6797 8.35141 13.4698 8.35141 13.211V13.1974C8.35141 12.9385 8.56122 12.7286 8.82016 12.7286C9.0791 12.7286 9.28891 12.9385 9.28891 13.1974V13.211C9.28891 13.4698 9.0791 13.6797 8.82016 13.6797Z" fill="#091E42"/>
<path d="M10.6316 13.6797C10.3727 13.6797 10.1628 13.4698 10.1628 13.211V13.1974C10.1628 12.9385 10.3727 12.7286 10.6316 12.7286C10.8905 12.7286 11.1003 12.9385 11.1003 13.1974V13.211C11.1003 13.4698 10.8905 13.6797 10.6316 13.6797Z" fill="#091E42"/>
<path d="M12.444 13.6797C12.1851 13.6797 11.9753 13.4698 11.9753 13.211V13.1974C11.9753 12.9385 12.1851 12.7286 12.444 12.7286C12.703 12.7286 12.9128 12.9385 12.9128 13.1974V13.211C12.9128 13.4698 12.703 13.6797 12.444 13.6797Z" fill="#091E42"/>
<path d="M12.9929 25.9383H35.0083C35.7354 25.9383 36.1858 25.1464 35.814 24.5215L24.8064 6.01688C24.443 5.40591 23.5584 5.40591 23.195 6.01688L12.1872 24.5215C11.8155 25.1465 12.2658 25.9383 12.9929 25.9383Z" fill="white"/>
<path d="M41.3438 10.4774H30.3144C30.0555 10.4774 29.8457 10.6873 29.8457 10.9462C29.8457 11.205 30.0555 11.4149 30.3144 11.4149H41.3438C41.8607 11.4149 42.2812 11.8355 42.2812 12.3524V14.9935H30.6908L25.2085 5.77737C24.9525 5.34706 24.5006 5.09009 23.9998 5.09009C23.4991 5.09009 23.0473 5.34706 22.7914 5.77746L19.9955 10.4774H6.65625C5.62238 10.4774 4.78125 11.3186 4.78125 12.3524V36.1881C4.78125 37.222 5.62238 38.0631 6.65625 38.0631H19.8014L18.8911 41.6712C18.8277 41.9223 18.9799 42.1771 19.2309 42.2404C19.2694 42.2501 19.3079 42.2547 19.346 42.2547C19.5556 42.2547 19.7465 42.1131 19.8001 41.9006L20.7682 38.063H27.2318L28.7149 43.9412H16.8812C16.6222 43.9412 16.4124 44.1511 16.4124 44.41C16.4124 44.6688 16.6222 44.8787 16.8812 44.8787H31.1187C31.3777 44.8787 31.5875 44.6688 31.5875 44.41C31.5875 44.1511 31.3777 43.9412 31.1187 43.9412H29.6815L28.1985 38.063H41.3438C42.3776 38.063 43.2188 37.2219 43.2188 36.188V12.3524C43.2188 11.3186 42.3776 10.4774 41.3438 10.4774ZM42.2812 15.931V32.4015H5.71875V15.931H16.7515L11.7838 24.282C11.5219 24.7223 11.5166 25.2508 11.7699 25.6962C12.0232 26.1415 12.4801 26.4072 12.9923 26.4072H35.0078C35.5201 26.4072 35.977 26.1415 36.2302 25.6962C36.4835 25.2508 36.4783 24.7223 36.2164 24.2821L31.2487 15.9311L42.2812 15.931ZM23.5972 6.25671C23.7203 6.0499 23.9198 6.02768 24 6.02759C24.0801 6.02759 24.2798 6.0499 24.4029 6.25671L35.4106 24.7614C35.5364 24.9729 35.4557 25.1615 35.4153 25.2327C35.3747 25.3039 35.2538 25.4697 35.0077 25.4697H12.9923C12.7462 25.4697 12.6253 25.3039 12.5847 25.2327C12.5442 25.1614 12.4636 24.9729 12.5894 24.7613L23.5972 6.25671ZM6.65625 11.4149H19.4379L17.3092 14.9935H5.71875V12.3524C5.71875 11.8355 6.13931 11.4149 6.65625 11.4149ZM41.3438 37.1256H6.65625C6.13931 37.1256 5.71875 36.705 5.71875 36.1881V33.339H42.2812V36.1881C42.2812 36.705 41.8607 37.1256 41.3438 37.1256Z" fill="#091E42"/>
<path d="M24 19.6753C23.4823 19.6753 23.0625 19.2556 23.0625 18.7378V12.5737C23.0625 12.0559 23.4823 11.6362 24 11.6362C24.5177 11.6362 24.9375 12.0559 24.9375 12.5737V18.7378C24.9375 19.2556 24.5177 19.6753 24 19.6753Z" fill="#091E42"/>
<path d="M24 22.5871C23.4823 22.5871 23.0625 22.1674 23.0625 21.6496V21.6388C23.0625 21.121 23.4823 20.7013 24 20.7013C24.5177 20.7013 24.9375 21.121 24.9375 21.6388V21.6496C24.9375 22.1674 24.5177 22.5871 24 22.5871Z" fill="#091E42"/>
<path d="M11.5412 30.2735C11.4212 30.2735 11.3012 30.2278 11.2097 30.1363C10.9904 29.917 10.6336 29.9168 10.4143 30.1363C10.2314 30.3193 9.93437 30.3193 9.75146 30.1363C9.65987 30.0447 9.61412 29.9248 9.61412 29.8048C9.61412 29.6848 9.65987 29.5649 9.75146 29.4733C9.85768 29.3671 9.91618 29.2258 9.91618 29.0755C9.91618 28.9252 9.85768 28.784 9.75146 28.6778C9.65987 28.5863 9.61412 28.4663 9.61412 28.3464C9.61412 28.2264 9.65987 28.1064 9.75137 28.0149C9.93446 27.8318 10.2312 27.8317 10.4143 28.0149C10.5206 28.1211 10.6619 28.1796 10.8121 28.1796C10.9622 28.1796 11.1034 28.1211 11.2097 28.0149C11.3928 27.8318 11.6895 27.8317 11.8726 28.0149C11.9642 28.1064 12.0099 28.2264 12.0099 28.3463C12.0099 28.4663 11.9642 28.5863 11.8727 28.6778C11.6533 28.8972 11.6533 29.254 11.8726 29.4733C11.9642 29.5649 12.0099 29.6848 12.0099 29.8048C12.0099 29.9248 11.9642 30.0447 11.8726 30.1363C11.7812 30.2278 11.6612 30.2735 11.5412 30.2735Z" fill="#0052CC"/>
<path d="M15.3537 30.2735C15.2338 30.2735 15.1137 30.2278 15.0223 30.1363C14.8029 29.9169 14.4461 29.9169 14.2267 30.1363C14.0438 30.3193 13.7468 30.3193 13.5639 30.1363C13.4723 30.0447 13.4265 29.9248 13.4265 29.8048C13.4265 29.6848 13.4723 29.5649 13.5639 29.4733C13.6701 29.3671 13.7286 29.2258 13.7286 29.0755C13.7286 28.9252 13.6701 28.784 13.5639 28.6778C13.4723 28.5863 13.4265 28.4663 13.4265 28.3464C13.4265 28.2264 13.4723 28.1064 13.5638 28.0149C13.7469 27.8318 14.0436 27.8317 14.2267 28.0149C14.4461 28.2342 14.8029 28.2342 15.0223 28.0149C15.2052 27.8319 15.5021 27.8318 15.6852 28.0149C15.7767 28.1064 15.8224 28.2264 15.8224 28.3464C15.8224 28.4663 15.7767 28.5863 15.6851 28.6778C15.5789 28.784 15.5204 28.9253 15.5204 29.0755C15.5204 29.2257 15.5789 29.367 15.6851 29.4733C15.7767 29.5649 15.8224 29.6848 15.8224 29.8048C15.8224 29.9248 15.7767 30.0447 15.6851 30.1363C15.5937 30.2278 15.4737 30.2735 15.3537 30.2735Z" fill="#0052CC"/>
<path d="M19.1671 30.2735C19.0472 30.2735 18.9271 30.2278 18.8357 30.1363C18.6163 29.9169 18.2595 29.9169 18.0401 30.1363C17.8572 30.3193 17.5602 30.3193 17.3773 30.1363C17.2857 30.0447 17.24 29.9248 17.24 29.8048C17.24 29.6848 17.2857 29.5649 17.3773 29.4733C17.4835 29.3671 17.542 29.2258 17.542 29.0755C17.542 28.9252 17.4835 28.784 17.3773 28.6778C17.2857 28.5863 17.24 28.4663 17.24 28.3464C17.24 28.2264 17.2857 28.1064 17.3772 28.0149C17.5603 27.8318 17.857 27.8317 18.0401 28.0149C18.2595 28.2342 18.6163 28.2342 18.8357 28.0149C19.0186 27.8319 19.3155 27.8318 19.4986 28.0149C19.5901 28.1064 19.6358 28.2264 19.6358 28.3464C19.6358 28.4663 19.5901 28.5863 19.4985 28.6778C19.3923 28.784 19.3338 28.9253 19.3338 29.0755C19.3338 29.2257 19.3923 29.367 19.4985 29.4733C19.5901 29.5649 19.6358 29.6848 19.6358 29.8048C19.6358 29.9248 19.5901 30.0447 19.4985 30.1363C19.4071 30.2278 19.2871 30.2735 19.1671 30.2735Z" fill="#0052CC"/>
<path d="M37.4476 28.6591H22.7144C22.4551 28.6591 22.2449 28.4489 22.2449 28.1896C22.2449 27.9303 22.4551 27.7201 22.7144 27.7201H37.4476C37.7069 27.7201 37.9171 27.9303 37.9171 28.1896C37.9171 28.4489 37.707 28.6591 37.4476 28.6591Z" fill="#091E42"/>
<path d="M37.4476 30.4323H22.7144C22.4551 30.4323 22.2449 30.2221 22.2449 29.9628C22.2449 29.7035 22.4551 29.4933 22.7144 29.4933H37.4476C37.7069 29.4933 37.9171 29.7035 37.9171 29.9628C37.9171 30.222 37.707 30.4323 37.4476 30.4323Z" fill="#091E42"/>
<path d="M13.4772 42.7312C13.3528 42.7312 13.2336 42.6818 13.1458 42.5939L12.1128 41.561C11.9297 41.3779 11.9297 41.0811 12.1128 40.8981L13.1458 39.8652C13.2337 39.7772 13.3528 39.7279 13.4772 39.7279C13.6015 39.7279 13.7207 39.7773 13.8086 39.8652L14.8416 40.8981C14.9295 40.986 14.9789 41.1052 14.9789 41.2296C14.9789 41.354 14.9296 41.4732 14.8416 41.5611L13.8086 42.594C13.7207 42.6818 13.6015 42.7312 13.4772 42.7312ZM13.1072 41.2295L13.4772 41.5995L13.8472 41.2295L13.4772 40.8595L13.1072 41.2295Z" fill="#0052CC"/>
<path d="M30.0823 7.87715C29.958 7.87715 29.8388 7.82775 29.7509 7.7399L28.7179 6.70697C28.63 6.61903 28.5806 6.49987 28.5806 6.37547C28.5806 6.25106 28.6299 6.1319 28.7179 6.04397L29.7509 5.01103C29.8389 4.92309 29.958 4.87378 30.0823 4.87378C30.2066 4.87378 30.3259 4.92319 30.4137 5.01103L31.4467 6.04397C31.6298 6.22706 31.6298 6.52387 31.4467 6.70687L30.4137 7.73981C30.3259 7.82775 30.2066 7.87715 30.0823 7.87715ZM29.7123 6.37547L30.0823 6.7455L30.4523 6.37547L30.0823 6.00544L29.7123 6.37547Z" fill="#0052CC"/>
<path d="M34.2172 6.12471C33.9582 6.12471 33.7484 5.91481 33.7484 5.65596C33.7484 5.3449 33.4953 5.09178 33.1841 5.09178C32.9252 5.09178 32.7154 4.88187 32.7154 4.62303C32.7154 4.36418 32.9252 4.15428 33.1841 4.15428C33.4952 4.15428 33.7484 3.90115 33.7484 3.59009C33.7484 3.33124 33.9582 3.12134 34.2172 3.12134C34.4761 3.12134 34.6859 3.33124 34.6859 3.59009C34.6859 3.90115 34.9389 4.15428 35.2501 4.15428C35.509 4.15428 35.7188 4.36418 35.7188 4.62303C35.7188 4.88187 35.509 5.09178 35.2501 5.09178C34.939 5.09178 34.6859 5.3449 34.6859 5.65596C34.6859 5.9149 34.4761 6.12471 34.2172 6.12471Z" fill="#0052CC"/>
<path d="M15.3545 7.87715C15.0955 7.87715 14.8857 7.66725 14.8857 7.4084C14.8857 7.09734 14.6327 6.84422 14.3215 6.84422C14.0626 6.84422 13.8528 6.63431 13.8528 6.37547C13.8528 6.11662 14.0626 5.90672 14.3215 5.90672C14.6326 5.90672 14.8857 5.65359 14.8857 5.34253C14.8857 5.08369 15.0955 4.87378 15.3545 4.87378C15.6134 4.87378 15.8232 5.08369 15.8232 5.34253C15.8232 5.65359 16.0763 5.90672 16.3875 5.90672C16.6464 5.90672 16.8563 6.11662 16.8563 6.37547C16.8563 6.63431 16.6464 6.84422 16.3875 6.84422C16.0764 6.84422 15.8232 7.09734 15.8232 7.4084C15.8232 7.66725 15.6134 7.87715 15.3545 7.87715Z" fill="#0052CC"/>
</g>
<defs>
<linearGradient id="paint0_linear" x1="0.103707" y1="15.7759" x2="49.4423" y2="29.7856" gradientUnits="userSpaceOnUse">
<stop stop-color="#D2DEFF" stop-opacity="0"/>
<stop offset="1" stop-color="#B7C5FF"/>
</linearGradient>
<clipPath id="clip0">
<rect width="48" height="48" fill="white"/>
</clipPath>
</defs>
</svg>
