<svg width="48" height="48" viewBox="0 0 48 48" fill="none" xmlns="http://www.w3.org/2000/svg">
<g clip-path="url(#clip0)">
<path d="M26.8674 0.456391C18.022 3.05758 19.7961 9.22999 18.8068 16.0694C17.572 24.6055 12.2354 20.2286 6.10404 24.8386C-4.49477 32.8075 3.20426 50.3982 16.3667 47.7267C23.3559 46.3082 24.7841 41.1553 27.6348 35.6495C31.3222 28.527 37.4371 30.4689 42.9222 25.8191C54.0461 16.3896 39.4157 -3.2337 26.8674 0.456391Z" fill="url(#paint0_linear)"/>
<path opacity="0.1" d="M21.3263 39.7261C21.1346 39.552 20.8381 39.5665 20.6641 39.7584L15.5362 45.4118C15.3623 45.6036 15.3767 45.9 15.5685 46.0738C15.7596 46.2475 16.0562 46.2338 16.2306 46.0416L21.3586 40.3882C21.5325 40.1964 21.5181 39.8999 21.3263 39.7261Z" fill="#091E42"/>
<path opacity="0.1" d="M16.0066 31.8072C15.8149 31.6331 15.5184 31.6476 15.3445 31.8394L6.64728 41.4277C6.47337 41.6196 6.48781 41.916 6.67953 42.0898C6.76934 42.1713 6.88203 42.2114 6.99434 42.2114C7.12193 42.2114 7.24915 42.1596 7.34168 42.0576L16.0389 32.4693C16.2128 32.2775 16.1983 31.981 16.0066 31.8072Z" fill="#091E42"/>
<path opacity="0.1" d="M14.4998 35.9408L13.496 37.0475C13.3221 37.2393 13.3365 37.5358 13.5283 37.7096C13.6181 37.791 13.7308 37.8312 13.8431 37.8312C13.9707 37.8312 14.0979 37.7793 14.1904 37.6773L15.1942 36.5706C15.3681 36.3788 15.3537 36.0824 15.1619 35.9086C14.9701 35.7344 14.6737 35.749 14.4998 35.9408Z" fill="#091E42"/>
<path opacity="0.1" d="M7.80109 29.042C7.92869 29.042 8.05591 28.9901 8.14844 28.8881L9.15222 27.7815C9.32612 27.5898 9.31169 27.2934 9.11997 27.1195C8.92825 26.9454 8.63172 26.9599 8.45781 27.1517L7.45403 28.2582C7.28013 28.45 7.29456 28.7464 7.48628 28.9203C7.57609 29.0019 7.68878 29.042 7.80109 29.042Z" fill="#091E42"/>
<path opacity="0.1" d="M41.1254 12.5246L23.488 16.8707V13.9483C23.488 10.7122 20.9138 8.01486 17.678 7.97286C14.3902 7.9302 11.7116 10.5826 11.7116 13.8605C11.7116 16.0838 12.9443 18.0187 14.763 19.0207L9.33863 20.3574C8.94244 20.455 8.8515 20.9771 9.19135 21.203L14.3702 24.6446L9.69872 29.7948C9.52481 29.9866 9.53925 30.283 9.73097 30.4568C9.82078 30.5383 9.93347 30.5784 10.0458 30.5784C10.1734 30.5784 10.3006 30.5266 10.3931 30.4246L15.1598 25.1693L17.5998 26.7908L17.6149 26.7819L17.5998 26.8534L19.031 36.8C19.0876 37.1938 19.5781 37.3424 19.8438 37.0464L23.5493 32.9183L26.9631 36.8817L19.8878 44.6821C19.7138 44.8739 19.7283 45.1703 19.92 45.3441C20.1112 45.5178 20.4078 45.5041 20.5822 45.3119L27.5796 37.5975L29.0712 39.3294C29.2947 39.5888 29.7119 39.5289 29.8533 39.2171L41.6644 13.1733C41.8261 12.8169 41.5055 12.431 41.1254 12.5246Z" fill="#091E42"/>
<path d="M42.0631 9.20032L18.1935 20.949L17.5991 23.7605L19.1731 34.6999L42.0631 9.20032Z" fill="white"/>
<path d="M21.2996 27.2131L19.173 34.6991L23.5486 29.8247L21.2996 27.2131Z" fill="white"/>
<path d="M42.0635 9.19934L29.5498 36.7919L21.2998 27.2135L42.0635 9.19934Z" fill="white"/>
<path d="M27.8505 29.3779C27.6555 29.5476 27.3592 29.5279 27.1886 29.3329L23.597 25.2201L24.3048 24.606L27.8945 28.716C28.0651 28.911 28.0454 29.2073 27.8505 29.3779Z" fill="#091E42"/>
<path d="M29.3114 27.8154C29.1164 27.9861 28.8201 27.9654 28.6495 27.7704L25.2051 23.8264L25.9129 23.2114L29.3554 27.1536C29.526 27.3486 29.5063 27.6447 29.3114 27.8154Z" fill="#091E42"/>
<path d="M30.7695 26.2527C30.5745 26.4233 30.2782 26.4036 30.1076 26.2086L26.8104 22.4324L27.5182 21.8174L30.8145 25.5918C30.9842 25.7868 30.9645 26.083 30.7695 26.2527Z" fill="#091E42"/>
<path d="M32.2304 24.6907C32.0354 24.8604 31.7391 24.8407 31.5685 24.6457L28.4185 21.0382L29.1263 20.4241L32.2754 24.0288C32.4451 24.2238 32.4254 24.5201 32.2304 24.6907Z" fill="#091E42"/>
<path d="M33.6895 23.1278C33.4945 23.2984 33.1982 23.2778 33.0286 23.0828L30.0248 19.6441L30.7326 19.0291L33.7345 22.4659C33.9043 22.6609 33.8845 22.9571 33.6895 23.1278Z" fill="#091E42"/>
<path d="M34.5557 18.3496C34.3607 18.5202 34.0644 18.4996 33.8938 18.3046L32.8916 17.1571L33.5994 16.5421L34.6007 17.6887C34.7704 17.8837 34.7507 18.179 34.5557 18.3496Z" fill="#091E42"/>
<path d="M17.5991 23.698L42.0631 9.20032L8.30231 17.5197L17.5991 23.698Z" fill="white"/>
<path d="M22.7488 16.6549H17.5989C14.3469 16.6549 11.7106 14.0187 11.7106 10.7668C11.7106 7.51476 14.3469 4.8786 17.5989 4.8786C20.8509 4.8786 23.487 7.51485 23.487 10.7668V15.9168C23.487 16.3244 23.1565 16.6549 22.7488 16.6549Z" fill="#0052CC"/>
<path d="M20.2924 11.6413C20.7755 11.6413 21.1671 11.2497 21.1671 10.7666C21.1671 10.2835 20.7755 9.89191 20.2924 9.89191C19.8093 9.89191 19.4177 10.2835 19.4177 10.7666C19.4177 11.2497 19.8093 11.6413 20.2924 11.6413Z" fill="#091E42"/>
<path d="M17.5992 11.6413C18.0823 11.6413 18.4739 11.2497 18.4739 10.7666C18.4739 10.2835 18.0823 9.89191 17.5992 9.89191C17.1161 9.89191 16.7245 10.2835 16.7245 10.7666C16.7245 11.2497 17.1161 11.6413 17.5992 11.6413Z" fill="#091E42"/>
<path d="M14.9052 11.6413C15.3882 11.6413 15.7798 11.2497 15.7798 10.7666C15.7798 10.2835 15.3882 9.89191 14.9052 9.89191C14.4221 9.89191 14.0305 10.2835 14.0305 10.7666C14.0305 11.2497 14.4221 11.6413 14.9052 11.6413Z" fill="#091E42"/>
<path d="M28.4185 8.38873C28.1596 8.38873 27.9497 8.17892 27.9497 7.91998C27.9497 7.60976 27.6975 7.35748 27.3872 7.35748C27.1284 7.35748 26.9185 7.14767 26.9185 6.88873C26.9185 6.62979 27.1284 6.41998 27.3872 6.41998C27.6975 6.41998 27.9497 6.1677 27.9497 5.85748C27.9497 5.59855 28.1596 5.38873 28.4185 5.38873C28.6773 5.38873 28.8872 5.59855 28.8872 5.85748C28.8872 6.1677 29.1395 6.41998 29.4497 6.41998C29.7086 6.41998 29.9185 6.62979 29.9185 6.88873C29.9185 7.14767 29.7086 7.35748 29.4497 7.35748C29.1395 7.35748 28.8872 7.60976 28.8872 7.91998C28.8872 8.17882 28.6774 8.38873 28.4185 8.38873Z" fill="#0052CC"/>
<path d="M37.8023 34.8427C37.5435 34.8427 37.3336 34.6329 37.3336 34.374C37.3336 34.0637 37.0812 33.8115 36.7711 33.8115C36.5122 33.8115 36.3023 33.6017 36.3023 33.3427C36.3023 33.0838 36.5122 32.874 36.7711 32.874C37.0813 32.874 37.3336 32.6217 37.3336 32.3115C37.3336 32.0525 37.5435 31.8427 37.8023 31.8427C38.0612 31.8427 38.2711 32.0525 38.2711 32.3115C38.2711 32.6217 38.5234 32.874 38.8336 32.874C39.0924 32.874 39.3023 33.0838 39.3023 33.3427C39.3023 33.6017 39.0924 33.8115 38.8336 33.8115C38.5234 33.8115 38.2711 34.0637 38.2711 34.374C38.2711 34.6329 38.0612 34.8427 37.8023 34.8427Z" fill="#0052CC"/>
<path d="M35.1488 38.2919C34.8899 38.2919 34.68 38.0821 34.68 37.8231C34.68 37.5129 34.4277 37.2606 34.1175 37.2606C33.8587 37.2606 33.6488 37.0508 33.6488 36.7919C33.6488 36.5329 33.8587 36.3231 34.1175 36.3231C34.4277 36.3231 34.68 36.0708 34.68 35.7606C34.68 35.5017 34.8899 35.2919 35.1488 35.2919C35.4076 35.2919 35.6175 35.5017 35.6175 35.7606C35.6175 36.0708 35.8698 36.3231 36.18 36.3231C36.4389 36.3231 36.6488 36.5329 36.6488 36.7919C36.6488 37.0508 36.4389 37.2606 36.18 37.2606C35.8698 37.2606 35.6175 37.5129 35.6175 37.8231C35.6175 38.0821 35.4076 38.2919 35.1488 38.2919Z" fill="#0052CC"/>
<path d="M6.99367 32.8774C6.86936 32.8774 6.75011 32.8281 6.66217 32.7401L5.60186 31.6797C5.51392 31.5918 5.46461 31.4726 5.46461 31.3483C5.46461 31.224 5.51401 31.1047 5.60186 31.0169L6.66217 29.9566C6.84526 29.7735 7.14208 29.7736 7.32508 29.9565L8.38548 31.0168C8.47342 31.1047 8.52283 31.224 8.52283 31.3483C8.52283 31.4726 8.47342 31.5919 8.38558 31.6797L7.32508 32.7402C7.23714 32.8281 7.11798 32.8774 6.99367 32.8774ZM6.59626 31.3484L6.99367 31.7458L7.39108 31.3484L6.99367 30.9511L6.59626 31.3484Z" fill="#0052CC"/>
<path d="M22.8657 5.13567C22.7457 5.13567 22.6258 5.08992 22.5342 4.99833L21.4739 3.93802C21.3859 3.85008 21.3366 3.73092 21.3366 3.60661C21.3366 3.4823 21.386 3.36305 21.4739 3.2752L22.5342 2.2148C22.6221 2.12686 22.7414 2.07745 22.8657 2.07745C22.99 2.07745 23.1092 2.12677 23.1972 2.2148L24.2576 3.2752C24.3455 3.36314 24.3948 3.4823 24.3948 3.60661C24.3948 3.73092 24.3454 3.85017 24.2575 3.93811L23.1972 4.99842C23.1056 5.08992 22.9856 5.13567 22.8657 5.13567ZM22.4683 3.6067L22.8657 4.00402L23.2631 3.6067L22.8657 3.2093L22.4683 3.6067Z" fill="#0052CC"/>
<path d="M42.5318 9.1732C42.5222 8.88783 42.2279 8.67145 41.9525 8.74411L23.9576 13.1785V10.7666C23.9576 7.26127 21.1059 4.40948 17.6006 4.40948C14.0954 4.40948 11.2436 7.26127 11.2436 10.7666C11.2436 12.7695 12.1757 14.5578 13.6278 15.7239L8.19162 17.0635C8.01105 17.108 7.8739 17.2549 7.84202 17.4381C7.81015 17.6213 7.88946 17.8061 8.04433 17.9089L14.53 22.2191L9.69949 27.5445C9.52558 27.7363 9.54002 28.0327 9.73174 28.2065C9.82146 28.288 9.93424 28.3281 10.0466 28.3281C10.1741 28.3281 10.3014 28.2763 10.3939 28.1743L15.3196 22.7439L17.1565 23.9646L18.7106 34.7655C18.7582 35.1521 19.276 35.3049 19.5269 35.0079L23.4973 30.481L27.0195 34.5703L19.8885 42.4319C19.7146 42.6237 19.7291 42.9201 19.9208 43.0939C20.0106 43.1754 20.1233 43.2155 20.2356 43.2155C20.3632 43.2155 20.4904 43.1637 20.5829 43.0617L27.6359 35.286L29.196 37.0973C29.4061 37.3556 29.8497 37.291 29.9781 36.9851L31.73 33.1221C31.837 32.8862 31.7324 32.6085 31.4966 32.5016C31.2608 32.3946 30.9831 32.4991 30.8761 32.7348L29.4273 35.9295L21.9609 27.2608L40.7517 10.9583L32.1774 29.8653C32.0704 30.1012 32.1749 30.379 32.4107 30.4859C32.6464 30.5926 32.9243 30.4882 33.0312 30.2526L42.4913 9.39267C42.5199 9.3233 42.536 9.24867 42.5318 9.1732ZM14.7066 16.4236C15.5754 16.8699 16.5586 17.1235 17.6006 17.1235H18.5156C18.7744 17.1235 18.9843 16.9137 18.9843 16.6547C18.9843 16.3958 18.7744 16.186 18.5156 16.186H17.6006C14.6124 16.186 12.1811 13.7549 12.1811 10.7666C12.1811 7.7782 14.6124 5.34698 17.6006 5.34698C20.5889 5.34698 23.0201 7.7782 23.0201 10.7666V15.9165C23.0201 16.0651 22.8993 16.186 22.7507 16.186H21.6713C21.4124 16.186 21.2025 16.3958 21.2025 16.6547C21.2025 16.9137 21.4124 17.1235 21.6713 17.1235H22.7507C23.4162 17.1235 23.9576 16.5821 23.9576 15.9165V14.1439L39.0962 10.4134L17.6149 23.1436L9.45152 17.7186L14.7066 16.4236ZM22.8796 29.7638L20.1941 32.8258L21.5142 28.1786L22.8796 29.7638ZM20.9992 26.8545C20.9277 26.9175 20.8757 26.9993 20.8486 27.0907L19.3251 32.4537L18.1009 23.9454L37.8258 12.2561L20.9992 26.8545Z" fill="#091E42"/>
<path d="M21.3263 37.4754C21.1345 37.3013 20.8381 37.3158 20.6641 37.5077L15.5362 43.1611C15.3623 43.3529 15.3767 43.6493 15.5685 43.8231C15.7596 43.9968 16.0562 43.9831 16.2306 43.7909L21.3586 38.1375C21.5326 37.9458 21.5181 37.6493 21.3263 37.4754Z" fill="#091E42"/>
<path d="M16.0066 29.5572C15.8148 29.3831 15.5184 29.3976 15.3445 29.5894L6.64728 39.1778C6.47337 39.3696 6.48781 39.6661 6.67953 39.8399C6.76925 39.9213 6.88203 39.9615 6.99434 39.9615C7.12193 39.9615 7.24915 39.9096 7.34168 39.8076L16.0388 30.2194C16.2128 30.0275 16.1983 29.7311 16.0066 29.5572Z" fill="#091E42"/>
<path d="M14.4998 33.6911L13.496 34.7978C13.3221 34.9895 13.3365 35.2859 13.5283 35.4598C13.618 35.5413 13.7308 35.5814 13.8431 35.5814C13.9707 35.5814 14.0979 35.5296 14.1904 35.4276L15.1942 34.3209C15.3681 34.1292 15.3537 33.8328 15.1619 33.6589C14.9701 33.4848 14.6737 33.4993 14.4998 33.6911Z" fill="#091E42"/>
<path d="M8.14853 26.6382L9.15232 25.5315C9.32622 25.3397 9.31179 25.0433 9.12007 24.8695C8.92825 24.6954 8.63182 24.7099 8.45791 24.9017L7.45403 26.0083C7.28013 26.2001 7.29456 26.4966 7.48628 26.6704C7.57609 26.7519 7.68878 26.792 7.8011 26.792C7.92878 26.792 8.056 26.7402 8.14853 26.6382Z" fill="#091E42"/>
</g>
<defs>
<linearGradient id="paint0_linear" x1="1.12751" y1="24.0001" x2="46.8711" y2="24.0001" gradientUnits="userSpaceOnUse">
<stop stop-color="#D2DEFF" stop-opacity="0"/>
<stop offset="1" stop-color="#B7C5FF"/>
</linearGradient>
<clipPath id="clip0">
<rect width="48" height="48" fill="white"/>
</clipPath>
</defs>
</svg>
