<svg width="48" height="48" viewBox="0 0 48 48" fill="none" xmlns="http://www.w3.org/2000/svg">
<g clip-path="url(#clip0)">
<path d="M8.44865 3.58436C-4.23825 14.791 12.0891 25.654 10.5339 37.8995C9.84253 43.3437 12.039 48.5484 19.225 47.9536C27.9825 47.2287 24.8035 38.8403 26.6375 33.2557C29.7931 23.6462 49.2059 25.8907 41.1589 11.0887C36.0234 1.64261 17.1808 -4.12892 8.44865 3.58436Z" fill="url(#paint0_linear)"/>
<path opacity="0.1" d="M44.1111 13.4934C43.4155 12.7978 42.2877 12.7978 41.5921 13.4934L36.8821 18.2034H30.5601V12.5156C30.5601 11.9981 30.1401 11.5781 29.6226 11.5781H9.09138C8.57388 11.5781 8.15388 11.9981 8.15388 12.5156V38.5781C8.15388 40.6491 9.83294 42.3281 11.9039 42.3281H34.7789C36.8498 42.3281 38.5289 40.6491 38.5289 38.5781V21.5948L44.1112 16.0125C44.8068 15.3169 44.8068 14.189 44.1111 13.4934Z" fill="#091E42"/>
<path d="M38.5277 16.6097V36.0469C38.5277 38.1179 36.8487 39.7969 34.7777 39.7969H17.3787V15.6722H37.5902C38.0618 15.6722 38.4527 16.021 38.5174 16.4747C38.5249 16.5188 38.5277 16.5638 38.5277 16.6097Z" fill="white"/>
<path d="M34.3091 39.7969H11.9029C9.83194 39.7969 8.15288 38.1178 8.15288 36.0469V9.98438C8.15288 9.46688 8.57288 9.04688 9.09038 9.04688H29.6216C30.1391 9.04688 30.5591 9.46688 30.5591 9.98438V36.0469C30.5591 38.1178 32.2382 39.7969 34.3091 39.7969Z" fill="white"/>
<path d="M30.5591 17.0312V9.98437C30.5591 9.46687 30.1391 9.04688 29.6216 9.04688H9.09038C8.57288 9.04688 8.15288 9.46687 8.15288 9.98437V17.0312H30.5591Z" fill="#0052CC"/>
<path d="M26.9768 30.7452H11.5627C11.3038 30.7452 11.094 30.5353 11.094 30.2765C11.094 30.0176 11.3038 29.8077 11.5627 29.8077H26.9768C27.2358 29.8077 27.4456 30.0176 27.4456 30.2765C27.4456 30.5354 27.2358 30.7452 26.9768 30.7452Z" fill="#091E42"/>
<path d="M20.6612 35.1306H11.562C11.303 35.1306 11.0932 34.9207 11.0932 34.6619C11.0932 34.403 11.303 34.1931 11.562 34.1931H20.6612C20.9202 34.1931 21.13 34.403 21.13 34.6619C21.13 34.9207 20.9201 35.1306 20.6612 35.1306Z" fill="#091E42"/>
<path d="M26.9768 25.1202H11.5627C11.3038 25.1202 11.094 24.9103 11.094 24.6515C11.094 24.3926 11.3038 24.1827 11.5627 24.1827H26.9768C27.2358 24.1827 27.4456 24.3926 27.4456 24.6515C27.4456 24.9104 27.2358 25.1202 26.9768 25.1202Z" fill="#091E42"/>
<path d="M26.9768 26.9952H11.5627C11.3038 26.9952 11.094 26.7853 11.094 26.5265C11.094 26.2676 11.3038 26.0577 11.5627 26.0577H26.9768C27.2358 26.0577 27.4456 26.2676 27.4456 26.5265C27.4456 26.7854 27.2358 26.9952 26.9768 26.9952Z" fill="#091E42"/>
<path d="M26.9768 28.8702H11.5627C11.3038 28.8702 11.094 28.6603 11.094 28.4015C11.094 28.1426 11.3038 27.9327 11.5627 27.9327H26.9768C27.2358 27.9327 27.4456 28.1426 27.4456 28.4015C27.4456 28.6604 27.2358 28.8702 26.9768 28.8702Z" fill="#091E42"/>
<path d="M15.604 19.4952H11.5627C11.3038 19.4952 11.094 19.2853 11.094 19.0265C11.094 18.7676 11.3038 18.5577 11.5627 18.5577H15.604C15.8629 18.5577 16.0728 18.7676 16.0728 19.0265C16.0728 19.2854 15.8629 19.4952 15.604 19.4952Z" fill="#091E42"/>
<path d="M15.604 15.464H11.5627C11.3038 15.464 11.094 15.2541 11.094 14.9952C11.094 14.7364 11.3038 14.5265 11.5627 14.5265H15.604C15.8629 14.5265 16.0728 14.7364 16.0728 14.9952C16.0728 15.2542 15.8629 15.464 15.604 15.464Z" fill="#091E42"/>
<path d="M15.604 13.7629H11.5627C11.3038 13.7629 11.094 13.553 11.094 13.2942C11.094 13.0353 11.3038 12.8254 11.5627 12.8254H15.604C15.8629 12.8254 16.0728 13.0353 16.0728 13.2942C16.0728 13.553 15.8629 13.7629 15.604 13.7629Z" fill="#091E42"/>
<path d="M26.5009 13.7629H25.5534C25.2944 13.7629 25.0846 13.553 25.0846 13.2942C25.0846 13.0353 25.2944 12.8254 25.5534 12.8254H26.5009C26.7598 12.8254 26.9697 13.0353 26.9697 13.2942C26.9697 13.553 26.7598 13.7629 26.5009 13.7629Z" fill="#091E42"/>
<path d="M26.9768 21.3702H11.5627C11.3038 21.3702 11.094 21.1603 11.094 20.9015C11.094 20.6426 11.3038 20.4327 11.5627 20.4327H26.9768C27.2358 20.4327 27.4456 20.6426 27.4456 20.9015C27.4456 21.1604 27.2358 21.3702 26.9768 21.3702Z" fill="#091E42"/>
<path d="M26.9768 23.2452H11.5627C11.3038 23.2452 11.094 23.0353 11.094 22.7765C11.094 22.5176 11.3038 22.3077 11.5627 22.3077H26.9768C27.2358 22.3077 27.4456 22.5176 27.4456 22.7765C27.4456 23.0354 27.2358 23.2452 26.9768 23.2452Z" fill="#091E42"/>
<path d="M4.40121 28.956C4.28121 28.956 4.1613 28.9103 4.06971 28.8187L3.03846 27.7874C2.85536 27.6044 2.85536 27.3076 3.03846 27.1246L4.06971 26.0934C4.2528 25.9103 4.54952 25.9103 4.73261 26.0934L5.76386 27.1246C5.94696 27.3076 5.94696 27.6044 5.76386 27.7874L4.73261 28.8187C4.64111 28.9103 4.52121 28.956 4.40121 28.956ZM4.03286 27.456L4.40121 27.8244L4.76955 27.456L4.40121 27.0877L4.03286 27.456Z" fill="#0052CC"/>
<path d="M5.43314 41.2968C5.17429 41.2968 4.96439 41.087 4.96439 40.8281C4.96439 40.5178 4.71211 40.2656 4.40189 40.2656C4.14304 40.2656 3.93314 40.0558 3.93314 39.7968C3.93314 39.5379 4.14304 39.3281 4.40189 39.3281C4.71211 39.3281 4.96439 39.0758 4.96439 38.7656C4.96439 38.5066 5.17429 38.2968 5.43314 38.2968C5.69198 38.2968 5.90189 38.5066 5.90189 38.7656C5.90189 39.0758 6.15417 39.3281 6.46439 39.3281C6.72323 39.3281 6.93314 39.5379 6.93314 39.7968C6.93314 40.0558 6.72323 40.2656 6.46439 40.2656C6.15417 40.2656 5.90189 40.5178 5.90189 40.8281C5.90189 41.087 5.69198 41.2968 5.43314 41.2968Z" fill="#0052CC"/>
<path d="M35.7154 11.9406C35.4565 11.9406 35.2466 11.7307 35.2466 11.4718C35.2466 11.1616 34.9943 10.9093 34.6841 10.9093C34.4253 10.9093 34.2154 10.6995 34.2154 10.4406C34.2154 10.1816 34.4253 9.9718 34.6841 9.9718C34.9943 9.9718 35.2466 9.71952 35.2466 9.4093C35.2466 9.15036 35.4565 8.94055 35.7154 8.94055C35.9742 8.94055 36.1841 9.15036 36.1841 9.4093C36.1841 9.71952 36.4364 9.9718 36.7466 9.9718C37.0055 9.9718 37.2154 10.1816 37.2154 10.4406C37.2154 10.6995 37.0055 10.9093 36.7466 10.9093C36.4364 10.9093 36.1841 11.1616 36.1841 11.4718C36.1841 11.7307 35.9742 11.9406 35.7154 11.9406Z" fill="#0052CC"/>
<path d="M32.3543 7.86603C32.0955 7.86603 31.8856 7.65622 31.8856 7.39728C31.8856 7.08706 31.6332 6.83478 31.323 6.83478C31.0641 6.83478 30.8542 6.62497 30.8542 6.36603C30.8542 6.10709 31.0641 5.89728 31.323 5.89728C31.6332 5.89728 31.8856 5.645 31.8856 5.33478C31.8856 5.07584 32.0955 4.86603 32.3543 4.86603C32.6132 4.86603 32.8231 5.07584 32.8231 5.33478C32.8231 5.645 33.0754 5.89728 33.3856 5.89728C33.6444 5.89728 33.8543 6.10709 33.8543 6.36603C33.8543 6.62497 33.6444 6.83478 33.3856 6.83478C33.0755 6.83478 32.8231 7.08706 32.8231 7.39728C32.8231 7.65622 32.6133 7.86603 32.3543 7.86603Z" fill="#0052CC"/>
<path d="M27.1061 16.3061C27.1061 15.4231 26.3877 14.7047 25.5046 14.7047C24.6216 14.7047 23.9032 15.4231 23.9032 16.3061C23.9032 16.7417 24.0784 17.1365 24.3615 17.4256C24.0785 17.7146 23.9032 18.1096 23.9032 18.545C23.9032 18.8112 24.119 19.027 24.3852 19.027C24.6513 19.027 24.8671 18.8112 24.8671 18.545C24.8671 18.1936 25.1531 17.9075 25.5046 17.9075C25.8561 17.9075 26.1421 18.1935 26.1421 18.545C26.1421 18.8112 26.3579 19.027 26.6241 19.027C26.8903 19.027 27.1061 18.8112 27.1061 18.545C27.1061 18.1096 26.9309 17.7146 26.6477 17.4256C26.9309 17.1365 27.1061 16.7416 27.1061 16.3061ZM25.5046 15.6686C25.8561 15.6686 26.1421 15.9545 26.1421 16.3061C26.1421 16.6576 25.8562 16.9436 25.5046 16.9436C25.1532 16.9436 24.8671 16.6576 24.8671 16.3061C24.8671 15.9545 25.1532 15.6686 25.5046 15.6686Z" fill="#091E42"/>
<path d="M23.2508 34.0328L20.6025 35.0791C20.221 35.2299 19.8435 34.8524 19.9943 34.4709L21.0406 31.8225C21.1738 31.4857 21.3746 31.1797 21.6307 30.9235L41.592 10.9624C42.2877 10.2668 43.4155 10.2668 44.1111 10.9624C44.8067 11.658 44.8067 12.7858 44.1111 13.4815L24.1498 33.4427C23.8936 33.6988 23.5876 33.8997 23.2508 34.0328Z" fill="#0052CC"/>
<path d="M39.6802 12.871L40.3098 12.2414L42.8285 14.76L42.1989 15.3897L39.6802 12.871Z" fill="white"/>
<path d="M36.461 16.0895L39.0957 13.4549L41.6143 15.9735L38.9797 18.6082L36.461 16.0895Z" fill="white"/>
<path d="M35.4712 18.9395L38.3288 16.0819C38.5119 15.8988 38.8087 15.8989 38.9917 16.0819C39.1748 16.2649 39.1748 16.5617 38.9917 16.7448L36.1341 19.6024C35.951 19.7855 35.6542 19.7854 35.4712 19.6024C35.2882 19.4194 35.2882 19.1226 35.4712 18.9395Z" fill="#091E42"/>
<path d="M42.0103 26.6205C41.8903 26.6205 41.7704 26.5747 41.6788 26.4831L40.6476 25.4519C40.4645 25.2689 40.4645 24.9721 40.6476 24.7891L41.6788 23.7578C41.8619 23.5747 42.1587 23.5747 42.3417 23.7578L43.373 24.7891C43.5561 24.9721 43.5561 25.2689 43.373 25.4519L42.3417 26.4831C42.2502 26.5747 42.1303 26.6205 42.0103 26.6205ZM41.642 25.1205L42.0103 25.4888L42.3787 25.1205L42.0103 24.7521L41.642 25.1205Z" fill="#0052CC"/>
<path d="M41.2605 10.6307L36.6881 15.2031H33.7156C33.4568 15.2031 33.2469 15.4129 33.2469 15.6718C33.2469 15.9308 33.4568 16.1406 33.7156 16.1406H35.7506L31.0286 20.8624V9.98438C31.0286 9.20888 30.3978 8.57812 29.6224 8.57812H9.09115C8.31574 8.57812 7.6849 9.20888 7.6849 9.98438V36.0469C7.6849 38.3732 9.57743 40.2656 11.9036 40.2656H17.3797H34.7786C37.1049 40.2656 38.9974 38.3732 38.9974 36.0469V19.2968C38.9974 19.2847 38.9947 19.2732 38.9938 19.2612L44.4424 13.8127C45.3196 12.9354 45.3196 11.508 44.4424 10.6308C43.5653 9.75347 42.1378 9.75337 41.2605 10.6307ZM38.06 36.0469C38.06 37.8562 36.588 39.3281 34.7787 39.3281H34.31C32.5007 39.3281 31.0287 37.8562 31.0287 36.0469V30.2767C31.0287 30.0177 30.8188 29.8079 30.56 29.8079C30.3011 29.8079 30.0912 30.0177 30.0912 30.2767V36.0469C30.0912 37.3707 30.7042 38.554 31.6612 39.3281H17.3798H11.9037C10.0945 39.3281 8.62249 37.8562 8.62249 36.0469V9.98438C8.62249 9.72591 8.83277 9.51563 9.09124 9.51563H29.6225C29.881 9.51563 30.0912 9.72591 30.0912 9.98438V21.8L21.2993 30.5919C20.996 30.8951 20.7623 31.2512 20.6047 31.6502L19.5583 34.2985C19.4188 34.6515 19.4989 35.0375 19.7673 35.3058C19.9484 35.487 20.1832 35.5823 20.4251 35.5823C20.5418 35.5823 20.66 35.5602 20.7748 35.5148L23.4232 34.4685C23.822 34.3108 24.1781 34.0772 24.4814 33.7739L38.0602 20.1951V36.0469H38.06ZM43.7796 13.1498L23.8183 33.1111C23.6063 33.3232 23.3574 33.4866 23.0785 33.5967L20.4301 34.6431L21.4766 31.9947C21.5867 31.7158 21.75 31.467 21.9621 31.2549L41.9234 11.2936C42.1793 11.0377 42.5154 10.9098 42.8516 10.9098C43.1876 10.9098 43.5237 11.0377 43.7796 11.2936C44.2913 11.8054 44.2913 12.6381 43.7796 13.1498Z" fill="#091E42"/>
</g>
<defs>
<linearGradient id="paint0_linear" x1="3.58565" y1="24.0001" x2="43.0968" y2="24.0001" gradientUnits="userSpaceOnUse">
<stop stop-color="#D2DEFF" stop-opacity="0"/>
<stop offset="1" stop-color="#B7C5FF"/>
</linearGradient>
<clipPath id="clip0">
<rect width="48" height="48" fill="white"/>
</clipPath>
</defs>
</svg>
