<svg width="671" height="446" viewBox="0 0 671 446" fill="none" xmlns="http://www.w3.org/2000/svg">
<g clip-path="url(#clip0)">
<path opacity="0.95" d="M331.466 108.895V147.441L376.725 173.653L375.569 134.335L331.466 108.895Z" fill="url(#paint0_linear)"/>
<path opacity="0.95" d="M331.467 108.895V147.441L287.171 173.075V134.528L331.467 108.895Z" fill="url(#paint1_linear)"/>
<path opacity="0.2" d="M108.834 335.742C106.523 320.516 115.382 304.905 135.411 293.341C150.433 284.668 169.5 279.657 189.144 278.115V287.751C169.5 289.101 150.433 294.304 135.411 302.977C119.619 312.036 110.76 323.793 108.834 335.742Z" fill="url(#paint2_linear)"/>
<path d="M388.087 275.609L386.354 224.535L472.248 225.691C478.219 225.498 484.189 224.727 490.159 223.957L451.064 246.506C449.33 247.47 449.33 249.205 451.064 250.168L494.781 275.416C478.796 276.958 469.937 276.573 469.937 276.573L388.087 275.609Z" fill="url(#paint3_linear)"/>
<path d="M451.257 211.429C449.524 210.465 449.524 208.73 451.257 207.767L490.353 185.217V223.764L481.493 228.967L451.257 211.429Z" fill="url(#paint4_linear)"/>
<path opacity="0.9" d="M146.774 246.121C145.041 247.085 145.041 248.819 146.774 249.783L189.144 274.26C169.5 275.609 150.433 280.813 135.411 289.486C101.131 309.338 99.3974 340.753 130.212 361.568L130.019 397.224L66.6574 397.417C2.3329 356.75 4.45135 293.341 73.0128 253.638C104.597 235.328 145.041 225.306 186.255 223.378L146.774 246.121Z" fill="url(#paint5_linear)"/>
<path d="M460.501 248.241L511.344 218.753C518.663 216.44 525.403 213.356 531.566 209.887C567.965 188.879 568.543 155.151 532.722 134.528C530.988 133.565 529.255 132.601 527.522 131.83L585.491 131.637C586.646 131.637 587.802 131.252 588.572 130.866C589.343 130.481 589.92 129.71 589.92 129.132L590.113 95.4033C591.846 96.367 593.58 97.3307 595.313 98.2943C665.223 138.768 664.645 204.876 593.772 245.736C568.543 260.383 537.729 269.827 505.182 274.067L460.501 248.241Z" fill="url(#paint6_linear)"/>
<path d="M200.121 222.415L280.431 223.378L282.164 274.453L200.507 273.489L156.211 247.855L200.121 222.415Z" fill="url(#paint7_linear)"/>
<path d="M334.74 142.045C333.007 141.081 330.311 141.081 328.578 142.045L287.171 165.944C287.171 165.558 287.171 165.365 287.364 164.98C290.83 141.081 308.548 117.567 340.325 99.2578C406.576 60.9038 511.151 58.2055 581.639 91.1629L581.446 126.626L515.581 126.819C480.337 114.676 433.538 117.567 402.724 135.299C387.702 143.972 379.036 154.765 376.147 165.944L334.74 142.045Z" fill="url(#paint8_linear)"/>
<path d="M334.548 317.432C332.815 316.469 330.119 316.469 328.386 317.432L288.712 340.368C290.446 336.706 291.409 332.851 291.794 328.996L287.172 173.075L331.467 147.441L375.377 172.882L379.807 328.226C379.614 333.044 378.844 337.862 377.688 342.488L334.548 317.432Z" fill="url(#paint9_linear)"/>
<path d="M379.999 290.064V327.454V328.225C379.806 333.044 379.036 337.862 377.881 342.487V303.941C379.036 299.508 379.806 295.075 379.999 290.642V290.064Z" fill="url(#paint10_linear)"/>
<path opacity="0.9" d="M20.244 287.751C19.8588 313.192 35.2658 338.633 66.8503 358.677L126.36 358.485C127.708 359.448 128.864 360.412 130.212 361.376L130.019 397.031L66.6578 397.224C34.8807 377.18 19.4736 351.546 20.0514 325.913L19.8588 325.527V287.559L20.244 287.751Z" fill="url(#paint11_linear)"/>
<path opacity="0.95" d="M328.193 278.886C328.963 278.307 330.119 278.115 331.274 278.115V315.12L288.52 340.175V301.628L328.193 278.886Z" fill="url(#paint12_linear)"/>
<path d="M130.02 358.484V397.031L66.8505 397.224V358.677L130.02 358.484Z" fill="url(#paint13_linear)"/>
<path d="M531.759 209.887C567.965 188.879 568.543 155.151 532.722 134.528C530.988 133.565 529.255 132.601 527.522 131.83L585.491 131.637C586.646 131.637 587.802 131.252 588.572 130.866C589.343 130.481 589.92 129.71 589.92 129.132L590.113 95.4033C591.846 96.367 593.58 97.3307 595.313 98.2943C665.223 138.768 664.645 204.876 593.772 245.736C568.543 260.383 537.729 269.827 505.182 274.067L460.309 248.048L511.152 218.56C518.663 216.44 525.596 213.356 531.759 209.887Z" fill="url(#paint14_linear)"/>
<path d="M460.501 209.694L511.537 180.206C518.855 177.893 525.596 174.809 531.759 171.34C567.965 150.332 568.543 116.604 532.722 95.9814C530.988 95.0177 529.255 94.054 527.522 93.2831L585.491 93.0904C586.646 93.0904 587.802 92.7049 588.572 92.3194C589.343 91.934 589.92 91.163 589.92 90.5848L590.113 56.8564C591.846 57.8201 593.58 58.7838 595.313 59.7474C665.415 100.222 664.837 166.329 593.965 207.381C568.736 222.029 537.922 231.473 505.374 235.713L460.501 209.694Z" fill="#266CD4"/>
<path d="M134.449 402.042C135.605 402.042 136.76 401.657 137.531 401.271C138.301 400.886 138.879 400.115 138.879 399.537L139.071 366.579C174.893 384.889 230.166 384.118 264.832 364.074C270.994 360.604 276.002 356.557 280.046 352.51L331.467 322.829L375.955 348.462C368.829 367.35 352.652 385.274 327.23 399.922C257.898 440.011 145.812 440.782 75.7098 402.042H134.449Z" fill="#5787CE"/>
<path d="M146.774 207.574L186.447 184.639V223.185L177.01 228.582L146.774 211.043C145.041 210.08 145.041 208.538 146.774 207.574Z" fill="url(#paint15_linear)"/>
<path d="M156.212 209.309V247.855L200.507 273.489V234.942L156.212 209.309Z" fill="url(#paint16_linear)"/>
<path d="M146.774 207.574C145.041 208.538 145.041 210.272 146.774 211.236L189.144 235.713C169.5 237.062 150.433 242.266 135.411 250.939C101.131 270.791 99.3974 302.206 130.212 323.021L130.019 358.677L66.6574 358.87C2.3329 318.203 4.45135 254.794 73.0128 215.091C104.79 196.588 145.233 186.566 186.447 184.639L146.774 207.574Z" fill="url(#paint17_linear)"/>
<path d="M460.501 209.694L511.537 180.206C518.855 177.893 525.596 174.809 531.759 171.34C567.965 150.332 568.543 116.604 532.722 95.9814C530.988 95.0177 529.255 94.054 527.522 93.2831L585.491 93.0904C586.646 93.0904 587.802 92.7049 588.572 92.3194C589.343 91.934 589.92 91.163 589.92 90.5848L590.113 56.8564C591.846 57.8201 593.58 58.7838 595.313 59.7474C665.415 100.222 664.837 166.329 593.965 207.381C568.736 222.029 537.922 231.473 505.374 235.713L460.501 209.694Z" fill="url(#paint18_linear)"/>
<path opacity="0.9" d="M146.774 207.574C145.041 208.538 145.041 210.272 146.774 211.236L189.144 235.713C169.5 237.062 150.433 242.266 135.411 250.939C101.131 270.791 99.3974 302.206 130.212 323.021L130.019 358.677L66.6574 358.87C2.3329 318.203 4.45135 254.794 73.0128 215.091C104.79 196.588 145.233 186.566 186.447 184.639L146.774 207.574Z" fill="url(#paint19_linear)"/>
<path opacity="0.9" d="M114.612 307.796C101.708 288.715 108.642 266.165 135.411 250.939C150.433 242.266 169.5 237.255 189.144 235.713V274.26C169.5 275.609 150.433 280.813 135.411 289.486C126.167 294.69 119.234 301.05 114.612 307.796Z" fill="url(#paint20_linear)"/>
<path d="M280.431 223.378L282.164 274.453V235.906L280.431 184.832V223.378Z" fill="url(#paint21_linear)"/>
<path opacity="0.9" d="M200.121 183.868L280.431 184.831L282.164 235.906L200.507 234.942L156.211 209.309L200.121 183.868Z" fill="url(#paint22_linear)"/>
<path opacity="0.9" d="M200.507 234.942V273.489L282.164 274.453V235.906L200.507 234.942Z" fill="url(#paint23_linear)"/>
<path opacity="0.2" d="M282.164 278.307V287.944L200.507 286.98V277.344L282.164 278.307Z" fill="url(#paint24_linear)"/>
<path opacity="0.9" d="M493.819 228.967L505.374 235.713C537.729 231.473 568.543 222.029 593.965 207.381C629.979 186.566 647.697 159.391 647.505 132.215L647.697 132.022V173.075L647.505 173.267C646.734 199.479 628.824 225.884 593.965 245.928C568.736 260.576 537.922 270.02 505.374 274.26L460.501 248.241L493.819 228.967Z" fill="url(#paint25_linear)"/>
<path opacity="0.95" d="M515.389 88.0795V126.626L581.254 126.433V87.8867L515.389 88.0795Z" fill="url(#paint26_linear)"/>
<path opacity="0.9" d="M460.501 209.694L511.537 180.206C518.855 177.893 525.596 174.809 531.759 171.34C567.965 150.332 568.543 116.604 532.722 95.9814C530.988 95.0177 529.255 94.054 527.522 93.2831L585.491 93.0904C586.646 93.0904 587.802 92.7049 588.572 92.3194C589.343 91.934 589.92 91.163 589.92 90.5848L590.113 56.8564C591.846 57.8201 593.58 58.7838 595.313 59.7474C665.415 100.222 664.837 166.329 593.965 207.381C568.736 222.029 537.922 231.473 505.374 235.713L460.501 209.694Z" fill="url(#paint27_linear)"/>
<path d="M555.832 147.248C555.062 148.983 554.099 150.718 552.943 152.452C549.284 147.248 544.277 142.237 537.729 137.612L527.522 131.637V93.0903C529.255 94.054 531.181 94.8249 532.721 95.7886C556.602 109.665 564.306 129.324 555.832 147.248Z" fill="url(#paint28_linear)"/>
<path d="M505.374 274.067V235.521L460.501 209.694V248.241L505.374 274.067Z" fill="url(#paint29_linear)"/>
<path opacity="0.9" d="M388.088 237.062L470.131 238.026C470.131 238.026 478.797 238.411 494.975 236.87V275.416C478.99 276.958 470.131 276.573 470.131 276.573L388.088 275.609L386.355 224.535H387.51L388.088 237.062Z" fill="url(#paint30_linear)"/>
<path opacity="0.2" d="M505.374 278.693C537.729 274.452 568.543 265.009 593.965 250.361C629.979 229.546 647.697 202.37 647.505 175.195L647.697 175.002V216.054L647.505 187.337C646.734 213.549 628.824 239.953 593.965 259.997C568.736 274.645 537.922 284.089 505.374 288.329V278.693Z" fill="url(#paint31_linear)"/>
<path opacity="0.2" d="M388.088 280.042L470.131 281.006C470.131 281.006 478.797 281.391 494.975 279.849V289.486C478.99 291.028 470.131 290.642 470.131 290.642L388.088 289.679V280.042Z" fill="url(#paint32_linear)"/>
<path opacity="0.9" d="M388.087 237.062L386.354 185.988L472.248 187.144C478.219 186.952 484.189 186.181 490.159 185.41L451.064 207.959C449.33 208.923 449.33 210.658 451.064 211.621L494.781 236.87C478.796 238.411 469.937 238.026 469.937 238.026L388.087 237.062Z" fill="url(#paint33_linear)"/>
<path opacity="0.9" d="M450.294 208.73C449.716 207.767 449.909 206.803 451.257 206.032L485.923 185.988C487.464 185.795 488.812 185.602 490.353 185.41L451.257 207.96C450.679 208.152 450.487 208.345 450.294 208.73Z" fill="url(#paint34_radial)"/>
<path opacity="0.9" d="M388.088 235.135L470.131 236.098C470.131 236.098 477.834 236.484 492.086 235.135L494.975 236.869C478.99 238.411 470.131 238.026 470.131 238.026L388.088 237.062V235.135Z" fill="url(#paint35_radial)"/>
<path opacity="0.95" d="M334.74 103.498C333.007 102.534 330.311 102.534 328.578 103.498L287.171 127.397C287.171 127.011 287.171 126.818 287.364 126.433C290.83 102.534 308.548 79.0206 340.325 60.7109C406.576 22.3569 511.151 19.6586 581.639 52.6161L581.446 88.0791L515.581 88.2718C480.337 76.1296 433.538 79.0206 402.724 96.7521C387.702 105.425 379.036 116.218 376.147 127.397L334.74 103.498Z" fill="url(#paint36_linear)"/>
<path d="M375.762 127.204L334.548 103.498C332.815 102.534 330.118 102.534 328.385 103.498L286.979 127.397C286.979 127.012 286.979 126.819 287.171 126.433C287.171 126.241 287.364 125.855 287.364 125.662L328.385 101.956C330.118 100.992 333.007 100.992 334.548 101.956L375.762 125.662V127.204Z" fill="white"/>
<path d="M375.762 125.662C378.458 114.484 387.317 103.69 402.339 95.0175C433.153 77.286 479.952 74.395 515.196 86.5372L581.061 86.3444L581.254 52.4233L581.061 87.8863L515.196 88.0791C479.952 75.9368 433.153 78.8278 402.339 96.5593C387.317 105.232 378.651 116.025 375.762 127.204V125.662Z" fill="white"/>
<path opacity="0.2" d="M375.762 170.184C378.459 159.005 387.318 148.212 402.34 139.539C433.154 121.808 479.953 118.917 515.196 131.059V140.696C479.953 128.554 433.154 131.445 402.34 149.176C387.318 157.849 378.651 168.642 375.762 179.821V170.184Z" fill="url(#paint37_linear)"/>
<path opacity="0.95" d="M134.449 363.496C135.605 363.496 136.76 363.11 137.531 362.725C138.301 362.339 138.879 361.568 138.879 360.99L139.071 328.033C174.893 346.342 230.166 345.571 264.832 325.527C270.994 322.058 276.002 318.011 280.046 313.963L331.467 284.282L375.955 309.916C368.829 328.804 352.652 346.728 327.23 361.376C257.898 401.464 145.812 402.235 75.7098 363.496H134.449Z" fill="url(#paint38_linear)"/>
<path d="M326.074 360.219C350.918 345.957 366.903 328.418 374.221 310.108L375.762 311.072C368.636 329.96 352.459 347.884 327.037 362.532C257.705 402.621 145.619 403.391 75.5165 364.652H78.7905C149.278 401.079 258.09 399.537 326.074 360.219Z" fill="white"/>
<g opacity="0.9">
<path opacity="0.9" d="M327.037 361.568C352.459 346.921 368.636 328.996 375.762 310.108V348.655C368.636 367.543 352.459 385.467 327.037 400.115C257.705 440.204 145.619 440.974 75.5165 402.235V363.688C145.619 402.428 257.705 401.657 327.037 361.568Z" fill="url(#paint39_linear)"/>
<path opacity="0.2" d="M20.2442 331.502C19.8591 356.943 35.2661 382.384 66.8506 402.428V412.065C35.0735 392.02 19.6665 366.387 20.2442 340.753L20.0516 340.368V331.502H20.2442Z" fill="url(#paint40_linear)"/>
<path opacity="0.2" d="M327.037 405.319C352.459 390.671 368.636 372.747 375.762 353.859V363.496C368.636 382.383 352.459 400.308 327.037 414.955C257.705 455.044 145.619 455.815 75.5165 417.075V407.439C145.619 446.178 257.705 445.407 327.037 405.319Z" fill="url(#paint41_linear)"/>
</g>
<path opacity="0.2" d="M532.721 138.383C540.232 142.816 546.202 147.827 550.632 153.031C549.476 154.572 548.321 156.114 546.973 157.656C543.121 153.802 538.499 150.332 532.721 147.056C530.988 146.092 529.255 145.129 527.521 144.358V135.685C529.255 136.456 531.18 137.419 532.721 138.383Z" fill="url(#paint42_linear)"/>
<path opacity="0.95" d="M328.385 103.498C329.156 102.92 330.311 102.727 331.467 102.727V141.081L287.171 164.787L286.979 127.204L328.385 103.498Z" fill="url(#paint43_linear)"/>
<path opacity="0.95" d="M334.355 103.498C333.585 102.92 332.429 102.727 331.274 102.727V141.081L375.569 164.787L375.762 127.204L334.355 103.498Z" fill="url(#paint44_linear)"/>
<path opacity="0.9" d="M559.106 133.371C558.721 120.073 550.055 106.967 532.722 96.9448C530.988 95.9812 529.255 95.0175 527.522 94.2466H530.603C531.374 94.632 531.951 95.0175 532.722 95.403C550.825 105.618 559.684 119.495 559.106 133.371Z" fill="url(#paint45_linear)"/>
<path d="M505.374 234.942C537.729 230.702 568.543 221.258 593.965 206.61C629.016 186.373 646.927 159.776 647.504 133.372C647.697 160.354 629.786 187.722 593.965 208.345C568.736 222.993 537.922 232.437 505.374 236.677L460.501 210.658L462.042 209.887L505.374 234.942Z" fill="url(#paint46_radial)"/>
<path d="M282.164 235.906L201.662 233.979L156.211 209.309L200.314 235.906H282.164Z" fill="white"/>
<path opacity="0.95" d="M291.601 290.449C291.215 294.304 290.252 298.159 288.519 301.821C288.519 301.821 290.445 296.809 290.445 285.053C290.445 268.092 287.171 173.075 287.171 173.075V134.528L291.601 290.449Z" fill="url(#paint47_linear)"/>
<path opacity="0.9" d="M108.449 288.522C108.064 274.645 116.923 260.383 135.411 249.783C149.663 241.495 167.766 236.484 186.255 234.942L189.144 236.677C169.5 238.026 150.433 243.23 135.411 251.903C117.886 261.925 108.834 275.224 108.449 288.522Z" fill="white"/>
<path opacity="0.9" d="M145.811 209.309C145.234 208.345 145.426 207.189 146.774 206.61L182.596 185.795C183.751 185.795 185.099 185.603 186.255 185.603L146.582 208.538C146.389 208.731 146.004 208.923 145.811 209.309Z" fill="white"/>
<path opacity="0.9" d="M66.8501 357.714L130.212 357.521L130.404 323.792L130.212 359.448L66.8501 359.641C35.8434 340.175 20.4364 315.312 20.2438 290.257C21.2067 314.541 36.6138 338.633 66.8501 357.714Z" fill="white"/>
<path opacity="0.9" d="M334.548 278.886C332.815 277.922 330.119 277.922 328.386 278.886L288.712 301.821C290.446 297.195 291.601 292.184 291.409 287.559L287.172 134.528L331.467 108.895L375.377 134.335L379.807 289.679C379.614 294.497 378.844 299.315 377.688 303.941L334.548 278.886Z" fill="url(#paint48_linear)"/>
<path d="M328.193 277.536C329.926 276.573 332.622 276.573 334.356 277.536L377.688 302.592C378.844 297.966 379.614 293.34 379.807 288.715V289.678C379.614 294.497 378.844 299.315 377.688 303.941L334.356 278.885C332.622 277.922 329.926 277.922 328.193 278.885L288.52 301.821C288.905 301.243 289.098 300.472 289.29 299.893L328.193 277.536Z" fill="white"/>
<path d="M386.547 185.988V224.534L388.088 275.609V237.062L386.547 185.988Z" fill="url(#paint49_linear)"/>
<path d="M56.836 355.979L57.9915 354.052C22.5553 333.622 2.91125 306.254 2.91125 277.151C2.91125 247.856 22.7478 220.102 58.7619 199.287C93.8129 179.05 140.227 167.486 189.915 166.908L276.387 167.486V165.173L189.915 164.595C139.842 165.366 93.0426 176.93 57.6063 197.359C20.8219 218.56 0.600159 246.892 0.600159 277.151C0.600159 307.025 20.4368 335.164 56.836 355.979Z" fill="url(#paint50_radial)"/>
<path d="M613.416 191.384C650.586 169.798 671 141.274 671 110.822C671 80.9481 651.163 53.0017 614.957 32.1865C540.04 -10.9858 417.554 -10.6003 341.867 33.1502L343.022 35.0775C418.132 -8.28754 539.655 -8.67301 613.801 34.1138C649.238 54.5436 668.689 81.9118 668.689 110.822C668.689 140.31 648.66 168.256 612.261 189.264L613.416 191.384Z" fill="url(#paint51_radial)"/>
<path d="M483.419 173.846C507.3 172.882 530.026 166.715 547.166 156.885L546.01 154.958C529.448 164.595 507.493 170.377 484.382 171.533L483.612 171.34L382.31 170.184V172.497L482.456 173.653L483.419 173.846Z" fill="url(#paint52_radial)"/>
<path d="M192.803 329.189C218.225 329.189 243.454 323.599 262.905 312.421C280.623 302.206 290.83 288.715 292.179 274.067H291.986L292.371 273.489L290.06 272.14L289.867 273.874C288.712 287.558 278.697 300.471 261.75 310.301C223.81 332.272 162.374 332.272 124.627 310.494L123.471 312.421C142.537 323.599 167.574 329.189 192.803 329.189Z" fill="url(#paint53_radial)"/>
</g>
<defs>
<linearGradient id="paint0_linear" x1="381.327" y1="113.838" x2="318.367" y2="177.071" gradientUnits="userSpaceOnUse">
<stop offset="0.0353535" stop-color="#5787CE"/>
<stop offset="0.4981" stop-color="#6692D3"/>
<stop offset="1" stop-color="#7CA1D9"/>
</linearGradient>
<linearGradient id="paint1_linear" x1="347.556" y1="116.186" x2="253.306" y2="177.154" gradientUnits="userSpaceOnUse">
<stop stop-color="#6491D2"/>
<stop offset="1" stop-color="#7CA1D9"/>
</linearGradient>
<linearGradient id="paint2_linear" x1="213.74" y1="306.868" x2="66.4148" y2="306.868" gradientUnits="userSpaceOnUse">
<stop stop-color="#0D5BCF"/>
<stop offset="0.601" stop-color="#0052CC"/>
<stop offset="1" stop-color="#0F5CCF"/>
</linearGradient>
<linearGradient id="paint3_linear" x1="494.967" y1="250.172" x2="386.5" y2="250.172" gradientUnits="userSpaceOnUse">
<stop stop-color="#0857CE"/>
<stop offset="1" stop-color="#0052CC"/>
</linearGradient>
<linearGradient id="paint4_linear" x1="471.015" y1="187.804" x2="467.639" y2="292.844" gradientUnits="userSpaceOnUse">
<stop stop-color="#0857CE"/>
<stop offset="1" stop-color="#0052CC"/>
</linearGradient>
<linearGradient id="paint5_linear" x1="189.187" y1="310.151" x2="20.1483" y2="310.151" gradientUnits="userSpaceOnUse">
<stop stop-color="#0D5BCF"/>
<stop offset="1" stop-color="#5787CE"/>
</linearGradient>
<linearGradient id="paint6_linear" x1="647.494" y1="184.779" x2="460.546" y2="184.779" gradientUnits="userSpaceOnUse">
<stop stop-color="#0D5BCF"/>
<stop offset="1" stop-color="#5787CE"/>
</linearGradient>
<linearGradient id="paint7_linear" x1="282.105" y1="248.373" x2="156.13" y2="248.373" gradientUnits="userSpaceOnUse">
<stop stop-color="#0857CE"/>
<stop offset="1" stop-color="#0052CC"/>
</linearGradient>
<linearGradient id="paint8_linear" x1="572.975" y1="117.059" x2="282.198" y2="117.059" gradientUnits="userSpaceOnUse">
<stop offset="0.0353535" stop-color="#5787CE"/>
<stop offset="0.4899" stop-color="#5787CE"/>
<stop offset="0.9949" stop-color="#6491D2"/>
</linearGradient>
<linearGradient id="paint9_linear" x1="331.277" y1="259.907" x2="296.33" y2="322.765" gradientUnits="userSpaceOnUse">
<stop stop-color="#6491D2"/>
<stop offset="1" stop-color="#7CA1D9"/>
</linearGradient>
<linearGradient id="paint10_linear" x1="398.261" y1="310.821" x2="371.657" y2="318.279" gradientUnits="userSpaceOnUse">
<stop stop-color="#6491D2"/>
<stop offset="1" stop-color="#7CA1D9"/>
</linearGradient>
<linearGradient id="paint11_linear" x1="-14.4189" y1="342.373" x2="277.205" y2="342.373" gradientUnits="userSpaceOnUse">
<stop stop-color="#0D5BCF"/>
<stop offset="1" stop-color="#5787CE"/>
</linearGradient>
<linearGradient id="paint12_linear" x1="288.296" y1="245.905" x2="329.349" y2="365.721" gradientUnits="userSpaceOnUse">
<stop stop-color="#6491D2"/>
<stop offset="1" stop-color="#7CA1D9"/>
</linearGradient>
<linearGradient id="paint13_linear" x1="132.201" y1="302.724" x2="71.9414" y2="436.639" gradientUnits="userSpaceOnUse">
<stop stop-color="#1A63D1"/>
<stop offset="1" stop-color="#5787CE"/>
</linearGradient>
<linearGradient id="paint14_linear" x1="647.494" y1="184.779" x2="460.546" y2="184.779" gradientUnits="userSpaceOnUse">
<stop stop-color="#0D5BCF"/>
<stop offset="1" stop-color="#5787CE"/>
</linearGradient>
<linearGradient id="paint15_linear" x1="165.34" y1="196.788" x2="247.729" y2="272.374" gradientUnits="userSpaceOnUse">
<stop stop-color="#1A63D1"/>
<stop offset="1" stop-color="#5787CE"/>
</linearGradient>
<linearGradient id="paint16_linear" x1="185.839" y1="223.855" x2="145.826" y2="316.345" gradientUnits="userSpaceOnUse">
<stop stop-color="#0857CE"/>
<stop offset="1" stop-color="#0052CC"/>
</linearGradient>
<linearGradient id="paint17_linear" x1="189.187" y1="271.604" x2="20.1483" y2="271.604" gradientUnits="userSpaceOnUse">
<stop offset="0.0353535" stop-color="#266CD4"/>
<stop offset="0.2807" stop-color="#3577D7"/>
<stop offset="0.7537" stop-color="#5E92DF"/>
<stop offset="1" stop-color="#75A2E3"/>
</linearGradient>
<linearGradient id="paint18_linear" x1="647.494" y1="146.232" x2="460.546" y2="146.232" gradientUnits="userSpaceOnUse">
<stop offset="0.0353535" stop-color="#266CD4"/>
<stop offset="0.2807" stop-color="#3577D7"/>
<stop offset="0.7537" stop-color="#5E92DF"/>
<stop offset="1" stop-color="#75A2E3"/>
</linearGradient>
<linearGradient id="paint19_linear" x1="6.98795" y1="125.264" x2="154.937" y2="313.552" gradientUnits="userSpaceOnUse">
<stop stop-color="#0D5BCF"/>
<stop offset="1" stop-color="#5787CE"/>
</linearGradient>
<linearGradient id="paint20_linear" x1="213.742" y1="271.699" x2="66.4036" y2="271.699" gradientUnits="userSpaceOnUse">
<stop stop-color="#0D5BCF"/>
<stop offset="0.601" stop-color="#0052CC"/>
<stop offset="1" stop-color="#0F5CCF"/>
</linearGradient>
<linearGradient id="paint21_linear" x1="282.105" y1="229.554" x2="280.456" y2="229.554" gradientUnits="userSpaceOnUse">
<stop offset="0.0959596" stop-color="#0052CC"/>
<stop offset="1" stop-color="#266CD4"/>
</linearGradient>
<linearGradient id="paint22_linear" x1="198.342" y1="63.2841" x2="228.72" y2="266.611" gradientUnits="userSpaceOnUse">
<stop stop-color="#0857CE"/>
<stop offset="1" stop-color="#0052CC"/>
</linearGradient>
<linearGradient id="paint23_linear" x1="298.398" y1="200.983" x2="197.218" y2="295.829" gradientUnits="userSpaceOnUse">
<stop stop-color="#0857CE"/>
<stop offset="1" stop-color="#0052CC"/>
</linearGradient>
<linearGradient id="paint24_linear" x1="285.159" y1="241.359" x2="207.424" y2="314.226" gradientUnits="userSpaceOnUse">
<stop stop-color="#0857CE"/>
<stop offset="1" stop-color="#0052CC"/>
</linearGradient>
<linearGradient id="paint25_linear" x1="545.923" y1="169.468" x2="599.918" y2="305.799" gradientUnits="userSpaceOnUse">
<stop stop-color="#0D5BCF"/>
<stop offset="1" stop-color="#5787CE"/>
</linearGradient>
<linearGradient id="paint26_linear" x1="560.745" y1="81.6522" x2="494.543" y2="217.169" gradientUnits="userSpaceOnUse">
<stop offset="0.0353535" stop-color="#5787CE"/>
<stop offset="0.4981" stop-color="#6692D3"/>
<stop offset="1" stop-color="#7CA1D9"/>
</linearGradient>
<linearGradient id="paint27_linear" x1="403.485" y1="33.3009" x2="620.276" y2="207.565" gradientUnits="userSpaceOnUse">
<stop stop-color="#0D5BCF"/>
<stop offset="1" stop-color="#5787CE"/>
</linearGradient>
<linearGradient id="paint28_linear" x1="559.774" y1="96.5225" x2="502.424" y2="173.575" gradientUnits="userSpaceOnUse">
<stop stop-color="#0D5BCF"/>
<stop offset="1" stop-color="#5787CE"/>
</linearGradient>
<linearGradient id="paint29_linear" x1="504.659" y1="229.877" x2="397.734" y2="289.075" gradientUnits="userSpaceOnUse">
<stop stop-color="#0D5BCF"/>
<stop offset="1" stop-color="#5787CE"/>
</linearGradient>
<linearGradient id="paint30_linear" x1="461.47" y1="193.331" x2="410.367" y2="332.556" gradientUnits="userSpaceOnUse">
<stop stop-color="#0857CE"/>
<stop offset="1" stop-color="#0052CC"/>
</linearGradient>
<linearGradient id="paint31_linear" x1="566.128" y1="205.355" x2="603.66" y2="300.119" gradientUnits="userSpaceOnUse">
<stop stop-color="#0D5BCF"/>
<stop offset="1" stop-color="#5787CE"/>
</linearGradient>
<linearGradient id="paint32_linear" x1="455.819" y1="245.846" x2="423.658" y2="333.464" gradientUnits="userSpaceOnUse">
<stop stop-color="#0857CE"/>
<stop offset="1" stop-color="#0052CC"/>
</linearGradient>
<linearGradient id="paint33_linear" x1="423.323" y1="109.414" x2="444.057" y2="241.913" gradientUnits="userSpaceOnUse">
<stop stop-color="#0857CE"/>
<stop offset="1" stop-color="#0052CC"/>
</linearGradient>
<radialGradient id="paint34_radial" cx="0" cy="0" r="1" gradientUnits="userSpaceOnUse" gradientTransform="translate(460.51 190.473) rotate(180) scale(12.1918 256.811)">
<stop stop-color="white"/>
</radialGradient>
<radialGradient id="paint35_radial" cx="0" cy="0" r="1" gradientUnits="userSpaceOnUse" gradientTransform="translate(415.952 235.772) rotate(180) scale(32.2834 32.308)">
<stop stop-color="white"/>
</radialGradient>
<linearGradient id="paint36_linear" x1="387.085" y1="-47.9195" x2="484.474" y2="236.318" gradientUnits="userSpaceOnUse">
<stop offset="0.0353535" stop-color="#5787CE"/>
<stop offset="0.4981" stop-color="#6692D3"/>
<stop offset="1" stop-color="#7CA1D9"/>
</linearGradient>
<linearGradient id="paint37_linear" x1="511.321" y1="151.663" x2="373.503" y2="151.663" gradientUnits="userSpaceOnUse">
<stop offset="0.0353535" stop-color="#5787CE"/>
<stop offset="0.4899" stop-color="#5787CE"/>
<stop offset="0.9949" stop-color="#6491D2"/>
</linearGradient>
<linearGradient id="paint38_linear" x1="201.131" y1="261.199" x2="263.486" y2="453.262" gradientUnits="userSpaceOnUse">
<stop offset="0.0353535" stop-color="#5787CE"/>
<stop offset="0.4981" stop-color="#6692D3"/>
<stop offset="1" stop-color="#7CA1D9"/>
</linearGradient>
<linearGradient id="paint39_linear" x1="76.7392" y1="370.343" x2="399.128" y2="370.343" gradientUnits="userSpaceOnUse">
<stop offset="0.0353535" stop-color="#5787CE"/>
<stop offset="0.4899" stop-color="#5787CE"/>
<stop offset="0.9949" stop-color="#6491D2"/>
</linearGradient>
<linearGradient id="paint40_linear" x1="5.3325" y1="371.765" x2="129.248" y2="371.765" gradientUnits="userSpaceOnUse">
<stop stop-color="#0D5BCF"/>
<stop offset="1" stop-color="#5787CE"/>
</linearGradient>
<linearGradient id="paint41_linear" x1="76.7392" y1="399.735" x2="399.128" y2="399.735" gradientUnits="userSpaceOnUse">
<stop offset="0.0353535" stop-color="#5787CE"/>
<stop offset="0.4899" stop-color="#5787CE"/>
<stop offset="0.9949" stop-color="#6491D2"/>
</linearGradient>
<linearGradient id="paint42_linear" x1="542.26" y1="140.052" x2="527.984" y2="159.232" gradientUnits="userSpaceOnUse">
<stop stop-color="#0D5BCF"/>
<stop offset="1" stop-color="#5787CE"/>
</linearGradient>
<linearGradient id="paint43_linear" x1="290.291" y1="78.0728" x2="321.267" y2="168.402" gradientUnits="userSpaceOnUse">
<stop offset="0.0353535" stop-color="#5787CE"/>
<stop offset="0.4981" stop-color="#6692D3"/>
<stop offset="1" stop-color="#7CA1D9"/>
</linearGradient>
<linearGradient id="paint44_linear" x1="373.717" y1="106.045" x2="325.162" y2="172.382" gradientUnits="userSpaceOnUse">
<stop offset="0.0353535" stop-color="#5787CE"/>
<stop offset="0.4981" stop-color="#6692D3"/>
<stop offset="1" stop-color="#7CA1D9"/>
</linearGradient>
<linearGradient id="paint45_linear" x1="486.501" y1="65.7991" x2="566.838" y2="130.377" gradientUnits="userSpaceOnUse">
<stop offset="0.0353535" stop-color="#5787CE"/>
<stop offset="0.4899" stop-color="#5787CE"/>
<stop offset="0.9949" stop-color="#6491D2"/>
</linearGradient>
<radialGradient id="paint46_radial" cx="0" cy="0" r="1" gradientUnits="userSpaceOnUse" gradientTransform="translate(554.003 184.91) rotate(180) scale(75.4883 75.5452)">
<stop stop-color="white"/>
</radialGradient>
<linearGradient id="paint47_linear" x1="294.434" y1="217.117" x2="197.895" y2="232.273" gradientUnits="userSpaceOnUse">
<stop stop-color="#6491D2"/>
<stop offset="1" stop-color="#7CA1D9"/>
</linearGradient>
<linearGradient id="paint48_linear" x1="187.548" y1="73.4373" x2="403.409" y2="289.136" gradientUnits="userSpaceOnUse">
<stop stop-color="#6491D2"/>
<stop offset="1" stop-color="#7CA1D9"/>
</linearGradient>
<linearGradient id="paint49_linear" x1="388.149" y1="230.755" x2="379.591" y2="230.755" gradientUnits="userSpaceOnUse">
<stop offset="0.0959596" stop-color="#0052CC"/>
<stop offset="1" stop-color="#266CD4"/>
</linearGradient>
<radialGradient id="paint50_radial" cx="0" cy="0" r="1" gradientUnits="userSpaceOnUse" gradientTransform="translate(138.493 260.287) rotate(90) scale(95.6922 137.893)">
<stop stop-color="#0088EC"/>
<stop offset="1" stop-color="#0088EC" stop-opacity="0"/>
</radialGradient>
<radialGradient id="paint51_radial" cx="0" cy="0" r="1" gradientUnits="userSpaceOnUse" gradientTransform="translate(506.433 95.7274) rotate(90) scale(95.6571 164.567)">
<stop stop-color="#0088EC"/>
<stop offset="1" stop-color="#0088EC" stop-opacity="0"/>
</radialGradient>
<radialGradient id="paint52_radial" cx="0" cy="0" r="1" gradientUnits="userSpaceOnUse" gradientTransform="translate(464.738 164.402) rotate(90) scale(9.44394 82.4278)">
<stop stop-color="#0088EC"/>
<stop offset="1" stop-color="#0088EC" stop-opacity="0"/>
</radialGradient>
<radialGradient id="paint53_radial" cx="0" cy="0" r="1" gradientUnits="userSpaceOnUse" gradientTransform="translate(207.921 300.664) rotate(90) scale(28.5246 84.45)">
<stop stop-color="#0088EC"/>
<stop offset="1" stop-color="#0088EC" stop-opacity="0"/>
</radialGradient>
<clipPath id="clip0">
<rect width="670.4" height="445.6" fill="white" transform="matrix(-1 0 0 1 671 0)"/>
</clipPath>
</defs>
</svg>
