<?xml version="1.0" encoding="UTF-8" standalone="no"?>
<svg
   width="900"
   height="800"
   viewBox="56 -64 900 800"
   fill="none"
   version="1.1"
   id="svg437"
   sodipodi:docname="8bg.svg"
   inkscape:version="1.1 (c68e22c387, 2021-05-23)"
   xmlns:inkscape="http://www.inkscape.org/namespaces/inkscape"
   xmlns:sodipodi="http://sodipodi.sourceforge.net/DTD/sodipodi-0.dtd"
   xmlns:xlink="http://www.w3.org/1999/xlink"
   xmlns="http://www.w3.org/2000/svg"
   xmlns:svg="http://www.w3.org/2000/svg">
  <sodipodi:namedview
     id="namedview293"
     pagecolor="#ffffff"
     bordercolor="#111111"
     borderopacity="1"
     inkscape:pageshadow="0"
     inkscape:pageopacity="1"
     inkscape:pagecheckerboard="false"
     showgrid="false"
     height="800px"
     inkscape:zoom="1"
     inkscape:cx="338.5"
     inkscape:cy="397"
     inkscape:window-width="1920"
     inkscape:window-height="1019"
     inkscape:window-x="1680"
     inkscape:window-y="0"
     inkscape:window-maximized="1"
     inkscape:current-layer="layer1" />
  <defs
     id="defs435">
    <linearGradient
       id="paint0_linear"
       x1="381.327"
       y1="113.838"
       x2="318.367"
       y2="177.071"
       gradientUnits="userSpaceOnUse">
      <stop
         offset="0.0353535"
         stop-color="#5787CE"
         id="stop134" />
      <stop
         offset="0.4981"
         stop-color="#6692D3"
         id="stop136" />
      <stop
         offset="1"
         stop-color="#7CA1D9"
         id="stop138" />
    </linearGradient>
    <linearGradient
       id="paint1_linear"
       x1="347.556"
       y1="116.186"
       x2="253.306"
       y2="177.15401"
       gradientUnits="userSpaceOnUse">
      <stop
         stop-color="#6491D2"
         id="stop141" />
      <stop
         offset="1"
         stop-color="#7CA1D9"
         id="stop143" />
    </linearGradient>
    <linearGradient
       id="paint2_linear"
       x1="213.74001"
       y1="306.86801"
       x2="66.414803"
       y2="306.86801"
       gradientUnits="userSpaceOnUse">
      <stop
         stop-color="#0D5BCF"
         id="stop146" />
      <stop
         offset="0.601"
         stop-color="#0052CC"
         id="stop148" />
      <stop
         offset="1"
         stop-color="#0F5CCF"
         id="stop150" />
    </linearGradient>
    <linearGradient
       id="paint3_linear"
       x1="494.96701"
       y1="250.172"
       x2="386.5"
       y2="250.172"
       gradientUnits="userSpaceOnUse">
      <stop
         stop-color="#0857CE"
         id="stop153" />
      <stop
         offset="1"
         stop-color="#0052CC"
         id="stop155" />
    </linearGradient>
    <linearGradient
       id="paint4_linear"
       x1="471.01501"
       y1="187.804"
       x2="467.63901"
       y2="292.84399"
       gradientUnits="userSpaceOnUse">
      <stop
         stop-color="#0857CE"
         id="stop158" />
      <stop
         offset="1"
         stop-color="#0052CC"
         id="stop160" />
    </linearGradient>
    <linearGradient
       id="paint5_linear"
       x1="189.187"
       y1="310.151"
       x2="20.1483"
       y2="310.151"
       gradientUnits="userSpaceOnUse">
      <stop
         stop-color="#0D5BCF"
         id="stop163" />
      <stop
         offset="1"
         stop-color="#5787CE"
         id="stop165" />
    </linearGradient>
    <linearGradient
       id="paint6_linear"
       x1="647.49402"
       y1="184.77901"
       x2="460.54599"
       y2="184.77901"
       gradientUnits="userSpaceOnUse">
      <stop
         stop-color="#0D5BCF"
         id="stop168" />
      <stop
         offset="1"
         stop-color="#5787CE"
         id="stop170" />
    </linearGradient>
    <linearGradient
       id="paint7_linear"
       x1="282.10501"
       y1="248.373"
       x2="156.13"
       y2="248.373"
       gradientUnits="userSpaceOnUse">
      <stop
         stop-color="#0857CE"
         id="stop173" />
      <stop
         offset="1"
         stop-color="#0052CC"
         id="stop175" />
    </linearGradient>
    <linearGradient
       id="paint8_linear"
       x1="572.97498"
       y1="117.059"
       x2="282.198"
       y2="117.059"
       gradientUnits="userSpaceOnUse">
      <stop
         offset="0.0353535"
         stop-color="#5787CE"
         id="stop178" />
      <stop
         offset="0.4899"
         stop-color="#5787CE"
         id="stop180" />
      <stop
         offset="0.9949"
         stop-color="#6491D2"
         id="stop182" />
    </linearGradient>
    <linearGradient
       id="paint9_linear"
       x1="331.27701"
       y1="259.90701"
       x2="296.32999"
       y2="322.76501"
       gradientUnits="userSpaceOnUse">
      <stop
         stop-color="#6491D2"
         id="stop185" />
      <stop
         offset="1"
         stop-color="#7CA1D9"
         id="stop187" />
    </linearGradient>
    <linearGradient
       id="paint10_linear"
       x1="398.26099"
       y1="310.82101"
       x2="371.65701"
       y2="318.27899"
       gradientUnits="userSpaceOnUse">
      <stop
         stop-color="#6491D2"
         id="stop190" />
      <stop
         offset="1"
         stop-color="#7CA1D9"
         id="stop192" />
    </linearGradient>
    <linearGradient
       id="paint11_linear"
       x1="-14.4189"
       y1="342.37299"
       x2="277.20499"
       y2="342.37299"
       gradientUnits="userSpaceOnUse">
      <stop
         stop-color="#0D5BCF"
         id="stop195" />
      <stop
         offset="1"
         stop-color="#5787CE"
         id="stop197" />
    </linearGradient>
    <linearGradient
       id="paint12_linear"
       x1="288.29599"
       y1="245.905"
       x2="329.349"
       y2="365.72101"
       gradientUnits="userSpaceOnUse">
      <stop
         stop-color="#6491D2"
         id="stop200" />
      <stop
         offset="1"
         stop-color="#7CA1D9"
         id="stop202" />
    </linearGradient>
    <linearGradient
       id="paint13_linear"
       x1="132.201"
       y1="302.724"
       x2="71.941399"
       y2="436.63901"
       gradientUnits="userSpaceOnUse">
      <stop
         stop-color="#1A63D1"
         id="stop205" />
      <stop
         offset="1"
         stop-color="#5787CE"
         id="stop207" />
    </linearGradient>
    <linearGradient
       id="paint14_linear"
       x1="647.49402"
       y1="184.77901"
       x2="460.54599"
       y2="184.77901"
       gradientUnits="userSpaceOnUse">
      <stop
         stop-color="#0D5BCF"
         id="stop210" />
      <stop
         offset="1"
         stop-color="#5787CE"
         id="stop212" />
    </linearGradient>
    <linearGradient
       id="paint15_linear"
       x1="165.34"
       y1="196.78799"
       x2="247.729"
       y2="272.37399"
       gradientUnits="userSpaceOnUse">
      <stop
         stop-color="#1A63D1"
         id="stop215" />
      <stop
         offset="1"
         stop-color="#5787CE"
         id="stop217" />
    </linearGradient>
    <linearGradient
       id="paint16_linear"
       x1="185.839"
       y1="223.855"
       x2="145.826"
       y2="316.345"
       gradientUnits="userSpaceOnUse">
      <stop
         stop-color="#0857CE"
         id="stop220" />
      <stop
         offset="1"
         stop-color="#0052CC"
         id="stop222" />
    </linearGradient>
    <linearGradient
       id="paint17_linear"
       x1="189.187"
       y1="271.604"
       x2="20.1483"
       y2="271.604"
       gradientUnits="userSpaceOnUse">
      <stop
         offset="0.0353535"
         stop-color="#266CD4"
         id="stop225" />
      <stop
         offset="0.2807"
         stop-color="#3577D7"
         id="stop227" />
      <stop
         offset="0.7537"
         stop-color="#5E92DF"
         id="stop229" />
      <stop
         offset="1"
         stop-color="#75A2E3"
         id="stop231" />
    </linearGradient>
    <linearGradient
       id="paint18_linear"
       x1="647.49402"
       y1="146.23199"
       x2="460.54599"
       y2="146.23199"
       gradientUnits="userSpaceOnUse">
      <stop
         offset="0.0353535"
         stop-color="#266CD4"
         id="stop234" />
      <stop
         offset="0.2807"
         stop-color="#3577D7"
         id="stop236" />
      <stop
         offset="0.7537"
         stop-color="#5E92DF"
         id="stop238" />
      <stop
         offset="1"
         stop-color="#75A2E3"
         id="stop240" />
    </linearGradient>
    <linearGradient
       id="paint19_linear"
       x1="6.9879498"
       y1="125.264"
       x2="154.937"
       y2="313.552"
       gradientUnits="userSpaceOnUse">
      <stop
         stop-color="#0D5BCF"
         id="stop243" />
      <stop
         offset="1"
         stop-color="#5787CE"
         id="stop245" />
    </linearGradient>
    <linearGradient
       id="paint20_linear"
       x1="213.742"
       y1="271.69901"
       x2="66.403603"
       y2="271.69901"
       gradientUnits="userSpaceOnUse">
      <stop
         stop-color="#0D5BCF"
         id="stop248" />
      <stop
         offset="0.601"
         stop-color="#0052CC"
         id="stop250" />
      <stop
         offset="1"
         stop-color="#0F5CCF"
         id="stop252" />
    </linearGradient>
    <linearGradient
       id="paint21_linear"
       x1="282.10501"
       y1="229.554"
       x2="280.45599"
       y2="229.554"
       gradientUnits="userSpaceOnUse">
      <stop
         offset="0.0959596"
         stop-color="#0052CC"
         id="stop255" />
      <stop
         offset="1"
         stop-color="#266CD4"
         id="stop257" />
    </linearGradient>
    <linearGradient
       id="paint22_linear"
       x1="198.342"
       y1="63.2841"
       x2="228.72"
       y2="266.61099"
       gradientUnits="userSpaceOnUse">
      <stop
         stop-color="#0857CE"
         id="stop260" />
      <stop
         offset="1"
         stop-color="#0052CC"
         id="stop262" />
    </linearGradient>
    <linearGradient
       id="paint23_linear"
       x1="298.39801"
       y1="200.983"
       x2="197.218"
       y2="295.82901"
       gradientUnits="userSpaceOnUse">
      <stop
         stop-color="#0857CE"
         id="stop265" />
      <stop
         offset="1"
         stop-color="#0052CC"
         id="stop267" />
    </linearGradient>
    <linearGradient
       id="paint24_linear"
       x1="285.159"
       y1="241.35899"
       x2="207.424"
       y2="314.22601"
       gradientUnits="userSpaceOnUse">
      <stop
         stop-color="#0857CE"
         id="stop270" />
      <stop
         offset="1"
         stop-color="#0052CC"
         id="stop272" />
    </linearGradient>
    <linearGradient
       id="paint25_linear"
       x1="545.92297"
       y1="169.468"
       x2="599.91803"
       y2="305.79901"
       gradientUnits="userSpaceOnUse">
      <stop
         stop-color="#0D5BCF"
         id="stop275" />
      <stop
         offset="1"
         stop-color="#5787CE"
         id="stop277" />
    </linearGradient>
    <linearGradient
       id="paint26_linear"
       x1="560.745"
       y1="81.652199"
       x2="494.543"
       y2="217.16901"
       gradientUnits="userSpaceOnUse">
      <stop
         offset="0.0353535"
         stop-color="#5787CE"
         id="stop280" />
      <stop
         offset="0.4981"
         stop-color="#6692D3"
         id="stop282" />
      <stop
         offset="1"
         stop-color="#7CA1D9"
         id="stop284" />
    </linearGradient>
    <linearGradient
       id="paint27_linear"
       x1="403.48499"
       y1="33.3009"
       x2="620.276"
       y2="207.565"
       gradientUnits="userSpaceOnUse">
      <stop
         stop-color="#0D5BCF"
         id="stop287" />
      <stop
         offset="1"
         stop-color="#5787CE"
         id="stop289" />
    </linearGradient>
    <linearGradient
       id="paint28_linear"
       x1="559.77399"
       y1="96.522499"
       x2="502.42401"
       y2="173.575"
       gradientUnits="userSpaceOnUse">
      <stop
         stop-color="#0D5BCF"
         id="stop292" />
      <stop
         offset="1"
         stop-color="#5787CE"
         id="stop294" />
    </linearGradient>
    <linearGradient
       id="paint29_linear"
       x1="504.659"
       y1="229.877"
       x2="397.73401"
       y2="289.07501"
       gradientUnits="userSpaceOnUse">
      <stop
         stop-color="#0D5BCF"
         id="stop297" />
      <stop
         offset="1"
         stop-color="#5787CE"
         id="stop299" />
    </linearGradient>
    <linearGradient
       id="paint30_linear"
       x1="461.47"
       y1="193.33099"
       x2="410.367"
       y2="332.556"
       gradientUnits="userSpaceOnUse">
      <stop
         stop-color="#0857CE"
         id="stop302" />
      <stop
         offset="1"
         stop-color="#0052CC"
         id="stop304" />
    </linearGradient>
    <linearGradient
       id="paint31_linear"
       x1="566.12799"
       y1="205.355"
       x2="603.65997"
       y2="300.11899"
       gradientUnits="userSpaceOnUse">
      <stop
         stop-color="#0D5BCF"
         id="stop307" />
      <stop
         offset="1"
         stop-color="#5787CE"
         id="stop309" />
    </linearGradient>
    <linearGradient
       id="paint32_linear"
       x1="455.819"
       y1="245.84599"
       x2="423.65799"
       y2="333.46399"
       gradientUnits="userSpaceOnUse">
      <stop
         stop-color="#0857CE"
         id="stop312" />
      <stop
         offset="1"
         stop-color="#0052CC"
         id="stop314" />
    </linearGradient>
    <linearGradient
       id="paint33_linear"
       x1="423.323"
       y1="109.414"
       x2="444.05701"
       y2="241.91299"
       gradientUnits="userSpaceOnUse">
      <stop
         stop-color="#0857CE"
         id="stop317" />
      <stop
         offset="1"
         stop-color="#0052CC"
         id="stop319" />
    </linearGradient>
    <radialGradient
       id="paint34_radial"
       cx="0"
       cy="0"
       r="1"
       gradientUnits="userSpaceOnUse"
       gradientTransform="matrix(-12.1918,0,0,-256.811,460.51,190.473)">
      <stop
         stop-color="white"
         id="stop322" />
    </radialGradient>
    <radialGradient
       id="paint35_radial"
       cx="0"
       cy="0"
       r="1"
       gradientUnits="userSpaceOnUse"
       gradientTransform="matrix(-32.2834,0,0,-32.308,415.952,235.772)">
      <stop
         stop-color="white"
         id="stop325" />
    </radialGradient>
    <linearGradient
       id="paint36_linear"
       x1="387.08499"
       y1="-47.919498"
       x2="484.474"
       y2="236.31799"
       gradientUnits="userSpaceOnUse">
      <stop
         offset="0.0353535"
         stop-color="#5787CE"
         id="stop328" />
      <stop
         offset="0.4981"
         stop-color="#6692D3"
         id="stop330" />
      <stop
         offset="1"
         stop-color="#7CA1D9"
         id="stop332" />
    </linearGradient>
    <linearGradient
       id="paint37_linear"
       x1="511.32101"
       y1="151.66299"
       x2="373.50299"
       y2="151.66299"
       gradientUnits="userSpaceOnUse">
      <stop
         offset="0.0353535"
         stop-color="#5787CE"
         id="stop335" />
      <stop
         offset="0.4899"
         stop-color="#5787CE"
         id="stop337" />
      <stop
         offset="0.9949"
         stop-color="#6491D2"
         id="stop339" />
    </linearGradient>
    <linearGradient
       id="paint38_linear"
       x1="201.131"
       y1="261.19901"
       x2="263.48599"
       y2="453.26199"
       gradientUnits="userSpaceOnUse">
      <stop
         offset="0.0353535"
         stop-color="#5787CE"
         id="stop342" />
      <stop
         offset="0.4981"
         stop-color="#6692D3"
         id="stop344" />
      <stop
         offset="1"
         stop-color="#7CA1D9"
         id="stop346" />
    </linearGradient>
    <linearGradient
       id="paint39_linear"
       x1="76.739197"
       y1="370.34299"
       x2="399.12799"
       y2="370.34299"
       gradientUnits="userSpaceOnUse">
      <stop
         offset="0.0353535"
         stop-color="#5787CE"
         id="stop349" />
      <stop
         offset="0.4899"
         stop-color="#5787CE"
         id="stop351" />
      <stop
         offset="0.9949"
         stop-color="#6491D2"
         id="stop353" />
    </linearGradient>
    <linearGradient
       id="paint40_linear"
       x1="5.3325"
       y1="371.76501"
       x2="129.248"
       y2="371.76501"
       gradientUnits="userSpaceOnUse">
      <stop
         stop-color="#0D5BCF"
         id="stop356" />
      <stop
         offset="1"
         stop-color="#5787CE"
         id="stop358" />
    </linearGradient>
    <linearGradient
       id="paint41_linear"
       x1="76.739197"
       y1="399.73499"
       x2="399.12799"
       y2="399.73499"
       gradientUnits="userSpaceOnUse">
      <stop
         offset="0.0353535"
         stop-color="#5787CE"
         id="stop361" />
      <stop
         offset="0.4899"
         stop-color="#5787CE"
         id="stop363" />
      <stop
         offset="0.9949"
         stop-color="#6491D2"
         id="stop365" />
    </linearGradient>
    <linearGradient
       id="paint42_linear"
       x1="542.26001"
       y1="140.052"
       x2="527.98401"
       y2="159.23199"
       gradientUnits="userSpaceOnUse">
      <stop
         stop-color="#0D5BCF"
         id="stop368" />
      <stop
         offset="1"
         stop-color="#5787CE"
         id="stop370" />
    </linearGradient>
    <linearGradient
       id="paint43_linear"
       x1="290.29099"
       y1="78.0728"
       x2="321.267"
       y2="168.40199"
       gradientUnits="userSpaceOnUse">
      <stop
         offset="0.0353535"
         stop-color="#5787CE"
         id="stop373" />
      <stop
         offset="0.4981"
         stop-color="#6692D3"
         id="stop375" />
      <stop
         offset="1"
         stop-color="#7CA1D9"
         id="stop377" />
    </linearGradient>
    <linearGradient
       id="paint44_linear"
       x1="373.71701"
       y1="106.045"
       x2="325.16199"
       y2="172.382"
       gradientUnits="userSpaceOnUse">
      <stop
         offset="0.0353535"
         stop-color="#5787CE"
         id="stop380" />
      <stop
         offset="0.4981"
         stop-color="#6692D3"
         id="stop382" />
      <stop
         offset="1"
         stop-color="#7CA1D9"
         id="stop384" />
    </linearGradient>
    <linearGradient
       id="paint45_linear"
       x1="486.50101"
       y1="65.799103"
       x2="566.83801"
       y2="130.377"
       gradientUnits="userSpaceOnUse">
      <stop
         offset="0.0353535"
         stop-color="#5787CE"
         id="stop387" />
      <stop
         offset="0.4899"
         stop-color="#5787CE"
         id="stop389" />
      <stop
         offset="0.9949"
         stop-color="#6491D2"
         id="stop391" />
    </linearGradient>
    <radialGradient
       id="paint46_radial"
       cx="0"
       cy="0"
       r="1"
       gradientUnits="userSpaceOnUse"
       gradientTransform="matrix(-75.4883,0,0,-75.5452,554.003,184.91)">
      <stop
         stop-color="white"
         id="stop394" />
    </radialGradient>
    <linearGradient
       id="paint47_linear"
       x1="294.43399"
       y1="217.117"
       x2="197.895"
       y2="232.27299"
       gradientUnits="userSpaceOnUse">
      <stop
         stop-color="#6491D2"
         id="stop397" />
      <stop
         offset="1"
         stop-color="#7CA1D9"
         id="stop399" />
    </linearGradient>
    <linearGradient
       id="paint48_linear"
       x1="187.548"
       y1="73.437302"
       x2="403.409"
       y2="289.13599"
       gradientUnits="userSpaceOnUse">
      <stop
         stop-color="#6491D2"
         id="stop402" />
      <stop
         offset="1"
         stop-color="#7CA1D9"
         id="stop404" />
    </linearGradient>
    <linearGradient
       id="paint49_linear"
       x1="388.14899"
       y1="230.755"
       x2="379.591"
       y2="230.755"
       gradientUnits="userSpaceOnUse">
      <stop
         offset="0.0959596"
         stop-color="#0052CC"
         id="stop407" />
      <stop
         offset="1"
         stop-color="#266CD4"
         id="stop409" />
    </linearGradient>
    <radialGradient
       id="paint50_radial"
       cx="0"
       cy="0"
       r="1"
       gradientUnits="userSpaceOnUse"
       gradientTransform="matrix(0,95.6922,-137.893,0,138.493,260.287)">
      <stop
         stop-color="#0088EC"
         id="stop412" />
      <stop
         offset="1"
         stop-color="#0088EC"
         stop-opacity="0"
         id="stop414" />
    </radialGradient>
    <radialGradient
       id="paint51_radial"
       cx="0"
       cy="0"
       r="1"
       gradientUnits="userSpaceOnUse"
       gradientTransform="matrix(0,95.6571,-164.567,0,506.433,95.7274)">
      <stop
         stop-color="#0088EC"
         id="stop417" />
      <stop
         offset="1"
         stop-color="#0088EC"
         stop-opacity="0"
         id="stop419" />
    </radialGradient>
    <radialGradient
       id="paint52_radial"
       cx="0"
       cy="0"
       r="1"
       gradientUnits="userSpaceOnUse"
       gradientTransform="matrix(0,9.44394,-82.4278,0,464.738,164.402)">
      <stop
         stop-color="#0088EC"
         id="stop422" />
      <stop
         offset="1"
         stop-color="#0088EC"
         stop-opacity="0"
         id="stop424" />
    </radialGradient>
    <radialGradient
       id="paint53_radial"
       cx="0"
       cy="0"
       r="1"
       gradientUnits="userSpaceOnUse"
       gradientTransform="matrix(0,28.5246,-84.45,0,207.921,300.664)">
      <stop
         stop-color="#0088EC"
         id="stop427" />
      <stop
         offset="1"
         stop-color="#0088EC"
         stop-opacity="0"
         id="stop429" />
    </radialGradient>
    <clipPath
       id="clip0">
      <rect
         width="670.40002"
         height="445.60001"
         fill="#ffffff"
         transform="matrix(-1,0,0,1,671,0)"
         id="rect432"
         x="0"
         y="0" />
    </clipPath>
    <radialGradient
       id="paint0_radial"
       cx="0"
       cy="0"
       r="1"
       gradientUnits="userSpaceOnUse"
       gradientTransform="matrix(0,321.494,-378.716,0,522.585,352.333)">
      <stop
         stop-color="#C4C4C4"
         id="stop450" />
      <stop
         offset="0.676583"
         stop-color="#C4C4C4"
         stop-opacity="0.17"
         id="stop452" />
      <stop
         offset="1"
         stop-color="#C4C4C4"
         stop-opacity="0"
         id="stop454" />
    </radialGradient>
    <clipPath
       id="clip0-3">
      <rect
         width="670.40002"
         height="445.60001"
         fill="#ffffff"
         transform="matrix(-1,0,0,1,671,0)"
         id="rect432-6"
         x="0"
         y="0" />
    </clipPath>
    <radialGradient
       id="paint34_radial-0"
       cx="0"
       cy="0"
       r="1"
       gradientUnits="userSpaceOnUse"
       gradientTransform="matrix(-12.1918,0,0,-256.811,460.51,190.473)">
      <stop
         stop-color="white"
         id="stop322-7" />
    </radialGradient>
    <radialGradient
       id="paint35_radial-8"
       cx="0"
       cy="0"
       r="1"
       gradientUnits="userSpaceOnUse"
       gradientTransform="matrix(-32.2834,0,0,-32.308,415.952,235.772)">
      <stop
         stop-color="white"
         id="stop325-6" />
    </radialGradient>
    <radialGradient
       id="paint46_radial-6"
       cx="0"
       cy="0"
       r="1"
       gradientUnits="userSpaceOnUse"
       gradientTransform="matrix(-75.4883,0,0,-75.5452,554.003,184.91)">
      <stop
         stop-color="white"
         id="stop394-1" />
    </radialGradient>
    <radialGradient
       id="paint50_radial-9"
       cx="0"
       cy="0"
       r="1"
       gradientUnits="userSpaceOnUse"
       gradientTransform="matrix(0,95.6922,-137.893,0,138.493,260.287)">
      <stop
         stop-color="#0088EC"
         id="stop412-0" />
      <stop
         offset="1"
         stop-color="#0088EC"
         stop-opacity="0"
         id="stop414-9" />
    </radialGradient>
    <radialGradient
       id="paint51_radial-1"
       cx="0"
       cy="0"
       r="1"
       gradientUnits="userSpaceOnUse"
       gradientTransform="matrix(0,95.6571,-164.567,0,506.433,95.7274)">
      <stop
         stop-color="#0088EC"
         id="stop417-7" />
      <stop
         offset="1"
         stop-color="#0088EC"
         stop-opacity="0"
         id="stop419-7" />
    </radialGradient>
    <radialGradient
       id="paint52_radial-1"
       cx="0"
       cy="0"
       r="1"
       gradientUnits="userSpaceOnUse"
       gradientTransform="matrix(0,9.44394,-82.4278,0,464.738,164.402)">
      <stop
         stop-color="#0088EC"
         id="stop422-1" />
      <stop
         offset="1"
         stop-color="#0088EC"
         stop-opacity="0"
         id="stop424-5" />
    </radialGradient>
    <radialGradient
       id="paint53_radial-9"
       cx="0"
       cy="0"
       r="1"
       gradientUnits="userSpaceOnUse"
       gradientTransform="matrix(0,28.5246,-84.45,0,207.921,300.664)">
      <stop
         stop-color="#0088EC"
         id="stop427-7" />
      <stop
         offset="1"
         stop-color="#0088EC"
         stop-opacity="0"
         id="stop429-7" />
    </radialGradient>
    <linearGradient
       inkscape:collect="always"
       xlink:href="#paint6_linear"
       id="linearGradient1638"
       gradientUnits="userSpaceOnUse"
       x1="647.49402"
       y1="184.77901"
       x2="460.54599"
       y2="184.77901" />
    <linearGradient
       inkscape:collect="always"
       xlink:href="#paint6_linear"
       id="linearGradient1640"
       gradientUnits="userSpaceOnUse"
       x1="647.49402"
       y1="184.77901"
       x2="460.54599"
       y2="184.77901" />
    <mask
       id="mask0"
       mask-type="alpha"
       maskUnits="userSpaceOnUse"
       x="156"
       y="41"
       width="733"
       height="623">
      <ellipse
         cx="522.58502"
         cy="352.33301"
         rx="366.27499"
         ry="310.93201"
         fill="url(#paint0_radial)"
         id="ellipse441"
         style="fill:url(#paint0_radial-6)" />
    </mask>
    <radialGradient
       id="paint0_radial-6"
       cx="0"
       cy="0"
       r="1"
       gradientUnits="userSpaceOnUse"
       gradientTransform="matrix(0,321.494,-378.716,0,522.585,352.333)">
      <stop
         stop-color="#C4C4C4"
         id="stop450-7" />
      <stop
         offset="0.676583"
         stop-color="#C4C4C4"
         stop-opacity="0.17"
         id="stop452-3" />
      <stop
         offset="1"
         stop-color="#C4C4C4"
         stop-opacity="0"
         id="stop454-6" />
    </radialGradient>
    <radialGradient
       id="paint0_radial-63"
       cx="0"
       cy="0"
       r="1"
       gradientUnits="userSpaceOnUse"
       gradientTransform="matrix(0,321.494,-378.716,0,522.585,352.333)">
      <stop
         stop-color="#C4C4C4"
         id="stop1980" />
      <stop
         offset="0.676583"
         stop-color="#C4C4C4"
         stop-opacity="0.17"
         id="stop1982" />
      <stop
         offset="1"
         stop-color="#C4C4C4"
         stop-opacity="0"
         id="stop1984" />
    </radialGradient>
  </defs>
  <g
     inkscape:groupmode="layer"
     id="layer3"
     inkscape:label="bg 1"
     style="display:inline" />
  <g
     inkscape:groupmode="layer"
     id="layer1"
     inkscape:label="8">
    <g
       style="display:inline;fill:none"
       id="g2002"
       transform="translate(-164.31003,51.967076)">
      <g
         opacity="0.2"
         id="g1978">
        <mask
           id="mask0-5"
           mask-type="alpha"
           maskUnits="userSpaceOnUse"
           x="156"
           y="41"
           width="733"
           height="623">
          <ellipse
             cx="522.58502"
             cy="352.33301"
             rx="366.27499"
             ry="310.93201"
             fill="url(#paint0_radial)"
             id="ellipse1971"
             style="fill:url(#paint0_radial-63)" />
        </mask>
        <g
           mask="url(#mask0-5)"
           id="g1976">
          <path
             d="m 6.49662,731.704 50.34878,-29.105 50.3486,29.105 h 4.061 l -52.4606,-30.244 53.7596,-31.056 54.084,31.219 -51.973,30.081 h 4.061 l 50.024,-28.943 50.024,28.943 h 4.06 l -51.973,-30.081 53.76,-31.057 54.084,31.22 -51.811,29.918 h 4.061 l 49.699,-28.78 49.699,28.78 h 4.061 l -51.811,-29.918 53.76,-31.057 54.084,31.219 -51.486,29.756 h 4.061 l 49.374,-28.455 49.374,28.455 h 4.061 l -51.324,-29.593 53.76,-31.057 54.084,31.219 -51.161,29.431 h 4.061 l 48.887,-28.292 48.887,28.292 h 4.06 l -50.998,-29.431 53.759,-31.056 54.085,31.219 -50.674,29.268 h 4.06 l 48.563,-28.13 48.562,28.13 h 4.06 l -50.673,-29.268 53.759,-31.057 54.084,31.22 -50.348,29.105 h 4.06 l 48.238,-27.967 48.237,27.967 h 4.06 l -50.349,-29.105 53.76,-31.057 54.084,31.219 -49.699,28.943 h 4.061 l 47.912,-27.642 47.913,27.642 h 4.06 l -49.861,-28.78 53.759,-31.057 54.085,31.219 -49.862,28.618 h 4.06 l 47.588,-27.479 47.588,27.479 h 4.062 l -49.539,-28.618 53.759,-31.056 49.86,28.78 v -2.276 l -47.75,-27.643 47.75,-27.642 v -2.276 l -49.86,28.78 -54.083,-31.219 53.763,-31.057 50.18,28.943 v -2.276 l -48.07,-27.805 48.07,-27.805 v -2.276 l -50.18,28.943 -54.088,-31.22 53.758,-31.057 50.51,29.269 v -2.277 l -48.56,-27.967 48.56,-27.967 v -2.277 l -50.51,29.268 -54.083,-31.219 53.763,-31.057 50.83,29.431 v -2.276 l -48.88,-28.293 48.88,-28.293 v -2.276 l -50.83,29.431 -54.088,-31.22 53.758,-31.056 51.16,29.593 v -2.276 l -49.21,-28.456 49.21,-28.455 v -2.276 l -51.16,29.593 -54.245,-32.032 53.755,-31.057 51.65,29.756 v -2.276 l -49.53,-28.618 49.53,-28.618 v -2.276 l -51.65,29.756 -54.08,-31.22 53.76,-31.057 51.97,30.082 v -2.277 l -49.86,-28.78 49.86,-28.781 v -2.276 l -51.97,30.081 -54.085,-31.219 53.755,-31.057 52.3,30.244 v -2.277 l -50.18,-29.105 50.18,-29.106 v -2.764 l -52.3,30.244 -54.08,-31.22 53.76,-31.056 52.62,30.406 v -2.276 l -50.67,-29.269 50.67,-29.268 v -2.276 l -52.62,30.406 -54.084,-31.219 53.764,-31.0569 52.94,30.5689 v -2.276 l -51,-29.4311 51,-29.4308 V 57.5607 L 1004.22,88.1297 950.131,56.9103 1003.73,25.6909 1057,56.5851 V 54.3087 L 1005.68,24.7153 1048.07,0 h -4.06 L 1003.73,23.2519 963.286,0 h -4.06 L 1001.62,24.5527 947.857,55.6095 893.773,24.3901 936.001,0 H 931.94 L 891.986,23.0893 851.869,0 h -4.06 L 889.875,24.2275 836.115,55.2843 782.031,24.0649 823.772,0 h -4.061 L 780.082,22.9267 740.452,0 h -4.06 L 777.97,24.0649 724.373,55.1217 670.289,23.9023 711.542,0 h -4.06 L 668.177,22.7641 628.873,0 h -4.061 L 666.228,23.9023 612.469,54.9591 558.385,23.7397 599.476,0 h -4.061 L 556.436,22.6015 517.456,0 h -4.061 L 554.324,23.7397 500.565,54.7965 446.643,23.4145 487.247,0 h -4.061 L 444.531,22.2763 406.039,0 h -4.061 L 442.582,23.4145 388.823,54.4713 334.738,23.2519 375.017,0 h -4.06 L 332.627,22.1137 294.459,0 h -4.06 L 330.678,23.2519 276.918,54.3087 222.834,23.0893 262.951,0 H 258.89 L 220.885,21.9511 183.042,0 h -4.06 L 218.936,23.0893 165.177,54.1461 111.092,22.9267 150.722,0 h -4.061 L 109.143,21.7885 71.6252,0 H 67.5648 L 107.194,22.9267 53.4347,53.9835 0,23.0893 v 2.2764 L 51.3233,55.1217 0,84.7151 v 2.2764 L 53.4347,56.0973 107.519,87.3167 53.7595,118.536 0,87.4793 v 2.2764 L 51.6481,119.674 0,149.593 v 4.715 L 52.1354,184.389 0,214.471 v 4.227 L 52.4602,248.942 0,279.348 v 3.903 L 52.785,313.82 0,344.064 v 3.414 L 53.1099,378.21 0,408.941 v 3.09 L 53.4347,442.925 0,473.819 v 2.602 L 53.7595,507.478 0.162416,538.534 H 0 v 2.439 H 0.162416 L 54.2468,572.193 0.487247,603.249 0,602.924 v 2.927 L 0.487247,605.526 54.5716,636.745 0.812078,667.802 0,667.314 v 3.252 l 0.812078,-0.488 54.084322,31.22 -52.46017,30.406 z m 52.13538,-94.959 53.76,-31.057 54.084,31.22 -53.76,31.057 z m 331.977,-256.747 54.085,31.22 -53.76,31.057 -54.084,-31.22 z m -55.708,29.919 -54.085,-31.219 53.76,-31.057 54.084,31.219 z m 57.657,-31.057 53.76,-31.057 54.084,31.22 -53.759,31.057 z m 109.793,1.464 54.085,31.219 -53.76,31.057 -54.084,-31.22 z m 2.112,-1.301 53.759,-31.057 54.085,31.219 -53.76,31.057 z m 109.792,1.463 54.085,31.22 -53.76,31.056 -54.084,-31.219 z m 1.949,-1.138 53.76,-31.057 54.084,31.22 -53.759,31.056 z m 109.793,1.301 54.085,31.219 -53.76,31.057 -53.922,-31.219 z m -53.922,-33.659 53.76,-31.056 54.084,31.219 -53.922,31.219 z m -2.111,-1.138 -54.084,-31.219 53.759,-31.057 54.085,31.219 z m -1.949,1.138 -53.76,31.057 -54.084,-31.219 53.76,-31.057 z m -109.793,-1.3 -54.084,-31.22 53.759,-31.057 54.085,31.22 z m -2.111,1.138 -53.76,31.057 -54.084,-31.22 53.759,-31.057 z m -109.793,-1.301 -54.085,-31.219 53.76,-31.057 54.084,31.219 z m -1.949,1.138 -53.76,31.057 -54.084,-31.219 53.759,-31.057 z m -109.793,-1.301 -54.084,-31.219 53.759,-31.057 54.085,31.22 z m -2.111,1.139 -53.76,31.056 -54.084,-31.219 53.759,-31.057 z m 0.324,64.552 -53.759,31.057 -54.085,-31.219 53.76,-31.057 z m 0.488,64.715 -53.76,31.057 -54.084,-31.219 53.759,-31.057 z m -52.136,-32.52 53.76,-31.057 54.084,31.22 -53.759,31.057 z m 109.793,1.464 54.085,31.219 -53.76,31.057 -54.084,-31.22 z m 2.112,-1.139 53.759,-31.056 54.084,31.219 -53.921,31.057 z m 109.792,1.301 54.085,31.22 -53.76,31.056 -54.084,-31.219 z m 1.949,-1.138 53.76,-31.057 54.084,31.22 -53.759,31.056 z m 109.793,1.301 54.085,31.219 -53.76,31.057 -54.084,-31.219 z m 2.112,-1.138 53.759,-31.057 54.085,31.219 -53.76,31.057 z m 109.793,1.3 54.084,31.22 -53.76,31.057 -54.084,-31.22 z m 1.949,-1.138 53.759,-31.057 54.085,31.22 -53.76,31.057 z m -0.325,-64.552 53.759,-31.057 54.085,31.219 -53.76,31.057 z m -0.325,-64.716 53.759,-31.056 54.085,31.219 -53.76,31.057 z m -0.325,-64.552 53.76,-31.057 54.084,31.219 -53.76,31.057 z m 51.973,32.357 -53.76,31.057 -54.084,-31.219 53.76,-31.057 z m -109.793,-1.3 -54.084,-31.22 53.759,-31.057 54.085,31.22 z m -2.111,1.138 -53.597,31.057 -54.085,-31.22 53.76,-31.057 z m -109.793,-1.464 -54.084,-31.219 53.759,-31.057 54.084,31.22 z m -1.949,1.301 -53.76,31.057 -54.084,-31.219 53.76,-31.057 z m -109.793,-1.463 -54.084,-31.22 53.759,-31.056 54.085,31.219 z m -1.949,1.138 -53.76,31.057 -54.084,-31.22 53.76,-31.056 z m -109.793,-1.301 -54.084,-31.219 53.759,-31.057 54.085,31.219 z m -2.111,1.138 -53.76,31.057 -54.084,-31.219 53.759,-31.057 z m -109.793,-1.3 -54.085,-31.22 53.76,-31.057 54.084,31.22 z m 54.084,33.495 -53.759,31.057 -54.085,-31.219 53.76,-31.057 z m 0.325,64.716 -53.759,31.056 -54.085,-31.219 53.76,-31.057 z m 0.325,64.552 -53.76,31.057 -54.084,-31.219 53.76,-31.057 z m 0.325,64.715 -53.76,31.057 -54.084,-31.219 53.759,-31.057 z m 2.111,1.139 54.084,31.219 -53.759,31.057 -54.084,-31.22 z m 1.949,-1.139 53.76,-31.056 54.084,31.219 -53.76,31.057 z m 109.793,1.301 54.084,31.219 -53.759,31.057 -54.085,-31.219 z m 2.111,-1.138 53.76,-31.057 54.084,31.22 -53.759,31.056 z m 109.793,1.463 54.085,31.22 -53.76,31.056 -54.084,-31.219 z m 1.949,-1.3 53.76,-31.057 54.084,31.219 -53.759,31.057 z m 109.793,1.463 54.085,31.219 -53.76,31.057 -54.084,-31.219 z m 2.112,-1.138 53.759,-31.057 54.084,31.219 -53.759,31.057 z m 109.792,1.301 54.085,31.219 -53.76,31.057 -54.084,-31.22 z m 1.949,-1.139 53.76,-31.056 54.084,31.219 -53.759,31.057 z m 109.793,1.301 54.085,31.22 -53.76,31.056 -54.084,-31.219 z m -54.084,-33.496 53.759,-31.056 54.085,31.219 -53.76,31.057 z m -0.325,-64.715 53.76,-31.057 54.084,31.22 -53.76,31.057 z m -0.325,-64.552 53.76,-31.057 54.084,31.219 -53.759,31.057 z m -0.325,-64.716 53.76,-31.056 54.084,31.219 -53.759,31.057 z m -0.324,-64.552 53.759,-31.057 54.084,31.219 -53.759,31.057 z m -2.112,-1.301 -54.084,-31.219 53.759,-31.057 54.085,31.219 z m -1.949,1.301 -53.759,31.057 -54.085,-31.22 53.76,-31.057 z m -109.793,-1.464 -54.084,-31.219 53.76,-31.057 54.084,31.22 z m -2.111,1.139 -53.597,31.056 -54.085,-31.219 53.76,-31.057 z m -109.793,-1.301 -54.084,-31.22 53.759,-31.056 54.085,31.219 z m -1.949,1.138 -53.759,31.057 -54.085,-31.22 53.76,-31.056 z m -109.793,-1.301 -54.084,-31.219 53.759,-31.057 54.085,31.219 z m -2.111,1.138 -53.76,31.057 -54.084,-31.219 53.759,-31.057 z m -109.793,-1.3 -54.084,-31.22 53.759,-31.057 54.084,31.22 z m -1.949,1.138 -53.76,31.057 -54.084,-31.22 53.76,-31.057 z m -109.793,-1.464 -54.084,-31.219 53.759,-31.057 54.085,31.22 z m -2.111,1.139 -53.76,31.056 -54.084,-31.219 53.759,-31.057 z m 0.487,64.715 -53.76,31.057 -54.084,-31.22 53.759,-31.057 z m 0.325,64.552 -53.76,31.057 -54.084,-31.219 53.759,-31.057 z m 0.325,64.716 -53.76,31.056 -54.084,-31.219 53.759,-31.057 z m 0.324,64.552 -53.759,31.057 -54.085,-31.219 53.76,-31.057 z m 0.325,64.715 -53.759,31.057 -54.085,-31.219 53.76,-31.057 z m 0.325,64.553 -53.597,31.057 -54.084,-31.22 53.759,-31.056 z m -51.973,-32.358 53.76,-31.056 54.084,31.219 -53.76,31.057 z m 109.793,1.464 54.084,31.219 -53.759,31.057 -54.085,-31.22 z m 1.949,-1.301 53.759,-31.057 54.085,31.219 -53.76,31.057 z m 109.793,1.463 54.084,31.22 -53.759,31.056 -54.085,-31.219 z m 2.111,-1.138 53.76,-31.057 54.084,31.22 -53.759,31.056 z m 109.793,1.301 54.084,31.219 -53.759,31.057 -54.084,-31.219 z m 1.949,-1.138 53.76,-31.057 54.084,31.219 -53.76,31.057 z m 109.793,1.301 54.084,31.219 -53.759,31.057 -54.085,-31.22 z m 2.111,-1.139 53.76,-31.056 54.084,31.219 -53.759,31.057 z m 109.793,1.301 54.085,31.219 -53.76,31.057 -54.084,-31.219 z m 1.949,-1.138 53.76,-31.057 54.084,31.22 -53.759,31.056 z m 109.793,1.463 54.085,31.22 -53.76,31.056 -54.084,-31.219 z m 2.112,-1.138 53.759,-31.057 54.084,31.22 -53.759,31.056 z m -0.325,-64.715 53.759,-31.057 54.085,31.22 -53.76,31.056 z m -0.325,-64.553 53.759,-31.056 54.085,31.219 -53.76,31.057 z m -0.487,-64.715 53.759,-31.057 54.085,31.22 -53.76,31.057 z m -0.325,-64.552 53.759,-31.057 54.085,31.219 -53.76,31.057 z m -0.325,-64.716 53.76,-31.056 54.084,31.219 -53.76,31.057 z m -0.325,-64.552 53.76,-31.057 54.084,31.219 -53.759,31.057 z m -0.325,-64.715 53.76,-31.0571 54.084,31.2191 -53.759,31.057 z m 51.973,32.357 -53.759,31.057 -53.922,-31.219 53.597,-31.057 z m -109.793,-1.301 -54.084,-31.219 53.76,-31.0567 54.084,31.2197 z m -1.949,1.139 -53.759,31.056 -54.084,-31.219 53.759,-31.057 z m -109.792,-1.301 -54.085,-31.22 53.76,-31.0563 54.084,31.2193 z m -2.112,1.138 -53.759,31.057 -54.085,-31.22 53.76,-31.056 z M 557.085,151.869 503.001,120.65 556.76,89.4305 610.845,120.65 Z m -1.949,1.138 -53.759,31.057 -54.085,-31.219 53.76,-31.057 z m -109.793,-1.463 -54.084,-31.219 53.76,-31.0571 54.084,31.2191 z m -2.111,1.138 -53.597,31.057 -54.085,-31.219 53.76,-31.057 z m -109.793,-1.301 -54.084,-31.219 53.759,-31.0567 54.085,31.2197 z m -1.949,1.139 -53.759,31.056 -54.085,-31.219 53.76,-31.057 z m -109.793,-1.301 -54.084,-31.22 53.759,-31.0563 54.085,31.2193 z m -2.111,1.138 -53.76,31.057 -53.922,-31.22 53.76,-31.056 z m -55.709,32.195 -53.759,31.057 -54.0846,-31.22 53.7596,-31.056 z m 0.325,64.715 -53.759,31.057 -54.0848,-31.219 53.7598,-31.22 z m 0.325,64.553 -53.76,31.057 -53.9216,-31.22 53.7596,-31.057 z m 0.487,64.715 -53.759,31.057 -54.0847,-31.22 53.7597,-31.056 z m 0.325,64.553 -53.76,31.056 -54.0839,-31.219 53.7599,-31.057 z m 0.325,64.715 -53.76,31.056 -54.0841,-31.219 53.7591,-31.219 z m 0.325,64.552 -53.76,31.057 -54.0842,-31.219 53.7592,-31.057 z m 2.761,128.13 -54.085,-31.22 53.76,-31.056 54.084,31.219 z m 1.624,-63.415 53.759,-31.056 54.085,31.219 -53.76,31.057 z m 110.118,63.577 -54.085,-31.219 53.76,-31.057 54.084,31.22 z m 1.786,-63.414 53.76,-31.057 54.084,31.22 -53.922,31.056 z m 110.118,63.577 -54.084,-31.219 53.759,-31.057 54.084,31.219 z m 1.624,-63.414 53.76,-31.057 54.084,31.219 -53.76,31.057 z m 110.118,63.739 -54.085,-31.219 53.76,-31.057 54.084,31.219 z m 1.786,-63.577 53.76,-31.057 54.084,31.22 -53.759,31.057 z m 110.118,63.74 -54.084,-31.22 53.759,-31.056 54.085,31.219 z m 1.624,-63.415 53.76,-31.056 54.084,31.219 -53.759,31.057 z m 110.118,63.577 -54.084,-31.219 53.759,-31.057 54.084,31.22 z m 1.624,-63.414 53.76,-31.057 54.084,31.22 -53.76,31.056 z m 110.28,63.577 -54.084,-31.219 53.759,-31.057 54.085,31.219 z m 1.624,-63.414 53.76,-31.057 54.084,31.219 -53.759,31.057 z m 163.878,32.682 -53.76,31.057 -54.084,-31.219 53.759,-31.057 z m -0.33,-64.715 -53.755,31.057 -54.084,-31.219 53.759,-31.057 z m -0.32,-64.552 -53.76,31.056 -54.084,-31.219 53.76,-31.057 z m -0.49,-64.715 -53.757,31.056 -54.084,-31.219 53.759,-31.057 z m -0.32,-64.553 -53.599,31.057 -54.085,-31.22 53.76,-31.056 z m -0.33,-64.715 -53.756,31.057 -54.085,-31.22 53.76,-31.057 z m -0.32,-64.553 -53.761,31.057 -54.085,-31.219 53.76,-31.057 z m -0.33,-64.715 -53.756,31.057 -54.085,-31.22 53.76,-31.056 z m -0.32,-64.553 -53.761,31.057 -54.084,-31.219 53.759,-31.057 z m -0.49,-64.7147 -53.758,31.0567 -54.085,-31.2193 53.76,-31.0568 z M 891.824,25.5283 945.908,56.7477 892.148,87.8045 838.064,56.5851 Z M 890.199,88.9427 836.44,119.999 782.356,88.7801 836.115,57.7233 Z M 780.082,25.2031 834.166,56.4225 780.407,87.4793 726.322,56.2599 Z m -1.787,63.577 -53.759,31.0569 -54.085,-31.2195 53.922,-31.0568 z M 668.177,25.0405 722.262,56.2599 668.502,87.3167 614.418,56.0973 Z m -1.624,63.4144 -53.759,31.0571 -54.085,-31.2197 53.76,-31.0568 z M 556.436,24.8779 610.52,56.0973 556.76,87.1541 502.676,55.9347 Z m -1.625,63.4144 -53.759,31.0567 -54.084,-31.2193 53.759,-31.0568 z m -110.28,-63.577 54.085,31.2194 -53.597,31.0568 -54.085,-31.2194 z m -1.624,63.4144 -53.759,31.0563 -54.085,-31.2189 53.76,-31.0568 z M 332.789,24.3901 386.874,55.6095 333.114,86.6663 279.03,55.4469 Z m -1.624,63.577 -53.759,31.0569 -54.085,-31.2195 53.76,-31.0568 z M 220.885,24.2275 274.969,55.4469 221.21,86.5037 167.288,55.2843 Z m -1.624,63.4144 -53.76,31.0571 -53.922,-31.2197 53.76,-31.0568 z M 55.3837,55.1217 109.143,24.0649 l 54.085,31.2194 -53.76,31.0568 z m 54.0843,33.4958 54.084,31.2195 -53.759,31.219 -54.0845,-31.382 z M 0,151.869 53.7595,120.812 107.844,152.032 54.0844,183.089 Z M 0.324831,216.584 54.0844,185.528 108.169,216.747 54.4092,247.804 Z M 0.812078,281.137 54.5716,250.08 108.656,281.3 54.8964,312.356 Z m 0.324832,64.715 53.75949,-31.057 53.9216,31.22 -53.5967,31.057 z m 0.32483,64.553 53.75956,-30.894 54.0847,31.219 -53.7599,31.057 z m 0.32483,64.715 53.75953,-31.057 54.0839,31.22 -53.7591,31.056 z m 0.32483,64.552 53.7595,-31.056 54.0841,31.219 -53.7592,31.057 z M 2.43623,604.388 56.1958,573.331 110.28,604.55 56.5206,635.607 Z m 0.32483,64.552 53.75954,-31.057 54.0844,31.22 -53.7596,31.219 z"
             fill="#0052cc"
             id="path1974" />
        </g>
      </g>
    </g>
    <g
       clip-path="url(#clip0-3)"
       id="g132"
       transform="translate(171.54646,-0.0703367)">
      <path
         opacity="0.95"
         d="m 331.466,108.895 v 38.546 l 45.259,26.212 -1.156,-39.318 z"
         fill="url(#paint0_linear)"
         id="path2"
         style="fill:url(#paint0_linear)" />
      <path
         opacity="0.95"
         d="m 331.467,108.895 v 38.546 l -44.296,25.634 v -38.547 z"
         fill="url(#paint1_linear)"
         id="path4"
         style="fill:url(#paint1_linear)" />
      <path
         opacity="0.2"
         d="m 108.834,335.742 c -2.311,-15.226 6.548,-30.837 26.577,-42.401 15.022,-8.673 34.089,-13.684 53.733,-15.226 v 9.636 c -19.644,1.35 -38.711,6.553 -53.733,15.226 -15.792,9.059 -24.651,20.816 -26.577,32.765 z"
         fill="url(#paint2_linear)"
         id="path6"
         style="fill:url(#paint2_linear)" />
      <path
         d="m 388.087,275.609 -1.733,-51.074 85.894,1.156 c 5.971,-0.193 11.941,-0.964 17.911,-1.734 l -39.095,22.549 c -1.734,0.964 -1.734,2.699 0,3.662 l 43.717,25.248 c -15.985,1.542 -24.844,1.157 -24.844,1.157 z"
         fill="url(#paint3_linear)"
         id="path8"
         style="fill:url(#paint3_linear)" />
      <path
         d="m 451.257,211.429 c -1.733,-0.964 -1.733,-2.699 0,-3.662 l 39.096,-22.55 v 38.547 l -8.86,5.203 z"
         fill="url(#paint4_linear)"
         id="path10"
         style="fill:url(#paint4_linear)" />
      <path
         opacity="0.9"
         d="m 146.774,246.121 c -1.733,0.964 -1.733,2.698 0,3.662 l 42.37,24.477 c -19.644,1.349 -38.711,6.553 -53.733,15.226 -34.28,19.852 -36.0136,51.267 -5.199,72.082 l -0.193,35.656 -63.3616,0.193 C 2.3329,356.75 4.45135,293.341 73.0128,253.638 104.597,235.328 145.041,225.306 186.255,223.378 Z"
         fill="url(#paint5_linear)"
         id="path12"
         style="fill:url(#paint5_linear)" />
      <path
         d="m 460.501,248.241 50.843,-29.488 c 7.319,-2.313 14.059,-5.397 20.222,-8.866 36.399,-21.008 36.977,-54.736 1.156,-75.359 -1.734,-0.963 -3.467,-1.927 -5.2,-2.698 l 57.969,-0.193 c 1.155,0 2.311,-0.385 3.081,-0.771 0.771,-0.385 1.348,-1.156 1.348,-1.734 l 0.193,-33.7287 c 1.733,0.9637 3.467,1.9274 5.2,2.891 69.91,40.4737 69.332,106.5817 -1.541,147.4417 -25.229,14.647 -56.043,24.091 -88.59,28.331 z"
         fill="url(#paint6_linear)"
         id="path14"
         style="fill:url(#linearGradient1638)" />
      <path
         d="m 200.121,222.415 80.31,0.963 1.733,51.075 -81.657,-0.964 -44.296,-25.634 z"
         fill="url(#paint7_linear)"
         id="path16"
         style="fill:url(#paint7_linear)" />
      <path
         d="m 334.74,142.045 c -1.733,-0.964 -4.429,-0.964 -6.162,0 l -41.407,23.899 c 0,-0.386 0,-0.579 0.193,-0.964 3.466,-23.899 21.184,-47.413 52.961,-65.7222 66.251,-38.354 170.826,-41.0523 241.314,-8.0949 l -0.193,35.4631 -65.865,0.193 c -35.244,-12.143 -82.043,-9.252 -112.857,8.48 -15.022,8.673 -23.688,19.466 -26.577,30.645 z"
         fill="url(#paint8_linear)"
         id="path18"
         style="fill:url(#paint8_linear)" />
      <path
         d="m 334.548,317.432 c -1.733,-0.963 -4.429,-0.963 -6.162,0 l -39.674,22.936 c 1.734,-3.662 2.697,-7.517 3.082,-11.372 l -4.622,-155.921 44.295,-25.634 43.91,25.441 4.43,155.344 c -0.193,4.818 -0.963,9.636 -2.119,14.262 z"
         fill="url(#paint9_linear)"
         id="path20"
         style="fill:url(#paint9_linear)" />
      <path
         d="m 379.999,290.064 v 37.39 0.771 c -0.193,4.819 -0.963,9.637 -2.118,14.262 v -38.546 c 1.155,-4.433 1.925,-8.866 2.118,-13.299 z"
         fill="url(#paint10_linear)"
         id="path22"
         style="fill:url(#paint10_linear)" />
      <path
         opacity="0.9"
         d="m 20.244,287.751 c -0.3852,25.441 15.0218,50.882 46.6063,70.926 l 59.5097,-0.192 c 1.348,0.963 2.504,1.927 3.852,2.891 l -0.193,35.655 -63.3612,0.193 C 34.8807,377.18 19.4736,351.546 20.0514,325.913 l -0.1926,-0.386 v -37.968 z"
         fill="url(#paint11_linear)"
         id="path24"
         style="fill:url(#paint11_linear)" />
      <path
         opacity="0.95"
         d="m 328.193,278.886 c 0.77,-0.579 1.926,-0.771 3.081,-0.771 v 37.005 l -42.754,25.055 v -38.547 z"
         fill="url(#paint12_linear)"
         id="path26"
         style="fill:url(#paint12_linear)" />
      <path
         d="m 130.02,358.484 v 38.547 l -63.1695,0.193 v -38.547 z"
         fill="url(#paint13_linear)"
         id="path28"
         style="fill:url(#paint13_linear)" />
      <path
         d="m 531.759,209.887 c 36.206,-21.008 36.784,-54.736 0.963,-75.359 -1.734,-0.963 -3.467,-1.927 -5.2,-2.698 l 57.969,-0.193 c 1.155,0 2.311,-0.385 3.081,-0.771 0.771,-0.385 1.348,-1.156 1.348,-1.734 l 0.193,-33.7287 c 1.733,0.9637 3.467,1.9274 5.2,2.891 69.91,40.4737 69.332,106.5817 -1.541,147.4417 -25.229,14.647 -56.043,24.091 -88.59,28.331 l -44.873,-26.019 50.843,-29.488 c 7.511,-2.12 14.444,-5.204 20.607,-8.673 z"
         fill="url(#paint14_linear)"
         id="path30"
         style="fill:url(#linearGradient1640)" />
      <path
         d="m 460.501,209.694 51.036,-29.488 c 7.318,-2.313 14.059,-5.397 20.222,-8.866 36.206,-21.008 36.784,-54.736 0.963,-75.3586 -1.734,-0.9637 -3.467,-1.9274 -5.2,-2.6983 l 57.969,-0.1927 c 1.155,0 2.311,-0.3855 3.081,-0.771 0.771,-0.3854 1.348,-1.1564 1.348,-1.7346 l 0.193,-33.7284 c 1.733,0.9637 3.467,1.9274 5.2,2.891 70.102,40.4746 69.524,106.5816 -1.348,147.6336 -25.229,14.648 -56.043,24.092 -88.591,28.332 z"
         fill="#266cd4"
         id="path32" />
      <path
         d="m 134.449,402.042 c 1.156,0 2.311,-0.385 3.082,-0.771 0.77,-0.385 1.348,-1.156 1.348,-1.734 l 0.192,-32.958 c 35.822,18.31 91.095,17.539 125.761,-2.505 6.162,-3.47 11.17,-7.517 15.214,-11.564 l 51.421,-29.681 44.488,25.633 c -7.126,18.888 -23.303,36.812 -48.725,51.46 -69.332,40.089 -181.418,40.86 -251.5202,2.12 z"
         fill="#5787ce"
         id="path34" />
      <path
         d="m 146.774,207.574 39.673,-22.935 v 38.546 l -9.437,5.397 -30.236,-17.539 c -1.733,-0.963 -1.733,-2.505 0,-3.469 z"
         fill="url(#paint15_linear)"
         id="path36"
         style="fill:url(#paint15_linear)" />
      <path
         d="m 156.212,209.309 v 38.546 l 44.295,25.634 v -38.547 z"
         fill="url(#paint16_linear)"
         id="path38"
         style="fill:url(#paint16_linear)" />
      <path
         d="m 146.774,207.574 c -1.733,0.964 -1.733,2.698 0,3.662 l 42.37,24.477 c -19.644,1.349 -38.711,6.553 -53.733,15.226 -34.28,19.852 -36.0136,51.267 -5.199,72.082 l -0.193,35.656 -63.3616,0.193 C 2.3329,318.203 4.45135,254.794 73.0128,215.091 104.79,196.588 145.233,186.566 186.447,184.639 Z"
         fill="url(#paint17_linear)"
         id="path40"
         style="fill:url(#paint17_linear)" />
      <path
         d="m 460.501,209.694 51.036,-29.488 c 7.318,-2.313 14.059,-5.397 20.222,-8.866 36.206,-21.008 36.784,-54.736 0.963,-75.3586 -1.734,-0.9637 -3.467,-1.9274 -5.2,-2.6983 l 57.969,-0.1927 c 1.155,0 2.311,-0.3855 3.081,-0.771 0.771,-0.3854 1.348,-1.1564 1.348,-1.7346 l 0.193,-33.7284 c 1.733,0.9637 3.467,1.9274 5.2,2.891 70.102,40.4746 69.524,106.5816 -1.348,147.6336 -25.229,14.648 -56.043,24.092 -88.591,28.332 z"
         fill="url(#paint18_linear)"
         id="path42"
         style="fill:url(#paint18_linear)" />
      <path
         opacity="0.9"
         d="m 146.774,207.574 c -1.733,0.964 -1.733,2.698 0,3.662 l 42.37,24.477 c -19.644,1.349 -38.711,6.553 -53.733,15.226 -34.28,19.852 -36.0136,51.267 -5.199,72.082 l -0.193,35.656 -63.3616,0.193 C 2.3329,318.203 4.45135,254.794 73.0128,215.091 104.79,196.588 145.233,186.566 186.447,184.639 Z"
         fill="url(#paint19_linear)"
         id="path44"
         style="fill:url(#paint19_linear)" />
      <path
         opacity="0.9"
         d="m 114.612,307.796 c -12.904,-19.081 -5.97,-41.631 20.799,-56.857 15.022,-8.673 34.089,-13.684 53.733,-15.226 v 38.547 c -19.644,1.349 -38.711,6.553 -53.733,15.226 -9.244,5.204 -16.177,11.564 -20.799,18.31 z"
         fill="url(#paint20_linear)"
         id="path46"
         style="fill:url(#paint20_linear)" />
      <path
         d="m 280.431,223.378 1.733,51.075 v -38.547 l -1.733,-51.074 z"
         fill="url(#paint21_linear)"
         id="path48"
         style="fill:url(#paint21_linear)" />
      <path
         opacity="0.9"
         d="m 200.121,183.868 80.31,0.963 1.733,51.075 -81.657,-0.964 -44.296,-25.633 z"
         fill="url(#paint22_linear)"
         id="path50"
         style="fill:url(#paint22_linear)" />
      <path
         opacity="0.9"
         d="m 200.507,234.942 v 38.547 l 81.657,0.964 v -38.547 z"
         fill="url(#paint23_linear)"
         id="path52"
         style="fill:url(#paint23_linear)" />
      <path
         opacity="0.2"
         d="m 282.164,278.307 v 9.637 l -81.657,-0.964 v -9.636 z"
         fill="url(#paint24_linear)"
         id="path54"
         style="fill:url(#paint24_linear)" />
      <path
         opacity="0.9"
         d="m 493.819,228.967 11.555,6.746 c 32.355,-4.24 63.169,-13.684 88.591,-28.332 36.014,-20.815 53.732,-47.99 53.54,-75.166 l 0.192,-0.193 v 41.053 l -0.192,0.192 c -0.771,26.212 -18.681,52.617 -53.54,72.661 -25.229,14.648 -56.043,24.092 -88.591,28.332 l -44.873,-26.019 z"
         fill="url(#paint25_linear)"
         id="path56"
         style="fill:url(#paint25_linear)" />
      <path
         opacity="0.95"
         d="m 515.389,88.0795 v 38.5465 l 65.865,-0.193 V 87.8867 Z"
         fill="url(#paint26_linear)"
         id="path58"
         style="fill:url(#paint26_linear)" />
      <path
         opacity="0.9"
         d="m 460.501,209.694 51.036,-29.488 c 7.318,-2.313 14.059,-5.397 20.222,-8.866 36.206,-21.008 36.784,-54.736 0.963,-75.3586 -1.734,-0.9637 -3.467,-1.9274 -5.2,-2.6983 l 57.969,-0.1927 c 1.155,0 2.311,-0.3855 3.081,-0.771 0.771,-0.3854 1.348,-1.1564 1.348,-1.7346 l 0.193,-33.7284 c 1.733,0.9637 3.467,1.9274 5.2,2.891 70.102,40.4746 69.524,106.5816 -1.348,147.6336 -25.229,14.648 -56.043,24.092 -88.591,28.332 z"
         fill="url(#paint27_linear)"
         id="path60"
         style="fill:url(#paint27_linear)" />
      <path
         d="m 555.832,147.248 c -0.77,1.735 -1.733,3.47 -2.889,5.204 -3.659,-5.204 -8.666,-10.215 -15.214,-14.84 l -10.207,-5.975 V 93.0903 c 1.733,0.9637 3.659,1.7346 5.199,2.6983 23.881,13.8764 31.585,33.5354 23.111,51.4594 z"
         fill="url(#paint28_linear)"
         id="path62"
         style="fill:url(#paint28_linear)" />
      <path
         d="m 505.374,274.067 v -38.546 l -44.873,-25.827 v 38.547 z"
         fill="url(#paint29_linear)"
         id="path64"
         style="fill:url(#paint29_linear)" />
      <path
         opacity="0.9"
         d="m 388.088,237.062 82.043,0.964 c 0,0 8.666,0.385 24.844,-1.156 v 38.546 c -15.985,1.542 -24.844,1.157 -24.844,1.157 l -82.043,-0.964 -1.733,-51.074 h 1.155 z"
         fill="url(#paint30_linear)"
         id="path66"
         style="fill:url(#paint30_linear)" />
      <path
         opacity="0.2"
         d="m 505.374,278.693 c 32.355,-4.241 63.169,-13.684 88.591,-28.332 36.014,-20.815 53.732,-47.991 53.54,-75.166 l 0.192,-0.193 v 41.052 l -0.192,-28.717 c -0.771,26.212 -18.681,52.616 -53.54,72.66 -25.229,14.648 -56.043,24.092 -88.591,28.332 z"
         fill="url(#paint31_linear)"
         id="path68"
         style="fill:url(#paint31_linear)" />
      <path
         opacity="0.2"
         d="m 388.088,280.042 82.043,0.964 c 0,0 8.666,0.385 24.844,-1.157 v 9.637 c -15.985,1.542 -24.844,1.156 -24.844,1.156 l -82.043,-0.963 z"
         fill="url(#paint32_linear)"
         id="path70"
         style="fill:url(#paint32_linear)" />
      <path
         opacity="0.9"
         d="m 388.087,237.062 -1.733,-51.074 85.894,1.156 c 5.971,-0.192 11.941,-0.963 17.911,-1.734 l -39.095,22.549 c -1.734,0.964 -1.734,2.699 0,3.662 l 43.717,25.249 c -15.985,1.541 -24.844,1.156 -24.844,1.156 z"
         fill="url(#paint33_linear)"
         id="path72"
         style="fill:url(#paint33_linear)" />
      <path
         opacity="0.9"
         d="m 450.294,208.73 c -0.578,-0.963 -0.385,-1.927 0.963,-2.698 l 34.666,-20.044 c 1.541,-0.193 2.889,-0.386 4.43,-0.578 l -39.096,22.55 c -0.578,0.192 -0.77,0.385 -0.963,0.77 z"
         fill="url(#paint34_radial)"
         id="path74"
         style="fill:url(#paint34_radial-0)" />
      <path
         opacity="0.9"
         d="m 388.088,235.135 82.043,0.963 c 0,0 7.703,0.386 21.955,-0.963 l 2.889,1.734 c -15.985,1.542 -24.844,1.157 -24.844,1.157 l -82.043,-0.964 z"
         fill="url(#paint35_radial)"
         id="path76"
         style="fill:url(#paint35_radial-8)" />
      <path
         opacity="0.95"
         d="m 334.74,103.498 c -1.733,-0.964 -4.429,-0.964 -6.162,0 l -41.407,23.899 c 0,-0.386 0,-0.579 0.193,-0.964 3.466,-23.899 21.184,-47.4124 52.961,-65.7221 66.251,-38.354 170.826,-41.0523 241.314,-8.0948 l -0.193,35.463 -65.865,0.1927 c -35.244,-12.1422 -82.043,-9.2512 -112.857,8.4803 -15.022,8.6729 -23.688,19.4659 -26.577,30.6449 z"
         fill="url(#paint36_linear)"
         id="path78"
         style="fill:url(#paint36_linear)" />
      <path
         d="m 375.762,127.204 -41.214,-23.706 c -1.733,-0.964 -4.43,-0.964 -6.163,0 l -41.406,23.899 c 0,-0.385 0,-0.578 0.192,-0.964 0,-0.192 0.193,-0.578 0.193,-0.771 l 41.021,-23.706 c 1.733,-0.964 4.622,-0.964 6.163,0 l 41.214,23.706 z"
         fill="#ffffff"
         id="path80" />
      <path
         d="m 375.762,125.662 c 2.696,-11.178 11.555,-21.972 26.577,-30.6445 30.814,-17.7315 77.613,-20.6225 112.857,-8.4803 l 65.865,-0.1928 0.193,-33.9211 -0.193,35.463 -65.865,0.1928 c -35.244,-12.1423 -82.043,-9.2513 -112.857,8.4802 -15.022,8.6727 -23.688,19.4657 -26.577,30.6447 z"
         fill="#ffffff"
         id="path82" />
      <path
         opacity="0.2"
         d="m 375.762,170.184 c 2.697,-11.179 11.556,-21.972 26.578,-30.645 30.814,-17.731 77.613,-20.622 112.856,-8.48 v 9.637 c -35.243,-12.142 -82.042,-9.251 -112.856,8.48 -15.022,8.673 -23.689,19.466 -26.578,30.645 z"
         fill="url(#paint37_linear)"
         id="path84"
         style="fill:url(#paint37_linear)" />
      <path
         opacity="0.95"
         d="m 134.449,363.496 c 1.156,0 2.311,-0.386 3.082,-0.771 0.77,-0.386 1.348,-1.157 1.348,-1.735 l 0.192,-32.957 c 35.822,18.309 91.095,17.538 125.761,-2.506 6.162,-3.469 11.17,-7.516 15.214,-11.564 l 51.421,-29.681 44.488,25.634 c -7.126,18.888 -23.303,36.812 -48.725,51.46 -69.332,40.088 -181.418,40.859 -251.5202,2.12 z"
         fill="url(#paint38_linear)"
         id="path86"
         style="fill:url(#paint38_linear)" />
      <path
         d="m 326.074,360.219 c 24.844,-14.262 40.829,-31.801 48.147,-50.111 l 1.541,0.964 c -7.126,18.888 -23.303,36.812 -48.725,51.46 -69.332,40.089 -181.418,40.859 -251.5205,2.12 h 3.274 c 70.4875,36.427 179.2995,34.885 247.2835,-4.433 z"
         fill="#ffffff"
         id="path88" />
      <g
         opacity="0.9"
         id="g96">
        <path
           opacity="0.9"
           d="m 327.037,361.568 c 25.422,-14.647 41.599,-32.572 48.725,-51.46 v 38.547 c -7.126,18.888 -23.303,36.812 -48.725,51.46 -69.332,40.089 -181.418,40.859 -251.5205,2.12 v -38.547 c 70.1025,38.74 182.1885,37.969 251.5205,-2.12 z"
           fill="url(#paint39_linear)"
           id="path90"
           style="fill:url(#paint39_linear)" />
        <path
           opacity="0.2"
           d="m 20.2442,331.502 c -0.3851,25.441 15.0219,50.882 46.6064,70.926 v 9.637 C 35.0735,392.02 19.6665,366.387 20.2442,340.753 l -0.1926,-0.385 v -8.866 z"
           fill="url(#paint40_linear)"
           id="path92"
           style="fill:url(#paint40_linear)" />
        <path
           opacity="0.2"
           d="m 327.037,405.319 c 25.422,-14.648 41.599,-32.572 48.725,-51.46 v 9.637 c -7.126,18.887 -23.303,36.812 -48.725,51.459 -69.332,40.089 -181.418,40.86 -251.5205,2.12 v -9.636 c 70.1025,38.739 182.1885,37.968 251.5205,-2.12 z"
           fill="url(#paint41_linear)"
           id="path94"
           style="fill:url(#paint41_linear)" />
      </g>
      <path
         opacity="0.2"
         d="m 532.721,138.383 c 7.511,4.433 13.481,9.444 17.911,14.648 -1.156,1.541 -2.311,3.083 -3.659,4.625 -3.852,-3.854 -8.474,-7.324 -14.252,-10.6 -1.733,-0.964 -3.466,-1.927 -5.2,-2.698 v -8.673 c 1.734,0.771 3.659,1.734 5.2,2.698 z"
         fill="url(#paint42_linear)"
         id="path98"
         style="fill:url(#paint42_linear)" />
      <path
         opacity="0.95"
         d="m 328.385,103.498 c 0.771,-0.578 1.926,-0.771 3.082,-0.771 v 38.354 l -44.296,23.706 -0.192,-37.583 z"
         fill="url(#paint43_linear)"
         id="path100"
         style="fill:url(#paint43_linear)" />
      <path
         opacity="0.95"
         d="m 334.355,103.498 c -0.77,-0.578 -1.926,-0.771 -3.081,-0.771 v 38.354 l 44.295,23.706 0.193,-37.583 z"
         fill="url(#paint44_linear)"
         id="path102"
         style="fill:url(#paint44_linear)" />
      <path
         opacity="0.9"
         d="m 559.106,133.371 c -0.385,-13.298 -9.051,-26.404 -26.384,-36.4262 -1.734,-0.9636 -3.467,-1.9273 -5.2,-2.6982 h 3.081 c 0.771,0.3854 1.348,0.7709 2.119,1.1564 18.103,10.215 26.962,24.092 26.384,37.968 z"
         fill="url(#paint45_linear)"
         id="path104"
         style="fill:url(#paint45_linear)" />
      <path
         d="m 505.374,234.942 c 32.355,-4.24 63.169,-13.684 88.591,-28.332 35.051,-20.237 52.962,-46.834 53.539,-73.238 0.193,26.982 -17.718,54.35 -53.539,74.973 -25.229,14.648 -56.043,24.092 -88.591,28.332 l -44.873,-26.019 1.541,-0.771 z"
         fill="url(#paint46_radial)"
         id="path106"
         style="fill:url(#paint46_radial-6)" />
      <path
         d="m 282.164,235.906 -80.502,-1.927 -45.451,-24.67 44.103,26.597 z"
         fill="#ffffff"
         id="path108" />
      <path
         opacity="0.95"
         d="m 291.601,290.449 c -0.386,3.855 -1.349,7.71 -3.082,11.372 0,0 1.926,-5.012 1.926,-16.768 0,-16.961 -3.274,-111.978 -3.274,-111.978 v -38.547 z"
         fill="url(#paint47_linear)"
         id="path110"
         style="fill:url(#paint47_linear)" />
      <path
         opacity="0.9"
         d="m 108.449,288.522 c -0.385,-13.877 8.474,-28.139 26.962,-38.739 14.252,-8.288 32.355,-13.299 50.844,-14.841 l 2.889,1.735 c -19.644,1.349 -38.711,6.553 -53.733,15.226 -17.525,10.022 -26.577,23.321 -26.962,36.619 z"
         fill="#ffffff"
         id="path112" />
      <path
         opacity="0.9"
         d="m 145.811,209.309 c -0.577,-0.964 -0.385,-2.12 0.963,-2.699 l 35.822,-20.815 c 1.155,0 2.503,-0.192 3.659,-0.192 l -39.673,22.935 c -0.193,0.193 -0.578,0.385 -0.771,0.771 z"
         fill="#ffffff"
         id="path114" />
      <path
         opacity="0.9"
         d="m 66.8501,357.714 63.3619,-0.193 0.192,-33.729 -0.192,35.656 -63.3619,0.193 C 35.8434,340.175 20.4364,315.312 20.2438,290.257 c 0.9629,24.284 16.37,48.376 46.6063,67.457 z"
         fill="#ffffff"
         id="path116" />
      <path
         opacity="0.9"
         d="m 334.548,278.886 c -1.733,-0.964 -4.429,-0.964 -6.162,0 l -39.674,22.935 c 1.734,-4.626 2.889,-9.637 2.697,-14.262 l -4.237,-153.031 44.295,-25.633 43.91,25.44 4.43,155.344 c -0.193,4.818 -0.963,9.636 -2.119,14.262 z"
         fill="url(#paint48_linear)"
         id="path118"
         style="fill:url(#paint48_linear)" />
      <path
         d="m 328.193,277.536 c 1.733,-0.963 4.429,-0.963 6.163,0 l 43.332,25.056 c 1.156,-4.626 1.926,-9.252 2.119,-13.877 v 0.963 c -0.193,4.819 -0.963,9.637 -2.119,14.263 l -43.332,-25.056 c -1.734,-0.963 -4.43,-0.963 -6.163,0 l -39.673,22.936 c 0.385,-0.578 0.578,-1.349 0.77,-1.928 z"
         fill="#ffffff"
         id="path120" />
      <path
         d="m 386.547,185.988 v 38.546 l 1.541,51.075 v -38.547 z"
         fill="url(#paint49_linear)"
         id="path122"
         style="fill:url(#paint49_linear)" />
      <path
         d="m 56.836,355.979 1.1555,-1.927 C 22.5553,333.622 2.91125,306.254 2.91125,277.151 c 0,-29.295 19.83655,-57.049 55.85065,-77.864 35.051,-20.237 81.4651,-31.801 131.1531,-32.379 l 86.472,0.578 v -2.313 l -86.472,-0.578 C 139.842,165.366 93.0426,176.93 57.6063,197.359 20.8219,218.56 0.600159,246.892 0.600159,277.151 c 0,29.874 19.836641,58.013 56.235841,78.828 z"
         fill="url(#paint50_radial)"
         id="path124"
         style="fill:url(#paint50_radial-9)" />
      <path
         d="M 613.416,191.384 C 650.586,169.798 671,141.274 671,110.822 671,80.9481 651.163,53.0017 614.957,32.1865 540.04,-10.9858 417.554,-10.6003 341.867,33.1502 l 1.155,1.9273 c 75.11,-43.36504 196.633,-43.75051 270.779,-0.9637 35.437,20.4298 54.888,47.798 54.888,76.7082 0,29.488 -20.029,57.434 -56.428,78.442 z"
         fill="url(#paint51_radial)"
         id="path126"
         style="fill:url(#paint51_radial-1)" />
      <path
         d="m 483.419,173.846 c 23.881,-0.964 46.607,-7.131 63.747,-16.961 l -1.156,-1.927 c -16.562,9.637 -38.517,15.419 -61.628,16.575 l -0.77,-0.193 -101.302,-1.156 v 2.313 l 100.146,1.156 z"
         fill="url(#paint52_radial)"
         id="path128"
         style="fill:url(#paint52_radial-1)" />
      <path
         d="m 192.803,329.189 c 25.422,0 50.651,-5.59 70.102,-16.768 17.718,-10.215 27.925,-23.706 29.274,-38.354 h -0.193 l 0.385,-0.578 -2.311,-1.349 -0.193,1.734 c -1.155,13.684 -11.17,26.597 -28.117,36.427 -37.94,21.971 -99.376,21.971 -137.123,0.193 l -1.156,1.927 c 19.066,11.178 44.103,16.768 69.332,16.768 z"
         fill="url(#paint53_radial)"
         id="path130"
         style="fill:url(#paint53_radial-9)" />
    </g>
  </g>
</svg>
