<svg width="276" height="268" viewBox="0 0 276 268" fill="none" xmlns="http://www.w3.org/2000/svg">
<path d="M5.27578 213.736L118.924 147.287L181.761 183.467L62.8962 253.429L6.52913 219.952C4.63217 218.871 3.37881 214.851 5.27578 213.736Z" fill="#E8EFFA"/>
<path d="M193.482 190.055L110.557 142.322V47.4293L193.482 95.1626V190.055Z" fill="#BFCEE5"/>
<path d="M172.378 138.369V107.594L127.901 81.9877V119.08L123.972 116.31L124.886 76.3124L176.409 106.446L175.867 140.362L172.378 138.369Z" fill="#1B488C"/>
<path d="M181.761 161.78V183.332L164.079 173.164C164.079 173.164 165.671 160.192 167.229 160.192C168.754 160.124 181.761 161.78 181.761 161.78Z" fill="#678EC9"/>
<path opacity="0.4" d="M63.356 184.963C73.4383 184.333 81.3576 179.777 81.0442 174.787C80.7308 169.797 72.3035 166.262 62.2212 166.892C52.1389 167.522 44.2196 172.077 44.533 177.068C44.8463 182.058 53.2737 185.592 63.356 184.963Z" fill="#A8C0E5"/>
<path d="M52.3951 174.921L49.8884 167.185C49.4141 166.442 47.9575 165.462 46.8058 165.057C46.2977 164.888 45.7218 165.09 45.4508 165.53L44.8411 166.509C43.9265 167.894 43.9265 168.164 44.5701 169.178L48.364 175.09C49.0077 176.069 50.3626 176.846 51.3789 176.813H51.6837C52.7 176.745 53.0387 175.9 52.3951 174.921Z" fill="#174891"/>
<path d="M78.2411 172.151L71.3646 167.827C70.5178 167.556 68.7563 167.759 67.6384 168.164C67.1303 168.333 66.8254 168.874 66.9271 169.414L67.0964 170.563C67.2997 172.218 67.4691 172.421 68.6208 172.759L75.3279 174.853C76.4458 175.191 78.004 174.921 78.7492 174.245L78.9525 174.042C79.6639 173.333 79.359 172.489 78.2411 172.151Z" fill="#174891"/>
<path d="M5.27574 222.62C3.17553 222.62 1.44794 220.897 1.44794 218.803V183.164C1.44794 181.069 3.17553 179.346 5.27574 179.346C7.37596 179.346 9.10355 181.069 9.10355 183.164V218.803C9.10355 220.897 7.37596 222.62 5.27574 222.62Z" fill="#A7C6F5"/>
<path d="M172.378 147.862L127.901 132.897V81.9878L172.378 107.594V147.862Z" fill="url(#paint0_linear)"/>
<path d="M193.482 190.055L276 142.626V47.7333L193.482 95.1626V190.055Z" fill="#6D91C7"/>
<path d="M193.38 95.1964L110.456 47.4293L192.872 0L261.095 39.2879L275.797 47.7333L193.38 95.1964Z" fill="#D4E5FF"/>
<path d="M63.5397 229.816L181.761 161.78L119.67 126.208L1.44794 194.278L63.5397 229.816Z" fill="#6D91C7"/>
<path d="M63.5397 229.816L65.6738 213.398L5.27574 179.38L1.44794 194.278L63.5397 229.816Z" fill="#A7C6F5"/>
<path d="M127.901 112.898L154.73 97.4597L127.901 81.9878V112.898Z" fill="#88B0EB"/>
<path d="M15.1671 191.812L1.44794 176.238L181.761 143.74V161.78L15.1671 191.812Z" fill="#6D91C7"/>
<path d="M63.1672 212.013L181.762 143.74L119.67 108.202L0.0930176 176.711L63.1672 212.013Z" fill="#A7C6F5"/>
<path d="M12.1184 182.353L127.901 112.898L172.378 138.369L54.5292 206.642C46.7381 211.135 49.2448 221.641 49.2448 221.641L14.93 201.98C4.97094 196.575 7.91802 185.19 12.1184 182.353Z" fill="url(#paint1_linear)"/>
<path d="M64.3187 256.402C62.2185 256.402 60.4909 254.679 60.4909 252.585V216.945C60.4909 214.851 62.2185 213.128 64.3187 213.128C66.419 213.128 68.1465 214.851 68.1465 216.945V252.585C68.1127 254.679 66.419 256.402 64.3187 256.402Z" fill="#A7C6F5"/>
<path opacity="0.4" d="M65.911 196.136L96.0253 178.806L65.911 161.476L35.8305 178.806L65.911 196.136Z" fill="#517EC2"/>
<path opacity="0.4" d="M116.79 166.712L146.905 149.382L116.79 132.052L86.6759 149.382L116.79 166.712Z" fill="#517EC2"/>
<path d="M96.4318 127.559L87.9971 120.735L111.099 106.851L119.975 114.013L96.4318 127.559Z" fill="#BD878D"/>
<path d="M143.45 127.559L151.918 120.735L128.816 106.851L119.941 114.013L143.45 127.559Z" fill="#BD878D"/>
<path d="M119.873 153.976L143.314 140.464V127.39L119.873 126.985V153.976Z" fill="#946A6E"/>
<path d="M96.3979 140.464L119.873 153.976V126.985L96.3979 127.39V140.464Z" fill="#755457"/>
<path d="M119.941 140.937L143.45 127.39L119.941 113.844L96.3979 127.39L119.941 140.937Z" fill="#946A6E"/>
<path d="M119.941 140.937L119.433 133.505L119.941 113.844L96.3979 127.39L119.941 140.937Z" fill="#785659"/>
<path d="M119.873 140.937L131.627 134.147L119.873 127.39L108.118 134.147L119.873 140.937Z" fill="#613F43"/>
<path d="M122.413 142.997L137.996 134.417C138.639 134.079 138.91 133.572 138.809 133.032L138.538 129.958C138.538 129.958 136.573 130.025 134.473 129.687L121.025 122.019C119.331 121.039 116.858 120.836 115.537 121.58L102.868 128.539C100.429 128.471 98.8029 128.201 98.8029 128.201L99.0062 131.545C99.0739 132.12 99.582 132.728 100.598 133.302L116.858 142.592C118.619 143.571 121.092 143.74 122.413 142.997Z" fill="#B39512"/>
<path d="M99.7175 127.019L115.3 118.438C116.621 117.695 119.094 117.898 120.821 118.877L137.081 128.167C138.775 129.147 139.08 130.532 137.758 131.275L122.176 139.856C120.855 140.599 118.382 140.396 116.655 139.416L100.395 130.126C98.6674 129.113 98.3626 127.728 99.7175 127.019Z" fill="#CEFF2C"/>
<path d="M119.873 160.361L143.314 146.848V133.741L119.873 140.937V160.361Z" fill="#946A6E"/>
<path d="M96.3979 146.848L119.873 160.361L119.941 140.937L96.3979 133.741V146.848Z" fill="#755457"/>
<path d="M143.45 127.39L151.884 134.214L128.816 148.098L119.941 140.937L143.45 127.39Z" fill="#BD878D"/>
<path d="M96.4318 127.39L87.9971 134.214L111.066 148.098L119.975 140.937L96.4318 127.39Z" fill="#BD878D"/>
<path d="M43.893 158.03L35.4583 151.206L58.5268 137.288L67.4019 144.484L43.893 158.03Z" fill="#BD878D"/>
<path d="M90.9101 158.03L99.3449 151.206L76.2764 137.288L67.3674 144.484L90.9101 158.03Z" fill="#BD878D"/>
<path d="M67.2997 184.447L90.7747 170.935V157.861L67.2997 157.422V184.447Z" fill="#946A6E"/>
<path d="M43.8585 170.935L67.2996 184.447V157.422L43.8585 157.861V170.935Z" fill="#755457"/>
<path d="M67.3673 171.374L90.91 157.861L67.3673 144.315L43.8585 157.861L67.3673 171.374Z" fill="#946A6E"/>
<path d="M67.3673 171.374L66.8931 161.138L67.3673 144.315L43.8585 157.861L67.3673 171.374Z" fill="#785659"/>
<path d="M67.2996 171.374L79.054 164.617L67.2996 157.861L55.5452 164.617L67.2996 171.374Z" fill="#613F43"/>
<path d="M69.8741 173.468L85.4563 164.888C86.0999 164.55 86.3709 164.043 86.2693 163.503L85.9983 160.428C85.9983 160.428 84.0336 160.496 81.9334 160.158L68.4852 152.49C66.7915 151.51 64.3187 151.307 62.9976 152.051L50.3285 159.01C47.8896 158.942 46.2636 158.672 46.2636 158.672L46.4669 162.016C46.5346 162.591 47.0427 163.199 48.059 163.773L64.3187 173.063C66.0463 174.042 68.5191 174.211 69.8741 173.468Z" fill="#C740C0"/>
<path d="M47.1445 157.456L62.7267 148.875C64.0478 148.132 66.5206 148.335 68.2482 149.314L84.5079 158.604C86.2016 159.584 86.5065 160.969 85.1854 161.712L69.6032 170.293C68.2821 171.036 65.8092 170.833 64.0817 169.854L47.8219 160.564C46.1282 159.584 45.8233 158.199 47.1445 157.456Z" fill="#5BDFF7"/>
<path d="M67.2997 190.798L90.7747 177.285V164.212L67.2997 171.374V190.798Z" fill="#946A6E"/>
<path d="M43.8585 177.285L67.2996 190.798L67.3673 171.374L43.8585 164.212V177.285Z" fill="#755457"/>
<path d="M90.9101 157.861L99.3449 164.651L76.2425 178.569L67.3674 171.374L90.9101 157.861Z" fill="#BD878D"/>
<path d="M43.8924 157.861L35.4238 164.651L58.5262 178.569L67.4013 171.374L43.8924 157.861Z" fill="#BD878D"/>
<path d="M211.842 103.54L211.808 96.7503C211.808 94.7234 213.061 92.3587 214.654 91.4466L243.142 75.4004C243.21 75.3666 243.311 75.2991 243.379 75.2653L248.528 72.3601C248.934 72.1236 249.307 72.0222 249.646 72.0222C250.696 71.9885 251.407 72.9006 251.441 74.4207L251.78 132.626C251.78 132.829 251.78 133.065 251.746 133.302L251.78 140.227C251.78 142.254 250.526 144.619 248.934 145.531L220.446 161.577C220.378 161.611 220.277 161.678 220.209 161.712L215.06 164.617C213.468 165.496 212.181 164.584 212.181 162.557L211.842 111.141L211.808 104.351C211.808 104.115 211.808 103.844 211.842 103.608V103.54Z" fill="#3B70BF"/>
<path d="M63.7429 153.368L71.5679 153.638L71.9744 158.435L70.3145 158.368L70.0436 155.226L63.8784 154.99L63.7429 153.368Z" fill="white"/>
<path d="M56.6633 157.625L58.3231 157.692L58.5941 160.8L64.827 161.037L64.9625 162.658L57.0359 162.388L56.6633 157.625Z" fill="white"/>
<path d="M58.3231 156.949L58.6279 155.429L69.7726 159.179L69.5016 160.699L58.3231 156.949Z" fill="white"/>
<path d="M112.285 126.444L112.014 126.579C111.438 126.917 111.506 127.12 112.353 127.593C113.166 128.066 113.979 128.471 114.927 128.978C116.079 129.654 116.214 130.093 115.672 130.566L115.74 130.599C116.621 130.329 117.4 130.397 118.585 131.039C119.534 131.579 120.211 132.018 121.024 132.491C121.871 132.964 122.244 133.032 122.854 132.694L123.125 132.559L124.31 133.234L123.43 133.707C122.21 134.383 121.126 134.383 119.466 133.437C118.382 132.829 117.942 132.424 116.993 131.849C116.451 131.545 115.605 131.376 114.656 131.849L113.335 131.106C114.216 130.599 113.945 130.093 113.403 129.789C112.42 129.248 111.743 128.978 110.625 128.37C108.965 127.424 108.999 126.816 110.219 126.14L111.099 125.667L112.285 126.444Z" fill="#091E42"/>
<path d="M115.435 123.336L116.316 122.863C117.535 122.188 118.619 122.188 120.279 123.134C121.363 123.742 121.804 124.147 122.752 124.721C123.294 125.025 124.141 125.194 125.089 124.721L126.41 125.465C125.53 125.971 125.801 126.478 126.343 126.782C127.325 127.323 128.003 127.593 129.12 128.201C130.78 129.147 130.746 129.755 129.527 130.43L128.646 130.903L127.461 130.228L127.732 130.093C128.307 129.755 128.24 129.552 127.393 129.079C126.58 128.606 125.767 128.201 124.818 127.694C123.667 127.019 123.531 126.579 124.073 126.106L124.005 126.073C123.125 126.343 122.346 126.275 121.16 125.634C120.211 125.093 119.534 124.654 118.721 124.181C117.874 123.708 117.501 123.64 116.892 123.978L116.621 124.113L115.435 123.336Z" fill="#091E42"/>
<path d="M217.906 159.077L246.394 143.031C247.986 142.153 249.274 139.754 249.24 137.727L248.901 79.5217C248.901 77.4948 247.58 76.5827 246.022 77.4611L217.533 93.5073C215.941 94.3856 214.654 96.7841 214.688 98.811L215.027 157.017C215.027 159.043 216.314 159.956 217.906 159.077Z" fill="#1A50A1"/>
<path d="M214.687 105.601L214.653 98.811C214.653 96.7841 215.907 94.4194 217.499 93.5073L245.987 77.4611C247.579 76.5827 248.867 77.4948 248.867 79.5217L248.9 86.3118L214.687 105.601Z" fill="#1B498F"/>
<path d="M236.401 97.4935L240.059 95.4329C240.093 95.4329 240.093 95.4329 240.127 95.3991L243.345 93.6087C244.09 93.2033 244.7 93.6087 244.7 94.5883C244.7 95.5342 244.124 96.649 243.379 97.0544L239.721 99.1151C239.687 99.1151 239.687 99.1151 239.653 99.1488L236.435 100.939C235.689 101.345 235.08 100.939 235.08 99.9596C235.08 99.0137 235.656 97.8989 236.401 97.4935Z" fill="#CEFF2C"/>
<path d="M237.146 139.518L240.804 137.457C240.838 137.457 240.838 137.457 240.872 137.423L244.09 135.633C244.836 135.227 245.445 135.633 245.445 136.613C245.445 137.558 244.836 138.673 244.124 139.079L240.466 141.139C240.432 141.139 240.432 141.139 240.398 141.173L237.18 142.963C236.435 143.369 235.825 142.963 235.825 141.984C235.791 141.038 236.401 139.923 237.146 139.518Z" fill="#CEFF2C"/>
<path d="M234.707 110.026L240.229 106.919C240.804 106.581 241.279 105.702 241.279 104.959C241.279 104.216 240.804 103.878 240.195 104.182L234.673 107.29C234.097 107.628 233.623 108.506 233.623 109.249C233.623 110.026 234.131 110.364 234.707 110.026Z" fill="white"/>
<path d="M225.493 115.398L231.015 112.29C231.591 111.952 232.065 111.074 232.065 110.331C232.065 109.587 231.591 109.249 230.981 109.554L225.459 112.661C224.884 112.999 224.409 113.878 224.409 114.621C224.443 115.364 224.917 115.736 225.493 115.398Z" fill="white"/>
<path d="M229.592 137.39L235.114 134.282C235.689 133.944 236.164 133.065 236.164 132.322C236.164 131.579 235.689 131.241 235.08 131.545L229.558 134.653C228.982 134.991 228.508 135.869 228.508 136.613C228.508 137.39 229.016 137.727 229.592 137.39Z" fill="white"/>
<path d="M230.405 128.268L235.927 125.161C236.502 124.823 236.977 123.944 236.977 123.201C236.977 122.458 236.502 122.12 235.893 122.424L230.371 125.532C229.795 125.87 229.321 126.748 229.321 127.492C229.321 128.235 229.829 128.573 230.405 128.268Z" fill="#94B7EB"/>
<path d="M225.629 123.303L235.791 117.594C236.367 117.256 236.841 116.377 236.841 115.634C236.841 114.891 236.367 114.553 235.757 114.857L225.595 120.566C225.019 120.904 224.545 121.782 224.545 122.526C224.579 123.269 225.053 123.607 225.629 123.303Z" fill="#94B7EB"/>
<path d="M234.978 134.349L240.5 131.241C241.075 130.903 241.55 130.025 241.55 129.282C241.55 128.539 241.075 128.201 240.466 128.505L234.944 131.613C234.368 131.951 233.894 132.829 233.894 133.572C233.928 134.349 234.402 134.687 234.978 134.349Z" fill="white"/>
<path d="M218.854 125.194C219.023 124.519 219.26 124.215 219.735 123.911L222.377 122.424C222.953 122.086 223.461 122.424 223.461 123.201C223.461 123.944 222.986 124.823 222.411 125.161L219.667 126.715C218.549 127.492 218.684 125.769 218.854 125.194Z" fill="#94B7EB"/>
<path d="M242.634 84.3187C242.668 85.366 243.413 85.8051 244.361 85.2646C245.31 84.7241 246.055 83.4404 246.021 82.3932C245.987 81.3459 245.242 80.9068 244.294 81.4473C243.345 81.9878 242.6 83.2715 242.634 84.3187Z" fill="#CEFF2C"/>
<path d="M233.183 89.8589C233.217 90.9061 233.962 91.3453 234.91 90.8048C235.859 90.2642 236.604 88.9806 236.57 87.9333C236.536 86.8861 235.791 86.447 234.843 86.9875C233.894 87.528 233.149 88.8117 233.183 89.8589Z" fill="#CEFF2C"/>
<path d="M237.993 87.1226C238.027 88.1698 238.772 88.609 239.721 88.0685C240.669 87.528 241.414 86.2443 241.38 85.197C241.347 84.1498 240.601 83.7107 239.653 84.2512C238.704 84.7917 237.959 86.0754 237.993 87.1226Z" fill="#CEFF2C"/>
<path d="M58.4246 178.806L44.0958 170.191" stroke="#63474A" stroke-miterlimit="10" stroke-linecap="round" stroke-linejoin="round"/>
<path d="M111.133 148.335L96.8382 139.72" stroke="#63474A" stroke-miterlimit="10" stroke-linecap="round" stroke-linejoin="round"/>
<path d="M193.279 97.6962L110.761 50.5034" stroke="#C9DBF5" stroke-width="2" stroke-miterlimit="10" stroke-linecap="round" stroke-linejoin="round"/>
<path d="M178.679 104.757L178.238 139.214" stroke="#003E9C" stroke-miterlimit="10" stroke-linecap="round" stroke-linejoin="round"/>
<path d="M196.023 97.257V185.055" stroke="#6F93C9" stroke-miterlimit="10" stroke-linecap="round" stroke-linejoin="round"/>
<path d="M84.4675 214.287C85.8366 211.952 85.8467 209.417 84.49 208.626C83.1333 207.835 80.9237 209.087 79.5545 211.423C78.1854 213.758 78.1754 216.293 79.532 217.084C80.8887 217.875 83.0984 216.623 84.4675 214.287Z" stroke="#426DAD" stroke-miterlimit="10" stroke-linecap="round" stroke-linejoin="round"/>
<path d="M80.1381 213.905C80.1381 215.087 80.985 215.56 82.0012 214.952C83.0175 214.344 83.8643 212.925 83.8643 211.743C83.8643 210.56 83.0175 210.087 82.0012 210.695C80.985 211.304 80.1381 212.756 80.1381 213.905Z" stroke="#426DAD" stroke-miterlimit="10" stroke-linecap="round" stroke-linejoin="round"/>
<path d="M128.138 185.461C128.138 186.643 128.985 187.116 130.001 186.508C131.018 185.9 131.864 184.481 131.864 183.299C131.864 182.116 131.018 181.643 130.001 182.251C128.985 182.859 128.138 184.278 128.138 185.461Z" stroke="#426DAD" stroke-miterlimit="10" stroke-linecap="round" stroke-linejoin="round"/>
<path d="M132.459 185.876C133.828 183.541 133.838 181.006 132.481 180.215C131.124 179.424 128.915 180.677 127.546 183.012C126.177 185.347 126.166 187.882 127.523 188.673C128.88 189.464 131.09 188.212 132.459 185.876Z" stroke="#426DAD" stroke-miterlimit="10" stroke-linecap="round" stroke-linejoin="round"/>
<path d="M180.813 147.659L67.3674 214.715C67.3674 214.715 68.1127 214.411 68.1127 218.195C68.1127 221.978 68.1127 226.674 68.1127 226.674" stroke="#426DAD" stroke-miterlimit="10" stroke-linecap="round" stroke-linejoin="round"/>
<path d="M172.378 137.288V107.594L154.73 97.4597" stroke="#A7C6F5" stroke-miterlimit="10" stroke-linecap="round" stroke-linejoin="round"/>
<path opacity="0.4" d="M43.8587 177.286L67.2998 190.798" stroke="#2A518C" stroke-miterlimit="10" stroke-linecap="round" stroke-linejoin="round"/>
<path d="M119.873 160.361L109.88 154.584" stroke="#2A518C" stroke-miterlimit="10" stroke-linecap="round" stroke-linejoin="round"/>
<path d="M66.7577 143.943L43.486 157.422" stroke="#DE9EA6" stroke-miterlimit="10" stroke-linecap="round" stroke-linejoin="round"/>
<path d="M119.06 113.607L95.7882 127.12" stroke="#DE9EA6" stroke-miterlimit="10" stroke-linecap="round" stroke-linejoin="round"/>
<path d="M68.1128 246.166C68.1128 246.166 67.0288 248.396 64.285 248.396C61.575 248.396 60.4572 246.47 60.4572 246.47" stroke="#426DAD" stroke-miterlimit="10" stroke-linecap="round" stroke-linejoin="round"/>
<path d="M9.20506 211.743C9.20506 211.743 8.12108 213.972 5.37725 213.972C2.6673 213.972 1.54944 212.047 1.54944 212.047" stroke="#426DAD" stroke-miterlimit="10" stroke-linecap="round" stroke-linejoin="round"/>
<path d="M47.2548 81.4332L50.7438 79.44L58.2978 97.7159L55.283 99.4387L47.2548 81.4332Z" fill="#2560B8"/>
<path d="M57.9904 97.8255C60.8459 96.7584 61.6014 91.7437 59.678 86.6248C57.7545 81.506 53.8804 78.2214 51.0249 79.2885C48.1693 80.3557 47.4138 85.3704 49.3372 90.4892C51.2607 95.608 55.1349 98.8926 57.9904 97.8255Z" fill="#2560B8"/>
<path d="M54.6732 99.747C57.5287 98.6799 58.2842 93.6652 56.3608 88.5463C54.4373 83.4275 50.5632 80.1429 47.7077 81.21C44.8521 82.2772 44.0966 87.2919 46.02 92.4107C47.9435 97.5296 51.8176 100.814 54.6732 99.747Z" fill="#367AE0"/>
<path opacity="0.39" d="M43.3592 125.451L70.1539 110.012C71.6105 109.168 71.4072 107.715 69.7474 106.736L50.7777 95.8241C49.084 94.8444 46.5434 94.7431 45.0868 95.5876L18.2921 110.992C16.8355 111.837 17.0388 113.289 18.6986 114.269L37.6683 125.18C39.3281 126.16 41.9026 126.295 43.3592 125.451Z" fill="#A7C6F5"/>
<path d="M2.26946 47.9557L12.5334 52.8877C13.448 53.3269 14.5659 52.9553 15.0062 52.0432C15.4466 51.1311 15.074 50.0163 14.1594 49.5772L3.86156 44.6451C2.94695 44.2059 1.82909 44.5775 1.38873 45.4896C0.948359 46.4355 1.35485 47.5165 2.26946 47.9557Z" fill="#091E42"/>
<path d="M26.7944 34.8822L37.0584 39.8143C37.973 40.2534 39.0908 39.8818 39.5312 38.9697C39.9716 38.0576 39.599 36.9428 38.6843 36.5037L28.4204 31.5716C27.5058 31.1324 26.3879 31.504 25.9476 32.4161C25.5072 33.3282 25.8798 34.443 26.7944 34.8822Z" fill="#091E42"/>
<path d="M18.292 103.661L45.0867 88.2232C46.5433 87.3787 49.1177 87.4801 50.7776 88.4597L65.5807 96.9727L71.1361 97.7834V101.297C71.1022 101.803 70.7973 102.276 70.1537 102.614L43.3591 118.086C41.9025 118.931 39.328 118.829 37.6682 117.85L18.6985 106.938C17.0048 105.959 16.8354 104.472 18.292 103.661Z" fill="#6493D9"/>
<path d="M18.292 103.661L39.8022 91.2974L40.6152 118.66C39.599 118.627 38.515 118.356 37.6682 117.883L18.6985 106.972C17.0048 105.959 16.8354 104.472 18.292 103.661Z" fill="#5F76CF"/>
<path d="M45.7982 95.0133C44.5787 95.0133 43.4269 93.9999 43.2576 92.7837L35.5681 38.463C35.3987 37.2469 36.2456 36.2335 37.465 36.2335C38.6845 36.2335 39.8362 37.2469 40.0056 38.463L47.6951 92.7837C47.8984 93.9999 47.0515 95.0133 45.7982 95.0133Z" fill="#94B7EB"/>
<path d="M43.3592 114.708L70.1539 99.2698C71.6105 98.4253 71.4072 96.9726 69.7474 95.993L50.7777 85.0815C49.084 84.1019 46.5434 84.0005 45.0868 84.8451L18.2921 100.283C16.8355 101.128 17.0388 102.58 18.6986 103.56L37.6683 114.471C39.3281 115.451 41.9026 115.552 43.3592 114.708Z" fill="#94B7EB"/>
<path d="M58.0945 100.52L43.0204 91.8378C42.309 91.4324 42.3768 90.6893 43.2236 90.2163C44.0705 89.7434 45.3238 89.6758 46.0691 90.115L61.1432 98.7968C61.8546 99.2022 61.7868 99.9454 60.94 100.418C60.0931 100.891 58.8059 100.959 58.0945 100.52Z" fill="#6493D9"/>
<path d="M51.3873 104.303L36.3132 95.6214C35.6018 95.216 35.6696 94.4728 36.5164 93.9999C37.3633 93.5269 38.6166 93.4594 39.3619 93.8985L54.4021 102.547C55.1135 102.952 55.0457 103.695 54.1989 104.168C53.3859 104.675 52.0987 104.742 51.3873 104.303Z" fill="#6493D9"/>
<path d="M44.206 108.357L29.1318 99.6752C28.4205 99.2698 28.4882 98.5267 29.3351 98.0537C30.1819 97.5808 31.4353 97.5132 32.1805 97.9524L47.2547 106.634C47.966 107.04 47.8983 107.783 47.0514 108.256C46.2045 108.729 44.9512 108.762 44.206 108.357Z" fill="#6493D9"/>
<path d="M16.5645 65.2856L39.3619 54.712C40.5137 54.1715 40.8863 53.5296 40.5476 52.7189C40.5476 52.7189 39.9378 51.1987 38.7861 51.7054L16.1919 62.2115C15.0401 62.752 14.1933 63.8668 14.2949 64.7113C14.4304 65.5559 15.4466 65.8261 16.5645 65.2856Z" fill="#6493D9"/>
<path d="M61.4818 99.1008L46.0689 90.115" stroke="#396FBF" stroke-miterlimit="10" stroke-linecap="round" stroke-linejoin="round"/>
<path d="M54.7408 102.783L39.2941 93.7634" stroke="#396FBF" stroke-miterlimit="10" stroke-linecap="round" stroke-linejoin="round"/>
<path d="M47.4918 106.803L32.0789 97.8173" stroke="#396FBF" stroke-miterlimit="10" stroke-linecap="round" stroke-linejoin="round"/>
<path d="M21.5101 108.425C20.2906 108.425 19.1389 107.411 18.9695 106.195L11.2462 51.8743C11.0768 50.6582 11.9237 49.6448 13.1431 49.6448C14.3626 49.6448 15.5143 50.6582 15.6837 51.8743L23.3732 106.195C23.5765 107.411 22.7296 108.425 21.5101 108.425Z" fill="#94B7EB"/>
<path d="M49.6258 80.994C49.6258 80.994 53.2842 81.4669 55.8926 87.0409" stroke="white" stroke-miterlimit="10" stroke-linecap="round" stroke-linejoin="round"/>
<path d="M52.7762 79.0346C52.7762 79.0346 57.3154 79.6089 59.8898 87.176" stroke="#396FBF" stroke-miterlimit="10" stroke-linecap="round" stroke-linejoin="round"/>
<path d="M42.9864 73.3593C42.9864 73.3593 41.1571 77.9874 35.2291 80.0143" stroke="white" stroke-width="1.1662" stroke-miterlimit="10" stroke-linecap="round" stroke-linejoin="round"/>
<path d="M42.004 91.0947L59.822 80.8589L42.1395 70.6568L24.1522 80.8926L42.004 91.0947Z" fill="#BD878D"/>
<path d="M46.611 88.4259L64.4289 78.1901L46.7126 67.9881L28.7253 78.2239L46.611 88.4259Z" fill="#BD878D"/>
<path d="M42.004 91.0946L42.3427 111.532L59.8219 101.229V80.8588L42.004 91.0946Z" fill="#946A6E"/>
<path d="M46.6448 88.4259H46.611V108.83L64.4289 98.5604V78.1901L46.6448 88.4259Z" fill="#946A6E"/>
<path d="M42.004 91.0946L24.1522 80.8926V100.655L42.3428 111.532L42.004 91.0946Z" fill="#755457"/>
<path d="M53.6229 72.0757L32.0787 85.4193" stroke="#755457" stroke-miterlimit="10" stroke-linecap="round" stroke-linejoin="round"/>
<path d="M51.0484 81.3994C50.4048 81.0278 50.8452 80.3859 51.7598 80.4197C52.776 80.4197 53.6229 79.9468 53.6229 79.3725V79.0684C53.6229 78.4941 52.776 77.9874 51.7598 77.9874C50.8452 77.9874 50.4048 77.3456 51.0484 76.974C51.7598 76.5686 51.7598 75.8929 51.0484 75.4538L50.6758 75.2511C49.9644 74.8457 48.7788 74.8457 48.0675 75.2511C47.4239 75.6227 46.3399 75.3524 46.3399 74.8457C46.3399 74.2714 45.493 73.7647 44.4768 73.7647H43.9348C42.9186 73.7647 42.0717 74.2377 42.0717 74.812C42.0717 75.3187 40.9877 75.5889 40.3441 75.2173C39.6327 74.8119 38.4471 74.8119 37.7358 75.2173L37.3632 75.42C36.6518 75.8254 36.6518 76.501 37.3632 76.9402C38.0068 77.3118 37.5664 77.9536 36.6518 77.9198C35.6356 77.9198 34.7887 78.3928 34.7887 78.9671V79.2711C34.7887 79.8454 35.6356 80.3521 36.6518 80.3521C37.5664 80.3521 38.0068 80.994 37.3632 81.3656C36.6518 81.7709 36.6518 82.4466 37.3632 82.8857L37.7358 83.0884C38.4471 83.4938 39.6327 83.4938 40.3441 83.0884C40.9877 82.7168 42.0717 82.9871 42.0717 83.4938C42.0717 84.0681 42.9186 84.5748 43.9348 84.5748H44.4768C45.493 84.5748 46.3399 84.1019 46.3399 83.5276C46.3399 83.0209 47.4239 82.7506 48.0675 83.1222C48.7788 83.5276 49.9644 83.5276 50.6758 83.1222L51.0484 82.9195C51.7937 82.4804 51.7937 81.8047 51.0484 81.3994ZM40.9538 81.0277C39.1585 79.9805 39.1585 78.3252 40.92 77.278C42.7153 76.2308 45.6285 76.2646 47.4239 77.278C49.2192 78.3252 49.2192 79.9805 47.4577 81.0277C45.6624 82.075 42.7492 82.075 40.9538 81.0277Z" fill="white"/>
<path d="M42.004 91.0946L42.3088 111.228" stroke="#63474A" stroke-miterlimit="10" stroke-linecap="round" stroke-linejoin="round"/>
<path d="M63.853 79.4738L43.7654 91.0947" stroke="#BD878D" stroke-miterlimit="10" stroke-linecap="round" stroke-linejoin="round"/>
<path d="M41.2589 91.9392L25.033 82.6492" stroke="#946A6E" stroke-miterlimit="10" stroke-linecap="round" stroke-linejoin="round"/>
<path d="M69.1375 99.1009L43.5962 113.863C43.5962 113.863 40.8185 115.519 37.8714 114.032C34.9244 112.546 29.9448 109.235 29.9448 109.235" stroke="#C2D9FC" stroke-miterlimit="10" stroke-linecap="round" stroke-linejoin="round"/>
<path d="M15.1417 99.6413L18.6308 97.6482L26.1848 115.924L23.17 117.681L15.1417 99.6413Z" fill="#2560B8"/>
<path d="M25.8856 116.069C28.7411 115.002 29.4966 109.987 27.5732 104.868C25.6497 99.7492 21.7756 96.4646 18.9201 97.5317C16.0645 98.5989 15.309 103.614 17.2324 108.732C19.1559 113.851 23.0301 117.136 25.8856 116.069Z" fill="#2560B8"/>
<path d="M22.5691 117.99C25.4246 116.923 26.1802 111.908 24.2567 106.789C22.3332 101.67 18.4591 98.3856 15.6036 99.4527C12.7481 100.52 11.9925 105.535 13.916 110.653C15.8395 115.772 19.7136 119.057 22.5691 117.99Z" fill="#367AE0"/>
<path d="M22.0181 110.249C22.0181 112.884 20.4938 114.134 18.6307 113.053C16.7676 111.972 15.2432 108.965 15.2432 106.33C15.2432 103.695 16.7676 102.445 18.6307 103.526C20.4938 104.607 22.0181 107.614 22.0181 110.249Z" fill="white"/>
<path d="M20.6631 97.378C20.6631 97.378 25.2023 97.9523 27.7768 105.519" stroke="#396FBF" stroke-miterlimit="10" stroke-linecap="round" stroke-linejoin="round"/>
<path d="M17.3436 99.3036C17.3436 99.3036 21.8827 99.8778 24.4572 107.445" stroke="white" stroke-miterlimit="10" stroke-linecap="round" stroke-linejoin="round"/>
<path opacity="0.4" d="M212.316 51.8884L227.424 51.4831L200.867 23.6133L189.519 26.2482L178.645 32.4978L185.318 36.3489L172.615 49.1183L185.657 54.8274L192.635 53.0032C192.398 55.0301 191.246 57.1246 188.231 58.8474C182.507 62.158 171.836 64.8943 167.873 57.9691C166.078 54.7936 165.942 47.159 171.226 44.1187C174.038 42.4972 172.581 44.0849 176.104 43.8484L175.901 38.3758C170.955 38.5447 164.824 39.6933 159.845 42.5647C150.021 48.24 147.989 56.8881 159.133 63.3066C170.447 69.8264 184.607 68.509 194.43 62.8337C199.512 59.9284 202.086 56.4827 202.052 52.733L193.787 52.6992L207.54 49.1183L212.316 51.8884Z" fill="#A8C0E5"/>
<path d="M172.581 63.6106C161.437 57.1921 163.469 48.544 173.293 42.8688C178.306 39.9973 184.403 38.8487 189.349 38.6798L189.552 44.1524C186.029 44.3889 182.811 44.9294 180 46.5509C174.682 49.5913 174.546 54.3883 181.287 58.2731C188.197 62.2593 195.921 62.4283 201.646 59.1515C204.796 57.3272 205.914 55.0977 206.049 52.9694L215.432 53.037C215.466 56.753 212.892 60.1987 207.811 63.1377C198.021 68.813 183.861 70.1304 172.581 63.6106Z" fill="#1B498F"/>
<path d="M189.552 34.9977V44.1525L170.888 47.4968L165.027 53.6789V44.1862L177.764 34.0518L189.552 34.9977Z" fill="#042D6A"/>
<path d="M215.466 53.0708V43.916L204.152 52.1587L184.946 56.8543L173.361 52.1587L176.714 59.8609L188.604 64.8605C188.604 64.8605 201.341 60.6041 202.018 60.2662C202.696 59.9622 215.466 53.0708 215.466 53.0708Z" fill="#1B498F"/>
<path d="M193.787 32.1262V22.9714L236.164 37.2948V46.4496L227.424 51.5168L193.787 32.1262Z" fill="#1B498F"/>
<path d="M172.581 54.4558C161.437 48.0373 163.469 39.3893 173.293 33.714C178.306 30.8425 184.403 29.694 189.349 29.5251L189.552 34.9977C186.029 35.2341 182.811 35.7746 180 37.3962C174.682 40.4365 174.546 45.2335 181.287 49.1183C188.197 53.1046 195.921 53.2735 201.646 49.9967C204.796 48.1725 205.914 45.9429 206.049 43.8146L215.432 43.8822C215.466 47.5982 212.892 51.0439 207.811 53.9829C198.021 59.6582 183.861 60.9757 172.581 54.4558Z" fill="#0052CC"/>
<path d="M193.787 22.9714L202.56 17.938L236.197 37.2948L227.424 42.3283L193.787 22.9714Z" fill="#0052CC"/>
<path d="M195.514 23.039L227.424 41.3486" stroke="white" stroke-miterlimit="10" stroke-linecap="round" stroke-linejoin="round"/>
<path d="M166.348 42.835C166.348 42.835 163.537 50.9763 178.408 56.2125C193.279 61.4486 207.37 53.3748 207.37 53.3748" stroke="white" stroke-miterlimit="10" stroke-linecap="round" stroke-linejoin="round"/>
<path d="M228.135 43.0377V49.6588" stroke="white" stroke-miterlimit="10" stroke-linecap="round" stroke-linejoin="round"/>
<path d="M196.124 22.2958L202.154 18.9177" stroke="white" stroke-miterlimit="10" stroke-linecap="round" stroke-linejoin="round"/>
<path d="M188.909 32.633L188.841 30.3358C188.841 30.3358 183.286 30.4372 178.882 31.9573" stroke="white" stroke-miterlimit="10" stroke-linecap="round" stroke-linejoin="round"/>
<defs>
<linearGradient id="paint0_linear" x1="161.053" y1="103.844" x2="129.97" y2="135.562" gradientUnits="userSpaceOnUse">
<stop offset="0.00558659" stop-color="#2B61B3"/>
<stop offset="0.034113" stop-color="#2A63B9"/>
<stop offset="0.1433" stop-color="#2869CA"/>
<stop offset="0.2793" stop-color="#276DD5"/>
<stop offset="0.4702" stop-color="#266FDC"/>
<stop offset="1" stop-color="#2670DE"/>
</linearGradient>
<linearGradient id="paint1_linear" x1="172.365" y1="167.266" x2="8.21397" y2="167.266" gradientUnits="userSpaceOnUse">
<stop stop-color="#1F5BB5"/>
<stop offset="0.4609" stop-color="#3C80E6"/>
<stop offset="0.7356" stop-color="#3B7FE4"/>
<stop offset="0.8345" stop-color="#397BDD"/>
<stop offset="0.905" stop-color="#3574D2"/>
<stop offset="0.9617" stop-color="#306AC1"/>
<stop offset="0.9944" stop-color="#2B61B3"/>
</linearGradient>
</defs>
</svg>
