<svg width="647" height="512" viewBox="0 0 647 512" fill="none" xmlns="http://www.w3.org/2000/svg">
<g clip-path="url(#clip0)">
<path d="M130.132 408.81L346.912 281.715L466.77 350.916L240.041 484.732L132.523 420.699C128.905 418.632 126.514 410.943 130.132 408.81Z" fill="#E8EFFA"/>
<path d="M87.8104 426.773L94.4656 422.961L108.874 457.917L103.124 461.212L87.8104 426.773Z" fill="#2560B8"/>
<path d="M108.288 458.128C113.735 456.087 115.176 446.495 111.507 436.704C107.838 426.914 100.448 420.631 95.0016 422.672C89.5549 424.713 88.1137 434.305 91.7826 444.096C95.4515 453.887 102.841 460.169 108.288 458.128Z" fill="#2560B8"/>
<path d="M101.961 461.803C107.407 459.762 108.849 450.17 105.18 440.38C101.511 430.589 94.121 424.306 88.6743 426.348C83.2275 428.389 81.7863 437.98 85.4553 447.771C89.1242 457.562 96.5139 463.844 101.961 461.803Z" fill="#367AE0"/>
<path d="M489.127 363.517L330.952 272.218V90.7178L489.127 182.017V363.517Z" fill="#BFCEE5"/>
<path d="M448.872 264.657V205.793L364.034 156.816V227.762L356.539 222.464L358.284 145.961L456.561 203.596L455.527 268.469L448.872 264.657Z" fill="#1B488C"/>
<path d="M466.77 309.436V350.659L433.042 331.21C433.042 331.21 436.079 306.399 439.051 306.399C441.958 306.27 466.77 309.436 466.77 309.436Z" fill="#678EC9"/>
<path opacity="0.4" d="M240.918 353.778C260.149 352.573 275.255 343.86 274.657 334.315C274.059 324.771 257.985 318.01 238.753 319.214C219.522 320.418 204.416 329.132 205.014 338.676C205.611 348.221 221.686 354.982 240.918 353.778Z" fill="#A8C0E5"/>
<path d="M220.01 334.57L215.229 319.774C214.324 318.352 211.546 316.479 209.349 315.703C208.38 315.38 207.281 315.768 206.764 316.608L205.601 318.482C203.857 321.131 203.857 321.648 205.084 323.586L212.321 334.893C213.549 336.767 216.133 338.253 218.072 338.189H218.653C220.592 338.06 221.238 336.444 220.01 334.57Z" fill="#174891"/>
<path d="M269.31 329.272L256.194 321.002C254.578 320.485 251.218 320.872 249.086 321.648C248.117 321.971 247.535 323.005 247.729 324.038L248.052 326.235C248.44 329.401 248.763 329.789 250.96 330.435L263.754 334.441C265.886 335.087 268.858 334.57 270.28 333.278L270.667 332.89C272.024 331.534 271.443 329.918 269.31 329.272Z" fill="#174891"/>
<path d="M130.132 425.805C126.126 425.805 122.831 422.51 122.831 418.504V350.336C122.831 346.33 126.126 343.035 130.132 343.035C134.138 343.035 137.434 346.33 137.434 350.336V418.504C137.434 422.51 134.138 425.805 130.132 425.805Z" fill="#A7C6F5"/>
<path d="M448.872 282.813L364.034 254.189V156.816L448.872 205.794V282.813Z" fill="url(#paint0_linear)"/>
<path d="M489.127 363.519L646.526 272.801V91.3008L489.127 182.019V363.519Z" fill="#6D91C7"/>
<path d="M488.933 182.082L330.758 90.7178L487.963 0L618.096 75.1459L646.138 91.2993L488.933 182.082Z" fill="#D4E5FF"/>
<path d="M241.268 439.569L466.771 309.437L348.333 241.398L122.831 371.595L241.268 439.569Z" fill="#6D91C7"/>
<path d="M241.268 439.566L245.339 408.164L130.132 343.098L122.831 371.592L241.268 439.566Z" fill="#A7C6F5"/>
<path d="M364.034 215.938L415.208 186.41L364.034 156.816V215.938Z" fill="#88B0EB"/>
<path d="M149 366.879L122.831 337.092L466.771 274.934V309.437L149 366.879Z" fill="#6D91C7"/>
<path d="M240.557 405.515L466.77 274.931L348.333 206.957L120.246 337.994L240.557 405.515Z" fill="#A7C6F5"/>
<path d="M143.184 348.784L364.034 215.938L448.872 264.656L224.081 395.241C209.22 403.835 214.001 423.929 214.001 423.929L148.547 386.324C129.551 375.986 135.172 354.211 143.184 348.784Z" fill="url(#paint1_linear)"/>
<path d="M242.754 490.419C238.748 490.419 235.453 487.124 235.453 483.118V414.95C235.453 410.944 238.748 407.649 242.754 407.649C246.76 407.649 250.055 410.944 250.055 414.95V483.118C249.991 487.124 246.76 490.419 242.754 490.419Z" fill="#A7C6F5"/>
<path opacity="0.4" d="M245.791 375.149L303.233 342.002L245.791 308.855L188.414 342.002L245.791 375.149Z" fill="#517EC2"/>
<path opacity="0.4" d="M342.841 318.868L400.283 285.721L342.841 252.574L285.399 285.721L342.841 318.868Z" fill="#517EC2"/>
<path d="M304.008 243.983L287.919 230.931L331.986 204.375L348.915 218.073L304.008 243.983Z" fill="#BD878D"/>
<path d="M393.692 243.983L409.846 230.931L365.779 204.375L348.85 218.073L393.692 243.983Z" fill="#BD878D"/>
<path d="M348.721 294.513L393.434 268.668V243.662L348.721 242.887V294.513Z" fill="#946A6E"/>
<path d="M303.944 268.668L348.721 294.513V242.887L303.944 243.662V268.668Z" fill="#755457"/>
<path d="M348.85 269.57L393.692 243.66L348.85 217.75L303.944 243.66L348.85 269.57Z" fill="#946A6E"/>
<path d="M348.85 269.57L347.881 255.355L348.85 217.75L303.944 243.66L348.85 269.57Z" fill="#785659"/>
<path d="M348.721 269.57L371.142 256.583L348.721 243.66L326.3 256.583L348.721 269.57Z" fill="#613F43"/>
<path d="M353.567 273.511L383.289 257.099C384.517 256.452 385.034 255.483 384.84 254.449L384.323 248.57C384.323 248.57 380.575 248.699 376.569 248.053L350.918 233.385C347.687 231.512 342.97 231.124 340.45 232.545L316.285 245.856C311.632 245.727 308.531 245.21 308.531 245.21L308.919 251.606C309.048 252.705 310.017 253.868 311.956 254.966L342.97 272.735C346.33 274.609 351.047 274.932 353.567 273.511Z" fill="#B39512"/>
<path d="M310.276 242.949L339.998 226.538C342.518 225.116 347.235 225.504 350.53 227.378L381.545 245.146C384.775 247.02 385.357 249.669 382.837 251.091L353.115 267.503C350.595 268.924 345.878 268.537 342.582 266.663L311.568 248.894C308.273 246.956 307.691 244.306 310.276 242.949Z" fill="#CEFF2C"/>
<path d="M348.721 306.723L393.434 280.878V255.808L348.721 269.57V306.723Z" fill="#946A6E"/>
<path d="M303.944 280.878L348.721 306.723L348.85 269.57L303.944 255.808V280.878Z" fill="#755457"/>
<path d="M393.692 243.66L409.781 256.712L365.779 283.268L348.85 269.57L393.692 243.66Z" fill="#BD878D"/>
<path d="M304.008 243.66L287.919 256.712L331.921 283.268L348.915 269.57L304.008 243.66Z" fill="#BD878D"/>
<path d="M203.792 302.263L187.703 289.211L231.705 262.591L248.634 276.353L203.792 302.263Z" fill="#BD878D"/>
<path d="M293.476 302.263L309.565 289.211L265.563 262.591L248.569 276.353L293.476 302.263Z" fill="#BD878D"/>
<path d="M248.44 352.793L293.218 326.948V301.942L248.44 301.102V352.793Z" fill="#946A6E"/>
<path d="M203.727 326.948L248.44 352.793V301.102L203.727 301.942V326.948Z" fill="#755457"/>
<path d="M248.569 327.788L293.476 301.942L248.569 276.032L203.727 301.942L248.569 327.788Z" fill="#946A6E"/>
<path d="M248.569 327.788L247.665 308.21L248.569 276.032L203.727 301.942L248.569 327.788Z" fill="#785659"/>
<path d="M248.44 327.788L270.861 314.865L248.44 301.942L226.019 314.865L248.44 327.788Z" fill="#613F43"/>
<path d="M253.351 331.792L283.073 315.38C284.301 314.734 284.818 313.765 284.624 312.731L284.107 306.851C284.107 306.851 280.359 306.98 276.353 306.334L250.701 291.667C247.471 289.793 242.754 289.405 240.234 290.827L216.068 304.137C211.416 304.008 208.315 303.491 208.315 303.491L208.703 309.888C208.832 310.986 209.801 312.149 211.739 313.248L242.754 331.017C246.049 332.89 250.766 333.214 253.351 331.792Z" fill="#C740C0"/>
<path d="M209.995 301.165L239.717 284.753C242.237 283.332 246.954 283.719 250.249 285.593L281.264 303.362C284.495 305.236 285.076 307.885 282.556 309.306L252.834 325.718C250.314 327.14 245.597 326.752 242.302 324.878L211.287 307.11C208.057 305.236 207.475 302.587 209.995 301.165Z" fill="#5BDFF7"/>
<path d="M248.44 364.938L293.218 339.092V314.087L248.44 327.785V364.938Z" fill="#946A6E"/>
<path d="M203.727 339.092L248.44 364.938L248.569 327.785L203.727 314.087V339.092Z" fill="#755457"/>
<path d="M293.476 301.942L309.565 314.93L265.498 341.55L248.569 327.788L293.476 301.942Z" fill="#BD878D"/>
<path d="M203.792 301.942L187.638 314.93L231.705 341.55L248.634 327.788L203.792 301.942Z" fill="#BD878D"/>
<path d="M524.148 198.04L524.083 185.053C524.083 181.176 526.474 176.653 529.51 174.909L583.851 144.217C583.98 144.152 584.174 144.023 584.303 143.959L594.124 138.402C594.9 137.949 595.61 137.756 596.256 137.756C598.26 137.691 599.616 139.436 599.681 142.343L600.327 253.673C600.327 254.061 600.327 254.513 600.263 254.965L600.327 268.211C600.327 272.088 597.936 276.611 594.9 278.355L540.559 309.047C540.43 309.112 540.236 309.241 540.107 309.305L530.286 314.862C527.249 316.542 524.794 314.798 524.794 310.921L524.148 212.578L524.083 199.591C524.083 199.139 524.083 198.622 524.148 198.17V198.04Z" fill="#3B70BF"/>
<path d="M241.656 293.347L256.582 293.864L257.357 303.039L254.191 302.91L253.674 296.901L241.914 296.448L241.656 293.347Z" fill="white"/>
<path d="M228.152 301.488L231.318 301.617L231.835 307.562L243.724 308.014L243.982 311.116L228.862 310.599L228.152 301.488Z" fill="white"/>
<path d="M231.318 300.196L231.899 297.288L253.157 304.46L252.64 307.368L231.318 300.196Z" fill="white"/>
<path d="M334.247 241.849L333.73 242.108C332.632 242.754 332.761 243.142 334.376 244.046C335.927 244.951 337.478 245.726 339.287 246.695C341.484 247.988 341.742 248.828 340.709 249.732L340.838 249.797C342.518 249.28 344.004 249.409 346.265 250.637C348.075 251.671 349.367 252.511 350.918 253.415C352.533 254.32 353.244 254.449 354.407 253.803L354.924 253.544L357.185 254.837L355.505 255.741C353.179 257.034 351.111 257.034 347.945 255.224C345.878 254.061 345.038 253.286 343.229 252.188C342.195 251.606 340.579 251.283 338.77 252.188L336.25 250.766C337.93 249.797 337.413 248.828 336.379 248.246C334.506 247.212 333.213 246.695 331.081 245.532C327.915 243.723 327.98 242.56 330.306 241.268L331.986 240.363L334.247 241.849Z" fill="#091E42"/>
<path d="M340.256 235.903L341.936 234.999C344.262 233.706 346.33 233.706 349.496 235.516C351.564 236.679 352.404 237.454 354.213 238.552C355.247 239.134 356.862 239.457 358.671 238.552L361.191 239.974C359.511 240.943 360.028 241.912 361.062 242.494C362.936 243.528 364.228 244.045 366.36 245.208C369.526 247.017 369.462 248.18 367.136 249.472L365.456 250.377L363.194 249.084L363.711 248.826C364.81 248.18 364.68 247.792 363.065 246.888C361.514 245.983 359.963 245.208 358.154 244.238C355.957 242.946 355.699 242.106 356.733 241.202L356.604 241.137C354.924 241.654 353.437 241.525 351.176 240.297C349.367 239.263 348.075 238.423 346.524 237.519C344.908 236.614 344.198 236.485 343.035 237.131L342.518 237.389L340.256 235.903Z" fill="#091E42"/>
<path opacity="0.39" d="M80.3798 510.966L131.489 481.438C134.268 479.822 133.88 477.044 130.714 475.17L94.5302 454.3C91.2995 452.426 86.4535 452.232 83.6751 453.848L32.5655 483.311C29.7871 484.927 30.1748 487.705 33.3409 489.579L69.5247 510.449C72.6907 512.323 77.6014 512.581 80.3798 510.966Z" fill="#A7C6F5"/>
<path d="M2.00311 362.743L21.5811 372.177C23.3257 373.017 25.4579 372.306 26.2979 370.561C27.1379 368.817 26.4271 366.684 24.6826 365.845L5.03996 356.411C3.29539 355.571 1.16313 356.282 0.323155 358.026C-0.516825 359.835 0.258541 361.903 2.00311 362.743Z" fill="#091E42"/>
<path d="M48.7834 337.735L68.3614 347.169C70.1059 348.009 72.2382 347.298 73.0782 345.553C73.9181 343.809 73.2074 341.677 71.4628 340.837L51.8848 331.403C50.1402 330.563 48.008 331.274 47.168 333.018C46.328 334.763 47.0388 336.895 48.7834 337.735Z" fill="#091E42"/>
<path d="M32.5654 469.29L83.6749 439.762C86.4533 438.146 91.364 438.34 94.53 440.214L122.766 456.497L133.363 458.047V464.767C133.298 465.736 132.717 466.641 131.489 467.287L80.3796 496.88C77.6012 498.496 72.6906 498.302 69.5245 496.428L33.3407 475.558C30.1101 473.684 29.787 470.841 32.5654 469.29Z" fill="#6493D9"/>
<path d="M32.5654 469.29L73.5951 445.642L75.1459 497.979C73.2075 497.914 71.1398 497.397 69.5245 496.493L33.3407 475.622C30.1101 473.684 29.787 470.841 32.5654 469.29Z" fill="#5F76CF"/>
<path d="M85.0319 452.749C82.7058 452.749 80.5089 450.811 80.1859 448.485L65.5185 344.586C65.1955 342.259 66.8108 340.321 69.1369 340.321C71.463 340.321 73.6599 342.259 73.983 344.586L88.6503 448.485C89.038 450.811 87.4226 452.749 85.0319 452.749Z" fill="#94B7EB"/>
<path d="M80.3798 490.419L131.489 460.89C134.268 459.275 133.88 456.497 130.714 454.623L94.5302 433.753C91.2995 431.879 86.4535 431.685 83.6751 433.3L32.5655 462.829C29.7871 464.444 30.1748 467.223 33.3409 469.096L69.5247 489.967C72.6907 491.84 77.6014 492.034 80.3798 490.419Z" fill="#94B7EB"/>
<path d="M108.487 463.281L79.7335 446.675C78.3766 445.9 78.5058 444.479 80.1212 443.574C81.7365 442.669 84.1272 442.54 85.5487 443.38L114.302 459.986C115.659 460.761 115.53 462.183 113.914 463.087C112.299 463.992 109.844 464.121 108.487 463.281Z" fill="#6493D9"/>
<path d="M95.693 470.518L66.9399 453.912C65.583 453.137 65.7122 451.715 67.3275 450.811C68.9429 449.906 71.3336 449.777 72.7551 450.617L101.444 467.158C102.801 467.933 102.671 469.355 101.056 470.259C99.5052 471.229 97.0499 471.358 95.693 470.518Z" fill="#6493D9"/>
<path d="M81.995 478.272L53.2418 461.666C51.8849 460.89 52.0141 459.469 53.6295 458.564C55.2448 457.66 57.6355 457.531 59.057 458.371L87.8102 474.976C89.1671 475.752 89.0379 477.173 87.4225 478.078C85.8072 478.982 83.4165 479.047 81.995 478.272Z" fill="#6493D9"/>
<path d="M29.2702 395.887L72.7553 375.663C74.9522 374.629 75.6629 373.402 75.0168 371.851C75.0168 371.851 73.8537 368.943 71.6569 369.913L28.5594 390.008C26.3626 391.041 24.7472 393.174 24.9411 394.789C25.1995 396.404 27.1379 396.921 29.2702 395.887Z" fill="#6493D9"/>
<path d="M535.713 304.265L590.054 273.574C593.09 271.894 595.546 267.306 595.481 263.429L594.835 152.1C594.835 148.223 592.315 146.478 589.343 148.158L535.003 178.85C531.966 180.53 529.51 185.117 529.575 188.994L530.221 300.324C530.221 304.201 532.676 305.945 535.713 304.265Z" fill="#1A50A1"/>
<path d="M529.575 201.981L529.51 188.994C529.51 185.117 531.901 180.594 534.938 178.85L589.278 148.158C592.315 146.478 594.77 148.223 594.77 152.1L594.835 165.087L529.575 201.981Z" fill="#1B498F"/>
<path d="M570.992 186.474L577.971 182.533C578.035 182.533 578.035 182.533 578.1 182.468L584.238 179.044C585.66 178.268 586.823 179.044 586.823 180.917C586.823 182.727 585.724 184.859 584.303 185.634L577.324 189.576C577.26 189.576 577.26 189.576 577.195 189.64L571.057 193.065C569.635 193.84 568.472 193.065 568.472 191.191C568.472 189.382 569.571 187.25 570.992 186.474Z" fill="#CEFF2C"/>
<path d="M572.414 266.854L579.392 262.912C579.457 262.912 579.457 262.912 579.521 262.848L585.66 259.423C587.081 258.648 588.244 259.423 588.244 261.297C588.244 263.106 587.081 265.238 585.724 266.014L578.746 269.955C578.681 269.955 578.681 269.955 578.617 270.02L572.478 273.444C571.057 274.22 569.894 273.444 569.894 271.571C569.829 269.761 570.992 267.629 572.414 266.854Z" fill="#CEFF2C"/>
<path d="M567.762 210.446L578.294 204.501C579.392 203.855 580.297 202.175 580.297 200.754C580.297 199.332 579.392 198.686 578.229 199.268L567.697 205.212C566.599 205.858 565.694 207.538 565.694 208.96C565.694 210.446 566.663 211.092 567.762 210.446Z" fill="white"/>
<path d="M550.187 220.72L560.719 214.775C561.817 214.129 562.722 212.449 562.722 211.027C562.722 209.606 561.817 208.96 560.654 209.541L550.122 215.486C549.024 216.132 548.119 217.812 548.119 219.233C548.184 220.655 549.088 221.366 550.187 220.72Z" fill="white"/>
<path d="M558.005 262.782L568.537 256.837C569.635 256.191 570.54 254.511 570.54 253.09C570.54 251.668 569.635 251.022 568.472 251.604L557.94 257.548C556.842 258.194 555.937 259.874 555.937 261.296C555.937 262.782 556.906 263.428 558.005 262.782Z" fill="white"/>
<path d="M559.556 245.337L570.088 239.393C571.186 238.747 572.091 237.067 572.091 235.645C572.091 234.224 571.186 233.578 570.023 234.159L559.491 240.104C558.393 240.75 557.488 242.43 557.488 243.851C557.488 245.273 558.457 245.919 559.556 245.337Z" fill="#94B7EB"/>
<path d="M550.445 235.839L569.829 224.919C570.928 224.273 571.832 222.593 571.832 221.172C571.832 219.75 570.928 219.104 569.765 219.686L550.38 230.605C549.282 231.252 548.377 232.932 548.377 234.353C548.442 235.775 549.347 236.421 550.445 235.839Z" fill="#94B7EB"/>
<path d="M568.279 256.969L578.811 251.025C579.909 250.379 580.814 248.699 580.814 247.277C580.814 245.856 579.909 245.21 578.746 245.791L568.214 251.736C567.116 252.382 566.211 254.062 566.211 255.483C566.276 256.969 567.18 257.616 568.279 256.969Z" fill="white"/>
<path d="M537.522 239.458C537.845 238.165 538.298 237.584 539.202 237.002L544.242 234.159C545.34 233.513 546.31 234.159 546.31 235.645C546.31 237.067 545.405 238.747 544.307 239.393L539.073 242.365C536.941 243.851 537.199 240.556 537.522 239.458Z" fill="#94B7EB"/>
<path d="M582.881 161.276C582.946 163.279 584.367 164.119 586.177 163.085C587.986 162.051 589.407 159.596 589.343 157.593C589.278 155.59 587.857 154.75 586.047 155.784C584.238 156.818 582.817 159.273 582.881 161.276Z" fill="#CEFF2C"/>
<path d="M564.854 171.87C564.919 173.873 566.34 174.713 568.149 173.679C569.959 172.645 571.38 170.19 571.316 168.187C571.251 166.184 569.829 165.344 568.02 166.378C566.211 167.411 564.79 169.867 564.854 171.87Z" fill="#CEFF2C"/>
<path d="M574.029 166.639C574.094 168.642 575.515 169.482 577.325 168.449C579.134 167.415 580.555 164.959 580.491 162.956C580.426 160.953 579.004 160.113 577.195 161.147C575.386 162.181 573.965 164.636 574.029 166.639Z" fill="#CEFF2C"/>
<path d="M231.511 342L204.18 325.523" stroke="#63474A" stroke-miterlimit="10" stroke-linecap="round" stroke-linejoin="round"/>
<path d="M332.05 283.719L304.783 267.243" stroke="#63474A" stroke-miterlimit="10" stroke-linecap="round" stroke-linejoin="round"/>
<path d="M488.739 186.863L331.34 96.5977" stroke="#C9DBF5" stroke-width="2" stroke-miterlimit="10" stroke-linecap="round" stroke-linejoin="round"/>
<path d="M460.89 200.367L460.05 266.274" stroke="#003E9C" stroke-miterlimit="10" stroke-linecap="round" stroke-linejoin="round"/>
<path d="M493.973 186.023V353.955" stroke="#6F93C9" stroke-miterlimit="10" stroke-linecap="round" stroke-linejoin="round"/>
<path d="M281.187 409.866C283.798 405.399 283.818 400.552 281.23 399.039C278.642 397.526 274.427 399.921 271.816 404.388C269.204 408.855 269.185 413.702 271.773 415.215C274.361 416.728 278.575 414.333 281.187 409.866Z" stroke="#426DAD" stroke-miterlimit="10" stroke-linecap="round" stroke-linejoin="round"/>
<path d="M272.929 409.135C272.929 411.396 274.544 412.301 276.482 411.138C278.421 409.975 280.036 407.261 280.036 404.999C280.036 402.738 278.421 401.833 276.482 402.996C274.544 404.16 272.929 406.938 272.929 409.135Z" stroke="#426DAD" stroke-miterlimit="10" stroke-linecap="round" stroke-linejoin="round"/>
<path d="M364.487 354.728C364.487 356.99 366.102 357.894 368.04 356.731C369.979 355.568 371.594 352.854 371.594 350.593C371.594 348.331 369.979 347.427 368.04 348.59C366.102 349.753 364.487 352.467 364.487 354.728Z" stroke="#426DAD" stroke-miterlimit="10" stroke-linecap="round" stroke-linejoin="round"/>
<path d="M372.727 355.523C375.339 351.056 375.358 346.208 372.77 344.696C370.183 343.183 365.968 345.578 363.356 350.045C360.745 354.512 360.726 359.359 363.313 360.872C365.901 362.385 370.116 359.99 372.727 355.523Z" stroke="#426DAD" stroke-miterlimit="10" stroke-linecap="round" stroke-linejoin="round"/>
<path d="M464.961 282.426L248.569 410.684C248.569 410.684 249.991 410.103 249.991 417.339C249.991 424.576 249.991 433.558 249.991 433.558" stroke="#426DAD" stroke-miterlimit="10" stroke-linecap="round" stroke-linejoin="round"/>
<path d="M448.872 262.591V205.795L415.208 186.411" stroke="#A7C6F5" stroke-miterlimit="10" stroke-linecap="round" stroke-linejoin="round"/>
<path opacity="0.4" d="M203.727 339.093L248.44 364.939" stroke="#2A518C" stroke-miterlimit="10" stroke-linecap="round" stroke-linejoin="round"/>
<path d="M348.721 306.721L329.66 295.672" stroke="#2A518C" stroke-miterlimit="10" stroke-linecap="round" stroke-linejoin="round"/>
<path d="M247.406 275.32L203.017 301.1" stroke="#DE9EA6" stroke-miterlimit="10" stroke-linecap="round" stroke-linejoin="round"/>
<path d="M347.17 217.296L302.781 243.142" stroke="#DE9EA6" stroke-miterlimit="10" stroke-linecap="round" stroke-linejoin="round"/>
<path d="M114.948 460.566L85.5486 443.379" stroke="#396FBF" stroke-miterlimit="10" stroke-linecap="round" stroke-linejoin="round"/>
<path d="M102.09 467.61L72.6258 450.358" stroke="#396FBF" stroke-miterlimit="10" stroke-linecap="round" stroke-linejoin="round"/>
<path d="M88.2626 475.301L58.8633 458.113" stroke="#396FBF" stroke-miterlimit="10" stroke-linecap="round" stroke-linejoin="round"/>
<path d="M38.7038 478.401C36.3777 478.401 34.1808 476.462 33.8577 474.136L19.1258 370.237C18.8027 367.911 20.4181 365.973 22.7442 365.973C25.0703 365.973 27.2671 367.911 27.5902 370.237L42.2575 474.136C42.6452 476.462 41.0299 478.401 38.7038 478.401Z" fill="#94B7EB"/>
<path d="M249.991 470.84C249.991 470.84 247.923 475.104 242.69 475.104C237.52 475.104 235.388 471.421 235.388 471.421" stroke="#426DAD" stroke-miterlimit="10" stroke-linecap="round" stroke-linejoin="round"/>
<path d="M137.627 405C137.627 405 135.56 409.264 130.326 409.264C125.157 409.264 123.025 405.581 123.025 405.581" stroke="#426DAD" stroke-miterlimit="10" stroke-linecap="round" stroke-linejoin="round"/>
<path d="M92.333 425.934C92.333 425.934 99.3113 426.839 104.287 437.5" stroke="white" stroke-miterlimit="10" stroke-linecap="round" stroke-linejoin="round"/>
<path d="M98.3422 422.187C98.3422 422.187 107 423.285 111.911 437.759" stroke="#396FBF" stroke-miterlimit="10" stroke-linecap="round" stroke-linejoin="round"/>
<path d="M79.6687 411.332C79.6687 411.332 76.1795 420.184 64.8721 424.061" stroke="white" stroke-width="1.1662" stroke-miterlimit="10" stroke-linecap="round" stroke-linejoin="round"/>
<path d="M77.795 445.255L111.782 425.677L78.0534 406.164L43.7435 425.742L77.795 445.255Z" fill="#BD878D"/>
<path d="M86.5824 440.149L120.569 420.571L86.7763 401.058L52.4663 420.636L86.5824 440.149Z" fill="#BD878D"/>
<path d="M77.7949 445.253L78.4411 484.345L111.782 464.637V425.675L77.7949 445.253Z" fill="#946A6E"/>
<path d="M86.6471 440.148H86.5825V479.174L120.569 459.532V420.57L86.6471 440.148Z" fill="#946A6E"/>
<path d="M77.795 445.255L43.7435 425.742V463.541L78.4411 484.346L77.795 445.255Z" fill="#755457"/>
<path d="M99.9574 408.874L58.863 434.397" stroke="#755457" stroke-miterlimit="10" stroke-linecap="round" stroke-linejoin="round"/>
<path d="M95.0467 426.712C93.8191 426.001 94.6591 424.773 96.4036 424.838C98.342 424.838 99.9574 423.933 99.9574 422.835V422.253C99.9574 421.155 98.342 420.186 96.4036 420.186C94.6591 420.186 93.8191 418.958 95.0467 418.247C96.4036 417.472 96.4036 416.179 95.0467 415.34L94.336 414.952C92.9791 414.176 90.7176 414.176 89.3607 414.952C88.1331 415.663 86.0654 415.146 86.0654 414.176C86.0654 413.078 84.4501 412.109 82.5117 412.109H81.4778C79.5394 412.109 77.9241 413.013 77.9241 414.112C77.9241 415.081 75.8564 415.598 74.6288 414.887C73.2719 414.112 71.0104 414.112 69.6535 414.887L68.9428 415.275C67.5859 416.05 67.5859 417.343 68.9428 418.183C70.1704 418.893 69.3304 420.121 67.5859 420.056C65.6475 420.056 64.0321 420.961 64.0321 422.059V422.641C64.0321 423.739 65.6475 424.709 67.5859 424.709C69.3304 424.709 70.1704 425.936 68.9428 426.647C67.5859 427.422 67.5859 428.715 68.9428 429.555L69.6535 429.942C71.0104 430.718 73.2719 430.718 74.6288 429.942C75.8564 429.232 77.9241 429.748 77.9241 430.718C77.9241 431.816 79.5394 432.785 81.4778 432.785H82.5117C84.4501 432.785 86.0654 431.881 86.0654 430.782C86.0654 429.813 88.1331 429.296 89.3607 430.007C90.7176 430.782 92.9791 430.782 94.336 430.007L95.0467 429.619C96.4683 428.779 96.4683 427.487 95.0467 426.712ZM75.7918 426.001C72.3673 423.998 72.3673 420.832 75.7272 418.829C79.1517 416.826 84.7085 416.89 88.1331 418.829C91.5576 420.832 91.5576 423.998 88.1977 426.001C84.7731 428.004 79.2164 428.004 75.7918 426.001Z" fill="white"/>
<path d="M77.7949 445.254L78.3764 483.764" stroke="#63474A" stroke-miterlimit="10" stroke-linecap="round" stroke-linejoin="round"/>
<path d="M119.471 423.027L81.1547 445.254" stroke="#BD878D" stroke-miterlimit="10" stroke-linecap="round" stroke-linejoin="round"/>
<path d="M76.3736 446.869L45.4236 429.1" stroke="#946A6E" stroke-miterlimit="10" stroke-linecap="round" stroke-linejoin="round"/>
<path d="M129.551 460.567L80.832 488.804C80.832 488.804 75.5336 491.97 69.9122 489.127C64.2908 486.284 54.7926 479.952 54.7926 479.952" stroke="#C2D9FC" stroke-miterlimit="10" stroke-linecap="round" stroke-linejoin="round"/>
<path d="M26.5564 461.601L33.2116 457.789L47.6205 492.745L41.8699 496.105L26.5564 461.601Z" fill="#2560B8"/>
<path d="M47.0497 493.022C52.4965 490.981 53.9377 481.389 50.2687 471.598C46.5998 461.807 39.2101 455.525 33.7633 457.566C28.3166 459.607 26.8754 469.199 30.5443 478.99C34.2132 488.78 41.603 495.063 47.0497 493.022Z" fill="#2560B8"/>
<path d="M40.7237 496.696C46.1705 494.655 47.6117 485.063 43.9427 475.273C40.2738 465.482 32.8841 459.199 27.4373 461.24C21.9906 463.282 20.5494 472.873 24.2183 482.664C27.8872 492.455 35.277 498.737 40.7237 496.696Z" fill="#367AE0"/>
<path d="M39.6728 481.89C39.6728 486.93 36.7651 489.321 33.2114 487.253C29.6576 485.185 26.75 479.435 26.75 474.395C26.75 469.355 29.6576 466.964 33.2114 469.032C36.7651 471.099 39.6728 476.85 39.6728 481.89Z" fill="white"/>
<path d="M37.0882 457.272C37.0882 457.272 45.7464 458.371 50.6571 472.844" stroke="#396FBF" stroke-miterlimit="10" stroke-linecap="round" stroke-linejoin="round"/>
<path d="M30.7563 460.956C30.7563 460.956 39.4145 462.055 44.3252 476.528" stroke="white" stroke-miterlimit="10" stroke-linecap="round" stroke-linejoin="round"/>
<path opacity="0.4" d="M525.052 99.2455L553.87 98.4701L503.212 45.1637L481.567 50.2036L460.826 62.1572L473.555 69.5231L449.325 93.9472L474.201 104.867L487.511 101.378C487.059 105.255 484.862 109.261 479.112 112.556C468.192 118.888 447.838 124.122 440.279 110.876C436.854 104.802 436.596 90.1996 446.675 84.3843C452.038 81.2829 449.26 84.3197 455.98 83.8674L455.592 73.4C446.158 73.723 434.463 75.9199 424.965 81.4121C406.227 92.2672 402.35 108.808 423.608 121.085C445.189 133.555 472.198 131.036 490.936 120.18C500.628 114.624 505.539 108.033 505.474 100.861L489.708 100.796L515.941 93.9472L525.052 99.2455Z" fill="#A8C0E5"/>
<path d="M449.26 121.665C428.002 109.389 431.879 92.8477 450.617 81.9926C460.18 76.5004 471.81 74.3035 481.244 73.9805L481.631 84.4479C474.912 84.9002 468.773 85.934 463.41 89.0355C453.266 94.8507 453.007 104.026 465.866 111.456C479.047 119.081 493.779 119.404 504.699 113.136C510.708 109.647 512.84 105.383 513.098 101.312L530.996 101.441C531.061 108.549 526.15 115.139 516.458 120.761C497.785 131.616 470.776 134.136 449.26 121.665Z" fill="#1B498F"/>
<path d="M481.632 66.9386V84.4489L446.029 90.8457L434.851 102.67V84.5135L459.146 65.1294L481.632 66.9386Z" fill="#042D6A"/>
<path d="M531.061 101.507V83.9966L509.48 99.7624L472.844 108.744L450.746 99.7624L457.143 114.494L479.822 124.057C479.822 124.057 504.117 115.916 505.41 115.27C506.702 114.688 531.061 101.507 531.061 101.507Z" fill="#1B498F"/>
<path d="M489.708 61.4478V43.9375L570.54 71.3338V88.8441L553.87 98.5362L489.708 61.4478Z" fill="#1B498F"/>
<path d="M449.26 104.158C428.002 91.881 431.879 75.3399 450.617 64.4848C460.18 58.9926 471.81 56.7957 481.244 56.4727L481.631 66.9401C474.912 67.3924 468.773 68.4262 463.41 71.5277C453.266 77.3429 453.007 86.5181 465.866 93.9487C479.047 101.573 493.779 101.896 504.699 95.6286C510.708 92.1395 512.84 87.875 513.098 83.8043L530.996 83.9335C531.061 91.041 526.15 97.6317 516.458 103.253C497.785 114.108 470.776 116.628 449.26 104.158Z" fill="#0052CC"/>
<path d="M489.708 43.9361L506.443 34.3086L570.605 71.3323L553.87 80.9598L489.708 43.9361Z" fill="#0052CC"/>
<path d="M493.004 44.0664L553.87 79.0871" stroke="white" stroke-miterlimit="10" stroke-linecap="round" stroke-linejoin="round"/>
<path d="M437.371 81.929C437.371 81.929 432.008 97.5009 460.374 107.516C488.739 117.531 515.618 102.088 515.618 102.088" stroke="white" stroke-miterlimit="10" stroke-linecap="round" stroke-linejoin="round"/>
<path d="M555.227 82.3167V94.981" stroke="white" stroke-miterlimit="10" stroke-linecap="round" stroke-linejoin="round"/>
<path d="M494.167 42.645L505.668 36.1836" stroke="white" stroke-miterlimit="10" stroke-linecap="round" stroke-linejoin="round"/>
<path d="M480.404 62.4172L480.275 58.0234C480.275 58.0234 469.678 58.2173 461.278 61.1249" stroke="white" stroke-miterlimit="10" stroke-linecap="round" stroke-linejoin="round"/>
</g>
<defs>
<linearGradient id="paint0_linear" x1="427.27" y1="198.621" x2="367.815" y2="259.124" gradientUnits="userSpaceOnUse">
<stop offset="0.00558659" stop-color="#2B61B3"/>
<stop offset="0.034113" stop-color="#2A63B9"/>
<stop offset="0.1433" stop-color="#2869CA"/>
<stop offset="0.2793" stop-color="#276DD5"/>
<stop offset="0.4702" stop-color="#266FDC"/>
<stop offset="1" stop-color="#2670DE"/>
</linearGradient>
<linearGradient id="paint1_linear" x1="448.848" y1="319.927" x2="135.737" y2="319.927" gradientUnits="userSpaceOnUse">
<stop stop-color="#1F5BB5"/>
<stop offset="0.4609" stop-color="#3C80E6"/>
<stop offset="0.7356" stop-color="#3B7FE4"/>
<stop offset="0.8345" stop-color="#397BDD"/>
<stop offset="0.905" stop-color="#3574D2"/>
<stop offset="0.9617" stop-color="#306AC1"/>
<stop offset="0.9944" stop-color="#2B61B3"/>
</linearGradient>
<clipPath id="clip0">
<rect width="646.526" height="512" fill="white"/>
</clipPath>
</defs>
</svg>
