<svg width="80" height="80" viewBox="0 0 80 80" fill="none" xmlns="http://www.w3.org/2000/svg">
<g clip-path="url(#clip0)">
<path d="M59.7822 27.1887C59.7522 27.1886 59.722 27.1884 59.692 27.1884C54.6867 27.1806 49.9444 25.0253 46.6545 21.2531C41.7536 15.6337 34.5295 12.0934 26.4794 12.1292C11.8681 12.1939 -0.186716 24.4698 0.00219041 39.08C0.190159 53.609 12.0264 65.3292 26.6002 65.3292C30.7163 65.3292 34.6136 64.3937 38.0919 62.7242C41.0909 61.2847 44.6645 61.6642 47.3056 63.6868C50.7217 66.3032 54.9916 67.8608 59.6253 67.8686C70.7788 67.8872 79.9348 58.8029 79.9997 47.6497C80.065 36.392 71.0244 27.2548 59.7822 27.1887Z" fill="url(#paint0_linear)"/>
<path opacity="0.1" d="M66.3206 7.7373H31.964C30.6709 7.7373 29.6215 8.78668 29.6215 10.0798V22.9287H17.2304C16.581 22.9287 16.0546 23.4551 16.0546 24.1045V35.1309C16.0546 35.7803 16.581 36.3067 17.2304 36.3067H29.6215V55.4487H13.3824C12.5193 55.4487 11.8195 56.1484 11.8195 57.0117V67.7342C11.8195 68.5973 12.5191 69.2971 13.3824 69.2971H51.9495C52.8126 69.2971 53.5124 68.5975 53.5124 67.7342V61.4937H66.3206C67.6137 61.4937 68.6631 60.4443 68.6631 59.1512V10.0798C68.6631 8.78684 67.6137 7.7373 66.3206 7.7373Z" fill="#091E42"/>
<path d="M59.2676 72.9012C58.836 72.9012 58.4864 72.5516 58.4864 72.12C58.4864 71.6023 58.0653 71.1811 57.5476 71.1811C57.116 71.1811 56.7664 70.8314 56.7664 70.3998C56.7664 69.9683 57.116 69.6186 57.5476 69.6186C58.0653 69.6186 58.4864 69.1975 58.4864 68.6797C58.4864 68.2481 58.836 67.8984 59.2676 67.8984C59.6992 67.8984 60.0489 68.2481 60.0489 68.6797C60.0489 69.1973 60.47 69.6186 60.9878 69.6186C61.4193 69.6186 61.769 69.9683 61.769 70.3998C61.769 70.8314 61.4193 71.1811 60.9878 71.1811C60.4701 71.1811 60.0489 71.6022 60.0489 72.12C60.0489 72.5516 59.6992 72.9012 59.2676 72.9012Z" fill="#0052CC"/>
<path d="M19.3822 11.6455C18.9508 11.6455 18.6009 11.2958 18.6009 10.8642C18.6009 10.3461 18.1794 9.92437 17.6611 9.92437C17.2297 9.92437 16.8798 9.57469 16.8798 9.14312C16.8798 8.71156 17.2297 8.36187 17.6611 8.36187C18.1794 8.36187 18.6009 7.94031 18.6009 7.42188C18.6009 6.99031 18.9508 6.64062 19.3822 6.64062C19.8136 6.64062 20.1634 6.99031 20.1634 7.42188C20.1634 7.94016 20.585 8.36187 21.1033 8.36187C21.5347 8.36187 21.8845 8.71156 21.8845 9.14312C21.8845 9.57469 21.5347 9.92437 21.1033 9.92437C20.585 9.92437 20.1634 10.3459 20.1634 10.8642C20.1634 11.2958 19.8136 11.6455 19.3822 11.6455Z" fill="#0052CC"/>
<path d="M16.0547 23.5907C15.8475 23.5907 15.6488 23.5086 15.5022 23.3618L13.7811 21.6406C13.6346 21.494 13.5524 21.2954 13.5524 21.0882C13.5524 20.8811 13.6347 20.6823 13.7811 20.5359L15.5022 18.8148C15.8074 18.5096 16.3019 18.5096 16.6071 18.8148L18.3282 20.5359C18.4747 20.6825 18.5569 20.8811 18.5569 21.0882C18.5569 21.2954 18.4746 21.4942 18.3282 21.6406L16.6071 23.3618C16.4607 23.5086 16.2619 23.5907 16.0547 23.5907ZM15.4385 21.0882L16.0547 21.7045L16.671 21.0882L16.0547 20.4721L15.4385 21.0882Z" fill="#0052CC"/>
<path d="M24.5484 21.0438C24.117 21.0438 23.7671 20.6941 23.7671 20.2625C23.7671 19.7443 23.3456 19.3225 22.8273 19.3225C22.3959 19.3225 22.046 18.9728 22.046 18.5413C22.046 18.1097 22.3959 17.76 22.8273 17.76C23.3456 17.76 23.7671 17.3385 23.7671 16.8202C23.7671 16.3886 24.117 16.0389 24.5484 16.0389C24.9798 16.0389 25.3296 16.3886 25.3296 16.8202C25.3296 17.3383 25.7512 17.76 26.2695 17.76C26.7009 17.76 27.0507 18.1097 27.0507 18.5413C27.0507 18.9728 26.7009 19.3225 26.2695 19.3225C25.7512 19.3225 25.3296 19.7441 25.3296 20.2625C25.3296 20.6939 24.9798 21.0438 24.5484 21.0438Z" fill="#0052CC"/>
<path d="M68.6634 13.3611V62.4326C68.6634 63.7258 67.614 64.7751 66.3209 64.7751H31.9643C30.6712 64.7751 29.6218 63.7258 29.6218 62.4326V13.3611C29.6218 12.0679 30.6712 11.0186 31.9643 11.0186H66.3209C67.614 11.0186 68.6634 12.0679 68.6634 13.3611Z" fill="#0052CC"/>
<path d="M29.6218 58.7297V62.4324C29.6218 63.7255 30.6712 64.7749 31.9643 64.7749H66.3209C67.614 64.7749 68.6634 63.7255 68.6634 62.4324V58.7297H29.6218Z" fill="white"/>
<path d="M38.1457 11.0195V64.7763H31.9643C30.6718 64.7763 29.6215 63.7275 29.6215 62.4334V13.3623C29.6215 12.0698 30.6718 11.0195 31.9643 11.0195H38.1457Z" fill="white"/>
<path d="M35.3449 29.5997V40.6261C35.3449 41.2747 34.8197 41.8014 34.1696 41.8014H29.6215V28.4229H34.1696C34.8199 28.4229 35.3449 28.9496 35.3449 29.5997Z" fill="#B7C5FF"/>
<path d="M68.6634 18.5412V13.3611C68.6634 12.0673 67.6146 11.0186 66.3209 11.0186H31.9643C30.6706 11.0186 29.6218 12.0673 29.6218 13.3611V18.5414L68.6634 18.5412Z" fill="white"/>
<path d="M49.9168 36.1288H47.4581C47.0493 36.1288 46.6843 36.4275 46.6456 36.8344C46.6011 37.3011 46.9668 37.6939 47.4245 37.6939H49.9168C50.349 37.6939 50.6993 37.3436 50.6993 36.9114C50.6993 36.4793 50.349 36.1288 49.9168 36.1288Z" fill="#091E42"/>
<path d="M59.3605 36.1288H53.5136C53.0814 36.1288 52.7311 36.4791 52.7311 36.9113C52.7311 37.3435 53.0814 37.6938 53.5136 37.6938H59.3941C59.8517 37.6938 60.2175 37.301 60.173 36.8343C60.1342 36.4275 59.7692 36.1288 59.3605 36.1288Z" fill="#091E42"/>
<path d="M55.5434 39.4071H47.4583C47.0495 39.4071 46.6847 39.7059 46.6458 40.1127C46.6012 40.5794 46.967 40.9723 47.4247 40.9723H55.5436C55.9758 40.9723 56.3261 40.6219 56.3261 40.1898C56.3259 39.7574 55.9756 39.4071 55.5434 39.4071Z" fill="#091E42"/>
<path d="M64.0494 39.4071H59.1402C58.708 39.4071 58.3577 39.7574 58.3577 40.1896C58.3577 40.6218 58.708 40.9721 59.1402 40.9721H64.083C64.5406 40.9721 64.9064 40.5793 64.8619 40.1126C64.8231 39.7059 64.4581 39.4071 64.0494 39.4071Z" fill="#091E42"/>
<path d="M53.1989 42.6835H47.4581C47.0493 42.6835 46.6843 42.9822 46.6456 43.3891C46.6011 43.8558 46.9668 44.2486 47.4245 44.2486H53.199C53.6312 44.2486 53.9815 43.8983 53.9815 43.4661C53.9815 43.0339 53.6312 42.6835 53.1989 42.6835Z" fill="#091E42"/>
<path d="M59.3606 42.6835H56.7959C56.3637 42.6835 56.0134 43.0338 56.0134 43.466C56.0134 43.8982 56.3637 44.2485 56.7959 44.2485H59.3944C59.852 44.2485 60.2178 43.8557 60.1733 43.3889C60.1344 42.9824 59.7694 42.6835 59.3606 42.6835Z" fill="#091E42"/>
<path d="M64.0494 45.9602H54.4514C54.0193 45.9602 53.6689 46.3105 53.6689 46.7427C53.6689 47.1749 54.0193 47.5252 54.4514 47.5252H64.083C64.5407 47.5252 64.9065 47.1324 64.8619 46.6657C64.823 46.259 64.458 45.9602 64.0494 45.9602Z" fill="#091E42"/>
<path d="M50.8545 45.9602H47.4581C47.0493 45.9602 46.6843 46.259 46.6456 46.6658C46.6011 47.1326 46.9668 47.5254 47.4245 47.5254H50.8545C51.2867 47.5254 51.637 47.175 51.637 46.7429C51.6372 46.3105 51.2867 45.9602 50.8545 45.9602Z" fill="#091E42"/>
<path d="M45.3842 30.6835H42.7692C42.3604 30.6835 41.9954 30.9822 41.9567 31.3891C41.9121 31.8558 42.2779 32.2486 42.7356 32.2486H45.3842C45.8164 32.2486 46.1668 31.8983 46.1668 31.4661C46.1667 31.0339 45.8164 30.6835 45.3842 30.6835Z" fill="#091E42"/>
<path d="M59.3603 30.6835H49.1893C48.7571 30.6835 48.4067 31.0338 48.4067 31.466C48.4067 31.8982 48.757 32.2485 49.1893 32.2485H59.3939C59.8515 32.2485 60.2173 31.8557 60.1728 31.3889C60.134 30.9824 59.769 30.6835 59.3603 30.6835Z" fill="#091E42"/>
<path d="M45.3842 51.8713H42.7692C42.3604 51.8713 41.9954 52.1701 41.9567 52.577C41.9121 53.0437 42.2779 53.4365 42.7356 53.4365H45.3842C45.8164 53.4365 46.1668 53.0862 46.1668 52.654C46.1667 52.2215 45.8164 51.8713 45.3842 51.8713Z" fill="#091E42"/>
<path d="M59.3603 51.8713H49.1893C48.7571 51.8713 48.4067 52.2216 48.4067 52.654C48.4067 53.0862 48.757 53.4365 49.1893 53.4365H59.3939C59.8515 53.4365 60.2173 53.0437 60.1728 52.577C60.134 52.1701 59.769 51.8713 59.3603 51.8713Z" fill="#091E42"/>
<path d="M34.1699 39.5889H17.2308C16.5815 39.5889 16.0551 39.0625 16.0551 38.4131V27.3867C16.0551 26.7373 16.5815 26.2109 17.2308 26.2109H34.1699C34.8193 26.2109 35.3457 26.7373 35.3457 27.3867V38.4131C35.3457 39.0625 34.8193 39.5889 34.1699 39.5889Z" fill="white"/>
<path d="M22.045 35.5604C21.845 35.5604 21.6449 35.484 21.4924 35.3315L19.6109 33.4501C19.3056 33.1448 19.3056 32.65 19.6109 32.3446L21.4924 30.4632C21.7974 30.1581 22.2927 30.1581 22.5977 30.4632C22.903 30.7686 22.903 31.2634 22.5977 31.5687L21.2691 32.8973L22.5977 34.2259C22.903 34.5312 22.903 35.0261 22.5977 35.3314C22.4452 35.4842 22.245 35.5604 22.045 35.5604Z" fill="#091E42"/>
<path d="M29.3556 30.2344C29.5556 30.2344 29.7558 30.3108 29.9083 30.4633L31.7897 32.3447C32.095 32.65 32.095 33.1448 31.7897 33.4502L29.9082 35.3314C29.6032 35.6366 29.1078 35.6366 28.8028 35.3314C28.4975 35.0261 28.4975 34.5312 28.8028 34.2259L30.1314 32.8973L28.8028 31.5688C28.4975 31.2634 28.4975 30.7686 28.8028 30.4633C28.9555 30.3108 29.1556 30.2344 29.3556 30.2344Z" fill="#091E42"/>
<path d="M24.6369 35.5605C24.5067 35.5605 24.3747 35.5278 24.2534 35.4594C23.8775 35.247 23.7448 34.7703 23.9572 34.3944L26.0819 30.6317C26.294 30.2559 26.7709 30.1233 27.1467 30.3355C27.5226 30.5478 27.6553 31.0245 27.4429 31.4005L25.3183 35.1631C25.1745 35.4175 24.9097 35.5605 24.6369 35.5605Z" fill="#091E42"/>
<path d="M51.9495 72.5782H13.3824C12.5193 72.5782 11.8195 71.8785 11.8195 71.0152V60.2927C11.8195 59.4296 12.5191 58.7297 13.3824 58.7297H51.9495C52.8126 58.7297 53.5124 59.4294 53.5124 60.2927V71.0152C53.5124 71.8783 52.8127 72.5782 51.9495 72.5782Z" fill="white"/>
<path d="M35.5684 13.9884C35.137 13.9884 34.7872 14.3381 34.7872 14.7697V14.7923C34.7872 15.2239 35.137 15.5736 35.5684 15.5736C35.9998 15.5736 36.3497 15.2239 36.3497 14.7923V14.7697C36.3497 14.3382 36 13.9884 35.5684 13.9884Z" fill="#091E42"/>
<path d="M38.5868 13.9884C38.1554 13.9884 37.8055 14.3381 37.8055 14.7697V14.7923C37.8055 15.2239 38.1554 15.5736 38.5868 15.5736C39.0182 15.5736 39.368 15.2239 39.368 14.7923V14.7697C39.368 14.3382 39.0182 13.9884 38.5868 13.9884Z" fill="#091E42"/>
<path d="M41.6042 13.9884C41.1727 13.9884 40.823 14.3381 40.823 14.7697V14.7923C40.823 15.2239 41.1727 15.5736 41.6042 15.5736C42.0358 15.5736 42.3855 15.2239 42.3855 14.7923V14.7697C42.3855 14.3382 42.0358 13.9884 41.6042 13.9884Z" fill="#091E42"/>
<path d="M66.3206 10.2383H31.964C30.2415 10.2383 28.8402 11.6397 28.8402 13.362V21.9092C28.8402 22.3408 29.1901 22.6905 29.6215 22.6905C30.0529 22.6905 30.4027 22.3408 30.4027 21.9092V19.3234H67.8818V62.4331C67.8818 63.2939 67.1815 63.9942 66.3206 63.9942H54.2937V60.2936C54.2937 59.0011 53.2421 57.9494 51.9495 57.9494H33.9259C33.4945 57.9494 33.1446 58.2991 33.1446 58.7306C33.1446 59.1622 33.4945 59.5119 33.9259 59.5119H51.9496C52.3807 59.5119 52.7313 59.8625 52.7313 60.2936V71.0161C52.7313 71.4472 52.3807 71.7978 51.9496 71.7978H13.3824C12.9513 71.7978 12.6007 71.4472 12.6007 71.0161V60.2936C12.6007 59.8625 12.9513 59.5119 13.3824 59.5119H29.6215C30.0529 59.5119 30.4027 59.1622 30.4027 58.7306V40.3702H34.1695C35.2485 40.3702 36.1263 39.4923 36.1263 38.4133V27.3869C36.1263 26.3078 35.2484 25.43 34.1695 25.43H17.2304C16.1513 25.43 15.2734 26.3078 15.2734 27.3869V32.1189H14.4765C12.5807 32.1189 11.0382 33.6613 11.0382 35.557V40.6473C11.0382 42.5433 12.5807 44.0856 14.4765 44.0856H20.7207C21.7601 44.0856 22.6056 44.9313 22.6056 45.9705C22.6056 47.0097 21.7599 47.8553 20.7207 47.8553H14.4765C12.5807 47.8553 11.0382 49.3977 11.0382 51.2936C11.0382 53.1895 12.5807 54.7319 14.4765 54.7319H20.436C21.4704 54.7319 22.3118 55.5733 22.3118 56.6075V57.9497H13.3824C12.0899 57.9497 11.0382 59.0012 11.0382 60.2939V71.0164C11.0382 72.3089 12.0898 73.3606 13.3824 73.3606H51.9495C53.242 73.3606 54.2937 72.3091 54.2937 71.0164V65.557H66.3206C68.0429 65.557 69.4443 64.1558 69.4443 62.4334V13.3622C69.4443 11.6397 68.0429 10.2383 66.3206 10.2383ZM16.8359 27.3867C16.8359 27.1692 17.0129 26.9923 17.2304 26.9923H34.1696C34.3871 26.9923 34.564 27.1694 34.564 27.3867V38.4131C34.564 38.6306 34.3871 38.8075 34.1696 38.8075H17.2304C17.0129 38.8075 16.8359 38.6305 16.8359 38.4131V27.3867ZM20.436 53.1694H14.4765C13.4421 53.1694 12.6007 52.3278 12.6007 51.2936C12.6007 50.2594 13.4421 49.4178 14.4765 49.4178H20.7207C22.6216 49.4178 24.1681 47.8714 24.1681 45.9705C24.1681 44.0695 22.6216 42.5231 20.7207 42.5231H14.4765C13.4421 42.5231 12.6007 41.6816 12.6007 40.6473V35.557C12.6007 34.5228 13.4421 33.6814 14.4765 33.6814H15.2734V38.4133C15.2734 39.4923 16.1513 40.3702 17.2304 40.3702H28.8402V57.9497H23.8743V56.6075C23.8743 54.7117 22.332 53.1694 20.436 53.1694ZM30.4027 17.7611V13.3622C30.4027 12.5013 31.1031 11.8009 31.964 11.8009H66.3206C67.1815 11.8009 67.8818 12.5013 67.8818 13.3622V17.7611H30.4027Z" fill="#091E42"/>
<path d="M35.1296 45.6133C35.1296 45.1817 34.7798 44.832 34.3484 44.832C33.917 44.832 33.5671 45.1817 33.5671 45.6133V45.6361C33.5671 46.0677 33.917 46.4173 34.3484 46.4173C34.7798 46.4173 35.1296 46.0677 35.1296 45.6361V45.6133Z" fill="#091E42"/>
<path d="M34.3484 51.9187C33.917 51.9187 33.5671 52.2684 33.5671 52.7V52.7228C33.5671 53.1543 33.917 53.504 34.3484 53.504C34.7798 53.504 35.1296 53.1543 35.1296 52.7228V52.7C35.1296 52.2687 34.7798 51.9187 34.3484 51.9187Z" fill="#091E42"/>
<path d="M16.2163 62.6289C16.2163 62.1973 15.8665 61.8477 15.4351 61.8477C15.0037 61.8477 14.6538 62.1973 14.6538 62.6289V62.6469C14.6538 63.0784 15.0037 63.4281 15.4351 63.4281C15.8665 63.4281 16.2163 63.0784 16.2163 62.6469V62.6289Z" fill="#091E42"/>
<path d="M20.0454 62.6289C20.0454 62.1973 19.6956 61.8477 19.2642 61.8477C18.8328 61.8477 18.4829 62.1973 18.4829 62.6289V62.6469C18.4829 63.0784 18.8328 63.4281 19.2642 63.4281C19.6956 63.4281 20.0454 63.0784 20.0454 62.6469V62.6289Z" fill="#091E42"/>
<path d="M23.0928 63.4281C23.5242 63.4281 23.874 63.0784 23.874 62.6469V62.6289C23.874 62.1973 23.5242 61.8477 23.0928 61.8477C22.6614 61.8477 22.3115 62.1973 22.3115 62.6289V62.6469C22.3115 63.0784 22.6614 63.4281 23.0928 63.4281Z" fill="#091E42"/>
<path d="M27.7034 62.6469V62.6289C27.7034 62.1973 27.3535 61.8477 26.9221 61.8477C26.4907 61.8477 26.1409 62.1973 26.1409 62.6289V62.6469C26.1409 63.0784 26.4907 63.4281 26.9221 63.4281C27.3535 63.4281 27.7034 63.0784 27.7034 62.6469Z" fill="#091E42"/>
<path d="M31.5325 62.6469V62.6289C31.5325 62.1973 31.1827 61.8477 30.7513 61.8477C30.3199 61.8477 29.97 62.1973 29.97 62.6289V62.6469C29.97 63.0784 30.3199 63.4281 30.7513 63.4281C31.1827 63.4281 31.5325 63.0784 31.5325 62.6469Z" fill="#091E42"/>
<path d="M35.3619 62.6469V62.6289C35.3619 62.1973 35.012 61.8477 34.5806 61.8477C34.1492 61.8477 33.7994 62.1973 33.7994 62.6289V62.6469C33.7994 63.0784 34.1492 63.4281 34.5806 63.4281C35.012 63.4281 35.3619 63.0784 35.3619 62.6469Z" fill="#091E42"/>
<path d="M39.1912 62.6469V62.6289C39.1912 62.1973 38.8414 61.8477 38.41 61.8477C37.9786 61.8477 37.6287 62.1973 37.6287 62.6289V62.6469C37.6287 63.0784 37.9786 63.4281 38.41 63.4281C38.8414 63.4281 39.1912 63.0784 39.1912 62.6469Z" fill="#091E42"/>
<path d="M42.2391 63.4281C42.6707 63.4281 43.0204 63.0784 43.0204 62.6469V62.6289C43.0204 62.1973 42.6707 61.8477 42.2391 61.8477C41.8076 61.8477 41.4579 62.1973 41.4579 62.6289V62.6469C41.4579 63.0784 41.8076 63.4281 42.2391 63.4281Z" fill="#091E42"/>
<path d="M46.0677 63.4281C46.4993 63.4281 46.849 63.0784 46.849 62.6469V62.6289C46.849 62.1973 46.4993 61.8477 46.0677 61.8477C45.6362 61.8477 45.2865 62.1973 45.2865 62.6289V62.6469C45.2865 63.0784 45.6362 63.4281 46.0677 63.4281Z" fill="#091E42"/>
<path d="M49.8971 63.4281C50.3287 63.4281 50.6783 63.0784 50.6783 62.6469V62.6289C50.6783 62.1973 50.3287 61.8477 49.8971 61.8477C49.4655 61.8477 49.1158 62.1973 49.1158 62.6289V62.6469C49.1158 63.0784 49.4655 63.4281 49.8971 63.4281Z" fill="#091E42"/>
<path d="M16.5684 65.6445V65.6625C16.5684 66.0941 16.9182 66.4438 17.3496 66.4438C17.781 66.4438 18.1309 66.0941 18.1309 65.6625V65.6445C18.1309 65.213 17.781 64.8633 17.3496 64.8633C16.9182 64.8633 16.5684 65.213 16.5684 65.6445Z" fill="#091E42"/>
<path d="M20.3969 65.6445V65.6625C20.3969 66.0941 20.7468 66.4438 21.1782 66.4438C21.6096 66.4438 21.9594 66.0941 21.9594 65.6625V65.6445C21.9594 65.213 21.6096 64.8633 21.1782 64.8633C20.7468 64.8633 20.3969 65.213 20.3969 65.6445Z" fill="#091E42"/>
<path d="M25.7888 65.6625V65.6445C25.7888 65.213 25.4389 64.8633 25.0075 64.8633C24.5761 64.8633 24.2263 65.213 24.2263 65.6445V65.6625C24.2263 66.0941 24.5761 66.4438 25.0075 66.4438C25.4389 66.4438 25.7888 66.0941 25.7888 65.6625Z" fill="#091E42"/>
<path d="M29.6179 65.6625V65.6445C29.6179 65.213 29.2681 64.8633 28.8367 64.8633C28.4053 64.8633 28.0554 65.213 28.0554 65.6445V65.6625C28.0554 66.0941 28.4053 66.4438 28.8367 66.4438C29.2681 66.4438 29.6179 66.0941 29.6179 65.6625Z" fill="#091E42"/>
<path d="M32.666 64.8633C32.2346 64.8633 31.8848 65.213 31.8848 65.6445V65.6625C31.8848 66.0941 32.2346 66.4438 32.666 66.4438C33.0974 66.4438 33.4473 66.0941 33.4473 65.6625V65.6445C33.4473 65.213 33.0974 64.8633 32.666 64.8633Z" fill="#091E42"/>
<path d="M37.2767 65.6625V65.6445C37.2767 65.213 36.9268 64.8633 36.4954 64.8633C36.064 64.8633 35.7142 65.213 35.7142 65.6445V65.6625C35.7142 66.0941 36.064 66.4438 36.4954 66.4438C36.9268 66.4438 37.2767 66.0941 37.2767 65.6625Z" fill="#091E42"/>
<path d="M41.1058 65.6625V65.6445C41.1058 65.213 40.7561 64.8633 40.3246 64.8633C39.8932 64.8633 39.5433 65.213 39.5433 65.6445V65.6625C39.5433 66.0941 39.8932 66.4438 40.3246 66.4438C40.7561 66.4438 41.1058 66.0941 41.1058 65.6625Z" fill="#091E42"/>
<path d="M44.9343 65.6625V65.6445C44.9343 65.213 44.5846 64.8633 44.1531 64.8633C43.7215 64.8633 43.3718 65.213 43.3718 65.6445V65.6625C43.3718 66.0941 43.7215 66.4438 44.1531 66.4438C44.5846 66.4438 44.9343 66.0941 44.9343 65.6625Z" fill="#091E42"/>
<path d="M48.7637 65.6625V65.6445C48.7637 65.213 48.414 64.8633 47.9825 64.8633C47.5509 64.8633 47.2012 65.213 47.2012 65.6445V65.6625C47.2012 66.0941 47.5509 66.4438 47.9825 66.4438C48.414 66.4438 48.7637 66.0941 48.7637 65.6625Z" fill="#091E42"/>
<path d="M15.4351 67.8789C15.0037 67.8789 14.6538 68.2286 14.6538 68.6602V68.6781C14.6538 69.1097 15.0037 69.4594 15.4351 69.4594C15.8665 69.4594 16.2163 69.1097 16.2163 68.6781V68.6602C16.2163 68.2286 15.8665 67.8789 15.4351 67.8789Z" fill="#091E42"/>
<path d="M19.2642 67.8789C18.8328 67.8789 18.4829 68.2286 18.4829 68.6602V68.6781C18.4829 69.1097 18.8328 69.4594 19.2642 69.4594C19.6956 69.4594 20.0454 69.1097 20.0454 68.6781V68.6602C20.0454 68.2286 19.6957 67.8789 19.2642 67.8789Z" fill="#091E42"/>
<path d="M22.3115 68.6798C22.3115 69.1114 22.6614 69.4611 23.0928 69.4611H38.4093C38.8407 69.4611 39.1906 69.1114 39.1906 68.6798C39.1906 68.2482 38.8407 67.8986 38.4093 67.8986H23.0928C22.6614 67.8986 22.3115 68.2482 22.3115 68.6798Z" fill="#091E42"/>
<path d="M41.4579 68.6781C41.4579 69.1097 41.8076 69.4594 42.2391 69.4594C42.6707 69.4594 43.0204 69.1097 43.0204 68.6781V68.6602C43.0204 68.2286 42.6707 67.8789 42.2391 67.8789C41.8076 67.8789 41.4579 68.2286 41.4579 68.6602V68.6781Z" fill="#091E42"/>
<path d="M45.2865 68.6781C45.2865 69.1097 45.6362 69.4594 46.0677 69.4594C46.4993 69.4594 46.849 69.1097 46.849 68.6781V68.6602C46.849 68.2286 46.4993 67.8789 46.0677 67.8789C45.6362 67.8789 45.2865 68.2286 45.2865 68.6602V68.6781Z" fill="#091E42"/>
<path d="M49.1158 68.6781C49.1158 69.1097 49.4655 69.4594 49.8971 69.4594C50.3287 69.4594 50.6783 69.1097 50.6783 68.6781V68.6602C50.6783 68.2286 50.3287 67.8789 49.8971 67.8789C49.4655 67.8789 49.1158 68.2286 49.1158 68.6602V68.6781Z" fill="#091E42"/>
<path d="M37.8055 57.9497H68.3994V59.5122H37.8055V57.9497Z" fill="#091E42"/>
</g>
<defs>
<linearGradient id="paint0_linear" x1="-4.81547" y1="29.2215" x2="82.593" y2="55.6742" gradientUnits="userSpaceOnUse">
<stop stop-color="#D2DEFF" stop-opacity="0"/>
<stop offset="1" stop-color="#B7C5FF"/>
</linearGradient>
<clipPath id="clip0">
<rect width="80" height="80" fill="white"/>
</clipPath>
</defs>
</svg>
