<svg width="24" height="24" viewBox="-2 -2 22 22" fill="none" xmlns="http://www.w3.org/2000/svg">
<path d="M17.0715 14.4678L5.53227 2.92856C4.81467 2.21095 3.64703 2.21093 2.92852 2.92944C2.21091 3.64704 2.21091 4.81471 2.92852 5.53231L14.4678 17.0716C15.1854 17.7892 16.353 17.7892 17.0707 17.0716C17.7892 16.3531 17.7891 15.1854 17.0715 14.4678Z" fill="white"/>
<path d="M5.5321 17.0716L17.0714 5.53238C17.789 4.81478 17.789 3.64714 17.0705 2.92863C16.3529 2.21103 15.1852 2.21103 14.4676 2.92863L2.92835 14.4679C2.21075 15.1855 2.21075 16.3532 2.92835 17.0708C3.64686 17.7893 4.8145 17.7893 5.5321 17.0716Z" fill="white"/>
</svg>
