<svg width="20" height="20" viewBox="0 0 20 20" fill="none" xmlns="http://www.w3.org/2000/svg">
<path d="M17.0717 14.4677L5.53239 2.92839C4.81479 2.21079 3.64715 2.21076 2.92864 2.92927C2.21104 3.64688 2.21104 4.81454 2.92864 5.53214L14.4679 17.0714C15.1855 17.789 16.3532 17.789 17.0708 17.0714C17.7893 16.3529 17.7893 15.1853 17.0717 14.4677Z" fill="#091E42"/>
<path d="M5.53235 17.0717L17.0716 5.53239C17.7892 4.81479 17.7892 3.64715 17.0707 2.92864C16.3531 2.21104 15.1855 2.21104 14.4679 2.92864L2.92859 14.4679C2.21099 15.1855 2.21099 16.3532 2.92859 17.0708C3.64711 17.7893 4.81474 17.7893 5.53235 17.0717Z" fill="#091E42"/>
</svg>
