<svg width="20" height="20" viewBox="0 0 20 20" fill="none" xmlns="http://www.w3.org/2000/svg">
<path d="M15.7274 4.27258C14.2618 2.80701 12.3137 2 10.241 2C10.2408 2 10.2404 2 10.2402 2C9.21509 2.00012 8.21607 2.19861 7.27112 2.59009C6.32605 2.98157 5.47937 3.54761 4.7544 4.27258C3.28894 5.73804 2.48194 7.68652 2.48194 9.75903C2.48194 10.995 2.78015 12.2233 3.34522 13.3176L2.04102 17.0435C1.9491 17.3063 2.01416 17.5919 2.21118 17.7888C2.349 17.9268 2.5304 18 2.71692 18C2.79688 18 2.87769 17.9866 2.95654 17.959L6.68237 16.6549C7.77673 17.22 9.00501 17.5182 10.241 17.5182C12.3135 17.5182 14.2618 16.7111 15.7274 15.2456C17.1929 13.7802 18 11.8317 18 9.75916C18 7.68652 17.193 5.73804 15.7274 4.27258ZM15.0638 14.582C13.7756 15.8704 12.0627 16.5797 10.241 16.5797C9.12647 16.5797 8.01929 16.3041 7.03906 15.7823C6.86133 15.6879 6.65125 15.6716 6.46265 15.7377L3.07764 16.9224L4.26245 13.5374C4.32849 13.3485 4.31214 13.1384 4.21765 12.9608C3.69605 11.9808 3.42029 10.8737 3.42029 9.75903C3.42029 7.93726 4.12976 6.22437 5.41797 4.93616C6.70606 3.64807 8.4187 2.9386 10.2404 2.93835H10.241C12.0629 2.93835 13.7756 3.64783 15.0638 4.93616C16.3522 6.22437 17.0616 7.93713 17.0616 9.75903C17.0616 11.5809 16.3522 13.2938 15.0638 14.582Z" fill="#0052CC" stroke="#0052CC"/>
<path d="M12.7523 10.6276C12.415 10.2903 11.8661 10.2903 11.5288 10.6276L11.1599 10.9966C10.2438 10.4974 9.50244 9.75599 9.00315 8.83984L9.37208 8.47088C9.70952 8.13354 9.70952 7.58461 9.37208 7.24727L8.37788 6.25301C8.04055 5.91566 7.49165 5.91566 7.15433 6.25301L6.35901 7.04837C5.90344 7.50397 5.88072 8.28721 6.29499 9.2539C6.65469 10.0932 7.31296 11.0157 8.14853 11.8513C8.98411 12.687 9.90656 13.3453 10.7458 13.705C11.2051 13.9018 11.6228 14 11.9838 14C12.3826 14 12.7121 13.8801 12.9512 13.641L13.7465 12.8455C13.91 12.682 14 12.4649 14 12.2338C14 12.0026 13.91 11.7854 13.7465 11.622L12.7523 10.6276Z" fill="#0052CC"/>
</svg>
