<svg width="48" height="48" viewBox="0 0 48 48" fill="none" xmlns="http://www.w3.org/2000/svg">
<g clip-path="url(#clip0)">
<path d="M46.9287 18.8063C47.6019 17.2872 47.9826 15.6096 47.9993 13.845C48.0634 7.09771 42.7295 1.46071 35.9879 1.17317C33.7763 1.07886 31.6843 1.55671 29.8478 2.47096C26.1614 4.30611 21.8381 4.30611 18.1518 2.47096C16.3153 1.55671 14.2234 1.07886 12.0117 1.17317C5.27036 1.4608 -0.0635447 7.09761 0.000486574 13.845C0.0172678 15.6096 0.397893 17.2872 1.07102 18.8063C2.53614 22.1128 2.53614 25.8873 1.07102 29.1938C0.397893 30.713 0.0171741 32.3906 0.000486574 34.1553C-0.0635447 40.9026 5.27036 46.5395 12.0119 46.827C14.2236 46.9213 16.3155 46.4435 18.152 45.5292C21.8383 43.694 26.1615 43.694 29.8478 45.5292C31.6842 46.4435 33.7763 46.9213 35.9879 46.827C42.7294 46.5395 48.0633 40.9025 47.9993 34.1553C47.9825 32.3906 47.6019 30.713 46.9287 29.1939C45.4636 25.8873 45.4636 22.1128 46.9287 18.8063Z" fill="url(#paint0_linear)"/>
<path opacity="0.1" d="M44.19 18.6296H34.9419V9.99532C34.9419 9.14125 34.2501 8.44938 33.396 8.44938H29.1193C29.0802 7.96769 28.6774 7.58838 28.1857 7.58838H3.81067C3.29317 7.58838 2.87317 8.00838 2.87317 8.52588V15.2759C2.87317 15.7934 3.29317 16.2134 3.81067 16.2134H12.8947V29.7232H3.81067C3.29317 29.7232 2.87317 30.1432 2.87317 30.6607V37.4107C2.87317 37.9282 3.29317 38.3482 3.81067 38.3482H12.8947V44.2431C12.8947 45.0972 13.5865 45.79 14.4406 45.79H33.3959C34.25 45.79 34.9419 45.0972 34.9419 44.2431V27.2546H44.1899C44.7074 27.2546 45.1274 26.8346 45.1274 26.3171V19.5671C45.1275 19.0496 44.7075 18.6296 44.19 18.6296Z" fill="#091E42"/>
<path d="M34.9424 7.46403V41.7118C34.9424 42.5659 34.2505 43.2587 33.3965 43.2587H14.4412C13.5871 43.2587 12.8952 42.5659 12.8952 41.7118V7.46403C12.8952 7.31215 12.9168 7.16497 12.958 7.02622C13.1465 6.3859 13.739 5.91809 14.4412 5.91809H33.3965C34.2505 5.91809 34.9424 6.60997 34.9424 7.46403Z" fill="#0052CC"/>
<path d="M12.8952 9.01068H34.9424V40.1657H12.8952V9.01068Z" fill="white"/>
<path d="M29.0067 8.12297C29.256 8.12297 29.4581 7.92087 29.4581 7.67156C29.4581 7.42226 29.256 7.22015 29.0067 7.22015C28.7574 7.22015 28.5553 7.42226 28.5553 7.67156C28.5553 7.92087 28.7574 8.12297 29.0067 8.12297Z" fill="#0052CC"/>
<path d="M30.5367 8.12297C30.786 8.12297 30.9881 7.92087 30.9881 7.67156C30.9881 7.42226 30.786 7.22015 30.5367 7.22015C30.2874 7.22015 30.0853 7.42226 30.0853 7.67156C30.0853 7.92087 30.2874 8.12297 30.5367 8.12297Z" fill="#091E42"/>
<path d="M29.1232 5.99463V12.7446C29.1232 13.2621 28.7032 13.6821 28.1857 13.6821H23.1897L22.4004 16.0015C22.151 16.7346 21.1141 16.7346 20.8647 16.0015L20.0763 13.6821H3.81067C3.29317 13.6821 2.87317 13.2621 2.87317 12.7446V5.99463C2.87317 5.47713 3.29317 5.05713 3.81067 5.05713H28.1857C28.7032 5.05713 29.1232 5.47713 29.1232 5.99463Z" fill="white"/>
<path d="M6.22458 10.8964H25.7733C26.0323 10.8964 26.2421 11.1063 26.2421 11.3652C26.2421 11.624 26.0323 11.8339 25.7733 11.8339H6.22458C5.96564 11.8339 5.75583 11.624 5.75583 11.3652C5.75583 11.1063 5.96564 10.8964 6.22458 10.8964Z" fill="#091E42"/>
<path d="M20.952 9.06793H25.7741C26.033 9.06793 26.2428 9.27784 26.2428 9.53668C26.2428 9.79553 26.033 10.0054 25.7741 10.0054H20.952C20.693 10.0054 20.4832 9.79553 20.4832 9.53668C20.4832 9.27784 20.693 9.06793 20.952 9.06793Z" fill="#091E42"/>
<path d="M18.6967 9.06793H14.9777C14.7189 9.06793 14.509 9.27784 14.509 9.53668C14.509 9.79553 14.7189 10.0054 14.9777 10.0054H18.7167C18.9909 10.0054 19.21 9.77012 19.1832 9.49056C19.1601 9.2469 18.9415 9.06793 18.6967 9.06793Z" fill="#091E42"/>
<path d="M24.0866 7.70544C24.3455 7.70544 24.5554 7.49558 24.5554 7.23669C24.5554 6.97781 24.3455 6.76794 24.0866 6.76794C23.8277 6.76794 23.6179 6.97781 23.6179 7.23669C23.6179 7.49558 23.8277 7.70544 24.0866 7.70544Z" fill="#091E42"/>
<path d="M25.6101 7.70544C25.869 7.70544 26.0788 7.49558 26.0788 7.23669C26.0788 6.97781 25.869 6.76794 25.6101 6.76794C25.3512 6.76794 25.1413 6.97781 25.1413 7.23669C25.1413 7.49558 25.3512 7.70544 25.6101 7.70544Z" fill="#091E42"/>
<path d="M9.71733 9.6744C11.9052 9.6744 13.6788 7.90078 13.6788 5.7129C13.6788 3.52503 11.9052 1.7514 9.71733 1.7514C7.52945 1.7514 5.75583 3.52503 5.75583 5.7129C5.75583 7.90078 7.52945 9.6744 9.71733 9.6744Z" fill="#0052CC"/>
<path d="M11.2752 5.16855C11.2752 4.30971 10.5765 3.61108 9.71771 3.61108C8.85896 3.61108 8.16024 4.3098 8.16024 5.16855C8.16024 5.59211 8.33068 5.97621 8.60602 6.25727C8.33077 6.53833 8.16024 6.92243 8.16024 7.34599C8.16024 7.60483 8.37006 7.81474 8.62899 7.81474C8.88793 7.81474 9.09774 7.60483 9.09774 7.34599C9.09774 7.00418 9.3759 6.72602 9.71771 6.72602C10.0595 6.72602 10.3377 7.00418 10.3377 7.34599C10.3377 7.60483 10.5475 7.81474 10.8064 7.81474C11.0654 7.81474 11.2752 7.60483 11.2752 7.34599C11.2752 6.92243 11.1047 6.53833 10.8294 6.25727C11.1047 5.97621 11.2752 5.59211 11.2752 5.16855ZM9.71771 4.54858C10.0595 4.54858 10.3377 4.82674 10.3377 5.16855C10.3377 5.51036 10.0595 5.78852 9.71771 5.78852C9.3759 5.78852 9.09774 5.51036 9.09774 5.16855C9.09774 4.82674 9.37581 4.54858 9.71771 4.54858Z" fill="#091E42"/>
<path d="M27.4357 28.1299V34.8799C27.4357 35.3974 27.0157 35.8174 26.4982 35.8174H21.5022L20.7129 38.1368C20.4635 38.8699 19.4266 38.8699 19.1772 38.1368L18.3888 35.8174H3.81067C3.29317 35.8174 2.87317 35.3974 2.87317 34.8799V28.1299C2.87317 27.6124 3.29317 27.1924 3.81067 27.1924H26.4982C27.0157 27.1924 27.4357 27.6124 27.4357 28.1299Z" fill="white"/>
<path d="M13.2558 33.0311H24.0858C24.3448 33.0311 24.5546 33.241 24.5546 33.4999C24.5546 33.7587 24.3448 33.9686 24.0858 33.9686H13.2558C12.9969 33.9686 12.7871 33.7587 12.7871 33.4999C12.7871 33.241 12.9969 33.0311 13.2558 33.0311Z" fill="#091E42"/>
<path d="M19.2645 31.2028H24.0866C24.3455 31.2028 24.5553 31.4127 24.5553 31.6715C24.5553 31.9304 24.3455 32.1403 24.0866 32.1403H19.2645C19.0055 32.1403 18.7957 31.9304 18.7957 31.6715C18.7957 31.4127 19.0055 31.2028 19.2645 31.2028Z" fill="#091E42"/>
<path d="M17.0092 31.2028H14.9777C14.7189 31.2028 14.509 31.4127 14.509 31.6715C14.509 31.9304 14.7189 32.1403 14.9777 32.1403H17.0292C17.3034 32.1403 17.5225 31.9049 17.4957 31.6254C17.4726 31.3816 17.254 31.2028 17.0092 31.2028Z" fill="#091E42"/>
<path d="M22.3991 29.8407C22.658 29.8407 22.8679 29.6308 22.8679 29.3719C22.8679 29.1131 22.658 28.9032 22.3991 28.9032C22.1402 28.9032 21.9304 29.1131 21.9304 29.3719C21.9304 29.6308 22.1402 29.8407 22.3991 29.8407Z" fill="#091E42"/>
<path d="M23.9226 29.8407C24.1815 29.8407 24.3913 29.6308 24.3913 29.3719C24.3913 29.1131 24.1815 28.9032 23.9226 28.9032C23.6637 28.9032 23.4538 29.1131 23.4538 29.3719C23.4538 29.6308 23.6637 29.8407 23.9226 29.8407Z" fill="#091E42"/>
<path d="M9.71733 31.8091C11.9052 31.8091 13.6788 30.0355 13.6788 27.8476C13.6788 25.6597 11.9052 23.8861 9.71733 23.8861C7.52945 23.8861 5.75583 25.6597 5.75583 27.8476C5.75583 30.0355 7.52945 31.8091 9.71733 31.8091Z" fill="#0052CC"/>
<path d="M11.2752 27.3034C11.2752 26.4445 10.5765 25.7459 9.71771 25.7459C8.85896 25.7459 8.16024 26.4446 8.16024 27.3034C8.16024 27.7269 8.33068 28.111 8.60602 28.3921C8.33077 28.6732 8.16024 29.0573 8.16024 29.4808C8.16024 29.7397 8.37006 29.9496 8.62899 29.9496C8.88793 29.9496 9.09774 29.7397 9.09774 29.4808C9.09774 29.139 9.3759 28.8609 9.71771 28.8609C10.0595 28.8609 10.3377 29.139 10.3377 29.4808C10.3377 29.7397 10.5475 29.9496 10.8064 29.9496C11.0654 29.9496 11.2752 29.7397 11.2752 29.4808C11.2752 29.0573 11.1047 28.6732 10.8294 28.3921C11.1047 28.111 11.2752 27.7269 11.2752 27.3034ZM9.71771 26.6833C10.0595 26.6833 10.3377 26.9615 10.3377 27.3033C10.3377 27.6451 10.0595 27.9233 9.71771 27.9233C9.3759 27.9233 9.09774 27.6451 9.09774 27.3033C9.09774 26.9615 9.37581 26.6833 9.71771 26.6833Z" fill="#091E42"/>
<path d="M25.3463 17.0359V23.7859C25.3463 24.3034 25.7663 24.7234 26.2838 24.7234H31.2798L32.0692 27.0428C32.3185 27.7759 33.3554 27.7759 33.6048 27.0428L34.3932 24.7234H44.1901C44.7076 24.7234 45.1276 24.3034 45.1276 23.7859V17.0359C45.1276 16.5184 44.7076 16.0984 44.1901 16.0984H26.2838C25.7663 16.0984 25.3463 16.5184 25.3463 17.0359Z" fill="white"/>
<path d="M41.7768 21.9376H28.6968C28.4378 21.9376 28.228 22.1475 28.228 22.4063C28.228 22.6652 28.4378 22.8751 28.6968 22.8751H41.7768C42.0357 22.8751 42.2455 22.6652 42.2455 22.4063C42.2455 22.1475 42.0357 21.9376 41.7768 21.9376Z" fill="#091E42"/>
<path d="M33.5181 20.1092H28.696C28.437 20.1092 28.2272 20.3191 28.2272 20.5779C28.2272 20.8368 28.437 21.0467 28.696 21.0467H33.5181C33.777 21.0467 33.9869 20.8368 33.9869 20.5779C33.9869 20.3191 33.777 20.1092 33.5181 20.1092Z" fill="#091E42"/>
<path d="M30.3839 18.7467C30.6428 18.7467 30.8526 18.5368 30.8526 18.278C30.8526 18.0191 30.6428 17.8092 30.3839 17.8092C30.125 17.8092 29.9151 18.0191 29.9151 18.278C29.9151 18.5368 30.125 18.7467 30.3839 18.7467Z" fill="#091E42"/>
<path d="M28.8604 18.7467C29.1193 18.7467 29.3292 18.5368 29.3292 18.278C29.3292 18.0191 29.1193 17.8092 28.8604 17.8092C28.6016 17.8092 28.3917 18.0191 28.3917 18.278C28.3917 18.5368 28.6016 18.7467 28.8604 18.7467Z" fill="#091E42"/>
<path d="M38.2842 20.7155C40.4721 20.7155 42.2457 18.9419 42.2457 16.754C42.2457 14.5662 40.4721 12.7925 38.2842 12.7925C36.0963 12.7925 34.3227 14.5662 34.3227 16.754C34.3227 18.9419 36.0963 20.7155 38.2842 20.7155Z" fill="#0052CC"/>
<path d="M44.19 15.6296H42.5694C42.0704 13.7295 40.3385 12.3238 38.2841 12.3238C37.1885 12.3238 36.1853 12.7244 35.4111 13.3858V7.46431C35.4111 6.35328 34.5072 5.44944 33.3962 5.44944H29.4819C29.2686 4.94403 28.7679 4.58834 28.1858 4.58834H14.0019C13.503 2.68831 11.7711 1.28253 9.71673 1.28253C7.66238 1.28253 5.93035 2.68831 5.43142 4.58834H3.81067C3.03526 4.58834 2.40442 5.21919 2.40442 5.99459V12.7446C2.40442 13.52 3.03526 14.1508 3.81067 14.1508H12.4259V24.3461C11.6763 23.7647 10.7364 23.4173 9.71654 23.4173C7.6621 23.4173 5.93026 24.8231 5.43132 26.7231H3.81067C3.03526 26.7231 2.40442 27.3539 2.40442 28.1293V34.8793C2.40442 35.6548 3.03526 36.2856 3.81067 36.2856H12.4259V41.7123C12.4259 42.8233 13.3298 43.7272 14.4408 43.7272H33.3961C34.5071 43.7272 35.411 42.8233 35.411 41.7123V25.1921H44.19C44.9654 25.1921 45.5963 24.5612 45.5963 23.7858V17.0358C45.5963 16.2604 44.9654 15.6296 44.19 15.6296ZM38.2841 13.2613C40.21 13.2613 41.7769 14.8281 41.7769 16.754C41.7769 18.6799 40.21 20.2468 38.2841 20.2468C36.3582 20.2468 34.7914 18.6799 34.7914 16.754C34.7914 14.8281 36.3581 13.2613 38.2841 13.2613ZM9.71663 2.22013C11.6425 2.22013 13.2094 3.78697 13.2094 5.71288C13.2094 7.63878 11.6425 9.20563 9.71663 9.20563C7.79073 9.20563 6.22388 7.63878 6.22388 5.71288C6.22388 3.78697 7.79073 2.22013 9.71663 2.22013ZM3.34192 12.7446V5.99459C3.34192 5.73613 3.5522 5.52584 3.81067 5.52584H5.29107C5.28845 5.58791 5.28629 5.65016 5.28629 5.71288C5.28629 8.15572 7.2737 10.1431 9.71654 10.1431C12.1594 10.1431 14.1468 8.15572 14.1468 5.71288C14.1468 5.65016 14.1446 5.588 14.142 5.52584H28.1856C28.444 5.52584 28.6543 5.73613 28.6543 5.99459V12.7446C28.6543 13.0031 28.444 13.2133 28.1856 13.2133H23.1894C22.9887 13.2133 22.8103 13.3411 22.7456 13.5313L21.9569 15.8507C21.8837 16.0662 21.6903 16.0829 21.6327 16.0829C21.5753 16.0829 21.3819 16.0662 21.3085 15.8507L20.5198 13.5313C20.4552 13.3412 20.2767 13.2134 20.076 13.2134H3.81067C3.55229 13.2133 3.34192 13.0031 3.34192 12.7446ZM9.71663 24.3549C11.6425 24.3549 13.2094 25.9217 13.2094 27.8476C13.2094 29.7735 11.6426 31.3405 9.71663 31.3405C7.79063 31.3405 6.22388 29.7736 6.22388 27.8477C6.22388 25.9218 7.79073 24.3549 9.71663 24.3549ZM44.6588 23.7858C44.6588 24.0443 44.4485 24.2546 44.19 24.2546H34.3933C34.1926 24.2546 34.0142 24.3823 33.9495 24.5724L33.1608 26.8919C33.0876 27.1074 32.8942 27.1242 32.8366 27.1242C32.779 27.1242 32.5856 27.1074 32.5124 26.892L31.7237 24.5725C31.6591 24.3824 31.4806 24.2546 31.2799 24.2546H26.2838C26.0253 24.2546 25.815 24.0443 25.815 23.7858V17.0358C25.815 16.7773 26.0253 16.5671 26.2838 16.5671H31.6003C31.8592 16.5671 32.0691 16.3572 32.0691 16.0983C32.0691 15.8395 31.8592 15.6296 31.6003 15.6296H26.2838C25.5084 15.6296 24.8775 16.2604 24.8775 17.0358V23.7858C24.8775 24.5612 25.5084 25.1921 26.2838 25.1921H30.9442L31.6248 27.1938C31.8041 27.7211 32.2797 28.0617 32.8366 28.0617C33.3934 28.0617 33.8691 27.7211 34.0483 27.1938L34.4735 25.9436V41.7124C34.4735 42.3064 33.9902 42.7898 33.3961 42.7898H14.4408C13.8468 42.7898 13.3634 42.3065 13.3634 41.7124V35.8169C13.3634 35.5581 13.1535 35.3482 12.8947 35.3482H3.81067C3.5522 35.3482 3.34192 35.1379 3.34192 34.8794V28.1294C3.34192 27.871 3.5522 27.6607 3.81067 27.6607H5.29107C5.28845 27.7228 5.28629 27.785 5.28629 27.8477C5.28629 30.2906 7.2737 32.278 9.71654 32.278C12.1594 32.278 14.1468 30.2906 14.1468 27.8477C14.1468 27.785 14.1446 27.7228 14.142 27.6607H26.4981C26.7565 27.6607 26.9668 27.871 26.9668 28.1294V34.8794C26.9668 35.1379 26.7565 35.3482 26.4981 35.3482H21.5019C21.3012 35.3482 21.1228 35.476 21.0581 35.6661L20.2694 37.9856C20.1962 38.201 20.0028 38.2178 19.9452 38.2178C19.8877 38.2178 19.6943 38.201 19.621 37.9856L18.8323 35.6661C18.7677 35.4761 18.5892 35.3483 18.3885 35.3483H15.7635C15.5047 35.3483 15.2948 35.5582 15.2948 35.817C15.2948 36.0759 15.5047 36.2858 15.7635 36.2858H18.053L18.7336 38.2874C18.9129 38.8146 19.3885 39.1553 19.9454 39.1553C20.5022 39.1553 20.9779 38.8146 21.1571 38.2874L21.8378 36.2858H26.4982C27.2736 36.2858 27.9044 35.6549 27.9044 34.8795V28.1295C27.9044 27.3541 27.2736 26.7233 26.4982 26.7233H14.0019C13.8699 26.2206 13.6513 25.7529 13.3635 25.3363V14.1509H19.7405L20.4211 16.1526C20.6004 16.6798 21.076 17.0204 21.6328 17.0204C22.1897 17.0204 22.6653 16.6798 22.8446 16.1526L23.5253 14.1509H28.1857C28.9611 14.1509 29.5919 13.5201 29.5919 12.7447V6.38694H33.3961C33.9901 6.38694 34.4735 6.87022 34.4735 7.46431V14.406C34.4735 14.4328 34.477 14.4586 34.4813 14.4841C34.0833 15.1484 33.8538 15.9248 33.8538 16.754C33.8538 19.1968 35.8412 21.1843 38.284 21.1843C40.7269 21.1843 42.7143 19.1968 42.7143 16.754C42.7143 16.6913 42.7121 16.6291 42.7095 16.567H44.1899C44.4484 16.567 44.6587 16.7773 44.6587 17.0357V23.7858H44.6588Z" fill="#091E42"/>
<path d="M37.1719 17.2985C36.8966 17.5796 36.7261 17.9637 36.7261 18.3872C36.7261 18.6461 36.9359 18.856 37.1949 18.856C37.4538 18.856 37.6636 18.6461 37.6636 18.3872C37.6636 18.0454 37.9418 17.7673 38.2836 17.7673C38.6254 17.7673 38.9035 18.0454 38.9035 18.3872C38.9035 18.6461 39.1134 18.856 39.3723 18.856C39.6312 18.856 39.841 18.6461 39.841 18.3872C39.841 17.9637 39.6706 17.5796 39.3953 17.2985C39.6705 17.0175 39.841 16.6334 39.841 16.2098C39.841 15.351 39.1423 14.6523 38.2836 14.6523C37.4248 14.6523 36.7261 15.3511 36.7261 16.2098C36.7262 16.6334 36.8966 17.0175 37.1719 17.2985ZM38.9036 16.2098C38.9036 16.5516 38.6255 16.8298 38.2837 16.8298C37.9419 16.8298 37.6637 16.5516 37.6637 16.2098C37.6637 15.868 37.9419 15.5898 38.2837 15.5898C38.6255 15.5898 38.9036 15.8679 38.9036 16.2098Z" fill="#091E42"/>
<path d="M39.0335 7.71899H38.7523V7.43774C38.7523 7.1789 38.5424 6.96899 38.2835 6.96899C38.0247 6.96899 37.8148 7.1789 37.8148 7.43774V7.71899H37.5335C37.2747 7.71899 37.0648 7.9289 37.0648 8.18774C37.0648 8.44659 37.2747 8.65649 37.5335 8.65649H37.8148V8.93774C37.8148 9.19659 38.0247 9.40649 38.2835 9.40649C38.5424 9.40649 38.7523 9.19659 38.7523 8.93774V8.65649H39.0335C39.2924 8.65649 39.5023 8.44659 39.5023 8.18774C39.5023 7.9289 39.2924 7.71899 39.0335 7.71899Z" fill="#0052CC"/>
<path d="M39.0338 31.4453C38.9138 31.4453 38.7939 31.3996 38.7023 31.3081L38.2838 30.8896L37.8653 31.3081C37.6822 31.4911 37.3854 31.4911 37.2024 31.3081C37.0193 31.125 37.0193 30.8282 37.2024 30.6452L37.9524 29.8952C38.1354 29.7122 38.4322 29.7122 38.6153 29.8952L39.3653 30.6452C39.5484 30.8283 39.5484 31.1251 39.3653 31.3081C39.2737 31.3996 39.1538 31.4453 39.0338 31.4453Z" fill="#0052CC"/>
<path d="M9.71591 42.1226C9.59591 42.1226 9.47601 42.0768 9.38441 41.9853L8.96591 41.5668L8.54741 41.9853C8.36432 42.1683 8.0676 42.1683 7.88451 41.9853C7.70142 41.8022 7.70142 41.5054 7.88451 41.3224L8.63451 40.5724C8.8176 40.3894 9.11432 40.3894 9.29741 40.5724L10.0474 41.3224C10.2305 41.5055 10.2305 41.8023 10.0474 41.9853C9.95582 42.0768 9.83591 42.1226 9.71591 42.1226Z" fill="#0052CC"/>
<path d="M40.969 34.6428C40.849 34.6428 40.7291 34.597 40.6375 34.5055L40.219 34.087L39.8005 34.5055C39.6174 34.6885 39.3207 34.6885 39.1376 34.5055C38.9545 34.3225 38.9545 34.0256 39.1376 33.8426L39.8876 33.0926C40.0706 32.9096 40.3674 32.9096 40.5505 33.0926L41.3005 33.8426C41.4836 34.0257 41.4836 34.3225 41.3005 34.5055C41.2089 34.597 41.089 34.6428 40.969 34.6428Z" fill="#0052CC"/>
<path d="M10.4657 18.7363H10.1844V18.4551C10.1844 18.1962 9.97453 17.9863 9.71569 17.9863C9.45684 17.9863 9.24694 18.1962 9.24694 18.4551V18.7363H8.96569C8.70684 18.7363 8.49694 18.9462 8.49694 19.2051C8.49694 19.4639 8.70684 19.6738 8.96569 19.6738H9.24694V19.9551C9.24694 20.2139 9.45684 20.4238 9.71569 20.4238C9.97453 20.4238 10.1844 20.2139 10.1844 19.9551V19.6738H10.4657C10.7245 19.6738 10.9344 19.4639 10.9344 19.2051C10.9344 18.9462 10.7245 18.7363 10.4657 18.7363Z" fill="#0052CC"/>
</g>
<defs>
<linearGradient id="paint0_linear" x1="47.2004" y1="50.659" x2="1.91467" y2="-1.37739" gradientUnits="userSpaceOnUse">
<stop stop-color="#D2DEFF" stop-opacity="0"/>
<stop offset="1" stop-color="#B7C5FF"/>
</linearGradient>
<clipPath id="clip0">
<rect width="48" height="48" fill="white"/>
</clipPath>
</defs>
</svg>
