<svg width="48" height="48" viewBox="0 0 48 48" fill="none" xmlns="http://www.w3.org/2000/svg">
<g clip-path="url(#clip0)">
<path d="M1.94321 16.8342C4.40461 24.8036 12.0471 25.1784 19.018 25.6048C41.9743 27.009 13.1115 46.0597 32.7708 47.9458C40.0023 48.6395 47.5634 42.6062 46.4198 34.7935C45.3785 27.6798 35.0618 23.4429 35.0566 16.7955C35.0526 11.5506 44.7935 7.75712 38.4571 2.11862C32.8089 -2.90751 -3.06192 0.629118 1.94321 16.8342Z" fill="url(#paint0_linear)"/>
<path opacity="0.1" d="M37.9934 30.8953C37.9969 30.8626 37.9988 30.8294 37.9988 30.7957V25.3685C37.9988 23.8636 37.4754 22.4816 36.6021 21.392C39.3418 20.2824 41.2751 17.5978 41.2751 14.4601C41.2751 10.3302 37.9272 6.98218 33.7973 6.98218C29.6673 6.98218 26.3194 10.3301 26.3194 14.4601V19.0039H17.0991C17.2395 18.5802 17.3167 18.1276 17.3167 17.6567C17.3167 15.2923 15.3999 13.3755 13.0354 13.3755C10.6709 13.3755 8.7541 15.2923 8.7541 17.6567C8.7541 18.3875 8.93766 19.0754 9.26044 19.6772C7.17591 20.7226 5.74426 22.8779 5.74426 25.3686C5.74426 28.8837 8.59379 31.7333 12.1089 31.7333H18.8439C17.237 32.8886 16.1894 34.773 16.1894 36.9031V42.3303C16.1894 42.8481 16.6091 43.2678 17.1269 43.2678H35.8918C39.4069 43.2678 42.2565 40.4183 42.2565 36.9031C42.2565 34.1246 40.4755 31.7635 37.9934 30.8953Z" fill="#091E42"/>
<path d="M17.1269 41.0176H35.8918C39.4068 41.0176 42.2564 38.1681 42.2564 34.653C42.2564 31.1379 39.4069 28.2883 35.8918 28.2883H22.554C19.0389 28.2883 16.1893 31.1378 16.1893 34.653V40.0801C16.1894 40.5979 16.6091 41.0176 17.1269 41.0176Z" fill="white"/>
<path d="M22.1208 32.4979H36.5137C36.7727 32.4979 36.9825 32.288 36.9825 32.0291C36.9825 31.7703 36.7727 31.5604 36.5137 31.5604H22.1208C21.8618 31.5604 21.652 31.7703 21.652 32.0291C21.652 32.288 21.8618 32.4979 22.1208 32.4979Z" fill="#091E42"/>
<path d="M22.1208 34.2467H36.2794C36.5383 34.2467 36.7481 34.0368 36.7481 33.778C36.7481 33.5191 36.5383 33.3092 36.2794 33.3092H22.1208C21.8618 33.3092 21.652 33.5191 21.652 33.778C21.652 34.0368 21.8618 34.2467 22.1208 34.2467Z" fill="#091E42"/>
<path d="M22.1208 35.9964H36.2794C36.5383 35.9964 36.7481 35.7865 36.7481 35.5276C36.7481 35.2688 36.5383 35.0589 36.2794 35.0589H22.1208C21.8618 35.0589 21.652 35.2688 21.652 35.5276C21.652 35.7866 21.8618 35.9964 22.1208 35.9964Z" fill="#091E42"/>
<path d="M22.1204 37.7453H36.2588C36.5036 37.7453 36.7223 37.5663 36.7455 37.3227C36.7722 37.0431 36.553 36.8078 36.2789 36.8078H22.1447C21.8975 36.8078 21.6749 36.9883 21.6534 37.2346C21.6293 37.5123 21.8476 37.7453 22.1204 37.7453Z" fill="#091E42"/>
<path d="M37.0613 29.4832H12.1089C8.59388 29.4832 5.74426 26.6337 5.74426 23.1185C5.74426 19.6035 8.59379 16.7538 12.1089 16.7538H31.6342C35.1492 16.7538 37.9988 19.6034 37.9988 23.1185V28.5457C37.9988 29.0635 37.5791 29.4832 37.0613 29.4832Z" fill="#0052CC"/>
<path d="M24.4735 20.9639H18.706C18.4471 20.9639 18.2373 20.754 18.2373 20.4951C18.2373 20.2363 18.4471 20.0264 18.706 20.0264H24.4735C24.7324 20.0264 24.9422 20.2363 24.9422 20.4951C24.9422 20.754 24.7324 20.9639 24.4735 20.9639Z" fill="#091E42"/>
<path d="M32.9108 22.7128H11.721C11.462 22.7128 11.2522 22.5029 11.2522 22.244C11.2522 21.9852 11.462 21.7753 11.721 21.7753H32.9108C33.1698 21.7753 33.3796 21.9852 33.3796 22.244C33.3796 22.5029 33.1698 22.7128 32.9108 22.7128Z" fill="#091E42"/>
<path d="M32.9108 24.4621H11.721C11.462 24.4621 11.2522 24.2522 11.2522 23.9933C11.2522 23.7345 11.462 23.5246 11.721 23.5246H32.9108C33.1698 23.5246 33.3796 23.7345 33.3796 23.9933C33.3796 24.2522 33.1698 24.4621 32.9108 24.4621Z" fill="#091E42"/>
<path d="M32.9108 26.211H11.721C11.462 26.211 11.2522 26.0011 11.2522 25.7422C11.2522 25.4834 11.462 25.2735 11.721 25.2735H32.9108C33.1698 25.2735 33.3796 25.4834 33.3796 25.7422C33.3796 26.0011 33.1698 26.211 32.9108 26.211Z" fill="#091E42"/>
<path d="M27.2562 19.6879H33.7966C37.9264 19.6879 41.2744 16.34 41.2744 12.2101C41.2744 8.08018 37.9265 4.73218 33.7966 4.73218C29.6667 4.73218 26.3187 8.08008 26.3187 12.2101V18.7504C26.3187 19.2682 26.7384 19.6879 27.2562 19.6879Z" fill="white"/>
<path d="M37.3991 9.33456C36.5631 8.55596 35.2471 8.61587 34.4392 9.42362L33.7958 10.067L33.1524 9.42362C32.3447 8.61587 31.0285 8.55606 30.1926 9.33456C29.315 10.152 29.2966 11.5265 30.1373 12.3673L33.1329 15.3629C33.499 15.729 34.0926 15.729 34.4587 15.3629L37.4543 12.3673C38.2952 11.5265 38.2768 10.1519 37.3991 9.33456Z" fill="#0052CC"/>
<path d="M13.035 19.688C15.3994 19.688 17.3162 17.7713 17.3162 15.4068C17.3162 13.0423 15.3994 11.1255 13.035 11.1255C10.6705 11.1255 8.75368 13.0423 8.75368 15.4068C8.75368 17.7713 10.6705 19.688 13.035 19.688Z" fill="white"/>
<path d="M11.9234 15.9511C11.6482 16.2322 11.4776 16.6163 11.4776 17.0398C11.4776 17.2987 11.6875 17.5086 11.9464 17.5086C12.2052 17.5086 12.4151 17.2987 12.4151 17.0398C12.4151 16.698 12.6933 16.4199 13.0351 16.4199C13.3769 16.4199 13.6551 16.698 13.6551 17.0398C13.6551 17.2987 13.865 17.5086 14.1238 17.5086C14.3827 17.5086 14.5926 17.2987 14.5926 17.0398C14.5926 16.6163 14.4221 16.2322 14.1468 15.9511C14.422 15.6701 14.5926 15.286 14.5926 14.8624C14.5926 14.0036 13.8939 13.3049 13.0351 13.3049C12.1763 13.3049 11.4776 14.0036 11.4776 14.8624C11.4776 15.286 11.6481 15.6701 11.9234 15.9511ZM13.6552 14.8624C13.6552 15.2042 13.377 15.4824 13.0352 15.4824C12.6934 15.4824 12.4152 15.2042 12.4152 14.8624C12.4152 14.5206 12.6934 14.2424 13.0352 14.2424C13.377 14.2424 13.6552 14.5205 13.6552 14.8624Z" fill="#091E42"/>
<path d="M18.6252 11.1875C18.5052 11.1875 18.3853 11.1417 18.2937 11.0502L17.2625 10.019C17.0794 9.83587 17.0794 9.53906 17.2625 9.35606L18.2937 8.32481C18.4768 8.14181 18.7735 8.14181 18.9566 8.32481L19.9879 9.35606C20.171 9.53915 20.171 9.83597 19.9879 10.019L18.9566 11.0502C18.8651 11.1417 18.7451 11.1875 18.6252 11.1875ZM18.2569 9.68747L18.6252 10.0558L18.9936 9.68747L18.6252 9.31912L18.2569 9.68747Z" fill="#0052CC"/>
<path d="M13.6549 8.48221C13.5349 8.48221 13.415 8.43646 13.3234 8.34496L12.2921 7.31371C12.109 7.13061 12.109 6.8338 12.2921 6.6508L13.3234 5.61955C13.5065 5.43655 13.8032 5.43655 13.9863 5.61955L15.0175 6.6508C15.2006 6.83389 15.2006 7.13071 15.0175 7.31371L13.9863 8.34496C13.8948 8.43646 13.7749 8.48221 13.6549 8.48221ZM13.2865 6.98221L13.6549 7.35055L14.0232 6.98221L13.6549 6.61386L13.2865 6.98221Z" fill="#0052CC"/>
<path d="M11.2522 39.9326C10.9934 39.9326 10.7835 39.7226 10.7835 39.4638C10.7835 39.1536 10.5312 38.9013 10.221 38.9013C9.96212 38.9013 9.75222 38.6914 9.75222 38.4326C9.75222 38.1737 9.96212 37.9638 10.221 37.9638C10.5312 37.9638 10.7835 37.7115 10.7835 37.4013C10.7835 37.1425 10.9934 36.9326 11.2522 36.9326C11.5111 36.9326 11.721 37.1425 11.721 37.4013C11.721 37.7115 11.9732 37.9638 12.2835 37.9638C12.5423 37.9638 12.7522 38.1737 12.7522 38.4326C12.7522 38.6914 12.5423 38.9013 12.2835 38.9013C11.9732 38.9013 11.721 39.1536 11.721 39.4638C11.721 39.7226 11.5112 39.9326 11.2522 39.9326Z" fill="#0052CC"/>
<path d="M41.275 23.2753C41.0162 23.2753 40.8063 23.0654 40.8063 22.8065C40.8063 22.4963 40.554 22.244 40.2438 22.244C39.985 22.244 39.775 22.0341 39.775 21.7753C39.775 21.5164 39.985 21.3065 40.2438 21.3065C40.554 21.3065 40.8063 21.0542 40.8063 20.744C40.8063 20.4852 41.0162 20.2753 41.275 20.2753C41.5339 20.2753 41.7438 20.4852 41.7438 20.744C41.7438 21.0542 41.9961 21.3065 42.3063 21.3065C42.5651 21.3065 42.775 21.5164 42.775 21.7753C42.775 22.0341 42.5651 22.244 42.3063 22.244C41.9961 22.244 41.7438 22.4963 41.7438 22.8065C41.7438 23.0654 41.5339 23.2753 41.275 23.2753Z" fill="#0052CC"/>
<path d="M19.6554 6.6864C19.3966 6.6864 19.1867 6.4765 19.1867 6.21765C19.1867 5.90743 18.9344 5.65515 18.6242 5.65515C18.3653 5.65515 18.1554 5.44525 18.1554 5.1864C18.1554 4.92756 18.3653 4.71765 18.6242 4.71765C18.9344 4.71765 19.1867 4.46537 19.1867 4.15515C19.1867 3.89631 19.3966 3.6864 19.6554 3.6864C19.9143 3.6864 20.1242 3.89631 20.1242 4.15515C20.1242 4.46537 20.3764 4.71765 20.6867 4.71765C20.9455 4.71765 21.1554 4.92756 21.1554 5.1864C21.1554 5.44525 20.9455 5.65515 20.6867 5.65515C20.3764 5.65515 20.1242 5.90743 20.1242 6.21765C20.1242 6.4765 19.9143 6.6864 19.6554 6.6864Z" fill="#0052CC"/>
<path d="M38.4685 28.3297V23.1186C38.4685 21.7539 38.0724 20.4527 37.3217 19.3301C39.9402 18.0291 41.7448 15.3269 41.7448 12.2101C41.7448 7.82833 38.1799 4.26349 33.7982 4.26349C29.4164 4.26349 25.8515 7.82833 25.8515 12.2101V18.7505C25.8515 19.5259 26.4824 20.1567 27.2578 20.1567H33.7982C34.7243 20.1567 35.6133 19.9959 36.4405 19.7033C37.1539 20.7041 37.531 21.8809 37.531 23.1186V28.5458C37.531 28.8042 37.3207 29.0145 37.0623 29.0145H12.1099C8.85888 29.0145 6.21391 26.3696 6.21391 23.1186C6.21391 21.031 7.3106 19.1149 9.09335 18.0524C9.94713 19.3207 11.3958 20.1566 13.0363 20.1566C15.0124 20.1566 16.7101 18.9432 17.4247 17.2226H23.165C23.4239 17.2226 23.6338 17.0127 23.6338 16.7539C23.6338 16.4951 23.4239 16.2851 23.165 16.2851H17.7035C17.7571 16.0002 17.7863 15.7069 17.7863 15.4066C17.7863 12.7874 15.6555 10.6566 13.0363 10.6566C10.4172 10.6566 8.28626 12.7874 8.28626 15.4066C8.28626 16.0508 8.41572 16.665 8.64907 17.2256C6.56191 18.4524 5.27651 20.6849 5.27651 23.1185C5.27651 26.8864 8.34194 29.9519 12.1099 29.9519H17.6033C16.4385 31.1776 15.7218 32.8326 15.7218 34.6529C15.7218 34.9118 15.9317 35.1217 16.1905 35.1217C16.4494 35.1217 16.6593 34.9118 16.6593 34.6529C16.6593 32.7347 17.581 31.0289 19.004 29.9519H37.0624C37.5756 29.9519 38.0242 29.6747 38.2698 29.263C40.3398 30.1782 41.7889 32.248 41.7889 34.653C41.7889 37.904 39.144 40.549 35.8929 40.549H17.1278C16.8694 40.549 16.6591 40.3387 16.6591 40.0802V37.8087C16.6591 37.5499 16.4492 37.34 16.1903 37.34C15.9315 37.34 15.7216 37.5499 15.7216 37.8087V40.0802C15.7216 40.8556 16.3524 41.4865 17.1278 41.4865H35.8927C39.6606 41.4865 42.7262 38.421 42.7262 34.653C42.7262 31.7966 40.9627 29.3483 38.4685 28.3297ZM27.2578 19.2191C26.9993 19.2191 26.789 19.0089 26.789 18.7504V12.21C26.789 8.34518 29.9333 5.2009 33.7982 5.2009C37.663 5.2009 40.8073 8.34518 40.8073 12.21C40.8073 16.0749 37.663 19.2191 33.7982 19.2191H27.2578ZM13.0363 11.5941C15.1385 11.5941 16.8488 13.3044 16.8488 15.4066C16.8488 17.5088 15.1385 19.2191 13.0363 19.2191C10.9341 19.2191 9.22376 17.5089 9.22376 15.4066C9.22376 13.3045 10.934 11.5941 13.0363 11.5941Z" fill="#091E42"/>
</g>
<defs>
<linearGradient id="paint0_linear" x1="1.46583" y1="24.0002" x2="46.5352" y2="24.0002" gradientUnits="userSpaceOnUse">
<stop stop-color="#D2DEFF" stop-opacity="0"/>
<stop offset="1" stop-color="#B7C5FF"/>
</linearGradient>
<clipPath id="clip0">
<rect width="48" height="48" fill="white"/>
</clipPath>
</defs>
</svg>
