<svg width="48" height="48" viewBox="0 0 48 48" fill="none" xmlns="http://www.w3.org/2000/svg">
<g clip-path="url(#clip0)">
<path d="M47.4027 27.1329C46.294 23.8882 43.8272 21.4929 40.854 20.3639C39.3137 19.779 38.2904 18.3149 38.2678 16.6675C38.2673 16.6315 38.2666 16.5954 38.2658 16.5593C38.1245 10.5047 33.0638 5.65335 27.0086 5.75732C23.4373 5.81863 20.2785 7.57185 18.2987 10.2498C16.5939 12.556 13.9403 13.9965 11.0725 13.995C10.9883 13.995 10.904 13.9959 10.8194 13.9978C5.01464 14.1246 0.0787039 19.105 0.00126641 24.9106C-0.0811398 31.0918 4.90467 36.1282 11.0668 36.1282C15.843 36.1282 19.912 33.1022 21.4623 28.8628C21.868 27.7536 23.0703 27.159 24.2076 27.478C24.2218 27.4819 24.236 27.4859 24.2503 27.4899C25.2908 27.7771 25.9807 28.7686 25.8956 29.8448C25.7815 31.2869 25.9501 32.7749 26.4391 34.2319C28.363 39.9633 34.613 43.1086 40.3604 41.2332C46.2395 39.3146 49.3959 32.9658 47.4027 27.1329Z" fill="url(#paint0_linear)"/>
<path opacity="0.1" d="M41.3438 9.75179H31.4062C31.4061 5.66157 28.0903 2.34583 24 2.34583C19.9097 2.34583 16.5939 5.66157 16.5938 9.75179H6.65625C5.88 9.75179 5.25 10.3818 5.25 11.158V34.994C5.25 35.7702 5.88 36.4002 6.65625 36.4002H41.3438C42.12 36.4002 42.75 35.7702 42.75 34.994V11.158C42.75 10.3818 42.12 9.75179 41.3438 9.75179Z" fill="#091E42"/>
<path d="M29.3165 45.1851H18.6833L20.8097 36.7566H27.1901L29.3165 45.1851Z" fill="white"/>
<path d="M42.75 13.1266V36.9625C42.75 37.7388 42.12 38.3688 41.3438 38.3688H6.65625C5.88 38.3688 5.25 37.7388 5.25 36.9625V13.1266C5.25 12.3503 5.88 11.7203 6.65625 11.7203H41.3438C42.12 11.7203 42.75 12.3503 42.75 13.1266Z" fill="white"/>
<path d="M42.75 13.1266V16.2372H5.25V13.1266C5.25 12.3503 5.88 11.7203 6.65625 11.7203H41.3438C42.12 11.7203 42.75 12.3503 42.75 13.1266Z" fill="white"/>
<path d="M31.4062 13.3178C31.4062 14.3547 31.1934 15.3419 30.8081 16.2372H17.1919C16.8066 15.3419 16.5938 14.3547 16.5938 13.3178C16.5938 12.7694 16.6538 12.2341 16.7672 11.7203H31.2338C31.3463 12.2341 31.4062 12.7694 31.4062 13.3178Z" fill="#0052CC"/>
<path d="M42.75 16.7058H30C29.7412 16.7058 29.5312 16.4959 29.5312 16.2371C29.5312 15.9782 29.7412 15.7683 30 15.7683H42.75C43.0088 15.7683 43.2188 15.9782 43.2188 16.2371C43.2188 16.4959 43.0088 16.7058 42.75 16.7058Z" fill="#091E42"/>
<path d="M17.9375 16.7058H5.25C4.99116 16.7058 4.78125 16.4959 4.78125 16.2371C4.78125 15.9782 4.99116 15.7683 5.25 15.7683H17.9375C18.1963 15.7683 18.4062 15.9782 18.4062 16.2371C18.4062 16.4959 18.1964 16.7058 17.9375 16.7058Z" fill="#091E42"/>
<path d="M28.7039 43.2292C28.4943 43.2292 28.3034 43.0875 28.2498 42.875L27.184 38.6506C27.1208 38.3996 27.2728 38.1448 27.5239 38.0815C27.7747 38.018 28.0298 38.1703 28.0931 38.4213L29.1588 42.6457C29.2221 42.8967 29.07 43.1516 28.819 43.2148C28.7805 43.2246 28.7418 43.2292 28.7039 43.2292Z" fill="#091E42"/>
<path d="M18.6846 45.6543C18.6466 45.6543 18.6081 45.6497 18.5695 45.6399C18.3185 45.5766 18.1664 45.3217 18.2297 45.0708L19.9074 38.4209C19.9707 38.1698 20.2256 38.0178 20.4766 38.0811C20.7277 38.1444 20.8797 38.3992 20.8164 38.6502L19.1387 45.3002C19.0851 45.5127 18.8942 45.6543 18.6846 45.6543Z" fill="#091E42"/>
<path d="M5.25 33.6452V36.963C5.25 37.7396 5.87962 38.3693 6.65625 38.3693H41.3438C42.1204 38.3693 42.75 37.7396 42.75 36.963V33.6452H5.25Z" fill="white"/>
<path d="M42.6982 34.114H5.25C4.99116 34.114 4.78125 33.904 4.78125 33.6452C4.78125 33.3864 4.99116 33.1765 5.25 33.1765H42.6982C42.957 33.1765 43.1669 33.3864 43.1669 33.6452C43.1669 33.904 42.957 34.114 42.6982 34.114Z" fill="#091E42"/>
<path d="M31.1185 45.6539H16.8808C16.622 45.6539 16.4121 45.444 16.4121 45.1851C16.4121 44.9263 16.622 44.7164 16.8808 44.7164H31.1185C31.3773 44.7164 31.5872 44.9263 31.5872 45.1851C31.5872 45.444 31.3773 45.6539 31.1185 45.6539Z" fill="#091E42"/>
<path d="M8.82016 14.4543C8.56132 14.4543 8.35141 14.2444 8.35141 13.9856V13.972C8.35141 13.7131 8.56132 13.5032 8.82016 13.5032C9.079 13.5032 9.28891 13.7131 9.28891 13.972V13.9856C9.28891 14.2444 9.079 14.4543 8.82016 14.4543Z" fill="#091E42"/>
<path d="M10.6326 14.4543C10.3737 14.4543 10.1638 14.2444 10.1638 13.9856V13.972C10.1638 13.7131 10.3737 13.5032 10.6326 13.5032C10.8914 13.5032 11.1013 13.7131 11.1013 13.972V13.9856C11.1013 14.2444 10.8914 14.4543 10.6326 14.4543Z" fill="#091E42"/>
<path d="M12.444 14.4543C12.1852 14.4543 11.9753 14.2444 11.9753 13.9856V13.972C11.9753 13.7131 12.1852 13.5032 12.444 13.5032C12.7029 13.5032 12.9128 13.7131 12.9128 13.972V13.9856C12.9128 14.2444 12.703 14.4543 12.444 14.4543Z" fill="#091E42"/>
<path d="M41.3438 38.8378H6.65625C5.62238 38.8378 4.78125 37.9967 4.78125 36.9628V13.1271C4.78125 12.0932 5.62238 11.2521 6.65625 11.2521H16.3594C16.6182 11.2521 16.8281 11.462 16.8281 11.7208C16.8281 11.9797 16.6182 12.1896 16.3594 12.1896H6.65625C6.13931 12.1896 5.71875 12.6101 5.71875 13.1271V36.9628C5.71875 37.4798 6.13931 37.9003 6.65625 37.9003H41.3438C41.8607 37.9003 42.2812 37.4798 42.2812 36.9628V13.1271C42.2812 12.6101 41.8607 12.1896 41.3438 12.1896H33.9882C33.7294 12.1896 33.5195 11.9797 33.5195 11.7208C33.5195 11.462 33.7294 11.2521 33.9882 11.2521H41.3438C42.3776 11.2521 43.2188 12.0932 43.2188 13.1271V36.9628C43.2188 37.9967 42.3776 38.8378 41.3438 38.8378Z" fill="#091E42"/>
<path d="M19.0938 27.8999H11.4375C11.1787 27.8999 10.9688 27.69 10.9688 27.4311C10.9688 27.1723 11.1787 26.9624 11.4375 26.9624H18.625V24.2792C18.625 24.0204 18.8349 23.8105 19.0938 23.8105H23.4017C23.6605 23.8105 23.8704 24.0204 23.8704 24.2792C23.8704 24.5381 23.6605 24.748 23.4017 24.748H19.5625V27.4311C19.5625 27.69 19.3526 27.8999 19.0938 27.8999Z" fill="#091E42"/>
<path d="M39.4692 27.8997H22.4126C22.1538 27.8997 21.9439 27.6898 21.9439 27.431C21.9439 27.1721 22.1538 26.9622 22.4126 26.9622H39.0004V19.4816C39.0004 19.2228 39.2103 19.0129 39.4692 19.0129C39.728 19.0129 39.9379 19.2228 39.9379 19.4816V27.431C39.9379 27.6898 39.728 27.8997 39.4692 27.8997Z" fill="#091E42"/>
<path d="M28.6866 34.1138C28.4278 34.1138 28.2179 33.9039 28.2179 33.645V31.0793H19.0929C18.8341 31.0793 18.6242 30.8694 18.6242 30.6105V26.7654C18.6242 26.5065 18.8341 26.2966 19.0929 26.2966C19.3518 26.2966 19.5617 26.5065 19.5617 26.7654V30.1418H28.6866C28.9455 30.1418 29.1554 30.3517 29.1554 30.6105V33.645C29.1554 33.904 28.9455 34.1138 28.6866 34.1138Z" fill="#091E42"/>
<path d="M42.6982 31.0797H31.875C31.6162 31.0797 31.4062 30.8698 31.4062 30.611C31.4062 30.3521 31.6162 30.1422 31.875 30.1422H42.6982C42.957 30.1422 43.1669 30.3521 43.1669 30.611C43.1669 30.8698 42.957 31.0797 42.6982 31.0797Z" fill="#091E42"/>
<path d="M16.0304 31.2363H8.31165C8.05281 31.2363 7.8429 31.0263 7.8429 30.7675V26.225C7.8429 25.9662 8.05281 25.7563 8.31165 25.7563C8.5705 25.7563 8.7804 25.9662 8.7804 26.225V30.2988H16.0304C16.2892 30.2988 16.4991 30.5087 16.4991 30.7675C16.4991 31.0263 16.2892 31.2363 16.0304 31.2363Z" fill="#091E42"/>
<path d="M13.1571 34.1134C12.8982 34.1134 12.6883 33.9035 12.6883 33.6447V30.7674C12.6883 30.5086 12.8982 30.2986 13.1571 30.2986C13.4159 30.2986 13.6258 30.5086 13.6258 30.7674V33.6447C13.6258 33.9036 13.416 34.1134 13.1571 34.1134Z" fill="#091E42"/>
<path d="M15.5937 24.7185H11.4375C11.1787 24.7185 10.9688 24.5085 10.9688 24.2497V16.3588C10.9688 16.0999 11.1787 15.89 11.4375 15.89C11.6963 15.89 11.9063 16.0999 11.9063 16.3588V23.781H15.5937C15.8526 23.781 16.0625 23.9909 16.0625 24.2497C16.0625 24.5085 15.8527 24.7185 15.5937 24.7185Z" fill="#091E42"/>
<path d="M8.31253 23.6679H5.25C4.99116 23.6679 4.78125 23.458 4.78125 23.1992C4.78125 22.9403 4.99116 22.7304 5.25 22.7304H7.84378V19.9999C7.84378 19.7411 8.05369 19.5312 8.31253 19.5312C8.57138 19.5312 8.78128 19.7411 8.78128 19.9999V23.1992C8.78128 23.458 8.57138 23.6679 8.31253 23.6679Z" fill="#091E42"/>
<path d="M27 24.7478C26.876 24.7478 26.7569 24.6987 26.6691 24.611C26.5808 24.5231 26.5312 24.4037 26.5312 24.2791V21.0626C26.5312 20.8037 26.7412 20.5938 27 20.5938H32.9375C33.1963 20.5938 33.4062 20.8037 33.4062 21.0626C33.4062 21.3214 33.1963 21.5313 32.9375 21.5313H27.4688V23.8089L36 23.7827V16.2372C36 15.9783 36.2099 15.7684 36.4688 15.7684C36.7276 15.7684 36.9375 15.9783 36.9375 16.2372V24.2501C36.9375 24.5084 36.7285 24.7181 36.4702 24.7188L27.0014 24.7478C27.0009 24.7478 27.0005 24.7478 27 24.7478Z" fill="#091E42"/>
<path d="M27 21.531H14.9063C14.6474 21.531 14.4375 21.3211 14.4375 21.0623C14.4375 20.8034 14.6474 20.5935 14.9063 20.5935H27C27.2588 20.5935 27.4688 20.8034 27.4688 21.0623C27.4688 21.3211 27.2588 21.531 27 21.531Z" fill="#091E42"/>
<path d="M24 19.1272C28.0904 19.1272 31.4062 15.8113 31.4062 11.7209C31.4062 7.63059 28.0904 4.3147 24 4.3147C19.9096 4.3147 16.5938 7.63059 16.5938 11.7209C16.5938 15.8113 19.9096 19.1272 24 19.1272Z" fill="white"/>
<path d="M24 19.5959C19.6577 19.5959 16.125 16.0633 16.125 11.7209C16.125 7.37863 19.6577 3.84595 24 3.84595C28.3423 3.84595 31.875 7.37863 31.875 11.7209C31.875 16.0632 28.3423 19.5959 24 19.5959ZM24 4.78335C20.1746 4.78335 17.0625 7.89548 17.0625 11.7209C17.0625 15.5462 20.1746 18.6584 24 18.6584C27.8254 18.6584 30.9375 15.5462 30.9375 11.7209C30.9375 7.89548 27.8254 4.78335 24 4.78335Z" fill="#091E42"/>
<path d="M27.8787 15.6048C30.0229 13.4606 30.0229 9.9841 27.8787 7.83986C25.7344 5.69562 22.2579 5.69562 20.1137 7.83986C17.9694 9.9841 17.9694 13.4606 20.1137 15.6048C22.2579 17.7491 25.7344 17.7491 27.8787 15.6048Z" fill="#0052CC"/>
<path d="M21.8083 13.3181C21.6884 13.3181 21.5683 13.2724 21.4769 13.1809L20.3486 12.0526C20.1655 11.8695 20.1655 11.5727 20.3486 11.3897L21.4769 10.2614C21.6598 10.0784 21.9568 10.0784 22.1397 10.2614C22.3228 10.4445 22.3228 10.7413 22.1397 10.9243L21.3429 11.7212L22.1397 12.518C22.3228 12.7011 22.3228 12.998 22.1397 13.181C22.0483 13.2723 21.9282 13.3181 21.8083 13.3181Z" fill="#091E42"/>
<path d="M26.1923 13.3181C26.0724 13.3181 25.9523 13.2723 25.8609 13.1808C25.6778 12.9977 25.6778 12.7009 25.8609 12.5179L26.6577 11.7211L25.8609 10.9242C25.6778 10.7411 25.6778 10.4443 25.8609 10.2613C26.0438 10.0783 26.3408 10.0783 26.5237 10.2613L27.652 11.3896C27.8351 11.5726 27.8351 11.8695 27.652 12.0525L26.5237 13.1807C26.4322 13.2722 26.3122 13.3181 26.1923 13.3181Z" fill="#091E42"/>
<path d="M23.3622 13.3183C23.2841 13.3183 23.205 13.2988 23.1323 13.2576C22.9068 13.1303 22.8272 12.8444 22.9545 12.6189L24.2288 10.3623C24.356 10.1369 24.642 10.0573 24.8674 10.1846C25.0929 10.3119 25.1724 10.5978 25.0451 10.8233L23.7709 13.0799C23.6847 13.2325 23.5258 13.3183 23.3622 13.3183Z" fill="#091E42"/>
<path d="M35.1136 44.2625C34.9892 44.2625 34.87 44.2131 34.7821 44.1252L33.7486 43.0917C33.6606 43.0038 33.6113 42.8846 33.6113 42.7602C33.6113 42.6358 33.6607 42.5167 33.7486 42.4287L34.7821 41.3953C34.9652 41.2123 35.262 41.2124 35.445 41.3953L36.4784 42.4287C36.6615 42.6118 36.6615 42.9086 36.4784 43.0916L35.445 44.1251C35.3571 44.2131 35.2379 44.2625 35.1136 44.2625ZM34.743 42.7602L35.1136 43.1308L35.4842 42.7602L35.1136 42.3896L34.743 42.7602Z" fill="#0052CC"/>
<path d="M14.2943 43.33C14.0354 43.33 13.8255 43.1201 13.8255 42.8613C13.8255 42.551 13.5732 42.2988 13.263 42.2988C13.0042 42.2988 12.7943 42.0889 12.7943 41.83C12.7943 41.5712 13.0042 41.3613 13.263 41.3613C13.5732 41.3613 13.8255 41.1089 13.8255 40.7988C13.8255 40.5399 14.0354 40.33 14.2943 40.33C14.5531 40.33 14.763 40.5399 14.763 40.7988C14.763 41.109 15.0153 41.3613 15.3255 41.3613C15.5844 41.3613 15.7943 41.5712 15.7943 41.83C15.7943 42.0889 15.5844 42.2988 15.3255 42.2988C15.0153 42.2988 14.763 42.5511 14.763 42.8613C14.763 43.1201 14.5532 43.33 14.2943 43.33Z" fill="#0052CC"/>
<path d="M33.501 7.20899C33.2422 7.20899 33.0323 6.99908 33.0323 6.74024C33.0323 6.43002 32.78 6.17774 32.4698 6.17774C32.2109 6.17774 32.001 5.96783 32.001 5.70899C32.001 5.45014 32.2109 5.24024 32.4698 5.24024C32.78 5.24024 33.0323 4.98786 33.0323 4.67773C33.0323 4.41889 33.2422 4.20898 33.501 4.20898C33.7599 4.20898 33.9698 4.41889 33.9698 4.67773C33.9698 4.98795 34.2221 5.24024 34.5323 5.24024C34.7911 5.24024 35.001 5.45014 35.001 5.70899C35.001 5.96783 34.7911 6.17774 34.5323 6.17774C34.2221 6.17774 33.9698 6.43011 33.9698 6.74024C33.9698 6.99918 33.76 7.20899 33.501 7.20899Z" fill="#0052CC"/>
<path d="M38.625 8.91851C38.3662 8.91851 38.1563 8.70861 38.1563 8.44976C38.1563 8.13955 37.9039 7.88727 37.5938 7.88727C37.3349 7.88727 37.125 7.67736 37.125 7.41852C37.125 7.15967 37.3349 6.94977 37.5938 6.94977C37.904 6.94977 38.1563 6.69739 38.1563 6.38727C38.1563 6.12842 38.3662 5.91852 38.625 5.91852C38.8839 5.91852 39.0938 6.12842 39.0938 6.38727C39.0938 6.69749 39.346 6.94977 39.6563 6.94977C39.9151 6.94977 40.125 7.15967 40.125 7.41852C40.125 7.67736 39.9151 7.88727 39.6563 7.88727C39.346 7.88727 39.0938 8.13964 39.0938 8.44976C39.0938 8.70861 38.884 8.91851 38.625 8.91851Z" fill="#0052CC"/>
</g>
<defs>
<linearGradient id="paint0_linear" x1="2.31408" y1="12.7199" x2="49.2163" y2="35.6634" gradientUnits="userSpaceOnUse">
<stop stop-color="#D2DEFF" stop-opacity="0"/>
<stop offset="1" stop-color="#B7C5FF"/>
</linearGradient>
<clipPath id="clip0">
<rect width="48" height="48" fill="white"/>
</clipPath>
</defs>
</svg>
