<svg width="48" height="48" viewBox="0 0 48 48" fill="none" xmlns="http://www.w3.org/2000/svg">
<g clip-path="url(#clip0)">
<path d="M38.2714 14.4622C36.0498 13.5963 34.173 12.0163 33.0251 9.92647C31.0948 6.41207 27.3598 4.02979 23.0669 4.02979C18.6109 4.02979 14.7563 6.59638 12.8971 10.3316C11.7585 12.6192 9.82083 14.4153 7.45121 15.3717C3.94974 16.7848 1.0103 20.0145 0.0774896 25.0637C-0.0248854 25.6178 -0.0263854 26.1874 0.0759896 26.7415C1.52424 34.5763 7.8009 38.0323 13.5136 37.1158C16.7129 36.6027 19.9516 37.6698 22.323 39.8779C27.1449 44.3678 34.8746 45.7754 42.3782 40.9626C43.2573 40.3988 44.4367 39.2157 45.0001 38.3362C51.4656 28.2421 46.6762 17.738 38.2714 14.4622Z" fill="url(#paint0_linear)"/>
<path opacity="0.1" d="M42.7492 9.72833V33.5643C42.7492 34.3405 42.1192 34.9705 41.343 34.9705H6.65549C5.87924 34.9705 5.24924 34.3405 5.24924 33.5643V9.72833C5.24924 8.95208 5.87924 8.32208 6.65549 8.32208H41.343C42.1192 8.32208 42.7492 8.95208 42.7492 9.72833Z" fill="#091E42"/>
<path d="M29.3175 43.7554H18.6843L20.8107 35.3268H27.1911L29.3175 43.7554Z" fill="white"/>
<path d="M42.7492 11.6974V35.5333C42.7492 36.3096 42.1192 36.9396 41.343 36.9396H6.65549C5.87924 36.9396 5.24924 36.3096 5.24924 35.5333V11.6974C5.24924 10.9211 5.87924 10.2911 6.65549 10.2911H41.343C42.1192 10.2911 42.7492 10.9211 42.7492 11.6974Z" fill="white"/>
<path d="M40.1242 32.2149H20.0617V17.7834C20.0617 17.628 20.1876 17.5021 20.343 17.5021H39.843C39.9983 17.5021 40.1242 17.628 40.1242 17.7834V32.2149Z" fill="white"/>
<path d="M40.1242 19.481H20.0617V17.7835C20.0617 17.6282 20.1876 17.5023 20.343 17.5023H39.843C39.9983 17.5023 40.1242 17.6282 40.1242 17.7835V19.481Z" fill="#0052CC"/>
<path d="M40.1242 32.2149H20.0617V17.7834C20.0617 17.628 20.1876 17.5021 20.343 17.5021H39.843C39.9983 17.5021 40.1242 17.628 40.1242 17.7834V32.2149Z" stroke="#091E42" stroke-miterlimit="10"/>
<path d="M42.7492 14.8072V11.6974C42.7492 10.9208 42.1196 10.2911 41.343 10.2911H6.65549C5.87886 10.2911 5.24924 10.9208 5.24924 11.6974V14.8072H42.7492Z" fill="white"/>
<path d="M5.24924 32.2153V35.5331C5.24924 36.3098 5.87886 36.9394 6.65549 36.9394H41.343C42.1196 36.9394 42.7492 36.3098 42.7492 35.5331V32.2153H5.24924Z" fill="white"/>
<path d="M8.8194 12.0735C8.56055 12.0735 8.35065 12.2833 8.35065 12.5422V12.5558C8.35065 12.8148 8.56055 13.0246 8.8194 13.0246C9.07824 13.0246 9.28815 12.8148 9.28815 12.5558V12.5422C9.28815 12.2833 9.07824 12.0735 8.8194 12.0735Z" fill="#091E42"/>
<path d="M10.6318 12.0735C10.373 12.0735 10.1631 12.2833 10.1631 12.5422V12.5558C10.1631 12.8148 10.373 13.0246 10.6318 13.0246C10.8907 13.0246 11.1006 12.8148 11.1006 12.5558V12.5422C11.1006 12.2833 10.8907 12.0735 10.6318 12.0735Z" fill="#091E42"/>
<path d="M12.4432 12.0735C12.1844 12.0735 11.9745 12.2833 11.9745 12.5422V12.5558C11.9745 12.8148 12.1844 13.0246 12.4432 13.0246C12.7021 13.0246 12.912 12.8148 12.912 12.5558V12.5422C12.912 12.2833 12.7022 12.0735 12.4432 12.0735Z" fill="#091E42"/>
<path d="M41.343 9.82233H6.65549C5.62161 9.82233 4.78049 10.6635 4.78049 11.6973V14.8072C4.78049 15.0661 4.99039 15.276 5.24924 15.276H42.2805V31.7465H5.71799V17.3891C5.71799 17.1301 5.50808 16.9203 5.24924 16.9203C4.99039 16.9203 4.78049 17.1301 4.78049 17.3891V35.533C4.78049 36.5669 5.62161 37.408 6.65549 37.408H19.8005L18.3174 43.2862H16.8804C16.6216 43.2862 16.4117 43.496 16.4117 43.755C16.4117 44.0139 16.6216 44.2237 16.8804 44.2237H18.6826C18.8974 44.2237 19.0846 44.0778 19.1371 43.8697L20.7674 37.408H27.2309L28.7138 43.2862L21.2645 43.2868C21.0056 43.2868 20.7957 43.4966 20.7957 43.7555C20.7957 44.0145 21.0056 44.2243 21.2645 44.2243L31.118 44.2237C31.3768 44.2237 31.5867 44.0139 31.5867 43.755C31.5867 43.496 31.3768 43.2862 31.118 43.2862H29.6807L28.1977 37.408H41.343C42.3769 37.408 43.218 36.5669 43.218 35.533V11.6973C43.218 10.6635 42.3769 9.82233 41.343 9.82233ZM5.71799 14.3385V11.6973C5.71799 11.1804 6.13855 10.7598 6.65549 10.7598H41.343C41.8599 10.7598 42.2805 11.1804 42.2805 11.6973V14.3385H5.71799ZM41.343 36.4706H6.65549C6.13855 36.4706 5.71799 36.05 5.71799 35.5331V32.684H42.2805V35.5331C42.2805 36.0499 41.8599 36.4706 41.343 36.4706Z" fill="#091E42"/>
<path d="M17.1235 21.8183C17.456 19.7668 16.0626 17.8342 14.0112 17.5017C11.9597 17.1691 10.0271 18.5626 9.69452 20.614C9.36197 22.6655 10.7554 24.5981 12.8069 24.9306C14.8583 25.2632 16.7909 23.8698 17.1235 21.8183Z" fill="#0052CC"/>
<path d="M14.9708 20.6741C14.9708 19.8154 14.2721 19.1168 13.4133 19.1168C12.5546 19.1168 11.8559 19.8154 11.8559 20.6741C11.8559 21.0977 12.0263 21.4818 12.3016 21.7629C12.0264 22.0439 11.8559 22.4281 11.8559 22.8516C11.8559 23.1105 12.0658 23.3203 12.3246 23.3203C12.5835 23.3203 12.7934 23.1105 12.7934 22.8516C12.7934 22.5098 13.0714 22.2316 13.4133 22.2316C13.7552 22.2316 14.0333 22.5098 14.0333 22.8516C14.0333 23.1105 14.2432 23.3203 14.5021 23.3203C14.7609 23.3203 14.9708 23.1105 14.9708 22.8516C14.9708 22.428 14.8004 22.0439 14.525 21.7629C14.8004 21.4819 14.9708 21.0977 14.9708 20.6741ZM13.4133 20.0543C13.7552 20.0543 14.0333 20.3323 14.0333 20.6741C14.0333 21.0159 13.7552 21.2941 13.4133 21.2941C13.0715 21.2941 12.7934 21.0159 12.7934 20.6741C12.7934 20.3323 13.0714 20.0543 13.4133 20.0543Z" fill="#091E42"/>
<path d="M36.1236 24.0288H24.0623C23.3285 24.0288 22.7336 23.4338 22.7336 22.7C22.7336 21.9662 23.3285 21.3713 24.0623 21.3713H36.1236C36.8575 21.3713 37.4524 21.9663 37.4524 22.7C37.4524 23.4338 36.8574 24.0288 36.1236 24.0288Z" fill="#0052CC"/>
<path d="M28.5084 23.2445C28.7979 23.2445 29.0325 23.0099 29.0325 22.7205C29.0325 22.431 28.7979 22.1964 28.5084 22.1964C28.219 22.1964 27.9844 22.431 27.9844 22.7205C27.9844 23.0099 28.219 23.2445 28.5084 23.2445Z" fill="#091E42"/>
<path d="M30.0946 23.2445C30.384 23.2445 30.6187 23.0099 30.6187 22.7205C30.6187 22.431 30.384 22.1964 30.0946 22.1964C29.8052 22.1964 29.5705 22.431 29.5705 22.7205C29.5705 23.0099 29.8052 23.2445 30.0946 23.2445Z" fill="#091E42"/>
<path d="M31.679 22.1964C31.9684 22.1964 32.203 22.4311 32.203 22.7205C32.203 23.0099 31.9684 23.2445 31.679 23.2445C31.3896 23.2445 31.1549 23.0099 31.1549 22.7205C31.1549 22.4311 31.3895 22.1964 31.679 22.1964Z" fill="#091E42"/>
<path d="M36.1236 27.7323H24.0623C23.3285 27.7323 22.7336 27.1374 22.7336 26.4036C22.7336 25.6697 23.3285 25.0749 24.0623 25.0749H36.1236C36.8575 25.0749 37.4524 25.6698 37.4524 26.4036C37.4524 27.1374 36.8574 27.7323 36.1236 27.7323Z" fill="#0052CC"/>
<path d="M28.5084 26.9481C28.7979 26.9481 29.0325 26.7135 29.0325 26.424C29.0325 26.1346 28.7979 25.9 28.5084 25.9C28.219 25.9 27.9844 26.1346 27.9844 26.424C27.9844 26.7135 28.219 26.9481 28.5084 26.9481Z" fill="#091E42"/>
<path d="M30.0946 26.9481C30.384 26.9481 30.6187 26.7135 30.6187 26.424C30.6187 26.1346 30.384 25.9 30.0946 25.9C29.8052 25.9 29.5705 26.1346 29.5705 26.424C29.5705 26.7135 29.8052 26.9481 30.0946 26.9481Z" fill="#091E42"/>
<path d="M31.679 25.9C31.9684 25.9 32.203 26.1346 32.203 26.424C32.203 26.7134 31.9684 26.9481 31.679 26.9481C31.3896 26.9481 31.1549 26.7134 31.1549 26.424C31.1549 26.1346 31.3895 25.9 31.679 25.9Z" fill="#091E42"/>
<path d="M31.9595 30.5282H28.2495C28.0941 30.5282 27.9682 30.4023 27.9682 30.2469V29.1688C27.9682 29.0135 28.0941 28.8876 28.2495 28.8876H31.9595C32.1149 28.8876 32.2408 29.0135 32.2408 29.1688V30.2469C32.2408 30.4023 32.1149 30.5282 31.9595 30.5282Z" fill="#0052CC"/>
<path d="M16.5343 27.3837H10.2919C10.0266 27.3837 9.81158 27.1687 9.81158 26.9034C9.81158 26.6382 10.0266 26.4232 10.2919 26.4232H16.5343C16.7995 26.4232 17.0146 26.6382 17.0146 26.9034C17.0146 27.1687 16.7995 27.3837 16.5343 27.3837Z" fill="#091E42"/>
<path d="M14.8468 29.1649H11.9794C11.7141 29.1649 11.4991 28.9498 11.4991 28.6846C11.4991 28.4194 11.7141 28.2043 11.9794 28.2043H14.8468C15.112 28.2043 15.3271 28.4194 15.3271 28.6846C15.3271 28.9498 15.112 29.1649 14.8468 29.1649Z" fill="#091E42"/>
<path d="M35.0828 42.5036C34.9628 42.5036 34.8429 42.4579 34.7513 42.3663L33.7206 41.3356C33.5375 41.1526 33.5375 40.8558 33.7206 40.6728L34.7513 39.6421C34.9344 39.459 35.2311 39.459 35.4142 39.6421L36.4449 40.6728C36.628 40.8558 36.628 41.1526 36.4449 41.3356L35.4142 42.3663C35.3227 42.4579 35.2028 42.5036 35.0828 42.5036ZM34.715 41.0042L35.0828 41.372L35.4506 41.0042L35.0828 40.6364L34.715 41.0042Z" fill="#0052CC"/>
<path d="M12.3241 8.94752C12.2041 8.94752 12.0842 8.90177 11.9926 8.81018L10.9619 7.77949C10.7788 7.59649 10.7788 7.29968 10.9619 7.11668L11.9926 6.08599C12.1757 5.9029 12.4724 5.9029 12.6555 6.08599L13.6862 7.11668C13.8693 7.29968 13.8693 7.59649 13.6862 7.77949L12.6555 8.81018C12.564 8.90177 12.4441 8.94752 12.3241 8.94752ZM11.9563 7.44808L12.3241 7.81586L12.6918 7.44808L12.3241 7.0803L11.9563 7.44808Z" fill="#0052CC"/>
<path d="M17.0148 6.77455C16.8948 6.77455 16.7749 6.7288 16.6833 6.6372L15.6526 5.60652C15.4695 5.42352 15.4695 5.1267 15.6526 4.9437L16.6833 3.91302C16.8664 3.72992 17.1631 3.72992 17.3462 3.91302L18.3769 4.9437C18.56 5.1267 18.56 5.42352 18.3769 5.60652L17.3462 6.6372C17.2548 6.7287 17.1348 6.77455 17.0148 6.77455ZM16.6471 5.27511L17.0149 5.64289L17.3826 5.27511L17.0149 4.90733L16.6471 5.27511Z" fill="#0052CC"/>
<path d="M38.4871 7.29049C38.2282 7.29049 38.0183 7.08067 38.0183 6.82174C38.0183 6.51067 37.7652 6.25755 37.4541 6.25755C37.1953 6.25755 36.9854 6.04774 36.9854 5.7888C36.9854 5.52986 37.1953 5.32005 37.4541 5.32005C37.7652 5.32005 38.0183 5.06702 38.0183 4.75586C38.0183 4.49692 38.2282 4.28711 38.4871 4.28711C38.7459 4.28711 38.9558 4.49692 38.9558 4.75586C38.9558 5.06692 39.2089 5.32005 39.52 5.32005C39.7788 5.32005 39.9888 5.52986 39.9888 5.7888C39.9888 6.04774 39.7788 6.25755 39.52 6.25755C39.2089 6.25755 38.9558 6.51058 38.9558 6.82174C38.9558 7.08058 38.7459 7.29049 38.4871 7.29049Z" fill="#0052CC"/>
</g>
<defs>
<linearGradient id="paint0_linear" x1="2.71721" y1="11.6769" x2="47.1114" y2="38.8195" gradientUnits="userSpaceOnUse">
<stop stop-color="#D2DEFF" stop-opacity="0"/>
<stop offset="1" stop-color="#B7C5FF"/>
</linearGradient>
<clipPath id="clip0">
<rect width="48" height="48" fill="white"/>
</clipPath>
</defs>
</svg>
