<svg width="48" height="48" viewBox="0 0 48 48" fill="none" xmlns="http://www.w3.org/2000/svg">
<g clip-path="url(#clip0)">
<path d="M43.618 15.6203C42.2248 13.9973 41.3076 12.0244 40.8789 9.9289C40.5153 8.15196 39.745 6.61006 38.5388 5.40387C33.0288 -0.1061 20.514 3.47524 10.5862 13.4031C0.658325 23.3309 -2.92302 35.8457 2.58695 41.3557C5.20604 43.9748 9.40792 44.539 14.1622 43.3443C16.9234 42.6505 19.837 42.9424 22.4394 44.0971C24.6145 45.0623 27.0143 45.6133 29.5385 45.6502C39.4456 45.7948 47.7024 37.9109 47.9921 28.0069C48.1308 23.2721 46.459 18.9298 43.618 15.6203Z" fill="url(#paint0_linear)"/>
<path opacity="0.1" d="M38.7523 43.3916H9.25101C8.21544 43.3916 7.37601 42.5521 7.37601 41.5166V12.0153C7.37601 10.9798 8.21544 10.1403 9.25101 10.1403H38.7523C39.7878 10.1403 40.6273 10.9798 40.6273 12.0153V41.5166C40.6273 42.552 39.7877 43.3916 38.7523 43.3916Z" fill="#091E42"/>
<path d="M38.7523 40.8603H9.25101C8.21544 40.8603 7.37601 40.0209 7.37601 38.9853V9.48407C7.37601 8.44851 8.21544 7.60907 9.25101 7.60907H38.7523C39.7878 7.60907 40.6273 8.44851 40.6273 9.48407V38.9853C40.6273 40.0208 39.7877 40.8603 38.7523 40.8603Z" fill="#0052CC"/>
<path d="M40.6273 31.7073V9.48407C40.6273 8.44851 39.7878 7.60907 38.7523 7.60907H9.25101C8.21544 7.60907 7.37601 8.44851 7.37601 9.48407V31.7073H40.6273Z" fill="white"/>
<path d="M38.7523 41.3291H9.25101C7.95866 41.3291 6.90726 40.2777 6.90726 38.9853V9.48407C6.90726 8.19173 7.95866 7.14032 9.25101 7.14032H22.6891C22.948 7.14032 23.1579 7.35023 23.1579 7.60907C23.1579 7.86791 22.948 8.07782 22.6891 8.07782H9.25101C8.4756 8.07782 7.84476 8.70866 7.84476 9.48407V38.9853C7.84476 39.7607 8.4756 40.3916 9.25101 40.3916H38.7523C39.5277 40.3916 40.1585 39.7607 40.1585 38.9853V31.6097C40.1585 31.3509 40.3684 31.141 40.6273 31.141C40.8861 31.141 41.096 31.3509 41.096 31.6097V38.9853C41.096 40.2777 40.0446 41.3291 38.7523 41.3291Z" fill="#091E42"/>
<path d="M40.6274 28.8909C40.3686 28.8909 40.1586 28.681 40.1586 28.4221V9.48407C40.1586 8.70866 39.5278 8.07782 38.7524 8.07782H25.8768C25.6179 8.07782 25.408 7.86791 25.408 7.60907C25.408 7.35023 25.6179 7.14032 25.8768 7.14032H38.7524C40.0447 7.14032 41.0961 8.19173 41.0961 9.48407V28.4221C41.0961 28.681 40.8862 28.8909 40.6274 28.8909Z" fill="#091E42"/>
<path d="M14.0015 12.2038V28.0157C14.0015 28.4994 13.6097 28.8913 13.1268 28.8913C12.644 28.8913 12.2522 28.4994 12.2522 28.0157V12.2038C12.2522 11.7201 12.644 11.3282 13.1268 11.3282C13.3687 11.3282 13.5872 11.4266 13.7456 11.5841C13.9031 11.7435 14.0015 11.9619 14.0015 12.2038Z" fill="#091E42"/>
<path d="M13.1268 20.8285C14.3694 20.8285 15.3768 19.8211 15.3768 18.5785C15.3768 17.3359 14.3694 16.3285 13.1268 16.3285C11.8841 16.3285 10.8768 17.3359 10.8768 18.5785C10.8768 19.8211 11.8841 20.8285 13.1268 20.8285Z" fill="#0052CC"/>
<path d="M21.2521 12.2038V28.0157C21.2521 28.4994 20.8602 28.8913 20.3765 28.8913C19.8936 28.8913 19.5018 28.4994 19.5018 28.0157V12.2038C19.5018 11.7201 19.8936 11.3282 20.3765 11.3282C20.6183 11.3282 20.8368 11.4266 20.9961 11.5841C21.1536 11.7435 21.2521 11.9619 21.2521 12.2038Z" fill="#091E42"/>
<path d="M20.3776 23.641C21.6202 23.641 22.6276 22.6336 22.6276 21.391C22.6276 20.1484 21.6202 19.141 20.3776 19.141C19.135 19.141 18.1276 20.1484 18.1276 21.391C18.1276 22.6336 19.135 23.641 20.3776 23.641Z" fill="#0052CC"/>
<path d="M28.5035 12.2038V28.0157C28.5035 28.4994 28.1116 28.8913 27.6288 28.8913C27.145 28.8913 26.7531 28.4994 26.7531 28.0157V12.2038C26.7531 11.7201 27.145 11.3282 27.6288 11.3282C27.8697 11.3282 28.0891 11.4266 28.2475 11.5841C28.406 11.7435 28.5035 11.9619 28.5035 12.2038Z" fill="#091E42"/>
<path d="M27.6277 18.016C28.8703 18.016 29.8777 17.0086 29.8777 15.766C29.8777 14.5234 28.8703 13.516 27.6277 13.516C26.385 13.516 25.3777 14.5234 25.3777 15.766C25.3777 17.0086 26.385 18.016 27.6277 18.016Z" fill="#0052CC"/>
<path d="M35.7515 12.2038V28.0157C35.7515 28.4994 35.3597 28.8913 34.8769 28.8913C34.394 28.8913 34.0022 28.4994 34.0022 28.0157V12.2038C34.0022 11.7201 34.394 11.3282 34.8769 11.3282C35.1187 11.3282 35.3372 11.4266 35.4956 11.5841C35.6531 11.7435 35.7515 11.9619 35.7515 12.2038Z" fill="#091E42"/>
<path d="M34.8768 26.4535C36.1194 26.4535 37.1268 25.4461 37.1268 24.2035C37.1268 22.9608 36.1194 21.9535 34.8768 21.9535C33.6341 21.9535 32.6268 22.9608 32.6268 24.2035C32.6268 25.4461 33.6341 26.4535 34.8768 26.4535Z" fill="#0052CC"/>
<path d="M12.6115 35.575C12.3457 35.575 12.1303 35.3595 12.1303 35.0938V34.7569C12.1303 34.4911 12.3457 34.2757 12.6115 34.2757C12.8773 34.2757 13.0927 34.4911 13.0927 34.7569V35.0938C13.0927 35.3595 12.8773 35.575 12.6115 35.575Z" fill="#091E42"/>
<path d="M14.728 35.575C14.4622 35.575 14.2468 35.3595 14.2468 35.0938V34.7569C14.2468 34.4911 14.4622 34.2757 14.728 34.2757C14.9938 34.2757 15.2092 34.4911 15.2092 34.7569V35.0938C15.2092 35.3595 14.9938 35.575 14.728 35.575Z" fill="#091E42"/>
<path d="M16.8453 35.575C16.5795 35.575 16.3641 35.3595 16.3641 35.0938V34.7569C16.3641 34.4911 16.5795 34.2757 16.8453 34.2757C17.1111 34.2757 17.3265 34.4911 17.3265 34.7569V35.0938C17.3265 35.3595 17.1112 35.575 16.8453 35.575Z" fill="#091E42"/>
<path d="M12.6115 38.0492C12.3457 38.0492 12.1303 37.8337 12.1303 37.5679V37.2311C12.1303 36.9653 12.3457 36.7499 12.6115 36.7499C12.8773 36.7499 13.0927 36.9653 13.0927 37.2311V37.5679C13.0927 37.8337 12.8773 38.0492 12.6115 38.0492Z" fill="#091E42"/>
<path d="M14.728 38.0492C14.4622 38.0492 14.2468 37.8337 14.2468 37.5679V37.2311C14.2468 36.9653 14.4622 36.7499 14.728 36.7499C14.9938 36.7499 15.2092 36.9653 15.2092 37.2311V37.5679C15.2092 37.8337 14.9938 38.0492 14.728 38.0492Z" fill="#091E42"/>
<path d="M16.8453 38.0492C16.5795 38.0492 16.3641 37.8337 16.3641 37.5679V37.2311C16.3641 36.9653 16.5795 36.7499 16.8453 36.7499C17.1111 36.7499 17.3265 36.9653 17.3265 37.2311V37.5679C17.3265 37.8337 17.1112 38.0492 16.8453 38.0492Z" fill="#091E42"/>
<path d="M31.6543 37.4477C32.3507 37.4477 32.9153 36.8831 32.9153 36.1867C32.9153 35.4902 32.3507 34.9257 31.6543 34.9257C30.9578 34.9257 30.3932 35.4902 30.3932 36.1867C30.3932 36.8831 30.9578 37.4477 31.6543 37.4477Z" fill="white"/>
<path d="M35.5848 37.4477C36.2812 37.4477 36.8458 36.8831 36.8458 36.1867C36.8458 35.4902 36.2812 34.9257 35.5848 34.9257C34.8883 34.9257 34.3238 35.4902 34.3238 36.1867C34.3238 36.8831 34.8883 37.4477 35.5848 37.4477Z" fill="white"/>
<path d="M28.5505 36.6553H21.3768C21.1178 36.6553 20.908 36.4454 20.908 36.1865C20.908 35.9277 21.1178 35.7178 21.3768 35.7178H28.5505C28.8095 35.7178 29.0193 35.9277 29.0193 36.1865C29.0193 36.4454 28.8094 36.6553 28.5505 36.6553Z" fill="#091E42"/>
<path d="M4.48696 28.424C3.8143 28.424 3.26708 27.8768 3.26708 27.2041C3.26708 26.5315 3.8143 25.9843 4.48696 25.9843C5.15961 25.9843 5.70683 26.5315 5.70683 27.2041C5.70683 27.8768 5.15961 28.424 4.48696 28.424ZM4.48696 26.9218C4.33124 26.9218 4.20458 27.0484 4.20458 27.2041C4.20458 27.3598 4.33124 27.4865 4.48696 27.4865C4.64268 27.4865 4.76933 27.3598 4.76933 27.2041C4.76933 27.0484 4.64268 26.9218 4.48696 26.9218Z" fill="#0052CC"/>
<path d="M3.73658 23.362C3.06392 23.362 2.5167 22.8148 2.5167 22.1421C2.5167 21.4695 3.06392 20.9222 3.73658 20.9222C4.40923 20.9222 4.95645 21.4695 4.95645 22.1421C4.95636 22.8147 4.40923 23.362 3.73658 23.362ZM3.73658 21.8597C3.58086 21.8597 3.4542 21.9864 3.4542 22.1421C3.4542 22.2978 3.58086 22.4245 3.73658 22.4245C3.89229 22.4245 4.01895 22.2978 4.01895 22.1421C4.01886 21.9864 3.8922 21.8597 3.73658 21.8597Z" fill="#0052CC"/>
<path d="M34.0015 5.3483C33.8815 5.3483 33.7616 5.30255 33.67 5.21105L32.6387 4.1798C32.4556 3.9967 32.4556 3.69989 32.6387 3.51689L33.67 2.48564C33.8531 2.30264 34.1498 2.30264 34.3329 2.48564L35.3641 3.51689C35.5472 3.69998 35.5472 3.9968 35.3641 4.1798L34.3329 5.21105C34.2414 5.30245 34.1215 5.3483 34.0015 5.3483ZM33.6331 3.8483L34.0015 4.21664L34.3698 3.8483L34.0015 3.47995L33.6331 3.8483Z" fill="#0052CC"/>
<path d="M44.0668 16.2348C43.9468 16.2348 43.8269 16.189 43.7353 16.0975L42.7041 15.0663C42.521 14.8832 42.521 14.5864 42.7041 14.4034L43.7353 13.3721C43.9184 13.1891 44.2151 13.1891 44.3982 13.3721L45.4295 14.4034C45.6126 14.5865 45.6126 14.8833 45.4295 15.0663L44.3982 16.0975C44.3067 16.1889 44.1868 16.2348 44.0668 16.2348ZM43.6985 14.7348L44.0668 15.1031L44.4352 14.7348L44.0668 14.3664L43.6985 14.7348Z" fill="#0052CC"/>
<path d="M21.4066 45.6247C21.2866 45.6247 21.1667 45.579 21.0751 45.4875L20.0439 44.4562C19.8608 44.2731 19.8608 43.9763 20.0439 43.7933L21.0751 42.7621C21.2582 42.5791 21.5549 42.5791 21.738 42.7621L22.7693 43.7933C22.9524 43.9764 22.9524 44.2732 22.7693 44.4562L21.738 45.4875C21.6465 45.579 21.5266 45.6247 21.4066 45.6247ZM21.0383 44.1247L21.4066 44.4931L21.775 44.1247L21.4066 43.7564L21.0383 44.1247Z" fill="#0052CC"/>
</g>
<defs>
<linearGradient id="paint0_linear" x1="24.0002" y1="56.3153" x2="24.0002" y2="5.95803" gradientUnits="userSpaceOnUse">
<stop stop-color="#D2DEFF" stop-opacity="0"/>
<stop offset="1" stop-color="#B7C5FF"/>
</linearGradient>
<clipPath id="clip0">
<rect width="48" height="48" fill="white"/>
</clipPath>
</defs>
</svg>
