<svg width="48" height="48" viewBox="0 0 48 48" fill="none" xmlns="http://www.w3.org/2000/svg">
<g clip-path="url(#clip0)">
<path d="M42.3555 4.1214C27.3034 -5.05392 3.8702 3.31402 1.14357 9.92911C-2.50405 18.7786 3.63526 20.2911 4.77573 27.5423C5.69082 33.3605 -0.0225837 38.9325 3.23879 44.0687C6.79023 49.6621 18.5636 48.2576 23.0386 45.6106C31.2301 40.7655 27.0988 35.1095 30.9777 28.0514C34.6722 21.3288 41.8756 24.0553 46.0678 18.6773C50.0522 13.566 47.4095 7.20211 42.3555 4.1214Z" fill="url(#paint0_linear)"/>
<g opacity="0.1">
<path opacity="0.1" d="M41.4774 40.8126H40.9668L39.7719 34.9655C39.6827 34.5291 39.2988 34.2157 38.8534 34.2157H38.7568V21.189C38.7568 14.2655 33.1443 8.6529 26.2208 8.6529H26.2208C22.82 8.6529 19.7361 10.0077 17.4776 12.2063C16.7632 9.38349 14.2068 7.29456 11.162 7.29456C7.56385 7.29456 4.64691 10.2114 4.64691 13.8096C4.64691 17.4078 7.56376 20.3247 11.162 20.3247C12.0871 20.3247 12.9666 20.1306 13.7636 19.783C13.7121 20.2446 13.6847 20.7136 13.6847 21.189V34.2156H13.5881C13.1427 34.2156 12.7588 34.529 12.6697 34.9654L11.4747 40.8125H10.9641C10.4463 40.8125 10.0266 41.2322 10.0266 41.75V43.5177C10.0266 44.0355 10.4463 44.4552 10.9641 44.4552H41.4773C41.995 44.4552 42.4148 44.0355 42.4148 43.5177V41.75C42.4149 41.2323 41.9952 40.8126 41.4774 40.8126Z" fill="#091E42"/>
<path opacity="0.1" d="M11.5227 23.6297C11.7817 23.6297 11.9915 23.4199 11.9915 23.1609C11.9915 22.902 11.7817 22.6922 11.5227 22.6922H9.78056C9.52163 22.6922 9.31181 22.902 9.31181 23.1609C9.31181 23.4199 9.52163 23.6297 9.78056 23.6297H11.5227Z" fill="#091E42"/>
<path opacity="0.1" d="M5.56181 24.8844C5.56181 25.1433 5.77163 25.3531 6.03056 25.3531H11.5227C11.7817 25.3531 11.9915 25.1433 11.9915 24.8844C11.9915 24.6255 11.7817 24.4156 11.5227 24.4156H6.03056C5.77163 24.4156 5.56181 24.6255 5.56181 24.8844Z" fill="#091E42"/>
<path opacity="0.1" d="M11.9915 26.607C11.9915 26.3481 11.7817 26.1382 11.5227 26.1382H6.03056C5.77163 26.1382 5.56181 26.3481 5.56181 26.607C5.56181 26.8659 5.77163 27.0757 6.03056 27.0757H11.5227C11.7817 27.0757 11.9915 26.8658 11.9915 26.607Z" fill="#091E42"/>
</g>
<path d="M38.7566 36.349H13.6845V18.8455C13.6845 11.922 19.297 6.30939 26.2206 6.30939C33.144 6.30939 38.7566 11.9219 38.7566 18.8455V36.349Z" fill="white"/>
<path d="M26.2203 27.9876C28.0315 27.9876 29.4997 25.045 29.4997 21.415C29.4997 17.7851 28.0315 14.8424 26.2203 14.8424C24.4092 14.8424 22.941 17.7851 22.941 21.415C22.941 25.045 24.4092 27.9876 26.2203 27.9876Z" fill="white"/>
<path d="M26.2203 27.9876C28.0315 27.9876 29.4997 25.045 29.4997 21.415C29.4997 17.7851 28.0315 14.8424 26.2203 14.8424C24.4092 14.8424 22.941 17.7851 22.941 21.415C22.941 25.045 24.4092 27.9876 26.2203 27.9876Z" fill="#0052CC"/>
<path d="M22.658 26.7939V31.8722H29.785V26.7939C29.785 26.5349 29.5751 26.3251 29.3163 26.3251H23.1268C22.8678 26.3251 22.658 26.535 22.658 26.7939Z" fill="#0052CC"/>
<path d="M29.784 32.341C29.5251 32.341 29.3152 32.1312 29.3152 31.8722V26.7939H23.1258V31.8722C23.1258 32.1312 22.916 32.341 22.657 32.341C22.3981 32.341 22.1883 32.1312 22.1883 31.8722V26.7939C22.1883 26.2769 22.6088 25.8564 23.1258 25.8564H29.3152C29.8322 25.8564 30.2527 26.2769 30.2527 26.7939V31.8722C30.2527 32.1312 30.0429 32.341 29.784 32.341Z" fill="#091E42"/>
<path d="M41.1224 39.2297H11.3196L12.6699 32.6221C12.7591 32.1857 13.143 31.8723 13.5885 31.8723H38.8536C39.299 31.8723 39.683 32.1857 39.7722 32.6221L41.1224 39.2297Z" fill="white"/>
<path d="M19.5834 31.8723H27.4231V39.2297H19.5834V31.8723Z" fill="#0052CC"/>
<path d="M16.7329 31.8723H20.6131V39.2297H16.7329V31.8723Z" fill="#0052CC"/>
<path d="M41.4777 42.1117H10.9645C10.4467 42.1117 10.027 41.6919 10.027 41.1742V39.4065C10.027 38.8887 10.4467 38.469 10.9645 38.469H41.4777C41.9954 38.469 42.4152 38.8887 42.4152 39.4065V41.1742C42.4152 41.6919 41.9954 42.1117 41.4777 42.1117Z" fill="white"/>
<path d="M11.163 17.9811C14.7612 17.9811 17.678 15.0642 17.678 11.466C17.678 7.86782 14.7612 4.95093 11.163 4.95093C7.56481 4.95093 4.64792 7.86782 4.64792 11.466C4.64792 15.0642 7.56481 17.9811 11.163 17.9811Z" fill="#0052CC"/>
<path d="M14.1952 10.0932H12.5363V8.4342C12.5363 7.91642 12.1165 7.4967 11.5988 7.4967H10.7286C10.2108 7.4967 9.79107 7.91642 9.79107 8.4342V10.0932H8.13206C7.61428 10.0932 7.19456 10.5129 7.19456 11.0307V11.9009C7.19456 12.4187 7.61428 12.8384 8.13206 12.8384H9.79097V14.4973C9.79097 15.0151 10.2107 15.4348 10.7285 15.4348H11.5987C12.1164 15.4348 12.5362 15.0151 12.5362 14.4973V12.8384H14.1951C14.7128 12.8384 15.1326 12.4187 15.1326 11.9009V11.0307C15.1327 10.5129 14.7129 10.0932 14.1952 10.0932Z" fill="white"/>
<path d="M41.4775 38.0001H41.3495L40.2313 32.5279C40.1236 32.0017 39.7252 31.5925 39.2258 31.4542V18.8453C39.2258 11.6745 33.3918 5.84052 26.221 5.84052C23.0694 5.84052 20.0676 6.96505 17.7024 9.01883C16.7086 6.37152 14.1523 4.48218 11.1621 4.48218C7.31133 4.48218 4.17839 7.61512 4.17839 11.466C4.17839 15.3169 7.31133 18.4498 11.1621 18.4498C15.013 18.4498 18.1459 15.3169 18.1459 11.466C18.1459 10.9697 18.093 10.4856 17.994 10.0183C20.235 7.92824 23.1511 6.77812 26.221 6.77812C32.875 6.77812 38.2883 12.1914 38.2883 18.8454V31.4033H14.1537V20.303C14.1537 20.044 13.9439 19.8342 13.6849 19.8342C13.426 19.8342 13.2162 20.044 13.2162 20.303V31.4541C12.7166 31.5925 12.3181 32.0018 12.2106 32.528L11.0924 38.0001H10.9643C10.1889 38.0001 9.55805 38.6309 9.55805 39.4064V41.1741C9.55805 41.9495 10.1889 42.5803 10.9643 42.5803H41.4775C42.2529 42.5803 42.8837 41.9495 42.8837 41.1741V39.4064C42.8837 38.631 42.2529 38.0001 41.4775 38.0001ZM11.1621 17.5123C7.82817 17.5123 5.11589 14.7999 5.11589 11.466C5.11589 8.13205 7.82817 5.41968 11.1621 5.41968C14.496 5.41968 17.2084 8.13205 17.2084 11.466C17.2084 14.7999 14.496 17.5123 11.1621 17.5123ZM41.9462 41.1741C41.9462 41.4325 41.736 41.6428 41.4775 41.6428H10.9643C10.7058 41.6428 10.4955 41.4325 10.4955 41.1741V39.4064C10.4955 39.1479 10.7058 38.9376 10.9643 38.9376H34.1319C34.3908 38.9376 34.6006 38.7278 34.6006 38.4689C34.6006 38.21 34.3908 38.0001 34.1319 38.0001H12.0492L13.1291 32.7156C13.1735 32.4984 13.3666 32.3407 13.5884 32.3407H38.8535C39.0752 32.3407 39.2684 32.4985 39.3128 32.7156L40.3927 38.0001H36.8602C36.6013 38.0001 36.3915 38.21 36.3915 38.4689C36.3915 38.7278 36.6013 38.9376 36.8602 38.9376H41.4775C41.736 38.9376 41.9462 39.1479 41.9462 39.4064V41.1741Z" fill="#091E42"/>
<path d="M11.5227 21.2859C11.7817 21.2859 11.9915 21.0761 11.9915 20.8172C11.9915 20.5583 11.7817 20.3484 11.5227 20.3484H9.78056C9.52163 20.3484 9.31181 20.5583 9.31181 20.8172C9.31181 21.0761 9.52163 21.2859 9.78056 21.2859H11.5227Z" fill="#091E42"/>
<path d="M5.56181 22.5402C5.56181 22.7991 5.77163 23.0089 6.03056 23.0089H11.5227C11.7817 23.0089 11.9915 22.7991 11.9915 22.5402C11.9915 22.2812 11.7817 22.0714 11.5227 22.0714H6.03056C5.77163 22.0714 5.56181 22.2812 5.56181 22.5402Z" fill="#091E42"/>
<path d="M11.9915 24.2632C11.9915 24.0043 11.7817 23.7944 11.5227 23.7944H6.03056C5.77163 23.7944 5.56181 24.0043 5.56181 24.2632C5.56181 24.5221 5.77163 24.7319 6.03056 24.7319H11.5227C11.7817 24.7319 11.9915 24.522 11.9915 24.2632Z" fill="#091E42"/>
<path d="M25.4161 28.6678H24.0083C23.7493 28.6678 23.5395 28.458 23.5395 28.1991C23.5395 27.9402 23.7493 27.7303 24.0083 27.7303H25.4161C25.6751 27.7303 25.8849 27.9402 25.8849 28.1991C25.8849 28.458 25.6751 28.6678 25.4161 28.6678Z" fill="#091E42"/>
<path d="M25.4161 30.252H24.0083C23.7493 30.252 23.5395 30.0422 23.5395 29.7833C23.5395 29.5243 23.7493 29.3145 24.0083 29.3145H25.4161C25.6751 29.3145 25.8849 29.5243 25.8849 29.7833C25.8849 30.0421 25.6751 30.252 25.4161 30.252Z" fill="#091E42"/>
<path d="M26.9298 23.7636C27.9017 23.7636 28.6896 22.369 28.6896 20.6488C28.6896 18.9286 27.9017 17.5341 26.9298 17.5341C25.9579 17.5341 25.1701 18.9286 25.1701 20.6488C25.1701 22.369 25.9579 23.7636 26.9298 23.7636Z" fill="white"/>
<path d="M25.8851 24.1179C26.3773 24.1179 26.7764 23.4116 26.7764 22.5403C26.7764 21.669 26.3773 20.9627 25.8851 20.9627C25.3929 20.9627 24.9938 21.669 24.9938 22.5403C24.9938 23.4116 25.3929 24.1179 25.8851 24.1179Z" fill="white"/>
<path d="M25.886 24.5867C25.1106 24.5867 24.5258 23.7069 24.5258 22.5403C24.5258 21.3737 25.1106 20.494 25.886 20.494C26.6614 20.494 27.246 21.3737 27.246 22.5403C27.246 23.7069 26.6614 24.5867 25.886 24.5867ZM25.886 21.4315C25.7774 21.4315 25.4633 21.8127 25.4633 22.5403C25.4633 23.2679 25.7774 23.6492 25.886 23.6492C25.9945 23.6492 26.3085 23.2679 26.3085 22.5403C26.3085 21.8127 25.9946 21.4315 25.886 21.4315Z" fill="#091E42"/>
<path d="M6.96808 30.8551C6.70914 30.8551 6.49933 30.6453 6.49933 30.3863V30.3724C6.49933 30.1134 6.70914 29.9036 6.96808 29.9036C7.22702 29.9036 7.43683 30.1134 7.43683 30.3724V30.3863C7.43683 30.6453 7.22702 30.8551 6.96808 30.8551Z" fill="#0052CC"/>
<path d="M6.96808 33.4597C6.70914 33.4597 6.49933 33.2499 6.49933 32.9909V32.9769C6.49933 32.7179 6.70914 32.5081 6.96808 32.5081C7.22702 32.5081 7.43683 32.7179 7.43683 32.9769V32.9909C7.43683 33.2499 7.22702 33.4597 6.96808 33.4597Z" fill="#0052CC"/>
<path d="M5.84646 31.5033C5.76668 31.5033 5.68596 31.4829 5.61208 31.4401L5.5999 31.433C5.37584 31.3033 5.29934 31.0166 5.42909 30.7925C5.55883 30.5684 5.8458 30.492 6.06958 30.6217L6.08177 30.6288C6.30583 30.7585 6.38233 31.0452 6.25258 31.2693C6.16577 31.4195 6.00827 31.5033 5.84646 31.5033Z" fill="#0052CC"/>
<path d="M8.10281 32.8054C8.02303 32.8054 7.94231 32.785 7.86843 32.7422L7.85625 32.7352C7.63218 32.6054 7.55568 32.3187 7.68543 32.0947C7.81518 31.8704 8.10215 31.794 8.32593 31.9239L8.33812 31.9309C8.56218 32.0606 8.63868 32.3473 8.50893 32.5714C8.42203 32.7215 8.26453 32.8054 8.10281 32.8054Z" fill="#0052CC"/>
<path d="M5.8354 32.8056C5.67359 32.8056 5.51619 32.7218 5.42928 32.5716C5.29953 32.3476 5.37612 32.0609 5.60009 31.9311L5.61228 31.9241C5.83634 31.7941 6.12312 31.8709 6.25278 32.0949C6.38253 32.319 6.30594 32.6056 6.08197 32.7354L6.06978 32.7424C5.99591 32.7853 5.91509 32.8056 5.8354 32.8056Z" fill="#0052CC"/>
<path d="M8.09177 31.5029C7.92986 31.5029 7.77255 31.419 7.68564 31.2689C7.55589 31.0448 7.63249 30.7581 7.85645 30.6284L7.86864 30.6213C8.09261 30.4914 8.37948 30.5682 8.50914 30.7922C8.63889 31.0162 8.56229 31.3029 8.33833 31.4327L8.32614 31.4397C8.25226 31.4825 8.17136 31.5029 8.09177 31.5029Z" fill="#0052CC"/>
<path d="M42.4146 23.5883C42.1556 23.5883 41.9458 23.3785 41.9458 23.1196V23.1056C41.9458 22.8467 42.1556 22.6368 42.4146 22.6368C42.6735 22.6368 42.8833 22.8467 42.8833 23.1056V23.1196C42.8833 23.3785 42.6734 23.5883 42.4146 23.5883Z" fill="#0052CC"/>
<path d="M42.4146 26.1934C42.1556 26.1934 41.9458 25.9836 41.9458 25.7247V25.7107C41.9458 25.4518 42.1556 25.2419 42.4146 25.2419C42.6735 25.2419 42.8833 25.4518 42.8833 25.7107V25.7247C42.8833 25.9835 42.6734 26.1934 42.4146 26.1934Z" fill="#0052CC"/>
<path d="M41.293 24.236C41.2132 24.236 41.1325 24.2156 41.0586 24.1728L41.0464 24.1658C40.8224 24.036 40.7459 23.7493 40.8756 23.5253C41.0054 23.301 41.2923 23.2246 41.5161 23.3545L41.5283 23.3615C41.7524 23.4912 41.8289 23.7779 41.6991 24.002C41.6122 24.1521 41.4548 24.236 41.293 24.236Z" fill="#0052CC"/>
<path d="M43.5483 25.5379C43.4685 25.5379 43.3878 25.5175 43.314 25.4747L43.3018 25.4677C43.0777 25.3379 43.0012 25.0512 43.131 24.8272C43.2607 24.603 43.5477 24.5266 43.7715 24.6563L43.7836 24.6634C44.0077 24.7931 44.0842 25.0798 43.9545 25.3039C43.8675 25.4541 43.71 25.5379 43.5483 25.5379Z" fill="#0052CC"/>
<path d="M41.2819 25.5388C41.12 25.5388 40.9627 25.4549 40.8758 25.3048C40.7461 25.0807 40.8227 24.794 41.0466 24.6643L41.0588 24.6573C41.283 24.5274 41.5697 24.6041 41.6993 24.8281C41.8291 25.0521 41.7525 25.3388 41.5285 25.4686L41.5163 25.4756C41.4424 25.5184 41.3616 25.5388 41.2819 25.5388Z" fill="#0052CC"/>
<path d="M43.538 24.2362C43.3761 24.2362 43.2188 24.1523 43.1319 24.0022C43.0022 23.7782 43.0788 23.4915 43.3027 23.3617L43.3149 23.3547C43.539 23.2247 43.8258 23.3015 43.9554 23.5255C44.0852 23.7496 44.0086 24.0362 43.7846 24.166L43.7724 24.173C43.6985 24.2159 43.6177 24.2362 43.538 24.2362Z" fill="#0052CC"/>
<path d="M10.2502 30.1612C9.99128 30.1612 9.78146 29.9514 9.78146 29.6924C9.78146 29.365 9.51512 29.0987 9.18774 29.0987C8.92881 29.0987 8.71899 28.8889 8.71899 28.6299C8.71899 28.371 8.92881 28.1612 9.18774 28.1612C9.51512 28.1612 9.78146 27.8948 9.78146 27.5674C9.78146 27.3084 9.99128 27.0986 10.2502 27.0986C10.5092 27.0986 10.719 27.3084 10.719 27.5674C10.719 27.8948 10.9853 28.1612 11.3127 28.1612C11.5716 28.1612 11.7814 28.371 11.7814 28.6299C11.7814 28.8889 11.5716 29.0987 11.3127 29.0987C10.9853 29.0987 10.719 29.365 10.719 29.6924C10.719 29.9514 10.5092 30.1612 10.2502 30.1612Z" fill="#0052CC"/>
<path d="M37.6936 7.8404C37.4347 7.8404 37.2249 7.63058 37.2249 7.37164C37.2249 7.04427 36.9585 6.77793 36.6312 6.77793C36.3722 6.77793 36.1624 6.56811 36.1624 6.30917C36.1624 6.05024 36.3722 5.84042 36.6312 5.84042C36.9585 5.84042 37.2249 5.57408 37.2249 5.2467C37.2249 4.98777 37.4347 4.77795 37.6936 4.77795C37.9526 4.77795 38.1624 4.98777 38.1624 5.2467C38.1624 5.57408 38.4288 5.84042 38.7562 5.84042C39.0151 5.84042 39.2249 6.05024 39.2249 6.30917C39.2249 6.56811 39.0151 6.77793 38.7562 6.77793C38.4288 6.77793 38.1624 7.04427 38.1624 7.37164C38.1624 7.63058 37.9526 7.8404 37.6936 7.8404Z" fill="#0052CC"/>
<path d="M42.1854 10.0905C41.9265 10.0905 41.7166 9.88067 41.7166 9.62174C41.7166 9.29436 41.4503 9.02802 41.1229 9.02802C40.864 9.02802 40.6542 8.8182 40.6542 8.55927C40.6542 8.30033 40.864 8.09052 41.1229 8.09052C41.4503 8.09052 41.7166 7.82408 41.7166 7.4967C41.7166 7.23777 41.9265 7.02795 42.1854 7.02795C42.4443 7.02795 42.6541 7.23777 42.6541 7.4967C42.6541 7.82408 42.9205 8.09052 43.2479 8.09052C43.5068 8.09052 43.7166 8.30033 43.7166 8.55927C43.7166 8.8182 43.5068 9.02802 43.2479 9.02802C42.9205 9.02802 42.6541 9.29436 42.6541 9.62174C42.6541 9.88067 42.4442 10.0905 42.1854 10.0905Z" fill="#0052CC"/>
<path d="M20.6116 38.4691C20.3527 38.4691 20.1428 38.2593 20.1428 38.0004V31.8722C20.1428 31.6133 20.3527 31.4034 20.6116 31.4034C20.8705 31.4034 21.0803 31.6133 21.0803 31.8722V38.0004C21.0803 38.2593 20.8705 38.4691 20.6116 38.4691Z" fill="#091E42"/>
</g>
<defs>
<linearGradient id="paint0_linear" x1="-0.000552955" y1="23.9999" x2="47.9994" y2="23.9999" gradientUnits="userSpaceOnUse">
<stop stop-color="#D2DEFF" stop-opacity="0"/>
<stop offset="1" stop-color="#B7C5FF"/>
</linearGradient>
<clipPath id="clip0">
<rect width="48" height="48" fill="white"/>
</clipPath>
</defs>
</svg>
