<svg width="48" height="48" viewBox="0 0 48 48" fill="none" xmlns="http://www.w3.org/2000/svg">
<g clip-path="url(#clip0)">
<path d="M47.4027 27.1329C46.294 23.8883 43.8272 21.4929 40.854 20.364C39.3137 19.7791 38.2904 18.315 38.2678 16.6675C38.2673 16.6315 38.2666 16.5954 38.2658 16.5593C38.1245 10.5048 33.0638 5.65341 27.0086 5.75738C23.4373 5.81869 20.2785 7.57191 18.2987 10.2499C16.5939 12.556 13.9403 13.9966 11.0725 13.9951C10.9883 13.9951 10.904 13.9959 10.8194 13.9978C5.01464 14.1248 0.0787039 19.1051 0.00126641 24.9107C-0.0811398 31.0918 4.90467 36.1283 11.0668 36.1283C15.843 36.1283 19.912 33.1023 21.4623 28.8629C21.868 27.7537 23.0703 27.1591 24.2076 27.478C24.2218 27.482 24.236 27.486 24.2503 27.4898C25.2908 27.7771 25.9807 28.7686 25.8956 29.8448C25.7815 31.2869 25.9501 32.7749 26.4391 34.2319C28.363 39.9633 34.613 43.1086 40.3604 41.2331C46.2395 39.3146 49.3959 32.966 47.4027 27.1329Z" fill="url(#paint0_linear)"/>
<path opacity="0.1" d="M30.2968 15.2852H17.7042C17.1852 15.2852 16.7644 14.8644 16.7644 14.3454V4.1007C16.7644 3.5817 17.1852 3.16095 17.7042 3.16095H30.2968C30.8158 3.16095 31.2366 3.5817 31.2366 4.1007V14.3454C31.2366 14.8645 30.8158 15.2852 30.2968 15.2852Z" fill="#091E42"/>
<path opacity="0.1" d="M28.8865 29.8243H19.1123C18.5933 29.8243 18.1726 29.4035 18.1726 28.8845V22.8675C18.1726 22.3485 18.5933 21.9278 19.1123 21.9278H28.8865C29.4055 21.9278 29.8262 22.3485 29.8262 22.8675V28.8845C29.8262 29.4035 29.4055 29.8243 28.8865 29.8243Z" fill="#091E42"/>
<path opacity="0.1" d="M44.1071 21.9281H39.6888V21.7556C39.6888 20.461 38.6356 19.4078 37.341 19.4078H10.659C9.36441 19.4078 8.31122 20.461 8.31122 21.7556V21.9281H3.89287C3.37387 21.9281 2.95312 22.3488 2.95312 22.8678V28.8848C2.95312 29.4038 3.37387 29.8245 3.89287 29.8245H13.6671C14.1861 29.8245 14.6068 29.4038 14.6068 28.8848V22.8678C14.6068 22.3488 14.1861 21.9281 13.6671 21.9281H9.24872V21.7556C9.24872 20.9779 9.88134 20.3453 10.659 20.3453H37.341C38.1187 20.3453 38.7513 20.9779 38.7513 21.7556V21.9281H34.3329C33.8139 21.9281 33.3932 22.3488 33.3932 22.8678V28.8848C33.3932 29.4038 33.8139 29.8245 34.3329 29.8245H44.1071C44.6261 29.8245 45.0469 29.4038 45.0469 28.8848V22.8678C45.0469 22.3488 44.6261 21.9281 44.1071 21.9281Z" fill="#091E42"/>
<path d="M30.2968 16.9728H17.7042C17.1852 16.9728 16.7644 16.552 16.7644 16.033V5.7882C16.7644 5.2692 17.1852 4.84845 17.7042 4.84845H30.2968C30.8158 4.84845 31.2366 5.2692 31.2366 5.7882V16.0329C31.2366 16.5521 30.8158 16.9728 30.2968 16.9728Z" fill="white"/>
<path d="M30.2964 4.84845H27.0938V16.9728H30.2964C30.8154 16.9728 31.2361 16.552 31.2361 16.033V5.7882C31.2361 5.2692 30.8154 4.84845 30.2964 4.84845Z" fill="white"/>
<path d="M31.2366 7.91829V5.7882C31.2366 5.2692 30.8158 4.84845 30.2968 4.84845H17.7042C17.1852 4.84845 16.7644 5.2692 16.7644 5.7882V7.91829H31.2366Z" fill="#0052CC"/>
<path d="M25.2056 13.9349H19.7009C19.4414 13.9349 19.2312 13.7245 19.2312 13.4651C19.2312 13.2057 19.4414 12.9953 19.7009 12.9953H25.2056C25.4651 12.9953 25.6754 13.2057 25.6754 13.4651C25.6753 13.7246 25.465 13.9349 25.2056 13.9349Z" fill="#091E42"/>
<path d="M22.6692 11.9842H19.7019C19.4424 11.9842 19.2322 11.7739 19.2322 11.5145C19.2322 11.2551 19.4424 11.0447 19.7019 11.0447H22.6692C22.9287 11.0447 23.139 11.2551 23.139 11.5145C23.139 11.7739 22.9286 11.9842 22.6692 11.9842Z" fill="#091E42"/>
<path d="M13.6671 31.5118H3.89287C3.37387 31.5118 2.95312 31.091 2.95312 30.572V24.555C2.95312 24.036 3.37387 23.6153 3.89287 23.6153H13.6671C14.1861 23.6153 14.6068 24.036 14.6068 24.555V30.572C14.6068 31.091 14.1861 31.5118 13.6671 31.5118Z" fill="white"/>
<path d="M13.6671 31.5118H3.89287C3.37387 31.5118 2.95312 31.091 2.95312 30.572V24.555C2.95312 24.036 3.37387 23.6153 3.89287 23.6153H13.6671C14.1861 23.6153 14.6068 24.036 14.6068 24.555V30.572C14.6068 31.091 14.1861 31.5118 13.6671 31.5118Z" fill="white"/>
<path d="M14.6068 26.6851V24.555C14.6068 24.036 14.1861 23.6153 13.6671 23.6153H3.89287C3.37387 23.6153 2.95312 24.036 2.95312 24.555V26.6851H14.6068Z" fill="#0052CC"/>
<path d="M11.6695 29.3942H5.88966C5.63016 29.3942 5.41988 29.1838 5.41988 28.9244C5.41988 28.665 5.63016 28.4547 5.88966 28.4547H11.6694C11.9289 28.4547 12.1392 28.665 12.1392 28.9244C12.1392 29.1838 11.9289 29.3942 11.6695 29.3942Z" fill="#091E42"/>
<path d="M28.8865 31.5118H19.1123C18.5933 31.5118 18.1726 31.091 18.1726 30.572V24.555C18.1726 24.036 18.5933 23.6153 19.1123 23.6153H28.8865C29.4055 23.6153 29.8262 24.036 29.8262 24.555V30.572C29.8262 31.091 29.4055 31.5118 28.8865 31.5118Z" fill="white"/>
<path d="M29.8262 26.6851V24.555C29.8262 24.036 29.4055 23.6153 28.8865 23.6153H19.1123C18.5933 23.6153 18.1726 24.036 18.1726 24.555V26.6851H29.8262Z" fill="#0052CC"/>
<path d="M26.8899 29.3942H21.1101C20.8506 29.3942 20.6403 29.1838 20.6403 28.9244C20.6403 28.665 20.8506 28.4547 21.1101 28.4547H26.8899C27.1494 28.4547 27.3597 28.665 27.3597 28.9244C27.3597 29.1838 27.1493 29.3942 26.8899 29.3942Z" fill="#091E42"/>
<path d="M44.1077 31.5118H34.3335C33.8145 31.5118 33.3938 31.091 33.3938 30.572V24.555C33.3938 24.036 33.8145 23.6153 34.3335 23.6153H44.1077C44.6267 23.6153 45.0475 24.036 45.0475 24.555V30.572C45.0475 31.091 44.6267 31.5118 44.1077 31.5118Z" fill="white"/>
<path d="M45.0475 26.6851V24.555C45.0475 24.036 44.6267 23.6153 44.1077 23.6153H34.3335C33.8145 23.6153 33.3938 24.036 33.3938 24.555V26.6851H45.0475Z" fill="#0052CC"/>
<path d="M42.1093 29.3942H36.3295C36.07 29.3942 35.8598 29.1838 35.8598 28.9244C35.8598 28.665 36.07 28.4547 36.3295 28.4547H42.1093C42.3688 28.4547 42.5791 28.665 42.5791 28.9244C42.5791 29.1838 42.3687 29.3942 42.1093 29.3942Z" fill="#091E42"/>
<path opacity="0.1" d="M37.0606 34.7863H32.6423V34.6137C32.6423 33.3191 31.5891 32.2659 30.2945 32.2659H17.7051C16.4105 32.2659 15.3573 33.3191 15.3573 34.6137V34.7863H10.939C10.42 34.7863 9.99924 35.2071 9.99924 35.7261V41.743C9.99924 42.262 10.42 42.6828 10.939 42.6828H20.7132C21.2322 42.6828 21.6529 42.262 21.6529 41.743V35.7261C21.6529 35.2071 21.2322 34.7863 20.7132 34.7863H16.2948V34.6137C16.2948 33.8361 16.9275 33.2034 17.7051 33.2034H30.2945C31.0722 33.2034 31.7048 33.8361 31.7048 34.6137V34.7863H27.2865C26.7675 34.7863 26.3467 35.2071 26.3467 35.7261V41.743C26.3467 42.262 26.7675 42.6828 27.2865 42.6828H37.0606C37.5796 42.6828 38.0004 42.262 38.0004 41.743V35.7261C38.0004 35.2071 37.5796 34.7863 37.0606 34.7863Z" fill="#091E42"/>
<path d="M20.7141 44.3696H10.94C10.421 44.3696 10.0002 43.9488 10.0002 43.4298V37.4128C10.0002 36.8938 10.421 36.4731 10.94 36.4731H20.7142C21.2332 36.4731 21.6539 36.8938 21.6539 37.4128V43.4298C21.6539 43.9488 21.2332 44.3696 20.7141 44.3696Z" fill="white"/>
<path d="M21.6539 39.5429V37.4128C21.6539 36.8938 21.2332 36.4731 20.7142 36.4731H10.94C10.421 36.4731 10.0002 36.8938 10.0002 37.4128V39.5429H21.6539Z" fill="#0052CC"/>
<path d="M18.7166 42.2529H12.9368C12.6773 42.2529 12.467 42.0425 12.467 41.7831C12.467 41.5237 12.6773 41.3134 12.9368 41.3134H18.7166C18.9761 41.3134 19.1863 41.5237 19.1863 41.7831C19.1863 42.0425 18.9761 42.2529 18.7166 42.2529Z" fill="#091E42"/>
<path d="M37.0606 44.3696H27.2864C26.7674 44.3696 26.3467 43.9488 26.3467 43.4298V37.4128C26.3467 36.8938 26.7674 36.4731 27.2864 36.4731H37.0606C37.5796 36.4731 38.0004 36.8938 38.0004 37.4128V43.4298C38.0004 43.9488 37.5796 44.3696 37.0606 44.3696Z" fill="white"/>
<path d="M38.0013 39.5429V37.4128C38.0013 36.8938 37.5805 36.4731 37.0615 36.4731H27.2874C26.7684 36.4731 26.3477 36.8938 26.3477 37.4128V39.5429H38.0013Z" fill="#0052CC"/>
<path d="M35.064 42.2529H29.2842C29.0247 42.2529 28.8144 42.0425 28.8144 41.7831C28.8144 41.5237 29.0247 41.3134 29.2842 41.3134H35.064C35.3235 41.3134 35.5338 41.5237 35.5338 41.7831C35.5338 42.0425 35.3235 42.2529 35.064 42.2529Z" fill="#091E42"/>
<path d="M44.1071 23.1467H39.6884C39.6802 21.859 38.6305 20.8139 37.341 20.8139H24.4688V17.4416H30.2963C31.073 17.4416 31.7048 16.8097 31.7048 16.0331V10.5059C31.7048 10.247 31.4949 10.0371 31.236 10.0371C30.9771 10.0371 30.7673 10.247 30.7673 10.5059V16.0331C30.7673 16.2928 30.5559 16.5041 30.2963 16.5041H17.7037C17.444 16.5041 17.2327 16.2928 17.2327 16.0331V8.38704H31.2361C31.495 8.38704 31.7048 8.17714 31.7048 7.91829V5.7882C31.7048 5.01157 31.0731 4.3797 30.2964 4.3797H17.7037C16.927 4.3797 16.2952 5.01157 16.2952 5.7882V16.0329C16.2952 16.8095 16.927 17.4414 17.7037 17.4414H23.5312V20.8137H10.659C9.36947 20.8137 8.31975 21.8588 8.31159 23.1465H3.89287C3.11625 23.1465 2.48438 23.7784 2.48438 24.555V30.5719C2.48438 31.3486 3.11625 31.9805 3.89287 31.9805H13.6671C14.4437 31.9805 15.0756 31.3486 15.0756 30.5719V24.555C15.0756 23.7784 14.4437 23.1465 13.6671 23.1465H9.24947C9.25763 22.3758 9.88641 21.7512 10.659 21.7512H23.5312V23.1465H19.1129C18.3363 23.1465 17.7044 23.7784 17.7044 24.555V30.5719C17.7044 31.3486 18.3363 31.9805 19.1129 31.9805H23.5312V33.6718H17.7052C16.4157 33.6718 15.366 34.7169 15.3578 36.0046H10.9391C10.1625 36.0046 9.53063 36.6365 9.53063 37.4131V43.43C9.53063 44.2067 10.1625 44.8385 10.9391 44.8385H20.7133C21.4899 44.8385 22.1218 44.2067 22.1218 43.43V37.4131C22.1218 36.6364 21.4899 36.0046 20.7133 36.0046H16.2957C16.3039 35.2339 16.9327 34.6093 17.7052 34.6093H30.2947C31.0673 34.6093 31.696 35.2339 31.7042 36.0046H27.2866C26.51 36.0046 25.8781 36.6365 25.8781 37.4131V43.43C25.8781 44.2067 26.51 44.8385 27.2866 44.8385H37.0608C37.8374 44.8385 38.4692 44.2067 38.4692 43.43V37.4131C38.4692 36.6364 37.8374 36.0046 37.0608 36.0046H32.6421C32.6339 34.7169 31.5842 33.6718 30.2947 33.6718H24.4688V31.9805H28.8871C29.6637 31.9805 30.2956 31.3486 30.2956 30.5719V24.555C30.2956 23.7784 29.6637 23.1465 28.8871 23.1465H24.4688V21.7512H37.341C38.1136 21.7512 38.7424 22.3758 38.7505 23.1465H34.3329C33.5563 23.1465 32.9245 23.7784 32.9245 24.555V30.5719C32.9245 31.3486 33.5563 31.9805 34.3329 31.9805H44.1071C44.8838 31.9805 45.5156 31.3486 45.5156 30.5719V24.555C45.5156 23.7785 44.8838 23.1467 44.1071 23.1467ZM17.2327 5.7882C17.2327 5.52851 17.444 5.3172 17.7037 5.3172H30.2963C30.556 5.3172 30.7673 5.52851 30.7673 5.7882V7.44954H17.2326V5.7882H17.2327ZM13.6671 31.0431H3.89287C3.63319 31.0431 3.42188 30.8318 3.42188 30.5721V27.154H14.1381V30.5721C14.1381 30.8318 13.9268 31.0431 13.6671 31.0431ZM14.1381 24.5552V26.2165H3.42188V24.5552C3.42188 24.2955 3.63319 24.0842 3.89287 24.0842H13.6671C13.9268 24.0842 14.1381 24.2955 14.1381 24.5552ZM21.1843 37.4133V43.4302C21.1843 43.6899 20.973 43.9012 20.7133 43.9012H10.9392C10.6795 43.9012 10.4682 43.6899 10.4682 43.4302V40.0121H19.0658C19.3246 40.0121 19.5345 39.8022 19.5345 39.5434C19.5345 39.2845 19.3246 39.0746 19.0658 39.0746H10.4682V37.4133C10.4682 37.1535 10.6795 36.9423 10.9392 36.9423H20.7134C20.973 36.9423 21.1843 37.1536 21.1843 37.4133ZM37.0608 43.9012H27.2867C27.0269 43.9012 26.8157 43.6899 26.8157 43.4302V40.0121H37.5319V43.4302C37.5318 43.6899 37.3205 43.9012 37.0608 43.9012ZM37.5318 37.4133V39.0746H26.8156V37.4133C26.8156 37.1535 27.0269 36.9423 27.2866 36.9423H37.0608C37.3205 36.9423 37.5318 37.1536 37.5318 37.4133ZM28.8871 31.0431H19.1129C18.8532 31.0431 18.6419 30.8318 18.6419 30.5721V27.154H29.3581V30.5721C29.3581 30.8318 29.1468 31.0431 28.8871 31.0431ZM29.3581 24.5552V26.2165H18.6419V24.5552C18.6419 24.2955 18.8532 24.0842 19.1129 24.0842H28.8871C29.1468 24.0842 29.3581 24.2955 29.3581 24.5552ZM34.3329 24.0842H44.1071C44.3669 24.0842 44.5781 24.2955 44.5781 24.5552V26.2165H33.8619V24.5552C33.8619 24.2955 34.0732 24.0842 34.3329 24.0842ZM44.1071 31.0431H34.3329C34.0732 31.0431 33.862 30.8318 33.862 30.5721V27.154H44.5781V30.5721C44.5781 30.8318 44.3668 31.0431 44.1071 31.0431Z" fill="#091E42"/>
<path d="M12.1389 12.5767C11.88 12.5767 11.6701 12.3668 11.6701 12.1079C11.6701 11.7966 11.4168 11.5433 11.1055 11.5433C10.8466 11.5433 10.6367 11.3334 10.6367 11.0745C10.6367 10.8157 10.8466 10.6058 11.1055 10.6058C11.4168 10.6058 11.6701 10.3525 11.6701 10.041C11.6701 9.78217 11.88 9.57227 12.1389 9.57227C12.3977 9.57227 12.6076 9.78217 12.6076 10.041C12.6076 10.3525 12.8609 10.6058 13.1723 10.6058C13.4311 10.6058 13.641 10.8157 13.641 11.0745C13.641 11.3334 13.4311 11.5433 13.1723 11.5433C12.8609 11.5433 12.6076 11.7966 12.6076 12.1079C12.6076 12.3668 12.3977 12.5767 12.1389 12.5767Z" fill="#0052CC"/>
<path d="M41.8128 37.4534C41.5538 37.4534 41.344 37.2435 41.344 36.9846C41.344 36.6733 41.0907 36.42 40.7793 36.42C40.5203 36.42 40.3105 36.2101 40.3105 35.9512C40.3105 35.6924 40.5203 35.4825 40.7793 35.4825C41.0907 35.4825 41.344 35.2292 41.344 34.9177C41.344 34.6589 41.5538 34.449 41.8128 34.449C42.0717 34.449 42.2815 34.6589 42.2815 34.9177C42.2815 35.2292 42.5348 35.4825 42.8462 35.4825C43.1051 35.4825 43.3149 35.6924 43.3149 35.9512C43.3149 36.2101 43.1051 36.42 42.8462 36.42C42.5348 36.42 42.2815 36.6733 42.2815 36.9846C42.2815 37.2435 42.0717 37.4534 41.8128 37.4534Z" fill="#0052CC"/>
<path d="M34.8263 19.0072C34.7064 19.0072 34.5863 18.9615 34.4949 18.87L33.4615 17.8366C33.2784 17.6535 33.2784 17.3566 33.4615 17.1736L34.4949 16.1402C34.6778 15.9572 34.9748 15.9572 35.1577 16.1402L36.1912 17.1736C36.3742 17.3567 36.3742 17.6536 36.1912 17.8366L35.1577 18.87C35.0663 18.9614 34.9463 19.0072 34.8263 19.0072ZM34.4558 17.505L34.8263 17.8755L35.1968 17.505L34.8263 17.1345L34.4558 17.505Z" fill="#0052CC"/>
<path d="M6.45338 41.0455C6.33338 41.0455 6.21348 40.9997 6.12188 40.9082L5.08838 39.8748C5.00045 39.7869 4.95113 39.6677 4.95113 39.5433C4.95113 39.4189 5.00054 39.2998 5.08838 39.2118L6.12188 38.1783C6.20982 38.0904 6.32898 38.0411 6.45338 38.0411C6.5777 38.0411 6.69695 38.0905 6.78489 38.1783L7.81829 39.2118C8.00139 39.3949 8.00139 39.6917 7.81829 39.8747L6.78489 40.9081C6.69329 40.9996 6.57339 41.0455 6.45338 41.0455ZM6.08288 39.5432L6.45348 39.9138L6.82407 39.5432L6.45348 39.1726L6.08288 39.5432Z" fill="#0052CC"/>
<path d="M27.0945 12.3661C27.8241 12.3661 28.4157 11.7746 28.4157 11.0449C28.4157 10.3152 27.8241 9.72369 27.0945 9.72369C26.3648 9.72369 25.7732 10.3152 25.7732 11.0449C25.7732 11.7746 26.3648 12.3661 27.0945 12.3661Z" fill="#091E42"/>
</g>
<defs>
<linearGradient id="paint0_linear" x1="5.72949" y1="12.039" x2="46.2132" y2="38.9515" gradientUnits="userSpaceOnUse">
<stop stop-color="#D2DEFF" stop-opacity="0"/>
<stop offset="1" stop-color="#B7C5FF"/>
</linearGradient>
<clipPath id="clip0">
<rect width="48" height="48" fill="white"/>
</clipPath>
</defs>
</svg>
