<svg width="434" height="462" viewBox="0 0 434 462" fill="none" xmlns="http://www.w3.org/2000/svg">
<g clip-path="url(#clip0)">
<path d="M278.243 428.717L236.106 404.431C232.629 402.424 226.936 402.424 223.459 404.431L182.005 428.329C178.527 430.332 178.527 433.633 182.005 435.62L221.293 458.27V461.407H230.12C232.522 461.46 234.954 460.963 236.78 459.914L278.239 436.012C281.724 434.005 281.72 430.724 278.243 428.717Z" fill="url(#paint0_linear)"/>
<path d="M227.116 454.218C223.639 456.221 217.947 456.221 214.469 454.218L172.361 429.928C168.884 427.921 168.884 424.624 172.361 422.637L213.815 398.739C217.297 396.732 222.985 396.732 226.483 398.739L268.611 423.025C272.093 425.032 272.093 428.329 268.611 430.316L227.116 454.218Z" fill="#F6F8FB"/>
<path d="M169.751 431.944C169.685 433.311 170.543 434.694 172.345 435.73L214.474 460.02C217.951 462.023 223.644 462.023 227.121 460.02L268.575 436.118C270.398 435.069 271.256 433.67 271.17 432.291V426.856C271.093 428.113 270.239 429.361 268.58 430.316L227.117 454.218C223.639 456.221 217.947 456.221 214.47 454.218L172.362 429.928C170.645 428.937 169.779 427.635 169.759 426.33L169.751 431.944Z" fill="url(#paint1_linear)"/>
<path d="M268.584 423.025L226.455 398.739C222.977 396.732 217.289 396.732 213.788 398.739L179.872 418.292C180.036 418.406 180.207 418.516 180.391 418.622L219.68 441.271V444.409H228.506C230.909 444.462 233.34 443.968 235.167 442.916L269.082 423.359C268.939 423.245 268.767 423.119 268.584 423.025Z" fill="url(#paint2_linear)"/>
<path d="M225.522 437.22C222.045 439.223 216.353 439.223 212.855 437.22L170.747 412.918C167.269 410.91 167.269 407.634 170.747 405.627L212.201 381.741C215.683 379.733 221.371 379.733 224.869 381.741L266.997 406.03C270.475 408.034 270.479 411.335 266.997 413.318L225.522 437.22Z" fill="white"/>
<path d="M168.145 414.958C168.083 416.329 168.941 417.708 170.743 418.745L212.872 443.034C216.35 445.042 222.042 445.038 225.54 443.034L266.994 419.136C268.817 418.084 269.675 416.688 269.589 415.305V409.858C269.511 411.119 268.657 412.363 266.998 413.318L225.523 437.22C222.046 439.223 216.354 439.223 212.856 437.22L170.748 412.918C169.031 411.927 168.165 410.625 168.145 409.319V414.958Z" fill="url(#paint3_linear)"/>
<path d="M235.289 405.778L234.341 404.374L200.797 411.935L201.745 413.338L235.289 405.778ZM217.746 417.471L233.597 417.847L232.943 408.711L230.332 408.772L230.875 416.28L217.853 415.966L217.746 417.471ZM202.059 408.43L204.667 408.369L204.127 400.861L217.146 401.175L217.256 399.67L201.402 399.29L202.059 408.43Z" fill="#DAE5F5"/>
<path style="mix-blend-mode:multiply" d="M114.672 392.109L90.2901 378.053C88.2797 376.894 84.978 376.894 82.9717 378.053L58.9816 391.885C56.9671 393.043 56.9671 394.945 58.9816 396.104L79.0816 407.691V411.025H86.8454C88.1834 411.082 89.5126 410.785 90.6987 410.164L114.689 396.332C116.687 395.153 116.687 393.252 114.672 392.109Z" fill="url(#paint4_linear)"/>
<path d="M82.9341 405.622C80.9237 406.781 77.6221 406.781 75.6157 405.622L51.2374 391.566C49.2229 390.403 49.2229 388.506 51.2374 387.343L75.2276 373.515C77.2421 372.352 80.5396 372.352 82.546 373.515L106.928 387.572C108.939 388.73 108.939 390.628 106.928 391.791L82.9341 405.622Z" fill="#F1F3F6"/>
<path d="M49.7297 393.896C49.6929 394.688 50.1914 395.487 51.2334 396.087L75.6117 410.143C77.6262 411.306 80.9238 411.306 82.9342 410.143L106.924 396.311C107.979 395.708 108.473 394.896 108.424 394.096V389.787C108.379 390.513 107.885 391.236 106.924 391.791L82.9301 405.623C80.9197 406.781 77.618 406.781 75.6117 405.623L51.2334 391.566C50.2364 390.991 49.7378 390.236 49.7256 389.481L49.7297 393.896Z" fill="url(#paint5_linear)"/>
<g style="mix-blend-mode:multiply">
<path d="M77.1075 388.8C76.7642 387.825 77.2954 386.727 78.6929 385.919C80.8177 384.695 84.1112 384.609 86.0481 385.727C87.9849 386.845 87.8297 388.747 85.7089 389.971C84.1797 390.777 82.44 391.096 80.7237 390.885C82.6892 393.17 82.0232 395.732 79.9351 396.932L73.2787 393.092L66.6182 389.253C68.7021 388.049 73.1438 387.661 77.1075 388.8Z" fill="#D1DFF3"/>
</g>
<path style="mix-blend-mode:multiply" d="M85.6846 348.41C86.0136 348.077 86.409 347.817 86.8451 347.647H91.9651L94.1063 342.975L92.1776 342.677C91.546 342.586 90.9357 342.383 90.3756 342.077C90.0674 341.939 89.804 341.717 89.6149 341.438C89.4258 341.158 89.3185 340.831 89.305 340.494C89.352 339.875 89.352 339.253 89.305 338.634C89.2641 337.299 90.8986 336.646 92.1408 336.451L94.0736 336.153L91.863 331.481H86.7593C86.5923 331.414 86.4298 331.336 86.273 331.248C86.021 331.104 85.7901 330.925 85.5866 330.718C85.0719 330.151 84.5262 329.613 83.9521 329.106C82.763 327.956 83.6129 326.915 84.5201 326.389L85.9298 325.573L80.013 322.149L78.6032 322.965C77.8874 323.343 77.1008 323.568 76.2933 323.627C75.4859 323.685 74.675 323.575 73.9123 323.304C73.001 322.965 72.0653 322.655 71.1132 322.374C70.7948 322.27 70.4881 322.133 70.1979 321.966C69.0578 321.309 69.0006 320.428 69.2662 319.84L69.777 318.726L61.6904 317.474L61.1796 318.587C60.8527 319.31 59.7331 320.26 57.4244 320.219C56.3484 320.192 55.2751 320.192 54.2045 320.219C53.2509 320.263 52.303 320.052 51.4585 319.607C51.0164 319.374 50.6548 319.013 50.4206 318.571L49.9017 317.453L41.8274 318.706L42.3504 319.82C42.6895 320.542 42.5384 321.688 40.532 322.341C39.584 322.623 38.6524 322.933 37.7452 323.271C36.9823 323.542 36.1716 323.651 35.3642 323.593C34.5569 323.534 33.7703 323.31 33.0543 322.933L31.6323 322.117L25.74 325.536L27.1538 326.352C28.0691 326.878 28.9313 327.919 27.7585 329.065C27.1947 329.579 26.6599 330.124 26.1568 330.697C25.0371 331.86 23.0594 331.95 21.8131 331.758L19.8763 331.46L17.7351 336.132L19.6679 336.43C20.2992 336.523 20.9092 336.726 21.4699 337.03C21.7769 337.17 22.0393 337.392 22.2282 337.671C22.417 337.95 22.5251 338.276 22.5405 338.613C22.4914 339.232 22.4914 339.854 22.5405 340.474C22.5467 340.704 22.5024 340.933 22.4107 341.144C22.3189 341.356 22.1819 341.545 22.0093 341.698H8.82715V347.634H25.0821C25.2478 347.701 25.4089 347.779 25.5643 347.867C25.8177 348.011 26.0501 348.19 26.2548 348.397C26.769 348.971 27.3147 349.516 27.8893 350.03C28.0845 350.212 28.2438 350.429 28.3592 350.67H20.6894V356.982H32.2697V356.725L33.2381 356.166C33.9544 355.787 34.7417 355.562 35.55 355.504C36.3583 355.445 37.1699 355.556 37.9332 355.828C38.2846 355.958 38.6483 356.085 39.0079 356.207V361.646H50.0815H50.151L50.6617 360.528C50.7011 360.444 50.7476 360.363 50.8007 360.287V361.646H61.9397L70.014 360.393L69.491 359.279C69.1886 358.635 69.2785 357.647 70.7414 356.982H80.2091L86.1014 353.563L84.6876 352.747C83.7723 352.217 82.9101 351.18 84.0828 350.03C84.6484 349.522 85.1833 348.981 85.6846 348.41ZM66.6919 345.774C60.7547 349.218 51.0908 349.222 45.1127 345.774C39.1345 342.326 39.1059 336.736 45.0432 333.292C50.9805 329.849 60.6443 329.849 66.6225 333.292C72.6006 336.736 72.6333 342.33 66.6919 345.774Z" fill="url(#paint6_linear)"/>
<path d="M55.4142 323.296C49.481 319.873 39.8866 319.873 33.9861 323.296C28.7395 326.34 28.1878 331.073 32.3149 334.492C32.8393 334.062 33.3983 333.676 33.9861 333.337C39.8866 329.914 49.481 329.914 55.4142 333.337C56.0273 333.686 56.6084 334.087 57.1508 334.537C61.3065 331.114 60.7222 326.356 55.4142 323.296Z" fill="url(#paint7_linear)"/>
<path d="M58.1555 309.782C58.0695 309.971 58.0249 310.175 58.0247 310.382L57.9961 320.456C57.9963 320.249 58.0409 320.045 58.1269 319.856L58.6376 318.743L58.6662 308.668L58.1555 309.782Z" fill="#BBCBE2"/>
<path d="M31.2401 309.782L30.7171 308.673L30.6885 318.743L31.2115 319.856C31.3026 320.052 31.35 320.265 31.3504 320.481L31.379 310.407C31.378 310.191 31.3307 309.978 31.2401 309.782Z" fill="#BBCBE2"/>
<path d="M73.4258 316.315C72.8374 316.658 72.2735 317.212 72.2694 317.878L72.249 327.948C72.249 327.287 72.817 326.723 73.4054 326.389L74.8111 325.573L74.8397 315.499L73.4258 316.315Z" fill="#BBCBE2"/>
<path d="M16.0432 316.315L14.6253 315.499L14.5967 325.573L16.0146 326.389C16.6112 326.736 17.1873 327.299 17.1873 327.968L17.2159 317.898C17.2159 317.225 16.6398 316.662 16.0432 316.315Z" fill="#CEDDF4"/>
<path d="M81.0226 326.381C79.7968 326.573 78.1909 327.197 78.1868 328.507L78.1582 338.581C78.1582 337.283 79.7682 336.643 80.994 336.451L82.9268 336.153L82.9554 326.079L81.0226 326.381Z" fill="#BBCBE2"/>
<path d="M78.2234 329.567L78.1948 339.641C78.1948 339.927 78.1948 340.213 78.1621 340.494L78.1907 330.424C78.2111 330.139 78.2234 329.853 78.2234 329.567Z" fill="#242E3C"/>
<path d="M11.4258 330.224V328.56C11.4091 328.223 11.3001 327.897 11.1106 327.618C10.9211 327.339 10.6583 327.117 10.3511 326.977C9.79172 326.674 9.183 326.472 8.55317 326.381L6.6204 326.079L6.5918 336.153L8.52457 336.451C9.15462 336.543 9.76331 336.746 10.3225 337.051C10.5779 337.175 10.8032 337.353 10.9831 337.573C11.163 337.793 11.2931 338.049 11.3645 338.324V339.499C11.3645 339.833 11.3645 340.164 11.4013 340.494L11.4299 330.42C11.4258 330.355 11.4299 330.29 11.4258 330.224Z" fill="#CEDDF4"/>
<path d="M11.4339 330.473L11.4053 340.543C11.4073 340.527 11.4073 340.51 11.4053 340.494L11.4339 330.42C11.4361 330.438 11.4361 330.456 11.4339 330.473Z" fill="#242E3C"/>
<path d="M82.9919 332.901L82.9633 342.975L80.8262 347.647L80.8548 337.577L82.9919 332.901Z" fill="#BBCBE2"/>
<path d="M8.85553 337.577L8.82693 347.647L6.63672 342.975L6.66533 332.901L8.85553 337.577Z" fill="#CEDDF4"/>
<path d="M78.9223 337.275C77.676 337.083 75.6942 337.173 74.5745 338.336C74.0724 338.91 73.5376 339.455 72.9727 339.968C72.8063 340.109 72.6699 340.282 72.5717 340.477C72.4734 340.672 72.4153 340.885 72.4007 341.102L72.3721 351.172C72.3867 350.955 72.4448 350.742 72.5431 350.547C72.6413 350.352 72.7777 350.179 72.9441 350.038C73.5091 349.525 74.0439 348.98 74.5459 348.406C75.6656 347.243 77.6474 347.153 78.8937 347.345L80.8305 347.635L80.8591 337.565L78.9223 337.275Z" fill="url(#paint8_linear)"/>
<path d="M16.7626 339.951C16.187 339.439 15.6413 338.894 15.1281 338.319C14.9235 338.113 14.6927 337.935 14.4416 337.789C13.3015 337.132 11.7856 337.103 10.764 337.258L8.83941 337.56L8.82715 347.634L10.7518 347.337C11.7692 347.177 13.2852 347.21 14.4293 347.867C14.6822 348.01 14.9134 348.189 15.1158 348.397C15.63 348.971 16.1757 349.516 16.7503 350.03C16.9214 350.172 17.0615 350.348 17.1619 350.547C17.2624 350.745 17.3212 350.962 17.3346 351.184L17.3632 341.114C17.3504 340.889 17.2902 340.669 17.1867 340.469C17.0833 340.269 16.9387 340.092 16.7626 339.951Z" fill="url(#paint9_linear)"/>
<path d="M74.9914 343.481L74.9628 353.555L69.0664 356.974L69.0991 346.904L74.9914 343.481Z" fill="#BBCBE2"/>
<path d="M20.7176 346.904L20.689 356.974L14.7559 353.555L14.7845 343.481L20.7176 346.904Z" fill="#CEDDF4"/>
<path d="M67.6767 346.084C66.9606 345.707 66.1739 345.483 65.3664 345.425C64.5589 345.367 63.7483 345.478 62.9858 345.749C62.0786 346.084 61.147 346.398 60.1949 346.68C58.7034 347.165 58.2417 347.924 58.2376 348.577L58.209 358.651C58.209 357.998 58.6748 357.243 60.1663 356.758C61.117 356.472 62.0473 356.161 62.9572 355.823C63.7199 355.552 64.5307 355.442 65.3383 355.501C66.1458 355.559 66.9324 355.784 67.6481 356.162L69.066 356.978L69.0946 346.904L67.6767 346.084Z" fill="url(#paint10_linear)"/>
<path d="M30.5331 347.076C30.2411 346.909 29.9331 346.773 29.6137 346.668C28.6616 346.386 27.73 346.072 26.8188 345.733C26.0552 345.463 25.2438 345.353 24.4357 345.411C23.6276 345.47 22.8404 345.695 22.1237 346.072L20.7181 346.888L20.6895 356.958L22.0951 356.142C22.8114 355.763 23.5987 355.538 24.407 355.48C25.2152 355.421 26.0268 355.531 26.7902 355.803C27.7 356.143 28.6317 356.453 29.5851 356.733C29.9052 356.837 30.2133 356.973 30.5045 357.142C31.3013 357.598 31.5669 358.166 31.5669 358.663L31.5955 348.593C31.5955 348.1 31.3299 347.537 30.5331 347.076Z" fill="url(#paint11_linear)"/>
<path d="M58.9037 350.315L58.8751 360.385L50.8008 361.638L50.8294 351.564L58.9037 350.315Z" fill="#BBCBE2"/>
<path d="M50.3062 350.45C50.0735 350.006 49.7116 349.643 49.2683 349.409C48.424 348.964 47.4759 348.753 46.5223 348.797C45.4558 348.826 44.3812 348.826 43.3065 348.797C41.0019 348.797 39.8782 349.728 39.5472 350.429L39.0364 351.543L39.0078 361.617L39.5186 360.499C39.8537 359.781 40.9733 358.831 43.2779 358.847C44.3526 358.875 45.4272 358.875 46.4937 358.847C47.4469 358.802 48.3949 359.012 49.2397 359.455C49.6814 359.691 50.0427 360.053 50.2776 360.495L50.8006 361.613L50.8292 351.539L50.3062 350.45Z" fill="url(#paint12_linear)"/>
<path d="M73.5772 342.665L74.9911 343.481L69.0947 346.9L67.6767 346.084C66.9606 345.707 66.1739 345.483 65.3664 345.425C64.5589 345.367 63.7483 345.478 62.9858 345.749C62.0786 346.084 61.147 346.398 60.1949 346.68C58.1886 347.332 58.0415 348.479 58.3765 349.197L58.9037 350.315L50.8293 351.564L50.3063 350.45C50.0736 350.006 49.7117 349.643 49.2684 349.409C48.4241 348.964 47.476 348.753 46.5225 348.797C45.456 348.826 44.3813 348.826 43.3066 348.797C41.002 348.797 39.8783 349.728 39.5473 350.429L39.0365 351.543L30.9499 350.295L31.4648 349.177C31.7304 348.585 31.6691 347.712 30.5331 347.055C30.2411 346.889 29.9331 346.752 29.6137 346.647C28.6617 346.365 27.73 346.051 26.8188 345.713C26.0552 345.442 25.2438 345.333 24.4357 345.391C23.6276 345.449 22.8404 345.674 22.1237 346.051L20.7181 346.867L14.7849 343.444L16.1905 342.628C17.0977 342.102 17.9517 341.061 16.7626 339.915C16.1871 339.402 15.6413 338.857 15.1281 338.283C14.9236 338.076 14.6928 337.898 14.4417 337.752C13.3016 337.095 11.7856 337.067 10.7641 337.222L8.83947 337.524L6.64926 332.848L8.57795 332.55C9.80381 332.354 11.4383 331.701 11.4138 330.367C11.3668 329.748 11.3668 329.126 11.4138 328.506C11.3971 328.169 11.2881 327.844 11.0986 327.564C10.9091 327.285 10.6463 327.063 10.3391 326.923C9.77972 326.62 9.171 326.419 8.54117 326.328L6.6084 326.026L8.74957 321.358L10.6823 321.656C11.9082 321.847 13.9064 321.754 15.026 320.595C15.5295 320.021 16.0657 319.476 16.6319 318.963C17.8046 317.812 16.9424 316.776 16.0271 316.245L14.6092 315.429L20.5056 312.01L21.9235 312.826C22.6397 313.205 23.427 313.43 24.2353 313.489C25.0436 313.547 25.8553 313.437 26.6185 313.165C27.5257 312.826 28.4573 312.516 29.4053 312.234C31.4117 311.582 31.5588 310.435 31.2237 309.713L30.7007 308.603L38.7709 307.346L39.294 308.464C39.5281 308.906 39.8897 309.267 40.3319 309.501C41.1754 309.947 42.124 310.159 43.0778 310.113C44.1443 310.088 45.223 310.088 46.2936 310.113C48.6023 310.113 49.726 309.178 50.0529 308.46L50.5637 307.342L58.6503 308.595L58.1395 309.709C57.8739 310.3 57.9311 311.178 59.0712 311.835C59.3614 312.002 59.6681 312.138 59.9865 312.243C60.9399 312.515 61.873 312.825 62.7856 313.173C63.5482 313.445 64.3591 313.555 65.1667 313.496C65.9743 313.438 66.7609 313.213 67.4765 312.834L68.8822 312.018L74.8153 315.437L73.4097 316.253C72.5026 316.784 71.6485 317.82 72.8376 318.971C73.4133 319.483 73.959 320.028 74.4721 320.603C74.6772 320.809 74.9095 320.986 75.1627 321.129C76.3027 321.786 77.8187 321.819 78.8403 321.66L80.7649 321.362L82.9592 326.034L81.0264 326.336C79.8005 326.527 78.166 327.18 78.1906 328.515C78.2375 329.135 78.2375 329.759 78.1906 330.379C78.2064 330.716 78.3146 331.041 78.5034 331.321C78.6923 331.6 78.9544 331.822 79.2611 331.962C79.8217 332.266 80.4319 332.468 81.0632 332.558L82.9919 332.856L80.8548 337.532L78.922 337.23C77.6757 337.038 75.6939 337.128 74.5743 338.291C74.0722 338.865 73.5373 339.41 72.9725 339.923C71.7956 341.106 72.6578 342.138 73.5772 342.665ZM34.0023 335.704C39.9804 339.148 49.6443 339.148 55.5775 335.704C61.5107 332.26 61.4902 326.67 55.5121 323.227C49.534 319.783 39.8701 319.779 33.9288 323.227C27.9874 326.674 28.0242 332.26 34.0023 335.708V335.704Z" fill="#F0F2F5"/>
<path d="M39.0361 351.564L39.0075 361.638L30.9209 360.385L30.9495 350.315L39.0361 351.564Z" fill="#CEDDF4"/>
<path d="M59.8765 321.521C51.4589 316.67 37.8641 316.666 29.4997 321.521C25.5156 323.831 23.448 326.825 23.2764 329.853C23.4357 332.917 25.5401 335.973 29.5977 338.295C38.0112 343.146 51.6101 343.142 59.9664 338.295C63.9546 335.981 66.0263 332.991 66.1979 329.963C66.0344 326.891 63.93 323.855 59.8765 321.521ZM55.4961 335.7C49.5997 339.123 40.0053 339.123 34.068 335.7C31.2608 334.068 29.7734 331.983 29.6141 329.861C29.7816 327.764 31.2486 325.699 33.9986 324.1C39.8991 320.677 49.4935 320.677 55.4266 324.1C58.2379 325.732 59.7212 327.817 59.8847 329.935C59.7049 332.036 58.242 334.1 55.4961 335.7Z" fill="#E0E4EB"/>
<path d="M29.4997 321.521C37.8642 316.666 51.459 316.67 59.8765 321.521C63.926 323.859 66.0304 326.891 66.1979 329.951C66.39 326.621 64.2856 323.255 59.8765 320.713C51.459 315.862 37.8642 315.858 29.4997 320.713C25.1683 323.227 23.0966 326.552 23.2764 329.849C23.448 326.825 25.5197 323.827 29.4997 321.521Z" fill="url(#paint13_linear)"/>
<path style="mix-blend-mode:multiply" d="M164.001 374.176H139.88L155.191 383.002L139.88 391.827H164.001L179.308 383.002L164.001 374.176Z" fill="url(#paint14_linear)"/>
<path style="mix-blend-mode:multiply" d="M170.228 344.305H131.14L155.951 358.606L131.14 372.911H170.228L195.032 358.606L170.228 344.305Z" fill="url(#paint15_linear)"/>
<path d="M131.14 372.912L155.951 358.606V330.004L131.14 344.305V372.912Z" fill="#BBCCE6"/>
<path d="M131.139 372.912L106.332 358.606V330.004L131.139 344.305V372.912Z" fill="#CEDFF8"/>
<path d="M131.139 344.305L106.332 330.004L131.139 315.707L155.951 330.004L131.139 344.305Z" fill="#F6F8FB"/>
<path d="M139.88 391.827L155.191 383.002V365.351L139.88 374.176V391.827Z" fill="#0052CC"/>
<path d="M139.88 391.827L124.573 383.002V365.351L139.88 374.176V391.827Z" fill="#7DAFFB"/>
<path d="M139.88 374.176L124.573 365.351L139.88 356.529L155.191 365.351L139.88 374.176Z" fill="#F6F8FB"/>
<path style="mix-blend-mode:multiply" d="M336.664 383.434H439.526V357.619L359.293 311.365L260.66 372.422C257.314 374.352 257.314 377.506 260.66 379.436C260.66 379.436 296.357 400.004 296.521 400.086L291.07 402.044H299.823C302.765 402.062 305.66 401.301 308.212 399.837L336.664 383.434Z" fill="url(#paint16_linear)"/>
<path d="M251.81 328.115C255.156 326.185 260.632 326.185 263.978 328.115L332.541 367.628C335.887 369.557 335.887 372.716 332.541 374.646L297.158 395.047C293.812 396.977 288.336 396.977 284.99 395.047L216.423 355.53C213.076 353.6 213.076 350.446 216.423 348.512L251.81 328.115Z" fill="#F4F6F9"/>
<path d="M216.423 355.53L284.985 395.055C288.332 396.985 293.807 396.985 297.154 395.055L332.536 374.654C334.146 373.727 334.988 372.516 335.033 371.296V376.677C335.033 377.95 334.216 379.223 332.524 380.195L297.141 400.596C293.795 402.526 288.319 402.526 284.973 400.596L216.423 361.071C214.686 360.067 213.856 358.737 213.926 357.398V352.172C213.991 353.392 214.817 354.603 216.423 355.53Z" fill="url(#paint17_linear)"/>
<path style="mix-blend-mode:multiply" d="M289.202 348.642H256.945C257.088 349.789 257.91 350.911 259.422 351.784L297.199 373.56L296.929 374.148L290.424 377.893H326.922L333.431 374.156L289.202 348.642Z" fill="url(#paint18_linear)"/>
<path d="M251.091 341.686C253.008 335.684 253.939 329.412 253.849 323.112L258.72 320.297C258.72 321.521 258.72 323.431 258.556 325.814L298.082 348.602C298.082 352.767 298.082 365.261 290.428 377.877L246.195 352.392L251.091 341.686Z" fill="#CCDDF6"/>
<path d="M253.849 323.112L298.078 348.614L302.949 345.807L258.719 320.309L253.849 323.112Z" fill="#C4B2B9"/>
<path d="M290.428 377.889C298.073 365.273 298.081 352.78 298.081 348.614L302.948 345.807C303.098 355.587 301.042 365.276 296.933 374.156L290.428 377.889Z" fill="#B9CAE4"/>
<g style="mix-blend-mode:multiply">
<path d="M295.642 366.183L300.868 363.168C301.665 360.086 302.233 356.949 302.568 353.783L297.664 356.64C297.267 359.873 296.591 363.066 295.642 366.183Z" fill="#D6E1F1"/>
</g>
<path d="M180.615 150.181C180.615 146.321 183.353 144.742 186.7 146.672L350.675 241.206C354.022 243.132 356.759 247.869 356.763 251.729V361.487L180.615 259.93V150.181Z" fill="#3E6BAF"/>
<path d="M193.299 142.869L357.274 237.403C360.621 239.329 363.359 244.066 363.359 247.926V357.684L356.759 361.487V251.749C356.759 247.89 354.017 243.152 350.671 241.227L186.7 146.672C185.335 145.884 184.076 145.688 183.055 145.986L188.334 142.987C189.437 141.828 191.252 141.69 193.299 142.869Z" fill="url(#paint19_linear)"/>
<path d="M356.759 361.479V383.667C356.759 387.527 354.018 389.106 350.671 387.176L186.7 292.641C183.353 290.715 180.615 285.978 180.615 282.118V259.93L356.759 361.479Z" fill="#D5E4FB"/>
<path d="M356.764 383.667V361.479L363.363 357.676V379.868C363.363 381.811 362.668 383.173 361.557 383.802L355.231 387.425C356.175 386.727 356.764 385.442 356.764 383.667Z" fill="#B9CAE4"/>
<path d="M186.699 263.439L350.675 357.974V248.22L186.699 153.69V263.439Z" fill="white"/>
<g style="mix-blend-mode:multiply">
<path d="M344.684 258.278L312.048 239.46L184.673 166.065C182.662 164.902 180.995 165.853 180.995 168.174V180.803C180.995 183.124 182.63 185.972 184.673 187.131L312.048 260.575L344.684 279.389C346.699 280.552 348.362 279.601 348.362 277.283V264.635C348.346 262.301 346.699 259.453 344.684 258.278Z" fill="#F1F3F6"/>
</g>
<g style="mix-blend-mode:multiply">
<path d="M250.976 245.046C250.976 242.189 248.961 238.729 246.501 237.293L213.068 218.018C210.616 216.602 208.598 217.761 208.598 220.597V259.53C208.598 262.386 210.608 265.851 213.068 267.283L246.501 286.558C248.953 287.978 250.976 286.815 250.976 283.979V245.046Z" fill="#F1F3F6"/>
</g>
<path d="M337.812 251.06L305.163 232.246L177.792 158.802C175.777 157.643 174.114 158.59 174.114 160.912V173.56C174.114 175.882 175.749 178.73 177.792 179.889L305.163 253.312L337.8 272.126C339.814 273.289 341.477 272.338 341.477 270.021V257.372C341.473 255.067 339.826 252.219 337.812 251.06Z" fill="white"/>
<path d="M340.779 249.35L308.142 230.532L180.767 157.088C179.725 156.489 178.785 156.456 178.119 156.884L175.259 158.537C175.921 158.17 176.824 158.227 177.821 158.802L305.163 232.246L337.8 251.06C339.814 252.219 341.478 255.067 341.478 257.388V270.037C341.478 271.143 341.102 271.93 340.489 272.334L343.271 270.731C343.986 270.376 344.444 269.539 344.444 268.323V255.675C344.44 253.357 342.793 250.525 340.779 249.35Z" fill="url(#paint20_linear)"/>
<path d="M197.777 173.65L321.908 245.213V259.857L197.777 188.294V173.65Z" fill="#DFE7F4"/>
<path d="M325.406 249.432V251.064L337.068 257.788V256.156L325.406 249.432ZM325.406 255.059L337.068 261.779V260.147L325.406 253.422V255.059ZM325.406 259.037L337.068 265.757V264.125L325.406 257.401V259.037Z" fill="#D1DFF3"/>
<path d="M186.124 168.293L189.491 170.235C188.48 168.721 187.151 167.444 185.597 166.493C182.005 164.425 179.096 166.085 179.096 170.239C179.109 171.363 179.291 172.478 179.635 173.548L180.085 171.871L186.124 168.293ZM189.593 170.386L188.706 173.711C188.65 173.966 188.505 174.193 188.297 174.351C188.089 174.509 187.832 174.589 187.57 174.576L185.462 174.515L189.548 176.865L188.907 179.26L187.448 178.42L186.998 180.097L184.297 178.538L184.747 176.861L179.803 174.005C180.873 177.065 183.072 180.011 185.609 181.472C189.197 183.545 192.106 181.88 192.106 177.726C192.094 175.335 191.117 172.634 189.593 170.386ZM183.464 173.368L185.454 174.515L186.222 171.659L183.464 173.368Z" fill="#7DAFFB"/>
<path d="M288.616 283.324C293.56 280.473 293.561 271.231 288.618 262.682C283.674 254.132 275.658 249.512 270.714 252.363C265.769 255.213 265.768 264.455 270.712 273.005C275.655 281.554 283.671 286.174 288.616 283.324Z" fill="#CEDFF8"/>
<path d="M304.121 281.943C304.121 273.885 309.789 270.616 316.788 274.648C323.788 278.679 329.456 288.48 329.456 296.542C329.456 304.605 323.788 307.869 316.788 303.838C309.789 299.806 304.121 290.002 304.121 281.943Z" fill="#091E42"/>
<path d="M329.439 334.37L267.006 298.378V280.976L329.439 316.972V334.37Z" fill="#CEDFF8"/>
<path d="M300.66 308.477L298.744 307.375V305.168L297.702 304.568V306.775L295.785 305.67V306.869L297.702 307.975V310.182L298.744 310.782V308.575L300.66 309.68V308.477Z" fill="white"/>
<path d="M322.259 293.127L322.186 293.082V285.974C322.182 285.893 322.159 285.814 322.12 285.743C322.08 285.672 322.024 285.612 321.957 285.566L311.602 279.601C311.48 279.527 311.378 279.601 311.378 279.731V286.839L311.3 286.798C311.173 286.725 311.071 286.798 311.071 286.929V287.655C311.112 288.151 311.263 288.632 311.514 289.063C311.764 289.493 312.107 289.862 312.518 290.144L315.64 291.944V297.297C315.643 297.696 315.749 298.088 315.949 298.434C316.149 298.78 316.435 299.069 316.78 299.272C317.474 299.68 317.92 299.41 317.92 298.611V293.257L321.042 295.057C321.798 295.493 322.488 295.098 322.488 294.241V293.539C322.487 293.457 322.465 293.376 322.425 293.304C322.385 293.233 322.328 293.172 322.259 293.127ZM312.898 280.886V282.375C312.9 282.457 312.922 282.537 312.962 282.608C313.002 282.679 313.058 282.739 313.127 282.783C313.253 282.857 313.355 282.783 313.355 282.653V281.16L314.724 281.943V284.138C314.726 284.22 314.748 284.299 314.788 284.371C314.828 284.442 314.885 284.502 314.953 284.546C315.08 284.62 315.182 284.546 315.182 284.416V282.22L316.551 283.012V283.804C316.553 283.885 316.574 283.965 316.614 284.036C316.654 284.107 316.711 284.167 316.78 284.212C316.906 284.285 317.009 284.212 317.009 284.081V283.294L318.377 284.081V285.754C318.379 285.835 318.401 285.915 318.441 285.986C318.481 286.058 318.538 286.118 318.606 286.162C318.733 286.235 318.835 286.162 318.835 286.031V284.309L320.204 285.097V285.889C320.207 285.97 320.229 286.049 320.269 286.12C320.309 286.191 320.365 286.252 320.433 286.297C320.559 286.366 320.662 286.297 320.662 286.162V285.374L321.728 285.986V289.324L318.308 287.353C318.181 287.28 318.079 287.353 318.079 287.484V288.879C318.079 289.12 317.908 289.218 317.699 289.1C317.588 289.028 317.495 288.931 317.428 288.817C317.362 288.703 317.323 288.575 317.315 288.443V287.035C317.313 286.954 317.292 286.875 317.253 286.803C317.214 286.732 317.158 286.672 317.09 286.627L311.835 283.6V280.27L312.898 280.886ZM311.831 284.15L316.857 287.043V288.186C316.871 288.474 316.952 288.755 317.094 289.007C317.236 289.258 317.435 289.473 317.675 289.634C318.136 289.899 318.492 289.683 318.492 289.153V288.01L321.687 289.85V292.837L311.79 287.125L311.831 284.15ZM322.047 293.98C322.061 294.1 322.039 294.222 321.984 294.33C321.929 294.438 321.844 294.527 321.739 294.588C321.634 294.648 321.513 294.676 321.392 294.669C321.271 294.662 321.155 294.619 321.058 294.547L317.711 292.617C317.585 292.543 317.483 292.617 317.483 292.747V298.366C317.483 298.66 317.393 299.104 316.796 298.774C316.584 298.657 316.409 298.484 316.288 298.275C316.167 298.066 316.105 297.828 316.11 297.587V291.944C316.107 291.862 316.086 291.782 316.046 291.711C316.006 291.64 315.949 291.58 315.881 291.536L312.518 289.618C312.239 289.42 312.007 289.165 311.836 288.869C311.665 288.573 311.56 288.244 311.529 287.904V287.468L322.031 293.523L322.047 293.98Z" fill="white"/>
<path d="M286.848 273.154C286.722 272.889 283.669 266.655 279.665 264.345C278.564 263.663 277.275 263.346 275.983 263.441C274.691 263.535 273.462 264.036 272.473 264.872C272.442 264.92 272.426 264.976 272.426 265.033C272.426 265.09 272.442 265.146 272.473 265.194C272.604 265.459 275.652 271.69 279.657 273.999C280.756 274.68 282.043 274.996 283.333 274.903C284.624 274.809 285.851 274.31 286.84 273.477C286.875 273.43 286.894 273.375 286.895 273.317C286.897 273.259 286.88 273.203 286.848 273.154ZM279.665 273.473C276.302 271.535 273.536 266.447 272.959 265.312C273.9 264.566 275.046 264.125 276.244 264.047C277.442 263.969 278.636 264.258 279.665 264.876C283.028 266.818 285.794 271.906 286.37 273.036C285.43 273.782 284.284 274.224 283.086 274.302C281.888 274.38 280.694 274.09 279.665 273.473ZM279.665 270.49C280.294 270.853 280.805 270.559 280.805 269.833C280.784 269.438 280.669 269.053 280.471 268.71C280.273 268.367 279.997 268.075 279.665 267.858C279.036 267.495 278.525 267.789 278.525 268.515C278.546 268.911 278.661 269.296 278.859 269.639C279.057 269.982 279.333 270.273 279.665 270.49ZM279.665 268.385C279.864 268.514 280.03 268.689 280.15 268.894C280.269 269.1 280.338 269.331 280.351 269.568C280.351 270.004 280.041 270.18 279.665 269.976C279.466 269.846 279.3 269.671 279.181 269.466C279.062 269.26 278.992 269.03 278.978 268.793C278.978 268.344 279.289 268.164 279.665 268.385ZM279.665 266.455C279.538 266.381 279.436 266.455 279.436 266.585C279.438 266.667 279.46 266.746 279.5 266.818C279.54 266.889 279.596 266.949 279.665 266.993C280.219 267.354 280.68 267.839 281.01 268.411C281.341 268.982 281.533 269.623 281.569 270.282C281.569 271.506 280.715 271.983 279.665 271.38C279.111 271.019 278.65 270.534 278.319 269.962C277.989 269.391 277.797 268.75 277.761 268.091C277.74 267.716 277.856 267.346 278.088 267.05C278.12 266.984 278.132 266.91 278.121 266.837C278.11 266.764 278.077 266.696 278.026 266.642C277.92 266.5 277.781 266.451 277.708 266.528C277.42 266.894 277.275 267.353 277.299 267.817C277.344 268.635 277.581 269.43 277.99 270.139C278.4 270.847 278.971 271.45 279.657 271.898C280.956 272.648 282.014 272.036 282.014 270.539C281.974 269.719 281.74 268.92 281.332 268.208C280.924 267.495 280.352 266.889 279.665 266.438V266.455ZM279.665 263.117C279.792 263.191 279.894 263.117 279.894 262.986V261.95C279.892 261.869 279.87 261.789 279.83 261.718C279.79 261.647 279.733 261.586 279.665 261.542C279.538 261.469 279.436 261.542 279.436 261.673V262.729C279.441 262.807 279.464 262.883 279.504 262.951C279.544 263.018 279.599 263.075 279.665 263.117ZM280.891 264.341C280.916 264.358 280.946 264.367 280.977 264.367C281.007 264.367 281.037 264.358 281.062 264.341L281.671 263.909C281.753 263.847 281.745 263.676 281.671 263.525C281.598 263.374 281.434 263.301 281.348 263.362L280.74 263.794C280.658 263.856 280.666 264.027 280.76 264.178C280.787 264.246 280.829 264.307 280.883 264.357L280.891 264.341ZM278.276 262.766C278.315 262.843 278.374 262.908 278.447 262.954C278.471 262.965 278.497 262.971 278.523 262.971C278.549 262.971 278.575 262.965 278.598 262.954C278.692 262.909 278.701 262.75 278.598 262.591L277.99 261.456C277.904 261.297 277.761 261.208 277.667 261.248C277.573 261.289 277.565 261.452 277.667 261.611L278.276 262.766ZM281.054 275.582C280.968 275.423 280.825 275.333 280.731 275.374C280.637 275.415 280.629 275.578 280.711 275.737L281.32 276.872C281.359 276.948 281.419 277.013 281.491 277.059C281.514 277.073 281.539 277.082 281.565 277.085C281.591 277.089 281.617 277.087 281.643 277.08C281.737 277.035 281.745 276.876 281.643 276.716L281.054 275.582ZM278.276 273.979L277.667 274.415C277.585 274.476 277.593 274.644 277.667 274.795C277.702 274.859 277.755 274.913 277.818 274.95C277.843 274.967 277.873 274.976 277.904 274.976C277.934 274.976 277.964 274.967 277.99 274.95L278.598 274.517C278.68 274.456 278.672 274.285 278.598 274.134C278.525 273.983 278.361 273.921 278.276 273.979ZM279.665 275.227C279.538 275.158 279.436 275.227 279.436 275.362V276.415C279.439 276.496 279.461 276.575 279.501 276.646C279.541 276.717 279.597 276.778 279.665 276.823C279.792 276.892 279.894 276.823 279.894 276.688V275.635C279.891 275.554 279.869 275.474 279.829 275.403C279.789 275.332 279.733 275.272 279.665 275.227Z" fill="white"/>
<path d="M244.103 237.811C244.103 234.955 242.088 231.495 239.608 230.059L206.179 210.788C203.727 209.368 201.704 210.527 201.704 213.367V252.3C201.704 255.156 203.715 258.616 206.179 260.053L239.608 279.323C242.059 280.743 244.103 279.585 244.103 276.749V237.811Z" fill="#F6F8FB"/>
<path d="M239.628 230.075L206.199 210.804C203.747 209.384 201.725 210.543 201.725 213.383V218.088L244.103 242.516V237.811C244.103 234.976 242.088 231.495 239.628 230.075Z" fill="#0052CC"/>
<path d="M210.02 216.174C210.02 216.071 210.03 215.969 210.048 215.868C209.112 215.419 208.377 215.888 208.377 216.99C208.411 217.621 208.593 218.235 208.909 218.782C209.225 219.329 209.666 219.795 210.195 220.14C211.107 220.662 211.854 220.324 211.989 219.393C211.94 219.369 211.891 219.352 211.842 219.324C211.311 218.979 210.869 218.515 210.553 217.967C210.236 217.42 210.053 216.805 210.02 216.174Z" fill="#2E5794"/>
<path d="M210.195 215.937C210.146 215.909 210.097 215.892 210.048 215.868C210.03 215.969 210.02 216.071 210.02 216.174C210.053 216.805 210.236 217.42 210.553 217.967C210.869 218.514 211.311 218.979 211.842 219.324C211.891 219.352 211.94 219.369 211.989 219.393C212.007 219.292 212.017 219.19 212.018 219.087C211.983 218.456 211.8 217.842 211.483 217.295C211.167 216.748 210.725 216.282 210.195 215.937Z" fill="white"/>
<path d="M235.452 230.838C235.455 230.736 235.465 230.633 235.481 230.532C234.545 230.083 233.81 230.532 233.81 231.65C233.844 232.281 234.027 232.895 234.343 233.443C234.66 233.99 235.102 234.455 235.632 234.8C236.543 235.326 237.291 234.984 237.426 234.057C237.373 234.033 237.328 234.017 237.275 233.988C236.744 233.643 236.303 233.178 235.987 232.631C235.67 232.083 235.487 231.469 235.452 230.838Z" fill="#2E5794"/>
<path d="M235.632 230.602C235.579 230.573 235.53 230.557 235.481 230.532C235.465 230.634 235.455 230.736 235.452 230.838C235.487 231.469 235.67 232.083 235.986 232.631C236.303 233.178 236.744 233.643 237.275 233.988C237.328 234.017 237.373 234.033 237.426 234.058C237.442 233.956 237.451 233.854 237.454 233.752C237.42 233.12 237.237 232.506 236.92 231.959C236.603 231.412 236.162 230.947 235.632 230.602Z" fill="white"/>
<path d="M244.103 242.516V276.749C244.103 278.1 243.641 279.062 242.877 279.556L245.108 278.271C245.982 277.834 246.538 276.814 246.538 275.329V241.1L244.103 242.516Z" fill="url(#paint21_linear)"/>
<path d="M246.559 236.396C246.559 233.539 244.544 230.079 242.064 228.643L208.635 209.372C207.36 208.638 206.207 208.597 205.39 209.123L203.049 210.47C203.866 210.021 204.961 210.09 206.179 210.792L239.608 230.063C242.06 231.483 244.103 234.959 244.103 237.815V242.52L246.555 241.104L246.559 236.396Z" fill="url(#paint22_linear)"/>
<path d="M259.843 204.945C259.626 204.945 259.418 204.859 259.265 204.706C259.111 204.553 259.025 204.346 259.025 204.129V137.442C259.025 137.226 259.111 137.018 259.265 136.865C259.418 136.712 259.626 136.626 259.843 136.626C260.059 136.626 260.267 136.712 260.421 136.865C260.574 137.018 260.66 137.226 260.66 137.442V204.129C260.66 204.346 260.574 204.553 260.421 204.706C260.267 204.859 260.059 204.945 259.843 204.945Z" fill="#2E5794"/>
<path style="mix-blend-mode:multiply" d="M183.725 280.817L145.646 258.865C142.708 257.172 137.906 257.172 134.968 258.865L100.035 279.001C97.1015 280.694 97.1015 283.465 100.035 285.158L135.516 305.608L130.711 308.375H143.521C145.356 308.403 147.17 307.968 148.792 307.11L183.725 286.97C186.663 285.281 186.663 282.51 183.725 280.817Z" fill="url(#paint23_linear)"/>
<path d="M125.37 253.145C128.308 251.451 133.109 251.451 136.047 253.145L174.126 275.1C177.06 276.794 177.064 279.56 174.126 281.253L136.047 303.209C133.113 304.902 128.308 304.902 125.37 303.209L87.2904 281.253C84.3524 279.56 84.3524 276.794 87.2904 275.1L125.37 253.145Z" fill="#F6F8FB"/>
<path d="M174.134 281.253L136.055 303.209C133.121 304.902 128.316 304.902 125.378 303.209L87.2982 281.253C85.9171 280.462 85.2143 279.426 85.1284 278.397V281.894C85.0467 283.069 85.7495 284.277 87.3146 285.158L125.369 307.11C128.307 308.803 133.133 308.803 136.047 307.11L174.126 285.158C175.691 284.257 176.394 283.049 176.292 281.857C176.312 281.857 176.312 278.377 176.312 278.377C176.218 279.426 175.515 280.462 174.134 281.253Z" fill="url(#paint24_linear)"/>
<path style="mix-blend-mode:multiply" d="M136.995 277.075H115.522V279.47H136.995V277.075Z" fill="url(#paint25_linear)"/>
<path style="mix-blend-mode:multiply" d="M167.584 277.075H146.111V279.47H167.584V277.075Z" fill="url(#paint26_linear)"/>
<path style="mix-blend-mode:multiply" d="M153.658 283.824L153.16 281.482L132.402 285.893H130.816V288.284H152.289V285.893H143.925L153.658 283.824Z" fill="url(#paint27_linear)"/>
<path style="mix-blend-mode:multiply" d="M152.289 268.254H130.816V270.649H152.289V268.254Z" fill="url(#paint28_linear)"/>
<path d="M115.522 258.543L117.41 257.454V278.377L115.522 279.466V258.543Z" fill="#3E6BAF"/>
<path d="M130.816 282.755L132.704 283.844L145.89 255.32L143.999 254.23L130.816 282.755Z" fill="#0052CC"/>
<path d="M130.816 244.197V246.376L144.223 254.104V251.925L130.816 244.197Z" fill="#0052CC"/>
<path d="M117.41 251.925L119.298 253.014L130.817 246.376V244.197L117.41 251.925Z" fill="#3E6BAF"/>
<path d="M130.817 246.376L128.929 247.461V258.563L130.817 259.653V246.376Z" fill="#0052CC"/>
<path d="M132.704 247.461L130.816 246.376V259.653L132.704 258.563V247.461Z" fill="#3E6BAF"/>
<path d="M146.111 279.466L144.224 278.377V262.631L146.111 258.543V279.466Z" fill="#0052CC"/>
<path d="M130.816 288.284L132.929 287.06L146.111 258.535V279.458L147.999 278.369V251.925L147.055 252.467L146.111 253.014L132.725 260.726L131.781 261.273L130.837 261.815L130.816 288.284ZM145.89 255.32L132.725 283.844V262.921L145.89 255.32Z" fill="#3E6BAF"/>
<path d="M115.522 253.014L128.929 260.726L130.817 261.815L132.725 260.726L148.019 251.909L130.837 242.002L113.65 251.909L115.522 253.014ZM130.817 244.197L144.223 251.925L130.817 259.653L117.41 251.925L130.817 244.197Z" fill="#7DAFFB"/>
<path d="M113.634 278.377L115.522 279.466V258.543L128.704 287.068L130.816 288.292V261.832L129.864 261.289L128.929 260.726L115.522 253.014L114.578 252.467L113.63 251.925L113.634 278.377ZM128.929 262.921V283.844L115.742 255.32L128.929 262.921Z" fill="#0052CC"/>
<path d="M128.928 283.844V278.667L119.007 257.201L115.742 255.32L128.928 283.844Z" fill="#3E6BAF"/>
<path d="M115.522 232.091L117.41 231.001V251.925L115.522 253.014V232.091Z" fill="#3E6BAF"/>
<path d="M130.816 256.299L132.704 257.388L145.89 228.867L143.999 227.778L130.816 256.299Z" fill="#0052CC"/>
<path d="M130.816 217.741V219.92L144.223 227.648V225.469L130.816 217.741Z" fill="#0052CC"/>
<path d="M117.41 225.469L119.298 226.558L130.817 219.92V217.741L117.41 225.469Z" fill="#3E6BAF"/>
<path d="M130.817 219.92L128.925 221.009V232.111L130.817 233.201V219.92Z" fill="#0052CC"/>
<path d="M132.704 221.009L130.816 219.92V233.201L132.704 232.111V221.009Z" fill="#3E6BAF"/>
<path d="M146.111 253.014L144.224 251.925V236.175L146.111 232.091V253.014Z" fill="#0052CC"/>
<path d="M130.816 261.832L132.929 260.608L146.111 232.083V253.014L147.999 251.925V225.469L147.055 226.015L146.111 226.558L132.704 234.311L131.76 234.853L130.816 235.396V261.832ZM145.89 228.868L132.725 257.388V236.465L145.89 228.868Z" fill="#3E6BAF"/>
<path d="M115.522 226.558L128.929 234.311L130.816 235.396L132.704 234.311L147.999 225.489L130.816 215.583L113.63 225.489L115.522 226.558ZM130.816 217.741L144.223 225.469L130.816 233.201L117.41 225.469L130.816 217.741Z" fill="#7DAFFB"/>
<path d="M113.63 251.925L115.522 253.014V232.091L128.704 260.616L130.817 261.84V235.375L129.865 234.833L128.921 234.29L115.514 226.538L114.57 225.995L113.622 225.448L113.63 251.925ZM128.929 236.465V257.388L115.743 228.867L128.929 236.465Z" fill="#0052CC"/>
<path d="M128.928 257.388V252.215L119.007 230.745L115.742 228.868L128.928 257.388Z" fill="#3E6BAF"/>
<path d="M115.522 205.635L117.41 204.545V225.469L115.522 226.558V205.635Z" fill="#3E6BAF"/>
<path d="M130.816 229.847L132.704 230.936L145.886 202.411L143.999 201.322L130.816 229.847Z" fill="#0052CC"/>
<path d="M130.816 191.289V193.464L144.223 201.196V199.017L130.816 191.289Z" fill="#0052CC"/>
<path d="M117.41 199.017L119.298 200.106L130.817 193.464V191.289L117.41 199.017Z" fill="#3E6BAF"/>
<path d="M130.817 193.464L128.925 194.553V205.655L130.817 206.745V193.464Z" fill="#0052CC"/>
<path d="M132.704 194.553L130.816 193.464V206.745L132.704 205.655V194.553Z" fill="#3E6BAF"/>
<path d="M146.111 226.558L144.224 225.469V209.723L146.111 205.635V226.558Z" fill="#0052CC"/>
<path d="M130.816 235.38L132.929 234.155L146.111 205.643V226.566L147.999 225.477V199.017L147.055 199.559L146.111 200.106L132.725 207.834L131.781 208.381L130.816 208.907V235.38ZM145.89 202.411L132.725 230.94V210.013L145.89 202.411Z" fill="#3E6BAF"/>
<path d="M115.522 200.106L128.929 207.834L130.816 208.923L132.704 207.834L147.999 199.017L130.816 189.11L113.63 199.017L115.522 200.106ZM130.816 191.289L144.223 199.017L130.816 206.745L117.41 199.017L130.816 191.289Z" fill="#7DAFFB"/>
<path d="M113.63 225.469L115.522 226.558V205.643L128.704 234.168L130.816 235.392V208.907L129.864 208.381L128.92 207.834L115.522 200.106L114.578 199.559L113.63 199.017V225.469ZM128.929 210.013V230.94L115.742 202.415L128.929 210.013Z" fill="#0052CC"/>
<path d="M128.928 230.936V225.758L119.003 204.292L115.742 202.411L128.928 230.936Z" fill="#3E6BAF"/>
<path d="M115.522 179.183L117.41 178.093V199.017L115.522 200.106V179.183Z" fill="#3E6BAF"/>
<path d="M130.816 203.395L132.704 204.48L145.886 175.959L143.999 174.87L130.816 203.395Z" fill="#0052CC"/>
<path d="M130.816 164.833V167.011L144.223 174.739V172.56L130.816 164.833Z" fill="#0052CC"/>
<path d="M117.41 172.56L119.298 173.65L130.817 167.011V164.833L117.41 172.56Z" fill="#3E6BAF"/>
<path d="M130.817 167.011L128.925 168.101V179.203L130.817 180.293V167.011Z" fill="#0052CC"/>
<path d="M132.704 168.101L130.816 167.011V180.293L132.704 179.203V168.101Z" fill="#3E6BAF"/>
<path d="M146.111 200.106L144.224 199.017V183.271L146.111 179.183V200.106Z" fill="#0052CC"/>
<path d="M130.816 208.907L132.929 207.683L146.111 179.158V200.082L147.999 198.992V172.561L147.055 173.107L146.111 173.65L132.704 181.402L131.76 181.945L130.816 182.492V208.907ZM145.886 175.943L132.725 204.48V183.557L145.886 175.943Z" fill="#3E6BAF"/>
<path d="M115.522 173.65L128.928 181.403L130.82 182.492L132.708 181.403L148.003 172.581L130.82 162.674L113.634 172.581L115.522 173.65ZM130.816 164.841L144.223 172.569L130.816 180.301L117.409 172.569L130.816 164.841Z" fill="#7DAFFB"/>
<path d="M113.63 199.017L115.522 200.106V179.183L128.704 207.707L130.817 208.932V182.471L129.865 181.925L128.921 181.382L115.514 173.629L114.57 173.087L113.622 172.54L113.63 199.017ZM128.929 183.557V204.48L115.743 175.959L128.929 183.557Z" fill="#0052CC"/>
<path d="M128.924 204.48V199.306L119.003 177.84L115.742 175.959L128.924 204.48Z" fill="#3E6BAF"/>
<path d="M115.522 152.727L117.41 151.637V172.561L115.522 173.65V152.727Z" fill="#3E6BAF"/>
<path d="M130.816 176.939L132.704 178.028L145.886 149.503L143.999 148.414L130.816 176.939Z" fill="#0052CC"/>
<path d="M130.816 138.381V140.559L144.223 148.287V146.109L130.816 138.381Z" fill="#0052CC"/>
<path d="M117.41 146.109L119.298 147.198L130.817 140.559V138.381L117.41 146.109Z" fill="#3E6BAF"/>
<path d="M130.817 140.559L128.925 141.645V152.747L130.817 153.836V140.559Z" fill="#0052CC"/>
<path d="M132.704 141.645L130.816 140.559V153.836L132.704 152.747V141.645Z" fill="#3E6BAF"/>
<path d="M146.111 173.65L144.224 172.56V156.815L146.111 152.727V173.65Z" fill="#0052CC"/>
<path d="M130.816 182.471L132.929 181.247L146.111 152.722V173.646L147.999 172.56V146.108L147.055 146.651L146.111 147.198L132.725 154.926L131.76 155.456L130.816 155.999V182.471ZM145.886 149.503L132.725 178.028V157.088L145.886 149.503Z" fill="#3E6BAF"/>
<path d="M115.522 147.198L128.925 154.926L130.817 156.015L132.725 154.926L148.019 146.108L130.837 136.202L113.65 146.108L115.522 147.198ZM130.817 138.38L144.223 146.108L130.817 153.824L117.41 146.096L130.817 138.38Z" fill="#7DAFFB"/>
<path d="M113.63 172.56L115.522 173.65V152.726L128.704 181.251L130.817 182.475V156.015L129.865 155.456L128.917 154.909L115.514 147.181L114.566 146.635L113.622 146.092L113.63 172.56ZM128.925 157.088V178.012L115.739 149.487L128.925 157.088Z" fill="#0052CC"/>
<path d="M128.924 178.028V172.85L119.003 151.384L115.742 149.503L128.924 178.028Z" fill="#3E6BAF"/>
<path d="M115.518 126.274L117.409 125.185V146.108L115.522 147.198L115.518 126.274Z" fill="#3E6BAF"/>
<path d="M130.816 150.487L132.704 151.576L145.886 123.051L143.999 121.962L130.816 150.487Z" fill="#0052CC"/>
<path d="M130.816 111.924V114.103L144.219 121.831V119.652L130.816 111.924Z" fill="#0052CC"/>
<path d="M117.41 119.652L119.298 120.742L130.817 114.103V111.924L117.41 119.652Z" fill="#3E6BAF"/>
<path d="M130.817 114.103L128.925 115.193V126.295L130.817 127.384V114.103Z" fill="#0052CC"/>
<path d="M132.704 115.193L130.816 114.103V127.384L132.704 126.295V115.193Z" fill="#3E6BAF"/>
<path d="M146.111 147.198L144.224 146.109V130.363L146.111 126.275V147.198Z" fill="#0052CC"/>
<path d="M130.816 156.015L132.929 154.791L146.115 126.266V147.19L148.003 146.1V119.652L147.059 120.199L146.115 120.742L132.725 128.474L131.781 129.016L130.837 129.563L130.816 156.015ZM145.886 123.051L132.725 151.576V130.649L145.886 123.051Z" fill="#3E6BAF"/>
<path d="M115.518 120.742L128.92 128.474L130.812 129.563L132.7 128.474L147.995 119.652L130.816 109.758L113.63 119.665L115.518 120.742ZM130.816 111.924L144.223 119.652L130.816 127.384L117.41 119.652L130.816 111.924Z" fill="#7DAFFB"/>
<path d="M113.63 146.108L115.522 147.198V126.275L128.704 154.799L130.817 156.023V129.563L129.865 129.016L128.917 128.474L115.514 120.742L114.566 120.199L113.622 119.652L113.63 146.108ZM128.925 130.649V151.576L115.743 123.051L128.925 130.649Z" fill="#0052CC"/>
<path d="M128.924 151.576V146.398L119.003 124.932L115.742 123.051L128.924 151.576Z" fill="#3E6BAF"/>
<path d="M115.518 99.8184L117.409 98.729V119.652L115.518 120.742V99.8184Z" fill="#3E6BAF"/>
<path d="M130.816 124.03L132.704 125.12L145.886 96.595L143.999 95.5056L130.816 124.03Z" fill="#0052CC"/>
<path d="M130.816 85.4724V87.6513L144.219 95.3792V93.2004L130.816 85.4724Z" fill="#0052CC"/>
<path d="M117.41 93.2003L119.298 94.2898L130.817 87.6513V85.4724L117.41 93.2003Z" fill="#3E6BAF"/>
<path d="M130.817 87.6511L128.925 88.7405V99.8387L130.817 100.928V87.6511Z" fill="#0052CC"/>
<path d="M132.704 88.7405L130.816 87.6511V100.928L132.704 99.8387V88.7405Z" fill="#3E6BAF"/>
<path d="M146.112 120.742L144.22 119.653L144.224 103.907L146.112 99.8186V120.742Z" fill="#0052CC"/>
<path d="M130.816 129.563L132.925 128.339L146.111 99.8145V120.738L147.999 119.652V93.2004L147.055 93.7472L146.111 94.2899L132.725 102.006L131.781 102.552L130.837 103.095L130.816 129.563ZM145.886 96.5952L132.725 125.12V104.197L145.886 96.5952Z" fill="#3E6BAF"/>
<path d="M115.518 94.2897L128.925 102.005L130.817 103.095L132.725 102.005L148.019 93.188L130.837 83.2812L113.65 93.188L115.518 94.2897ZM130.817 85.4723L144.223 93.2003L130.817 100.928L117.41 93.2003L130.817 85.4723Z" fill="#7DAFFB"/>
<path d="M113.63 119.653L115.522 120.742V99.8186L128.708 128.343L130.821 129.567V103.107L129.864 102.565L128.925 102.006L115.518 94.2776L114.574 93.735L113.63 93.1882V119.653ZM128.925 104.197V125.12L115.742 96.5952L128.925 104.197Z" fill="#0052CC"/>
<path d="M128.924 125.12V119.942L119.003 98.476L115.742 96.595L128.924 125.12Z" fill="#3E6BAF"/>
<path d="M115.518 73.3665L117.409 72.2771V93.2005L115.518 94.2899V73.3665Z" fill="#3E6BAF"/>
<path d="M130.816 97.5785L132.704 98.6639L145.886 70.1431L143.999 69.0537L130.816 97.5785Z" fill="#0052CC"/>
<path d="M130.816 59.0164V61.1952L144.219 68.9231V66.7484L130.816 59.0164Z" fill="#0052CC"/>
<path d="M117.41 66.7484L119.298 67.8337L130.817 61.1952V59.0164L117.41 66.7484Z" fill="#3E6BAF"/>
<path d="M130.817 61.1951L128.925 62.2845V73.3868L130.817 74.4762V61.1951Z" fill="#0052CC"/>
<path d="M132.704 62.2845L130.816 61.1951V74.4762L132.704 73.3868V62.2845Z" fill="#3E6BAF"/>
<path d="M146.112 94.2898L144.22 93.2004V77.4548L146.112 73.3665V94.2898Z" fill="#0052CC"/>
<path d="M130.816 103.107L132.925 101.883L146.111 73.3582V94.2816L147.999 93.1922V66.7483L147.055 67.291L146.111 67.8336L132.725 75.5656L131.781 76.1083L130.837 76.6551L130.816 103.107ZM145.886 70.143L132.725 98.6679V77.7445L145.886 70.143Z" fill="#3E6BAF"/>
<path d="M115.518 67.8336L128.925 75.5656L130.816 76.655L132.725 75.5656L148.019 66.7482L130.816 56.8374L113.63 66.7482L115.518 67.8336ZM130.816 59.0162L144.223 66.7687L130.816 74.4966L117.41 66.7687L130.816 59.0162Z" fill="#7DAFFB"/>
<path d="M113.63 93.2003L115.518 94.2898V73.3664L128.704 101.891L130.817 103.115V76.6551L129.865 76.1083L128.917 75.5656L115.51 67.8336L114.566 67.291L113.622 66.7483L113.63 93.2003ZM128.925 77.7445V98.6678L115.743 70.143L128.925 77.7445Z" fill="#0052CC"/>
<path d="M128.924 98.6638V93.4901L119.003 72.024L115.742 70.1431L128.924 98.6638Z" fill="#3E6BAF"/>
<path d="M130.816 85.244L91.0781 62.3377L130.816 39.4272L170.551 62.3377L130.816 85.244Z" fill="#13418F"/>
<path d="M130.816 89.6547L91.0781 66.7484V62.3376L130.816 85.244V89.6547Z" fill="#0D2B5E"/>
<path d="M170.551 66.7484L130.816 89.6547V85.244L170.551 62.3376V66.7484Z" fill="#091E42"/>
<path d="M74.419 55.7318L26.9414 28.3617L52.7621 13.4771L100.24 40.8472L74.419 55.7318Z" fill="#A3B5D0"/>
<path d="M74.4191 60.175L26.9414 32.8049V28.3616L74.4191 55.7317V60.175Z" fill="#CEDFF8"/>
<path d="M100.24 45.2903L74.4189 60.1749V55.7316L100.24 40.8469V45.2903Z" fill="#BBCCE6"/>
<path d="M74.419 50.2193L26.9414 22.8492L52.7621 7.9646L100.24 35.3347L74.419 50.2193Z" fill="#A3B5D0"/>
<path d="M74.4191 54.6626L26.9414 27.2925V22.8491L74.4191 50.2192V54.6626Z" fill="#CEDFF8"/>
<path d="M100.24 39.7781L74.4189 54.6627V50.2194L100.24 35.3347V39.7781Z" fill="#BBCCE6"/>
<path d="M74.419 44.711L26.9414 17.3368L52.7621 2.45215L100.24 29.8222L74.419 44.711Z" fill="#F6F8FB"/>
<path d="M74.4191 49.1544L26.9414 21.7803V17.3369L74.4191 44.7111V49.1544Z" fill="#CEDFF8"/>
<path d="M100.24 34.2656L74.4189 49.1543V44.711L100.24 29.8223V34.2656Z" fill="#BBCCE6"/>
<path d="M71.2686 20.9112L75.6735 18.3733L116.462 24.3426L99.2795 34.2494L71.2686 20.9112Z" fill="#8CBAFF"/>
<path d="M71.2686 30.5649V20.9111L99.2795 34.2494V54.0629L71.2686 30.5649Z" fill="#679BE9"/>
<path d="M116.462 44.1561L99.2793 54.0628V34.2493L116.462 24.3425V44.1561Z" fill="#3E6BAF"/>
<path d="M71.2689 30.565L44.9619 15.3988V2.52979L51.3364 6.20606L54.2866 11.1227L71.2689 20.9112V30.565Z" fill="#0052CC"/>
<path d="M71.2684 20.903L54.2861 11.1228L58.6911 8.59302L75.6733 18.3733L71.2684 20.903Z" fill="#7DAFFB"/>
<path d="M54.2862 11.1227L51.3359 6.206L55.7409 3.67627L58.6911 8.59293L54.2862 11.1227Z" fill="#679BE9"/>
<path d="M51.3364 6.20601L44.9619 2.52973L49.3668 0L55.7413 3.67628L51.3364 6.20601Z" fill="#7DAFFB"/>
<path d="M132.721 35.8936V38.0683L114.574 27.6066V25.4319L132.721 35.8936Z" fill="#0052CC"/>
<path d="M104.076 37.0117L102.185 38.1011L120.335 63.7657L122.223 62.6763L104.076 37.0117Z" fill="#3E6BAF"/>
<path d="M137.518 56.2947L135.63 55.2053L122.224 62.9332L124.111 64.0227L137.518 56.2947Z" fill="#7DAFFB"/>
<path d="M137.518 40.8347L135.63 41.9241V55.2052L137.518 56.2947V40.8347Z" fill="#0052CC"/>
<path d="M135.63 55.2054V53.0266L126.003 47.4734L124.111 48.5628L135.63 55.2054Z" fill="#7DAFFB"/>
<path d="M133.743 56.2948L135.63 55.2053L124.111 48.5627V50.7416L133.743 56.2948Z" fill="#0052CC"/>
<path d="M99.2793 51.8841L101.167 50.7947L114.827 58.6695L117.426 62.3458L99.2793 51.8841Z" fill="#7DAFFB"/>
<path d="M99.2793 34.2493V36.6974L117.426 62.362L99.2793 51.9003V54.0791L122.223 67.3072V47.4733L99.2793 34.2493ZM120.336 63.7656L102.189 38.101L120.336 48.5545V63.7656Z" fill="#0052CC"/>
<path d="M137.518 38.6561L124.111 46.384L122.224 47.4734V67.291L139.406 57.3802V37.5667L137.518 38.6561ZM137.518 56.2949L124.111 64.0228V48.5547L137.518 40.8267V56.2949Z" fill="#3E6BAF"/>
<path d="M116.462 24.3425L114.574 25.4319L132.725 35.9059L101.396 33.0497L99.2832 34.2738L122.227 47.4978L123.171 46.9551L124.115 46.4083L137.522 38.6804L138.445 38.1133L139.389 37.5665L116.462 24.3425ZM122.223 45.2904L104.076 34.8368L135.405 37.693L122.223 45.2904Z" fill="#7DAFFB"/>
<path d="M104.076 34.8369L108.567 37.4238L132.144 39.5781L135.405 37.6971L104.076 34.8369Z" fill="#0052CC"/>
<path d="M155.665 49.1177V51.2965L137.519 40.8348V38.656L155.665 49.1177Z" fill="#0052CC"/>
<path d="M127.021 50.2397L125.129 51.3292L143.276 76.9937L145.168 75.9043L127.021 50.2397Z" fill="#3E6BAF"/>
<path d="M160.463 69.5189L158.575 68.4294L145.168 76.1615L147.056 77.2468L160.463 69.5189Z" fill="#7DAFFB"/>
<path d="M160.462 54.063L158.574 55.1524V68.4294L160.462 69.5189V54.063Z" fill="#0052CC"/>
<path d="M158.575 68.4293V66.2546L148.943 60.7014L147.056 61.7908L158.575 68.4293Z" fill="#7DAFFB"/>
<path d="M156.683 69.5187L158.575 68.4293L147.056 61.7908V63.9696L156.683 69.5187Z" fill="#0052CC"/>
<path d="M122.224 65.1121L124.111 64.0227L137.772 71.8975L140.37 75.5738L122.224 65.1121Z" fill="#7DAFFB"/>
<path d="M122.224 47.4734V49.9215L140.37 75.5861L122.224 65.1122V67.291L145.168 80.515V60.7015L122.224 47.4734ZM143.276 76.9938L125.129 51.3292L143.276 61.7909V76.9938Z" fill="#0052CC"/>
<path d="M160.463 51.8841L147.056 59.612L145.168 60.7014V80.515L162.35 70.6082V50.7947L160.463 51.8841ZM160.463 69.5188L147.056 77.2712V61.7909L160.463 54.0629V69.5188Z" fill="#3E6BAF"/>
<path d="M139.406 37.5667L137.518 38.6561L155.665 49.1177L124.336 46.2616L122.224 47.4857L145.168 60.7096L146.112 60.167L147.055 59.6202L160.462 51.8923L161.406 51.3496L162.35 50.8029L139.406 37.5667ZM145.168 58.5226L127.004 48.061L158.333 50.9171L145.168 58.5226Z" fill="#7DAFFB"/>
<path d="M127.021 48.0608L131.507 50.6517L155.089 52.802L158.349 50.9251L127.021 48.0608Z" fill="#0052CC"/>
<path d="M178.609 62.3457V64.5245L160.462 54.0629V51.884L178.609 62.3457Z" fill="#0052CC"/>
<path d="M149.965 63.4678L148.073 64.5572L166.22 90.2177L168.112 89.1283L149.965 63.4678Z" fill="#3E6BAF"/>
<path d="M183.406 82.7469L181.514 81.6575L168.111 89.3854L169.999 90.4748L183.406 82.7469Z" fill="#7DAFFB"/>
<path d="M183.407 67.291L181.515 68.3804V81.6575L183.407 82.7469V67.291Z" fill="#0052CC"/>
<path d="M181.514 81.6574V79.4785L171.887 73.9294L169.999 75.0189L181.514 81.6574Z" fill="#7DAFFB"/>
<path d="M179.626 82.7467L181.514 81.6573L169.999 75.0188V77.1976L179.626 82.7467Z" fill="#0052CC"/>
<path d="M145.168 78.3401L147.056 77.2507L160.712 85.1215L163.315 88.8018L145.168 78.3401Z" fill="#7DAFFB"/>
<path d="M145.168 60.7014V63.1495L163.315 88.8141L145.168 78.3402V80.515L168.112 93.743V73.9295L145.168 60.7014ZM166.232 90.2177L148.086 64.5572L166.232 75.0189V90.2177Z" fill="#0052CC"/>
<path d="M183.394 65.1121L169.987 72.8401L168.1 73.9295V93.743L185.262 83.8362V64.0227L183.394 65.1121ZM183.394 82.7468L169.987 90.4748V75.0189L183.394 67.291V82.7468Z" fill="#3E6BAF"/>
<path d="M162.35 50.7947L160.463 51.8841L178.609 62.3458L147.281 59.4896L145.168 60.7137L168.112 73.9418L169.056 73.3991L170 72.8523L183.394 65.1122L184.338 64.5654L185.282 64.0227L162.35 50.7947ZM168.112 71.7507L149.965 61.289L181.294 64.1452L168.112 71.7507Z" fill="#7DAFFB"/>
<path d="M149.965 61.2891L154.451 63.88L178.033 66.0303L181.294 64.1493L149.965 61.2891Z" fill="#0052CC"/>
<path d="M201.553 75.5737V77.7526L183.406 67.2909V65.1121L201.553 75.5737Z" fill="#0052CC"/>
<path d="M172.909 76.6958L171.017 77.7852L189.163 103.446L191.055 102.356L172.909 76.6958Z" fill="#3E6BAF"/>
<path d="M206.35 95.9749L204.458 94.8855L191.056 102.613L192.943 103.703L206.35 95.9749Z" fill="#7DAFFB"/>
<path d="M206.35 80.519L204.458 81.6044V94.8855L206.35 95.9749V80.519Z" fill="#0052CC"/>
<path d="M204.458 94.8854V92.7066L194.831 87.1575L192.943 88.2469L204.458 94.8854Z" fill="#7DAFFB"/>
<path d="M202.57 95.9748L204.458 94.8854L192.943 88.2468V90.4257L202.57 95.9748Z" fill="#0052CC"/>
<path d="M168.111 91.5643L169.999 90.4749L183.655 98.3497L186.258 102.026L168.111 91.5643Z" fill="#7DAFFB"/>
<path d="M168.111 73.9294V76.3776L186.254 102.026L168.111 91.5641V93.743L191.051 106.971V87.1575L168.111 73.9294ZM189.163 103.446L171.017 77.7852L189.163 88.2469V103.446Z" fill="#0052CC"/>
<path d="M206.35 78.3401L192.944 86.0681L191.052 87.1575V106.971L208.238 97.0643V77.2507L206.35 78.3401ZM206.35 95.9748L192.944 103.703V88.2469L206.35 80.519V95.9748Z" fill="#3E6BAF"/>
<path d="M185.294 64.0227L183.394 65.1121L201.541 75.5738L170.208 72.7176L168.1 73.9417L191.04 87.1698L191.988 86.623L192.931 86.0804L206.351 78.3402L207.294 77.7934L208.238 77.2508L185.294 64.0227ZM191.052 84.9787L172.905 74.517L204.238 77.3732L191.052 84.9787Z" fill="#7DAFFB"/>
<path d="M172.904 74.5171L177.395 77.1039L200.977 79.2583L204.237 77.3773L172.904 74.5171Z" fill="#0052CC"/>
<path d="M224.497 88.8018V90.9806L206.351 80.5189V78.3401L224.497 88.8018Z" fill="#0052CC"/>
<path d="M195.849 89.9241L193.961 91.0135L212.108 116.674L213.996 115.585L195.849 89.9241Z" fill="#3E6BAF"/>
<path d="M229.294 109.203L227.402 108.114L213.995 115.841L215.887 116.931L229.294 109.203Z" fill="#7DAFFB"/>
<path d="M229.294 93.7429L227.402 94.8323V108.113L229.294 109.203V93.7429Z" fill="#0052CC"/>
<path d="M227.403 108.113V105.935L217.776 100.385L215.888 101.471L227.403 108.113Z" fill="#7DAFFB"/>
<path d="M225.515 109.203L227.403 108.114L215.888 101.471V103.65L225.515 109.203Z" fill="#0052CC"/>
<path d="M191.056 104.792L192.943 103.703L206.6 111.578L209.198 115.254L191.056 104.792Z" fill="#7DAFFB"/>
<path d="M191.052 87.1575V89.6056L209.199 115.266L191.052 104.804V106.983L213.996 120.211V100.373L191.052 87.1575ZM212.108 116.694L193.961 91.0296L212.108 101.495V116.694Z" fill="#0052CC"/>
<path d="M229.294 91.5641L215.887 99.3165L213.995 100.373V120.187L231.202 110.292V90.4788L229.294 91.5641ZM229.294 109.203L215.887 116.931V101.475L229.294 93.7429V109.203Z" fill="#3E6BAF"/>
<path d="M208.238 77.2507L206.351 78.3401L224.497 88.8018L193.164 85.9457L191.052 87.1697L213.996 100.373L214.94 99.8266L215.888 99.2839L229.295 91.5315L230.238 90.9888L231.182 90.4462L208.238 77.2507ZM213.996 98.2067L195.849 87.7451L227.182 90.6012L213.996 98.2067Z" fill="#7DAFFB"/>
<path d="M195.849 87.7451L200.339 90.332L223.917 92.4863L227.182 90.6054L195.849 87.7451Z" fill="#0052CC"/>
<path d="M247.441 102.03V104.205L229.294 93.7431V91.5684L247.441 102.03Z" fill="#0052CC"/>
<path d="M218.793 103.148L216.905 104.237L235.052 129.902L236.94 128.813L218.793 103.148Z" fill="#3E6BAF"/>
<path d="M252.234 122.431L250.346 121.342L236.939 129.069L238.827 130.159L252.234 122.431Z" fill="#7DAFFB"/>
<path d="M252.234 106.971L250.347 108.061V121.342L252.234 122.431V106.971Z" fill="#0052CC"/>
<path d="M250.346 121.342V119.163L240.719 113.61L238.827 114.699L250.346 121.342Z" fill="#7DAFFB"/>
<path d="M248.458 122.431L250.346 121.342L238.827 114.699V116.878L248.458 122.431Z" fill="#0052CC"/>
<path d="M213.995 118.02L215.887 116.931L229.543 124.806L232.142 128.482L213.995 118.02Z" fill="#7DAFFB"/>
<path d="M213.995 100.373V102.821L232.142 128.486L213.995 118.024V120.203L236.923 133.423V113.61L213.995 100.373ZM235.051 129.89L216.9 104.237L235.047 114.699L235.051 129.89Z" fill="#0052CC"/>
<path d="M252.234 104.792L238.827 112.524L236.923 113.61V133.423L254.109 123.512V103.703L252.234 104.792ZM252.234 122.431L238.827 130.159V114.699L252.234 106.971V122.431Z" fill="#3E6BAF"/>
<path d="M231.202 90.4788L229.314 91.5682L247.461 102.03L216.128 99.1737L214.016 100.398L236.923 113.61L237.867 113.067L238.811 112.524L252.218 104.792L253.161 104.249L254.109 103.703L231.202 90.4788ZM236.923 111.435L218.776 100.973L250.109 103.829L236.923 111.435Z" fill="#7DAFFB"/>
<path d="M218.793 100.973L223.284 103.56L246.861 105.714L250.122 103.833L218.793 100.973Z" fill="#0052CC"/>
<path d="M270.381 115.254V117.433L252.234 106.971V104.792L270.381 115.254Z" fill="#0052CC"/>
<path d="M241.736 116.376L239.849 117.465L257.995 143.13L259.883 142.041L241.736 116.376Z" fill="#3E6BAF"/>
<path d="M275.178 135.655L273.291 134.566L259.884 142.298L261.772 143.387L275.178 135.655Z" fill="#7DAFFB"/>
<path d="M275.178 120.199L273.29 121.289V134.566L275.178 135.655V120.199Z" fill="#0052CC"/>
<path d="M273.291 134.566V132.391L263.663 126.838L261.771 127.927L273.291 134.566Z" fill="#7DAFFB"/>
<path d="M271.403 135.655L273.291 134.566L261.771 127.927V130.106L271.403 135.655Z" fill="#0052CC"/>
<path d="M236.939 131.248L238.827 130.159L252.488 138.034L255.086 141.71L236.939 131.248Z" fill="#7DAFFB"/>
<path d="M236.923 113.61V116.058L255.07 141.722L236.923 131.248V133.423L259.867 146.647V126.838L236.923 113.61ZM257.979 143.13L239.832 117.465L257.979 127.927V143.13Z" fill="#0052CC"/>
<path d="M275.178 118.02L261.772 125.748L259.884 126.838V146.651L277.07 136.744V116.931L275.178 118.02ZM275.178 135.655L261.772 143.387V127.927L275.178 120.199V135.655Z" fill="#3E6BAF"/>
<path d="M254.126 103.707L252.234 104.792L270.381 115.254L239.052 112.398L236.939 113.622L259.884 126.846L260.827 126.303L261.771 125.757L275.178 118.029L276.122 117.486L277.07 116.939L254.126 103.707ZM259.884 124.659L241.737 114.197L273.066 117.053L259.884 124.659Z" fill="#7DAFFB"/>
<path d="M241.736 114.197L246.227 116.788L269.804 118.938L273.065 117.062L241.736 114.197Z" fill="#0052CC"/>
<path d="M293.326 128.482V130.661L275.179 120.199V118.02L293.326 128.482Z" fill="#0052CC"/>
<path d="M264.681 129.604L262.793 130.693L280.94 156.354L282.828 155.269L264.681 129.604Z" fill="#3E6BAF"/>
<path d="M298.123 148.883L296.235 147.794L282.828 155.522L284.716 156.611L298.123 148.883Z" fill="#7DAFFB"/>
<path d="M298.122 133.427L296.234 134.517V147.794L298.122 148.883V133.427Z" fill="#0052CC"/>
<path d="M296.235 147.794V145.615L286.608 140.066L284.716 141.155L296.235 147.794Z" fill="#7DAFFB"/>
<path d="M294.343 148.883L296.235 147.794L284.716 141.155V143.334L294.343 148.883Z" fill="#0052CC"/>
<path d="M259.884 144.472L261.772 143.387L275.432 151.258L278.031 154.938L259.884 144.472Z" fill="#7DAFFB"/>
<path d="M259.884 126.838V129.286L278.031 154.95L259.884 144.489V146.663L282.828 159.891V140.066L259.884 126.838ZM280.94 156.354L262.793 130.693L280.94 141.176V156.354Z" fill="#0052CC"/>
<path d="M298.122 131.248L284.732 138.976L282.844 140.066V159.879L300.006 149.972V130.159L298.122 131.248ZM298.122 148.883L284.732 156.611V141.176L298.122 133.423V148.883Z" fill="#3E6BAF"/>
<path d="M277.07 116.931L275.178 118.02L293.313 128.482L261.984 125.626L259.871 126.85L282.815 140.078L283.759 139.535L284.703 138.989L298.11 131.261L299.054 130.714L299.998 130.171L277.07 116.931ZM282.827 137.887L264.681 127.425L296.01 130.281L282.827 137.887Z" fill="#7DAFFB"/>
<path d="M264.681 127.425L269.171 130.016L292.749 132.166L296.01 130.285L264.681 127.425Z" fill="#0052CC"/>
<path d="M284.716 138.976L282.828 140.066L303.884 169.582L305.772 168.493L284.716 138.976Z" fill="#679BE9"/>
<path d="M282.828 157.7L284.716 156.611L298.376 164.486L300.975 168.162L282.828 157.7Z" fill="#7DAFFB"/>
<path d="M282.828 140.066V142.628L300.975 168.162L282.828 157.7V159.879L303.884 172.018V169.582L282.828 140.066Z" fill="#0052CC"/>
<path d="M300.01 130.159L298.122 131.248L319.178 160.765L321.066 159.675L300.01 130.159Z" fill="#679BE9"/>
<path d="M298.122 148.883L300.01 147.794L313.67 155.669L316.269 159.345L298.122 148.883Z" fill="#7DAFFB"/>
<path d="M298.122 131.248V133.807L316.269 159.345L298.122 148.883V151.062L319.178 163.2V160.765L298.122 131.248Z" fill="#0052CC"/>
<path d="M321.066 162.111L303.884 172.018V169.582L321.066 159.675V162.111Z" fill="#3E6BAF"/>
<path d="M319.179 160.765L305.772 168.493L304.714 167.012L317.214 159.806L319.179 160.765Z" fill="#7DAFFB"/>
</g>
<defs>
<linearGradient id="paint0_linear" x1="179.406" y1="432.164" x2="280.854" y2="432.164" gradientUnits="userSpaceOnUse">
<stop offset="0.43" stop-color="#C4D1E4"/>
<stop offset="0.62" stop-color="#D4DDEB"/>
<stop offset="0.99" stop-color="#FEFEFE"/>
<stop offset="1" stop-color="white"/>
</linearGradient>
<linearGradient id="paint1_linear" x1="271.189" y1="443.923" x2="169.754" y2="443.923" gradientUnits="userSpaceOnUse">
<stop offset="0.41" stop-color="#091E42"/>
<stop offset="0.5" stop-color="#0D2B5E"/>
<stop offset="0.58" stop-color="#13418F"/>
</linearGradient>
<linearGradient id="paint2_linear" x1="179.888" y1="420.821" x2="269.103" y2="420.821" gradientUnits="userSpaceOnUse">
<stop offset="0.43" stop-color="#C4D1E4"/>
<stop offset="0.67" stop-color="#D4DDEA"/>
<stop offset="1" stop-color="#F1F3F6"/>
</linearGradient>
<linearGradient id="paint3_linear" x1="269.582" y1="426.928" x2="168.147" y2="426.927" gradientUnits="userSpaceOnUse">
<stop offset="0.41" stop-color="#5283CC"/>
<stop offset="0.5" stop-color="#6C9EE9"/>
<stop offset="0.58" stop-color="#7DAFFB"/>
</linearGradient>
<linearGradient id="paint4_linear" x1="57.4738" y1="394.088" x2="116.184" y2="394.088" gradientUnits="userSpaceOnUse">
<stop stop-color="#C4D1E4"/>
<stop offset="0.25" stop-color="#CED8E8"/>
<stop offset="0.68" stop-color="#E7ECF4"/>
<stop offset="1" stop-color="white"/>
</linearGradient>
<linearGradient id="paint5_linear" x1="108.44" y1="400.234" x2="49.7355" y2="400.236" gradientUnits="userSpaceOnUse">
<stop offset="0.41" stop-color="#BCCDE7"/>
<stop offset="0.57" stop-color="#CEDFF8"/>
</linearGradient>
<linearGradient id="paint6_linear" x1="8.82715" y1="339.564" x2="94.1063" y2="339.564" gradientUnits="userSpaceOnUse">
<stop stop-color="#D1DDF0"/>
<stop offset="0.29" stop-color="#D5E0F1"/>
<stop offset="0.59" stop-color="#E2EAF5"/>
<stop offset="0.9" stop-color="#F6F7FC"/>
<stop offset="1" stop-color="white"/>
</linearGradient>
<linearGradient id="paint7_linear" x1="29.5853" y1="327.633" x2="59.8845" y2="327.633" gradientUnits="userSpaceOnUse">
<stop stop-color="#BBCBE2"/>
<stop offset="1" stop-color="#CEDDF4"/>
</linearGradient>
<linearGradient id="paint8_linear" x1="72.3721" y1="344.175" x2="80.855" y2="344.175" gradientUnits="userSpaceOnUse">
<stop stop-color="#A5B8D4"/>
<stop offset="0.63" stop-color="#BECEE7"/>
<stop offset="1" stop-color="#CEDDF4"/>
</linearGradient>
<linearGradient id="paint9_linear" x1="1381.34" y1="12150.1" x2="1559.32" y2="12150.1" gradientUnits="userSpaceOnUse">
<stop stop-color="#BBCBE2"/>
<stop offset="0.979167" stop-color="#CEDDF4"/>
<stop offset="1" stop-color="#CED2F4"/>
</linearGradient>
<linearGradient id="paint10_linear" x1="58.209" y1="352.029" x2="69.0946" y2="352.029" gradientUnits="userSpaceOnUse">
<stop stop-color="#A5B8D4"/>
<stop offset="0.52" stop-color="#BCCDE6"/>
<stop offset="1" stop-color="#CEDDF4"/>
</linearGradient>
<linearGradient id="paint11_linear" x1="2090.88" y1="11792.3" x2="2381.96" y2="11792.3" gradientUnits="userSpaceOnUse">
<stop stop-color="#BBCBE2"/>
<stop offset="1" stop-color="#CEDDF4"/>
</linearGradient>
<linearGradient id="paint12_linear" x1="2812.9" y1="11514.7" x2="3154.89" y2="11514.7" gradientUnits="userSpaceOnUse">
<stop stop-color="#BBCBE2"/>
<stop offset="1" stop-color="#CEDDF4"/>
</linearGradient>
<linearGradient id="paint13_linear" x1="8445.51" y1="10527.4" x2="12959" y2="10527.4" gradientUnits="userSpaceOnUse">
<stop stop-color="#BBCBE2"/>
<stop offset="1" stop-color="#CEDDF4"/>
</linearGradient>
<linearGradient id="paint14_linear" x1="139.88" y1="383.002" x2="179.308" y2="383.002" gradientUnits="userSpaceOnUse">
<stop stop-color="#C4D1E4"/>
<stop offset="0.19" stop-color="#D7E0ED"/>
<stop offset="0.48" stop-color="#EDF1F7"/>
<stop offset="0.75" stop-color="#FAFBFD"/>
<stop offset="1" stop-color="white"/>
</linearGradient>
<linearGradient id="paint15_linear" x1="29529.1" y1="25486.2" x2="39519.2" y2="25486.2" gradientUnits="userSpaceOnUse">
<stop stop-color="#C4D1E4"/>
<stop offset="0.19" stop-color="#D7E0ED"/>
<stop offset="0.48" stop-color="#EDF1F7"/>
<stop offset="0.75" stop-color="#FAFBFD"/>
<stop offset="1" stop-color="white"/>
</linearGradient>
<linearGradient id="paint16_linear" x1="258.151" y1="356.705" x2="439.526" y2="356.705" gradientUnits="userSpaceOnUse">
<stop stop-color="#C0CEE4"/>
<stop offset="0.42" stop-color="#E2E9F3"/>
<stop offset="0.77" stop-color="#F7F8FC"/>
<stop offset="1" stop-color="white"/>
</linearGradient>
<linearGradient id="paint17_linear" x1="335.045" y1="377.11" x2="213.922" y2="377.11" gradientUnits="userSpaceOnUse">
<stop offset="0.24" stop-color="#3F6AAA"/>
<stop offset="0.3" stop-color="#416CAC"/>
<stop offset="0.34" stop-color="#4672B4"/>
<stop offset="0.36" stop-color="#4F7DC2"/>
<stop offset="0.38" stop-color="#605BD5"/>
<stop offset="0.3999" stop-color="#626CD9"/>
<stop offset="0.4" stop-color="#6699E5"/>
</linearGradient>
<linearGradient id="paint18_linear" x1="256.949" y1="363.262" x2="333.431" y2="363.262" gradientUnits="userSpaceOnUse">
<stop stop-color="#D8E3F3"/>
<stop offset="0.31" stop-color="#DEE7F5"/>
<stop offset="0.74" stop-color="#F1F5FB"/>
<stop offset="1" stop-color="white"/>
</linearGradient>
<linearGradient id="paint19_linear" x1="215.589" y1="95.8565" x2="366.116" y2="356.961" gradientUnits="userSpaceOnUse">
<stop offset="0.63" stop-color="#679AE7"/>
<stop offset="0.7" stop-color="#193B6F"/>
</linearGradient>
<linearGradient id="paint20_linear" x1="218.009" y1="133.896" x2="308.458" y2="290.786" gradientUnits="userSpaceOnUse">
<stop offset="0.88" stop-color="#13418F"/>
<stop offset="0.9" stop-color="#0D2B5E"/>
<stop offset="0.92" stop-color="#0A224A"/>
<stop offset="0.9201" stop-color="#091E42"/>
<stop offset="0.942708" stop-color="#091E42"/>
</linearGradient>
<linearGradient id="paint21_linear" x1="212.696" y1="204.933" x2="252.523" y2="274.013" gradientUnits="userSpaceOnUse">
<stop offset="0.46" stop-color="#CEDFF8"/>
<stop offset="0.63" stop-color="#BBCCE6"/>
</linearGradient>
<linearGradient id="paint22_linear" x1="214.221" y1="204.052" x2="254.047" y2="273.131" gradientUnits="userSpaceOnUse">
<stop offset="0.42" stop-color="#7DAFFB"/>
<stop offset="0.45" stop-color="#6E9FE9"/>
<stop offset="0.52" stop-color="#4674B9"/>
<stop offset="0.552083" stop-color="#3E6BAF"/>
</linearGradient>
<linearGradient id="paint23_linear" x1="97.8329" y1="282.987" x2="185.927" y2="282.987" gradientUnits="userSpaceOnUse">
<stop stop-color="#C4D3E9"/>
<stop offset="0.24" stop-color="#C9D7EB"/>
<stop offset="0.53" stop-color="#D9E3F1"/>
<stop offset="0.86" stop-color="#F2F3FA"/>
<stop offset="1" stop-color="white"/>
</linearGradient>
<linearGradient id="paint24_linear" x1="85.1039" y1="293.38" x2="176.32" y2="293.38" gradientUnits="userSpaceOnUse">
<stop offset="0.39" stop-color="#679BE9"/>
<stop offset="0.41" stop-color="#6396E3"/>
<stop offset="0.45" stop-color="#5788D1"/>
<stop offset="0.5" stop-color="#4370B3"/>
<stop offset="0.53" stop-color="#2E5794"/>
</linearGradient>
<linearGradient id="paint25_linear" x1="115.522" y1="278.271" x2="136.995" y2="278.271" gradientUnits="userSpaceOnUse">
<stop stop-color="#C2D1E7"/>
<stop offset="0.11" stop-color="#CEDAEC"/>
<stop offset="0.42" stop-color="#E9EEF6"/>
<stop offset="0.69" stop-color="#F9FAFD"/>
<stop offset="0.9" stop-color="white"/>
</linearGradient>
<linearGradient id="paint26_linear" x1="10813" y1="1910.56" x2="11941.5" y2="1910.56" gradientUnits="userSpaceOnUse">
<stop stop-color="#C2D1E7"/>
<stop offset="0.11" stop-color="#CEDAEC"/>
<stop offset="0.42" stop-color="#E9EEF6"/>
<stop offset="0.69" stop-color="#F9FAFD"/>
<stop offset="0.9" stop-color="white"/>
</linearGradient>
<linearGradient id="paint27_linear" x1="10622.8" y1="5030.52" x2="11899.6" y2="5030.52" gradientUnits="userSpaceOnUse">
<stop stop-color="#C2D1E7"/>
<stop offset="0.11" stop-color="#CEDAEC"/>
<stop offset="0.42" stop-color="#E9EEF6"/>
<stop offset="0.69" stop-color="#F9FAFD"/>
<stop offset="0.9" stop-color="white"/>
</linearGradient>
<linearGradient id="paint28_linear" x1="9994.02" y1="-2564.69" x2="11122.4" y2="-2564.69" gradientUnits="userSpaceOnUse">
<stop stop-color="#C2D1E7"/>
<stop offset="0.11" stop-color="#CED3EC"/>
<stop offset="0.208333" stop-color="#D4DEEE"/>
<stop offset="0.42" stop-color="#E9EEF6"/>
<stop offset="0.69" stop-color="#F9FAFD"/>
<stop offset="0.9" stop-color="white"/>
</linearGradient>
<clipPath id="clip0">
<rect width="433.125" height="462" fill="white"/>
</clipPath>
</defs>
</svg>
