<svg width="80" height="80" viewBox="0 0 80 80" fill="none" xmlns="http://www.w3.org/2000/svg">
<path d="M48.4494 13.9614C45.101 5.73184 37.0008 -0.0578452 27.5547 0.000436049C15.5041 0.0746548 5.59598 9.79481 5.30364 21.842C5.15942 27.7857 7.33145 33.2203 10.9808 37.3081C13.89 40.5668 15.35 44.8589 15.2029 49.225C15.1833 49.8053 15.1804 50.3898 15.1947 50.9781C15.5797 66.8218 29.1146 80.0095 44.963 80C61.39 79.9901 74.7036 66.6703 74.7036 50.2411C74.7036 38.1982 67.5499 27.8273 57.2604 23.1437C53.2499 21.3182 50.11 18.0426 48.4494 13.9614Z" fill="url(#paint0_linear)"/>
<g opacity="0.1">
<path opacity="0.1" d="M64.2712 9.94312H15.7302C14.8663 9.94312 14.166 10.6434 14.166 11.5073V17.7706C14.166 18.6345 14.8663 19.3348 15.7302 19.3348H64.271C65.1349 19.3348 65.8353 18.6345 65.8353 17.7706V11.5073C65.8353 10.6434 65.1349 9.94312 64.2712 9.94312Z" fill="#091E42"/>
<path opacity="0.1" d="M64.2712 25.0648H15.7302C14.8663 25.0648 14.166 25.7651 14.166 26.629V32.8923C14.166 33.7562 14.8663 34.4565 15.7302 34.4565H64.271C65.1349 34.4565 65.8353 33.7562 65.8353 32.8923V26.629C65.8353 25.7651 65.1349 25.0648 64.2712 25.0648Z" fill="#091E42"/>
<path opacity="0.1" d="M64.2712 40.1864H15.7302C14.8663 40.1864 14.166 40.8867 14.166 41.7506V48.0139C14.166 48.8778 14.8663 49.5781 15.7302 49.5781H64.271C65.1349 49.5781 65.8353 48.8778 65.8353 48.0139V41.7506C65.8353 40.8867 65.1349 40.1864 64.2712 40.1864Z" fill="#091E42"/>
<path opacity="0.1" d="M51.6537 60.5262H28.3474C27.4835 60.5262 26.7832 61.2266 26.7832 62.0905V65.2114C26.7832 66.0753 27.4835 66.7756 28.3474 66.7756H51.6537C52.5176 66.7756 53.2179 66.0753 53.2179 65.2114V62.0905C53.2177 61.2266 52.5174 60.5262 51.6537 60.5262Z" fill="#091E42"/>
</g>
<path d="M42.32 51.4108V55.6341C42.32 56.4975 41.6208 57.1983 40.7558 57.1983H39.2449C38.3799 57.1983 37.6807 56.4975 37.6807 55.6341V51.4108H42.32Z" fill="white"/>
<path d="M16.9551 20.4768H63.0449V45.9196H16.9551V20.4768Z" fill="#0052CC"/>
<path d="M64.2712 22.6161H15.7302C14.8663 22.6161 14.166 21.9158 14.166 21.0519V14.7886C14.166 13.9247 14.8663 13.2244 15.7302 13.2244H64.271C65.1349 13.2244 65.8353 13.9247 65.8353 14.7886V21.0519C65.8353 21.9158 65.1349 22.6161 64.2712 22.6161Z" fill="white"/>
<path d="M21.1909 18.7957C21.6744 18.7957 22.0664 18.4038 22.0664 17.9203C22.0664 17.4368 21.6744 17.0448 21.1909 17.0448C20.7074 17.0448 20.3154 17.4368 20.3154 17.9203C20.3154 18.4038 20.7074 18.7957 21.1909 18.7957Z" fill="#091E42"/>
<path d="M23.8393 18.7957C24.3229 18.7957 24.7148 18.4038 24.7148 17.9203C24.7148 17.4368 24.3229 17.0448 23.8393 17.0448C23.3558 17.0448 22.9639 17.4368 22.9639 17.9203C22.9639 18.4038 23.3558 18.7957 23.8393 18.7957Z" fill="#091E42"/>
<path d="M26.4878 18.7957C26.9713 18.7957 27.3632 18.4038 27.3632 17.9203C27.3632 17.4368 26.9713 17.0448 26.4878 17.0448C26.0043 17.0448 25.6123 17.4368 25.6123 17.9203C25.6123 18.4038 26.0043 18.7957 26.4878 18.7957Z" fill="#091E42"/>
<path d="M44.2193 17.1368H32.2165C31.8075 17.1368 31.442 17.4359 31.4031 17.8432C31.3586 18.3104 31.7247 18.7037 32.1828 18.7037H44.2192C44.6518 18.7037 45.0026 18.3529 45.0026 17.9203C45.0028 17.4876 44.652 17.1368 44.2193 17.1368Z" fill="#091E42"/>
<path d="M59.7828 17.1368H47.78C47.3709 17.1368 47.0055 17.4359 46.9666 17.8432C46.922 18.3104 47.2881 18.7037 47.7463 18.7037H59.7827C60.2153 18.7037 60.5661 18.3529 60.5661 17.9203C60.5663 17.4876 60.2155 17.1368 59.7828 17.1368Z" fill="#091E42"/>
<path d="M64.2712 37.7375H15.7302C14.8663 37.7375 14.166 37.0372 14.166 36.1733V29.91C14.166 29.0461 14.8663 28.3458 15.7302 28.3458H64.271C65.1349 28.3458 65.8353 29.0461 65.8353 29.91V36.1733C65.8353 37.0374 65.1349 37.7375 64.2712 37.7375Z" fill="white"/>
<path d="M21.1909 33.9173C21.6744 33.9173 22.0664 33.5254 22.0664 33.0419C22.0664 32.5583 21.6744 32.1664 21.1909 32.1664C20.7074 32.1664 20.3154 32.5583 20.3154 33.0419C20.3154 33.5254 20.7074 33.9173 21.1909 33.9173Z" fill="#091E42"/>
<path d="M23.8393 33.9173C24.3229 33.9173 24.7148 33.5254 24.7148 33.0419C24.7148 32.5583 24.3229 32.1664 23.8393 32.1664C23.3558 32.1664 22.9639 32.5583 22.9639 33.0419C22.9639 33.5254 23.3558 33.9173 23.8393 33.9173Z" fill="#091E42"/>
<path d="M26.4878 33.9173C26.9713 33.9173 27.3632 33.5254 27.3632 33.0419C27.3632 32.5583 26.9713 32.1664 26.4878 32.1664C26.0043 32.1664 25.6123 32.5583 25.6123 33.0419C25.6123 33.5254 26.0043 33.9173 26.4878 33.9173Z" fill="#091E42"/>
<path d="M44.2203 32.2584H32.2175C31.8084 32.2584 31.443 32.5575 31.4041 32.9648C31.3595 33.432 31.7256 33.8253 32.1838 33.8253H44.2202C44.6528 33.8253 45.0036 33.4745 45.0036 33.0419C45.0038 32.6092 44.653 32.2584 44.2203 32.2584Z" fill="#091E42"/>
<path d="M59.7828 32.2584H47.78C47.3709 32.2584 47.0055 32.5575 46.9666 32.9648C46.922 33.432 47.2881 33.8253 47.7463 33.8253H59.7827C60.2153 33.8253 60.5661 33.4745 60.5661 33.0419C60.5663 32.6092 60.2155 32.2584 59.7828 32.2584Z" fill="#091E42"/>
<path d="M64.2712 52.8594H15.7302C14.8663 52.8594 14.166 52.1591 14.166 51.2952V45.0319C14.166 44.168 14.8663 43.4677 15.7302 43.4677H64.271C65.1349 43.4677 65.8353 44.168 65.8353 45.0319V51.2952C65.8353 52.1591 65.1349 52.8594 64.2712 52.8594Z" fill="white"/>
<path d="M21.1909 49.039C21.6744 49.039 22.0664 48.6471 22.0664 48.1636C22.0664 47.68 21.6744 47.2881 21.1909 47.2881C20.7074 47.2881 20.3154 47.68 20.3154 48.1636C20.3154 48.6471 20.7074 49.039 21.1909 49.039Z" fill="#091E42"/>
<path d="M23.8393 49.039C24.3229 49.039 24.7148 48.6471 24.7148 48.1636C24.7148 47.68 24.3229 47.2881 23.8393 47.2881C23.3558 47.2881 22.9639 47.68 22.9639 48.1636C22.9639 48.6471 23.3558 49.039 23.8393 49.039Z" fill="#091E42"/>
<path d="M26.4878 49.039C26.9713 49.039 27.3632 48.6471 27.3632 48.1636C27.3632 47.68 26.9713 47.2881 26.4878 47.2881C26.0043 47.2881 25.6123 47.68 25.6123 48.1636C25.6123 48.6471 26.0043 49.039 26.4878 49.039Z" fill="#091E42"/>
<path d="M44.2193 47.3801H32.2165C31.8075 47.3801 31.442 47.6792 31.4031 48.0865C31.3586 48.5537 31.7247 48.947 32.1828 48.947H44.2192C44.6518 48.947 45.0026 48.5962 45.0026 48.1636C45.0028 47.7309 44.652 47.3801 44.2193 47.3801Z" fill="#091E42"/>
<path d="M59.7828 47.3801H47.78C47.3709 47.3801 47.0055 47.6792 46.9666 48.0865C46.922 48.5537 47.2881 48.947 47.7463 48.947H59.7827C60.2153 48.947 60.5661 48.5962 60.5661 48.1636C60.5663 47.7309 60.2155 47.3801 59.7828 47.3801Z" fill="#091E42"/>
<path d="M51.6537 70.0566H28.3474C27.4835 70.0566 26.7832 69.3563 26.7832 68.4924V65.3715C26.7832 64.5076 27.4835 63.8073 28.3474 63.8073H51.6537C52.5176 63.8073 53.2179 64.5076 53.2179 65.3715V68.4924C53.2177 69.3563 52.5174 70.0566 51.6537 70.0566Z" fill="white"/>
<path d="M72.8556 66.1509H53.9986V65.3717C53.9986 64.0784 52.9466 63.0262 51.6533 63.0262H44.3078C43.8763 63.0262 43.5266 63.3759 43.5266 63.8075C43.5266 64.239 43.8763 64.5887 44.3078 64.5887H51.6533C52.085 64.5887 52.4361 64.94 52.4361 65.3717V68.4926C52.4361 68.9244 52.085 69.2756 51.6533 69.2756H28.347C27.9153 69.2756 27.5641 68.9244 27.5641 68.4926V65.3717C27.5641 64.94 27.9153 64.5887 28.347 64.5887H40.0002C40.4317 64.5887 40.7814 64.239 40.7814 63.8075V57.9781C42.0631 57.9644 43.1017 56.9187 43.1017 55.6339V53.6406H64.2706C65.5637 53.6406 66.6159 52.5886 66.6159 51.2951V45.0319C66.6159 43.7386 65.5639 42.6864 64.2706 42.6864H63.8269V38.5189H64.2706C65.5637 38.5189 66.6159 37.4669 66.6159 36.1734V29.9101C66.6159 28.6169 65.5639 27.5647 64.2706 27.5647H63.8269V23.3972H64.2706C65.5637 23.3972 66.6159 22.3451 66.6159 21.0517V14.7886C66.6159 13.4953 65.5639 12.4431 64.2706 12.4431H15.7295C14.4362 12.4431 13.3841 13.4951 13.3841 14.7886V21.0519C13.3841 22.3451 14.4362 23.3973 15.7295 23.3973H16.1733V27.5648H15.7295C14.4362 27.5648 13.3841 28.6169 13.3841 29.9103V36.1736C13.3841 37.4669 14.4362 38.5191 15.7295 38.5191H16.1733V42.6866H15.7295C14.4362 42.6866 13.3841 43.7386 13.3841 45.032V51.2953C13.3841 52.5886 14.4362 53.6408 15.7295 53.6408H36.8986V55.6342C36.8986 56.919 37.9372 57.9647 39.2188 57.9784V63.0266H28.3469C27.0536 63.0266 26.0014 64.0786 26.0014 65.372V66.1512H7.14453C6.71313 66.1512 6.36328 66.5009 6.36328 66.9325C6.36328 67.364 6.71313 67.7137 7.14453 67.7137H26.0017V68.4928C26.0017 69.7861 27.0539 70.8383 28.3472 70.8383H51.6534C52.9466 70.8383 53.9987 69.7862 53.9987 68.4928V67.7137H72.8559C73.2875 67.7137 73.6372 67.364 73.6372 66.9325C73.6372 66.5009 73.2872 66.1509 72.8556 66.1509ZM14.9469 21.0519V14.7886C14.9469 14.3569 15.2981 14.0056 15.7298 14.0056H64.2708C64.7025 14.0056 65.0536 14.3569 65.0536 14.7886V21.0519C65.0536 21.4836 64.7025 21.8348 64.2708 21.8348H15.7295C15.298 21.8348 14.9467 21.4836 14.9469 21.0519ZM14.9469 36.1736V29.9103C14.9469 29.4786 15.2981 29.1273 15.7298 29.1273H16.9553C17.3867 29.1273 17.7366 28.7776 17.7366 28.3461C17.7366 28.3442 17.7361 28.3426 17.7361 28.3408V23.3973H62.2645V27.5648H21.2631C20.8317 27.5648 20.4819 27.9145 20.4819 28.3461C20.4819 28.7776 20.8317 29.1273 21.2631 29.1273H64.2708C64.7025 29.1273 65.0536 29.4786 65.0536 29.9103V36.1736C65.0536 36.6053 64.7025 36.9566 64.2708 36.9566H15.7297C15.2981 36.9564 14.9469 36.6051 14.9469 36.1736ZM17.7359 38.5189H62.2644V42.6864H17.7359V38.5189ZM14.9469 51.2951V45.0319C14.9469 44.6001 15.2981 44.2489 15.7298 44.2489H64.2708C64.7025 44.2489 65.0536 44.6001 65.0536 45.0319V51.2951C65.0536 51.7269 64.7025 52.0781 64.2708 52.0781H15.7295C15.298 52.0781 14.9467 51.7269 14.9469 51.2951ZM38.4613 55.634V53.6406H41.5392V55.634C41.5392 56.0658 41.188 56.417 40.7562 56.417H39.2442C38.8125 56.4169 38.4613 56.0656 38.4613 55.634Z" fill="#091E42"/>
<path d="M63.4984 62.3613C63.0668 62.3613 62.7171 62.0116 62.7171 61.58C62.7171 61.0608 62.2946 60.6383 61.7754 60.6383C61.3438 60.6383 60.9941 60.2886 60.9941 59.857C60.9941 59.4255 61.3438 59.0758 61.7754 59.0758C62.2946 59.0758 62.7171 58.6533 62.7171 58.1339C62.7171 57.7023 63.0668 57.3527 63.4984 57.3527C63.9299 57.3527 64.2796 57.7023 64.2796 58.1339C64.2796 58.6533 64.7021 59.0758 65.2213 59.0758C65.6529 59.0758 66.0026 59.4255 66.0026 59.857C66.0026 60.2886 65.6529 60.6383 65.2213 60.6383C64.7021 60.6383 64.2796 61.0608 64.2796 61.58C64.2796 62.0116 63.9298 62.3613 63.4984 62.3613Z" fill="#0052CC"/>
<path d="M71.637 55.6035C71.2055 55.6035 70.8558 55.2538 70.8558 54.8223C70.8558 54.3031 70.4333 53.8806 69.9141 53.8806C69.4825 53.8806 69.1328 53.5309 69.1328 53.0993C69.1328 52.6677 69.4825 52.3181 69.9141 52.3181C70.4333 52.3181 70.8558 51.8956 70.8558 51.3763C70.8558 50.9448 71.2055 50.5951 71.637 50.5951C72.0686 50.5951 72.4183 50.9448 72.4183 51.3763C72.4183 51.8956 72.8408 52.3181 73.36 52.3181C73.7916 52.3181 74.1413 52.6677 74.1413 53.0993C74.1413 53.5309 73.7916 53.8806 73.36 53.8806C72.8408 53.8806 72.4183 54.3031 72.4183 54.8223C72.4183 55.2538 72.0684 55.6035 71.637 55.6035Z" fill="#0052CC"/>
<path d="M8.36043 28.7211C8.16043 28.7211 7.96059 28.6448 7.80793 28.4922L6.08824 26.7725C5.78309 26.4675 5.78309 25.9728 6.08824 25.6678L7.80793 23.9481C8.11309 23.6429 8.60762 23.6429 8.91277 23.9481L10.6325 25.6678C10.9376 25.9728 10.9376 26.4675 10.6325 26.7725L8.91277 28.4922C8.76027 28.6448 8.56043 28.7211 8.36043 28.7211ZM7.74559 26.2203L8.36043 26.8351L8.97527 26.2203L8.36043 25.6054L7.74559 26.2203Z" fill="#0052CC"/>
<path d="M11.2864 63.4218C11.0864 63.4218 10.8865 63.3456 10.7339 63.1929L9.01402 61.4734C8.70887 61.1684 8.70887 60.6737 9.01402 60.3687L10.7337 58.649C11.0389 58.3439 11.5334 58.3439 11.8386 58.649L13.5582 60.3687C13.8634 60.6737 13.8634 61.1684 13.5582 61.4734L11.8386 63.1931C11.6862 63.3456 11.4864 63.4218 11.2864 63.4218ZM10.6715 60.9211L11.2864 61.5359L11.9012 60.9211L11.2864 60.3062L10.6715 60.9211Z" fill="#0052CC"/>
<defs>
<linearGradient id="paint0_linear" x1="2.54098" y1="2.17778" x2="67.6228" y2="75.7673" gradientUnits="userSpaceOnUse">
<stop stop-color="#D2E4FF" stop-opacity="0"/>
<stop offset="1" stop-color="#B7D4FF"/>
</linearGradient>
</defs>
</svg>
