<svg width="80" height="80" viewBox="0 0 80 80" fill="none" xmlns="http://www.w3.org/2000/svg">
<path d="M65.6005 32.0009C65.7653 30.7888 65.8458 29.5498 65.8363 28.2903C65.7281 14.2239 54.2338 2.74563 40.1673 2.65641C25.8213 2.56563 14.163 14.1678 14.163 28.493C14.163 29.6828 14.2436 30.8538 14.3994 32.0008C15.0311 36.6488 12.8545 41.2419 8.8975 43.7606C3.33328 47.3025 0 51.8138 0 56.7263C0 68.1131 17.9086 77.3441 40 77.3441C62.0914 77.3441 80 68.1131 80 56.7263C80 51.8138 76.6667 47.3025 71.1022 43.7606C67.1452 41.2419 64.9688 36.6488 65.6005 32.0009Z" fill="url(#paint0_linear)"/>
<g opacity="0.1">
<path opacity="0.1" d="M55.8833 51.3487C58.37 50.6151 59.7913 48.0047 59.0577 45.518C58.4308 43.3928 56.4329 42.047 54.313 42.1583C53.8527 41.415 53.255 40.7664 52.5564 40.2455H63.0958C63.41 41.0612 64.1993 41.6411 65.1258 41.6411C66.328 41.6411 67.3027 40.6664 67.3027 39.4642C67.3027 38.262 66.328 37.2873 65.1258 37.2873C64.1993 37.2873 63.41 37.8672 63.0958 38.683H50.9311C50.0894 33.2844 45.423 29.1523 39.7883 29.1523C34.1536 29.1523 29.4868 33.2844 28.645 38.683H15.2664C14.9522 37.8672 14.163 37.2873 13.2364 37.2873C12.0343 37.2873 11.0596 38.262 11.0596 39.4642C11.0596 40.6666 12.0343 41.6411 13.2364 41.6411C14.163 41.6411 14.9522 41.0612 15.2664 40.2455H26.4424C25.9519 40.5139 25.4905 40.8551 25.075 41.2706C24.2913 42.0544 23.7704 43.0006 23.5089 44.0006C21.6858 44.4205 20.326 46.0523 20.326 48.003C20.326 50.2719 22.1654 52.1112 24.4343 52.1112C25.3904 52.1112 26.2693 51.7837 26.9674 51.2361C27.9139 52.1556 29.2047 52.7228 30.6286 52.7228C32.0983 52.7228 33.4264 52.1189 34.3802 51.1466C35.9324 52.1441 37.7793 52.7228 39.7614 52.7228C41.4835 52.7228 43.1036 52.2861 44.5169 51.5172C45.6286 52.2775 46.9727 52.7228 48.4213 52.7228C50.0685 52.7228 51.5803 52.1469 52.7691 51.1867C53.7243 51.5805 54.815 51.6639 55.8833 51.3487Z" fill="#091E42"/>
<path opacity="0.1" d="M26.2757 20.1569C26.4092 19.8272 26.1665 19.4674 25.8109 19.4674H23.8842V15.6443C23.8842 15.3674 23.6596 15.1429 23.3828 15.1429H15.7979L15.2043 13.4374C15.1342 13.2358 14.9442 13.1008 14.7307 13.1008H8.71527C8.4384 13.1008 8.21387 13.3254 8.21387 13.6022V25.2865C8.21387 25.7179 8.56371 26.0677 8.99512 26.0677H23.3575C23.6757 26.0677 23.9623 25.8746 24.0817 25.5794L26.2757 20.1569Z" fill="#091E42"/>
<path opacity="0.1" d="M70.8607 64.5177H68.934V60.6946C68.934 60.4177 68.7095 60.1932 68.4326 60.1932H60.8476L60.254 58.4877C60.1838 58.2861 59.9938 58.1511 59.7804 58.1511H53.7651C53.4882 58.1511 53.2637 58.3757 53.2637 58.6525V70.3367C53.2637 70.7682 53.6135 71.118 54.0449 71.118H68.4073C68.7255 71.118 69.0121 70.9249 69.1315 70.6297L71.3255 65.2072C71.4588 64.8775 71.2163 64.5177 70.8607 64.5177Z" fill="#091E42"/>
<path opacity="0.1" d="M25.8109 64.5177H23.8842V60.6946C23.8842 60.4177 23.6596 60.1932 23.3828 60.1932H15.7978L15.2042 58.4877C15.134 58.2861 14.944 58.1511 14.7306 58.1511H8.71527C8.4384 58.1511 8.21387 58.3757 8.21387 58.6525V70.3367C8.21387 70.7682 8.56371 71.118 8.99512 71.118H23.3575C23.6757 71.118 23.9623 70.9249 24.0817 70.6297L26.2757 65.2071C26.409 64.8775 26.1665 64.5177 25.8109 64.5177Z" fill="#091E42"/>
<path opacity="0.1" d="M71.3264 20.1569C71.4596 19.8272 71.2171 19.4674 70.8615 19.4674H68.9348V15.6443C68.9348 15.3674 68.7103 15.1429 68.4334 15.1429H60.8486L60.255 13.4374C60.1848 13.2358 59.9948 13.1008 59.7814 13.1008H53.7661C53.4892 13.1008 53.2646 13.3254 53.2646 13.6022V25.2865C53.2646 25.7179 53.6145 26.0677 54.0459 26.0677H68.4082C68.7265 26.0677 69.0131 25.8746 69.1325 25.5794L71.3264 20.1569Z" fill="#091E42"/>
</g>
<path d="M59.058 41.2992C58.4312 39.1741 56.4332 37.8283 54.3134 37.9395C53.5435 36.6963 52.391 35.715 51.0205 35.1594C50.4882 29.4239 45.6632 24.9336 39.7887 24.9336C33.8521 24.9336 28.9865 29.5192 28.5405 35.3416C27.2732 35.5084 26.049 36.078 25.0752 37.0517C24.2915 37.8355 23.7705 38.7817 23.5091 39.7817C21.686 40.2016 20.3262 41.8334 20.3262 43.7841C20.3262 46.053 22.1655 47.8924 24.4345 47.8924C25.3905 47.8924 26.2695 47.5649 26.9676 47.0172C27.9141 47.9367 29.2049 48.5039 30.6288 48.5039C32.0985 48.5039 33.4266 47.9 34.3804 46.9277C35.9326 47.9252 37.7795 48.5039 39.7616 48.5039C41.4837 48.5039 43.1038 48.0672 44.5171 47.2983C45.6288 48.0586 46.9729 48.5039 48.4215 48.5039C50.0687 48.5039 51.5805 47.9278 52.7693 46.9677C53.7246 47.3616 54.8154 47.445 55.8837 47.1299C58.3704 46.3966 59.7916 43.786 59.058 41.2992Z" fill="white"/>
<path d="M54.0467 47.2922C53.6045 47.2453 53.1748 47.1344 52.7701 46.9672C51.581 47.9281 50.0685 48.5047 48.4217 48.5047C46.9732 48.5047 45.6295 48.0594 44.517 47.2984C43.1045 48.0672 41.4842 48.5047 39.7623 48.5047C37.7795 48.5047 35.9326 47.925 34.3811 46.9281C33.4264 47.9 32.0982 48.5047 30.6295 48.5047C29.2045 48.5047 27.9139 47.9375 26.967 47.0172C26.5232 47.3672 26.0045 47.6266 25.4404 47.7688C25.3889 47.5484 25.3623 47.3188 25.3623 47.0828C25.3623 45.6359 26.3701 44.4266 27.7217 44.1156C27.9154 43.375 28.3014 42.6734 28.8826 42.0922C29.6045 41.3703 30.5123 40.9484 31.4514 40.825C31.7826 36.5078 35.3889 33.1094 39.7889 33.1094C44.1435 33.1094 47.7201 36.4375 48.1139 40.6891C49.1295 41.1016 49.9842 41.8281 50.5545 42.75C52.1264 42.6672 53.6076 43.6656 54.0717 45.2406C54.2779 45.9391 54.2545 46.65 54.0467 47.2922Z" fill="#0052CC"/>
<path d="M15.7978 10.9241L15.2042 9.21876C15.134 9.0172 14.944 8.8822 14.7306 8.8822H8.71527C8.4384 8.8822 8.21387 9.10673 8.21387 9.38361V21.8491H23.8842V11.4256C23.8842 11.1488 23.6596 10.9242 23.3828 10.9242H15.7978V10.9241Z" fill="#0052CC"/>
<path d="M10.7576 15.5621L8.21387 21.849H23.8842L26.2757 15.9382C26.4092 15.6085 26.1665 15.2487 25.8109 15.2487H11.2225C11.0181 15.2488 10.8342 15.3727 10.7576 15.5621Z" fill="white"/>
<path d="M60.8476 55.9743L60.254 54.2688C60.1838 54.0673 59.9938 53.9323 59.7804 53.9323H53.7651C53.4882 53.9323 53.2637 54.1568 53.2637 54.4337V66.8991H68.934V56.4757C68.934 56.1988 68.7095 55.9743 68.4326 55.9743H60.8476Z" fill="#0052CC"/>
<path d="M55.8074 60.6123L53.2637 66.8991H68.934L71.3255 60.9884C71.459 60.6587 71.2163 60.2988 70.8607 60.2988H56.2723C56.0679 60.299 55.884 60.4229 55.8074 60.6123Z" fill="white"/>
<path d="M15.7978 55.9743L15.2042 54.2688C15.134 54.0673 14.944 53.9323 14.7306 53.9323H8.71527C8.4384 53.9323 8.21387 54.1568 8.21387 54.4337V66.8991H23.8842V56.4757C23.8842 56.1988 23.6596 55.9743 23.3828 55.9743H15.7978Z" fill="#0052CC"/>
<path d="M10.7576 60.6123L8.21387 66.8991H23.8842L26.2757 60.9884C26.4092 60.6587 26.1665 60.2988 25.8109 60.2988H11.2225C11.0181 60.299 10.8342 60.4229 10.7576 60.6123Z" fill="white"/>
<path d="M60.8476 10.9241L60.254 9.21876C60.1838 9.0172 59.9938 8.8822 59.7804 8.8822H53.7651C53.4882 8.8822 53.2637 9.10673 53.2637 9.38361V21.8491H68.934V11.4256C68.934 11.1488 68.7095 10.9242 68.4326 10.9242H60.8476V10.9241Z" fill="#0052CC"/>
<path d="M55.8074 15.5621L53.2637 21.849H68.934L71.3255 15.9382C71.459 15.6085 71.2163 15.2487 70.8607 15.2487H56.2723C56.0679 15.2488 55.884 15.3727 55.8074 15.5621Z" fill="white"/>
<path d="M70.861 59.5177H69.7156V56.4758C69.7156 55.7686 69.1401 55.1932 68.4329 55.1932H65.9073V38.0957C67.16 37.7518 68.0843 36.606 68.0843 35.2457C68.0843 33.8852 67.16 32.7396 65.9073 32.3957V22.6305H68.9343C69.2526 22.6305 69.5392 22.4374 69.6586 22.1424L72.0503 16.2315C72.2104 15.8355 72.1637 15.3877 71.9248 15.0335C71.6861 14.6793 71.2884 14.4679 70.861 14.4679H69.7156V11.4255C69.7156 10.7183 69.1401 10.1429 68.4329 10.1429H61.4034L60.9921 8.96161C60.8128 8.44677 60.326 8.10083 59.7809 8.10083H53.7654C53.0582 8.10083 52.4828 8.6763 52.4828 9.38349V21.8466C52.4828 22.2702 52.8395 22.6302 53.264 22.6302H64.3448V32.3954C63.3415 32.6708 62.5514 33.4608 62.2759 34.4641H51.7215C51.3226 31.7247 49.9945 29.2068 47.9356 27.3196C45.7068 25.2771 42.8135 24.1522 39.7884 24.1522C36.7292 24.1522 33.8115 25.2993 31.5731 27.3821C29.5489 29.2655 28.2489 31.7561 27.8546 34.464H16.0865C15.8111 33.4607 15.0211 32.6705 14.0176 32.3952V22.63H21.5843H23.8842C24.2025 22.63 24.489 22.4369 24.6084 22.1419L27 16.2313C27.1601 15.8354 27.1134 15.3874 26.8745 15.0332C26.6357 14.679 26.2381 14.4674 25.8109 14.4674H24.6654V11.4255C24.6654 10.7183 24.09 10.1429 23.3826 10.1429H16.3531L15.942 8.96208C15.7629 8.44692 15.2761 8.10083 14.7306 8.10083H8.71527C8.00809 8.10083 7.43262 8.6763 7.43262 9.38349V21.849C7.43262 22.273 7.78965 22.6302 8.21387 22.6302H12.4553V32.3955C11.2028 32.7394 10.2784 33.8852 10.2784 35.2455C10.2784 36.6058 11.2026 37.7516 12.4553 38.0955V53.151H8.71527C8.00809 53.151 7.43262 53.7265 7.43262 54.4336V66.8991C7.43262 67.3232 7.78965 67.6804 8.21387 67.6804H23.8842C24.2025 67.6804 24.489 67.4872 24.6084 67.1921L27 61.2813C27.1601 60.8854 27.1134 60.4374 26.8745 60.0833C26.6357 59.7291 26.2381 59.5175 25.8109 59.5175H24.6654V56.4757C24.6654 55.7685 24.09 55.193 23.3826 55.193H16.3531L15.942 54.0122C15.7629 53.4971 15.2761 53.151 14.7306 53.151H14.0178V38.0955C15.0212 37.82 15.8112 37.03 16.0867 36.0268H25.0525C24.8698 36.1754 24.6917 36.3307 24.5228 36.4994C23.7778 37.2444 23.2167 38.1525 22.8837 39.1466C20.8961 39.8052 19.545 41.6507 19.545 43.7843C19.545 46.4804 21.7382 48.6738 24.4343 48.6738C25.3175 48.6738 26.1615 48.4433 26.9084 48.0021C27.9673 48.8336 29.2664 49.2854 30.6287 49.2854C32.0523 49.2854 33.3979 48.7971 34.4781 47.8988C35.2317 48.3247 36.0353 48.6575 36.8739 48.8913C37.2895 49.0068 37.7204 48.764 37.8361 48.3482C37.9518 47.9325 37.7089 47.5018 37.2931 47.386C36.409 47.1399 35.5711 46.7646 34.8026 46.2707C34.4911 46.0704 34.082 46.1165 33.8226 46.3808C32.9736 47.2463 31.8393 47.723 30.6287 47.723C29.459 47.723 28.3521 47.2735 27.512 46.4572C27.2317 46.1846 26.7929 46.1616 26.4854 46.4029C25.8946 46.8665 25.1854 47.1115 24.4345 47.1115C22.6001 47.1115 21.1076 45.619 21.1076 43.7844C21.1076 42.2255 22.1673 40.8929 23.6846 40.5435C23.9681 40.4782 24.1917 40.261 24.2653 39.9797C24.4996 39.0829 24.9709 38.2616 25.6278 37.6046C26.4498 36.7825 27.4925 36.268 28.6428 36.1165C29.009 36.0682 29.2914 35.7699 29.3196 35.4016C29.7356 29.97 34.3342 25.7152 39.7889 25.7152C42.422 25.7152 44.9406 26.6943 46.8803 28.4719C48.8081 30.2386 50.0021 32.6394 50.2428 35.2318C50.2698 35.5225 50.4565 35.774 50.7273 35.8836C51.9276 36.3702 52.9653 37.2465 53.6493 38.351C53.7996 38.5935 54.0689 38.7351 54.3545 38.7199C56.1693 38.6243 57.7945 39.7765 58.309 41.5205C58.9195 43.59 57.7325 45.7705 55.6628 46.3808C54.7985 46.636 53.9007 46.5893 53.0671 46.2457C52.8028 46.1366 52.5004 46.1807 52.2786 46.3602C51.1746 47.2518 49.8411 47.7229 48.4215 47.7229C47.1786 47.7229 45.9811 47.3532 44.9582 46.6536C44.7159 46.488 44.4017 46.4721 44.1439 46.6122C43.5285 46.9469 42.8711 47.2111 42.1903 47.3974C41.774 47.5111 41.5289 47.9408 41.6426 48.3571C41.7565 48.7732 42.1859 49.0188 42.6023 48.9046C43.2484 48.728 43.8765 48.4913 44.4754 48.199C45.6667 48.9111 47.0214 49.2855 48.4215 49.2855C50.027 49.2855 51.6015 48.7777 52.9032 47.8472C53.9382 48.1746 55.059 48.188 56.105 47.8796C59.0007 47.0254 60.6618 43.9743 59.8076 41.0783C59.1312 38.7855 57.0815 37.2244 54.7304 37.1543C54.4443 36.7482 54.1189 36.3705 53.7611 36.0269H62.2762C62.5517 37.0302 63.3417 37.8204 64.3451 38.0957V55.1932H61.4037L60.9925 54.0119C60.8131 53.4971 60.3264 53.1511 59.7812 53.1511H53.7657C53.0586 53.1511 52.4831 53.7266 52.4831 54.4338V66.8993C52.4831 67.3233 52.8401 67.6805 53.2643 67.6805H68.9346C69.2529 67.6805 69.5395 67.4874 69.6589 67.1922L72.0506 61.2815C72.2107 60.8855 72.164 60.4377 71.9251 60.0835C71.6859 59.7291 71.2882 59.5177 70.861 59.5177ZM63.6218 14.4675H56.2726C55.7473 14.4675 55.2804 14.7822 55.0837 15.2691L54.0453 17.8354V9.66349H59.582L60.1104 11.1811C60.2196 11.495 60.5157 11.7055 60.8482 11.7055H68.1532V15.2488C68.1532 15.6802 68.5029 16.03 68.9345 16.03H70.4462L68.4078 21.0679H54.4231L56.4614 16.03H63.622C64.0536 16.03 64.4032 15.6802 64.4032 15.2488C64.4032 14.8174 64.0532 14.4675 63.6218 14.4675ZM14.5317 9.66349L15.0601 11.1811C15.1693 11.495 15.4654 11.7055 15.7979 11.7055H23.1031V14.4675H11.2225C10.6975 14.4675 10.2307 14.7821 10.0336 15.2686C10.0336 15.2688 10.0334 15.269 10.0334 15.2691L8.99512 17.8352V9.66349H14.5317ZM11.4109 16.03H25.3957L23.3575 21.0679H21.524H9.37277L11.4109 16.03ZM23.3575 66.1179H16.7198H9.37277L11.4109 61.08H25.3957L23.3575 66.1179ZM15.0601 56.2311C15.1693 56.545 15.4654 56.7555 15.7979 56.7555H23.1031V59.5175H11.2225C10.6975 59.5175 10.2307 59.8321 10.0336 60.3186C10.0336 60.3188 10.0334 60.319 10.0334 60.3191L8.99512 62.8852V54.7135H14.5317L15.0601 56.2311ZM13.2365 36.6411C12.467 36.6411 11.8409 36.015 11.8409 35.2455C11.8409 34.476 12.467 33.8499 13.2365 33.8499C14.0062 33.8499 14.6323 34.476 14.6323 35.2455C14.6321 36.0152 14.0062 36.6411 13.2365 36.6411ZM63.7303 35.2455C63.7303 34.476 64.3564 33.8499 65.126 33.8499C65.8957 33.8499 66.5218 34.476 66.5218 35.2455C66.5218 36.015 65.8957 36.6411 65.126 36.6411C64.3564 36.6411 63.7303 36.0152 63.7303 35.2455ZM59.5818 54.7136L60.1103 56.2313C60.2195 56.5452 60.5156 56.7557 60.8481 56.7557H68.1531V59.5177H56.2726C55.7473 59.5177 55.2806 59.8324 55.0837 60.3193L54.0453 62.8855V54.7136H59.5818ZM68.4076 66.1179H62.2485H54.4229L56.4612 61.08H70.446L68.4076 66.1179Z" fill="#091E42"/>
<path d="M43.6059 14.413C43.87 14.413 44.1276 14.2791 44.2745 14.0368C44.4984 13.6679 44.3808 13.1874 44.0119 12.9637C42.7395 12.1918 41.2792 11.7838 39.7883 11.7838C38.2973 11.7838 36.8367 12.1918 35.5645 12.9637C35.1958 13.1876 35.0781 13.6679 35.3019 14.0368C35.5256 14.4057 36.0059 14.5237 36.375 14.2996C37.4028 13.676 38.5831 13.3463 39.7883 13.3463C40.9933 13.3463 42.1736 13.6758 43.2014 14.2996C43.3281 14.3763 43.4678 14.413 43.6059 14.413Z" fill="#091E42"/>
<path d="M39.7886 14.9336C39.0723 14.9336 38.3705 15.1297 37.759 15.5006C37.3901 15.7244 37.2725 16.2048 37.4961 16.5737C37.7201 16.9427 38.2008 17.0605 38.5692 16.8366C39.3037 16.3911 40.2733 16.3911 41.0078 16.8366C41.1345 16.9134 41.2742 16.95 41.4122 16.95C41.6762 16.95 41.934 16.8161 42.0809 16.5737C42.3047 16.2048 42.187 15.7244 41.8179 15.5006C41.2069 15.1297 40.5048 14.9336 39.7886 14.9336Z" fill="#091E42"/>
<path d="M34.3449 11.6301C35.9841 10.6358 37.8663 10.11 39.7878 10.11C41.7094 10.11 43.5914 10.6356 45.2306 11.6301C45.3572 11.707 45.4971 11.7436 45.6352 11.7436C45.8992 11.7436 46.1569 11.6097 46.3038 11.3673C46.5277 10.9984 46.41 10.518 46.0411 10.2942C44.1574 9.15155 41.995 8.54749 39.7878 8.54749C37.5803 8.54749 35.418 9.15155 33.5342 10.2942C33.1655 10.518 33.0478 10.9984 33.2716 11.3673C33.4955 11.7362 33.976 11.8542 34.3449 11.6301Z" fill="#091E42"/>
<g opacity="0.1">
<g opacity="0.1">
<path opacity="0.1" d="M43.6049 18.6316C43.467 18.6316 43.3271 18.5951 43.2006 18.5182C42.1726 17.8946 40.9924 17.5651 39.7873 17.5651C38.5823 17.5651 37.402 17.8946 36.374 18.5182C36.0051 18.7421 35.5246 18.6244 35.3009 18.2554C35.0771 17.8865 35.1948 17.406 35.5637 17.1823C36.836 16.4105 38.2965 16.0026 39.7873 16.0026C41.2782 16.0026 42.7387 16.4105 44.0109 17.1823C44.3798 17.406 44.4974 17.8865 44.2737 18.2554C44.1268 18.4977 43.869 18.6316 43.6049 18.6316Z" fill="#091E42"/>
</g>
<g opacity="0.1">
<path opacity="0.1" d="M41.4113 21.1686C41.2734 21.1686 41.1335 21.132 41.0069 21.0552C40.2729 20.6098 39.3026 20.6098 38.5683 21.0552C38.1994 21.2791 37.719 21.1614 37.4952 20.7923C37.2715 20.4234 37.3891 19.943 37.758 19.7192C38.3696 19.3483 39.0713 19.1523 39.7877 19.1523C40.504 19.1523 41.2059 19.3484 41.8174 19.7192C42.1863 19.943 42.304 20.4234 42.0802 20.7923C41.933 21.0347 41.6754 21.1686 41.4113 21.1686Z" fill="#091E42"/>
</g>
<g opacity="0.1">
<path opacity="0.1" d="M45.635 15.9622C45.4971 15.9622 45.3572 15.9256 45.2307 15.8488C43.5914 14.8544 41.7092 14.3286 39.7877 14.3286C37.8661 14.3286 35.9839 14.8542 34.3447 15.8488C33.9756 16.0727 33.4952 15.955 33.2716 15.586C33.0478 15.2171 33.1655 14.7366 33.5344 14.5128C35.418 13.3702 37.5805 12.7661 39.7877 12.7661C41.995 12.7661 44.1574 13.3702 46.041 14.5128C46.4099 14.7366 46.5275 15.2171 46.3038 15.586C46.1569 15.8283 45.8991 15.9622 45.635 15.9622Z" fill="#091E42"/>
</g>
</g>
<path d="M45.6874 61.825C44.5663 61.825 43.6543 60.913 43.6543 59.7919C43.6543 58.6708 44.5663 57.7588 45.6874 57.7588C46.8085 57.7588 47.7205 58.6708 47.7205 59.7919C47.7205 60.913 46.8084 61.825 45.6874 61.825ZM45.6874 59.3213C45.4279 59.3213 45.2168 59.5324 45.2168 59.7919C45.2168 60.0514 45.4279 60.2625 45.6874 60.2625C45.947 60.2625 46.158 60.0514 46.158 59.7919C46.1579 59.5324 45.947 59.3213 45.6874 59.3213Z" fill="#0052CC"/>
<path d="M8.21477 32.1707C7.09367 32.1707 6.18164 31.2587 6.18164 30.1376C6.18164 29.0165 7.09367 28.1045 8.21477 28.1045C9.33586 28.1045 10.2479 29.0165 10.2479 30.1376C10.2479 31.2587 9.33586 32.1707 8.21477 32.1707ZM8.21477 29.667C7.95523 29.667 7.74414 29.8781 7.74414 30.1376C7.74414 30.3972 7.95523 30.6082 8.21477 30.6082C8.4743 30.6082 8.68539 30.3972 8.68539 30.1376C8.68539 29.8781 8.4743 29.667 8.21477 29.667Z" fill="#0052CC"/>
<path d="M39.789 68.8717C38.6679 68.8717 37.7559 67.9596 37.7559 66.8385C37.7559 65.7175 38.6679 64.8054 39.789 64.8054C40.9101 64.8054 41.8221 65.7175 41.8221 66.8385C41.8221 67.9596 40.9101 68.8717 39.789 68.8717ZM39.789 66.3679C39.5295 66.3679 39.3184 66.579 39.3184 66.8385C39.3184 67.0981 39.5295 67.3092 39.789 67.3092C40.0485 67.3092 40.2596 67.0981 40.2596 66.8385C40.2596 66.579 40.0487 66.3679 39.789 66.3679Z" fill="#0052CC"/>
<path d="M73.0702 32.4924C72.863 32.4924 72.6643 32.41 72.5178 32.2636L70.7533 30.4993C70.6068 30.3527 70.5244 30.1541 70.5244 29.9467C70.5244 29.7396 70.6066 29.5408 70.7533 29.3942L72.5178 27.6299C72.6644 27.4833 72.863 27.4011 73.0702 27.4011C73.2774 27.4011 73.4761 27.4835 73.6225 27.6299L75.3869 29.3942C75.6921 29.6994 75.6921 30.1941 75.3869 30.4991L73.6225 32.2635C73.476 32.41 73.2774 32.4924 73.0702 32.4924ZM72.4105 29.9466L73.0702 30.6061L73.7297 29.9466L73.0702 29.2871L72.4105 29.9466Z" fill="#0052CC"/>
<path d="M6.93051 51.1043C6.72332 51.1043 6.52457 51.022 6.37816 50.8756L4.61363 49.1111C4.30848 48.8059 4.30848 48.3112 4.61363 48.0062L6.37801 46.2417C6.52457 46.0951 6.72316 46.0129 6.93035 46.0129C7.13754 46.0129 7.33629 46.0953 7.4827 46.2417L9.24723 48.0062C9.39379 48.1528 9.47613 48.3514 9.47613 48.5587C9.47613 48.7661 9.39395 48.9647 9.24723 49.1112L7.4827 50.8756C7.33629 51.022 7.1377 51.1043 6.93051 51.1043ZM6.27098 48.5586L6.93051 49.2181L7.5902 48.5586L6.93051 47.899L6.27098 48.5586Z" fill="#0052CC"/>
<defs>
<linearGradient id="paint0_linear" x1="93.7322" y1="2.85376" x2="9.98219" y2="68.4786" gradientUnits="userSpaceOnUse">
<stop stop-color="#D2E4FF" stop-opacity="0"/>
<stop offset="1" stop-color="#B7D4FF"/>
</linearGradient>
</defs>
</svg>
