<svg width="40" height="40" viewBox="0 0 40 40" fill="none" xmlns="http://www.w3.org/2000/svg">
<g clip-path="url(#clip0)">
<path d="M39.9813 19.9794C39.9813 30.988 31.0578 39.9115 20.0489 39.9115C9.04111 39.9115 0.11673 30.988 0.11673 19.9794C0.11673 8.97162 9.04111 0.0472412 20.0489 0.0472412C31.0577 0.0472412 39.9813 8.97162 39.9813 19.9794Z" fill="#1A1918"/>
<path d="M20.385 12.2233L25.543 24.9539L17.7519 18.8167L20.385 12.2234V12.2233ZM29.5481 27.8866L21.6141 8.7925C21.3875 8.24188 20.9347 7.95032 20.385 7.95032C19.8342 7.95032 19.3484 8.24188 19.1219 8.7925L10.4138 29.7363H13.3927L16.8399 21.1011L27.1273 29.412C27.5409 29.7466 27.8395 29.898 28.2275 29.898C29.0047 29.898 29.6841 29.3152 29.6841 28.4744C29.6841 28.3375 29.6356 28.1202 29.5481 27.8866Z" fill="white"/>
</g>
<defs>
<clipPath id="clip0">
<rect width="40" height="40" fill="white" transform="translate(0.000244141)"/>
</clipPath>
</defs>
</svg>
