<svg width="51" height="29" viewBox="0 0 51 29" fill="none" xmlns="http://www.w3.org/2000/svg">
<g clip-path="url(#clip0)">
<path d="M29.3861 8.96706H33.8696V13.5504H36.1365C37.1836 13.5504 38.2602 13.3639 39.2516 13.0278C39.7389 12.8627 40.2857 12.6329 40.7661 12.3437C40.1332 11.5175 39.81 10.4739 39.7151 9.44549C39.5857 8.04667 39.8681 6.22588 40.8147 5.13098L41.2861 4.58588L41.8477 5.03726C43.2616 6.17333 44.4508 7.76078 44.6604 9.5702C46.363 9.06941 48.362 9.18784 49.8628 10.0541L50.4785 10.4092L50.1544 11.0418C48.8851 13.519 46.2316 14.2863 43.6375 14.1504C39.7557 23.8188 31.3046 28.3961 21.0577 28.3961C15.7636 28.3961 10.9067 26.4171 8.14083 21.7202C7.97867 21.4284 7.83985 21.1233 7.69259 20.8237C6.75769 18.7563 6.4471 16.4914 6.65769 14.2282L6.72102 13.5504H10.5551V8.96706H15.0387V4.48353H24.0057V0H29.3861V8.96706Z" fill="#394D54"/>
<path d="M24.7529 -3.73633H28.6388V0.149359H24.7529V-3.73633Z" fill="#00ACD3"/>
<path d="M24.7529 0.746948H28.6388V4.63303H24.7529V0.746948Z" fill="#20C2EF"/>
<path d="M43.912 10.6627C44.2125 8.32622 42.4641 6.49112 41.3798 5.61975C40.1302 7.06446 39.9361 10.8507 41.8965 12.4448C40.8023 13.4166 38.497 14.2974 36.1365 14.2974H7.13352C6.9041 16.7615 7.13352 28.6274 7.13352 28.6274H49.6825L49.489 10.7011C47.6463 9.63759 45.2765 9.97681 43.912 10.6625" fill="#17B5EB"/>
<path d="M7.13382 17.4509V28.6274H49.6828V17.4509" fill="black" fill-opacity="0.17"/>
<path d="M22.2781 27.6255C19.6232 26.3657 18.1662 24.653 17.3554 22.7836L9.2905 23.1373L13.4081 28.6275L22.2781 27.6255Z" fill="#D4EDF1"/>
<path d="M44.0946 10.5761V10.582C40.0042 15.8545 34.1372 20.4604 27.8385 22.88C22.2199 25.0383 17.3211 25.0487 13.9415 23.3149C13.5775 23.1095 13.2207 22.8814 12.863 22.6655C10.3852 20.9338 8.98951 18.0691 9.10676 14.2953H7.13382V28.6275H49.6828V9.80396H44.7809L44.0946 10.5761Z" fill="black" fill-opacity="0.085"/>
<path d="M9.41321 22.9472C12.1907 23.0994 15.1548 23.1266 17.7405 22.316" stroke="#394D54" stroke-width="3.4" stroke-linecap="round"/>
<path d="M20.5004 20.9726C20.5023 21.1146 20.476 21.2555 20.423 21.3872C20.37 21.5189 20.2913 21.6388 20.1916 21.7399C20.0919 21.841 19.973 21.9212 19.842 21.976C19.711 22.0308 19.5705 22.0589 19.4285 22.0589C19.2865 22.0589 19.1459 22.0307 19.0149 21.9759C18.8839 21.9211 18.7651 21.8408 18.6654 21.7398C18.5657 21.6387 18.487 21.5188 18.434 21.387C18.3811 21.2553 18.3548 21.1144 18.3567 20.9724C18.3605 20.6906 18.4751 20.4217 18.6757 20.2238C18.8763 20.0259 19.1468 19.9149 19.4286 19.9149C19.7104 19.9149 19.9808 20.0259 20.1814 20.2238C20.382 20.4217 20.4966 20.6906 20.5004 20.9724V20.9726Z" fill="#D4EDF1"/>
<path d="M19.7065 20.2565C19.6469 20.2911 19.6004 20.3443 19.5742 20.4079C19.5479 20.4715 19.5433 20.542 19.5611 20.6085C19.5789 20.675 19.6181 20.7338 19.6727 20.7758C19.7272 20.8178 19.7941 20.8406 19.8629 20.8408C19.9816 20.8408 20.0845 20.7751 20.1378 20.6779C20.2056 20.8413 20.2148 21.023 20.164 21.1924C20.1133 21.3619 20.0055 21.5085 19.859 21.6077C19.7126 21.7068 19.5363 21.7524 19.3602 21.7366C19.184 21.7208 19.0187 21.6446 18.8922 21.521C18.7657 21.3974 18.6858 21.2339 18.6659 21.0581C18.6461 20.8823 18.6876 20.7051 18.7833 20.5564C18.8791 20.4077 19.0232 20.2966 19.1914 20.2419C19.3596 20.1872 19.5416 20.1923 19.7065 20.2563V20.2565ZM0.467041 17.6789H50.3351C49.2494 17.4036 46.8998 17.0314 47.2872 15.6083C45.3127 17.893 40.5514 17.2112 39.3496 16.0847C38.0116 18.0255 30.2214 17.2877 29.678 15.7757C28.0004 17.7446 22.8021 17.7446 21.1245 15.7757C20.5808 17.2877 12.7908 18.0255 11.4525 16.0846C10.251 17.2112 5.48979 17.893 3.51528 15.6085C3.90273 17.0314 1.55312 17.4036 0.467041 17.6791" fill="#394D54"/>
</g>
<defs>
<clipPath id="clip0">
<rect width="50" height="28.4314" fill="white" transform="translate(0.467041)"/>
</clipPath>
</defs>
</svg>
