<svg width="41" height="41" viewBox="0 0 41 41" fill="none" xmlns="http://www.w3.org/2000/svg">
<g clip-path="url(#clip0)">
<path d="M40.6235 21.3892C40.6278 19.7603 40.1285 18.1699 39.194 16.8357C38.2595 15.5015 36.9354 14.4888 35.4031 13.9362C35.8995 11.3974 35.513 8.76522 34.3077 6.47632C33.1025 4.18743 31.1509 2.3794 28.7767 1.3522C26.4026 0.324992 23.7486 0.14036 21.2551 0.82893C18.7616 1.5175 16.5784 3.03789 15.0678 5.13784C14.0326 4.33706 12.7647 3.89524 11.456 3.87923C10.1473 3.86323 8.86903 4.2739 7.81453 5.04912C6.76004 5.82434 5.98672 6.92192 5.61159 8.1758C5.23646 9.42968 5.27993 10.7716 5.73542 11.9986C4.19818 12.5581 2.8692 13.575 1.92728 14.9125C0.985353 16.25 0.475694 17.8439 0.466872 19.4798C0.4614 21.1158 0.963424 22.7132 1.90377 24.052C2.84412 25.3908 4.17651 26.405 5.71735 26.9549C5.5835 27.6659 5.51628 28.3879 5.51657 29.1113C5.51417 31.5075 6.27282 33.8424 7.68312 35.7795C9.09343 37.7167 11.0825 39.1558 13.3635 39.8895C15.6445 40.6232 18.0996 40.6135 20.3748 39.8618C22.65 39.1101 24.6276 37.6553 26.0225 35.7071C27.0561 36.5052 28.3211 36.9458 29.6269 36.9625C30.9327 36.9793 32.2085 36.5712 33.2622 35.7998C34.3159 35.0284 35.0903 33.9354 35.4689 32.6856C35.8474 31.4358 35.8095 30.0968 35.361 28.8704C36.8971 28.3099 38.2248 27.2926 39.1656 25.9552C40.1063 24.6178 40.6151 23.0244 40.6235 21.3892Z" fill="white"/>
<path d="M16.2548 17.6586L25.041 21.6743L33.9076 13.906C34.036 13.2648 34.0999 12.6123 34.0983 11.9584C34.0992 9.8419 33.4223 7.78073 32.1668 6.0768C30.9114 4.37287 29.1433 3.11571 27.1216 2.48946C25.0998 1.86321 22.9307 1.90078 20.9319 2.59666C18.933 3.29254 17.2095 4.61017 16.0138 6.35656L14.5401 14.0064L16.2548 17.6586Z" fill="#FEC514"/>
<path d="M7.1591 26.9629C7.02711 27.6139 6.95986 28.2763 6.95831 28.9406C6.95778 31.0653 7.63849 33.1343 8.90048 34.8437C10.1625 36.5531 11.9393 37.8129 13.97 38.438C16.0007 39.0632 18.1784 39.0208 20.1832 38.3172C22.1881 37.6135 23.9146 36.2856 25.1091 34.5284L26.5728 26.8986L24.6212 23.1661L15.7988 19.1504L7.1591 26.9629Z" fill="#00BFB3"/>
<path d="M7.10308 11.7576L13.1266 13.1792L14.4477 6.33248C13.6285 5.71473 12.6316 5.37818 11.6056 5.37299C10.5796 5.36779 9.57932 5.69423 8.75388 6.30366C7.92845 6.91309 7.32199 7.77289 7.02488 8.75497C6.72777 9.73704 6.7559 10.7888 7.10509 11.7536" fill="#F04E98"/>
<path d="M6.58056 13.1912C5.27799 13.6204 4.14024 14.4424 3.32356 15.5443C2.50688 16.6461 2.05131 17.9737 2.01941 19.3448C1.9875 20.7159 2.38084 22.0633 3.14539 23.2019C3.90995 24.3405 5.00823 25.2146 6.28943 25.704L14.7384 18.0742L13.1883 14.7613L6.58056 13.1912Z" fill="#1BA9F5"/>
<path d="M26.6612 34.5265C27.4823 35.1613 28.4905 35.5066 29.5284 35.5083C30.2931 35.5061 31.046 35.3197 31.7234 34.9649C32.4008 34.6101 32.9828 34.0973 33.42 33.4699C33.8573 32.8426 34.137 32.1192 34.2355 31.3608C34.334 30.6025 34.2483 29.8316 33.9858 29.1134L27.9623 27.7079L26.6612 34.5265Z" fill="#93C90E"/>
<path d="M27.8841 26.1317L34.51 27.6797C35.8324 27.2344 36.9828 26.3874 37.8006 25.2568C38.6184 24.1262 39.0628 22.7684 39.0718 21.3731C39.0712 20.0282 38.6614 18.7153 37.8968 17.6089C37.1321 16.5025 36.0489 15.655 34.7911 15.179L26.1273 22.7686L27.8841 26.1317Z" fill="#0077CC"/>
</g>
<defs>
<clipPath id="clip0">
<rect width="40.1566" height="40" fill="white" transform="translate(0.467041 0.431396)"/>
</clipPath>
</defs>
</svg>
