<svg width="38" height="40" viewBox="0 0 38 40" fill="none" xmlns="http://www.w3.org/2000/svg">
<g clip-path="url(#clip0)">
<path d="M37.0279 17.6022C36.962 16.9319 36.8521 16.1628 36.6323 15.3058C36.4126 14.4597 36.083 13.5258 35.5995 12.5589C35.1161 11.5919 34.4898 10.5921 33.6767 9.61417C33.358 9.22961 33.0064 8.85603 32.6328 8.49344C33.1932 6.26295 31.9516 4.32913 31.9516 4.32913C29.809 4.19727 28.4466 4.99937 27.9411 5.36196C27.8532 5.329 27.7763 5.28505 27.6884 5.25209C27.3258 5.10925 26.9522 4.96641 26.5567 4.84554C26.1721 4.72468 25.7766 4.6148 25.37 4.51592C24.9635 4.41703 24.5569 4.34011 24.1394 4.27419C24.0625 4.2632 23.9966 4.25221 23.9197 4.24122C22.9857 1.25259 20.3047 0 20.3047 0C17.3051 1.90086 16.7447 4.55987 16.7447 4.55987C16.7447 4.55987 16.7337 4.6148 16.7118 4.71369C16.547 4.75764 16.3821 4.81258 16.2173 4.85653C15.9866 4.92246 15.7558 5.01036 15.5361 5.09826C15.3054 5.18616 15.0856 5.27406 14.8549 5.37295C14.4044 5.57073 13.9539 5.79048 13.5144 6.03221C13.0859 6.27394 12.6683 6.53764 12.2618 6.81233C12.2068 6.79035 12.1519 6.76838 12.1519 6.76838C7.99858 5.18616 4.31773 7.08702 4.31773 7.08702C3.97711 11.504 5.97686 14.2839 6.37241 14.7893C6.27352 15.064 6.18562 15.3387 6.09772 15.6134C5.79007 16.6133 5.55933 17.6351 5.41649 18.7009C5.39451 18.8548 5.37254 19.0086 5.36155 19.1624C1.51588 21.0633 0.384155 24.9419 0.384155 24.9419C3.58156 28.6228 7.31735 28.8535 7.31735 28.8535L7.32834 28.8425C7.80081 29.6886 8.35019 30.4907 8.96549 31.2488C9.2292 31.5675 9.4929 31.8641 9.77858 32.1608C8.61389 35.501 9.94339 38.2699 9.94339 38.2699C13.5034 38.4018 15.8438 36.7097 16.3382 36.3251C16.6898 36.446 17.0524 36.5558 17.415 36.6437C18.5137 36.9294 19.6345 37.0942 20.7552 37.1382C21.0299 37.1492 21.3156 37.1602 21.5903 37.1492H21.7221H21.81H21.9858L22.1616 37.1382V37.1492C23.8427 39.5445 26.7874 39.8851 26.7874 39.8851C28.8861 37.6766 29.0069 35.4791 29.0069 35.0066C29.0069 35.0066 29.0069 34.9956 29.0069 34.9736C29.0069 34.9297 29.0069 34.9077 29.0069 34.9077C29.0069 34.8747 29.0069 34.8418 29.0069 34.8088C29.4464 34.5012 29.864 34.1715 30.2595 33.8089C31.0946 33.0508 31.8308 32.1828 32.4461 31.2488C32.501 31.1609 32.5559 31.073 32.6109 30.9851C34.9842 31.117 36.6653 29.5128 36.6653 29.5128C36.2698 27.0406 34.8633 25.8319 34.5667 25.6012C34.5667 25.6012 34.5557 25.5902 34.5337 25.5792C34.5117 25.5682 34.5117 25.5572 34.5117 25.5572C34.5007 25.5462 34.4788 25.5352 34.4568 25.5243C34.4678 25.3704 34.4788 25.2276 34.4898 25.0738C34.5117 24.8101 34.5117 24.5354 34.5117 24.2717V24.0739V23.975V23.9201C34.5117 23.8541 34.5117 23.8761 34.5117 23.8541L34.5007 23.6893L34.4898 23.4696C34.4898 23.3927 34.4788 23.3267 34.4678 23.2608C34.4568 23.1949 34.4568 23.118 34.4458 23.052L34.4238 22.8433L34.3909 22.6345C34.3469 22.3598 34.303 22.0961 34.237 21.8214C33.9843 20.7556 33.5668 19.7448 33.0284 18.8328C32.479 17.9208 31.7978 17.1187 31.0177 16.4375C30.2485 15.7563 29.3805 15.2069 28.4795 14.8003C27.5676 14.3938 26.6226 14.1301 25.6777 14.0092C25.2052 13.9433 24.7327 13.9213 24.2603 13.9323H24.0845H24.0405C24.0295 13.9323 23.9746 13.9323 23.9856 13.9323H23.9087L23.7329 13.9433C23.6669 13.9433 23.601 13.9543 23.5461 13.9543C23.3043 13.9763 23.0626 14.0092 22.8319 14.0532C21.8869 14.229 20.9969 14.5696 20.2168 15.0421C19.4367 15.5145 18.7555 16.0969 18.2061 16.7561C17.6567 17.4154 17.2282 18.1516 16.9315 18.9097C16.6349 19.6679 16.47 20.459 16.4261 21.2171C16.4151 21.4039 16.4151 21.6017 16.4151 21.7885C16.4151 21.8324 16.4151 21.8874 16.4151 21.9313L16.4261 22.0851C16.4371 22.173 16.4371 22.2719 16.4481 22.3598C16.481 22.7444 16.5579 23.118 16.6568 23.4696C16.8656 24.1838 17.1952 24.832 17.6018 25.3814C18.0083 25.9308 18.5028 26.3813 19.0192 26.7439C19.5356 27.0955 20.096 27.3482 20.6453 27.513C21.1947 27.6778 21.7441 27.7438 22.2605 27.7438C22.3265 27.7438 22.3924 27.7438 22.4473 27.7438C22.4803 27.7438 22.5132 27.7438 22.5462 27.7438C22.5792 27.7438 22.6121 27.7438 22.6451 27.7328C22.7 27.7328 22.755 27.7218 22.8099 27.7218C22.8209 27.7218 22.8429 27.7218 22.8539 27.7108L22.9088 27.6998C22.9418 27.6998 22.9747 27.6888 23.0077 27.6888C23.0736 27.6778 23.1285 27.6668 23.1945 27.6559C23.2604 27.6449 23.3153 27.6339 23.3703 27.6119C23.4911 27.5899 23.601 27.546 23.7109 27.513C23.9306 27.4361 24.1504 27.3482 24.3372 27.2493C24.535 27.1504 24.7108 27.0296 24.8866 26.9197C24.9305 26.8867 24.9855 26.8538 25.0294 26.8098C25.2052 26.667 25.2382 26.4033 25.0953 26.2275C24.9745 26.0736 24.7547 26.0297 24.5789 26.1286C24.535 26.1506 24.491 26.1725 24.4471 26.1945C24.2932 26.2714 24.1394 26.3373 23.9746 26.3923C23.8098 26.4472 23.634 26.4912 23.4582 26.5241C23.3703 26.5351 23.2824 26.5461 23.1835 26.5571C23.1395 26.5571 23.0956 26.5681 23.0406 26.5681C22.9967 26.5681 22.9418 26.5681 22.9088 26.5681C22.8648 26.5681 22.8209 26.5681 22.7769 26.5681C22.722 26.5681 22.6671 26.5681 22.6121 26.5571C22.6121 26.5571 22.5792 26.5571 22.6011 26.5571H22.5792H22.5462C22.5242 26.5571 22.4913 26.5571 22.4693 26.5461C22.4144 26.5351 22.3704 26.5351 22.3155 26.5241C21.9089 26.4692 21.5024 26.3483 21.1178 26.1725C20.7223 25.9967 20.3487 25.755 20.0081 25.4473C19.6674 25.1397 19.3708 24.7771 19.14 24.3596C18.9093 23.942 18.7445 23.4806 18.6676 22.9971C18.6346 22.7554 18.6126 22.5027 18.6236 22.2609C18.6236 22.195 18.6346 22.1291 18.6346 22.0632C18.6346 22.0851 18.6346 22.0522 18.6346 22.0522V22.0302V21.9753C18.6346 21.9423 18.6456 21.9093 18.6456 21.8764C18.6566 21.7445 18.6786 21.6127 18.7005 21.4808C18.8873 20.426 19.4147 19.3932 20.2278 18.613C20.4366 18.4153 20.6563 18.2395 20.8871 18.0746C21.1178 17.9098 21.3705 17.767 21.6342 17.6461C21.8979 17.5253 22.1616 17.4264 22.4473 17.3495C22.722 17.2726 23.0077 17.2286 23.3043 17.1956C23.4472 17.1847 23.59 17.1737 23.7439 17.1737C23.7878 17.1737 23.8098 17.1737 23.8427 17.1737H23.9636H24.0405C24.0735 17.1737 24.0405 17.1737 24.0515 17.1737H24.0845L24.2053 17.1847C24.524 17.2066 24.8316 17.2506 25.1393 17.3275C25.7546 17.4593 26.3589 17.6901 26.9193 17.9977C28.04 18.624 28.9959 19.5909 29.5783 20.7556C29.875 21.338 30.0837 21.9643 30.1826 22.6125C30.2046 22.7774 30.2266 22.9422 30.2375 23.107L30.2485 23.2278L30.2595 23.3487C30.2595 23.3927 30.2595 23.4366 30.2595 23.4696C30.2595 23.5135 30.2595 23.5575 30.2595 23.5904V23.7003V23.8212C30.2595 23.8981 30.2485 24.0299 30.2485 24.1069C30.2375 24.2827 30.2156 24.4695 30.1936 24.6453C30.1716 24.8211 30.1387 24.9969 30.1057 25.1727C30.0727 25.3485 30.0288 25.5243 29.9848 25.6891C29.8969 26.0297 29.7871 26.3703 29.6552 26.7109C29.3915 27.3702 29.0399 28.0075 28.6224 28.5898C27.7763 29.7545 26.6226 30.6994 25.3041 31.3038C24.6448 31.6004 23.9526 31.8202 23.2384 31.9301C22.8868 31.996 22.5242 32.0289 22.1616 32.0399H22.0957H22.0408H21.9199H21.7441H21.6562C21.7002 32.0399 21.6452 32.0399 21.6452 32.0399H21.6123C21.4145 32.0399 21.2277 32.0289 21.0299 32.007C20.2608 31.952 19.5026 31.8092 18.7555 31.6004C18.0193 31.3917 17.3051 31.095 16.6239 30.7434C15.2724 30.0182 14.0528 29.0293 13.1078 27.8317C12.6354 27.2383 12.2178 26.5901 11.8772 25.9198C11.5366 25.2496 11.2619 24.5354 11.0641 23.8212C10.8664 23.096 10.7455 22.3598 10.6906 21.6127L10.6796 21.4698V21.4369V21.4039V21.338V21.2171V21.1841V21.1402V21.0523V20.8765V20.8435C10.6796 20.8435 10.6796 20.8545 10.6796 20.8325V20.7666C10.6796 20.6787 10.6796 20.5798 10.6796 20.4919C10.6906 20.1293 10.7235 19.7448 10.7675 19.3712C10.8114 18.9976 10.8773 18.613 10.9543 18.2395C11.0312 17.8659 11.1191 17.4923 11.2289 17.1187C11.4377 16.3826 11.7014 15.6684 12.0091 14.9981C12.6354 13.6576 13.4484 12.46 14.4263 11.504C14.6681 11.2623 14.9208 11.0426 15.1845 10.8228C15.4482 10.614 15.7229 10.4163 16.0086 10.2295C16.2833 10.0427 16.5799 9.87788 16.8766 9.72405C17.0194 9.64714 17.1733 9.57023 17.3271 9.5043C17.404 9.47134 17.4809 9.43837 17.5578 9.40541C17.6347 9.37245 17.7116 9.33949 17.7886 9.30652C18.0962 9.17467 18.4149 9.06479 18.7445 8.96591C18.8214 8.94393 18.9093 8.92196 18.9862 8.88899C19.0631 8.86702 19.151 8.84504 19.2279 8.82307C19.3928 8.77912 19.5576 8.73517 19.7224 8.7022C19.7993 8.68023 19.8872 8.66924 19.9751 8.64726C20.063 8.62529 20.1399 8.6143 20.2278 8.59233C20.3157 8.58134 20.3926 8.55936 20.4805 8.54838L20.6014 8.5264L20.7332 8.50443C20.8211 8.49344 20.8981 8.48245 20.986 8.47146C21.0849 8.46047 21.1728 8.44949 21.2716 8.4385C21.3486 8.42751 21.4804 8.41652 21.5573 8.40554C21.6123 8.39455 21.6782 8.39455 21.7331 8.38356L21.854 8.37257L21.9089 8.36159H21.9748C22.0737 8.3506 22.1616 8.3506 22.2605 8.33961L22.4034 8.32862C22.4034 8.32862 22.4583 8.32862 22.4144 8.32862H22.4473H22.5132C22.5902 8.32862 22.6781 8.31764 22.755 8.31764C23.0736 8.30665 23.4032 8.30665 23.7219 8.31764C24.3592 8.33961 24.9855 8.41652 25.5898 8.5264C26.8094 8.75714 27.9521 9.14171 28.9959 9.65813C30.0398 10.1636 30.9627 10.7899 31.7758 11.4711C31.8308 11.515 31.8747 11.559 31.9296 11.6029C31.9736 11.6469 32.0285 11.6908 32.0725 11.7348C32.1714 11.8227 32.2593 11.9106 32.3582 11.9985C32.457 12.0864 32.5449 12.1743 32.6328 12.2622C32.7207 12.3501 32.8086 12.438 32.8965 12.5369C33.2372 12.8995 33.5558 13.2621 33.8415 13.6356C34.4128 14.3718 34.8743 15.119 35.2369 15.8222C35.2589 15.8661 35.2809 15.9101 35.3028 15.954C35.3248 15.998 35.3468 16.0419 35.3688 16.0859C35.4127 16.1738 35.4567 16.2617 35.4896 16.3496C35.5336 16.4375 35.5665 16.5144 35.6105 16.6023C35.6435 16.6902 35.6874 16.7671 35.7204 16.855C35.8522 17.1847 35.9841 17.5033 36.083 17.8C36.2478 18.2834 36.3686 18.7119 36.4675 19.0855C36.5005 19.2393 36.6433 19.3382 36.7972 19.3163C36.962 19.3053 37.0828 19.1734 37.0828 19.0086C37.0938 18.613 37.0828 18.1406 37.0279 17.6022Z" fill="url(#paint0_linear)"/>
</g>
<defs>
<linearGradient id="paint0_linear" x1="18.7335" y1="48.8394" x2="18.7335" y2="12.4198" gradientUnits="userSpaceOnUse">
<stop stop-color="#FFF100"/>
<stop offset="1" stop-color="#F05A28"/>
</linearGradient>
<clipPath id="clip0">
<rect width="36.7025" height="40" fill="white" transform="translate(0.384155)"/>
</clipPath>
</defs>
</svg>
