<svg width="30" height="40" viewBox="0 0 30 40" fill="none" xmlns="http://www.w3.org/2000/svg">
<g clip-path="url(#clip0)">
<path fill-rule="evenodd" clip-rule="evenodd" d="M28.8642 19.2846C28.8642 27.2059 22.5862 33.6274 14.8417 33.6274C7.09751 33.6274 0.819427 27.2059 0.819427 19.2846C0.819427 11.3631 7.09763 4.94153 14.8417 4.94153C22.5862 4.94153 28.8642 11.3631 28.8642 19.2846Z" fill="#D33833"/>
<path d="M1.3908 22.8368C1.3908 22.8368 0.375667 7.87961 14.1578 7.45217L13.1963 5.84961L5.71772 8.36038L3.58118 10.8176L1.71144 14.3968L0.642975 18.5635L0.963488 21.3411" fill="#EF3D3A"/>
<path d="M5.238 9.50008C2.77775 12.0174 1.25531 15.493 1.25531 19.3382C1.25531 23.1824 2.77775 26.6584 5.238 29.1753C7.69954 31.692 11.0917 33.2452 14.842 33.2452C18.5924 33.2452 21.9848 31.6921 24.4461 29.1752C26.9061 26.6584 28.4289 23.1823 28.4289 19.338C28.4289 15.4932 26.9061 12.0175 24.4461 9.50008C21.9848 6.9838 18.5922 5.43072 14.842 5.43047C11.0917 5.43072 7.69954 6.9838 5.23813 9.50008H5.238ZM4.61531 29.7841C2.00057 27.1102 0.384155 23.4146 0.384155 19.3382C0.384155 15.261 2.00057 11.5659 4.61531 8.89162C7.22941 6.21688 10.8479 4.55906 14.842 4.55957C18.8361 4.55906 22.4549 6.21688 25.0686 8.89162C27.6835 11.5659 29.3002 15.2614 29.2999 19.3382C29.3002 23.4146 27.6835 27.1101 25.0686 29.7841C22.4551 32.4587 18.8361 34.1162 14.842 34.1162C10.8479 34.1162 7.22941 32.4585 4.61531 29.7842" fill="#231F20"/>
<path fill-rule="evenodd" clip-rule="evenodd" d="M20.7453 19.3641L18.6084 19.6846L15.7238 20.0052L13.854 20.0585L12.0379 20.0052L10.6489 19.5777L9.42033 18.2423L8.45879 15.518L8.24507 14.9303L6.96302 14.5031L6.2152 13.2744L5.68097 11.5116L6.26866 9.96234L7.65751 9.48157L8.7793 10.0159L9.31353 11.1911L9.95456 11.0841L10.1681 10.8172L9.95456 9.58849L9.9011 8.03926L10.2216 5.9026L10.209 4.68208L11.1831 3.1249L12.8925 1.89619L15.884 0.614136L19.196 1.0949L22.0806 3.17824L23.4161 5.3149L24.2708 6.86414L24.4844 10.7103L23.8434 14.0223L22.6681 16.9603L21.5464 18.5095" fill="#F0D6B7"/>
<path fill-rule="evenodd" clip-rule="evenodd" d="M18.9281 28.6056L11.2891 28.9261V30.2081L11.9301 34.6953L11.6096 35.0693L6.26783 33.2529L5.89386 32.6119L5.35962 26.5757L4.13116 22.9431L3.86398 22.0885L8.13744 19.1506L9.47296 18.6162L10.6481 20.0585L11.6631 20.9667L12.8383 21.3406L13.3724 21.5008L14.0135 24.2786L14.4942 24.8662L15.723 24.4389L14.8682 26.0949L19.5157 28.2851L18.9281 28.6056Z" fill="#335061"/>
<path fill-rule="evenodd" clip-rule="evenodd" d="M6.26866 9.96229L7.65737 9.48152L8.77917 10.0159L9.31353 11.191L9.95455 11.0841L10.1148 10.4431L9.7943 9.21459L10.1148 6.27639L9.84763 4.67382L10.8092 3.55203L12.8925 1.89613L12.3049 1.09485L9.36686 2.53716L8.13814 3.49869L7.44378 4.99434L6.37532 6.43664L6.05481 8.14613L6.26866 9.96229Z" fill="#6D6B6D"/>
<path fill-rule="evenodd" clip-rule="evenodd" d="M8.45881 4.941C8.45881 4.941 9.26009 2.96459 12.4652 2.00305C15.6704 1.04151 12.6255 1.30843 12.6255 1.30843L9.15317 2.64407L7.81766 3.97946L7.23022 5.04792L8.45868 4.941H8.45881ZM6.85624 9.58843C6.85624 9.58843 5.73445 5.84895 10.0079 5.31484L9.84766 4.67382L6.90971 5.36843L6.05496 8.14612L6.26868 9.96228L6.85612 9.58843" fill="#DCD9D8"/>
<path fill-rule="evenodd" clip-rule="evenodd" d="M8.56558 14.5564L9.26507 13.8787C9.26507 13.8787 9.58071 13.9153 9.63404 14.2892C9.68738 14.6633 9.84763 18.0287 12.1446 19.8449C12.3542 20.0107 10.4353 19.5776 10.4353 19.5776L8.72584 16.9069L8.56558 14.5564ZM18.3949 13.5415C18.3949 13.5415 18.5196 11.9223 18.9556 12.0467C19.3916 12.1712 19.3916 12.6074 19.3916 12.6074C19.3916 12.6074 18.3326 13.2924 18.3949 13.5415Z" fill="#F7E4CD"/>
<path d="M22.8285 7.61206C22.8285 7.61206 21.948 7.79796 21.867 8.5736C21.7859 9.34937 22.8285 8.73386 22.9888 8.68052L22.8285 7.61206ZM16.3648 7.66552C16.3648 7.66552 15.1896 7.82578 15.1896 8.5736C15.1896 9.32142 16.5251 9.26809 16.8991 8.94758" fill="#F7E4CD"/>
<path fill-rule="evenodd" clip-rule="evenodd" d="M9.09885 11.1377C9.09885 11.1377 7.06898 9.909 6.85526 11.0844C6.64167 12.2595 6.16078 13.1143 7.17577 14.3428L6.48142 14.1293L5.84039 12.4732L5.6268 10.8707L6.85526 9.58849L8.24424 9.69541L9.04552 10.3364L9.09885 11.1377ZM10.0604 7.77233C10.0604 7.77233 10.9686 3.07156 15.5627 2.16335C19.345 1.41579 21.3318 2.32361 22.0798 3.17823C22.0798 3.17823 18.7144 -0.828059 15.5092 0.400531C12.3041 1.62925 9.95372 3.87284 10.0071 5.31489C10.0981 7.7713 10.0604 7.77233 10.0604 7.77233ZM22.4537 3.71233C22.4537 3.71233 20.9047 3.65899 20.8512 5.04797C20.8512 5.04797 20.851 5.26156 20.958 5.47515C20.958 5.47515 22.1868 4.0863 22.9345 4.83412" fill="#F7E4CD"/>
<path fill-rule="evenodd" clip-rule="evenodd" d="M15.6704 5.61983C15.6704 5.61983 15.4037 3.48791 13.586 4.7274C12.4109 5.52868 12.5178 6.65047 12.7314 6.86406C12.945 7.07778 12.8869 7.50816 13.0496 7.21278C13.2122 6.9174 13.1586 5.95586 13.7463 5.68893C14.334 5.42175 15.2973 5.12329 15.6704 5.61983Z" fill="#F7E4CD"/>
<path fill-rule="evenodd" clip-rule="evenodd" d="M10.6481 20.0585L5.6268 22.3021C5.6268 22.3021 7.71014 30.5821 6.64168 33.1462L5.89373 32.8791L5.84039 29.7275L4.45168 23.7446L3.86398 22.0885L9.09886 18.563L10.6481 20.0585ZM11.1645 24.6382L11.8768 25.5075V28.7126H11.0221C11.0221 28.7126 10.9153 26.469 10.9153 26.2018C10.9153 25.9346 11.0221 24.9731 11.0221 24.9731L11.1645 24.6382ZM11.1822 29.1934L8.77834 29.3L9.47296 29.7808L11.1822 30.048" fill="#49728B"/>
<path fill-rule="evenodd" clip-rule="evenodd" d="M19.4089 28.6589L21.3854 28.6056L21.8662 33.5201L19.8362 33.7871L19.4089 28.6589Z" fill="#335061"/>
<path fill-rule="evenodd" clip-rule="evenodd" d="M19.9431 28.6589L22.9345 28.4987C22.9345 28.4987 24.1631 25.4003 24.1631 25.2401C24.1631 25.0798 25.2316 20.7529 25.2316 20.7529L22.8277 18.2424L22.347 17.8149L21.0649 19.097V24.0649L19.9431 28.6589Z" fill="#335061"/>
<path fill-rule="evenodd" clip-rule="evenodd" d="M21.2785 28.2849L19.4089 28.6589L19.6759 30.1548C20.3703 30.4753 21.5457 29.6204 21.5457 29.6204L21.2785 28.2849ZM21.332 18.9369L25.0713 21.7146L25.1781 20.4325L22.347 17.8151L21.332 18.9369Z" fill="#49728B"/>
<path fill-rule="evenodd" clip-rule="evenodd" d="M13.037 39.1829L11.931 34.6951L11.381 31.3838L11.2899 28.9259L16.2956 28.6595L19.4097 28.6589L19.1266 34.2684L19.6074 38.5953L19.5539 39.3966L15.4943 39.7171L13.037 39.1829Z" fill="white"/>
<path fill-rule="evenodd" clip-rule="evenodd" d="M18.7152 28.6056C18.7152 28.6056 18.4481 34.1612 19.2494 38.1141C19.2494 38.1141 17.6469 39.1293 15.2964 39.3962L19.7835 39.2359L20.3178 38.9154L19.6767 30.1548L19.5165 28.2849" fill="#DCD9D8"/>
<path fill-rule="evenodd" clip-rule="evenodd" d="M21.9579 33.0932L24.0412 32.5056L27.9942 32.292L28.5819 30.4757L27.5134 27.324L26.285 27.1637L24.5755 27.6979L22.9353 28.4987L22.0647 28.339L21.3861 28.6056" fill="white"/>
<path fill-rule="evenodd" clip-rule="evenodd" d="M21.9203 32.0244C21.9203 32.0244 23.3091 31.3835 23.5229 31.4369L22.9353 28.4987L23.6298 28.2317C23.6298 28.2317 24.1106 31.0094 24.1106 31.3299C24.1106 31.3299 27.1019 31.4902 27.3691 31.4902C27.3691 31.4902 28.0101 30.2616 27.8498 28.9795L28.4374 30.6889L28.4909 31.6504L27.6361 32.9325L26.6746 33.1462L25.072 33.0927L24.5379 32.3984L22.6683 32.6654L22.0806 32.8791" fill="#DCD9D8"/>
<path d="M19.8203 28.2322L18.6452 25.2406L17.4164 23.4778C17.4164 23.4778 17.6835 22.73 18.0575 22.73H19.2862L20.4613 23.1573L20.3546 25.1338L19.8203 28.2322Z" fill="white"/>
<path fill-rule="evenodd" clip-rule="evenodd" d="M20.0499 27.2167C20.0499 27.2167 18.5541 24.3322 18.5541 23.9049C18.5541 23.9049 18.821 23.2638 19.1951 23.4241C19.5691 23.5844 20.3704 24.0115 20.3704 24.0115V22.9967L18.5541 22.6226L17.3255 22.7828L19.4089 27.6974L19.8362 27.751" fill="#DCD9D8"/>
<path d="M13.5178 20.166L12.0379 20.0051L10.6489 19.5776V20.0584L11.3275 20.8069L13.4643 21.7684" fill="white"/>
<path fill-rule="evenodd" clip-rule="evenodd" d="M11.129 20.3262C11.129 20.3262 12.7852 21.0207 13.3193 20.8604L13.3725 21.5008L11.877 21.1809L10.9688 20.5399L11.129 20.3262Z" fill="#DCD9D8"/>
<path fill-rule="evenodd" clip-rule="evenodd" d="M21.9516 22.9119C21.0452 22.8853 20.2263 22.7776 19.5093 22.5754C19.558 22.2814 19.467 21.993 19.54 21.7813C19.74 21.6373 20.0749 21.6396 20.377 21.6058C20.1158 21.4775 19.7487 21.4266 19.4473 21.5008C19.4403 21.2968 19.3487 21.1704 19.2934 21.0108C19.803 20.8289 21.0059 19.6364 21.6827 20.0313C22.0052 20.2191 22.1422 21.2918 22.1672 21.8135C22.188 22.2462 22.128 22.6827 21.9517 22.9119" fill="#D33833"/>
<path d="M21.9516 22.9119C21.0452 22.8853 20.2263 22.7776 19.5093 22.5754C19.558 22.2814 19.467 21.993 19.54 21.7813C19.74 21.6373 20.0749 21.6396 20.377 21.6058C20.1158 21.4775 19.7487 21.4266 19.4473 21.5008C19.4403 21.2968 19.3487 21.1704 19.2934 21.0108C19.803 20.8289 21.0059 19.6364 21.6827 20.0313C22.0052 20.2191 22.1422 21.2918 22.1672 21.8135C22.188 22.2462 22.128 22.6827 21.9517 22.9119H21.9516Z" stroke="#D33833" stroke-width="2.5"/>
<path fill-rule="evenodd" clip-rule="evenodd" d="M17.6176 21.4301C17.6152 21.4987 17.6123 21.5678 17.6096 21.6371C17.3266 21.823 16.8697 21.8206 16.5591 21.9769C17.017 21.9969 17.3774 22.1072 17.6892 22.2627L17.6691 22.7808C17.1503 23.1359 16.6765 23.6648 16.0656 23.9978C15.7769 24.1553 14.7634 24.5607 14.4561 24.4889C14.2823 24.4486 14.2666 24.2328 14.1971 24.0295C14.0491 23.5941 13.7083 22.9009 13.6785 22.2455C13.6406 21.4177 13.5571 20.0301 14.4493 20.2006C15.1691 20.338 16.0062 20.6696 16.5634 20.9741C16.9039 21.1603 17.101 21.3904 17.6176 21.4301Z" fill="#D33833"/>
<path d="M17.6176 21.4301C17.6152 21.4987 17.6123 21.5678 17.6096 21.6371C17.3266 21.823 16.8697 21.8206 16.5591 21.9769C17.017 21.9969 17.3774 22.1072 17.6892 22.2627L17.6691 22.7808C17.1503 23.1359 16.6765 23.6648 16.0656 23.9978C15.7769 24.1553 14.7634 24.5607 14.4561 24.4889C14.2823 24.4486 14.2666 24.2328 14.1971 24.0295C14.0491 23.5941 13.7083 22.9009 13.6785 22.2455C13.6406 21.4177 13.5571 20.0301 14.4493 20.2006C15.1691 20.338 16.0062 20.6696 16.5634 20.9741C16.9039 21.1603 17.101 21.3904 17.6176 21.4301V21.4301Z" stroke="#D33833" stroke-width="2.5"/>
<path fill-rule="evenodd" clip-rule="evenodd" d="M18.1328 22.418C18.0536 21.9669 17.9621 21.8384 17.9976 21.4449C19.2001 20.643 19.426 22.8223 18.1327 22.418" fill="#D33833"/>
<path d="M18.1328 22.418C18.0536 21.9669 17.9621 21.8384 17.9976 21.4449C19.2001 20.643 19.426 22.8223 18.1327 22.418H18.1328Z" stroke="#D33833" stroke-width="2.5"/>
<path fill-rule="evenodd" clip-rule="evenodd" d="M19.8738 22.7835C19.8738 22.7835 19.4999 22.2493 19.767 22.089C20.0341 21.9288 20.3013 22.0891 20.4615 21.822C20.6218 21.5548 20.4615 21.3945 20.5149 21.074C20.5682 20.7535 20.8355 20.7 21.1025 20.6467C21.3696 20.5932 22.1175 20.4864 22.2243 20.7535L21.9038 19.792L21.2628 19.5784L19.2328 20.7535L19.1259 21.3412V22.5163L19.8738 22.7835ZM14.265 24.5463C14.2008 23.7127 14.1329 22.8802 14.0573 22.0473C13.9442 20.8038 14.356 21.0207 15.434 21.0207C15.5986 21.0207 16.4478 21.217 16.5084 21.3412C16.7999 21.9362 16.0213 21.804 16.8441 22.2527C17.5386 22.6314 18.7655 22.0229 18.485 21.1809C18.3279 20.9938 17.6667 21.1226 17.4296 20.9997L16.1777 20.3507C15.6467 20.0752 14.4196 19.6736 13.8535 20.0585C12.4191 21.034 13.944 23.4713 14.4556 24.489" fill="#EF3D3A"/>
<path fill-rule="evenodd" clip-rule="evenodd" d="M15.6706 5.61994C14.2145 5.28083 13.4911 6.22917 13.0498 7.21288C12.6557 7.11737 12.8126 6.58147 12.9121 6.3084C13.1726 5.59173 14.2229 4.63776 15.0811 4.76699C15.4503 4.82263 15.9501 5.16032 15.6706 5.61994ZM22.7645 7.27788L22.8337 7.2807C23.1626 7.96416 23.4474 8.68814 23.8624 9.2916C23.5844 9.93916 21.757 10.5122 21.7852 9.34942C22.1804 9.1766 22.8626 9.31416 23.2129 9.09352C23.0103 8.5375 22.718 8.06429 22.7645 7.27788ZM16.416 7.2957C16.7281 7.86801 16.8298 8.46929 17.2735 8.90186C17.4734 9.0966 17.862 9.33391 17.6693 9.87545C17.6243 10.0031 17.2953 10.2879 17.1054 10.3438C16.4116 10.5487 14.7952 10.3861 15.3426 9.52122C15.9162 9.54801 16.6875 9.89378 17.1163 9.47724C16.7869 8.95083 16.1998 7.90929 16.416 7.2957ZM22.504 13.1121C21.4595 13.7831 20.2948 14.5128 18.5833 14.3435C18.2175 14.0256 18.0781 13.318 18.4334 12.8507C18.6184 13.1686 18.5021 13.7534 19.0175 13.8415C19.9887 14.0076 21.119 13.2474 21.8175 12.9816C22.2508 12.2513 21.7803 11.9828 21.3901 11.5128C20.5911 10.5498 19.5196 9.35622 19.5584 7.91455C19.8813 7.68032 19.9092 8.27186 19.9556 8.37955C20.3728 9.35583 21.4225 10.6044 22.1888 11.4399C22.3769 11.6457 22.6866 11.8431 22.7211 11.9793C22.8204 12.3749 22.4626 12.8489 22.504 13.1121ZM8.73352 12.4057C8.40609 12.2188 8.32814 11.3957 7.94378 11.3724C7.39455 11.339 7.49468 12.4402 7.49686 13.084C7.11865 12.7408 7.05224 11.6839 7.33006 11.1411C7.0134 10.9857 6.87211 11.3126 6.69647 11.4278C6.92211 9.7884 9.09468 10.6674 8.73352 12.4057ZM23.1692 13.7948C22.683 14.7203 21.9952 15.7395 20.5684 15.7692C20.5394 15.4703 20.5171 15.0154 20.5699 14.8354C21.6607 14.7307 22.334 14.1756 23.1692 13.7948ZM16.3337 14.3948C17.2437 14.8733 18.9161 14.9248 20.1529 14.8885C20.2193 15.1595 20.2178 15.4943 20.2203 15.8247C18.6304 15.9042 16.7506 15.5106 16.3337 14.3948ZM16.1608 15.2871C16.7899 16.867 18.9528 16.6852 20.7767 16.6416C20.6965 16.8467 20.5224 17.089 20.3061 17.1766C19.7215 17.4144 18.1095 17.5949 17.2981 17.164C16.7835 16.8904 16.453 16.2724 16.1711 15.9101C16.0349 15.7349 15.357 15.288 16.1608 15.287" fill="#231F20"/>
<path fill-rule="evenodd" clip-rule="evenodd" d="M22.4285 24.0022C21.6901 25.2669 20.9835 26.566 20.1074 27.6816C20.4747 26.6016 20.6318 24.7941 20.6874 23.416C21.4558 23.0564 22.1138 23.4969 22.4285 24.0022Z" fill="#81B0C4"/>
<path fill-rule="evenodd" clip-rule="evenodd" d="M26.4022 28.548C25.5754 28.7134 24.9945 29.5169 24.1879 29.4654C24.6311 28.8405 25.4079 28.5771 26.4022 28.548ZM26.7669 29.8418C26.0931 29.913 25.3015 30.0221 24.6181 29.9659C24.9415 29.4717 26.1882 29.6422 26.7669 29.8418ZM27.0004 30.9573C26.2431 30.9737 25.3016 30.9586 24.5818 30.8984C25.0075 30.4409 26.5092 30.7286 27.0004 30.9573Z" fill="#231F20"/>
<path fill-rule="evenodd" clip-rule="evenodd" d="M21.003 34.0102C21.1116 34.9614 21.4888 35.9251 21.4415 36.9666C21.0227 37.1079 20.7821 37.2315 20.2211 37.2307C20.1814 36.3455 20.0631 34.9921 20.0985 34.1482C20.3744 34.1665 20.7813 33.951 21.003 34.0102Z" fill="#DCD9D8"/>
<path fill-rule="evenodd" clip-rule="evenodd" d="M19.7827 19.9922C19.4025 20.2404 19.0786 20.5504 18.7134 20.8154C17.9034 20.8554 17.4615 20.7592 16.8665 20.2942C16.8762 20.2569 16.9359 20.2736 16.9382 20.2277C17.8052 20.6141 18.9074 20.0704 19.7827 19.9922Z" fill="#F0D6B7"/>
<path fill-rule="evenodd" clip-rule="evenodd" d="M15.2314 25.9021C15.4696 24.8699 16.4029 24.3353 17.2505 23.7668C18.1254 24.8771 18.6574 26.3051 19.2433 27.6829C17.8589 27.2656 16.4446 26.5885 15.2314 25.9021Z" fill="#81B0C4"/>
<path fill-rule="evenodd" clip-rule="evenodd" d="M20.0991 34.1481C20.0637 34.9919 20.1821 36.3454 20.2217 37.2306C20.7828 37.2314 21.0233 37.1078 21.4421 36.9665C21.4894 35.925 21.1123 34.9613 21.0036 34.0101C20.7819 33.9509 20.3751 34.1664 20.0991 34.1481ZM11.3628 29.3486C11.7328 32.7497 12.2687 35.6088 13.2515 38.6205C15.4328 39.2828 18.0624 39.3405 19.9905 38.743C19.6364 37.0431 19.7912 34.9736 19.5841 33.1596C19.4283 31.7962 19.5078 30.4244 19.294 29.0333C16.9578 28.5473 13.6555 28.9197 11.3628 29.3486ZM19.8464 29.0547C19.8267 30.5154 19.9118 31.9563 20.0233 33.4188C20.5842 33.3346 20.9649 33.2783 21.486 33.1641C21.3168 31.7562 21.3376 30.1718 20.9928 28.9263C20.5945 28.9301 20.2436 28.9217 19.8464 29.0547ZM22.6918 28.8192C22.4255 28.7582 22.1156 28.8169 21.8613 28.8218C21.9808 30.0126 22.2709 31.3264 22.3729 32.5763C22.7732 32.5887 22.9869 32.4 23.3162 32.3365C23.3337 31.2395 23.2203 29.728 22.6918 28.8192ZM27.0001 32.7556C27.8342 32.5531 28.3587 31.5313 28.1254 30.4822C27.9688 29.7771 27.69 28.4494 27.3915 27.9982C27.171 27.6646 26.5732 27.2277 26.0958 27.5335C25.3191 28.0309 23.951 28.1751 23.3847 28.7771C23.6687 29.7226 23.7568 31.0213 23.874 32.2194C24.8441 32.2799 26.038 31.9524 26.8447 32.2999C26.2815 32.4823 25.5505 32.4838 25.0638 32.7497C25.4617 32.9418 26.3928 32.9031 27.0001 32.7556ZM19.2432 27.6828C18.6573 26.305 18.1253 24.8772 17.2504 23.7668C16.4028 24.3353 15.4695 24.8699 15.2312 25.9021C16.4445 26.5885 17.8588 27.2655 19.2432 27.6828ZM20.6874 23.416C20.6319 24.794 20.4747 26.6017 20.1074 27.6817C20.9836 26.566 21.6901 25.2671 22.4286 24.0022C22.1138 23.4971 21.4559 23.0564 20.6874 23.416ZM19.0503 22.8344C18.7183 22.7985 18.4367 23.2159 18.005 23.0354C17.9062 23.1447 17.8163 23.2632 17.7155 23.3699C18.6687 24.5186 19.1018 26.1483 19.8381 27.4983C20.2331 26.2015 20.1876 24.7809 20.2746 23.3655C19.7318 23.4 19.4306 22.8746 19.0503 22.8342V22.8344ZM17.9976 21.4449C17.9621 21.8383 18.0536 21.9669 18.1328 22.418C19.426 22.8223 19.2003 20.643 17.9976 21.4449ZM16.5633 20.974C16.0062 20.6695 15.169 20.3381 14.4492 20.2006C13.5569 20.03 13.6406 21.4176 13.6785 22.2455C13.7082 22.9009 14.049 23.5941 14.1971 24.0295C14.2665 24.2328 14.2822 24.4486 14.456 24.489C14.7633 24.5605 15.7768 24.1553 16.0656 23.9978C16.6764 23.6647 17.1503 23.1359 17.669 22.7808C17.6758 22.608 17.6823 22.4354 17.6892 22.2627C17.3773 22.1072 17.0169 21.9969 16.5591 21.9769C16.8696 21.8206 17.3265 21.823 17.6095 21.6371C17.6123 21.5678 17.6151 21.4987 17.6176 21.4301C17.1009 21.3904 16.904 21.1603 16.5633 20.974ZM11.2406 20.0073C10.7782 20.4768 12.5378 21.1168 13.0982 21.1513C13.095 20.8542 13.2674 20.5741 13.2328 20.3609C12.5673 20.2441 11.6928 20.3212 11.2406 20.0072V20.0073ZM16.9381 20.2278C16.9358 20.2736 16.876 20.2569 16.8663 20.2942C17.4613 20.7594 17.9033 20.8555 18.7132 20.8154C19.0785 20.5504 19.4023 20.2404 19.7826 19.9922C18.9072 20.0704 17.805 20.6141 16.9381 20.2277V20.2278ZM22.1676 21.8135C22.1426 21.2918 22.0055 20.2191 21.6831 20.0313C21.0063 19.6363 19.8033 20.8288 19.2937 21.0108C19.3491 21.1704 19.4406 21.2968 19.4476 21.5008C19.7491 21.4267 20.1162 21.4774 20.3773 21.6058C20.0753 21.6396 19.7403 21.6373 19.5405 21.7813C19.4672 21.993 19.5585 22.2814 19.5097 22.5754C20.2267 22.7776 21.0456 22.8853 21.9521 22.9119C22.1283 22.6827 22.1883 22.2462 22.1674 21.8135H22.1676ZM10.4621 20.4614C10.3168 20.3578 9.33436 19.0795 9.19974 19.1326C7.42192 19.8337 5.75949 21.046 4.2741 22.1927C5.69038 25.2318 6.26205 28.9551 6.36308 32.544C7.98564 33.3027 9.41064 34.3967 11.6123 34.5109C11.3576 32.7083 11.125 31.1001 10.9803 29.4031C10.4272 29.1697 9.63359 29.4136 9.1159 29.3308C9.11141 28.7069 9.90654 29.0576 9.97269 28.6381C10.0227 28.3206 9.53525 28.2967 9.69397 27.7971C10.0987 27.9441 10.3112 28.269 10.7427 28.391C11.1372 27.5282 10.7373 26.0015 10.7941 25.2804C10.8049 25.145 10.8618 24.5304 11.165 24.6381C11.4335 24.7336 11.1496 26.2731 11.1791 26.9556C11.206 27.5845 11.1032 28.1928 11.3578 28.5877C13.4853 28.2981 15.6472 28.1109 17.9491 28.0477C17.4427 27.8305 16.841 27.6249 16.1815 27.2531C15.8238 27.0514 14.6969 26.6321 14.5936 26.2924C14.429 25.7513 15.0256 25.463 15.1277 24.9991C14.0537 25.5847 13.8442 24.4376 13.5901 23.625C13.36 22.889 13.229 22.3391 13.1726 21.9146C12.2474 21.4736 11.2583 21.0269 10.4621 20.4614ZM21.2279 19.2872C22.7092 18.569 22.9762 21.9717 22.3956 23.0678C22.4854 23.3947 22.794 23.5199 22.92 23.8139C22.0933 25.2946 21.1751 26.6767 20.3318 28.1401C20.9592 27.7495 21.8554 28.0703 22.5937 27.778C22.8636 27.6712 23.0588 27.0533 23.2632 26.5591C23.8253 25.1994 24.4153 23.4851 24.6778 22.1876C24.7371 21.8918 24.8986 21.2476 24.8624 20.9845C24.7978 20.5133 24.1586 20.164 23.8335 19.8726C23.2344 19.3345 22.8572 18.8609 22.2322 18.3577C21.979 18.7318 21.4351 18.9831 21.2279 19.2872ZM7.07449 6.15129C6.36859 6.92795 6.51641 8.38308 6.60179 9.41834C7.87756 8.61578 9.57102 9.4818 9.555 10.8468C10.164 10.8306 9.78256 10.086 9.67231 9.60642C9.31231 8.03975 10.279 6.3377 9.71615 4.90501C8.62346 4.98783 7.72577 5.43411 7.07449 6.15129ZM12.1247 1.64398C10.5267 2.0968 8.47897 3.2577 7.82243 4.69334C8.33077 4.61937 8.68372 4.36296 9.18526 4.33129C9.37487 4.31898 9.6232 4.41078 9.84102 4.35654C10.2753 4.24885 10.6415 3.27552 10.9691 2.91334C11.2883 2.55962 11.6721 2.40847 11.9347 2.08603C12.1035 2.00462 12.3529 2.01026 12.3624 1.75693C12.2894 1.67872 12.2124 1.61911 12.1247 1.64398ZM20.4426 2.06988C18.7841 1.13411 15.9768 0.430263 14.2126 1.30975C12.7891 2.01962 10.8649 3.19398 10.2087 4.68206C10.8217 6.11808 10.0273 7.43398 9.97667 8.89206C9.94974 9.6677 10.3419 10.345 10.3719 11.1895C10.1622 11.5356 9.52154 11.5782 9.07795 11.5545C8.92872 10.8074 8.66731 9.9677 7.89795 9.88334C6.80936 9.76424 6.01333 10.6653 5.96397 11.6068C5.90538 12.714 6.81436 14.5491 8.10269 14.4217C8.60038 14.3724 8.72256 13.8736 9.26487 13.8787C9.55872 14.4651 8.81154 14.6492 8.73461 15.0686C8.71461 15.1769 8.79654 15.6004 8.84423 15.7989C9.07833 16.7658 9.59987 18.0171 10.1135 18.7531C10.765 19.6867 12.0454 19.8274 13.4227 19.919C13.6688 19.389 14.575 19.4326 15.1655 19.5712C14.4578 19.2909 13.7999 18.6114 13.2546 18.0099C12.6283 17.3199 11.9938 16.5796 11.9618 15.6778C13.1454 17.3197 14.1233 18.7537 16.2754 19.4759C17.904 20.0221 19.8059 19.2256 21.0572 18.3469C21.5764 17.9817 21.8863 17.4022 22.2554 16.8718C23.6363 14.8854 24.2806 12.0501 24.139 9.30206C24.0806 8.16872 24.0832 7.03924 23.7029 6.2768C23.3055 5.47949 21.9613 4.76616 21.1745 5.48731C21.0286 4.71206 21.8287 4.23257 22.7687 4.51154C22.0985 3.64667 21.3951 2.60744 20.4426 2.06988ZM23.5324 27.6415C24.8285 26.9973 27.2499 25.9074 28.0624 27.644C28.3623 28.284 28.714 29.366 28.8694 30.0268C29.0886 30.959 28.6315 32.9183 27.6732 33.2312C26.8271 33.5073 25.8395 33.4905 24.8201 33.2858C24.7001 33.1859 24.5664 33.0119 24.4729 32.8305C23.7451 32.8023 23.0635 32.8695 22.4885 33.1687C22.5429 33.7071 22.1788 33.7935 21.8376 33.9044C21.5845 34.9077 22.3438 36.2179 22.1621 37.1328C22.0324 37.7846 21.2305 37.8854 20.641 38.0073C20.6218 38.3696 20.6669 38.6719 20.7071 38.9783C20.5724 39.475 19.9678 39.7577 19.3951 39.8269C17.5106 40.0535 14.6494 40.1553 12.8368 39.5035C12.331 38.2628 11.9326 36.7538 11.5112 35.3372C9.74333 35.526 8.31372 34.5744 6.96564 33.9509C6.49897 33.7346 5.85346 33.6154 5.6791 33.244C5.51 32.8844 5.57923 32.195 5.53731 31.544C5.43051 29.8809 5.3391 28.2769 4.90013 26.5742C4.70282 25.8101 4.3591 25.1359 4.11936 24.3996C3.89782 23.7173 3.51064 22.874 3.40961 22.1936C3.25987 21.1851 4.20961 21.129 4.81679 20.6921C5.75538 20.0162 6.49231 19.6424 7.50884 19.0326C7.81 18.8519 8.71795 18.3947 8.82128 18.1841C9.02667 17.7667 8.46884 17.1781 8.31974 16.8508C8.08384 16.3333 7.96077 15.8937 7.92705 15.3832C7.07423 15.2483 6.42782 14.7409 6.03731 14.1686C5.39128 13.2214 4.94333 11.4692 5.50218 10.1364C5.54602 10.0314 5.76461 9.82501 5.79692 9.66385C5.86051 9.34629 5.67718 8.92411 5.66577 8.58654C5.60705 6.85411 5.95884 5.36154 7.12513 4.83911C7.59859 2.95308 9.29308 2.3259 10.8896 1.3886C11.4864 1.03834 12.1442 0.814365 12.8236 0.564365C15.2608 -0.332558 19.0003 -0.163583 21.0229 1.36616C21.8806 2.01488 23.2517 3.38462 23.7421 4.37629C25.0372 6.99436 24.9453 11.3699 24.0394 14.5546C23.9176 14.9822 23.7409 15.6108 23.4942 16.1244C23.3224 16.483 22.7878 17.2006 22.8528 17.5173C22.9196 17.8447 24.0714 18.7192 24.3183 18.9574C24.7631 19.3864 25.6079 19.9558 25.6763 20.4972C25.7499 21.0732 25.4224 21.8613 25.2567 22.4173C24.7022 24.2726 24.1612 25.9876 23.5324 27.6415Z" fill="#231F20"/>
<path fill-rule="evenodd" clip-rule="evenodd" d="M14.8857 14.7988C14.956 14.7052 15.3425 14.5632 15.8834 14.8236C15.8834 14.8236 15.2424 14.9305 15.2957 15.9992L15.0287 15.9456C15.0287 15.9456 14.7525 14.9765 14.8857 14.7988Z" fill="#F7E4CD"/>
<path fill-rule="evenodd" clip-rule="evenodd" d="M19.5695 23.985C19.5703 24.0241 19.5633 24.0629 19.5489 24.0993C19.5345 24.1356 19.513 24.1688 19.4856 24.1967C19.4582 24.2246 19.4256 24.2468 19.3895 24.2619C19.3534 24.2771 19.3147 24.2849 19.2756 24.2848C19.2365 24.2848 19.1978 24.277 19.1618 24.2618C19.1257 24.2467 19.0931 24.2244 19.0657 24.1965C19.0384 24.1685 19.0169 24.1354 19.0025 24.0991C18.9881 24.0627 18.9811 24.0238 18.982 23.9847C18.9836 23.9079 19.0153 23.8347 19.0702 23.781C19.1252 23.7272 19.199 23.6971 19.2759 23.6971C19.3527 23.6972 19.4265 23.7273 19.4814 23.7811C19.5363 23.835 19.568 23.9081 19.5695 23.985ZM19.8634 25.3472C19.8634 25.3857 19.8557 25.424 19.841 25.4596C19.8262 25.4952 19.8045 25.5276 19.7772 25.5549C19.7499 25.5822 19.7175 25.6038 19.6819 25.6186C19.6462 25.6333 19.608 25.6409 19.5694 25.6409C19.5308 25.6409 19.4926 25.6332 19.457 25.6185C19.4213 25.6037 19.3889 25.582 19.3617 25.5547C19.3344 25.5274 19.3128 25.495 19.298 25.4594C19.2833 25.4237 19.2757 25.3855 19.2757 25.3469C19.2773 25.2701 19.309 25.1969 19.364 25.1431C19.4189 25.0894 19.4927 25.0593 19.5696 25.0593C19.6465 25.0594 19.7203 25.0895 19.7752 25.1433C19.8301 25.1971 19.8617 25.2703 19.8633 25.3472" fill="#1D1919"/>
</g>
<defs>
<clipPath id="clip0">
<rect width="28.9744" height="40" fill="white" transform="translate(0.384155)"/>
</clipPath>
</defs>
</svg>
