<svg width="80" height="80" viewBox="0 0 80 80" fill="none" xmlns="http://www.w3.org/2000/svg">
<g clip-path="url(#clip0)">
<path d="M5.96031 21.0484C9.08125 12.0317 14.9544 -3.61065 27.4778 0.752629C32.3534 2.45138 33.8845 8.90325 38.7856 9.70747C43.4147 10.467 47.3331 5.91763 51.7372 5.05482C57.2081 3.9831 62.9977 5.41685 65.0762 10.7548C67.5631 17.1414 60.233 24.3075 62.0052 30.1394C64.9283 39.7587 75.7337 23.8158 77.6659 39.3394C80.3697 61.062 56.2908 99.7329 40.0692 67.9328C31.8437 51.8079 23.2231 63.1164 10.4011 55.0951C-1.77422 47.4787 1.99406 32.5069 5.96031 21.0484Z" fill="url(#paint0_linear)"/>
<path opacity="0.1" d="M69.6773 55.6853L56.0711 42.079C60.7831 35.9237 60.3244 27.08 54.6934 21.4489C49.8314 16.5868 42.5741 15.5812 36.7203 18.4303C35.2517 15.9673 32.5623 14.3168 29.4864 14.3168C24.8375 14.3168 21.0687 18.0856 21.0687 22.7345C21.0687 26.8643 24.0437 30.2971 27.967 31.0128C27.885 31.8514 27.8709 32.6951 27.9234 33.5356H11.9547C10.7156 33.5356 9.71094 34.5387 9.71094 35.7778V71.2528C9.71094 72.4918 10.7156 73.495 11.9547 73.495H47.4297C48.6672 73.495 49.6719 72.4918 49.6719 71.2528V47.029C50.8827 46.5211 52.0427 45.855 53.1203 45.0301L66.7266 58.6364C67.5414 59.4512 68.8627 59.4512 69.6775 58.6364C70.4923 57.8214 70.4923 56.5001 69.6773 55.6853Z" fill="#091E42"/>
<path d="M49.6717 31.8716V67.3466C49.6717 68.5856 48.667 69.5888 47.4295 69.5888H11.9545C10.7155 69.5888 9.71078 68.5856 9.71078 67.3466V31.8716C9.71078 30.6325 10.7155 29.6294 11.9545 29.6294H47.4295C48.667 29.6294 49.6717 30.6325 49.6717 31.8716Z" fill="white"/>
<path d="M44.064 35.2363V63.9817H15.3185V35.2363H44.064Z" fill="#0052CC"/>
<path d="M47.4609 35.8247L36.8437 46.4419L16.5797 66.7044L12.6156 62.7403L32.2437 43.1106L43.4953 31.8591L47.4609 35.8247Z" fill="white"/>
<path d="M69.6773 54.73C68.8625 55.5449 67.5412 55.5449 66.7262 54.73L51.4036 39.4074L54.3547 36.4564L69.6773 51.7791C70.4922 52.5939 70.4922 53.9152 69.6773 54.73Z" fill="white"/>
<path d="M61.8427 49.8467L66.726 54.73C67.5409 55.5448 68.8621 55.5448 69.6771 54.73C70.492 53.915 70.492 52.5939 69.6771 51.7789L64.7938 46.8956L61.8427 49.8467Z" fill="#0052CC"/>
<path d="M43.5914 44.3445C52.2623 44.3445 59.2915 37.3153 59.2915 28.6444C59.2915 19.9734 52.2623 12.9442 43.5914 12.9442C34.9204 12.9442 27.8912 19.9734 27.8912 28.6444C27.8912 37.3153 34.9204 44.3445 43.5914 44.3445Z" fill="white"/>
<path d="M43.591 40.7275C50.2643 40.7275 55.6741 35.3177 55.6741 28.6443C55.6741 21.971 50.2643 16.5612 43.591 16.5612C36.9177 16.5612 31.5079 21.971 31.5079 28.6443C31.5079 35.3177 36.9177 40.7275 43.591 40.7275Z" fill="#0052CC"/>
<path d="M51.9897 26.6075V37.3294C47.2615 41.9075 39.7178 41.8591 35.0475 37.1888C31.5803 33.7216 30.6615 28.6716 32.2896 24.3638H49.7475C50.9865 24.3638 51.9897 25.3685 51.9897 26.6075Z" fill="white"/>
<path d="M43.8737 31.8278V40.7247C40.6878 40.7981 37.4784 39.62 35.0472 37.1888C33.505 35.6466 32.4675 33.7919 31.9331 31.8278H43.8737Z" fill="#0052CC"/>
<path d="M43.591 41.5026C40.2968 41.5026 37.0024 40.2487 34.4946 37.7409C32.0648 35.3112 30.7266 32.0806 30.7266 28.6445C30.7266 25.2084 32.0649 21.9778 34.4946 19.5481C39.5102 14.5325 47.6718 14.5323 52.6874 19.5481C55.1173 21.9778 56.4554 25.2084 56.4554 28.6445C56.4554 32.0806 55.1171 35.3112 52.6874 37.7409C50.1796 40.2487 46.8852 41.5026 43.591 41.5026ZM43.591 17.3478C40.6969 17.3478 37.8027 18.4495 35.5994 20.6528C33.4649 22.7875 32.2891 25.6256 32.2891 28.6443C32.2891 31.6631 33.4648 34.5012 35.5994 36.6359C40.0062 41.0425 47.176 41.0425 51.5827 36.6359C53.7173 34.5012 54.893 31.6631 54.893 28.6443C54.893 25.6256 53.7174 22.7875 51.5827 20.6528C49.3793 18.4495 46.4852 17.3478 43.591 17.3478Z" fill="#091E42"/>
<path d="M32.5971 26.6629C36.916 24.9428 39.0227 20.0473 37.3026 15.7284C35.5825 11.4095 30.6869 9.30281 26.368 11.0229C22.0492 12.743 19.9425 17.6386 21.6626 21.9575C23.3827 26.2763 28.2782 28.383 32.5971 26.6629Z" fill="#0052CC"/>
<path d="M70.2299 51.2266L59.8258 40.8225C59.521 40.5175 59.026 40.5175 58.7211 40.8225C58.416 41.1276 58.416 41.6223 58.7211 41.9273L69.1251 52.3314C69.6341 52.8405 69.6341 53.6686 69.1252 54.1775C68.8787 54.424 68.5507 54.5598 68.2021 54.5598C67.8533 54.5598 67.5255 54.424 67.279 54.1775L54.2865 41.185C54.6151 40.9044 54.9354 40.6091 55.246 40.2984C61.6721 33.8723 61.6721 23.4162 55.246 16.9901C50.454 12.198 43.183 10.8409 37.003 13.5348C35.336 11.1748 32.5893 9.62921 29.4866 9.62921C24.4143 9.62921 20.2877 13.7558 20.2877 18.8281C20.2877 23.0886 23.1994 26.6806 27.1371 27.7217C26.8746 32.4103 28.6066 36.9672 31.9379 40.2984C35.1508 43.5116 39.3713 45.118 43.5919 45.118C45.384 45.118 47.1757 44.8272 48.8907 44.2478V67.3458C48.8907 68.1519 48.2349 68.8075 47.429 68.8075H11.9543C11.1483 68.8075 10.4926 68.1517 10.4926 67.3458V31.8714C10.4926 31.0653 11.1483 30.4097 11.9543 30.4097H23.4241C23.8557 30.4097 24.2054 30.0598 24.2054 29.6284C24.2054 29.197 23.8557 28.8472 23.4241 28.8472H11.9543C10.2866 28.8472 8.93005 30.2039 8.93005 31.8714V67.3459C8.93005 69.0136 10.2868 70.3701 11.9543 70.3701H47.4288C49.0965 70.3701 50.453 69.0134 50.453 67.3459V43.6297C51.3491 43.2206 52.2158 42.7273 53.041 42.1494L66.174 55.2823C66.7157 55.824 67.4358 56.1223 68.2019 56.1223C68.9679 56.1223 69.6882 55.824 70.2301 55.2823C71.348 54.1642 71.348 52.3448 70.2299 51.2266ZM21.8501 18.8281C21.8501 14.6175 25.2758 11.1917 29.4865 11.1917C33.6971 11.1917 37.1229 14.6173 37.1229 18.8281C37.1229 23.0389 33.6971 26.4645 29.4865 26.4645C25.2758 26.4645 21.8501 23.0389 21.8501 18.8281ZM33.0426 39.1936C30.0702 36.2212 28.5051 32.1706 28.6885 27.9903C28.9518 28.0131 29.2176 28.0272 29.4866 28.0272C34.559 28.0272 38.6855 23.9006 38.6855 18.8283C38.6855 17.4208 38.3668 16.0866 37.7991 14.8926C43.3558 12.5533 49.8477 13.8016 54.1413 18.0953C59.9582 23.9122 59.9582 33.3769 54.1413 39.1937C48.3241 45.0106 38.8594 45.0106 33.0426 39.1936Z" fill="#091E42"/>
<path d="M28.2433 23.5809C28.2139 23.5809 28.1846 23.5796 28.155 23.577C27.7761 23.5437 27.4482 23.3001 27.3069 22.947L26.2157 20.2188C26.1936 20.1635 26.1407 20.1278 26.0811 20.1278C25.5243 20.1278 25.0728 19.6763 25.0728 19.1195C25.0728 18.5626 25.5243 18.1112 26.0811 18.1112C26.97 18.1112 27.7578 18.6445 28.088 19.4699L28.4383 20.3459L32.0341 14.5521C32.3278 14.079 32.9494 13.9335 33.4224 14.2271C33.8955 14.5209 34.041 15.1424 33.7472 15.6156L29.0994 23.1043C28.9149 23.4023 28.5899 23.5809 28.2433 23.5809Z" fill="#091E42"/>
<path d="M68.7786 29.5114C68.5788 29.5114 68.3786 29.4351 68.2263 29.2826L67.2943 28.3508L66.3622 29.2826C66.0574 29.5876 65.5624 29.5876 65.2576 29.2826C64.9524 28.9775 64.9524 28.4828 65.2576 28.1778L66.7419 26.6934C67.0468 26.3884 67.5418 26.3884 67.8466 26.6934L69.331 28.1778C69.6361 28.4829 69.6361 28.9776 69.331 29.2826C69.1786 29.4351 68.9786 29.5114 68.7786 29.5114Z" fill="#0052CC"/>
<path d="M15.3192 23.7164C14.7141 23.7164 14.145 23.4808 13.7171 23.0527C13.2892 22.6248 13.0536 22.0559 13.0536 21.4508C13.0536 20.8456 13.2892 20.2767 13.7172 19.8487C14.6003 18.9655 16.0382 18.9655 16.9213 19.8487C17.3492 20.2767 17.5849 20.8456 17.5849 21.4508C17.5849 22.0559 17.3492 22.625 16.9213 23.0528C16.4935 23.4806 15.9244 23.7164 15.3192 23.7164ZM15.3192 20.748C15.1392 20.748 14.9591 20.8166 14.8219 20.9536C14.6891 21.0864 14.6161 21.263 14.6161 21.4508C14.6161 21.6386 14.6892 21.8151 14.8219 21.948C14.9549 22.0809 15.1313 22.1539 15.3192 22.1539C15.5071 22.1539 15.6836 22.0808 15.8164 21.948C15.9494 21.8151 16.0224 21.6386 16.0224 21.4508C16.0224 21.263 15.9492 21.0864 15.8166 20.9536C15.6794 20.8166 15.4992 20.748 15.3192 20.748Z" fill="#0052CC"/>
<path d="M72.5304 38.7219C71.9252 38.7219 71.3562 38.4863 70.9282 38.0581C70.5004 37.6303 70.2648 37.0614 70.2648 36.4563C70.2648 35.8511 70.5004 35.2822 70.9284 34.8542C71.8115 33.971 73.2491 33.971 74.1324 34.8542C74.5604 35.2822 74.796 35.8511 74.796 36.4563C74.796 37.0614 74.5604 37.6305 74.1324 38.0583C73.7046 38.4863 73.1356 38.7219 72.5304 38.7219ZM72.5304 35.7536C72.3504 35.7536 72.1702 35.822 72.033 35.9592C71.9002 36.092 71.8273 36.2686 71.8273 36.4564C71.8273 36.6442 71.9004 36.8208 72.033 36.9536C72.166 37.0866 72.3424 37.1595 72.5304 37.1595C72.7182 37.1595 72.8948 37.0864 73.0276 36.9536C73.1605 36.8208 73.2335 36.6442 73.2335 36.4564C73.2335 36.2686 73.1604 36.092 73.0277 35.9592C72.8905 35.822 72.7106 35.7536 72.5304 35.7536Z" fill="#0052CC"/>
<path d="M61.8434 68.9688C61.2631 68.9688 60.683 68.748 60.2414 68.3063C59.358 67.4229 59.358 65.9855 60.2414 65.1022C61.1245 64.2189 62.562 64.2188 63.4453 65.1022C64.3288 65.9857 64.3288 67.4229 63.4453 68.3063C63.0038 68.748 62.4236 68.9688 61.8434 68.9688ZM61.8434 66.0016C61.6634 66.0016 61.4833 66.07 61.3461 66.2072C61.072 66.4813 61.072 66.9274 61.3461 67.2016C61.6205 67.4757 62.0661 67.476 62.3405 67.2016C62.6145 66.9275 62.6145 66.4814 62.3405 66.2072C62.2033 66.07 62.0233 66.0016 61.8434 66.0016Z" fill="#0052CC"/>
<path d="M56.1119 72.7721C55.9121 72.7721 55.7119 72.6958 55.5596 72.5433L54.6275 71.6114L53.6955 72.5433C53.3907 72.8483 52.8956 72.8483 52.5908 72.5433C52.2856 72.2382 52.2856 71.7435 52.5908 71.4385L54.0752 69.9541C54.38 69.6491 54.875 69.6491 55.1799 69.9541L56.6642 71.4385C56.9694 71.7436 56.9694 72.2383 56.6642 72.5433C56.5119 72.6958 56.3117 72.7721 56.1119 72.7721Z" fill="#0052CC"/>
</g>
<defs>
<linearGradient id="paint0_linear" x1="19.6359" y1="65.6522" x2="52.2922" y2="23.4647" gradientUnits="userSpaceOnUse">
<stop stop-color="#D2E4FF" stop-opacity="0"/>
<stop offset="1" stop-color="#B7D4FF"/>
</linearGradient>
<clipPath id="clip0">
<rect width="80" height="80" fill="white"/>
</clipPath>
</defs>
</svg>
