<svg width="41" height="40" viewBox="0 0 41 40" fill="none" xmlns="http://www.w3.org/2000/svg">
<g clip-path="url(#clip0)">
<path d="M19.8834 0.234009C8.9027 0.234009 0.000244141 9.13541 0.000244141 20.1165C0.000244141 31.0972 8.9027 39.9993 19.8834 39.9993C30.8641 39.9993 39.7662 31.0972 39.7662 20.1165C39.7662 9.13541 30.8638 0.234009 19.8834 0.234009ZM19.8834 37.4463C16.7592 37.4463 14.2262 35.3593 14.2262 32.7856H25.5406C25.5406 35.3589 23.0076 37.4463 19.8834 37.4463ZM29.2273 31.2421H10.5385V27.8533H29.2276V31.2421H29.2273ZM29.1602 26.1091H10.5918C10.5301 26.0379 10.4669 25.9677 10.4073 25.8954C8.49428 23.5726 8.04375 22.36 7.60621 21.1242C7.59884 21.0835 9.92586 21.5996 11.576 21.9709C11.576 21.9709 12.4252 22.1673 13.6666 22.3937C12.4746 20.9965 11.7669 19.2203 11.7669 17.4049C11.7669 13.4193 14.8238 9.93647 13.7209 7.12138C14.7943 7.20875 15.9424 9.38664 16.0199 12.7919C17.1609 11.2151 17.6385 8.33541 17.6385 6.5698C17.6385 4.74173 18.8431 2.61822 20.048 2.54559C18.9739 4.31576 20.3262 5.83331 21.5283 9.59787C21.9792 11.0119 21.9216 13.3916 22.2697 14.9007C22.3852 11.7663 22.9241 7.19296 24.9125 5.61401C24.0353 7.60243 25.0424 10.0905 25.7311 11.2866C26.8424 13.2165 27.516 14.6786 27.516 17.4438C27.516 19.2979 26.8315 21.0435 25.6767 22.408C26.9897 22.1617 27.8964 21.9396 27.8964 21.9396L32.1602 21.1077C32.1606 21.1073 31.5409 23.6554 29.1602 26.1091Z" fill="#E6522C"/>
</g>
<defs>
<clipPath id="clip0">
<rect width="40.4677" height="40" fill="white" transform="translate(0.000244141)"/>
</clipPath>
</defs>
</svg>
