<svg width="40" height="40" viewBox="0 0 40 40" fill="none" xmlns="http://www.w3.org/2000/svg">
<path d="M19.546 0.000327176C17.9146 0.00790738 16.3567 0.147038 14.9859 0.3896C10.9477 1.10302 10.2145 2.59626 10.2145 5.35005V8.98697H19.7573V10.1993H10.2145H6.63322C3.85983 10.1993 1.43138 11.8662 0.671786 15.0374C-0.204392 18.6722 -0.243255 20.9405 0.671786 24.7358C1.35012 27.561 2.97007 29.5739 5.74345 29.5739H9.02447V25.2141C9.02447 22.0643 11.7497 19.286 14.9859 19.286H24.5175C27.1708 19.286 29.2889 17.1014 29.2889 14.4368V5.35005C29.2889 2.76391 27.1072 0.821216 24.5175 0.3896C22.8782 0.116717 21.1773 -0.00725303 19.546 0.000327176ZM14.3853 2.92543C15.371 2.92543 16.176 3.74354 16.176 4.74945C16.176 5.75181 15.371 6.56235 14.3853 6.56235C13.3961 6.56235 12.5947 5.75181 12.5947 4.74945C12.5947 3.74354 13.3961 2.92543 14.3853 2.92543Z" fill="url(#paint0_linear)"/>
<path d="M30.479 10.1993V14.4369C30.479 17.7221 27.6937 20.4873 24.5176 20.4873H14.986C12.3751 20.4873 10.2146 22.7218 10.2146 25.3365V34.4232C10.2146 37.0094 12.4634 38.5305 14.986 39.2725C18.0067 40.1607 20.9033 40.3212 24.5176 39.2725C26.92 38.5769 29.289 37.177 29.2889 34.4232V30.7863H19.7573V29.574H29.2889H34.0603C36.8337 29.574 37.8672 27.6395 38.8317 24.7359C39.828 21.7467 39.7856 18.8721 38.8317 15.0374C38.1463 12.2765 36.8372 10.1993 34.0603 10.1993H30.479ZM25.1182 33.2109C26.1074 33.2109 26.9088 34.0215 26.9088 35.0238C26.9088 36.0297 26.1074 36.8478 25.1182 36.8478C24.1325 36.8478 23.3275 36.0297 23.3275 35.0238C23.3275 34.0215 24.1325 33.2109 25.1182 33.2109Z" fill="url(#paint1_linear)"/>
<defs>
<linearGradient id="paint0_linear" x1="3.11462e-08" y1="2.70558e-08" x2="22.0045" y2="18.7509" gradientUnits="userSpaceOnUse">
<stop stop-color="#5A9FD4"/>
<stop offset="1" stop-color="#306998"/>
</linearGradient>
<linearGradient id="paint1_linear" x1="24.8888" y1="34.7181" x2="16.9945" y2="23.6557" gradientUnits="userSpaceOnUse">
<stop stop-color="#FFD43B"/>
<stop offset="1" stop-color="#FFE873"/>
</linearGradient>
</defs>
</svg>
