<svg width="39" height="41" viewBox="0 0 39 41" fill="none" xmlns="http://www.w3.org/2000/svg">
<g clip-path="url(#clip0)">
<path d="M38.2733 0.894207C38.2733 14.1782 38.2733 27.4617 38.2733 40.7446C38.2733 40.8227 38.2555 40.8405 38.1758 40.8405H0.0994312C0.0213793 40.8405 0.00349234 40.8227 0.00349234 40.7446C0.00132423 27.479 0.000240174 14.2129 0.000240174 0.946241C0.000240174 0.915346 -0.0176467 0.87632 0.0262575 0.851929C0.0782921 0.890955 0.138457 0.866563 0.19537 0.873068C0.252283 0.879572 0.273422 0.861685 0.283178 0.916972C0.12057 1.04706 0.12057 1.22268 0.12057 1.4048C0.121654 14.3874 0.121654 27.3685 0.12057 40.3478C0.117319 40.4069 0.117319 40.466 0.12057 40.5251C0.123531 40.596 0.154114 40.6629 0.205775 40.7115C0.257436 40.7601 0.326073 40.7866 0.397004 40.7853C0.437656 40.7853 0.479934 40.7853 0.522213 40.7853C12.9357 40.7853 25.3482 40.7853 37.7595 40.7853C38.1172 40.7853 38.1758 40.6357 38.1758 40.3722C38.1758 29.2401 38.1758 18.1074 38.1758 6.97413C38.1758 6.92535 38.1758 6.87656 38.1758 6.82778C38.1733 6.78055 38.1567 6.73515 38.1282 6.6974C38.0997 6.65965 38.0606 6.63127 38.0159 6.61589C37.9711 6.60052 37.9229 6.59885 37.8772 6.61111C37.8315 6.62336 37.7905 6.64899 37.7595 6.68469C37.6522 6.79363 37.553 6.91234 37.4505 7.02616C36.9416 7.60017 36.4294 8.16442 35.9188 8.74493C35.4407 9.28696 34.961 9.82899 34.4797 10.371L33.1788 11.8231L31.8991 13.2622C31.5251 13.6817 31.1495 14.0996 30.7771 14.5192L29.6697 15.7615C29.2936 16.1821 28.9174 16.6038 28.5412 17.0266C28.1705 17.4396 27.803 17.8542 27.4339 18.2689L26.5054 19.3145C26.1899 19.669 25.8728 20.0218 25.559 20.3779C25.5081 20.4353 25.4538 20.4896 25.3964 20.5405C25.3592 20.5768 25.3152 20.6052 25.2668 20.624C25.2184 20.6429 25.1668 20.6518 25.1149 20.6503C25.063 20.6488 25.0119 20.6368 24.9648 20.6152C24.9176 20.5935 24.8753 20.5626 24.8403 20.5243C24.3622 20.0511 23.8939 19.5665 23.4321 19.0771L23.3963 19.0397C22.9833 18.6413 22.5947 18.2266 22.1946 17.812C21.7231 17.3306 21.2537 16.8477 20.7864 16.3631C20.3295 15.8916 19.8693 15.4249 19.4173 14.9501C19.136 14.6541 18.8335 14.3777 18.5685 14.0671C18.4939 13.9969 18.4492 13.9007 18.4434 13.7985C18.4377 13.6962 18.4714 13.5956 18.5376 13.5175C18.9002 13.0297 19.2661 12.5613 19.6303 12.0849L20.5474 10.8881C20.5827 10.8358 20.6288 10.7916 20.6827 10.7588C20.7366 10.726 20.7969 10.7052 20.8596 10.6979C20.9192 10.6903 20.9798 10.697 21.0363 10.7173C21.0928 10.7377 21.1437 10.7711 21.1848 10.8149C21.3881 11.0117 21.5686 11.2312 21.7572 11.4394C22.1052 11.8215 22.4483 12.2085 22.793 12.5922L23.8142 13.7305C24.1215 14.0736 24.4256 14.4183 24.7378 14.7566C24.7722 14.7968 24.8156 14.8285 24.8645 14.8489C24.9134 14.8694 24.9664 14.878 25.0192 14.8742C25.0721 14.8704 25.1233 14.8543 25.1688 14.8271C25.2142 14.7998 25.2526 14.7623 25.2809 14.7175C25.5037 14.4297 25.7135 14.1338 25.9314 13.8411L27.4924 11.7142L30.3169 7.8636L32.3593 5.08787C33.2569 3.86289 34.1556 2.63845 35.0553 1.41455C35.0732 1.39016 35.0911 1.36414 35.1074 1.33813C35.1326 1.31205 35.1518 1.28077 35.1637 1.24647C35.1756 1.21218 35.1798 1.1757 35.1761 1.1396C35.1724 1.1035 35.1608 1.06865 35.1422 1.03749C35.1236 1.00634 35.0984 0.979634 35.0683 0.95925C35.0504 0.941363 35.0228 0.928355 35.0309 0.894207C35.0634 0.863311 35.1025 0.873068 35.1399 0.873068H38.1644C38.2021 0.86712 38.2406 0.874602 38.2733 0.894207Z" fill="#FEFEFE"/>
<path d="M38.273 0.894253H35.1493C35.1081 0.885992 35.0654 0.89112 35.0273 0.908888C34.9868 0.929755 34.9404 0.936617 34.8956 0.928401H0.533224C0.44805 0.945264 0.359919 0.939089 0.277929 0.910514C0.222642 0.876366 0.162477 0.900757 0.105565 0.894253C0.0486517 0.887749 0.0323909 0.904009 0.0258865 0.851975C12.744 0.851975 25.4616 0.851975 38.1786 0.851975C38.2128 0.855227 38.2762 0.803192 38.273 0.894253Z" fill="#E0E0E1"/>
<path d="M0.278332 0.910558C0.336074 0.898562 0.394985 0.893107 0.453948 0.894298H34.8732C34.9252 0.891824 34.9772 0.896751 35.0277 0.908932C35.2277 1.00325 35.2667 1.17398 35.1269 1.36424L32.9528 4.32533L25.3249 14.7193C25.2929 14.7738 25.2477 14.8195 25.1935 14.8522C25.1393 14.8848 25.0777 14.9034 25.0145 14.9061C24.9513 14.9089 24.8884 14.8957 24.8315 14.8679C24.7747 14.8401 24.7257 14.7985 24.6891 14.7469C23.5367 13.4634 22.3844 12.1809 21.232 10.8996C21.0076 10.6492 20.7686 10.6589 20.567 10.924C19.9013 11.7912 19.2379 12.6585 18.5766 13.5257C18.5412 13.5625 18.5137 13.6062 18.496 13.6541C18.4782 13.702 18.4706 13.753 18.4735 13.804C18.4764 13.855 18.4898 13.9048 18.5128 13.9504C18.5359 13.996 18.5681 14.0363 18.6075 14.0688L22.7508 18.3373L24.8078 20.4512C25.0306 20.6805 25.2436 20.6788 25.4582 20.4382C26.7504 18.9877 28.0437 17.5367 29.338 16.0852L32.4878 12.5517L36.3904 8.1824L37.7254 6.68803C37.7596 6.64087 37.8085 6.60647 37.8645 6.59027C37.9205 6.57407 37.9802 6.577 38.0343 6.59859C38.0899 6.6178 38.1376 6.65484 38.1699 6.70396C38.2023 6.75307 38.2175 6.8115 38.2132 6.87015V40.4471C38.2246 40.5447 38.1971 40.6428 38.1368 40.7203C38.0878 40.7761 38.0189 40.8105 37.9449 40.8162C37.9059 40.8162 37.8685 40.8162 37.8294 40.8162H0.470209C0.24581 40.8162 0.136862 40.748 0.0994625 40.587C0.0953744 40.5453 0.0953744 40.5034 0.0994625 40.4618C0.0994625 27.3881 0.0994625 14.3144 0.0994625 1.24065C0.0914979 1.17389 0.104421 1.1063 0.136453 1.04719C0.168486 0.988074 0.218052 0.940341 0.278332 0.910558Z" fill="#41AD29"/>
<path d="M10.4952 36.4452C8.64261 36.4874 6.81866 35.983 5.25107 34.9948C4.81852 34.7257 4.40947 34.4205 4.02826 34.0825C3.95797 34.0243 3.91236 33.9416 3.90059 33.8511C3.88882 33.7606 3.91178 33.669 3.96484 33.5947C4.45591 32.9042 4.94862 32.2147 5.44295 31.5263C5.47146 31.4785 5.51068 31.438 5.55753 31.4079C5.60438 31.3779 5.65758 31.3591 5.71292 31.3531C5.76826 31.3471 5.82423 31.3541 5.87643 31.3734C5.92863 31.3928 5.97562 31.424 6.0137 31.4646C6.57609 31.9778 7.21389 32.4017 7.90484 32.7215C8.58924 33.0374 9.32002 33.2411 10.0692 33.3248C10.686 33.4084 11.3121 33.3941 11.9245 33.2825C12.4377 33.203 12.917 32.9772 13.3051 32.6321C13.5832 32.391 13.7579 32.0521 13.7929 31.6857C13.8319 31.1458 13.5766 30.7572 13.1424 30.4726C12.7195 30.2206 12.2621 30.0317 11.7847 29.9117C10.8806 29.6515 9.95695 29.4677 9.0496 29.2222C8.18945 29.0119 7.35908 28.6945 6.57795 28.2774C5.7931 27.8702 5.15351 27.2301 4.74698 26.4448C4.43855 25.8038 4.2912 25.0971 4.3177 24.3862C4.35022 22.8154 5.03317 21.5845 6.29501 20.6641C7.02262 20.1489 7.85115 19.7936 8.72601 19.6218C9.56884 19.4552 10.4293 19.3951 11.2871 19.4429C12.2402 19.48 13.1814 19.6677 14.0758 19.9991C15.0265 20.3488 15.914 20.8508 16.7036 21.4853C16.7736 21.544 16.8184 21.6274 16.8287 21.7182C16.839 21.809 16.814 21.9002 16.7589 21.9731C16.2537 22.6441 15.7463 23.3146 15.2368 23.9846C15.2069 24.0316 15.1667 24.0712 15.1193 24.1004C15.0718 24.1296 15.0183 24.1476 14.9629 24.1531C14.9074 24.1586 14.8514 24.1514 14.7992 24.1321C14.7469 24.1127 14.6997 24.0818 14.6612 24.0415C13.9642 23.4922 13.1714 23.077 12.3229 22.8171C11.511 22.5663 10.6601 22.4665 9.81223 22.5227C9.37103 22.5419 8.94121 22.6687 8.56015 22.8919C8.3014 23.0408 8.09636 23.2677 7.97429 23.5402C7.85222 23.8127 7.81937 24.1167 7.88044 24.409C7.93937 24.6301 8.07042 24.8253 8.25282 24.9635C8.58452 25.2146 8.96083 25.4005 9.3618 25.5115C10.1293 25.7635 10.9228 25.9294 11.7066 26.1196C12.6942 26.3353 13.657 26.6519 14.5799 27.0644C15.3278 27.3931 15.9846 27.8987 16.4938 28.5376C16.891 29.0605 17.1479 29.6762 17.2402 30.3263C17.3849 31.2115 17.3084 32.1187 17.0174 32.9671C16.6816 33.9317 16.0316 34.7557 15.1718 35.307C14.4031 35.7982 13.5421 36.1269 12.6416 36.2729C11.9325 36.3928 11.2143 36.4505 10.4952 36.4452Z" fill="#FEFEFE"/>
<path d="M26.7769 31.0468H22.5344C22.3409 31.0468 22.3214 31.0728 22.3588 31.2598C22.4929 31.9083 22.8189 32.5014 23.2944 32.9622C23.77 33.423 24.3732 33.7301 25.0256 33.8436C25.5829 33.9219 26.1495 33.9032 26.7005 33.7883C27.4678 33.6483 28.195 33.3413 28.8306 32.8891C28.8651 32.8602 28.9053 32.839 28.9487 32.827C28.992 32.8151 29.0374 32.8125 29.0819 32.8196C29.1263 32.8267 29.1686 32.8433 29.2061 32.8682C29.2435 32.8931 29.2752 32.9257 29.2989 32.9639C29.6545 33.4756 30.0063 33.9911 30.3543 34.5103C30.3777 34.5472 30.3935 34.5885 30.4006 34.6317C30.4078 34.6748 30.4061 34.719 30.3958 34.7615C30.3855 34.804 30.3667 34.844 30.3405 34.8791C30.3144 34.9141 30.2815 34.9436 30.2437 34.9656C29.7569 35.3162 29.2308 35.6087 28.6761 35.8372C27.6875 36.2471 26.6259 36.4518 25.5557 36.4388C25.2419 36.4388 24.928 36.4519 24.6142 36.4258C23.8647 36.369 23.1329 36.1698 22.458 35.8388C21.6383 35.4544 20.9143 34.8926 20.3383 34.194C19.7624 33.4954 19.3489 32.6776 19.1278 31.7996C18.99 31.2727 18.9243 30.7295 18.9327 30.1849C18.9198 29.6786 18.9552 29.1723 19.0384 28.6727C19.2227 27.6886 19.6422 26.7636 20.2612 25.9766C21.171 24.8036 22.4746 23.9996 23.9312 23.7131C24.7654 23.5476 25.6235 23.5421 26.4598 23.6969C27.5028 23.8665 28.4767 24.327 29.2697 25.0254C29.8229 25.5154 30.2766 26.1072 30.6063 26.7685C31.013 27.5822 31.2645 28.4645 31.3478 29.3703C31.3933 29.8044 31.4031 30.2402 31.4112 30.6711C31.4191 30.7208 31.4154 30.7715 31.4003 30.8195C31.3853 30.8674 31.3593 30.9113 31.3245 30.9475C31.2897 30.9837 31.247 31.0114 31.1997 31.0283C31.1523 31.0453 31.1018 31.051 31.0518 31.0451C30.7413 31.0451 30.4307 31.0451 30.1201 31.0451L26.7769 31.0468Z" fill="#FEFEFE"/>
<path d="M25.2894 28.8612H22.473C22.299 28.8612 22.2746 28.8319 22.2974 28.6547C22.3851 28.0607 22.6534 27.5081 23.0659 27.0717C23.4784 26.6354 24.0151 26.3365 24.6032 26.2155C25.2325 26.1017 25.865 26.0855 26.4683 26.3277C27.548 26.7603 28.148 27.5717 28.2944 28.723C28.3057 28.8075 28.27 28.8498 28.1887 28.8563C28.1573 28.8579 28.1258 28.8579 28.0944 28.8563L25.2894 28.8612Z" fill="#43AF2A"/>
</g>
<defs>
<clipPath id="clip0">
<rect width="38.2764" height="40" fill="white" transform="translate(0 0.840576)"/>
</clipPath>
</defs>
</svg>
