<svg width="40" height="40" viewBox="0 0 40 40" fill="none" xmlns="http://www.w3.org/2000/svg">
<path d="M40.0002 19.9995C40.0002 31.0455 31.047 40 20.0006 40C8.95408 40 0 31.0453 0 19.9995C0 8.95443 8.95419 1.15817e-09 20.0006 1.15817e-09C31.047 -0.000117591 40.0002 8.95443 40.0002 19.9995Z" fill="#E95420"/>
<path d="M9.62038 19.9996C9.62038 21.4198 8.46891 22.5713 7.04816 22.5713C5.6287 22.5713 4.47736 21.4198 4.47736 19.9996C4.47736 18.5801 5.6287 17.4286 7.04816 17.4286C8.46891 17.4286 9.62038 18.58 9.62038 19.9996ZM24.2505 32.5029C24.9607 33.7319 26.5326 34.1533 27.7625 33.444C28.9923 32.7339 29.4138 31.161 28.7036 29.9312C27.9935 28.7013 26.4215 28.2807 25.1916 28.9909C23.9617 29.7011 23.5404 31.273 24.2505 32.5029ZM28.7036 10.0687C29.4138 8.83875 28.9933 7.26595 27.7625 6.55664C26.5336 5.8465 24.9607 6.26795 24.2505 7.49773C23.5404 8.72751 23.9617 10.2996 25.1916 11.0097C26.4215 11.7199 27.9943 11.2986 28.7036 10.0687ZM20.0005 12.667C23.8325 12.667 26.9764 15.6042 27.3048 19.3506L31.0262 19.2919C30.8495 16.5081 29.642 14.0045 27.7813 12.1586C26.7962 12.5384 25.6534 12.4868 24.6675 11.9173C23.6807 11.3476 23.0645 10.3832 22.9016 9.33864C21.9768 9.08699 21.0038 8.95258 20.0004 8.95258C18.2403 8.95258 16.5769 9.36451 15.0997 10.0963L16.9104 13.3478C17.8491 12.9117 18.8971 12.667 20.0005 12.667ZM12.667 19.9996C12.667 17.5192 13.8993 15.3257 15.7852 13.9994L13.8744 10.8056C11.6613 12.2836 10.0124 14.538 9.31699 17.1813C10.14 17.8441 10.6674 18.8602 10.6674 19.9996C10.6674 21.1397 10.14 22.1559 9.31699 22.8186C10.0124 25.462 11.6613 27.7162 13.8744 29.1952L15.7852 26.0014C13.8993 24.6741 12.667 22.4816 12.667 19.9996ZM20.0005 27.3336C18.8971 27.3336 17.8491 27.0891 16.9105 26.6521L15.0998 29.9037C16.577 30.6363 18.2404 31.0474 20.0005 31.0474C21.0039 31.0474 21.9769 30.9138 22.9017 30.6621C23.0646 29.6167 23.6808 28.6524 24.6676 28.0835C25.6536 27.5138 26.7964 27.4621 27.7815 27.8422C29.6421 25.9955 30.8496 23.4918 31.0263 20.7081L27.3049 20.6503C26.9765 24.3958 23.8325 27.3336 20.0005 27.3336Z" fill="white"/>
</svg>
