<svg width="45" height="24" viewBox="0 0 45 24" fill="none" xmlns="http://www.w3.org/2000/svg">
<g clip-path="url(#clip0)">
<path d="M5.30467 18.9968V13.9369L9.15244 3.21765H7.51926L4.51421 11.7792L1.90765 4.7003H0.124222L3.66496 13.8801V18.9968H5.30467Z" fill="#FF0000"/>
<path d="M12.3864 17.0221C12.0924 17.4574 11.5371 17.817 10.9753 17.817C10.1457 17.817 9.75372 17.0599 9.75372 15.8991C9.75372 14.5994 10.1914 13.7413 12.197 13.7413H12.3864V17.0221ZM13.9804 16.7192V11.9811C13.9804 9.53943 12.9613 8.78234 11.1191 8.78234C10.0673 8.78234 9.11351 9.19874 8.63662 9.57729L8.94366 10.959C9.48588 10.4984 10.1914 10.082 11.0145 10.082C11.9291 10.082 12.3864 10.6372 12.3864 11.9621V12.5615H12.1578C9.23763 12.5615 8.09441 13.918 8.09441 16.082C8.09441 18.0631 9.11351 19.142 10.603 19.142C11.5176 19.142 12.0924 18.7571 12.5497 18.2019H12.6542C12.6738 18.4606 12.7392 18.7823 12.798 18.9968H14.1633C14.0849 18.5174 13.9804 17.6782 13.9804 16.7192ZM17.606 11.1798C17.9784 10.6814 18.5533 10.183 19.2392 10.183C19.8598 10.183 20.2126 10.4416 20.2126 11.1987V18.9968H21.8458V11.0599C21.8458 9.52051 21.1207 8.78234 19.7553 8.78234C18.7819 8.78234 17.998 9.40063 17.704 9.77918H17.606V8.90221H15.9859V18.9968H17.606V11.1798ZM26.6081 19.142C27.4574 19.142 28.0388 18.7571 28.4961 18.2019H28.6006L28.7247 18.9968H29.9268V4.70032H28.3066V9.16089C27.9996 8.94007 27.4835 8.78234 26.987 8.78234C24.89 8.78234 23.4398 10.5994 23.4398 14.3407C23.4398 17.4574 24.5634 19.142 26.6081 19.142ZM28.3066 17.041C28.0388 17.4385 27.6076 17.817 26.7976 17.817C25.6152 17.817 25.1644 16.3786 25.1644 14.0189C25.1644 11.9621 25.785 10.0631 27.085 10.0631C27.6272 10.0631 27.98 10.2208 28.3066 10.5426V17.041ZM37.5243 18.3218L37.1519 17.123C36.7404 17.4006 36.0741 17.7981 35.166 17.7981C33.8791 17.7981 33.2192 16.5994 33.2192 14.3218H37.5635V13.4574C37.5635 10.0379 36.4268 8.78234 34.6891 8.78234C32.4745 8.78234 31.5403 11.142 31.5403 14.3786C31.5403 17.4827 32.8665 19.142 35.0157 19.142C36.0545 19.142 36.8645 18.8202 37.5243 18.3218ZM34.6891 10.0631C35.6168 10.0631 35.9107 11.3186 35.9107 13.041H33.2388C33.3434 11.2429 33.6961 10.0631 34.6891 10.0631ZM43.0118 8.92114L41.5811 12.5804L40.2354 8.92114H38.563L40.5294 13.7792L38.354 18.9968H39.948L41.5223 14.8391L43.1359 18.9968H44.8148L42.6394 13.6404L44.5862 8.92114H43.0118Z" fill="black"/>
</g>
<defs>
<clipPath id="clip0">
<rect width="45" height="24" fill="white" transform="translate(0.000244141)"/>
</clipPath>
</defs>
</svg>
