<svg width="1057" height="732" viewBox="111 -60 1057 732" fill="none" xmlns="http://www.w3.org/2000/svg">
<g opacity="0.2">
<mask id="mask0" mask-type="alpha" maskUnits="userSpaceOnUse" x="156" y="41" width="733" height="623">
<ellipse cx="522.585" cy="352.333" rx="366.275" ry="310.932" fill="url(#paint0_radial)"/>
</mask>
<g mask="url(#mask0)">
<path d="M6.49662 731.704L56.8454 702.599L107.194 731.704H111.255L58.7944 701.46L112.554 670.404L166.638 701.623L114.665 731.704H118.726L168.75 702.761L218.774 731.704H222.834L170.861 701.623L224.621 670.566L278.705 701.786L226.894 731.704H230.955L280.654 702.924L330.353 731.704H334.414L282.603 701.786L336.363 670.729L390.447 701.948L338.961 731.704H343.022L392.396 703.249L441.77 731.704H445.831L394.507 702.111L448.267 671.054L502.351 702.273L451.19 731.704H455.251L504.138 703.412L553.025 731.704H557.085L506.087 702.273L559.846 671.217L613.931 702.436L563.257 731.704H567.317L615.88 703.574L664.442 731.704H668.502L617.829 702.436L671.588 671.379L725.672 702.599L675.324 731.704H679.384L727.622 703.737L775.859 731.704H779.919L729.57 702.599L783.33 671.542L837.414 702.761L787.715 731.704H791.776L839.688 704.062L887.601 731.704H891.661L841.8 702.924L895.559 671.867L949.644 703.086L899.782 731.704H903.842L951.43 704.225L999.018 731.704H1003.08L953.541 703.086L1007.3 672.03L1057.16 700.81V698.534L1009.41 670.891L1057.16 643.249V640.973L1007.3 669.753L953.217 638.534L1006.98 607.477L1057.16 636.42V634.144L1009.09 606.339L1057.16 578.534V576.258L1006.98 605.201L952.892 573.981L1006.65 542.924L1057.16 572.193V569.916L1008.6 541.949L1057.16 513.982V511.705L1006.65 540.973L952.567 509.754L1006.33 478.697L1057.16 508.128V505.852L1008.28 477.559L1057.16 449.266V446.99L1006.33 476.421L952.242 445.201L1006 414.145L1057.16 443.738V441.462L1007.95 413.006L1057.16 384.551V382.275L1006 411.868L951.755 379.836L1005.51 348.779L1057.16 378.535V376.259L1007.63 347.641L1057.16 319.023V316.747L1005.51 346.503L951.43 315.283L1005.19 284.226L1057.16 314.308V312.031L1007.3 283.251L1057.16 254.47V252.194L1005.19 282.275L951.105 251.056L1004.86 219.999L1057.16 250.243V247.966L1006.98 218.861L1057.16 189.755V186.991L1004.86 217.235L950.78 186.015L1004.54 154.959L1057.16 185.365V183.089L1006.49 153.82L1057.16 124.552V122.276L1004.54 152.682L950.456 121.463L1004.22 90.4061L1057.16 120.975V118.699L1006.16 89.2679L1057.16 59.8371V57.5607L1004.22 88.1297L950.131 56.9103L1003.73 25.6909L1057 56.5851V54.3087L1005.68 24.7153L1048.07 0H1044.01L1003.73 23.2519L963.286 0H959.226L1001.62 24.5527L947.857 55.6095L893.773 24.3901L936.001 0H931.94L891.986 23.0893L851.869 0H847.809L889.875 24.2275L836.115 55.2843L782.031 24.0649L823.772 0H819.711L780.082 22.9267L740.452 0H736.392L777.97 24.0649L724.373 55.1217L670.289 23.9023L711.542 0H707.482L668.177 22.7641L628.873 0H624.812L666.228 23.9023L612.469 54.9591L558.385 23.7397L599.476 0H595.415L556.436 22.6015L517.456 0H513.395L554.324 23.7397L500.565 54.7965L446.643 23.4145L487.247 0H483.186L444.531 22.2763L406.039 0H401.978L442.582 23.4145L388.823 54.4713L334.738 23.2519L375.017 0H370.957L332.627 22.1137L294.459 0H290.399L330.678 23.2519L276.918 54.3087L222.834 23.0893L262.951 0H258.89L220.885 21.9511L183.042 0H178.982L218.936 23.0893L165.177 54.1461L111.092 22.9267L150.722 0H146.661L109.143 21.7885L71.6252 0H67.5648L107.194 22.9267L53.4347 53.9835L0 23.0893V25.3657L51.3233 55.1217L0 84.7151V86.9915L53.4347 56.0973L107.519 87.3167L53.7595 118.536L0 87.4793V89.7557L51.6481 119.674L0 149.593V154.308L52.1354 184.389L0 214.471V218.698L52.4602 248.942L0 279.348V283.251L52.785 313.82L0 344.064V347.478L53.1099 378.21L0 408.941V412.031L53.4347 442.925L0 473.819V476.421L53.7595 507.478L0.162416 538.534H0V540.973H0.162416L54.2468 572.193L0.487247 603.249L0 602.924V605.851L0.487247 605.526L54.5716 636.745L0.812078 667.802L0 667.314V670.566L0.812078 670.078L54.8964 701.298L2.43623 731.704H6.49662ZM58.632 636.745L112.392 605.688L166.476 636.908L112.716 667.965L58.632 636.745ZM390.609 379.998L444.694 411.218L390.934 442.275L336.85 411.055L390.609 379.998ZM334.901 409.917L280.816 378.698L334.576 347.641L388.66 378.86L334.901 409.917ZM392.558 378.86L446.318 347.803L500.402 379.023L446.643 410.08L392.558 378.86ZM502.351 380.324L556.436 411.543L502.676 442.6L448.592 411.38L502.351 380.324ZM504.463 379.023L558.222 347.966L612.307 379.185L558.547 410.242L504.463 379.023ZM614.255 380.486L668.34 411.706L614.58 442.762L560.496 411.543L614.255 380.486ZM616.204 379.348L669.964 348.291L724.048 379.511L670.289 410.567L616.204 379.348ZM725.997 380.649L780.082 411.868L726.322 442.925L672.4 411.706L725.997 380.649ZM672.075 346.99L725.835 315.934L779.919 347.153L725.997 378.372L672.075 346.99ZM669.964 345.852L615.88 314.633L669.639 283.576L723.724 314.795L669.964 345.852ZM668.015 346.99L614.255 378.047L560.171 346.828L613.931 315.771L668.015 346.99ZM558.222 345.69L504.138 314.47L557.897 283.413L611.982 314.633L558.222 345.69ZM556.111 346.828L502.351 377.885L448.267 346.665L502.026 315.608L556.111 346.828ZM446.318 345.527L392.233 314.308L445.993 283.251L500.077 314.47L446.318 345.527ZM444.369 346.665L390.609 377.722L336.525 346.503L390.284 315.446L444.369 346.665ZM334.576 345.364L280.492 314.145L334.251 283.088L388.336 314.308L334.576 345.364ZM332.465 346.503L278.705 377.559L224.621 346.34L278.38 315.283L332.465 346.503ZM332.789 411.055L279.03 442.112L224.945 410.893L278.705 379.836L332.789 411.055ZM333.277 475.77L279.517 506.827L225.433 475.608L279.192 444.551L333.277 475.77ZM281.141 443.25L334.901 412.193L388.985 443.413L335.226 474.47L281.141 443.25ZM390.934 444.714L445.019 475.933L391.259 506.99L337.175 475.77L390.934 444.714ZM393.046 443.575L446.805 412.519L500.889 443.738L446.968 474.795L393.046 443.575ZM502.838 444.876L556.923 476.096L503.163 507.152L449.079 475.933L502.838 444.876ZM504.787 443.738L558.547 412.681L612.631 443.901L558.872 474.957L504.787 443.738ZM614.58 445.039L668.665 476.258L614.905 507.315L560.821 476.096L614.58 445.039ZM616.692 443.901L670.451 412.844L724.536 444.063L670.776 475.12L616.692 443.901ZM726.485 445.201L780.569 476.421L726.809 507.478L672.725 476.258L726.485 445.201ZM728.434 444.063L782.193 413.006L836.278 444.226L782.518 475.283L728.434 444.063ZM728.109 379.511L781.868 348.454L835.953 379.673L782.193 410.73L728.109 379.511ZM727.784 314.795L781.543 283.739L835.628 314.958L781.868 346.015L727.784 314.795ZM727.459 250.243L781.219 219.186L835.303 250.405L781.543 281.462L727.459 250.243ZM779.432 282.6L725.672 313.657L671.588 282.438L725.348 251.381L779.432 282.6ZM669.639 281.3L615.555 250.08L669.314 219.023L723.399 250.243L669.639 281.3ZM667.528 282.438L613.931 313.495L559.846 282.275L613.606 251.218L667.528 282.438ZM557.735 280.974L503.651 249.755L557.41 218.698L611.494 249.918L557.735 280.974ZM555.786 282.275L502.026 313.332L447.942 282.113L501.702 251.056L555.786 282.275ZM445.993 280.812L391.909 249.592L445.668 218.536L499.753 249.755L445.993 280.812ZM444.044 281.95L390.284 313.007L336.2 281.787L389.96 250.731L444.044 281.95ZM334.251 280.649L280.167 249.43L333.926 218.373L388.011 249.592L334.251 280.649ZM332.14 281.787L278.38 312.844L224.296 281.625L278.055 250.568L332.14 281.787ZM222.347 280.487L168.262 249.267L222.022 218.21L276.106 249.43L222.347 280.487ZM276.431 313.982L222.672 345.039L168.587 313.82L222.347 282.763L276.431 313.982ZM276.756 378.698L222.997 409.754L168.912 378.535L222.672 347.478L276.756 378.698ZM277.081 443.25L223.321 474.307L169.237 443.088L222.997 412.031L277.081 443.25ZM277.406 507.965L223.646 539.022L169.562 507.803L223.321 476.746L277.406 507.965ZM279.517 509.104L333.601 540.323L279.842 571.38L225.758 540.16L279.517 509.104ZM281.466 507.965L335.226 476.909L389.31 508.128L335.55 539.185L281.466 507.965ZM391.259 509.266L445.343 540.485L391.584 571.542L337.499 540.323L391.259 509.266ZM393.37 508.128L447.13 477.071L501.214 508.291L447.455 539.347L393.37 508.128ZM503.163 509.591L557.248 540.811L503.488 571.867L449.404 540.648L503.163 509.591ZM505.112 508.291L558.872 477.234L612.956 508.453L559.197 539.51L505.112 508.291ZM614.905 509.754L668.99 540.973L615.23 572.03L561.146 540.811L614.905 509.754ZM617.017 508.616L670.776 477.559L724.86 508.778L671.101 539.835L617.017 508.616ZM726.809 509.917L780.894 541.136L727.134 572.193L673.05 540.973L726.809 509.917ZM728.758 508.778L782.518 477.722L836.602 508.941L782.843 539.998L728.758 508.778ZM838.551 510.079L892.636 541.299L838.876 572.355L784.792 541.136L838.551 510.079ZM784.467 476.583L838.226 445.527L892.311 476.746L838.551 507.803L784.467 476.583ZM784.142 411.868L837.902 380.811L891.986 412.031L838.226 443.088L784.142 411.868ZM783.817 347.316L837.577 316.259L891.661 347.478L837.902 378.535L783.817 347.316ZM783.492 282.6L837.252 251.544L891.336 282.763L837.577 313.82L783.492 282.6ZM783.168 218.048L836.927 186.991L891.011 218.21L837.252 249.267L783.168 218.048ZM781.056 216.747L726.972 185.528L780.731 154.471L834.816 185.69L781.056 216.747ZM779.107 218.048L725.348 249.105L671.263 217.885L725.023 186.828L779.107 218.048ZM669.314 216.584L615.23 185.365L668.99 154.308L723.074 185.528L669.314 216.584ZM667.203 217.723L613.606 248.779L559.521 217.56L613.281 186.503L667.203 217.723ZM557.41 216.422L503.326 185.202L557.085 154.146L611.17 185.365L557.41 216.422ZM555.461 217.56L501.702 248.617L447.617 217.397L501.377 186.341L555.461 217.56ZM445.668 216.259L391.584 185.04L445.343 153.983L499.428 185.202L445.668 216.259ZM443.557 217.397L389.797 248.454L335.713 217.235L389.472 186.178L443.557 217.397ZM333.764 216.097L279.68 184.877L333.439 153.82L387.523 185.04L333.764 216.097ZM331.815 217.235L278.055 248.292L223.971 217.072L277.731 186.015L331.815 217.235ZM222.022 215.771L167.938 184.552L221.697 153.495L275.782 184.715L222.022 215.771ZM219.911 216.91L166.151 247.966L112.067 216.747L165.826 185.69L219.911 216.91ZM220.398 281.625L166.638 312.682L112.554 281.462L166.313 250.405L220.398 281.625ZM220.723 346.177L166.963 377.234L112.879 346.015L166.638 314.958L220.723 346.177ZM221.048 410.893L167.288 441.949L113.204 410.73L166.963 379.673L221.048 410.893ZM221.372 475.445L167.613 506.502L113.528 475.283L167.288 444.226L221.372 475.445ZM221.697 540.16L167.938 571.217L113.853 539.998L167.613 508.941L221.697 540.16ZM222.022 604.713L168.425 635.77L114.341 604.55L168.1 573.494L222.022 604.713ZM170.049 572.355L223.809 541.299L277.893 572.518L224.133 603.575L170.049 572.355ZM279.842 573.819L333.926 605.038L280.167 636.095L226.082 604.875L279.842 573.819ZM281.791 572.518L335.55 541.461L389.635 572.68L335.875 603.737L281.791 572.518ZM391.584 573.981L445.668 605.201L391.909 636.257L337.824 605.038L391.584 573.981ZM393.695 572.843L447.455 541.786L501.539 573.006L447.78 604.062L393.695 572.843ZM503.488 574.144L557.572 605.363L503.813 636.42L449.729 605.201L503.488 574.144ZM505.437 573.006L559.197 541.949L613.281 573.168L559.521 604.225L505.437 573.006ZM615.23 574.307L669.314 605.526L615.555 636.583L561.47 605.363L615.23 574.307ZM617.341 573.168L671.101 542.112L725.185 573.331L671.426 604.388L617.341 573.168ZM727.134 574.469L781.219 605.688L727.459 636.745L673.375 605.526L727.134 574.469ZM729.083 573.331L782.843 542.274L836.927 573.494L783.168 604.55L729.083 573.331ZM838.876 574.794L892.961 606.014L839.201 637.07L785.117 605.851L838.876 574.794ZM840.988 573.656L894.747 542.599L948.831 573.819L895.072 604.875L840.988 573.656ZM840.663 508.941L894.422 477.884L948.507 509.104L894.747 540.16L840.663 508.941ZM840.338 444.388L894.097 413.332L948.182 444.551L894.422 475.608L840.338 444.388ZM839.851 379.673L893.61 348.616L947.695 379.836L893.935 410.893L839.851 379.673ZM839.526 315.121L893.285 284.064L947.37 315.283L893.61 346.34L839.526 315.121ZM839.201 250.405L892.961 219.349L947.045 250.568L893.285 281.625L839.201 250.405ZM838.876 185.853L892.636 154.796L946.72 186.015L892.961 217.072L838.876 185.853ZM838.551 121.138L892.311 90.0809L946.395 121.3L892.636 152.357L838.551 121.138ZM890.524 153.495L836.765 184.552L782.843 153.333L836.44 122.276L890.524 153.495ZM780.731 152.194L726.647 120.975L780.407 89.9183L834.491 121.138L780.731 152.194ZM778.782 153.333L725.023 184.389L670.939 153.17L724.698 122.113L778.782 153.333ZM668.99 152.032L614.905 120.812L668.665 89.7557L722.749 120.975L668.99 152.032ZM666.878 153.17L613.119 184.227L559.034 153.007L612.794 121.951L666.878 153.17ZM557.085 151.869L503.001 120.65L556.76 89.4305L610.845 120.65L557.085 151.869ZM555.136 153.007L501.377 184.064L447.292 152.845L501.052 121.788L555.136 153.007ZM445.343 151.544L391.259 120.325L445.019 89.2679L499.103 120.487L445.343 151.544ZM443.232 152.682L389.635 183.739L335.55 152.52L389.31 121.463L443.232 152.682ZM333.439 151.381L279.355 120.162L333.114 89.1053L387.199 120.325L333.439 151.381ZM331.49 152.52L277.731 183.576L223.646 152.357L277.406 121.3L331.49 152.52ZM221.697 151.219L167.613 119.999L221.372 88.9427L275.457 120.162L221.697 151.219ZM219.586 152.357L165.826 183.414L111.904 152.194L165.664 121.138L219.586 152.357ZM163.877 184.552L110.118 215.609L56.0334 184.389L109.793 153.333L163.877 184.552ZM164.202 249.267L110.443 280.324L56.3582 249.105L110.118 217.885L164.202 249.267ZM164.527 313.82L110.767 344.877L56.8454 313.657L110.605 282.6L164.527 313.82ZM165.014 378.535L111.255 409.592L57.1703 378.372L110.93 347.316L165.014 378.535ZM165.339 443.088L111.579 474.144L57.4951 442.925L111.255 411.868L165.339 443.088ZM165.664 507.803L111.904 538.859L57.8199 507.64L111.579 476.421L165.664 507.803ZM165.989 572.355L112.229 603.412L58.1448 572.193L111.904 541.136L165.989 572.355ZM168.75 700.485L114.665 669.265L168.425 638.209L222.509 669.428L168.75 700.485ZM170.374 637.07L224.133 606.014L278.218 637.233L224.458 668.29L170.374 637.07ZM280.492 700.647L226.407 669.428L280.167 638.371L334.251 669.591L280.492 700.647ZM282.278 637.233L336.038 606.176L390.122 637.396L336.2 668.452L282.278 637.233ZM392.396 700.81L338.312 669.591L392.071 638.534L446.155 669.753L392.396 700.81ZM394.02 637.396L447.78 606.339L501.864 637.558L448.104 668.615L394.02 637.396ZM504.138 701.135L450.053 669.916L503.813 638.859L557.897 670.078L504.138 701.135ZM505.924 637.558L559.684 606.501L613.768 637.721L560.009 668.778L505.924 637.558ZM616.042 701.298L561.958 670.078L615.717 639.022L669.802 670.241L616.042 701.298ZM617.666 637.883L671.426 606.827L725.51 638.046L671.751 669.103L617.666 637.883ZM727.784 701.46L673.7 670.241L727.459 639.184L781.543 670.404L727.784 701.46ZM729.408 638.046L783.168 606.989L837.252 638.209L783.492 669.265L729.408 638.046ZM839.688 701.623L785.604 670.404L839.363 639.347L893.448 670.566L839.688 701.623ZM841.312 638.209L895.072 607.152L949.156 638.371L895.397 669.428L841.312 638.209ZM1005.19 670.891L951.43 701.948L897.346 670.729L951.105 639.672L1005.19 670.891ZM1004.86 606.176L951.105 637.233L897.021 606.014L950.78 574.957L1004.86 606.176ZM1004.54 541.624L950.78 572.68L896.696 541.461L950.456 510.404L1004.54 541.624ZM1004.05 476.909L950.293 507.965L896.209 476.746L949.968 445.689L1004.05 476.909ZM1003.73 412.356L950.131 443.413L896.046 412.193L949.806 381.137L1003.73 412.356ZM1003.4 347.641L949.644 378.698L895.559 347.478L949.319 316.421L1003.4 347.641ZM1003.08 283.088L949.319 314.145L895.234 282.926L948.994 251.869L1003.08 283.088ZM1002.75 218.373L948.994 249.43L894.909 218.21L948.669 187.154L1002.75 218.373ZM1002.43 153.82L948.669 184.877L894.585 153.658L948.344 122.601L1002.43 153.82ZM1001.94 89.1053L948.182 120.162L894.097 88.9427L947.857 57.8859L1001.94 89.1053ZM891.824 25.5283L945.908 56.7477L892.148 87.8045L838.064 56.5851L891.824 25.5283ZM890.199 88.9427L836.44 119.999L782.356 88.7801L836.115 57.7233L890.199 88.9427ZM780.082 25.2031L834.166 56.4225L780.407 87.4793L726.322 56.2599L780.082 25.2031ZM778.295 88.7801L724.536 119.837L670.451 88.6175L724.373 57.5607L778.295 88.7801ZM668.177 25.0405L722.262 56.2599L668.502 87.3167L614.418 56.0973L668.177 25.0405ZM666.553 88.4549L612.794 119.512L558.709 88.2923L612.469 57.2355L666.553 88.4549ZM556.436 24.8779L610.52 56.0973L556.76 87.1541L502.676 55.9347L556.436 24.8779ZM554.811 88.2923L501.052 119.349L446.968 88.1297L500.727 57.0729L554.811 88.2923ZM444.531 24.7153L498.616 55.9347L445.019 86.9915L390.934 55.7721L444.531 24.7153ZM442.907 88.1297L389.148 119.186L335.063 87.9671L388.823 56.9103L442.907 88.1297ZM332.789 24.3901L386.874 55.6095L333.114 86.6663L279.03 55.4469L332.789 24.3901ZM331.165 87.9671L277.406 119.024L223.321 87.8045L277.081 56.7477L331.165 87.9671ZM220.885 24.2275L274.969 55.4469L221.21 86.5037L167.288 55.2843L220.885 24.2275ZM219.261 87.6419L165.501 118.699L111.579 87.4793L165.339 56.4225L219.261 87.6419ZM55.3837 55.1217L109.143 24.0649L163.228 55.2843L109.468 86.3411L55.3837 55.1217ZM109.468 88.6175L163.552 119.837L109.793 151.056L55.7085 119.674L109.468 88.6175ZM0 151.869L53.7595 120.812L107.844 152.032L54.0844 183.089L0 151.869ZM0.324831 216.584L54.0844 185.528L108.169 216.747L54.4092 247.804L0.324831 216.584ZM0.812078 281.137L54.5716 250.08L108.656 281.3L54.8964 312.356L0.812078 281.137ZM1.13691 345.852L54.8964 314.795L108.818 346.015L55.2213 377.072L1.13691 345.852ZM1.46174 410.405L55.2213 379.511L109.306 410.73L55.5461 441.787L1.46174 410.405ZM1.78657 475.12L55.5461 444.063L109.63 475.283L55.8709 506.339L1.78657 475.12ZM2.1114 539.672L55.8709 508.616L109.955 539.835L56.1958 570.892L2.1114 539.672ZM2.43623 604.388L56.1958 573.331L110.28 604.55L56.5206 635.607L2.43623 604.388ZM2.76106 668.94L56.5206 637.883L110.605 669.103L56.8454 700.322L2.76106 668.94Z" fill="#0052CC"/>
</g>
</g>
<defs>
<radialGradient id="paint0_radial" cx="0" cy="0" r="1" gradientUnits="userSpaceOnUse" gradientTransform="translate(522.585 352.333) rotate(90) scale(321.494 378.716)">
<stop stop-color="#C4C4C4"/>
<stop offset="0.676583" stop-color="#C4C4C4" stop-opacity="0.17"/>
<stop offset="1" stop-color="#C4C4C4" stop-opacity="0"/>
</radialGradient>
</defs>
</svg>
