<svg width="80" height="80" viewBox="0 0 80 80" fill="none" xmlns="http://www.w3.org/2000/svg">
<path d="M57.0036 8.62731C46.207 4.40309 31.2561 6.00793 22.9939 13.5507C17.1602 18.8765 21.6753 20.3945 25.6527 30.1398C28.5312 37.1929 0 36.2222 0 48.9672C0 63.7014 20.6642 60.9084 28.3327 62.595C40.057 65.1737 50.2852 74.8203 62.812 73.5486C73.7175 72.4414 77.875 63.8837 79.3916 54.0732C82.2169 35.7957 75.2777 15.7773 57.0036 8.62731Z" fill="url(#paint0_linear)"/>
<path opacity="0.11" d="M65.9901 62.8178H62.7541V46.4105C66.1998 42.8178 68.3202 37.945 68.3202 32.586C68.3202 21.5652 59.3543 12.5992 48.3335 12.5992C38.4038 12.5992 30.1435 19.8785 28.6051 29.3806H17.6463C15.8479 29.3806 14.3901 30.8385 14.3901 32.6385V62.818H11.1545C10.0779 62.818 9.20508 63.6906 9.20508 64.7674V66.5588C9.20508 68.4478 10.7359 69.9803 12.6266 69.9803H64.5179C66.4087 69.9803 67.9395 68.448 67.9395 66.5588V64.7672C67.9395 63.6905 67.0666 62.8178 65.9901 62.8178ZM48.3335 22.7222C52.6504 22.7222 56.3259 25.511 57.6598 29.3806H39.0074C40.3412 25.511 44.0166 22.7222 48.3335 22.7222Z" fill="#091E42"/>
<path d="M66.0779 29.8256V62.4709C66.0779 62.9021 65.7279 63.2521 65.2967 63.2521H17.7139V29.8256C17.7139 28.0256 19.1717 26.5677 20.9701 26.5677H62.8217C64.6201 26.5677 66.0779 28.0256 66.0779 29.8256Z" fill="white"/>
<path d="M56.4844 44.3443V49.2646C56.4844 49.7787 56.0672 50.1959 55.5516 50.1959H24.0188C23.5031 50.1959 23.0859 49.7787 23.0859 49.2646V44.3443C23.0859 43.8287 23.5031 43.4115 24.0188 43.4115H55.5516C56.0672 43.4115 56.4844 43.8287 56.4844 44.3443Z" fill="#0052CC"/>
<path d="M25.4493 44.193H22.8389C22.4073 44.193 22.0576 43.8431 22.0576 43.4117C22.0576 42.9803 22.4073 42.6305 22.8389 42.6305H25.4493C25.8809 42.6305 26.2306 42.9803 26.2306 43.4117C26.2306 43.8431 25.8807 44.193 25.4493 44.193Z" fill="#091E42"/>
<path d="M30.9332 49.072H22.8379C22.4063 49.072 22.0566 48.7222 22.0566 48.2908C22.0566 47.8594 22.4063 47.5095 22.8379 47.5095H30.9332C31.3648 47.5095 31.7145 47.8594 31.7145 48.2908C31.7145 48.7222 31.3648 49.072 30.9332 49.072Z" fill="#091E42"/>
<path d="M34.7941 51.7102H22.8379C22.4063 51.7102 22.0566 51.3604 22.0566 50.929C22.0566 50.4975 22.4063 50.1477 22.8379 50.1477H34.7941C35.2257 50.1477 35.5754 50.4975 35.5754 50.929C35.5754 51.3604 35.2257 51.7102 34.7941 51.7102Z" fill="#091E42"/>
<path d="M66.0779 56.1226V62.471C66.0779 62.9022 65.7279 63.2522 65.2967 63.2522H17.7139V56.1226H66.0779Z" fill="#0052CC"/>
<path d="M71.2635 61.9546V63.746C71.2635 65.6351 69.7327 67.1676 67.8419 67.1676H15.9509C14.0601 67.1676 12.5293 65.6351 12.5293 63.746V61.9546C12.5293 60.8781 13.4021 60.0052 14.4787 60.0052H31.2079C31.4968 60.0052 31.7623 60.1648 31.8979 60.4199L32.9229 62.3493C33.0585 62.6045 33.3238 62.764 33.6129 62.764H50.1802C50.4691 62.764 50.7346 62.6045 50.8702 62.3493L51.8952 60.4199C52.0309 60.1648 52.2962 60.0052 52.5851 60.0052H69.3143C70.3909 60.0052 71.2635 60.8779 71.2635 61.9546Z" fill="white"/>
<path d="M25.2786 62.8362H18.5078C18.0764 62.8362 17.7266 62.4863 17.7266 62.0549V60.0052H26.0598V62.0549C26.0598 62.4863 25.71 62.8362 25.2786 62.8362Z" fill="white"/>
<path d="M65.2649 62.8362H58.4941C58.0627 62.8362 57.7129 62.4863 57.7129 62.0549V60.0052H66.0462V62.0549C66.0462 62.4863 65.6965 62.8362 65.2649 62.8362Z" fill="white"/>
<path d="M51.2776 50.5794C40.257 50.5794 31.291 41.6135 31.291 30.5927C31.291 19.5719 40.257 10.606 51.2776 10.606C62.2984 10.606 71.2643 19.5719 71.2643 30.5927C71.2643 41.6135 62.2984 50.5794 51.2776 50.5794ZM51.2776 20.7289C45.8387 20.7289 41.414 25.1538 41.414 30.5925C41.414 36.0313 45.8387 40.4561 51.2776 40.4561C56.7165 40.4561 61.1413 36.0313 61.1413 30.5925C61.1413 25.1538 56.7165 20.7289 51.2776 20.7289Z" fill="white"/>
<path d="M51.2773 10.606V20.7289C56.7163 20.7289 61.1411 25.1538 61.1411 30.5925H71.2641C71.2641 19.5719 62.2981 10.606 51.2773 10.606Z" fill="#0052CC"/>
<path d="M71.2637 30.5922H61.1402C61.1402 29.1875 60.8449 27.8485 60.3105 26.6375L69.1324 21.6204C70.4965 24.3188 71.2637 27.3688 71.2637 30.5922Z" fill="#0052CC"/>
<path d="M48.6352 31.4659C49.1175 31.4659 49.5086 31.0748 49.5086 30.5924C49.5086 30.11 49.1175 29.719 48.6352 29.719C48.1528 29.719 47.7617 30.11 47.7617 30.5924C47.7617 31.0748 48.1528 31.4659 48.6352 31.4659Z" fill="#091E42"/>
<path d="M51.2777 31.4659C51.7601 31.4659 52.1512 31.0748 52.1512 30.5924C52.1512 30.11 51.7601 29.719 51.2777 29.719C50.7953 29.719 50.4043 30.11 50.4043 30.5924C50.4043 31.0748 50.7953 31.4659 51.2777 31.4659Z" fill="#091E42"/>
<path d="M53.9193 31.4659C54.4017 31.4659 54.7928 31.0748 54.7928 30.5924C54.7928 30.11 54.4017 29.719 53.9193 29.719C53.4369 29.719 53.0459 30.11 53.0459 30.5924C53.0459 31.0748 53.4369 31.4659 53.9193 31.4659Z" fill="#091E42"/>
<path d="M69.3143 59.2241H66.8604V44.3049C70.0854 40.6442 72.0451 35.8433 72.0451 30.5927C72.0451 19.1411 62.7287 9.82471 51.2771 9.82471C41.4794 9.82471 33.2457 16.645 31.0716 25.7871H20.971C18.7443 25.7871 16.9327 27.5986 16.9327 29.8253V59.2239H14.4788C12.973 59.2239 11.748 60.4489 11.748 61.9546V63.7458C11.748 66.0633 13.6334 67.9486 15.9509 67.9486H26.4766C26.9082 67.9486 27.2579 67.5988 27.2579 67.1674C27.2579 66.736 26.9082 66.3861 26.4766 66.3861H15.9509C14.4951 66.3861 13.3105 65.2016 13.3105 63.7458V61.9547C13.3105 61.3105 13.8346 60.7866 14.4788 60.7866H16.9462V62.055C16.9462 62.9166 17.6471 63.6175 18.5087 63.6175H25.2795C26.141 63.6175 26.842 62.9166 26.842 62.055V60.7866H31.2079L32.233 62.7161C32.5049 63.2275 33.0337 63.5453 33.6129 63.5453H50.1802C50.7594 63.5453 51.2882 63.2277 51.5602 62.716L52.5851 60.7866H56.9318V62.055C56.9318 62.9166 57.6327 63.6175 58.4943 63.6175H65.2651C66.1266 63.6175 66.8276 62.9166 66.8276 62.055V60.7866H69.3143C69.9584 60.7866 70.4824 61.3106 70.4824 61.9547V63.7461C70.4824 65.2019 69.298 66.3864 67.8423 66.3864H30.8674C30.4359 66.3864 30.0862 66.7363 30.0862 67.1677C30.0862 67.5991 30.4359 67.9489 30.8674 67.9489H67.8423C70.1596 67.9489 72.0449 66.0636 72.0449 63.7461V61.9547C72.0449 60.4489 70.8199 59.2241 69.3143 59.2241ZM61.8904 29.8113C61.8184 28.8244 61.6137 27.8741 61.2898 26.9796L68.791 22.7135C69.776 24.8944 70.364 27.2913 70.4654 29.8113H61.8904ZM51.2771 21.5102C54.5213 21.5102 57.3721 23.2213 58.979 25.7871H46.637C46.2054 25.7871 45.8557 26.1369 45.8557 26.5683C45.8557 26.9997 46.2054 27.3496 46.637 27.3496H59.7588C60.1455 28.3575 60.3596 29.4502 60.3596 30.5925C60.3596 35.6006 56.2852 39.675 51.2771 39.675C46.269 39.675 42.1948 35.6006 42.1948 30.5925C42.1948 25.5844 46.269 21.5102 51.2771 21.5102ZM68.0884 21.3156L60.6479 25.5472C58.9641 22.4327 55.7724 20.2505 52.0584 19.9794V11.4044C58.9571 11.6819 64.9301 15.6152 68.0884 21.3156ZM50.4959 11.4044V19.9794C44.9901 20.3811 40.6323 24.986 40.6323 30.5925C40.6323 36.4622 45.4076 41.2375 51.2771 41.2375C56.8837 41.2375 61.4887 36.8797 61.8904 31.3738H70.4654C70.054 41.6027 61.6052 49.798 51.2771 49.798C40.6873 49.798 32.0718 41.1824 32.0718 30.5925C32.0718 20.2646 40.267 11.8158 50.4959 11.4044ZM20.971 27.3496H30.763C30.5966 28.4066 30.5093 29.4896 30.5093 30.5925C30.5093 42.0441 39.8257 51.3605 51.2771 51.3605C56.6765 51.3605 61.6007 49.2888 65.2979 45.8992V55.3416H18.4952V29.8253C18.4952 28.4602 19.606 27.3496 20.971 27.3496ZM25.2805 62.0549H18.5087V60.7864H25.2799L25.2805 62.0549ZM51.2052 60.0535L50.1802 61.9827H33.6129L32.5877 60.0531C32.3159 59.5416 31.7871 59.2238 31.2079 59.2238H18.4952V56.9039H65.2979V59.2238H52.5851C52.006 59.2241 51.4773 59.5417 51.2052 60.0535ZM58.4943 62.055V60.7866H65.2655L65.2662 62.055H58.4943Z" fill="#091E42"/>
<path d="M43.2517 58.6176H40.542C40.1104 58.6176 39.7607 58.9674 39.7607 59.3988C39.7607 59.8302 40.1104 60.1801 40.542 60.1801H43.2517C43.6832 60.1801 44.0329 59.8302 44.0329 59.3988C44.0329 58.9674 43.6831 58.6176 43.2517 58.6176Z" fill="#091E42"/>
<path d="M27.4963 34.647C27.4963 33.2156 26.3317 32.0513 24.9005 32.0513C23.4692 32.0513 22.3047 33.2158 22.3047 34.647C22.3047 35.353 22.5888 35.9931 23.0477 36.4616C22.5889 36.93 22.3047 37.5702 22.3047 38.2761C22.3047 38.7075 22.6544 39.0574 23.0859 39.0574C23.5175 39.0574 23.8672 38.7075 23.8672 38.2761C23.8672 37.7064 24.3308 37.2428 24.9005 37.2428C25.4702 37.2428 25.9337 37.7064 25.9337 38.2761C25.9337 38.7075 26.2834 39.0574 26.715 39.0574C27.1466 39.0574 27.4963 38.7075 27.4963 38.2761C27.4963 37.5702 27.2122 36.93 26.7533 36.4616C27.212 35.9933 27.4963 35.353 27.4963 34.647ZM24.9003 33.6138C25.47 33.6138 25.9336 34.0774 25.9336 34.647C25.9336 35.2167 25.47 35.6803 24.9003 35.6803C24.3306 35.6803 23.867 35.2167 23.867 34.647C23.867 34.0774 24.3306 33.6138 24.9003 33.6138Z" fill="#091E42"/>
<path d="M15.0736 24.0504C14.4893 24.0504 13.905 23.8281 13.4601 23.3832C12.5706 22.4934 12.5706 21.0459 13.4601 20.1563C14.3498 19.2668 15.7975 19.267 16.6868 20.1563C17.5764 21.0459 17.5764 22.4935 16.687 23.3831H16.6868C16.2421 23.8281 15.6578 24.0504 15.0736 24.0504ZM16.1345 22.8309H16.1361H16.1345ZM15.0736 21.051C14.8893 21.051 14.7051 21.1212 14.5648 21.2613C14.2845 21.5417 14.2845 21.9979 14.565 22.2784C14.8451 22.5587 15.3017 22.5587 15.5821 22.2784C15.8625 21.9981 15.8625 21.5417 15.5821 21.2613C15.4418 21.121 15.2576 21.051 15.0736 21.051Z" fill="#0052CC"/>
<path d="M72.5527 46.0225H72.0449V45.5146C72.0449 45.0832 71.6952 44.7334 71.2637 44.7334C70.8321 44.7334 70.4824 45.0832 70.4824 45.5146V46.0225H69.9746C69.543 46.0225 69.1934 46.3723 69.1934 46.8037C69.1934 47.2351 69.543 47.585 69.9746 47.585H70.4824V48.0928C70.4824 48.5242 70.8321 48.874 71.2637 48.874C71.6952 48.874 72.0449 48.5242 72.0449 48.0928V47.585H72.5527C72.9843 47.585 73.334 47.2351 73.334 46.8037C73.334 46.3723 72.9843 46.0225 72.5527 46.0225Z" fill="#0052CC"/>
<path d="M11.3145 27.5732H10.8066V27.0654C10.8066 26.634 10.457 26.2842 10.0254 26.2842C9.59383 26.2842 9.24414 26.634 9.24414 27.0654V27.5732H8.73633C8.30477 27.5732 7.95508 27.9231 7.95508 28.3545C7.95508 28.7859 8.30477 29.1357 8.73633 29.1357H9.24414V29.6436C9.24414 30.075 9.59383 30.4248 10.0254 30.4248C10.457 30.4248 10.8066 30.075 10.8066 29.6436V29.1357H11.3145C11.746 29.1357 12.0957 28.7859 12.0957 28.3545C12.0957 27.9231 11.746 27.5732 11.3145 27.5732Z" fill="#0052CC"/>
<path d="M74.053 56.1219C73.4688 56.1219 72.8844 55.8995 72.4397 55.4547C71.55 54.565 71.55 53.1175 72.4397 52.2278C73.3293 51.3383 74.7768 51.3383 75.6663 52.2278C76.556 53.1175 76.556 54.565 75.6663 55.4547C75.2216 55.8994 74.6374 56.1219 74.053 56.1219ZM74.053 53.1224C73.8688 53.1224 73.6847 53.1925 73.5444 53.3327C73.2641 53.613 73.2641 54.0694 73.5444 54.3497C73.8249 54.6302 74.2811 54.6302 74.5616 54.3497C74.8419 54.0694 74.8419 53.613 74.5616 53.3327C74.4214 53.1925 74.2372 53.1224 74.053 53.1224Z" fill="#0052CC"/>
<path d="M65.5421 11.1841C64.9579 11.1841 64.3736 10.9617 63.9289 10.5169C63.0393 9.6272 63.0393 8.1797 63.9289 7.29001C64.8184 6.40032 66.2659 6.40048 67.1554 7.29001C68.0449 8.17954 68.0449 9.6272 67.1556 10.5167H67.1554C66.7106 10.9617 66.1264 11.1841 65.5421 11.1841ZM66.6031 9.96438H66.6046H66.6031ZM65.5421 8.18454C65.3579 8.18454 65.1739 8.2547 65.0335 8.39485C64.7532 8.67517 64.7532 9.13157 65.0337 9.41204C65.3139 9.69235 65.7703 9.69235 66.0507 9.41204C66.331 9.13173 66.331 8.67532 66.0507 8.39501C65.9104 8.2547 65.7262 8.18454 65.5421 8.18454Z" fill="#0052CC"/>
<defs>
<linearGradient id="paint0_linear" x1="65.7583" y1="12.7556" x2="28.4147" y2="70.7242" gradientUnits="userSpaceOnUse">
<stop stop-color="#D2E3FC" stop-opacity="0"/>
<stop offset="1" stop-color="#B8D3FB"/>
</linearGradient>
</defs>
</svg>
