<svg width="64" height="64" viewBox="0 0 64 64" fill="none" xmlns="http://www.w3.org/2000/svg">
<path d="M48.0001 8H16.0001C13.0546 8 10.6667 10.3878 10.6667 13.3333V50.6667C10.6667 53.6122 13.0546 56 16.0001 56H48.0001C50.9456 56 53.3334 53.6122 53.3334 50.6667V13.3333C53.3334 10.3878 50.9456 8 48.0001 8Z" stroke="#0052CC" stroke-width="2" stroke-linecap="round" stroke-linejoin="round"/>
<path d="M40.0002 18.668H24.0002C22.5274 18.668 21.3335 19.8619 21.3335 21.3346V24.0013C21.3335 25.4741 22.5274 26.668 24.0002 26.668H40.0002C41.4729 26.668 42.6668 25.4741 42.6668 24.0013V21.3346C42.6668 19.8619 41.4729 18.668 40.0002 18.668Z" stroke="#0052CC" stroke-width="2" stroke-linecap="round" stroke-linejoin="round"/>
<path d="M21.3335 37.332V37.3587" stroke="#0052CC" stroke-width="4" stroke-linecap="round" stroke-linejoin="round"/>
<path d="M32.0001 37.332V37.3587" stroke="#0052CC" stroke-width="4" stroke-linecap="round" stroke-linejoin="round"/>
<path d="M42.6667 37.332V37.3587" stroke="#0052CC" stroke-width="4" stroke-linecap="round" stroke-linejoin="round"/>
<path d="M21.3335 45.332V45.3587" stroke="#0052CC" stroke-width="4" stroke-linecap="round" stroke-linejoin="round"/>
<path d="M32.0001 45.332V45.3587" stroke="#0052CC" stroke-width="4" stroke-linecap="round" stroke-linejoin="round"/>
<path d="M42.6667 45.332V45.3587" stroke="#0052CC" stroke-width="4" stroke-linecap="round" stroke-linejoin="round"/>
</svg>
