<svg width="20" height="20" viewBox="0 0 20 20" fill="none" xmlns="http://www.w3.org/2000/svg">
<path fill-rule="evenodd" clip-rule="evenodd" d="M10.0001 3.33464C6.31818 3.33464 3.33341 6.3194 3.33341 10.0013C3.33341 13.6832 6.31818 16.668 10.0001 16.668C13.682 16.668 16.6667 13.6832 16.6667 10.0013C16.6667 6.3194 13.682 3.33464 10.0001 3.33464ZM1.66675 10.0013C1.66675 5.39893 5.39771 1.66797 10.0001 1.66797C14.6025 1.66797 18.3334 5.39893 18.3334 10.0013C18.3334 14.6037 14.6025 18.3346 10.0001 18.3346C5.39771 18.3346 1.66675 14.6037 1.66675 10.0013Z" fill="#0052CC"/>
<path fill-rule="evenodd" clip-rule="evenodd" d="M9.16675 6.66536C9.16675 6.20513 9.53984 5.83203 10.0001 5.83203H10.0084C10.4687 5.83203 10.8417 6.20513 10.8417 6.66536C10.8417 7.1256 10.4687 7.4987 10.0084 7.4987H10.0001C9.53984 7.4987 9.16675 7.1256 9.16675 6.66536Z" fill="#0052CC"/>
<path fill-rule="evenodd" clip-rule="evenodd" d="M8.33325 10.0013C8.33325 9.54106 8.70635 9.16797 9.16659 9.16797H9.99992C10.4602 9.16797 10.8333 9.54106 10.8333 10.0013V12.5013C11.2935 12.5013 11.6666 12.8744 11.6666 13.3346C11.6666 13.7949 11.2935 14.168 10.8333 14.168H9.99992C9.53968 14.168 9.16659 13.7949 9.16659 13.3346V10.8346C8.70635 10.8346 8.33325 10.4615 8.33325 10.0013Z" fill="#0052CC"/>
</svg>
