<svg width="64" height="64" viewBox="0 0 64 64" fill="none" xmlns="http://www.w3.org/2000/svg">
<path d="M6.66667 35.6667H11.6667C12.1087 35.6667 12.5326 35.4911 12.8452 35.1785C13.1577 34.866 13.3333 34.442 13.3333 34V32.3333C13.3333 31.4493 13.6845 30.6014 14.3096 29.9763C14.9348 29.3512 15.7826 29 16.6667 29C17.5507 29 18.3986 29.3512 19.0237 29.9763C19.6488 30.6014 20 31.4493 20 32.3333V34C20 34.442 20.1756 34.866 20.4882 35.1785C20.8007 35.4911 21.2246 35.6667 21.6667 35.6667H26.6667C27.1087 35.6667 27.5326 35.8423 27.8452 36.1548C28.1577 36.4674 28.3333 36.8913 28.3333 37.3333V42.3333C28.3333 42.7754 28.5089 43.1993 28.8215 43.5118C29.134 43.8244 29.558 44 30 44H31.6667C32.5507 44 33.3986 44.3512 34.0237 44.9763C34.6488 45.6014 35 46.4493 35 47.3333C35 48.2174 34.6488 49.0652 34.0237 49.6904C33.3986 50.3155 32.5507 50.6667 31.6667 50.6667H30C29.558 50.6667 29.134 50.8423 28.8215 51.1548C28.5089 51.4674 28.3333 51.8913 28.3333 52.3333V57.3333C28.3333 57.7754 28.1577 58.1993 27.8452 58.5118C27.5326 58.8244 27.1087 59 26.6667 59H21.6667C21.2246 59 20.8007 58.8244 20.4882 58.5118C20.1756 58.1993 20 57.7754 20 57.3333V55.6667C20 54.7826 19.6488 53.9348 19.0237 53.3096C18.3986 52.6845 17.5507 52.3333 16.6667 52.3333C15.7826 52.3333 14.9348 52.6845 14.3096 53.3096C13.6845 53.9348 13.3333 54.7826 13.3333 55.6667V57.3333C13.3333 57.7754 13.1577 58.1993 12.8452 58.5118C12.5326 58.8244 12.1087 59 11.6667 59H6.66667C6.22464 59 5.80072 58.8244 5.48816 58.5118C5.17559 58.1993 5 57.7754 5 57.3333V52.3333C5 51.8913 5.17559 51.4674 5.48816 51.1548C5.80072 50.8423 6.22464 50.6667 6.66667 50.6667H8.33333C9.21739 50.6667 10.0652 50.3155 10.6904 49.6904C11.3155 49.0652 11.6667 48.2174 11.6667 47.3333C11.6667 46.4493 11.3155 45.6014 10.6904 44.9763C10.0652 44.3512 9.21739 44 8.33333 44H6.66667C6.22464 44 5.80072 43.8244 5.48816 43.5118C5.17559 43.1993 5 42.7754 5 42.3333V37.3333C5 36.8913 5.17559 36.4674 5.48816 36.1548C5.80072 35.8423 6.22464 35.6667 6.66667 35.6667" stroke="#0052CC" stroke-width="2" stroke-linecap="round" stroke-linejoin="round"/>
<path d="M6.66667 11.6667H11.6667C12.1087 11.6667 12.5326 11.4911 12.8452 11.1785C13.1577 10.866 13.3333 10.442 13.3333 10V8.33333C13.3333 7.44928 13.6845 6.60143 14.3096 5.97631C14.9348 5.35119 15.7826 5 16.6667 5C17.5507 5 18.3986 5.35119 19.0237 5.97631C19.6488 6.60143 20 7.44928 20 8.33333V10C20 10.442 20.1756 10.866 20.4882 11.1785C20.8007 11.4911 21.2246 11.6667 21.6667 11.6667H26.6667C27.1087 11.6667 27.5326 11.8423 27.8452 12.1548C28.1577 12.4674 28.3333 12.8913 28.3333 13.3333V18.3333C28.3333 18.7754 28.5089 19.1993 28.8215 19.5118C29.134 19.8244 29.558 20 30 20H31.6667C32.5507 20 33.3986 20.3512 34.0237 20.9763C34.6488 21.6014 35 22.4493 35 23.3333C35 24.2174 34.6488 25.0652 34.0237 25.6904C33.3986 26.3155 32.5507 26.6667 31.6667 26.6667H30C29.558 26.6667 29.134 26.8423 28.8215 27.1548C28.5089 27.4674 28.3333 27.8913 28.3333 28.3333V33.3333C28.3333 33.7754 28.1577 34.1993 27.8452 34.5118C27.5326 34.8244 27.1087 35 26.6667 35H21.6667C21.2246 35 20.8007 34.8244 20.4882 34.5118C20.1756 34.1993 20 33.7754 20 33.3333V31.6667C20 30.7826 19.6488 29.9348 19.0237 29.3096C18.3986 28.6845 17.5507 28.3333 16.6667 28.3333C15.7826 28.3333 14.9348 28.6845 14.3096 29.3096C13.6845 29.9348 13.3333 30.7826 13.3333 31.6667V33.3333C13.3333 33.7754 13.1577 34.1993 12.8452 34.5118C12.5326 34.8244 12.1087 35 11.6667 35H6.66667C6.22464 35 5.80072 34.8244 5.48816 34.5118C5.17559 34.1993 5 33.7754 5 33.3333V28.3333C5 27.8913 5.17559 27.4674 5.48816 27.1548C5.80072 26.8423 6.22464 26.6667 6.66667 26.6667H8.33333C9.21739 26.6667 10.0652 26.3155 10.6904 25.6904C11.3155 25.0652 11.6667 24.2174 11.6667 23.3333C11.6667 22.4493 11.3155 21.6014 10.6904 20.9763C10.0652 20.3512 9.21739 20 8.33333 20H6.66667C6.22464 20 5.80072 19.8244 5.48816 19.5118C5.17559 19.1993 5 18.7754 5 18.3333V13.3333C5 12.8913 5.17559 12.4674 5.48816 12.1548C5.80072 11.8423 6.22464 11.6667 6.66667 11.6667" stroke="#0052CC" stroke-width="2" stroke-linecap="round" stroke-linejoin="round"/>
<path d="M30.6667 35.6667H35.6667C36.1087 35.6667 36.5326 35.4911 36.8452 35.1785C37.1577 34.866 37.3333 34.442 37.3333 34V32.3333C37.3333 31.4493 37.6845 30.6014 38.3096 29.9763C38.9348 29.3512 39.7826 29 40.6667 29C41.5507 29 42.3986 29.3512 43.0237 29.9763C43.6488 30.6014 44 31.4493 44 32.3333V34C44 34.442 44.1756 34.866 44.4882 35.1785C44.8007 35.4911 45.2246 35.6667 45.6667 35.6667H50.6667C51.1087 35.6667 51.5326 35.8423 51.8452 36.1548C52.1577 36.4674 52.3333 36.8913 52.3333 37.3333V42.3333C52.3333 42.7754 52.5089 43.1993 52.8215 43.5118C53.134 43.8244 53.558 44 54 44H55.6667C56.5507 44 57.3986 44.3512 58.0237 44.9763C58.6488 45.6014 59 46.4493 59 47.3333C59 48.2174 58.6488 49.0652 58.0237 49.6904C57.3986 50.3155 56.5507 50.6667 55.6667 50.6667H54C53.558 50.6667 53.134 50.8423 52.8215 51.1548C52.5089 51.4674 52.3333 51.8913 52.3333 52.3333V57.3333C52.3333 57.7754 52.1577 58.1993 51.8452 58.5118C51.5326 58.8244 51.1087 59 50.6667 59H45.6667C45.2246 59 44.8007 58.8244 44.4882 58.5118C44.1756 58.1993 44 57.7754 44 57.3333V55.6667C44 54.7826 43.6488 53.9348 43.0237 53.3096C42.3986 52.6845 41.5507 52.3333 40.6667 52.3333C39.7826 52.3333 38.9348 52.6845 38.3096 53.3096C37.6845 53.9348 37.3333 54.7826 37.3333 55.6667V57.3333C37.3333 57.7754 37.1577 58.1993 36.8452 58.5118C36.5326 58.8244 36.1087 59 35.6667 59H30.6667C30.2246 59 29.8007 58.8244 29.4882 58.5118C29.1756 58.1993 29 57.7754 29 57.3333V52.3333C29 51.8913 29.1756 51.4674 29.4882 51.1548C29.8007 50.8423 30.2246 50.6667 30.6667 50.6667H32.3333C33.2174 50.6667 34.0652 50.3155 34.6904 49.6904C35.3155 49.0652 35.6667 48.2174 35.6667 47.3333C35.6667 46.4493 35.3155 45.6014 34.6904 44.9763C34.0652 44.3512 33.2174 44 32.3333 44H30.6667C30.2246 44 29.8007 43.8244 29.4882 43.5118C29.1756 43.1993 29 42.7754 29 42.3333V37.3333C29 36.8913 29.1756 36.4674 29.4882 36.1548C29.8007 35.8423 30.2246 35.6667 30.6667 35.6667" stroke="#0052CC" stroke-width="2" stroke-linecap="round" stroke-linejoin="round"/>
<path d="M30.6667 11.6667H35.6667C36.1087 11.6667 36.5326 11.4911 36.8452 11.1785C37.1577 10.866 37.3333 10.442 37.3333 10V8.33333C37.3333 7.44928 37.6845 6.60143 38.3096 5.97631C38.9348 5.35119 39.7826 5 40.6667 5C41.5507 5 42.3986 5.35119 43.0237 5.97631C43.6488 6.60143 44 7.44928 44 8.33333V10C44 10.442 44.1756 10.866 44.4882 11.1785C44.8007 11.4911 45.2246 11.6667 45.6667 11.6667H50.6667C51.1087 11.6667 51.5326 11.8423 51.8452 12.1548C52.1577 12.4674 52.3333 12.8913 52.3333 13.3333V18.3333C52.3333 18.7754 52.5089 19.1993 52.8215 19.5118C53.134 19.8244 53.558 20 54 20H55.6667C56.5507 20 57.3986 20.3512 58.0237 20.9763C58.6488 21.6014 59 22.4493 59 23.3333C59 24.2174 58.6488 25.0652 58.0237 25.6904C57.3986 26.3155 56.5507 26.6667 55.6667 26.6667H54C53.558 26.6667 53.134 26.8423 52.8215 27.1548C52.5089 27.4674 52.3333 27.8913 52.3333 28.3333V33.3333C52.3333 33.7754 52.1577 34.1993 51.8452 34.5118C51.5326 34.8244 51.1087 35 50.6667 35H45.6667C45.2246 35 44.8007 34.8244 44.4882 34.5118C44.1756 34.1993 44 33.7754 44 33.3333V31.6667C44 30.7826 43.6488 29.9348 43.0237 29.3096C42.3986 28.6845 41.5507 28.3333 40.6667 28.3333C39.7826 28.3333 38.9348 28.6845 38.3096 29.3096C37.6845 29.9348 37.3333 30.7826 37.3333 31.6667V33.3333C37.3333 33.7754 37.1577 34.1993 36.8452 34.5118C36.5326 34.8244 36.1087 35 35.6667 35H30.6667C30.2246 35 29.8007 34.8244 29.4882 34.5118C29.1756 34.1993 29 33.7754 29 33.3333V28.3333C29 27.8913 29.1756 27.4674 29.4882 27.1548C29.8007 26.8423 30.2246 26.6667 30.6667 26.6667H32.3333C33.2174 26.6667 34.0652 26.3155 34.6904 25.6904C35.3155 25.0652 35.6667 24.2174 35.6667 23.3333C35.6667 22.4493 35.3155 21.6014 34.6904 20.9763C34.0652 20.3512 33.2174 20 32.3333 20H30.6667C30.2246 20 29.8007 19.8244 29.4882 19.5118C29.1756 19.1993 29 18.7754 29 18.3333V13.3333C29 12.8913 29.1756 12.4674 29.4882 12.1548C29.8007 11.8423 30.2246 11.6667 30.6667 11.6667Z" fill="#0052CC"/>
<path d="M30.6667 11.6667H35.6667C36.1087 11.6667 36.5326 11.4911 36.8452 11.1785C37.1577 10.866 37.3333 10.442 37.3333 10V8.33333C37.3333 7.44928 37.6845 6.60143 38.3096 5.97631C38.9348 5.35119 39.7826 5 40.6667 5C41.5507 5 42.3986 5.35119 43.0237 5.97631C43.6488 6.60143 44 7.44928 44 8.33333V10C44 10.442 44.1756 10.866 44.4882 11.1785C44.8007 11.4911 45.2246 11.6667 45.6667 11.6667H50.6667C51.1087 11.6667 51.5326 11.8423 51.8452 12.1548C52.1577 12.4674 52.3333 12.8913 52.3333 13.3333V18.3333C52.3333 18.7754 52.5089 19.1993 52.8215 19.5118C53.134 19.8244 53.558 20 54 20H55.6667C56.5507 20 57.3986 20.3512 58.0237 20.9763C58.6488 21.6014 59 22.4493 59 23.3333C59 24.2174 58.6488 25.0652 58.0237 25.6904C57.3986 26.3155 56.5507 26.6667 55.6667 26.6667H54C53.558 26.6667 53.134 26.8423 52.8215 27.1548C52.5089 27.4674 52.3333 27.8913 52.3333 28.3333V33.3333C52.3333 33.7754 52.1577 34.1993 51.8452 34.5118C51.5326 34.8244 51.1087 35 50.6667 35H45.6667C45.2246 35 44.8007 34.8244 44.4882 34.5118C44.1756 34.1993 44 33.7754 44 33.3333V31.6667C44 30.7826 43.6488 29.9348 43.0237 29.3096C42.3986 28.6845 41.5507 28.3333 40.6667 28.3333C39.7826 28.3333 38.9348 28.6845 38.3096 29.3096C37.6845 29.9348 37.3333 30.7826 37.3333 31.6667V33.3333C37.3333 33.7754 37.1577 34.1993 36.8452 34.5118C36.5326 34.8244 36.1087 35 35.6667 35H30.6667C30.2246 35 29.8007 34.8244 29.4882 34.5118C29.1756 34.1993 29 33.7754 29 33.3333V28.3333C29 27.8913 29.1756 27.4674 29.4882 27.1548C29.8007 26.8423 30.2246 26.6667 30.6667 26.6667H32.3333C33.2174 26.6667 34.0652 26.3155 34.6904 25.6904C35.3155 25.0652 35.6667 24.2174 35.6667 23.3333C35.6667 22.4493 35.3155 21.6014 34.6904 20.9763C34.0652 20.3512 33.2174 20 32.3333 20H30.6667C30.2246 20 29.8007 19.8244 29.4882 19.5118C29.1756 19.1993 29 18.7754 29 18.3333V13.3333C29 12.8913 29.1756 12.4674 29.4882 12.1548C29.8007 11.8423 30.2246 11.6667 30.6667 11.6667" stroke="#0052CC" stroke-width="2" stroke-linecap="round" stroke-linejoin="round"/>
</svg>
