<svg width="64" height="64" viewBox="0 0 64 64" fill="none" xmlns="http://www.w3.org/2000/svg">
<path d="M18.6667 35.6672H23.6667C24.1087 35.6672 24.5326 35.4916 24.8452 35.179C25.1577 34.8664 25.3333 34.4425 25.3333 34.0005V32.3338C25.3333 31.4498 25.6845 30.6019 26.3096 29.9768C26.9348 29.3517 27.7826 29.0005 28.6667 29.0005C29.5507 29.0005 30.3986 29.3517 31.0237 29.9768C31.6488 30.6019 32 31.4498 32 32.3338V34.0005C32 34.4425 32.1756 34.8664 32.4882 35.179C32.8007 35.4916 33.2246 35.6672 33.6667 35.6672H38.6667C39.1087 35.6672 39.5326 35.8428 39.8452 36.1553C40.1577 36.4679 40.3333 36.8918 40.3333 37.3338V42.3338C40.3333 42.7758 40.5089 43.1998 40.8215 43.5123C41.134 43.8249 41.558 44.0005 42 44.0005H43.6667C44.5507 44.0005 45.3986 44.3517 46.0237 44.9768C46.6488 45.6019 47 46.4498 47 47.3338C47 48.2179 46.6488 49.0657 46.0237 49.6908C45.3986 50.316 44.5507 50.6672 43.6667 50.6672H42C41.558 50.6672 41.134 50.8427 40.8215 51.1553C40.5089 51.4679 40.3333 51.8918 40.3333 52.3338V57.3338C40.3333 57.7758 40.1577 58.1998 39.8452 58.5123C39.5326 58.8249 39.1087 59.0005 38.6667 59.0005H33.6667C33.2246 59.0005 32.8007 58.8249 32.4882 58.5123C32.1756 58.1998 32 57.7758 32 57.3338V55.6672C32 54.7831 31.6488 53.9353 31.0237 53.3101C30.3986 52.685 29.5507 52.3338 28.6667 52.3338C27.7826 52.3338 26.9348 52.685 26.3096 53.3101C25.6845 53.9353 25.3333 54.7831 25.3333 55.6672V57.3338C25.3333 57.7758 25.1577 58.1998 24.8452 58.5123C24.5326 58.8249 24.1087 59.0005 23.6667 59.0005H18.6667C18.2246 59.0005 17.8007 58.8249 17.4882 58.5123C17.1756 58.1998 17 57.7758 17 57.3338V52.3338C17 51.8918 17.1756 51.4679 17.4882 51.1553C17.8007 50.8427 18.2246 50.6672 18.6667 50.6672H20.3333C21.2174 50.6672 22.0652 50.316 22.6904 49.6908C23.3155 49.0657 23.6667 48.2179 23.6667 47.3338C23.6667 46.4498 23.3155 45.6019 22.6904 44.9768C22.0652 44.3517 21.2174 44.0005 20.3333 44.0005H18.6667C18.2246 44.0005 17.8007 43.8249 17.4882 43.5123C17.1756 43.1998 17 42.7758 17 42.3338V37.3338C17 36.8918 17.1756 36.4679 17.4882 36.1553C17.8007 35.8428 18.2246 35.6672 18.6667 35.6672Z" fill="#0052CC"/>
<path d="M18.6667 35.6672H23.6667C24.1087 35.6672 24.5326 35.4916 24.8452 35.179C25.1577 34.8664 25.3333 34.4425 25.3333 34.0005V32.3338C25.3333 31.4498 25.6845 30.6019 26.3096 29.9768C26.9348 29.3517 27.7826 29.0005 28.6667 29.0005C29.5507 29.0005 30.3986 29.3517 31.0237 29.9768C31.6488 30.6019 32 31.4498 32 32.3338V34.0005C32 34.4425 32.1756 34.8664 32.4882 35.179C32.8007 35.4916 33.2246 35.6672 33.6667 35.6672H38.6667C39.1087 35.6672 39.5326 35.8427 39.8452 36.1553C40.1577 36.4679 40.3333 36.8918 40.3333 37.3338V42.3338C40.3333 42.7758 40.5089 43.1998 40.8215 43.5123C41.134 43.8249 41.558 44.0005 42 44.0005H43.6667C44.5507 44.0005 45.3986 44.3517 46.0237 44.9768C46.6488 45.6019 47 46.4498 47 47.3338C47 48.2179 46.6488 49.0657 46.0237 49.6908C45.3986 50.316 44.5507 50.6672 43.6667 50.6672H42C41.558 50.6672 41.134 50.8427 40.8215 51.1553C40.5089 51.4679 40.3333 51.8918 40.3333 52.3338V57.3338C40.3333 57.7758 40.1577 58.1998 39.8452 58.5123C39.5326 58.8249 39.1087 59.0005 38.6667 59.0005H33.6667C33.2246 59.0005 32.8007 58.8249 32.4882 58.5123C32.1756 58.1998 32 57.7758 32 57.3338V55.6672C32 54.7831 31.6488 53.9353 31.0237 53.3101C30.3986 52.685 29.5507 52.3338 28.6667 52.3338C27.7826 52.3338 26.9348 52.685 26.3096 53.3101C25.6845 53.9353 25.3333 54.7831 25.3333 55.6672V57.3338C25.3333 57.7758 25.1577 58.1998 24.8452 58.5123C24.5326 58.8249 24.1087 59.0005 23.6667 59.0005H18.6667C18.2246 59.0005 17.8007 58.8249 17.4882 58.5123C17.1756 58.1998 17 57.7758 17 57.3338V52.3338C17 51.8918 17.1756 51.4679 17.4882 51.1553C17.8007 50.8427 18.2246 50.6672 18.6667 50.6672H20.3333C21.2174 50.6672 22.0652 50.316 22.6904 49.6908C23.3155 49.0657 23.6667 48.2179 23.6667 47.3338C23.6667 46.4498 23.3155 45.6019 22.6904 44.9768C22.0652 44.3517 21.2174 44.0005 20.3333 44.0005H18.6667C18.2246 44.0005 17.8007 43.8249 17.4882 43.5123C17.1756 43.1998 17 42.7758 17 42.3338V37.3338C17 36.8918 17.1756 36.4679 17.4882 36.1553C17.8007 35.8427 18.2246 35.6672 18.6667 35.6672" stroke="#0052CC" stroke-width="2" stroke-linecap="round" stroke-linejoin="round"/>
</svg>
