<svg width="49" height="141" viewBox="0 0 49 141" fill="none" xmlns="http://www.w3.org/2000/svg">
<path d="M13.7623 53.6282C13.7623 58.75 14.5689 62.5662 16.1821 65.0769C17.7953 67.5876 20.3663 69.3953 23.8951 70.5C20.3663 71.6047 17.7953 73.4124 16.1821 75.9231C14.5689 78.4338 13.7623 82.25 13.7623 87.3718V111.474C13.7623 115.09 12.8549 117.851 11.0401 119.76C9.12448 121.668 6.35185 122.622 2.72223 122.622H0V141H8.7716C18.1481 141 25.2562 138.69 30.0957 134.071C34.9352 129.451 37.3549 122.772 37.3549 114.035V86.7692C37.3549 84.4594 37.9599 82.7019 39.1698 81.4968C40.2788 80.2917 41.892 79.6891 44.0093 79.6891H49V61.3109H44.0093C41.892 61.3109 40.2788 60.7083 39.1698 59.5032C37.9599 58.2981 37.3549 56.5406 37.3549 54.2308V26.9647C37.3549 18.2276 34.9352 11.5491 30.0957 6.92949C25.2562 2.30983 18.1481 0 8.7716 0H0V18.3782H2.72223C6.35185 18.3782 9.12448 19.3323 11.0401 21.2404C12.8549 23.1485 13.7623 25.9103 13.7623 29.5256V53.6282Z" fill="#091E42"/>
</svg>
