<svg
   width="200"
   height="36"
   viewBox="0 0 52.916665 9.5250002"
   xmlns="http://www.w3.org/2000/svg"
   xmlns:svg="http://www.w3.org/2000/svg">
   <path
      d="m 15.356762,2.3138128 -3.96412,-2.2886811 c -0.05696,-0.033509 -0.127344,-0.033509 -0.184309,0 L 8.021612,1.8647884 7.726734,2.0356854 7.43855,1.8681407 4.245108,0.0251317 c -0.05697,-0.033509 -0.127317,-0.033509 -0.184308,0 l -3.193418,1.843009 -0.35855,0.2077561 c 0,0 0,0 -0.0034,0 L 0.09662,2.3104605 C 0.03965,2.3439705 0.00279,2.4042875 0.00279,2.471306 v 4.5773528 c 0,0.06702 0.03686,0.127344 0.09383,0.160866 l 3.96413,2.288673 c 0.02683,0.01675 0.06032,0.02344 0.09385,0.02344 0.0335,0 0.06366,-0.01005 0.09382,-0.02344 l 3.481599,-2.010569 3.481625,2.010569 c 0.05696,0.0335 0.127318,0.0335 0.184283,0 l 3.672628,-2.121138 0.288158,-0.167535 c 0.05699,-0.03352 0.09385,-0.09385 0.09385,-0.160866 V 2.4746583 c 0,-0.067019 -0.03686,-0.127336 -0.09385,-0.1608455 z M 1.142157,3.6843492 4.057466,5.3665171 c 0.0268,0.016748 0.06032,0.023442 0.09382,0.023442 0.03352,0 0.06366,-0.010054 0.09382,-0.023442 l 2.804716,-1.6185092 0.0034,-0.00336 1.189593,-0.6869377 c 0.0033,-0.00333 0.0067,-0.00333 0.01003,-0.00669 l 0.345149,-0.201061 2.707561,-1.5615285 3.009132,1.7357831 V 5.8255692 L 11.399376,4.1434277 c -0.0268,-0.016775 -0.06033,-0.023468 -0.09382,-0.023468 -0.03352,0 -0.06369,0.010054 -0.09382,0.023468 L 8.557804,5.6747831 6.929241,6.6331568 4.151327,8.2382518 1.142197,6.5024788 Z M 4.147927,4.103211 1.711816,2.6958129 4.147927,1.2884307 6.584052,2.6958129 Z m 7.154227,1.3034963 2.449539,1.4140925 -2.449539,1.414092 -2.449512,-1.414092 z"
      fill="#091e42"
      id="path9"
      style="stroke-width:0.264583" />
   <path
      d="M 4.148456,8.2348118 1.142665,6.4990398 v -2.81477 l 2.915304,1.6821679 c 0.0268,0.016748 0.06032,0.023442 0.09049,0.023442 V 4.7498527 L 0.02011,2.3908092 C 0.00671,2.4176172 0,2.4444242 0,2.4745842 v 4.5773556 c 0,0.06702 0.03686,0.127343 0.09383,0.16084 l 3.964141,2.288698 c 0.0268,0.01675 0.06032,0.02344 0.09049,0.02344 z"
      fill="#0052cc"
      id="path11"
      style="stroke-width:0.264583" />
   <path
      d="m 4.242304,0.0251317 c -0.05697,-0.033509 -0.127344,-0.033509 -0.184309,0 l -3.193423,1.843009 -0.35855,0.2077561 c 0,0 0,0 -0.0034,0 L 0.093811,2.3104632 c -0.03686,0.023455 -0.06702,0.056965 -0.08042,0.097176 L 4.148437,4.749932 V 4.0998508 L 1.712309,2.6924792 4.148437,1.285081 6.584561,2.6924792 7.723857,2.0323358 7.435699,1.8647884 Z"
      fill="#1773e2"
      id="path13"
      style="stroke-width:0.264583" />
   <path
      d="m 37.476907,2.9202854 v 1.3638213 h 2.513277 v 0.7372085 h -2.513277 v 1.5514906 h 2.513277 v 0.730488 H 36.568857 V 2.1897894 h 3.421327 v 0.730496 z"
      fill="#0052cc"
      id="path15"
      style="stroke-width:0.264583" />
   <path
      d="m 26.133955,2.9202854 v 1.3638213 h 2.513277 v 0.7372085 h -2.513277 v 1.5514906 h 2.513277 v 0.730488 h -3.42138 V 2.1897894 h 3.42138 v 0.730496 z"
      fill="#0052cc"
      id="path17"
      style="stroke-width:0.264583" />
   <path
      d="M 20.061821,7.2429688 V 2.1897894 h 3.203495 v 0.85784 h -2.345663 v 4.1953394 z"
      fill="#091e42"
      id="path19"
      style="stroke-width:0.264583" />
   <path
      d="m 30.265688,7.2664368 v -0.767371 c 0.08043,0.03016 0.170921,0.04022 0.261409,0.04022 0.345016,0 0.5461,-0.314986 0.606425,-0.941599 l 0.291571,-3.4078941 h 3.193256 V 7.2429688 H 33.76057 V 3.0509631 h -1.568186 l -0.231246,2.7209486 c -0.08043,0.9315711 -0.515937,1.5581841 -1.243277,1.5581841 -0.127264,-0.0033 -0.281252,-0.02344 -0.452173,-0.063659 z"
      fill="#091e42"
      id="path21"
      style="stroke-width:0.264583" />
   <path
      d="M 51.41013,2.558383 C 51.034686,2.2769061 50.558966,2.1328166 49.999372,2.1328166 h -1.708944 l -0.01005,5.2274412 h 0.911225 V 5.145299 h 0.804333 c 0.559594,0 1.035315,-0.1474523 1.410759,-0.4389702 0.382058,-0.2881842 0.576262,-0.6500813 0.576262,-1.0756371 0.0034,-0.4222221 -0.191029,-0.7841192 -0.572823,-1.0723087 z M 50.770103,4.1936456 C 50.575634,4.36454 50.314226,4.4516408 49.995932,4.4516408 H 49.191599 V 2.8264642 h 0.804333 c 0.606425,0 1.065477,0.3451489 1.065477,0.8008673 0.0034,0.2144448 -0.09366,0.4021137 -0.291306,0.5663141 z"
      fill="#091e42"
      id="path23"
      style="stroke-width:0.264583" />
   <path
      d="M 46.001253,2.772939 C 45.565749,2.2770093 44.962499,2.015638 44.255532,2.015638 c -1.447535,0 -2.459566,1.1426666 -2.459566,2.7745637 0,0.7774252 0.227806,1.4475881 0.66331,1.9368291 0.429154,0.482547 1.042194,0.750623 1.729052,0.750623 0.683683,0 1.303602,-0.254688 1.742546,-0.7171 0.472546,-0.499295 0.7239,-1.2130353 0.7239,-2.0641734 0,-0.774065 -0.227806,-1.4375606 -0.653521,-1.9234414 z M 45.73667,4.7231827 c 0,0.9952302 -0.469107,1.9971541 -1.51474,1.9971541 -1.038754,0 -1.5113,-1.0086178 -1.5113,-1.943523 0,-0.9985905 0.469106,-2.0038748 1.517915,-2.0038748 1.039018,0 1.508125,1.0119783 1.508125,1.9502437 z"
      fill="#091e42"
      id="path25"
      style="stroke-width:0.264583" />
</svg>
