<svg width="49" height="141" viewBox="0 0 49 141" fill="none" xmlns="http://www.w3.org/2000/svg">
<path d="M35.2377 53.6282C35.2377 58.75 34.4311 62.5662 32.8179 65.0769C31.2047 67.5876 28.6337 69.3953 25.1049 70.5C28.6337 71.6047 31.2047 73.4124 32.8179 75.9231C34.4311 78.4338 35.2377 82.25 35.2377 87.3718V111.474C35.2377 115.09 36.1451 117.851 37.9599 119.76C39.8755 121.668 42.6481 122.622 46.2778 122.622H49V141H40.2284C30.8519 141 23.7438 138.69 18.9043 134.071C14.0648 129.451 11.6451 122.772 11.6451 114.035V86.7692C11.6451 84.4594 11.0401 82.7019 9.83025 81.4968C8.72119 80.2917 7.10802 79.6891 4.99074 79.6891H0V61.3109H4.99074C7.10802 61.3109 8.72119 60.7083 9.83025 59.5032C11.0401 58.2981 11.6451 56.5406 11.6451 54.2308V26.9647C11.6451 18.2276 14.0648 11.5491 18.9043 6.92949C23.7438 2.30983 30.8519 0 40.2284 0H49V18.3782H46.2778C42.6481 18.3782 39.8755 19.3323 37.9599 21.2404C36.1451 23.1485 35.2377 25.9103 35.2377 29.5256V53.6282Z" fill="#091E42"/>
</svg>
