<svg width="20" height="20" viewBox="0 0 20 20" fill="none" xmlns="http://www.w3.org/2000/svg">
<path fill-rule="evenodd" clip-rule="evenodd" d="M18.0513 2.70819C18.285 2.91416 18.3843 3.23326 18.3088 3.53546L14.9754 16.8688C14.9026 17.1601 14.6788 17.3896 14.3894 17.4698C14.1001 17.5499 13.79 17.4682 13.5777 17.2559L10.0905 13.7687L8.167 16.3333C7.98102 16.5813 7.6728 16.7056 7.36684 16.6559C7.06089 16.6063 6.80778 16.3909 6.70976 16.0969L5.15225 11.4243L2.12765 9.91204C1.83284 9.76463 1.65261 9.45731 1.66789 9.12805C1.68317 8.79879 1.89109 8.50948 2.19829 8.39001L17.1983 2.55668C17.4886 2.44378 17.8177 2.50222 18.0513 2.70819ZM10.5997 11.9209C10.5936 11.9146 10.5873 11.9083 10.5809 11.9021L10.3455 11.6667L13.0896 8.9226C13.415 8.59717 13.415 8.06953 13.0896 7.74409C12.7641 7.41866 12.2365 7.41866 11.9111 7.74409L8.57774 11.0774C8.2523 11.4029 8.2523 11.9305 8.57774 12.2559L8.90002 12.5782L7.78795 14.061L6.62423 10.5698C6.55434 10.3602 6.40402 10.1868 6.20634 10.088L4.55438 9.26201L16.3012 4.69379L13.7155 15.0367L10.5997 11.9209Z" fill="#0052CC"/>
</svg>
