<svg width="41" height="41" viewBox="0 0 41 41" fill="none" xmlns="http://www.w3.org/2000/svg">
<path d="M18.3898 20.8584L9.51113 29.6023L0.632327 20.8584L9.51113 12.1145L18.3898 20.8584Z" fill="#932279"/>
<path d="M20.2395 19.0665L11.4935 10.2671L20.2395 1.46777L28.9854 10.2671L20.2395 19.0665Z" fill="#EFA724"/>
<path d="M29.0052 31.4756L20.1264 40.2196L11.2477 31.4756L20.1264 22.7317L29.0052 31.4756Z" fill="#9CCD2A"/>
<path d="M30.8543 29.6848L22.1084 20.8854L30.8543 12.0859L39.6001 20.8853L30.8543 29.6848Z" fill="#262577"/>
<path d="M21.9786 22.59H33.8338V34.5335H21.9786V22.59Z" fill="#EFA724"/>
<path d="M22.0268 7.16797H33.9224V19.0511H22.0268V7.16797Z" fill="#932279"/>
<path d="M6.05487 22.5907H18.4396V34.9754H6.05487V22.5907Z" fill="#262577"/>
<path d="M6.05444 6.66553H18.4399V18.9791H6.05444V6.66553Z" fill="#9CCD2A"/>
<path d="M20.2389 0.840576L14.8884 6.22386H5.61121V15.332L0 20.858L5.61259 26.3853V35.4183H14.6188L20.1246 40.8406L25.6303 35.4183H34.7299V26.4108L40.2228 20.8844L34.8056 15.4341V6.2949H25.6602L20.2389 0.840576ZM20.2385 2.09478L24.413 6.2949H21.5801V17.0895L20.2384 18.4392L18.8805 17.0729V6.22386H16.1344L20.2385 2.09478ZM6.49541 7.10794H14.0096L10.8686 10.2681L17.9962 17.4394V18.5363H16.6614L9.50949 11.4928L6.49529 14.4612L6.49541 7.10794ZM15.2557 7.10794H17.9963V16.1832L12.1159 10.267L15.2557 7.10794ZM22.4659 7.18061H25.2935L28.361 10.267L22.4659 16.1981V7.18061ZM26.5404 7.18061H33.9215V14.5445L30.8535 11.4578L23.746 18.6089H22.4659V17.4526L29.6079 10.2668L26.5404 7.18061ZM30.8536 12.7122L33.9215 15.7989V18.609H24.9929L30.8536 12.7122ZM9.51061 12.7348L15.4015 18.5362H6.49541V15.7042L9.51061 12.7348ZM5.61108 16.5749V19.4205H16.2993L17.759 20.8578L16.4481 22.1488H5.61259V25.1422L1.26223 20.8578L5.61108 16.5749ZM34.8056 16.6885L38.9761 20.8844L34.7299 25.1565V22.1473H23.9864L22.7311 20.8843L24.1138 19.4932H34.8056V16.6885ZM18.8805 18.3291L20.2378 19.6946L20.5505 19.3799L21.5801 18.3439V19.4932H22.867L21.4843 20.8843L22.7397 22.1473H21.5363V23.5005L20.1247 22.1104L18.8822 23.3341V22.1488H17.708L19.0188 20.8578L18.7038 20.5477L17.5593 19.4205H18.8805V18.3291ZM6.49692 23.033H15.5503L9.51061 28.9808L6.49692 26.0131V23.033ZM16.8102 23.033H17.9962V24.2065L10.6152 31.4754L13.7194 34.5325H6.49692V27.2561L9.50949 30.2229L16.8102 23.033ZM22.4205 23.033H23.62L30.8536 30.3108L31.1652 29.9973L33.8457 27.3005V34.5341H26.5281L29.6341 31.4754L29.319 31.1652L22.4205 24.3714V23.033ZM24.8666 23.033H33.8457V26.0462L30.8536 29.0566L24.8666 23.033ZM20.1257 23.3524L21.5363 24.7414V35.4183H24.3705L20.1258 39.5985L15.881 35.4183H18.8822V24.5771L20.1257 23.3524ZM17.9963 25.4495V34.5325H14.9816L11.8774 31.4754L17.9963 25.4495ZM22.4205 25.6124L28.3741 31.4754L25.2683 34.5341H22.4205V25.6124Z" fill="white"/>
</svg>
