<svg width="36" height="40" viewBox="0 0 36 40" fill="none" xmlns="http://www.w3.org/2000/svg">
<g clip-path="url(#clip0)">
<path d="M35.0933 29.9999C35.3722 29.5168 35.5455 28.9724 35.5455 28.4836V11.5161C35.5455 11.0273 35.3724 10.4831 35.0934 10L17.7729 19.9999L35.0933 29.9999Z" fill="#00599C"/>
<path d="M19.3124 39.6333L34.0067 31.1496C34.43 30.9052 34.8147 30.4832 35.0936 29.9999L17.7732 20L0.452835 30.0001C0.731737 30.4832 1.11658 30.9053 1.53975 31.1496L16.2341 39.6333C17.0806 40.1221 18.4659 40.1221 19.3124 39.6333Z" fill="#004482"/>
<path d="M35.0934 9.99994C34.8144 9.51671 34.4295 9.0947 34.0063 8.8503L19.312 0.366604C18.4655 -0.122201 17.0802 -0.122201 16.2337 0.366604L1.53938 8.8503C0.692795 9.33899 0.000244141 10.5387 0.000244141 11.5162V28.4837C0.000244141 28.9725 0.17344 29.5168 0.452458 29.9999L17.7729 20L35.0934 9.99994Z" fill="#659AD2"/>
<path d="M17.7729 31.8484C11.2396 31.8484 5.92445 26.5332 5.92445 20C5.92445 13.4668 11.2396 8.15161 17.7729 8.15161C21.9886 8.15161 25.9203 10.4202 28.0335 14.0721L22.9058 17.0393C21.8481 15.2114 19.8812 14.0758 17.7729 14.0758C14.5062 14.0758 11.8487 16.7333 11.8487 20C11.8487 23.2666 14.5062 25.9242 17.7729 25.9242C19.8814 25.9242 21.8484 24.7886 22.9061 22.9604L28.0338 25.9275C25.9206 29.5797 21.9888 31.8484 17.7729 31.8484Z" fill="white"/>
<path d="M29.6213 19.3417H28.3047V18.0253H26.9884V19.3417H25.6718V20.6582H26.9884V21.9747H28.3047V20.6582H29.6213V19.3417Z" fill="white"/>
<path d="M34.5581 19.3417H33.2415V18.0253H31.9252V19.3417H30.6086V20.6582H31.9252V21.9747H33.2415V20.6582H34.5581V19.3417Z" fill="white"/>
</g>
<defs>
<clipPath id="clip0">
<rect width="35.5452" height="40" fill="white" transform="translate(0.000244141)"/>
</clipPath>
</defs>
</svg>
