<svg width="33" height="40" viewBox="0 0 33 40" fill="none" xmlns="http://www.w3.org/2000/svg">
<g clip-path="url(#clip0)">
<path d="M19.1754 21.134C18.5126 21.1432 19.3008 21.4756 20.1661 21.6087C20.3914 21.4329 20.6081 21.2463 20.8153 21.0495C20.2764 21.1816 19.7279 21.1845 19.1754 21.134ZM22.733 20.2473C23.1276 19.7025 23.4153 19.1061 23.5168 18.4893C23.4282 18.929 23.1896 19.3086 22.965 19.7091C21.726 20.4893 22.8484 19.2459 22.9642 18.7734C21.6319 20.4502 22.7813 19.7788 22.733 20.2473ZM24.0461 16.8303C24.1261 15.6367 23.8111 16.014 23.7053 16.4695C23.8288 16.5337 23.9266 17.3109 24.0461 16.8303ZM16.662 0.515991C17.0158 0.579434 17.4263 0.628122 17.3688 0.712589C17.7557 0.627753 17.8435 0.549557 16.662 0.515991ZM17.3688 0.712589L17.1187 0.764228L17.3514 0.743572L17.3688 0.712589Z" fill="#A80030"/>
<path d="M28.3987 17.2829C28.4382 18.3548 28.0852 18.8749 27.7669 19.7955L27.194 20.0817C26.7252 20.9921 27.2394 20.6597 26.9037 21.3838C26.1719 22.0344 24.6829 23.4198 24.2063 23.5464C23.8585 23.5386 24.442 23.1358 24.5184 22.978C23.5387 23.6507 23.7324 23.9879 22.2341 24.3965L22.1902 24.2992C18.4951 26.0376 13.3621 22.5925 13.4296 17.8919C13.3902 18.1903 13.3175 18.1158 13.2356 18.2364C13.0449 15.8178 14.3525 13.3886 16.5579 12.3967C18.7149 11.3289 21.2437 11.7671 22.7889 13.2071C21.9401 12.0954 20.2508 10.9169 18.2487 11.0272C16.2875 11.0582 14.4528 12.3045 13.8405 13.6575C12.8358 14.29 12.7192 16.0959 12.2814 16.4264C11.6924 20.7556 13.3894 22.6261 16.2602 24.8263C16.712 25.1309 16.3875 25.177 16.4487 25.409C15.4948 24.9624 14.6214 24.2881 13.9032 23.4626C14.2843 24.0203 14.6955 24.5625 15.227 24.9886C14.3278 24.6839 13.1264 22.8094 12.7757 22.733C14.3259 25.5086 19.0653 27.6008 21.5469 26.5628C20.3987 26.6052 18.9399 26.5864 17.6497 26.1095C17.1078 25.8306 16.3709 25.253 16.5025 25.1449C19.8893 26.4101 23.3879 26.1032 26.3184 23.754C27.0638 23.1734 27.8783 22.1857 28.1136 22.172C27.7591 22.705 28.1741 22.4284 27.9019 22.899C28.6447 21.701 27.5791 22.4114 28.6698 20.8301L29.0726 21.3849C28.9228 20.3905 30.3075 19.1828 30.167 17.6101C30.4845 17.1291 30.5214 18.1276 30.1843 19.2341C30.652 18.0066 30.3075 17.8092 30.4277 16.7964C30.5576 17.1368 30.728 17.4987 30.8154 17.8579C30.5107 16.6717 31.1282 15.8602 31.2809 15.1709C31.1304 15.1041 30.8106 15.6954 30.7376 14.2941C30.7483 13.6855 30.9069 13.975 30.9681 13.8253C30.8486 13.7567 30.5351 13.2901 30.3444 12.3953C30.4827 12.185 30.714 12.9404 30.9021 12.9714C30.7811 12.2599 30.5727 11.7173 30.5642 11.1714C30.0146 10.0228 30.3698 11.3245 29.9239 10.6783C29.3389 8.85356 30.4093 10.2548 30.4816 9.42564C31.3683 10.7103 31.874 12.7014 32.106 13.5262C31.929 12.5207 31.6427 11.5465 31.2934 10.6041C31.5627 10.7174 30.8597 8.53524 31.6435 9.98039C30.8062 6.89975 28.0601 4.02124 25.5338 2.67051C25.8429 2.95342 26.2332 3.30862 26.093 3.36432C24.8367 2.61629 25.0576 2.55801 24.8776 2.24191C23.8541 1.82548 23.787 2.27547 23.109 2.24265C21.1799 1.21945 20.8081 1.32827 19.0328 0.687203L19.1136 1.06454C17.8356 0.638884 17.6246 1.22609 16.2432 1.06601C16.1591 1.00036 16.6859 0.828473 17.1192 0.7654C15.8836 0.928432 15.9415 0.521958 14.7324 0.810399C15.0304 0.601261 15.3454 0.462942 15.6634 0.285156C14.6557 0.346385 13.2578 0.871629 13.6893 0.393967C12.0457 1.12724 9.12663 2.1567 7.48856 3.6926L7.43692 3.34846C6.68631 4.24956 4.16374 6.03959 3.96272 7.20664L3.76206 7.25348C3.37145 7.91483 3.11879 8.66433 2.80895 9.34486C2.2981 10.2154 2.06019 9.67978 2.13285 9.81626C1.1281 11.8534 0.629047 13.5653 0.197861 14.9691C0.505113 15.4283 0.205238 17.7336 0.321426 19.5786C-0.183162 28.6907 6.71656 37.538 14.2584 39.5807C15.3639 39.9761 17.0079 39.9609 18.4062 40.0015C16.7563 39.5298 16.5431 39.7514 14.936 39.1911C13.7767 38.6452 13.5226 38.0219 12.7015 37.3093L13.0265 37.8836C11.4161 37.3137 12.09 37.1783 10.7798 36.7634L11.1269 36.3101C10.605 36.2706 9.74445 35.4303 9.50912 34.9652L8.93814 34.9877C8.25208 34.1412 7.88655 33.5311 7.91311 33.0586L7.72868 33.3873C7.51954 33.0284 5.20464 30.2126 6.40562 30.868C6.18246 30.6641 5.88591 30.5361 5.56427 29.9518L5.80882 29.6722C5.23083 28.9286 4.74505 27.9755 4.78194 27.6579C5.09029 28.0744 5.30423 28.1522 5.51595 28.2234C4.05641 24.602 3.97452 28.0238 2.86908 24.5371L3.10293 24.5183C2.92367 24.2483 2.81486 23.955 2.67063 23.6673L2.77244 22.653C1.72158 21.438 2.47846 17.4869 2.63006 15.3199C2.73518 14.4387 3.50719 13.5007 4.0944 12.0297L3.73661 11.9681C4.42046 10.7753 7.64127 7.1775 9.1329 7.36266C9.85548 6.45492 8.98941 7.35934 8.84814 7.13065C10.4353 5.48816 10.9344 5.97025 12.0055 5.6748C13.1607 4.98911 11.014 5.94222 11.5618 5.41329C13.5587 4.90317 12.9771 4.25362 15.5822 3.99469C15.857 4.15108 14.9445 4.23628 14.7155 4.43915C16.3793 3.6251 19.9808 3.81026 22.32 4.89099C25.0344 6.15947 28.0841 9.90921 28.2043 13.4373L28.3412 13.4741C28.2718 14.8765 28.5558 16.4984 28.0638 17.9881L28.3987 17.2829Z" fill="#A80030"/>
<path d="M11.9406 22.044L11.8477 22.5087C12.2833 23.1004 12.6289 23.7414 13.1851 24.204C12.7849 23.4228 12.4876 23.1 11.9406 22.044ZM12.9705 22.0034C12.7399 21.7485 12.6034 21.4417 12.4507 21.1359C12.5968 21.6733 12.8959 22.1351 13.1744 22.6046L12.9705 22.0034ZM31.1931 18.0427L31.0958 18.2869C30.9161 19.5708 30.5259 20.8163 29.9409 21.9732C30.5901 20.7485 31.0143 19.4172 31.1931 18.0427ZM16.7929 0.198073C17.241 0.0339343 17.8946 0.108073 18.3701 0C17.7504 0.0520079 17.1337 0.0829914 16.5247 0.161557L16.7929 0.198073ZM1.05953 8.56434C1.16281 9.5204 0.340276 9.89147 1.24175 9.2611C1.72494 8.17262 1.05289 8.96049 1.05953 8.56434ZM0.000195634 12.9891C0.207858 12.3517 0.245481 11.9688 0.324784 11.6C-0.249147 12.3336 0.0606871 12.49 0.000195634 12.9891Z" fill="#A80030"/>
</g>
<defs>
<clipPath id="clip0">
<rect width="32.1051" height="40" fill="white" transform="translate(0.000244141)"/>
</clipPath>
</defs>
</svg>
