<svg width="80" height="80" viewBox="0 0 80 80" fill="none" xmlns="http://www.w3.org/2000/svg">
<g clip-path="url(#clip0)">
<path d="M57.0036 8.23668C46.207 4.01246 31.2561 5.61731 22.9939 13.1601C17.1602 18.4859 21.6753 20.0039 25.6527 29.7492C28.5312 36.8023 0 35.8315 0 48.5765C0 63.3108 20.6642 60.5176 28.3327 62.2043C40.057 64.7831 50.2852 74.4297 62.812 73.1579C73.7175 72.0509 77.875 63.4931 79.3916 53.6826C82.2169 35.4051 75.2777 15.3867 57.0036 8.23668Z" fill="url(#paint0_linear)"/>
<path opacity="0.1" d="M64.5825 50.9169H48.5398V23.9184C52.0142 22.8819 54.5478 19.6639 54.5478 15.8527C54.5478 11.2037 50.7791 7.435 46.1302 7.435C42.0805 7.435 38.6997 10.2953 37.8953 14.1056H16.9805C15.2555 14.1056 13.8555 15.5056 13.8555 17.2306V72.2963C13.8555 74.0213 15.2555 75.4213 16.9805 75.4213H36.1123V75.6897C36.1123 76.5527 36.8119 77.2522 37.6748 77.2522H58.2202C59.0831 77.2522 59.7827 76.5527 59.7827 75.6897V75.4213H64.5825C65.4455 75.4213 66.145 74.7217 66.145 73.8588V52.4794C66.145 51.6166 65.4453 50.9169 64.5825 50.9169Z" fill="#091E42"/>
<path d="M64.5823 71.5151H43.2028C42.3398 71.5151 41.6403 70.8156 41.6403 69.9526V48.5731C41.6403 47.7102 42.3398 47.0106 43.2028 47.0106H64.5821C65.4451 47.0106 66.1446 47.7102 66.1446 48.5731V69.9525C66.1448 70.8155 65.4451 71.5151 64.5823 71.5151Z" fill="white"/>
<path d="M56.1956 52.3795H51.5898C51.1584 52.3795 50.8086 52.0296 50.8086 51.5982V47.0107H56.9769V51.5982C56.9769 52.0296 56.627 52.3795 56.1956 52.3795Z" fill="#0052CC"/>
<path d="M51.6595 55.9274H60.813C61.2445 55.9274 61.5943 55.5775 61.5943 55.1461C61.5943 54.7147 61.2445 54.3649 60.813 54.3649H51.6595C51.228 54.3649 50.8782 54.7147 50.8782 55.1461C50.8782 55.5775 51.228 55.9274 51.6595 55.9274Z" fill="#091E42"/>
<path d="M56.347 59.1025H60.813C61.2445 59.1025 61.5943 58.7527 61.5943 58.3213C61.5943 57.8899 61.2445 57.54 60.813 57.54H56.347C55.9155 57.54 55.5657 57.8899 55.5657 58.3213C55.5657 58.7527 55.9155 59.1025 56.347 59.1025Z" fill="#091E42"/>
<path d="M56.347 61.8091H60.813C61.2445 61.8091 61.5943 61.4592 61.5943 61.0278C61.5943 60.5964 61.2445 60.2466 60.813 60.2466H56.347C55.9155 60.2466 55.5657 60.5964 55.5657 61.0278C55.5657 61.4592 55.9155 61.8091 56.347 61.8091Z" fill="#091E42"/>
<path d="M48.5398 13.3245V68.3901C48.5398 70.1151 47.1398 71.5151 45.4148 71.5151H16.9805C15.2555 71.5151 13.8555 70.1151 13.8555 68.3901V13.3245C13.8555 11.5995 15.2555 10.1995 16.9805 10.1995H45.4148C47.1398 10.1995 48.5398 11.5995 48.5398 13.3245Z" fill="#0052CC"/>
<path d="M48.5398 13.3245V46.8948H13.8555V13.3245C13.8555 11.5995 15.2555 10.1995 16.9805 10.1995H45.4148C47.1398 10.1995 48.5398 11.5995 48.5398 13.3245Z" fill="white"/>
<path d="M13.8558 40.8364H48.5394V62.8518H13.8558V40.8364Z" fill="white"/>
<path d="M13.8558 40.8364H48.5394V44.927H13.8558V40.8364Z" fill="white"/>
<path d="M38.3043 14.7362H24.0908C23.4239 14.7362 22.8306 14.3131 22.6134 13.6826L21.4139 10.1998H40.9814L39.7818 13.6826C39.5645 14.3131 38.9712 14.7362 38.3043 14.7362Z" fill="#0052CC"/>
<path d="M24.0908 66.9783H38.3043C38.9712 66.9783 39.5645 67.4014 39.7817 68.0319L40.9812 71.5147H21.4139L22.6134 68.0319C22.8306 67.4014 23.4239 66.9783 24.0908 66.9783Z" fill="white"/>
<path d="M31.1977 35.5753C35.7946 35.5753 39.521 31.8488 39.521 27.252C39.521 22.6552 35.7946 18.9287 31.1977 18.9287C26.6009 18.9287 22.8745 22.6552 22.8745 27.252C22.8745 31.8488 26.6009 35.5753 31.1977 35.5753Z" fill="#0052CC"/>
<path d="M33.2268 28.3837C33.8484 27.8259 34.2423 27.0192 34.2423 26.1202C34.2423 24.4413 32.8765 23.0756 31.1976 23.0756C29.5187 23.0756 28.1529 24.4413 28.1529 26.1202C28.1529 27.0192 28.5468 27.8259 29.1684 28.3837C28.5468 28.9415 28.1529 29.7482 28.1529 30.6471C28.1529 31.0785 28.5027 31.4284 28.9341 31.4284C29.3655 31.4284 29.7154 31.0785 29.7154 30.6471C29.7154 29.8299 30.3802 29.1649 31.1976 29.1649C32.0148 29.1649 32.6798 29.8298 32.6798 30.6471C32.6798 31.0785 33.0296 31.4284 33.461 31.4284C33.8924 31.4284 34.2423 31.0785 34.2423 30.6471C34.2423 29.7482 33.8484 28.9415 33.2268 28.3837ZM29.7155 26.1202C29.7155 25.3031 30.3804 24.6381 31.1977 24.6381C32.0149 24.6381 32.6799 25.3029 32.6799 26.1202C32.6799 26.9376 32.0151 27.6024 31.1977 27.6024C30.3804 27.6024 29.7155 26.9376 29.7155 26.1202Z" fill="#091E42"/>
<path d="M20.061 47.6828L19.1318 48.0133C18.8816 48.1022 18.6202 47.9124 18.6276 47.6469L18.6548 46.6611L18.0534 45.8795C17.8915 45.6692 17.9913 45.3619 18.246 45.2867L19.192 45.0078L19.7495 44.1944C19.8995 43.9755 20.2226 43.9755 20.3727 44.1944L20.9302 45.0078L21.8762 45.2867C22.1309 45.3617 22.2307 45.6691 22.0688 45.8795L21.4674 46.6611L21.4946 47.6469C21.502 47.9122 21.2405 48.1022 20.9904 48.0133L20.061 47.6828Z" fill="#0052CC"/>
<path d="M25.6293 47.6828L24.7001 48.0133C24.45 48.1022 24.1886 47.9124 24.1959 47.6469L24.2231 46.6611L23.6217 45.8795C23.4598 45.6692 23.5597 45.3619 23.8143 45.2867L24.7603 45.0078L25.3178 44.1944C25.4678 43.9755 25.7911 43.9755 25.9411 44.1944L26.4986 45.0078L27.4445 45.2867C27.6992 45.3617 27.799 45.6691 27.6372 45.8795L27.0357 46.6611L27.0628 47.6469C27.0701 47.9122 26.8087 48.1022 26.5586 48.0133L25.6293 47.6828Z" fill="#0052CC"/>
<path d="M31.1969 47.6828L30.2677 48.0133C30.0175 48.1022 29.7561 47.9124 29.7634 47.6469L29.7905 46.6611L29.1891 45.8795C29.0272 45.6692 29.127 45.3619 29.3817 45.2867L30.3277 45.0078L30.8852 44.1944C31.0352 43.9755 31.3583 43.9755 31.5084 44.1944L32.0659 45.0078L33.0119 45.2867C33.2666 45.3617 33.3664 45.6691 33.2045 45.8795L32.6031 46.6611L32.6303 47.6469C32.6377 47.9122 32.3763 48.1022 32.1261 48.0133L31.1969 47.6828Z" fill="#0052CC"/>
<path d="M36.7654 47.6828L35.8362 48.0133C35.586 48.1022 35.3246 47.9124 35.332 47.6469L35.3591 46.6611L34.7577 45.8795C34.5959 45.6692 34.6957 45.3619 34.9504 45.2867L35.8963 45.0078L36.4538 44.1944C36.6038 43.9755 36.9271 43.9755 37.0771 44.1944L37.6346 45.0078L38.5805 45.2867C38.8352 45.3617 38.9351 45.6691 38.7732 45.8795L38.1718 46.6611L38.199 47.6469C38.2063 47.9122 37.9449 48.1022 37.6948 48.0133L36.7654 47.6828Z" fill="#0052CC"/>
<path d="M41.2779 48.8164C41.0365 48.8164 40.7976 48.7409 40.5968 48.595C40.2874 48.3702 40.109 48.0077 40.1195 47.6253L40.1389 46.9173L39.7068 46.3558C39.4737 46.0528 39.4049 45.6547 39.5231 45.2909C39.6412 44.9272 39.9307 44.6455 40.2974 44.5372L40.9773 44.3369L41.3778 43.7525C41.5939 43.437 41.9512 43.2486 42.3337 43.2486C42.7162 43.2486 43.0735 43.437 43.2898 43.7527L43.6901 44.3369L44.3698 44.5372C44.7367 44.6453 45.0262 44.9272 45.1443 45.2909C45.2624 45.6547 45.1937 46.0527 44.9606 46.3558L44.5285 46.9173L44.5479 47.6255C44.5584 48.0077 44.3801 48.3702 44.0706 48.595C43.7612 48.8199 43.3612 48.8775 43.0009 48.7494L42.3334 48.512L41.6659 48.7494C41.5398 48.7944 41.4085 48.8164 41.2779 48.8164ZM41.3042 45.8695L41.716 46.4047L41.6976 47.0799L42.3339 46.8536L42.9701 47.0799L42.9517 46.4047L43.3635 45.8695L42.7157 45.6786L42.334 45.1216L41.9523 45.6786L41.3042 45.8695Z" fill="#091E42"/>
<path d="M58.2197 73.3461H37.6744C36.8114 73.3461 36.1119 72.6465 36.1119 71.7836V67.5545C36.1119 66.6915 36.8114 65.992 37.6744 65.992H58.2197C59.0827 65.992 59.7822 66.6915 59.7822 67.5545V71.7836C59.7822 72.6465 59.0827 73.3461 58.2197 73.3461Z" fill="white"/>
<path d="M49.8264 65.992H54.9178V73.3461H49.8264V65.992Z" fill="#0052CC"/>
<path d="M43.7634 52.8203H37.2942C36.8628 52.8203 36.5129 52.4705 36.5129 52.0391C36.5129 51.6077 36.8628 51.2578 37.2942 51.2578H43.7634C44.1948 51.2578 44.5447 51.6077 44.5447 52.0391C44.5447 52.4705 44.1948 52.8203 43.7634 52.8203Z" fill="#091E42"/>
<path d="M43.7447 57.2361H20.2317C19.8003 57.2361 19.4504 56.8862 19.4504 56.4548C19.4504 56.0234 19.8003 55.6736 20.2317 55.6736H43.7447C44.1761 55.6736 44.5259 56.0234 44.5259 56.4548C44.5259 56.8862 44.1761 57.2361 43.7447 57.2361Z" fill="#091E42"/>
<path d="M43.7635 60.127H20.2505C19.8191 60.127 19.4693 59.7772 19.4693 59.3458C19.4693 58.9144 19.8191 58.5645 20.2505 58.5645H43.7635C44.1949 58.5645 44.5447 58.9144 44.5447 59.3458C44.5447 59.7773 44.1949 60.127 43.7635 60.127Z" fill="#091E42"/>
<path d="M44.5259 37.8749C44.5259 38.2786 44.1987 38.6058 43.795 38.6058C43.3912 38.6058 43.0641 38.2786 43.0641 37.8749C43.0641 37.4713 43.3912 37.1439 43.795 37.1439C44.1987 37.1439 44.5259 37.4713 44.5259 37.8749Z" fill="#091E42"/>
<path d="M42.2133 37.8749C42.2133 38.2786 41.8861 38.6058 41.4823 38.6058C41.0787 38.6058 40.7514 38.2786 40.7514 37.8749C40.7514 37.4713 41.0786 37.1439 41.4823 37.1439C41.8861 37.1439 42.2133 37.4713 42.2133 37.8749Z" fill="#091E42"/>
<path d="M46.1305 20.3642C50.7794 20.3642 54.5481 16.5955 54.5481 11.9465C54.5481 7.29758 50.7794 3.52887 46.1305 3.52887C41.4815 3.52887 37.7128 7.29758 37.7128 11.9465C37.7128 16.5955 41.4815 20.3642 46.1305 20.3642Z" fill="white"/>
<path d="M64.5824 46.2294H53.1103C52.6788 46.2294 52.3291 46.5792 52.3291 47.0106C52.3291 47.442 52.6788 47.7919 53.1103 47.7919H64.5824C65.0131 47.7919 65.3636 48.1423 65.3636 48.5731V69.9526C65.3636 70.3834 65.0131 70.7339 64.5824 70.7339H60.5638V67.5545C60.5638 66.2622 59.5125 65.2108 58.22 65.2108H49.3205V20.5742C52.8249 19.2742 55.3289 15.8976 55.3289 11.9466C55.3289 6.87437 51.2024 2.7478 46.13 2.7478C41.0577 2.7478 36.9311 6.87437 36.9311 11.9466C36.9311 17.0189 41.0577 21.1455 46.13 21.1455C46.6858 21.1455 47.2291 21.0931 47.758 20.9983V65.2108H37.6749C36.3825 65.2108 35.3311 66.2622 35.3311 67.5545V70.7336H16.9808C15.6885 70.7336 14.6371 69.6822 14.6371 68.3898V13.3248C14.6371 12.0325 15.6885 10.9811 16.9808 10.9811H33.3722C33.8038 10.9811 34.1535 10.6312 34.1535 10.1998C34.1535 9.76843 33.8038 9.41858 33.3722 9.41858H16.9808C14.8269 9.41858 13.0746 11.1709 13.0746 13.3248V68.3897C13.0746 70.5436 14.8269 72.2959 16.9808 72.2959H35.3892C35.6238 73.3423 36.5586 74.1273 37.6749 74.1273H58.22C59.3361 74.1273 60.2708 73.3426 60.5055 72.2964H64.5824C65.8747 72.2964 66.9261 71.245 66.9261 69.9526V48.5731C66.9261 47.2808 65.8749 46.2294 64.5824 46.2294ZM38.4936 11.9464C38.4936 7.73577 41.9194 4.31015 46.13 4.31015C50.3406 4.31015 53.7664 7.73577 53.7664 11.9464C53.7664 16.1572 50.3406 19.5828 46.13 19.5828C41.9194 19.583 38.4936 16.1572 38.4936 11.9464ZM59.0013 71.7836C59.0013 72.2144 58.6508 72.5648 58.22 72.5648H37.6749C37.2441 72.5648 36.8936 72.2144 36.8936 71.7836V67.5545C36.8936 67.1237 37.2441 66.7733 37.6749 66.7733H58.22C58.6508 66.7733 59.0013 67.1237 59.0013 67.5545V71.7836Z" fill="#091E42"/>
<path d="M44.8878 16.6992C44.8584 16.6992 44.829 16.698 44.7995 16.6953C44.4206 16.662 44.0926 16.4184 43.9513 16.0653L42.8601 13.3372C42.8381 13.2819 42.7851 13.2461 42.7256 13.2461C42.1687 13.2461 41.7173 12.7947 41.7173 12.2378C41.7173 11.6809 42.1687 11.2295 42.7256 11.2295C43.6145 11.2295 44.4023 11.7628 44.7324 12.5883L45.0827 13.4642L48.6785 7.67046C48.9721 7.19718 49.5938 7.05186 50.0668 7.34546C50.5399 7.63921 50.6854 8.26077 50.3916 8.73389L45.7438 16.2226C45.5593 16.5206 45.2343 16.6992 44.8878 16.6992Z" fill="#091E42"/>
<path d="M60.6573 16.2597C60.4575 16.2597 60.2573 16.1835 60.105 16.031L59.173 15.0991L58.2409 16.031C57.9361 16.336 57.4411 16.336 57.1362 16.031C56.8311 15.7258 56.8311 15.2311 57.1362 14.9261L58.6206 13.4418C58.9255 13.1368 59.4205 13.1368 59.7253 13.4418L61.2097 14.9261C61.5148 15.2313 61.5148 15.726 61.2097 16.031C61.0573 16.1835 60.8572 16.2597 60.6573 16.2597Z" fill="#0052CC"/>
<path d="M65.7197 9.29971C65.5198 9.29971 65.3198 9.22346 65.1673 9.07096L64.2353 8.13908L63.3033 9.07096C62.9984 9.37596 62.5034 9.37596 62.1986 9.07096C61.8934 8.7658 61.8934 8.27112 62.1986 7.96612L63.683 6.48174C63.9878 6.17674 64.4828 6.17674 64.7877 6.48174L66.272 7.96612C66.5772 8.27127 66.5772 8.76596 66.272 9.07096C66.1197 9.2233 65.9197 9.29971 65.7197 9.29971Z" fill="#0052CC"/>
<path d="M10.825 35.5594C10.6251 35.5594 10.425 35.4832 10.2726 35.3307L9.3406 34.3988L8.40857 35.3307C8.10372 35.6357 7.60872 35.6357 7.30388 35.3307C6.99872 35.0255 6.99872 34.5308 7.30388 34.2258L8.78825 32.7414C9.0931 32.4364 9.5881 32.4364 9.89294 32.7414L11.3773 34.2258C11.6825 34.531 11.6825 35.0257 11.3773 35.3307C11.225 35.4832 11.025 35.5594 10.825 35.5594Z" fill="#0052CC"/>
<path d="M72.1671 65.1166C71.587 65.1166 71.0066 64.8956 70.5651 64.4541C69.6816 63.5706 69.6816 62.1333 70.5651 61.25C71.4482 60.3667 72.886 60.3667 73.7691 61.25C74.6526 62.1334 74.6526 63.5708 73.7691 64.4541C73.3276 64.8956 72.7473 65.1166 72.1671 65.1166ZM72.1671 62.149C71.9871 62.149 71.807 62.2176 71.6698 62.3547C71.3957 62.6287 71.3957 63.0748 71.6698 63.349C71.9441 63.6233 72.3899 63.6233 72.6643 63.349C72.9384 63.075 72.9384 62.6289 72.6643 62.3547C72.5273 62.2176 72.3473 62.149 72.1671 62.149Z" fill="#0052CC"/>
<path d="M9.34093 29.5166C8.76078 29.5166 8.18046 29.2958 7.7389 28.8541C6.85547 27.9706 6.85547 26.5334 7.7389 25.65C8.62203 24.7667 10.0598 24.7667 10.943 25.65C11.8264 26.5334 11.8264 27.9708 10.943 28.8541C10.5014 29.2958 9.92109 29.5166 9.34093 29.5166ZM9.34093 26.5492C9.16093 26.5492 8.98078 26.6178 8.84359 26.7549C8.56953 27.0289 8.56953 27.475 8.84359 27.7492C9.11796 28.0234 9.56374 28.0234 9.83812 27.7492C10.1122 27.4752 10.1122 27.0291 9.83812 26.7549C9.70109 26.6177 9.52109 26.5492 9.34093 26.5492Z" fill="#0052CC"/>
<path d="M13.8558 40.0552H47.9477V41.6177H13.8558V40.0552Z" fill="#091E42"/>
</g>
<defs>
<linearGradient id="paint0_linear" x1="65.7583" y1="12.365" x2="28.4147" y2="70.3337" gradientUnits="userSpaceOnUse">
<stop stop-color="#D2DEFF" stop-opacity="0"/>
<stop offset="1" stop-color="#B7D4FF"/>
</linearGradient>
<clipPath id="clip0">
<rect width="80" height="80" fill="white"/>
</clipPath>
</defs>
</svg>
