<svg width="80" height="80" viewBox="0 0 80 80" fill="none" xmlns="http://www.w3.org/2000/svg">
<g clip-path="url(#clip0)">
<path d="M80 40C80 35.6827 78.0462 31.6352 74.6333 28.1505C72.2584 25.7258 70.2811 22.9481 68.7719 19.9081C63.9455 10.1867 55.7166 3.78375 46.3756 3.78375C39.7377 3.78375 33.6617 7.01781 28.9689 12.378C25.8627 15.9259 21.9406 18.6475 17.5647 20.4047C6.96484 24.6612 0 31.8489 0 40C0 48.1511 6.96484 55.3387 17.5647 59.5953C21.9406 61.3525 25.8627 64.0741 28.9691 67.622C33.6619 72.9822 39.7377 76.2162 46.3758 76.2162C55.7167 76.2162 63.9456 69.8133 68.772 60.0919C70.2812 57.0519 72.2586 54.2744 74.6334 51.8495C78.0462 48.3648 80 44.3173 80 40Z" fill="url(#paint0_linear)"/>
<path opacity="0.1" d="M56.2469 74.4531H26.2821C24.3746 74.4531 22.8282 72.9067 22.8282 70.9992V12.282C22.8282 10.3745 24.3746 8.82812 26.2821 8.82812H56.2469C58.1544 8.82812 59.7008 10.3745 59.7008 12.282V70.9991C59.7008 72.9067 58.1544 74.4531 56.2469 74.4531Z" fill="#091E42"/>
<path d="M61.6461 22.6703H58.2833V12.2151H61.6461C62.2403 12.2151 62.7219 12.6969 62.7219 13.2909V21.5945C62.7219 22.1887 62.2403 22.6703 61.6461 22.6703Z" fill="white"/>
<path d="M20.3904 33.4286H24.2454V12.2151H20.3904C19.7962 12.2151 19.8068 12.6969 19.8068 13.2909V32.3526C19.8068 32.9469 19.7963 33.4286 20.3904 33.4286Z" fill="white"/>
<path d="M56.2469 71.1719H26.2821C24.3746 71.1719 22.8282 69.6255 22.8282 67.718V9.00078C22.8282 7.09328 24.3746 5.54688 26.2821 5.54688H56.2469C58.1544 5.54688 59.7008 7.09328 59.7008 9.00078V67.7178C59.7008 69.6255 58.1544 71.1719 56.2469 71.1719Z" fill="white"/>
<path d="M22.8289 13.6909H59.7003V63.0278H22.8289V13.6909Z" fill="#0052CC"/>
<path d="M54.8581 39.0794C54.6981 39.0794 54.5364 39.0304 54.3975 38.9286L41.265 29.3192L28.1325 38.9286C27.7842 39.1833 27.2954 39.1075 27.0406 38.7594C26.7858 38.4111 26.8615 37.9225 27.2098 37.6676L40.8037 27.7208C41.0784 27.5197 41.4515 27.5197 41.7262 27.7208L55.32 37.6676C55.6681 37.9225 55.744 38.4112 55.4892 38.7594C55.3361 38.9686 55.0987 39.0794 54.8581 39.0794Z" fill="#091E42"/>
<path d="M27.4713 21.2262H18.1279L23.0498 13.47H30.4245L27.4713 21.2262Z" fill="white"/>
<path d="M46.158 21.2262L45.1736 13.47L30.2028 13.6917L27.2497 21.4479L46.158 21.2262Z" fill="white"/>
<path d="M55.2796 21.448H45.9363L44.9519 13.6917H52.3265L55.2796 21.448Z" fill="white"/>
<path d="M64.8444 21.2262H55.5011L52.548 13.47H59.9225L64.8444 21.2262Z" fill="white"/>
<path d="M22.7996 29.6064C20.2195 29.6064 18.1279 27.5148 18.1279 24.9348V21.2262H27.4712V24.9348C27.4713 27.5148 25.3796 29.6064 22.7996 29.6064Z" fill="white"/>
<path d="M31.9212 29.8281C29.3411 29.8281 27.2495 27.7365 27.2495 25.1565V21.4479H36.5928V25.1565C36.5929 27.7365 34.5014 29.8281 31.9212 29.8281Z" fill="white"/>
<path d="M41.4864 29.6064C38.9062 29.6064 36.8147 27.5148 36.8147 24.9348V21.2262H46.1579V24.9348C46.1581 27.5148 44.0665 29.6064 41.4864 29.6064Z" fill="white"/>
<path d="M50.608 29.8281C48.0279 29.8281 45.9363 27.7365 45.9363 25.1565V21.4479H55.2796V25.1565C55.2797 27.7365 53.1882 29.8281 50.608 29.8281Z" fill="white"/>
<path d="M59.9516 29.8281C57.3714 29.8281 55.2798 27.7365 55.2798 25.1565V21.4479H64.6231V25.1565C64.6231 27.7365 62.5316 29.8281 59.9516 29.8281Z" fill="white"/>
<path d="M44.4297 10.3906H38.0984C37.6669 10.3906 37.3172 10.0408 37.3172 9.60938C37.3172 9.17797 37.6669 8.82812 38.0984 8.82812H44.4297C44.8613 8.82812 45.2109 9.17797 45.2109 9.60938C45.2109 10.0408 44.8613 10.3906 44.4297 10.3906Z" fill="#091E42"/>
<path d="M38.0872 66.0156V67.9948C38.0872 68.4262 38.4371 68.7761 38.8685 68.7761H43.6602C44.0916 68.7761 44.4415 68.4262 44.4415 67.9948V66.0156C44.4415 65.5842 44.0916 65.2344 43.6602 65.2344H38.8685C38.4369 65.2344 38.0872 65.5841 38.0872 66.0156Z" fill="#0052CC"/>
<path d="M53.6094 67.7864H51.0281C50.5966 67.7864 50.2469 67.4365 50.2469 67.0051C50.2469 66.5737 50.5966 66.2239 51.0281 66.2239H53.6094C54.041 66.2239 54.3906 66.5737 54.3906 67.0051C54.3906 67.4367 54.041 67.7864 53.6094 67.7864Z" fill="#091E42"/>
<path d="M31.5 67.7864H28.9188C28.4872 67.7864 28.1375 67.4365 28.1375 67.0051C28.1375 66.5737 28.4872 66.2239 28.9188 66.2239H31.5C31.9316 66.2239 32.2813 66.5737 32.2813 67.0051C32.2813 67.4367 31.9316 67.7864 31.5 67.7864Z" fill="#091E42"/>
<path d="M31.0031 59.1105H27.7218C27.2903 59.1105 26.9406 58.7606 26.9406 58.3292C26.9406 57.8978 27.2903 57.548 27.7218 57.548H31.0031C31.4346 57.548 31.7843 57.8978 31.7843 58.3292C31.7843 58.7606 31.4346 59.1105 31.0031 59.1105Z" fill="#091E42"/>
<path d="M54.8067 59.1105H51.5255C51.0939 59.1105 50.7442 58.7606 50.7442 58.3292C50.7442 57.8978 51.0939 57.548 51.5255 57.548H54.8067C55.2383 57.548 55.588 57.8978 55.588 58.3292C55.588 58.7606 55.2383 59.1105 54.8067 59.1105Z" fill="#091E42"/>
<path d="M60.7828 54.683H21.7456C20.8827 54.683 20.1831 53.9834 20.1831 53.1205V39.8605C20.1831 38.9975 20.8827 38.298 21.7456 38.298H60.7828C61.6458 38.298 62.3453 38.9975 62.3453 39.8605V53.1205C62.3453 53.9834 61.6458 54.683 60.7828 54.683Z" fill="white"/>
<path d="M65.403 21.4387C65.4014 21.2977 65.358 21.1488 65.2824 21.0292L63.5033 18.2258V13.2909C63.5033 12.2669 62.6702 11.4339 61.6461 11.4339H60.4821V9.00078C60.4821 6.66547 58.5822 4.76562 56.2469 4.76562H26.2821C23.9468 4.76562 22.0468 6.66547 22.0468 9.00078V11.4338H20.3905C19.8003 11.4338 19.3485 11.7272 19.1508 12.2386C19.0253 12.5634 19.0255 12.9178 19.0255 13.2605V18.2256L17.2464 21.0292C17.1689 21.1513 17.1249 21.3033 17.1249 21.4478V25.1564C17.1249 26.807 17.8632 28.2877 19.0257 29.2884V32.3828C19.0255 32.7255 19.0253 33.08 19.151 33.4048C19.3486 33.9163 19.8003 34.2095 20.3907 34.2095H22.0469V37.5167H21.746C20.4536 37.5167 19.4022 38.5681 19.4022 39.8605V53.1203C19.4022 54.4127 20.4536 55.4641 21.746 55.4641H22.0469V67.7177C22.0469 70.053 23.9469 71.9528 26.2822 71.9528H56.2469C58.5822 71.9528 60.4821 70.053 60.4821 67.7177V55.4641H60.7832C62.0757 55.4641 63.1269 54.4127 63.1269 53.1203V39.8605C63.1269 38.5681 62.0757 37.5167 60.7832 37.5167H60.4821V30.583C63.2405 30.3152 65.4039 27.9839 65.4039 25.1564V21.4478C65.4039 21.4448 65.403 21.4419 65.403 21.4387ZM54.4982 25.1566C54.4982 27.3017 52.753 29.0469 50.6078 29.0469C48.4625 29.0469 46.7175 27.3017 46.7175 25.1566V22.2292H54.4983V25.1566H54.4982ZM35.8116 25.1566C35.8116 27.3017 34.0664 29.0469 31.9213 29.0469C29.776 29.0469 28.0308 27.3017 28.0308 25.1566V22.2292H35.8116V25.1566ZM23.2577 14.473H29.0693L26.711 20.6667H19.3272L23.2577 14.473ZM51.7877 14.473L54.146 20.6667H46.6246L45.8383 14.473H51.7877ZM44.2633 14.473L45.0494 20.6667H37.4794L37.75 18.5339C37.8044 18.1058 37.5014 17.7148 37.0733 17.6605C36.6463 17.6052 36.2543 17.9091 36.1999 18.337L35.9043 20.6667H28.3828L30.7411 14.473H44.2633ZM37.3741 22.2292H45.1549V25.1566C45.1549 27.3017 43.4097 29.0469 41.2646 29.0469C39.1194 29.0469 37.3741 27.3017 37.3741 25.1566V22.2292ZM55.8178 20.6667L53.4596 14.473H59.2711L63.2014 20.6667H55.8178ZM61.6461 12.9964C61.8086 12.9964 61.9408 13.1286 61.9408 13.2909V15.7636L60.4821 13.4648V12.9964H61.6461ZM26.2821 6.32812H56.2468C57.7205 6.32812 58.9194 7.52719 58.9194 9.00078V12.9103H23.6093V9.00078C23.6093 7.52719 24.8083 6.32812 26.2821 6.32812ZM20.5882 13.2602C20.5882 13.182 20.5882 13.0838 20.5908 12.9964H22.0468V13.4648L20.5882 15.7636V13.2602ZM18.6874 25.1566V22.2292H26.4682V25.1566C26.4682 27.3017 24.723 29.0469 22.5778 29.0469C20.4327 29.0469 18.6874 27.3017 18.6874 25.1566ZM20.5908 32.6472C20.588 32.5597 20.5882 32.4616 20.5882 32.3834V30.2319C21.0477 30.4127 21.5368 30.5336 22.0468 30.5831V32.6472H20.5908ZM58.9196 67.718C58.9196 69.1917 57.7205 70.3906 56.2469 70.3906H26.2821C24.8083 70.3906 23.6093 69.1916 23.6093 67.718V63.8091H54.455C54.8866 63.8091 55.2363 63.4594 55.2363 63.0278C55.2363 62.5962 54.8866 62.2466 54.455 62.2466H23.6093V55.4644H58.9194V67.718H58.9196ZM61.5644 39.8606V53.1205C61.5644 53.5513 61.2139 53.9017 60.7832 53.9017H21.7458C21.315 53.9017 20.9646 53.5513 20.9646 53.1205V39.8606C20.9646 39.4298 21.315 39.0794 21.7458 39.0794H60.783C61.2139 39.0794 61.5644 39.43 61.5644 39.8606ZM23.6093 37.5169V30.5103C25.1511 30.2138 26.4643 29.2667 27.2494 27.9658C28.2049 29.5486 29.9413 30.6094 31.9211 30.6094C33.901 30.6094 35.6374 29.5486 36.5927 27.9658C37.5482 29.5486 39.2846 30.6094 41.2644 30.6094C43.2443 30.6094 44.9807 29.5486 45.936 27.9658C46.8914 29.5486 48.6278 30.6094 50.6077 30.6094C52.5875 30.6094 54.3239 29.5486 55.2793 27.9658C56.0644 29.2667 57.3775 30.2138 58.9194 30.5103V37.5169H23.6093ZM63.8414 25.1566C63.8414 27.3017 62.0963 29.0469 59.9511 29.0469C57.8058 29.0469 56.0607 27.3017 56.0607 25.1566V22.2292H63.8414V25.1566Z" fill="#091E42"/>
<path d="M31.7608 49.9837H29.8149C28.8672 49.9837 28.0961 49.2126 28.0961 48.265V44.257C28.0961 43.3094 28.8672 42.5383 29.8149 42.5383H31.7608C32.7084 42.5383 33.4795 43.3094 33.4795 44.257V48.265C33.4795 49.2126 32.7086 49.9837 31.7608 49.9837ZM29.8149 44.1006C29.7288 44.1006 29.6586 44.1706 29.6586 44.2569V48.2648C29.6586 48.3511 29.7288 48.4211 29.8149 48.4211H31.7608C31.8469 48.4211 31.917 48.3511 31.917 48.2648V44.2569C31.917 44.1706 31.8469 44.1006 31.7608 44.1006H29.8149Z" fill="#091E42"/>
<path d="M35.8618 49.9829C35.4303 49.9829 35.0805 49.6333 35.0805 49.2017V43.3187C35.0805 42.8872 35.4303 42.5375 35.8618 42.5375H38.7452C39.6928 42.5375 40.4638 43.3086 40.4638 44.2562V45.0901C40.4638 46.0378 39.6928 46.8089 38.7452 46.8089H36.643V49.2017C36.643 49.6331 36.2932 49.9829 35.8618 49.9829ZM36.643 45.2462H38.7452C38.8313 45.2462 38.9014 45.1762 38.9014 45.09V44.2561C38.9014 44.1698 38.8313 44.0998 38.7452 44.0998H36.643V45.2462Z" fill="#091E42"/>
<path d="M46.6671 49.9829H43.7836C42.836 49.9829 42.0649 49.2119 42.0649 48.2642V44.2562C42.0649 43.3086 42.836 42.5375 43.7836 42.5375H46.6671C47.0986 42.5375 47.4483 42.8872 47.4483 43.3187C47.4483 43.7503 47.0986 44.1 46.6671 44.1H43.7836C43.6974 44.1 43.6274 44.17 43.6274 44.2562V48.2642C43.6274 48.3504 43.6974 48.4204 43.7836 48.4204H46.6671C47.0986 48.4204 47.4483 48.7701 47.4483 49.2017C47.4483 49.6331 47.0986 49.9829 46.6671 49.9829Z" fill="#091E42"/>
<path d="M53.6521 49.983C53.3926 49.983 53.1437 49.8533 52.997 49.6273L50.6124 45.9559V49.2017C50.6124 49.6333 50.2627 49.983 49.8312 49.983C49.3996 49.983 49.0499 49.6333 49.0499 49.2017V43.3187C49.0499 42.9727 49.2776 42.668 49.6093 42.5697C49.9407 42.4712 50.2977 42.6028 50.4863 42.8931L52.8709 46.5645V43.3187C52.8709 42.8872 53.2205 42.5375 53.6521 42.5375C54.0837 42.5375 54.4334 42.8872 54.4334 43.3187V49.2017C54.4334 49.5478 54.2057 49.8525 53.874 49.9508C53.8006 49.9725 53.726 49.983 53.6521 49.983Z" fill="#091E42"/>
<path d="M46.0691 47.0414H42.8461C42.4146 47.0414 42.0649 46.6917 42.0649 46.2601C42.0649 45.8286 42.4146 45.4789 42.8461 45.4789H46.0691C46.5007 45.4789 46.8503 45.8286 46.8503 46.2601C46.8503 46.6915 46.5005 47.0414 46.0691 47.0414Z" fill="#091E42"/>
<path d="M66.6709 56.3577C66.471 56.3577 66.2709 56.2815 66.1185 56.1288C65.8134 55.8238 65.8134 55.3292 66.1185 55.0242L67.681 53.4617C67.9859 53.1565 68.4809 53.1565 68.7857 53.4617C69.0909 53.7667 69.0909 54.2613 68.7857 54.5663L67.2232 56.1288C67.0709 56.2813 66.8709 56.3577 66.6709 56.3577Z" fill="#0052CC"/>
<path d="M10.9848 44.8811C10.7848 44.8811 10.585 44.8048 10.4323 44.6522C10.1271 44.3472 10.1271 43.8525 10.4323 43.5475L11.9948 41.985C12.3 41.6798 12.7945 41.6798 13.0996 41.985C13.4048 42.29 13.4048 42.7847 13.0996 43.0897L11.5371 44.6522C11.3846 44.8048 11.1848 44.8811 10.9848 44.8811Z" fill="#0052CC"/>
<path d="M16.9688 65.25C16.7688 65.25 16.569 65.1737 16.4163 65.0211C16.1111 64.7161 16.1111 64.2214 16.4163 63.9164L17.9788 62.3539C18.284 62.0487 18.7785 62.0487 19.0836 62.3539C19.3888 62.6589 19.3888 63.1536 19.0836 63.4586L17.5211 65.0211C17.3688 65.1736 17.1688 65.25 16.9688 65.25Z" fill="#0052CC"/>
<path d="M14.1098 16.5795C13.9098 16.5795 13.71 16.5033 13.5573 16.3506L12.5473 15.3406L11.5373 16.3506C11.2322 16.6558 10.7376 16.6558 10.4325 16.3506C10.1273 16.0456 10.1273 15.551 10.4325 15.246L11.995 13.6835C12.3001 13.3783 12.7947 13.3783 13.0998 13.6835L14.6623 15.246C14.9675 15.551 14.9675 16.0456 14.6623 16.3506C14.5097 16.5033 14.3098 16.5795 14.1098 16.5795Z" fill="#0052CC"/>
<path d="M69.0146 33.3706C68.8148 33.3706 68.6146 33.2944 68.4623 33.1417L67.4521 32.1317L66.442 33.1417C66.1371 33.4469 65.6421 33.4469 65.3373 33.1417C65.0321 32.8367 65.0321 32.342 65.3373 32.037L66.8998 30.4745C67.2046 30.1694 67.6996 30.1694 68.0045 30.4745L69.567 32.037C69.8721 32.342 69.8721 32.8367 69.567 33.1417C69.4146 33.2944 69.2146 33.3706 69.0146 33.3706Z" fill="#0052CC"/>
</g>
<defs>
<linearGradient id="paint0_linear" x1="67.38" y1="92.2006" x2="0.50485" y2="-35.2992" gradientUnits="userSpaceOnUse">
<stop stop-color="#D2DEFF" stop-opacity="0"/>
<stop offset="1" stop-color="#B7D4FF"/>
</linearGradient>
<clipPath id="clip0">
<rect width="80" height="80" fill="white"/>
</clipPath>
</defs>
</svg>
