<svg width="44" height="40" viewBox="0 0 44 40" fill="none" xmlns="http://www.w3.org/2000/svg">
<g clip-path="url(#clip0)">
<path d="M21.7049 40.0074L29.6876 15.4395H13.7221L21.7048 40.0074H21.7049Z" fill="#E24329"/>
<path d="M21.7049 40.0072L13.7221 15.4392H2.53482L21.7049 40.0072Z" fill="#FC6D26"/>
<path d="M2.53484 15.4392L0.109072 22.9053C0.00121428 23.2372 0.0011994 23.5948 0.109029 23.9267C0.216859 24.2586 0.426998 24.5479 0.709329 24.7531L21.705 40.0073L2.53467 15.4394L2.53484 15.4392Z" fill="#FCA326"/>
<path d="M2.53482 15.4394H13.7221L8.91446 0.642292C8.66704 -0.11913 7.5899 -0.118961 7.34264 0.642292L2.53482 15.4394Z" fill="#E24329"/>
<path d="M21.7049 40.0072L29.6876 15.4392H40.8751L21.7048 40.0072H21.7049Z" fill="#FC6D26"/>
<path d="M40.8749 15.4392L43.3007 22.9053C43.4085 23.2373 43.4085 23.5948 43.3007 23.9267C43.1928 24.2587 42.9826 24.5479 42.7003 24.7531L21.7049 40.0073L40.8749 15.4394V15.4392Z" fill="#FCA326"/>
<path d="M40.875 15.4394H29.6876L34.4954 0.642292C34.7428 -0.11913 35.82 -0.118961 36.0672 0.642292L40.875 15.4394Z" fill="#E24329"/>
</g>
<defs>
<clipPath id="clip0">
<rect width="43.3839" height="40" fill="white" transform="translate(0.000244141)"/>
</clipPath>
</defs>
</svg>
