<svg width="50" height="19" viewBox="0 0 50 19" fill="none" xmlns="http://www.w3.org/2000/svg">
<g clip-path="url(#clip0)">
<path fill-rule="evenodd" clip-rule="evenodd" d="M3.91319 5.82133C3.81657 5.82133 3.79242 5.77302 3.84073 5.70056L4.34797 5.04839C4.39628 4.97592 4.51706 4.92761 4.61367 4.92761H13.2369C13.3335 4.92761 13.3576 5.00008 13.3093 5.07254L12.8987 5.70056C12.8504 5.77302 12.7296 5.84549 12.6572 5.84549L3.91319 5.82133Z" fill="#00ACD7"/>
<path fill-rule="evenodd" clip-rule="evenodd" d="M0.265552 8.0435C0.168934 8.0435 0.144779 7.99519 0.193088 7.92273L0.700335 7.27055C0.748644 7.19809 0.869417 7.14978 0.966035 7.14978H11.9805C12.0771 7.14978 12.1255 7.22224 12.1013 7.29471L11.9081 7.87442C11.8839 7.97103 11.7873 8.01934 11.6907 8.01934L0.265552 8.0435Z" fill="#00ACD7"/>
<path fill-rule="evenodd" clip-rule="evenodd" d="M6.11081 10.2657C6.01419 10.2657 5.99004 10.1932 6.03835 10.1207L6.37651 9.51688C6.42482 9.44441 6.52144 9.37195 6.61806 9.37195H11.449C11.5456 9.37195 11.5939 9.44441 11.5939 9.54103L11.5456 10.1207C11.5456 10.2174 11.449 10.2898 11.3765 10.2898L6.11081 10.2657Z" fill="#00ACD7"/>
<path fill-rule="evenodd" clip-rule="evenodd" d="M31.1836 5.38648C29.6619 5.77295 28.6233 6.06281 27.1257 6.44928C26.7633 6.5459 26.7392 6.57006 26.4252 6.20774C26.0629 5.79711 25.7972 5.53141 25.2899 5.28986C23.7682 4.54107 22.2947 4.75846 20.9179 5.65218C19.2754 6.71498 18.43 8.28503 18.4542 10.2416C18.4783 12.1739 19.8068 13.7681 21.715 14.0338C23.3576 14.2512 24.7344 13.6715 25.8213 12.4396C26.0387 12.1739 26.2319 11.8841 26.4735 11.5459C25.6039 11.5459 24.517 11.5459 21.8117 11.5459C21.3044 11.5459 21.1836 11.2319 21.3527 10.8213C21.6667 10.0725 22.2464 8.81643 22.5846 8.18841C22.6571 8.04349 22.8261 7.80194 23.1885 7.80194H31.9807C31.9324 8.45411 31.9324 9.10629 31.8358 9.75846C31.5701 11.4976 30.9179 13.0918 29.8551 14.4928C28.116 16.7874 25.8455 18.2126 22.9711 18.599C20.6039 18.913 18.4059 18.4541 16.4735 17.0048C14.686 15.6522 13.6716 13.8647 13.4059 11.6425C13.0918 9.00967 13.8648 6.64252 15.459 4.56522C17.174 2.31885 19.4445 0.893726 22.2223 0.38648C24.4928 -0.024148 26.6667 0.241553 28.6233 1.57006C29.9034 2.41547 30.8213 3.57489 31.4252 4.97585C31.5701 5.19324 31.4735 5.31402 31.1836 5.38648Z" fill="#00ACD7"/>
<path d="M39.179 18.7439C36.9809 18.6956 34.9761 18.0676 33.2852 16.6183C31.8601 15.3864 30.9664 13.8164 30.6765 11.9565C30.2418 9.22703 30.9906 6.81157 32.6331 4.66181C34.3963 2.34297 36.522 1.13524 39.3964 0.627991C41.8601 0.193209 44.179 0.434755 46.2804 1.85988C48.1886 3.16422 49.3722 4.92751 49.6862 7.24635C50.0968 10.5072 49.1548 13.1642 46.9084 15.4348C45.3142 17.0531 43.3577 18.0676 41.1113 18.5265C40.4592 18.6473 39.807 18.6715 39.179 18.7439ZM44.9278 8.98548C44.9036 8.67147 44.9036 8.42992 44.8553 8.18838C44.4205 5.79707 42.2224 4.44442 39.9278 4.97582C37.6814 5.48306 36.2321 6.90818 35.7007 9.17872C35.2659 11.0628 36.1838 12.971 37.9229 13.7439C39.2514 14.3236 40.5799 14.2512 41.8601 13.599C43.7683 12.6087 44.807 11.0628 44.9278 8.98548Z" fill="#00ACD7"/>
</g>
<defs>
<clipPath id="clip0">
<rect width="50" height="18.8406" fill="white"/>
</clipPath>
</defs>
</svg>
