<svg width="36" height="41" viewBox="0 0 36 41" fill="none" xmlns="http://www.w3.org/2000/svg">
<g clip-path="url(#clip0)">
<path d="M17.2375 1.77838C17.2991 1.43316 17.4712 1.13611 17.6595 0.85244C18.0163 0.307403 18.5337 0.290455 18.9395 0.80873C19.3044 1.27705 19.4748 1.83636 19.5782 2.40548C19.8189 3.66527 19.8041 4.96057 19.5345 6.2145C19.4641 6.54009 19.539 6.63286 19.8521 6.66944C21.879 6.90695 23.8246 7.60542 25.5397 8.71132C25.8118 8.88348 25.9376 8.93611 26.0999 8.54629C26.7806 6.91386 27.7663 5.51335 29.3247 4.58117C29.6592 4.38135 30.0249 4.25647 30.3746 4.4661C30.7243 4.67573 30.7198 5.07358 30.6841 5.43129C30.5878 6.41877 30.1489 7.27603 29.6137 8.08957C29.1186 8.84691 28.5629 9.55608 27.8296 10.1029C27.6512 10.2358 27.6824 10.35 27.8341 10.4936C28.4662 11.1002 29.0444 11.7608 29.562 12.4677C29.6315 12.5569 29.7591 12.6461 29.7047 12.7692C29.6503 12.8923 29.4951 12.837 29.3871 12.8388C28.7627 12.8459 28.1383 12.8174 27.5138 12.8513C27.108 12.8727 26.8279 12.7407 26.546 12.4499C24.8766 10.7306 22.7306 9.55058 20.3846 9.06201C18.0385 8.57343 15.5999 8.79864 13.383 9.70862C11.7675 10.3643 10.3759 11.366 9.17525 12.6256C9.11537 12.6981 9.0395 12.7557 8.9536 12.7939C8.8677 12.8322 8.77411 12.85 8.68017 12.8459C7.96654 12.8406 7.2529 12.8459 6.53927 12.8406C6.43133 12.8406 6.27969 12.9093 6.21992 12.7763C6.16729 12.6577 6.28058 12.5569 6.35105 12.465C6.93177 11.7121 7.52676 10.97 8.24931 10.3482C8.5535 10.086 8.60613 9.93341 8.27518 9.60604C7.21811 8.557 6.41974 7.33044 6.03616 5.87285C5.91127 5.3956 5.80423 4.847 6.25203 4.50178C6.67575 4.17529 7.12356 4.44023 7.52408 4.69C8.56866 5.34297 9.30817 6.28051 9.94508 7.30635C10.121 7.56371 10.2665 7.84061 10.3786 8.13149C10.5097 8.51775 10.6971 8.52399 11.003 8.34201C12.2251 7.61411 13.5525 7.14936 14.9334 6.84428C15.5578 6.7069 16.1965 6.65963 16.8281 6.57042C16.9788 6.54901 17.1849 6.59718 17.1456 6.326C16.9456 5.43233 16.8732 4.51481 16.9307 3.60082C16.9641 2.98373 17.067 2.37239 17.2375 1.77838Z" fill="#1E008B"/>
<path d="M17.3266 39.3307C16.7976 37.8311 16.7691 36.3031 17.0991 34.7634C17.1678 34.4441 17.1393 34.3174 16.7771 34.2933C15.1463 34.1672 13.5506 33.7541 12.0636 33.073C11.6819 32.9098 11.3136 32.7172 10.9619 32.4967C10.6604 32.2987 10.5417 32.3736 10.4097 32.6751C9.8843 33.8621 9.09793 34.9153 8.10914 35.7562C7.77374 36.047 7.41871 36.3164 6.9709 36.4288C6.31614 36.593 5.97182 36.3316 5.95754 35.6492C5.94505 35.0524 6.15022 34.5047 6.38751 33.9784C6.87208 32.8921 7.56626 31.912 8.43028 31.0944C8.60869 30.9285 8.60066 30.8491 8.41779 30.6832C7.71871 30.0636 7.08692 29.372 6.53291 28.6199C6.47314 28.5378 6.3545 28.4674 6.39821 28.3577C6.4446 28.2301 6.57662 28.2934 6.67296 28.2925C7.41603 28.2872 8.1591 28.2925 8.90306 28.2854C9.01268 28.2834 9.12143 28.3052 9.22183 28.3492C9.32223 28.3933 9.4119 28.4585 9.48467 28.5405C12.5631 31.5092 16.2374 32.5824 20.4113 31.8009C22.7663 31.3594 24.7974 30.1997 26.4932 28.4906C26.5503 28.4245 26.6214 28.372 26.7013 28.3368C26.7813 28.3017 26.868 28.2847 26.9553 28.2872C27.7135 28.2925 28.4718 28.2872 29.2291 28.2925C29.3237 28.2925 29.4566 28.2328 29.5065 28.3568C29.5493 28.4665 29.4432 28.5441 29.3843 28.6244C28.9417 29.2369 28.4384 29.8033 27.8821 30.3148C27.6761 30.5021 27.6716 30.594 27.8946 30.7911C29.2327 31.9758 30.2505 33.3781 30.6474 35.1532C30.7367 35.5743 30.816 36.0667 30.4173 36.3503C29.9864 36.6563 29.5199 36.4297 29.131 36.1719C27.7224 35.2255 26.7564 33.9151 26.1212 32.3594C25.9758 32.0025 25.9116 31.924 25.5325 32.1649C23.8102 33.2561 21.8702 33.9578 19.8484 34.221C19.513 34.2656 19.4853 34.3584 19.5406 34.6599C19.8332 36.2576 19.8778 37.8472 19.3007 39.4065C19.1794 39.7064 19.0051 39.982 18.786 40.22C18.4675 40.5902 17.9457 40.4528 17.6129 39.9355C17.5696 39.8576 17.5318 39.7768 17.4997 39.6937C17.4158 39.5858 17.3917 39.4475 17.3266 39.3307Z" fill="#1E008B"/>
<path d="M26.0002 20.4657C26.0002 19.1731 26.0091 17.8788 25.9939 16.588C25.9939 16.274 26.0501 16.1491 26.4043 16.142C26.5938 16.1318 26.7833 16.1616 26.9605 16.2296C27.1378 16.2975 27.2987 16.402 27.4328 16.5362C28.3587 17.4087 29.3177 18.2463 30.2508 19.1116C30.4533 19.2998 30.5737 19.3301 30.7967 19.1223C31.7824 18.2026 32.8065 17.323 33.7806 16.3917C34.1374 16.0492 34.5272 16.1669 34.9072 16.1741C35.14 16.1785 35.0508 16.431 35.0517 16.5755C35.0571 18.4327 35.0571 20.2902 35.0517 22.1481C35.0517 22.8902 35.041 23.6342 35.0571 24.3782C35.0633 24.6618 34.9875 24.7823 34.6851 24.7698C34.1811 24.751 33.6744 24.7537 33.1686 24.7698C32.8662 24.7787 32.7538 24.6806 32.7583 24.3603C32.7752 23.1873 32.7663 22.0134 32.7583 20.8394C32.7583 20.7315 32.8234 20.5781 32.6762 20.5263C32.5674 20.4889 32.4978 20.6155 32.4238 20.6789C31.9198 21.1365 31.4077 21.5861 30.9234 22.0642C30.6281 22.3559 30.4122 22.3559 30.1134 22.0562C29.6219 21.5647 29.0884 21.1151 28.5702 20.6494C28.4988 20.5852 28.4355 20.4568 28.3159 20.5317C28.2151 20.5941 28.2571 20.7199 28.2562 20.8189C28.2562 21.9786 28.241 23.1382 28.2633 24.2979C28.2704 24.6663 28.1679 24.7983 27.7914 24.7751C27.316 24.7505 26.8396 24.7505 26.3641 24.7751C26.0716 24.7876 25.9806 24.6859 25.9832 24.3933C26.0082 23.0811 26.0002 21.7734 26.0002 20.4657Z" fill="#1E008C"/>
<path d="M7.72906 20.4595C7.72906 21.7521 7.71925 23.0464 7.7362 24.3372C7.74066 24.6637 7.65502 24.7913 7.31426 24.7725C6.83889 24.7457 6.36238 24.7457 5.887 24.7725C5.52215 24.7939 5.44098 24.6485 5.44811 24.3087C5.47041 23.4924 5.44811 22.6744 5.45882 21.8573C5.45882 21.6093 5.41511 21.4711 5.11984 21.4791C4.43654 21.496 3.75234 21.4925 3.06815 21.4791C2.79608 21.4737 2.7042 21.5763 2.71133 21.8448C2.72293 22.6914 2.7042 23.5397 2.72114 24.3854C2.72739 24.6824 2.62124 24.777 2.33489 24.7681C1.83089 24.7529 1.32421 24.7529 0.818422 24.7681C0.539213 24.777 0.466065 24.6637 0.466957 24.3996C0.474094 21.7699 0.474094 19.1399 0.466957 16.5095C0.466957 16.2419 0.544565 16.1411 0.823774 16.1527C1.34294 16.1715 1.86389 16.1688 2.38306 16.1527C2.63729 16.1456 2.72204 16.2357 2.71847 16.4863C2.70776 17.274 2.7256 18.0617 2.70866 18.8485C2.70241 19.1598 2.8041 19.2659 3.11721 19.2561C3.77137 19.2365 4.42554 19.2365 5.0797 19.2561C5.3714 19.2651 5.46863 19.1669 5.46328 18.8779C5.44722 18.0911 5.46328 17.3026 5.45347 16.5158C5.44901 16.2535 5.5168 16.1411 5.80047 16.1518C6.32053 16.1706 6.84148 16.1723 7.36065 16.1518C7.66037 16.1393 7.73887 16.2491 7.7362 16.5354C7.72193 17.844 7.72906 19.1518 7.72906 20.4595Z" fill="#1E008C"/>
<path d="M10.3177 20.4381C10.3177 19.1456 10.3258 17.8512 10.3124 16.5613C10.3124 16.2634 10.3766 16.1474 10.7031 16.151C12.2178 16.1677 13.7328 16.1677 15.248 16.151C15.595 16.1465 15.6941 16.2652 15.6611 16.5872C15.6111 17.0537 15.8644 17.6577 15.554 17.9556C15.2668 18.2348 14.6762 18.0261 14.2159 18.0394C13.786 18.0528 13.3542 18.0519 12.9243 18.0394C12.6781 18.0323 12.5907 18.1197 12.5791 18.3722C12.5327 19.4319 12.5246 19.4319 13.5737 19.4319C14.0045 19.4319 14.4354 19.4489 14.8654 19.4266C15.1829 19.4096 15.3328 19.4944 15.3114 19.844C15.2882 20.2148 15.2882 20.5866 15.3114 20.9573C15.3274 21.2472 15.2275 21.3489 14.9331 21.3409C14.2802 21.3222 13.6263 21.3471 12.9707 21.3293C12.6781 21.3213 12.5898 21.4185 12.5835 21.7111C12.5576 22.9278 12.5487 22.9278 13.7681 22.9278C14.2873 22.9278 14.8083 22.9376 15.3274 22.9234C15.5781 22.9162 15.6744 23.001 15.6637 23.2552C15.6486 23.6415 15.6459 24.0286 15.6637 24.4149C15.678 24.7003 15.5496 24.7717 15.2935 24.7672C13.7494 24.761 12.2044 24.7583 10.6594 24.7672C10.3766 24.7672 10.3115 24.6611 10.3133 24.3997C10.3231 23.0813 10.3177 21.7593 10.3177 20.4381Z" fill="#1E008C"/>
<path d="M18.1296 20.4649C18.1296 19.1723 18.1394 17.8779 18.1234 16.588C18.1189 16.266 18.1929 16.1304 18.5408 16.1518C19.0162 16.18 19.4928 16.18 19.9681 16.1518C20.3169 16.1304 20.4221 16.241 20.4186 16.5979C20.4007 18.3819 20.4106 20.166 20.4106 21.9448C20.4106 22.5103 20.4106 22.5103 20.9975 22.5103C21.6951 22.5103 22.3936 22.521 23.0911 22.5058C23.3873 22.4996 23.5273 22.5728 23.5122 22.901C23.4899 23.405 23.4935 23.9117 23.5122 24.4175C23.5229 24.6985 23.406 24.7743 23.1464 24.7743C21.6014 24.7681 20.0564 24.7636 18.5123 24.7743C18.1796 24.7743 18.1251 24.6325 18.1278 24.3443C18.1403 23.0491 18.1296 21.7574 18.1296 20.4649Z" fill="#1E008C"/>
<path d="M17.237 1.77832C17.0952 2.75957 16.8927 3.73635 16.981 4.73633C17.0274 5.27155 17.0898 5.79518 17.1451 6.32505C16.7125 4.80234 16.7205 3.28587 17.237 1.77832Z" fill="#715FB6"/>
<path d="M17.3269 39.3306C17.3863 39.37 17.4337 39.4249 17.4641 39.4894C17.4944 39.5539 17.5065 39.6254 17.4991 39.6963C17.4335 39.6636 17.3808 39.6097 17.3496 39.5433C17.3183 39.4769 17.3104 39.402 17.3269 39.3306Z" fill="#5F4BAE"/>
</g>
<defs>
<clipPath id="clip0">
<rect width="34.6005" height="40" fill="white" transform="translate(0.467041 0.431396)"/>
</clipPath>
</defs>
</svg>
