<svg width="40" height="40" viewBox="0 0 40 40" fill="none" xmlns="http://www.w3.org/2000/svg">
<g clip-path="url(#clip0)">
<path d="M40.0002 0H0.000244141V40H40.0002V0Z" fill="#F7DF1E"/>
<path d="M26.8702 31.2501C27.6759 32.5657 28.7242 33.5327 30.5781 33.5327C32.1356 33.5327 33.1305 32.7543 33.1305 31.6787C33.1305 30.3898 32.1083 29.9333 30.394 29.1835L29.4543 28.7803C26.7419 27.6247 24.94 26.1771 24.94 23.1168C24.94 20.2978 27.088 18.1517 30.4448 18.1517C32.8346 18.1517 34.5527 18.9835 35.7908 21.1613L32.8639 23.0406C32.2194 21.8851 31.5242 21.4298 30.4448 21.4298C29.3439 21.4298 28.6461 22.1282 28.6461 23.0406C28.6461 24.1682 29.3445 24.6247 30.9572 25.3232L31.8969 25.7257C35.0905 27.0952 36.8937 28.4914 36.8937 31.6305C36.8937 35.0146 34.2353 36.8686 30.6651 36.8686C27.1743 36.8686 24.9191 35.2051 23.8156 33.0247L26.8702 31.2501ZM13.5921 31.5759C14.1826 32.6235 14.7197 33.5092 16.0112 33.5092C17.2461 33.5092 18.0251 33.026 18.0251 31.1473V18.3663H21.7839V31.1981C21.7839 35.0901 19.5019 36.8616 16.1712 36.8616C13.1616 36.8616 11.4188 35.3041 10.5324 33.4282L13.5921 31.5759Z" fill="black"/>
</g>
<defs>
<clipPath id="clip0">
<rect width="40" height="40" fill="white" transform="translate(0.000244141)"/>
</clipPath>
</defs>
</svg>
