<svg width="52" height="18" viewBox="0 0 52 18" fill="none" xmlns="http://www.w3.org/2000/svg">
<g clip-path="url(#clip0)">
<path d="M7.50134 0.0866137C7.22488 0.254657 6.7641 0.725177 6.21776 1.40743L6.72132 2.37872C7.07348 1.86115 7.43552 1.39735 7.79755 1.00077C7.82388 0.97052 7.84034 0.953716 7.84034 0.953716C7.82717 0.97052 7.81072 0.983963 7.79755 1.00077C7.67907 1.13184 7.32361 1.55531 6.78714 2.39889C7.30387 2.372 8.09705 2.26445 8.74543 2.15018C8.93961 1.04782 8.55783 0.543691 8.55783 0.543691C8.55783 0.543691 8.07072 -0.259555 7.50134 0.0866137Z" fill="url(#paint0_linear)"/>
<path d="M5.80616 8.24011C5.74033 8.25355 5.67451 8.26364 5.60868 8.27372C5.64159 8.27036 5.6778 8.26364 5.71071 8.25692C5.74362 8.25355 5.77653 8.24683 5.80616 8.24011Z" fill="#BE202E"/>
<path opacity="0.35" d="M5.80616 8.24011C5.74033 8.25355 5.67451 8.26364 5.60868 8.27372C5.64159 8.27036 5.6778 8.26364 5.71071 8.25692C5.74362 8.25355 5.77653 8.24683 5.80616 8.24011Z" fill="#BE202E"/>
<path d="M5.97748 7.3898C5.97419 7.3898 5.97419 7.3898 5.97748 7.3898C5.98736 7.3898 5.99723 7.38644 6.0071 7.38644C6.04989 7.37972 6.09268 7.373 6.13217 7.36292C6.0828 7.373 6.03014 7.37972 5.97748 7.3898Z" fill="#BE202E"/>
<path opacity="0.35" d="M5.97748 7.3898C5.97419 7.3898 5.97419 7.3898 5.97748 7.3898C5.98736 7.3898 5.99723 7.38644 6.0071 7.38644C6.04989 7.37972 6.09268 7.373 6.13217 7.36292C6.0828 7.373 6.03014 7.37972 5.97748 7.3898Z" fill="#BE202E"/>
<path d="M5.23365 4.88596C5.38834 4.59357 5.54303 4.30789 5.69771 4.02894C5.85899 3.73991 6.02355 3.46096 6.1914 3.18873C6.20127 3.17192 6.21115 3.15512 6.22102 3.14167C6.38558 2.87617 6.55015 2.62074 6.718 2.3754L6.21444 1.40747C6.17824 1.45452 6.13874 1.50157 6.09925 1.55199C5.95443 1.73684 5.80303 1.93513 5.64835 2.14686C5.47391 2.38548 5.29618 2.63755 5.11187 2.90305C4.94402 3.1484 4.77288 3.40718 4.60173 3.67269C4.45692 3.90123 4.3121 4.13313 4.16729 4.37175C4.16071 4.38183 4.15742 4.38855 4.15083 4.39864L4.80579 5.71945C4.9506 5.4405 5.09213 5.16155 5.23365 4.88596Z" fill="url(#paint1_linear)"/>
<path d="M2.24845 12.3369C2.16288 12.5789 2.07402 12.8276 1.98845 13.083C1.98845 13.0864 1.98515 13.0898 1.98515 13.0931C1.97199 13.1301 1.95882 13.1637 1.94895 13.2007C1.88971 13.3721 1.84034 13.5267 1.72186 13.8762C1.91604 13.9669 2.07073 14.2022 2.21554 14.4711C2.19908 14.1921 2.08718 13.93 1.87325 13.7283C2.82442 13.772 3.64723 13.5267 4.06851 12.8142C4.10471 12.7503 4.14091 12.6831 4.17383 12.6125C3.97964 12.8612 3.74267 12.9688 3.29177 12.9419H3.28848H3.29177C3.95331 12.6394 4.28573 12.347 4.57865 11.8664C4.64776 11.7521 4.71688 11.6278 4.786 11.49C4.20674 12.0983 3.53533 12.2697 2.82771 12.1386L2.29782 12.1991C2.28137 12.2462 2.26491 12.2899 2.24845 12.3369Z" fill="url(#paint2_linear)"/>
<path d="M2.49468 11.1237C2.60987 10.8212 2.72836 10.5154 2.84684 10.2062C2.96203 9.91043 3.08052 9.61467 3.2023 9.31556C3.32407 9.01644 3.44914 8.71732 3.57421 8.41821C3.70256 8.11237 3.83421 7.80989 3.96915 7.50741C4.1008 7.2083 4.23904 6.90918 4.37398 6.61342C4.42334 6.50588 4.47271 6.40169 4.52537 6.29414C4.61094 6.11266 4.69981 5.93117 4.78867 5.74968C4.79196 5.7396 4.79855 5.72952 4.80184 5.71943L4.15346 4.40198C4.14359 4.41878 4.13372 4.43895 4.12055 4.45575C3.96915 4.71118 3.81447 4.96996 3.66636 5.23547C3.51496 5.50434 3.36686 5.77657 3.22204 6.05552C3.10027 6.29078 2.98178 6.52604 2.8633 6.76466C2.84026 6.81171 2.81722 6.86213 2.79418 6.90918C2.65266 7.2083 2.52101 7.50069 2.40582 7.77964C2.27417 8.09556 2.15897 8.39804 2.05694 8.68371C1.99112 8.87192 1.92859 9.05341 1.87264 9.22817C1.82656 9.37605 1.78377 9.52729 1.74099 9.67517C1.64225 10.0247 1.55997 10.3742 1.49085 10.7238L2.1491 12.0513C2.23467 11.8127 2.32683 11.5741 2.41569 11.3287C2.44202 11.2615 2.46835 11.1943 2.49468 11.1237Z" fill="url(#paint3_linear)"/>
<path d="M1.4813 10.7708C1.39902 11.1943 1.33978 11.6177 1.31016 12.0412C1.31016 12.0547 1.30687 12.0715 1.30687 12.0849C1.10281 11.7488 0.549881 11.4195 0.553172 11.4228C0.94812 12.0076 1.24762 12.5857 1.29041 13.1537C1.07977 13.1973 0.790141 13.1335 0.457726 13.0091C0.806597 13.3351 1.0666 13.4259 1.16863 13.4494C0.849383 13.4696 0.516968 13.6948 0.181262 13.9535C0.671656 13.7485 1.0699 13.6679 1.35294 13.7351C0.902043 15.0357 0.451144 16.4742 0.000244141 18C0.138476 17.9597 0.220757 17.8622 0.266834 17.7345C0.345824 17.4589 0.882296 15.6441 1.71827 13.2612C1.74131 13.194 1.76764 13.1268 1.79068 13.0562C1.79726 13.036 1.80384 13.0192 1.81042 12.9991C1.89929 12.7504 1.99144 12.4949 2.08689 12.2328C2.10993 12.1723 2.12967 12.1152 2.15271 12.0547V12.0513L1.49447 10.7238C1.48788 10.7406 1.48459 10.754 1.4813 10.7708Z" fill="url(#paint4_linear)"/>
<path d="M4.91054 5.83368C4.89079 5.87401 4.87433 5.91098 4.85459 5.95131C4.79863 6.0723 4.73939 6.19329 4.68344 6.31764C4.62091 6.45208 4.55837 6.58987 4.49255 6.73103C4.45964 6.80161 4.42672 6.87218 4.39381 6.94612C4.29508 7.16458 4.19634 7.38976 4.09431 7.62166C3.96924 7.90733 3.84418 8.20308 3.71582 8.51228C3.59404 8.80468 3.46898 9.11052 3.34391 9.42308C3.22542 9.72219 3.10365 10.028 2.98187 10.3473C2.87326 10.6296 2.76465 10.922 2.65275 11.2211C2.64617 11.2346 2.64287 11.2514 2.63629 11.2648C2.52768 11.5606 2.41578 11.8664 2.30388 12.179C2.30059 12.1857 2.29729 12.1924 2.29729 12.1991L2.82718 12.1387C2.81731 12.1353 2.80744 12.1353 2.79427 12.1319C3.42948 12.0513 4.27204 11.5673 4.81509 10.9691C5.06522 10.6935 5.29232 10.3708 5.50296 9.99106C5.66094 9.70875 5.80575 9.39619 5.94728 9.04666C6.06905 8.74418 6.18754 8.41482 6.29944 8.05857C6.15462 8.13587 5.98677 8.193 5.80246 8.23333C5.76955 8.24005 5.73664 8.24678 5.70372 8.2535C5.67081 8.26022 5.6379 8.26358 5.6017 8.2703C6.19412 8.0384 6.56603 7.59141 6.83591 7.04023C6.68122 7.14777 6.4278 7.28893 6.125 7.35951C6.08551 7.36959 6.04272 7.37631 5.99994 7.38303C5.99006 7.38303 5.98019 7.3864 5.96702 7.3864C6.17108 7.29901 6.34552 7.20155 6.49691 7.08392C6.52983 7.06039 6.55945 7.0335 6.58907 7.00662C6.63514 6.96629 6.67793 6.9226 6.72072 6.87891C6.74705 6.84866 6.77338 6.82177 6.79971 6.79152C6.85895 6.72095 6.9149 6.64364 6.96427 6.55962C6.98072 6.53274 6.99718 6.50921 7.01035 6.48232C7.03009 6.44199 7.04984 6.40502 7.0663 6.36805C7.14858 6.20001 7.2144 6.04877 7.26706 5.91434C7.29339 5.84712 7.31643 5.78663 7.33618 5.72949C7.34276 5.70596 7.35263 5.6858 7.35922 5.66227C7.37896 5.59842 7.39871 5.54128 7.41188 5.49087C7.43162 5.41693 7.44479 5.35644 7.45137 5.31274C7.43162 5.32955 7.40859 5.34635 7.38226 5.3598C7.20453 5.46734 6.89844 5.56817 6.6516 5.61522L7.1387 5.56145L6.6516 5.61522C6.64831 5.61522 6.64502 5.61522 6.64173 5.61858C6.61869 5.62194 6.59236 5.6253 6.56603 5.63203C6.56932 5.62867 6.5759 5.62866 6.57919 5.6253L4.91383 5.81015C4.91712 5.82359 4.91383 5.83032 4.91054 5.83368Z" fill="url(#paint5_linear)"/>
<path d="M6.78666 2.39891C6.63856 2.63081 6.47729 2.89631 6.30285 3.19207C6.29298 3.20887 6.2831 3.22232 6.27652 3.23912C6.12512 3.49791 5.96714 3.78022 5.79929 4.09278C5.65448 4.36165 5.50308 4.64732 5.3451 4.95988C5.20687 5.22875 5.06864 5.51442 4.92053 5.8169L6.5859 5.63205C7.06971 5.40352 7.28693 5.1985 7.49757 4.89939C7.55352 4.81873 7.60947 4.73134 7.66542 4.6406C7.83657 4.36837 8.00442 4.06925 8.15252 3.77014C8.29734 3.4811 8.4257 3.19543 8.52114 2.94001C8.58368 2.77532 8.63305 2.62408 8.66925 2.48965C8.69887 2.37202 8.72191 2.26111 8.74166 2.15356C8.09657 2.26447 7.30339 2.37202 6.78666 2.39891Z" fill="url(#paint6_linear)"/>
<path d="M5.71071 8.26025C5.6778 8.26698 5.64488 8.27034 5.60868 8.27706C5.64159 8.27034 5.67451 8.26361 5.71071 8.26025Z" fill="#BE202E"/>
<path opacity="0.35" d="M5.71071 8.26025C5.6778 8.26698 5.64488 8.27034 5.60868 8.27706C5.64159 8.27034 5.67451 8.26361 5.71071 8.26025Z" fill="#BE202E"/>
<path d="M5.71071 8.26025C5.6778 8.26698 5.64488 8.27034 5.60868 8.27706C5.64159 8.27034 5.67451 8.26361 5.71071 8.26025Z" fill="url(#paint7_linear)"/>
<path d="M5.974 7.38971C5.98387 7.38971 5.99375 7.38635 6.00691 7.38635C5.99704 7.38635 5.98716 7.38971 5.974 7.38971Z" fill="#BE202E"/>
<path opacity="0.35" d="M5.974 7.38971C5.98387 7.38971 5.99375 7.38635 6.00691 7.38635C5.99704 7.38635 5.98716 7.38971 5.974 7.38971Z" fill="#BE202E"/>
<path d="M5.974 7.38971C5.98387 7.38971 5.99375 7.38635 6.00691 7.38635C5.99704 7.38635 5.98716 7.38971 5.974 7.38971Z" fill="url(#paint8_linear)"/>
<path d="M6.73987 5.60122V5.84689H6.67221V5.60122H6.58701V5.54236H6.82257V5.60122H6.73987Z" fill="#B0AFB0"/>
<path d="M7.13789 5.65496L7.05769 5.8213H7.0176L6.9374 5.65496V5.84689H6.87225V5.54236H6.96246L7.04015 5.7087L7.11784 5.54236H7.20806V5.84689H7.1429V5.65496H7.13789Z" fill="#B0AFB0"/>
<path d="M9.47405 17.5203C9.19599 17.5203 8.95215 17.505 8.74253 17.4744C8.53291 17.4482 8.35537 17.4154 8.20992 17.3761V15.6855C8.36821 15.7205 8.53505 15.751 8.71044 15.7773C8.88156 15.8035 9.06979 15.8166 9.27513 15.8166C9.47192 15.8166 9.65372 15.7947 9.82056 15.7511C9.99168 15.7074 10.1393 15.6309 10.2633 15.5217C10.3917 15.4169 10.4901 15.2749 10.5585 15.0958C10.6312 14.9167 10.6676 14.6917 10.6676 14.4209V5.12268H12.6568V14.3553C12.6568 14.9058 12.5777 15.3797 12.4194 15.7773C12.2654 16.1748 12.0472 16.5024 11.7649 16.7602C11.4868 17.0223 11.1531 17.2145 10.7638 17.3368C10.3746 17.4591 9.94462 17.5203 9.47405 17.5203Z" fill="#D22128"/>
<path fill-rule="evenodd" clip-rule="evenodd" d="M10.5448 5.12268C10.5448 5.05351 10.5998 4.99744 10.6675 4.99744H12.6567C12.7245 4.99744 12.7794 5.05351 12.7794 5.12268V14.3553C12.7794 14.9173 12.6987 15.4079 12.5331 15.8239C12.373 16.237 12.1448 16.581 11.8473 16.8529C11.5549 17.1283 11.205 17.3292 10.7998 17.4565C10.3972 17.583 9.95489 17.6455 9.47395 17.6455C9.19229 17.6455 8.94284 17.6301 8.72629 17.5986C8.51367 17.5719 8.33068 17.5383 8.17844 17.4972C8.12464 17.4826 8.08717 17.4329 8.08717 17.3761V15.6855C8.08717 15.6477 8.10395 15.6118 8.1328 15.5881C8.16166 15.5643 8.1995 15.5551 8.23574 15.5631C8.39109 15.5974 8.55519 15.6275 8.7281 15.6533L8.72854 15.6534C8.89264 15.6785 9.07469 15.6913 9.27503 15.6913C9.46297 15.6913 9.63441 15.6705 9.79 15.6297L9.79071 15.6296C9.9447 15.5902 10.0747 15.5223 10.1831 15.4269C10.1843 15.4259 10.1854 15.4249 10.1866 15.4239C10.2958 15.3347 10.3824 15.2119 10.4441 15.0503L10.4451 15.0478L10.4451 15.0478C10.5097 14.8887 10.5448 14.6813 10.5448 14.4209V5.12268ZM10.7901 5.24793V14.4209C10.7901 14.7015 10.7527 14.9437 10.6722 15.1425C10.5974 15.3378 10.4879 15.498 10.3416 15.6181C10.2024 15.7401 10.0379 15.8246 9.85061 15.8725C9.67261 15.919 9.48054 15.9418 9.27503 15.9418C9.06475 15.9418 8.8704 15.9284 8.69231 15.9012C8.56833 15.8826 8.44838 15.8619 8.33247 15.839V17.2778C8.45295 17.3055 8.59438 17.3297 8.75734 17.3501L8.75978 17.3504L8.75977 17.3504C8.96219 17.3799 9.2 17.395 9.47395 17.395C9.93415 17.395 10.3517 17.3352 10.7277 17.2171C11.1008 17.0999 11.418 16.9166 11.6816 16.6681L11.683 16.6668L11.683 16.6668C11.9497 16.4234 12.1575 16.1125 12.3053 15.7312L12.3057 15.7301C12.4566 15.3511 12.5341 14.894 12.5341 14.3553V5.24793H10.7901ZM8.69231 15.9012C8.69226 15.9011 8.6922 15.9011 8.69215 15.9011L8.71034 15.7773L8.69258 15.9012C8.69249 15.9012 8.6924 15.9012 8.69231 15.9012ZM9.85061 15.8725C9.85047 15.8725 9.85034 15.8725 9.85021 15.8726L9.82046 15.7511L9.85092 15.8724C9.85082 15.8724 9.85071 15.8724 9.85061 15.8725Z" fill="#D22128"/>
<path d="M13.7228 5.12366V14.7023H15.5013V10.2457C15.5012 10.1233 15.4979 9.9863 15.4936 9.8334C15.4936 9.68051 15.4894 9.52191 15.4808 9.3559C15.4765 9.18991 15.4715 9.02269 15.4629 8.85231C15.4586 8.68195 15.451 8.51558 15.4425 8.35394C15.4254 7.97826 15.4043 7.5895 15.3786 7.1876H15.4374L17.4969 14.7023H19.3239L21.5444 7.20064H21.5955C21.5826 7.59817 21.5691 7.97917 21.552 8.34611C21.5477 8.50338 21.5401 8.66544 21.5316 8.83144C21.5273 8.99744 21.5231 9.16036 21.5188 9.32198C21.5145 9.48362 21.5103 9.63706 21.506 9.78122C21.506 9.92538 21.506 10.0538 21.506 10.1674V14.7023H23.3611V5.12366H20.6526L18.496 12.4479H18.4576L16.4314 5.12366H13.7228ZM32.3478 5.81773L31.7831 7.36242L30.7074 8.033V8.8784H31.6426V12.4088C31.6426 12.8805 31.6974 13.2736 31.8087 13.5881C31.9242 13.8983 32.0821 14.1466 32.2788 14.3344C32.4756 14.5179 32.7095 14.6489 32.979 14.7232C33.2485 14.7974 33.538 14.8328 33.8503 14.8328C34.1711 14.8328 34.4674 14.8018 34.737 14.7362C35.0107 14.6751 35.2378 14.5949 35.4218 14.4988V13.0115C35.2421 13.077 35.0657 13.1322 34.8903 13.1759C34.7192 13.2196 34.536 13.2411 34.3435 13.2411C34.121 13.2411 33.9412 13.173 33.8043 13.0376C33.6674 12.9022 33.5999 12.6927 33.5999 12.4088V8.8784H35.3451V7.37807H33.5999V5.81773H32.3478ZM27.3243 7.23978C26.8366 7.23979 26.3926 7.32082 25.9904 7.48244C25.5926 7.64408 25.2499 7.88456 24.9632 8.20782C24.6809 8.52672 24.4597 8.92757 24.3014 9.40809C24.1432 9.88862 24.0638 10.4489 24.0638 11.0911C24.0638 11.7245 24.1508 12.2788 24.3219 12.7506C24.4973 13.218 24.7404 13.6068 25.0527 13.9169C25.365 14.2227 25.7372 14.4503 26.1693 14.6032C26.6014 14.7561 27.0741 14.8328 27.5875 14.8328C27.8527 14.8328 28.0958 14.8233 28.3182 14.8015C28.5407 14.784 28.7492 14.7538 28.9417 14.7101C29.1342 14.6665 29.3149 14.6121 29.486 14.551C29.6614 14.4854 29.8361 14.4079 30.0072 14.3161V12.7688C29.819 12.8649 29.635 12.9503 29.4553 13.0245C29.2756 13.0944 29.0924 13.1539 28.9085 13.202C28.7245 13.25 28.5355 13.288 28.3387 13.3142C28.1462 13.336 27.941 13.3455 27.7229 13.3455C27.4619 13.3455 27.2281 13.3059 27.0228 13.2228C26.8217 13.1398 26.6469 13.0209 26.5015 12.868C26.3603 12.7107 26.2506 12.5193 26.1693 12.2966C26.0923 12.0694 26.0501 11.8168 26.0415 11.5373H30.4161V10.5666C30.4161 10.0337 30.3443 9.56301 30.1989 9.15238C30.0577 8.73738 29.8526 8.3874 29.5831 8.10345C29.3179 7.81951 28.992 7.60573 28.607 7.46157C28.2262 7.31305 27.7991 7.23979 27.3243 7.23978ZM39.1064 7.23978C38.6187 7.23979 38.1747 7.32082 37.7726 7.48244C37.3747 7.64408 37.032 7.88456 36.7454 8.20782C36.463 8.52672 36.2418 8.92757 36.0836 9.40809C35.9253 9.88862 35.8459 10.4489 35.8459 11.0911C35.8459 11.7245 35.9329 12.2788 36.104 12.7506C36.2794 13.218 36.5225 13.6068 36.8348 13.9169C37.1471 14.2227 37.5194 14.4503 37.9514 14.6032C38.3835 14.7561 38.8562 14.8328 39.3696 14.8328C39.6348 14.8328 39.8779 14.8233 40.1004 14.8015C40.3228 14.784 40.5313 14.7538 40.7238 14.7101C40.9163 14.6665 41.097 14.6121 41.2681 14.551C41.4435 14.4854 41.6182 14.4079 41.7894 14.3161V12.7688C41.6011 12.8649 41.4171 12.9503 41.2374 13.0245C41.0578 13.0944 40.8746 13.1539 40.6906 13.202C40.5067 13.25 40.3176 13.288 40.1208 13.3142C39.9283 13.336 39.7232 13.3455 39.505 13.3455C39.244 13.3455 39.0102 13.3059 38.8049 13.2228C38.6038 13.1398 38.4316 13.0209 38.2862 12.868C38.145 12.7107 38.0327 12.5193 37.9514 12.2966C37.8744 12.0694 37.8322 11.8168 37.8237 11.5373H42.1982V10.5666C42.1982 10.0337 42.1265 9.56301 41.981 9.15238C41.8398 8.73738 41.6347 8.3874 41.3652 8.10345C41.1 7.81951 40.7741 7.60573 40.3891 7.46157C40.0084 7.31305 39.5812 7.23979 39.1064 7.23978ZM46.4629 7.23978C46.2233 7.23979 46.0097 7.26996 45.8215 7.33111C45.6376 7.3879 45.4704 7.46978 45.3207 7.57899C45.1752 7.68383 45.0444 7.81488 44.9246 7.96777C44.8048 8.12067 44.6926 8.28874 44.5899 8.47658H44.4928L44.2041 7.37807H42.722V14.7023H44.6793V10.9737C44.6793 10.6285 44.7207 10.3381 44.802 10.1022C44.8875 9.86189 45.0049 9.66967 45.1546 9.52551C45.3086 9.37699 45.4918 9.27009 45.7014 9.20456C45.9153 9.13904 46.1466 9.10542 46.399 9.10541C46.4418 9.10542 46.4958 9.10888 46.56 9.11324C46.6241 9.11325 46.6874 9.11756 46.7516 9.12629C46.82 9.13067 46.8859 9.13843 46.9458 9.14716C47.0057 9.1559 47.0521 9.16453 47.0863 9.17325V7.29718C47.0607 7.28846 47.0227 7.2833 46.9714 7.27892C46.9243 7.27019 46.8703 7.26242 46.8104 7.25804C46.7548 7.24932 46.6957 7.245 46.6315 7.245C46.5716 7.24063 46.5142 7.23978 46.4629 7.23978ZM27.337 8.66184C27.5424 8.66184 27.7222 8.70063 27.8762 8.77925C28.0302 8.85789 28.1594 8.96563 28.262 9.10541C28.3647 9.24084 28.4407 9.4029 28.492 9.59074C28.5433 9.77858 28.572 9.98374 28.5763 10.2065H26.0799C26.1141 9.67358 26.2441 9.28397 26.4708 9.03496C26.7018 8.78597 26.9905 8.66184 27.337 8.66184ZM39.1192 8.66184C39.3245 8.66184 39.5043 8.70063 39.6583 8.77925C39.8123 8.85789 39.9415 8.96563 40.0442 9.10541C40.1468 9.24084 40.2228 9.4029 40.2741 9.59074C40.3255 9.77858 40.3542 9.98374 40.3585 10.2065H37.862C37.8962 9.67358 38.0262 9.28397 38.2529 9.03496C38.4839 8.78597 38.7727 8.66184 39.1192 8.66184Z" fill="url(#paint9_linear)"/>
<path fill-rule="evenodd" clip-rule="evenodd" d="M13.6001 5.12366C13.6001 5.05449 13.655 4.99841 13.7227 4.99841H16.4313C16.4862 4.99841 16.5344 5.03566 16.5493 5.08961L18.4798 12.0676L20.535 5.08759C20.5506 5.03466 20.5983 4.99841 20.6525 4.99841H23.361C23.4287 4.99841 23.4837 5.05449 23.4837 5.12366V14.7023C23.4837 14.7715 23.4287 14.8276 23.361 14.8276H21.5059C21.4382 14.8276 21.3833 14.7715 21.3833 14.7023V9.78121L21.3833 9.77743C21.3876 9.63346 21.3918 9.48016 21.3961 9.31859C21.4004 9.15701 21.4046 8.99414 21.4089 8.82813L21.409 8.82486C21.4175 8.65912 21.4251 8.49831 21.4293 8.34262L21.4294 8.34016C21.4351 8.2175 21.4404 8.09325 21.4455 7.96729L19.4412 14.7385C19.4255 14.7914 19.3778 14.8276 19.3238 14.8276H17.4968C17.4418 14.8276 17.3935 14.7902 17.3787 14.7361L15.5516 8.06943C15.5563 8.16295 15.5607 8.25569 15.5649 8.34764C15.5734 8.50921 15.5811 8.67619 15.5854 8.84749C15.594 9.01834 15.599 9.18574 15.6033 9.35096C15.6119 9.51776 15.6161 9.67742 15.6161 9.83161C15.6204 9.98372 15.6238 10.1218 15.6238 10.2457V14.7023C15.6238 14.7715 15.5689 14.8276 15.5011 14.8276H13.7227C13.655 14.8276 13.6001 14.7715 13.6001 14.7023V5.12366ZM13.8454 5.2489V14.5771H15.3785V10.2457C15.3785 10.2457 15.3785 10.2457 15.3785 10.2457C15.3785 10.1254 15.3752 9.98995 15.3709 9.83697L15.3708 9.8334C15.3708 9.68286 15.3667 9.52647 15.3582 9.36249L15.3581 9.35921C15.3538 9.19349 15.3488 9.02751 15.3403 8.85873L15.3402 8.85554C15.336 8.68683 15.3284 8.52175 15.3199 8.36069L15.3199 8.35976C15.3028 7.98485 15.2817 7.59686 15.2561 7.19575C15.2539 7.16119 15.2658 7.12724 15.289 7.10197C15.3122 7.07669 15.3446 7.06235 15.3785 7.06235H15.4373C15.4923 7.06235 15.5406 7.09975 15.5554 7.15384L17.5898 14.5771H19.2327L21.4268 7.16441C21.4425 7.11155 21.4902 7.0754 21.5442 7.0754H21.5954C21.6286 7.0754 21.6604 7.08917 21.6835 7.11355C21.7066 7.13794 21.719 7.17086 21.7179 7.20477C21.7051 7.60206 21.6916 7.98337 21.6745 8.35086C21.6702 8.5088 21.6625 8.67113 21.654 8.83638C21.6498 9.00182 21.6456 9.16422 21.6413 9.32536C21.637 9.48635 21.6328 9.63932 21.6286 9.7831V14.5771H23.2384V5.2489H20.7437L18.6133 12.484C18.5977 12.5369 18.55 12.5731 18.4959 12.5731H18.4575C18.4026 12.5731 18.3544 12.5359 18.3395 12.4819L16.3385 5.2489H13.8454ZM32.2328 5.77392C32.2507 5.72495 32.2965 5.69248 32.3477 5.69248H33.5998C33.6675 5.69248 33.7224 5.74856 33.7224 5.81773V7.25283H35.345C35.4127 7.25283 35.4676 7.3089 35.4676 7.37807V8.87841C35.4676 8.94758 35.4127 9.00365 35.345 9.00365H33.7224V12.4088C33.7224 12.6748 33.7858 12.845 33.8895 12.9476C33.9998 13.0568 34.1472 13.1159 34.3433 13.1159C34.5269 13.1159 34.7001 13.0953 34.8604 13.0544L34.8611 13.0542C35.0318 13.0117 35.2041 12.9578 35.3804 12.8935C35.418 12.8798 35.4597 12.8857 35.4923 12.9091C35.5249 12.9326 35.5443 12.9708 35.5443 13.0115V14.4988C35.5443 14.5458 35.5185 14.5889 35.4775 14.6103C35.2823 14.7123 35.0451 14.7955 34.7641 14.8583C34.4839 14.9264 34.1782 14.958 33.8502 14.958C33.5288 14.958 33.2284 14.9217 32.9469 14.8441C32.6589 14.7648 32.4076 14.6242 32.196 14.4269L32.195 14.4259C31.9823 14.2229 31.8149 13.9576 31.6939 13.6327L31.6932 13.6307C31.5756 13.2981 31.5198 12.8894 31.5198 12.4088V9.00365H30.7073C30.6395 9.00365 30.5846 8.94758 30.5846 8.87841V8.033C30.5846 7.98935 30.6069 7.94885 30.6434 7.9261L31.6829 7.27807L32.2328 5.77392ZM32.4329 5.94297L31.8979 7.40622C31.8883 7.43249 31.8704 7.45471 31.8469 7.46932L30.8299 8.10328V8.75316H31.6425C31.7102 8.75316 31.7651 8.80923 31.7651 8.87841V12.4088C31.7651 12.8712 31.819 13.2483 31.9236 13.5446C32.0334 13.8392 32.1814 14.0699 32.3619 14.2424C32.5438 14.4118 32.76 14.5331 33.0108 14.6023C33.2683 14.6732 33.547 14.7075 33.8502 14.7075C34.1635 14.7075 34.45 14.6772 34.7084 14.6144L34.7106 14.6139C34.9435 14.5618 35.1384 14.4964 35.299 14.4205V13.1866C35.1718 13.229 35.0456 13.2661 34.9196 13.2975C34.7378 13.3438 34.5447 13.3664 34.3434 13.3664C34.0946 13.3664 33.8823 13.2893 33.7189 13.1275C33.5488 12.9593 33.4771 12.7106 33.4771 12.4088V8.87841C33.4771 8.80923 33.532 8.75316 33.5998 8.75316H35.2223V7.50332H33.5998C33.532 7.50332 33.4771 7.44724 33.4771 7.37807V5.94297H32.4329ZM25.9454 7.3659C26.3635 7.19786 26.823 7.11454 27.3242 7.11454C27.811 7.11454 28.2531 7.18963 28.6499 7.34427C29.0507 7.49448 29.3925 7.71819 29.6714 8.01667C29.9544 8.31495 30.1681 8.68086 30.3144 9.11058C30.4655 9.53744 30.5386 10.0227 30.5386 10.5666V11.5373C30.5386 11.6064 30.4837 11.6625 30.416 11.6625H26.1706C26.1863 11.8793 26.2244 12.076 26.2846 12.2542C26.361 12.4631 26.4626 12.639 26.5906 12.782C26.7234 12.9212 26.8831 13.0301 27.0683 13.1066C27.2562 13.1825 27.474 13.2202 27.7228 13.2202C27.9371 13.2202 28.1372 13.2109 28.3239 13.1898C28.5151 13.1643 28.699 13.1274 28.878 13.0806C29.057 13.0339 29.2353 12.976 29.4104 12.908C29.5864 12.8352 29.7671 12.7514 29.9523 12.6568C29.9903 12.6374 30.0355 12.6395 30.0716 12.6623C30.1078 12.6851 30.1298 12.7254 30.1298 12.7688V14.3161C30.1298 14.3627 30.1045 14.4054 30.0641 14.427C29.8878 14.5216 29.708 14.6013 29.528 14.6686L29.5264 14.6692C29.3512 14.7318 29.1659 14.7875 28.9682 14.8324C28.7695 14.8775 28.5555 14.9084 28.3287 14.9262C28.1016 14.9485 27.8548 14.958 27.5874 14.958C27.0619 14.958 26.5755 14.8795 26.129 14.7215C25.6815 14.5631 25.2937 14.3265 24.9677 14.0073L24.9671 14.0067C24.6404 13.6823 24.3882 13.2775 24.2072 12.7954L24.2068 12.7941C24.0295 12.3054 23.9411 11.7358 23.9411 11.0911C23.9411 10.4387 24.0216 9.86442 24.1851 9.36816C24.3478 8.87418 24.5767 8.45754 24.8722 8.12383C25.1716 7.78606 25.5301 7.53462 25.945 7.36607L25.9454 7.3659ZM26.0355 7.59889C25.6548 7.7536 25.3278 7.98315 25.0541 8.29182C24.7849 8.59591 24.5714 8.98096 24.4176 9.44802C24.2645 9.91282 24.1864 10.4591 24.1864 11.0911C24.1864 11.7129 24.2717 12.2517 24.4366 12.7064C24.6064 13.1587 24.8401 13.5311 25.1378 13.8268C25.4363 14.119 25.7929 14.3374 26.2094 14.4848C26.6271 14.6326 27.0861 14.7075 27.5874 14.7075C27.8499 14.7075 28.0889 14.6982 28.3064 14.6768L28.3087 14.6766C28.5264 14.6595 28.729 14.6301 28.915 14.5879C29.102 14.5454 29.2777 14.4926 29.4445 14.433C29.5926 14.3777 29.7398 14.3137 29.8845 14.2396V12.9689C29.7549 13.0313 29.6271 13.0886 29.5012 13.1406L29.4989 13.1416C29.3149 13.2132 29.1273 13.2741 28.9388 13.3233C28.7503 13.3726 28.5563 13.4115 28.3544 13.4384L28.3521 13.4386C28.1541 13.4611 27.9443 13.4707 27.7228 13.4707C27.4498 13.4707 27.2001 13.4293 26.9775 13.3393L26.9767 13.339C26.7604 13.2497 26.5712 13.1211 26.4134 12.9553L26.411 12.9526C26.2575 12.7816 26.1401 12.5757 26.0543 12.3403L26.0533 12.3375C25.9716 12.0965 25.9277 11.8312 25.9188 11.5412C25.9178 11.5073 25.9303 11.4744 25.9534 11.4501C25.9765 11.4258 26.0082 11.412 26.0414 11.412H30.2933V10.5666C30.2933 10.0449 30.2231 9.5892 30.0835 9.19498L30.0829 9.19348C29.9469 8.7937 29.7506 8.46001 29.4949 8.19062L29.4942 8.1899C29.2429 7.92086 28.9334 7.71722 28.5647 7.57916L28.5631 7.57857C28.1986 7.43637 27.7867 7.36503 27.3242 7.36503C26.8501 7.36503 26.4216 7.44375 26.0355 7.59889ZM37.7275 7.3659C38.1456 7.19786 38.6051 7.11454 39.1063 7.11454C39.5932 7.11454 40.0352 7.18963 40.432 7.34427C40.8328 7.49448 41.1746 7.71819 41.4535 8.01667C41.7365 8.3149 41.9502 8.68074 42.0965 9.11037C42.2476 9.53728 42.3208 10.0226 42.3208 10.5666V11.5373C42.3208 11.6064 42.2658 11.6625 42.1981 11.6625H37.9527C37.9684 11.8793 38.0065 12.076 38.0668 12.2542C38.1428 12.4623 38.2467 12.6384 38.3753 12.782C38.5084 12.9216 38.6658 13.0303 38.8504 13.1066C39.0383 13.1825 39.2561 13.2202 39.5049 13.2202C39.7193 13.2202 39.9193 13.2109 40.106 13.1898C40.2973 13.1643 40.4811 13.1274 40.6601 13.0806C40.8391 13.0339 41.0175 12.976 41.1925 12.908C41.3685 12.8352 41.5492 12.7514 41.7344 12.6568C41.7724 12.6374 41.8176 12.6395 41.8537 12.6623C41.8899 12.6851 41.9119 12.7254 41.9119 12.7688V14.3161C41.9119 14.3627 41.8866 14.4054 41.8463 14.427C41.6699 14.5216 41.4902 14.6013 41.3101 14.6686L41.3085 14.6692C41.1333 14.7318 40.948 14.7875 40.7503 14.8324C40.5516 14.8775 40.3377 14.9084 40.1108 14.9262C39.8837 14.9485 39.6369 14.958 39.3695 14.958C38.8441 14.958 38.3576 14.8795 37.9112 14.7215C37.4636 14.5631 37.0758 14.3265 36.7498 14.0073L36.7492 14.0067C36.4226 13.6823 36.1703 13.2775 35.9894 12.7954L35.9889 12.7941C35.8117 12.3054 35.7232 11.7359 35.7232 11.0911C35.7232 10.4387 35.8037 9.86442 35.9672 9.36816C36.1299 8.87418 36.3588 8.45754 36.6543 8.12383C36.9538 7.78606 37.3123 7.53462 37.7271 7.36607L37.7275 7.3659ZM37.8175 7.59895C37.4368 7.75366 37.1099 7.98318 36.8362 8.29182C36.567 8.59591 36.3536 8.98096 36.1997 9.44802C36.0466 9.91282 35.9685 10.4591 35.9685 11.0911C35.9685 11.7128 36.0538 12.2516 36.2187 12.7064C36.3884 13.1586 36.6222 13.531 36.9198 13.8268C37.2184 14.119 37.575 14.3374 37.9915 14.4848C38.4092 14.6326 38.8682 14.7075 39.3695 14.7075C39.632 14.7075 39.871 14.6982 40.0885 14.6768L40.0909 14.6766C40.3085 14.6595 40.5112 14.6301 40.6971 14.5879C40.8841 14.5454 41.0598 14.4926 41.2267 14.433C41.3747 14.3777 41.522 14.3137 41.6666 14.2396V12.9689C41.537 13.0313 41.4092 13.0886 41.2834 13.1406L41.281 13.1416C41.0971 13.2132 40.9094 13.2741 40.7209 13.3233C40.5324 13.3726 40.3385 13.4115 40.1366 13.4384L40.1343 13.4386C39.9362 13.4611 39.7264 13.4707 39.5049 13.4707C39.232 13.4707 38.9823 13.4293 38.7596 13.3393L38.7588 13.339C38.542 13.2495 38.3555 13.1207 38.1981 12.9553L38.1957 12.9526C38.0427 12.7822 37.9226 12.5765 37.8364 12.3403L37.8354 12.3375C37.7537 12.0965 37.7098 11.8312 37.701 11.5412C37.6999 11.5073 37.7124 11.4744 37.7355 11.4501C37.7586 11.4258 37.7904 11.412 37.8236 11.412H42.0755V10.5666C42.0754 10.0449 42.0052 9.5892 41.8656 9.19498L41.865 9.19348C41.729 8.7937 41.5327 8.46001 41.277 8.19062L41.2763 8.1899C41.025 7.92086 40.7155 7.71722 40.3468 7.57916L40.3452 7.57857C39.9807 7.43637 39.5688 7.36503 39.1063 7.36503C38.6321 7.36503 38.2036 7.44377 37.8175 7.59895ZM45.7851 7.21148C45.9875 7.14585 46.2137 7.11454 46.4628 7.11454C46.5141 7.11454 46.5733 7.11536 46.6358 7.11976C46.7019 7.11995 46.7642 7.1244 46.824 7.13349C46.8845 7.13811 46.9393 7.14588 46.9873 7.15462C47.0358 7.15887 47.0852 7.16482 47.125 7.17835C47.1751 7.19538 47.2089 7.24325 47.2089 7.29718V9.17325C47.2089 9.21181 47.1915 9.24822 47.1617 9.27195C47.132 9.29569 47.0932 9.30411 47.0565 9.29477C47.0282 9.28756 46.9866 9.27965 46.9284 9.27115M45.7851 7.21148C45.5898 7.27186 45.4108 7.35935 45.2496 7.47687L45.7851 7.21148ZM44.5657 8.27109L44.3224 7.3456C44.308 7.29087 44.2594 7.25283 44.2039 7.25283H42.7219C42.6542 7.25283 42.5993 7.3089 42.5993 7.37807V14.7023C42.5993 14.7715 42.6542 14.8276 42.7219 14.8276H44.6792C44.747 14.8276 44.8019 14.7715 44.8019 14.7023V10.9737C44.8019 10.6382 44.8421 10.3628 44.9174 10.1442C44.9978 9.91865 45.1057 9.74459 45.2386 9.61663C45.3781 9.4821 45.5445 9.38459 45.737 9.3244C45.9383 9.26278 46.1575 9.23066 46.3989 9.23066C46.4368 9.23066 46.4865 9.23378 46.5517 9.23821C46.5544 9.2384 46.5571 9.23849 46.5598 9.23849C46.6185 9.23849 46.6764 9.24243 46.7353 9.25044C46.7369 9.25065 46.7385 9.25084 46.7401 9.25099C46.7413 9.25111 46.7426 9.25121 46.7438 9.25129C46.8082 9.25541 46.8708 9.26276 46.9284 9.27115M46.4628 7.36503C46.2331 7.36503 46.0324 7.39398 45.8586 7.45046L45.8569 7.45099C45.6847 7.50416 45.5298 7.58028 45.3919 7.6809L45.3913 7.68131C45.2569 7.77818 45.1343 7.90054 45.0203 8.04601C44.9046 8.19369 44.7961 8.35603 44.6969 8.53762C44.6752 8.57726 44.6342 8.60182 44.5898 8.60182H44.4927C44.4372 8.60182 44.3886 8.56377 44.3742 8.50904L44.1099 7.50332H42.8446V14.5771H44.5566V10.9737C44.5566 10.6191 44.599 10.3137 44.6862 10.0606L44.6866 10.0594C44.7773 9.80475 44.9039 9.59461 45.0704 9.43438C45.0704 9.43436 45.0703 9.4344 45.0704 9.43438C45.2388 9.27197 45.4387 9.15567 45.6654 9.0848L45.6661 9.0846C45.8924 9.01526 46.1357 8.98017 46.3989 8.98017C46.4455 8.98018 46.5024 8.98382 46.564 8.988C46.5627 8.988 46.5613 8.988 46.5599 8.988L46.5599 9.11324L46.568 8.98827C46.5667 8.98818 46.5654 8.98809 46.564 8.988C46.6308 8.98819 46.6968 8.99269 46.7634 9.00157C46.762 9.00147 46.7606 9.00138 46.7592 9.00129L46.7515 9.12629L46.7677 9.00214C46.7663 9.00195 46.7649 9.00176 46.7634 9.00157C46.8344 9.00625 46.902 9.01429 46.963 9.02317C46.9632 9.0232 46.9634 9.02323 46.9636 9.02325V7.40395C46.9627 7.40387 46.9619 7.4038 46.961 7.40373C46.9571 7.40339 46.9532 7.40287 46.9493 7.40215C46.9059 7.3941 46.8563 7.38698 46.8015 7.38297C46.7982 7.38273 46.7949 7.38235 46.7917 7.38184C46.743 7.3742 46.6902 7.37024 46.6314 7.37024C46.6285 7.37024 46.6256 7.37014 46.6227 7.36992C46.567 7.36587 46.5129 7.36503 46.4628 7.36503ZM27.3369 8.78708C27.023 8.78709 26.7671 8.89787 26.5602 9.12066C26.3787 9.32022 26.2582 9.63376 26.2131 10.0813H28.4482C28.4375 9.91735 28.4122 9.7652 28.3738 9.62441C28.3259 9.44946 28.2563 9.30265 28.1649 9.18208L28.1638 9.18057C28.0731 9.0571 27.9591 8.96165 27.8212 8.89128C27.6874 8.82297 27.5271 8.78709 27.3369 8.78708ZM26.3817 8.94882C26.6367 8.67392 26.958 8.5366 27.3369 8.53659C27.5574 8.5366 27.7567 8.57829 27.9309 8.66723C28.1008 8.75399 28.2449 8.87378 28.3595 9.02952C28.4731 9.17964 28.5553 9.35669 28.61 9.55707C28.6644 9.75607 28.6944 9.9718 28.6988 10.2041C28.6995 10.2377 28.6869 10.2702 28.6638 10.2942C28.6407 10.3182 28.6092 10.3318 28.5762 10.3318H26.0798C26.0458 10.3318 26.0134 10.3174 25.9902 10.2921C25.9671 10.2669 25.9552 10.2329 25.9574 10.1983C25.9925 9.65211 26.1267 9.22888 26.3809 8.94968L26.3817 8.94882ZM39.1191 8.78708C38.8052 8.78709 38.5492 8.89786 38.3423 9.12064C38.1608 9.3202 38.0403 9.63374 37.9952 10.0813H40.2303C40.2196 9.91735 40.1944 9.7652 40.1559 9.62441C40.1081 9.44945 40.0385 9.30265 39.9471 9.18208L39.9459 9.18056C39.8553 9.0571 39.7412 8.96166 39.6034 8.89128C39.4696 8.82297 39.3093 8.78709 39.1191 8.78708ZM38.1638 8.94882C38.4188 8.67392 38.7402 8.5366 39.1191 8.53659C39.3395 8.5366 39.5388 8.57829 39.7131 8.66723C39.8829 8.75397 40.027 8.87374 40.1416 9.02945C40.2552 9.17958 40.3374 9.35666 40.3922 9.55707C40.4465 9.75606 40.4765 9.97179 40.481 10.2041C40.4816 10.2377 40.469 10.2702 40.4459 10.2942C40.4229 10.3182 40.3913 10.3318 40.3583 10.3318H37.8619C37.828 10.3318 37.7956 10.3174 37.7724 10.2921C37.7492 10.2669 37.7373 10.2329 37.7395 10.1983C37.7746 9.65211 37.9088 9.22888 38.163 8.94968L38.1638 8.94882Z" fill="url(#paint10_linear)"/>
<path d="M49.0532 7.2216H48.6182V5.49057H48.1014V5.11963H49.5685V5.49057H49.0532V7.2216Z" fill="url(#paint11_linear)"/>
<path d="M50.7134 7.2216L50.2614 5.57252H50.2487C50.2544 5.6607 50.2591 5.746 50.2628 5.82843C50.2647 5.8639 50.2661 5.90032 50.2671 5.9377C50.2689 5.97508 50.2703 6.01198 50.2713 6.04841C50.2732 6.08483 50.2741 6.11981 50.2741 6.15336C50.275 6.18691 50.2755 6.2171 50.2755 6.24394V7.2216H49.8855V5.11963H50.4797L50.9246 6.72702H50.933L51.4061 5.11963H52.0002V7.2216H51.5933V6.22669C51.5933 6.20177 51.5933 6.17349 51.5933 6.14186C51.5943 6.11023 51.5952 6.07668 51.5962 6.04122C51.5971 6.00575 51.598 5.96981 51.599 5.93339C51.6008 5.89697 51.6022 5.8615 51.6032 5.82699C51.6069 5.74648 51.6102 5.66262 51.613 5.57539H51.6018L51.1146 7.2216H50.7134Z" fill="url(#paint12_linear)"/>
<path d="M10.6403 3.64937L12.0454 0.220947H12.3162L13.7213 3.64937H13.3678L12.9318 2.57835H11.4212L10.9909 3.64937H10.6403ZM12.1822 0.616759L11.4925 2.3106H12.8548L12.1822 0.616759Z" fill="#D22128"/>
<path d="M14.0799 3.64937V0.220947H15.4708C16.0465 0.220947 16.4626 0.765188 16.4626 1.29779C16.4626 1.85658 16.075 2.38336 15.4993 2.38336H14.4077V3.64937H14.0799ZM14.4077 2.08359H15.4822C15.8783 2.08359 16.1348 1.71106 16.1348 1.29779C16.1348 0.867051 15.8242 0.520716 15.4537 0.520716H14.4077V2.08359Z" fill="#D22128"/>
<path d="M16.2803 3.64937L17.6854 0.220947H17.9562L19.3612 3.64937H19.0021L18.5661 2.57835H17.0584L16.628 3.64937H16.2803ZM17.8222 0.616759L17.1325 2.3106H18.4948L17.8222 0.616759Z" fill="#D22128"/>
<path d="M20.9465 0.200562C21.5421 0.200562 21.9782 0.509061 22.1863 0.948529L21.9212 1.11151C21.7074 0.657491 21.2913 0.503241 20.9294 0.503241C20.1256 0.503241 19.6867 1.23666 19.6867 1.92642C19.6867 2.68311 20.2311 3.36996 20.9436 3.36996C21.3227 3.36996 21.7673 3.17788 21.9782 2.73259L22.2518 2.87811C22.0352 3.39034 21.4395 3.67555 20.9237 3.67555C20.0031 3.67555 19.3533 2.77625 19.3533 1.90895C19.3533 1.08532 19.9347 0.200562 20.9465 0.200562Z" fill="#D22128"/>
<path d="M25.361 0.220947V3.64937H25.0304V2.04575H23.0411V3.64937H22.7161V0.220947H23.0411V1.74599H25.0304V0.220947H25.361Z" fill="#D22128"/>
<path d="M28.3732 3.3496V3.64937H26.1188V0.220947H28.3304V0.520716H26.4437V1.75763H28.0882V2.04284H26.4437V3.3496H28.3732Z" fill="#D22128"/>
</g>
<defs>
<linearGradient id="paint0_linear" x1="6.64737" y1="1.52469" x2="10.3488" y2="0.516899" gradientUnits="userSpaceOnUse">
<stop stop-color="#F69923"/>
<stop offset="0.3123" stop-color="#F79A23"/>
<stop offset="0.8383" stop-color="#E97826"/>
</linearGradient>
<linearGradient id="paint1_linear" x1="-1.43059" y1="18.4385" x2="6.33732" y2="2.12474" gradientUnits="userSpaceOnUse">
<stop offset="0.3233" stop-color="#9E2064"/>
<stop offset="0.6302" stop-color="#C92037"/>
<stop offset="0.7514" stop-color="#CD2335"/>
<stop offset="1" stop-color="#E97826"/>
</linearGradient>
<linearGradient id="paint2_linear" x1="1.09007" y1="17.223" x2="5.719" y2="7.50151" gradientUnits="userSpaceOnUse">
<stop stop-color="#282662"/>
<stop offset="0.0954839" stop-color="#662E8D"/>
<stop offset="0.7882" stop-color="#9F2064"/>
<stop offset="0.9487" stop-color="#CD2032"/>
</linearGradient>
<linearGradient id="paint3_linear" x1="-1.15967" y1="17.4439" x2="6.60825" y2="1.13003" gradientUnits="userSpaceOnUse">
<stop offset="0.3233" stop-color="#9E2064"/>
<stop offset="0.6302" stop-color="#C92037"/>
<stop offset="0.7514" stop-color="#CD2335"/>
<stop offset="1" stop-color="#E97826"/>
</linearGradient>
<linearGradient id="paint4_linear" x1="-0.394098" y1="16.3487" x2="3.68816" y2="7.77529" gradientUnits="userSpaceOnUse">
<stop stop-color="#282662"/>
<stop offset="0.0954839" stop-color="#662E8D"/>
<stop offset="0.7882" stop-color="#9F2064"/>
<stop offset="0.9487" stop-color="#CD2032"/>
</linearGradient>
<linearGradient id="paint5_linear" x1="0.506491" y1="18.2371" x2="8.27442" y2="1.92331" gradientUnits="userSpaceOnUse">
<stop offset="0.3233" stop-color="#9E2064"/>
<stop offset="0.6302" stop-color="#C92037"/>
<stop offset="0.7514" stop-color="#CD2335"/>
<stop offset="1" stop-color="#E97826"/>
</linearGradient>
<linearGradient id="paint6_linear" x1="-0.0417466" y1="19.2175" x2="7.72617" y2="2.90367" gradientUnits="userSpaceOnUse">
<stop offset="0.3233" stop-color="#9E2064"/>
<stop offset="0.6302" stop-color="#C92037"/>
<stop offset="0.7514" stop-color="#CD2335"/>
<stop offset="1" stop-color="#E97826"/>
</linearGradient>
<linearGradient id="paint7_linear" x1="1.00243" y1="18.4728" x2="8.76995" y2="2.15932" gradientUnits="userSpaceOnUse">
<stop offset="0.3233" stop-color="#9E2064"/>
<stop offset="0.6302" stop-color="#C92037"/>
<stop offset="0.7514" stop-color="#CD2335"/>
<stop offset="1" stop-color="#E97826"/>
</linearGradient>
<linearGradient id="paint8_linear" x1="0.945798" y1="18.4394" x2="8.7062" y2="2.13186" gradientUnits="userSpaceOnUse">
<stop offset="0.3233" stop-color="#9E2064"/>
<stop offset="0.6302" stop-color="#C92037"/>
<stop offset="0.7514" stop-color="#CD2335"/>
<stop offset="1" stop-color="#E97826"/>
</linearGradient>
<linearGradient id="paint9_linear" x1="13.7228" y1="5.12366" x2="47.0863" y2="5.12366" gradientUnits="userSpaceOnUse">
<stop/>
<stop offset="1"/>
</linearGradient>
<linearGradient id="paint10_linear" x1="13.7227" y1="5.12366" x2="47.0862" y2="5.12366" gradientUnits="userSpaceOnUse">
<stop/>
<stop offset="1"/>
</linearGradient>
<linearGradient id="paint11_linear" x1="48.1014" y1="5.11963" x2="49.5685" y2="5.11963" gradientUnits="userSpaceOnUse">
<stop stop-color="#4D4D4D"/>
<stop offset="1" stop-color="#4D4D4D"/>
</linearGradient>
<linearGradient id="paint12_linear" x1="49.8855" y1="5.11963" x2="52.0002" y2="5.11963" gradientUnits="userSpaceOnUse">
<stop stop-color="#4D4D4D"/>
<stop offset="1" stop-color="#4D4D4D"/>
</linearGradient>
<clipPath id="clip0">
<rect width="52" height="18" fill="white" transform="translate(0.000244141)"/>
</clipPath>
</defs>
</svg>
