<svg width="42" height="40" viewBox="0 0 42 40" fill="none" xmlns="http://www.w3.org/2000/svg">
<path d="M37.8471 8.89622C37.6105 8.13909 37.0426 7.52393 36.3328 7.14537L21.9001 0.236602C21.5216 0.0473203 21.0957 0 20.7171 0C20.3385 0 19.9127 0 19.5341 0.0946406L5.10141 7.05073C4.3916 7.38197 3.87108 7.99713 3.6818 8.80158L0.132777 24.37C-0.00918406 25.1744 0.180097 25.9788 0.6533 26.6413L10.6379 38.9919C11.2057 39.5598 12.0102 39.9383 12.8146 39.9857H28.7142C29.566 40.0803 30.3705 39.7017 30.891 38.9919L40.8756 26.6413C41.3488 25.9788 41.538 25.1744 41.4434 24.37L37.8471 8.89622Z" fill="#326DE6"/>
<path d="M35.6229 23.7548C35.5756 23.7548 35.5282 23.7548 35.5282 23.7075C35.5282 23.6601 35.4336 23.6601 35.339 23.6601C35.1497 23.6128 34.9604 23.6128 34.7711 23.6128C34.6765 23.6128 34.5818 23.6128 34.4872 23.5655H34.4399C33.9193 23.5182 33.3515 23.4235 32.831 23.2816C32.689 23.2343 32.5471 23.0923 32.4997 22.9503C32.5471 22.9503 32.4997 22.9503 32.4997 22.9503L32.1212 22.8557C32.3104 21.4834 32.2158 20.0638 31.9319 18.6915C31.6006 17.3192 31.0328 15.9943 30.2757 14.8112L30.5596 14.5273V14.48C30.5596 14.338 30.6069 14.1488 30.7016 14.0541C31.1274 13.6756 31.5533 13.3916 32.0265 13.1077L32.3104 12.9658C32.4997 12.8711 32.6417 12.7765 32.831 12.6818C32.8783 12.6345 32.9256 12.6345 32.9729 12.5872C33.0203 12.5399 32.9729 12.5399 32.9729 12.4926C33.3988 12.1613 33.4935 11.5935 33.1622 11.1676C33.0203 10.9783 32.7363 10.8363 32.4997 10.8363C32.2631 10.8363 32.0265 10.931 31.8372 11.0729L31.7899 11.1203C31.7426 11.1676 31.6953 11.2149 31.648 11.2149C31.506 11.3569 31.364 11.4988 31.2694 11.6408C31.2221 11.7354 31.1274 11.7828 31.0801 11.8301C30.7489 12.2086 30.323 12.5872 29.8971 12.8711C29.8025 12.9184 29.7078 12.9658 29.6132 12.9658C29.5659 12.9658 29.4712 12.9658 29.4239 12.9184H29.3766L28.998 13.155C28.6195 12.7765 28.1936 12.3979 27.815 12.0194C26.0642 10.6471 23.8874 9.7953 21.6634 9.5587L21.6161 9.18013V9.22745C21.4741 9.13281 21.4268 8.99085 21.3795 8.84889C21.3795 8.32837 21.3795 7.80784 21.4741 7.24V7.19268C21.4741 7.09804 21.5214 7.0034 21.5214 6.90876C21.5687 6.71948 21.5687 6.5302 21.6161 6.34091V6.05699C21.6634 5.58379 21.2848 5.11059 20.8116 5.06327C20.5277 5.01595 20.2438 5.15791 20.0072 5.39451C19.8179 5.58379 19.7233 5.82039 19.7233 6.05699V6.29359C19.7233 6.48288 19.7706 6.67216 19.8179 6.86144C19.8652 6.95608 19.8652 7.05072 19.8652 7.14536V7.19268C19.9599 7.7132 19.9599 8.23373 19.9599 8.80157C19.9125 8.94353 19.8652 9.08549 19.7233 9.18013V9.27477L19.6759 9.65334C19.1554 9.70066 18.6349 9.7953 18.067 9.88994C15.843 10.3631 13.8082 11.5461 12.2466 13.2024L11.9627 13.0131H11.9154C11.8681 13.0131 11.8208 13.0604 11.7261 13.0604C11.6315 13.0604 11.5368 13.0131 11.4422 12.9658C11.0163 12.6345 10.5904 12.256 10.2592 11.8774C10.2119 11.7828 10.1172 11.7354 10.0699 11.6881C9.92795 11.5461 9.83331 11.4042 9.69135 11.2622C9.64403 11.2149 9.5967 11.2149 9.54938 11.1676L9.50206 11.1203C9.31278 10.9783 9.07618 10.8837 8.83958 10.8837C8.55566 10.8837 8.31906 10.9783 8.1771 11.2149C7.89317 11.6408 7.98781 12.2086 8.36638 12.5399C8.4137 12.5399 8.4137 12.5872 8.4137 12.5872C8.4137 12.5872 8.50834 12.6818 8.55566 12.6818C8.69762 12.7765 8.8869 12.8711 9.07618 12.9658L9.3601 13.1077C9.83331 13.3916 10.3065 13.6756 10.6851 14.0541C10.7797 14.1488 10.8744 14.338 10.827 14.48V14.4327L11.111 14.7166C11.0636 14.8113 11.0163 14.8586 10.969 14.9532C9.50206 17.2719 8.8869 20.0165 9.31278 22.7137L8.93422 22.8084C8.93422 22.8557 8.8869 22.8557 8.8869 22.8557C8.83958 22.9977 8.69762 23.0923 8.55566 23.1869C8.03513 23.3289 7.51461 23.4235 6.94677 23.4709C6.85213 23.4709 6.75749 23.4709 6.66285 23.5182C6.47357 23.5182 6.28428 23.5655 6.095 23.5655C6.04768 23.5655 6.00036 23.6128 5.90572 23.6128C5.8584 23.6128 5.8584 23.6128 5.81108 23.6601C5.29056 23.7548 4.95932 24.228 5.05396 24.7485C5.1486 25.1744 5.57448 25.4583 6.00036 25.411C6.095 25.411 6.14232 25.411 6.23696 25.3637C6.28428 25.3637 6.28428 25.3637 6.28428 25.3164C6.28428 25.269 6.42624 25.3164 6.47356 25.3164C6.66285 25.269 6.85213 25.1744 6.99409 25.1271C7.08873 25.0798 7.18337 25.0324 7.27801 25.0324H7.32533C7.84585 24.8432 8.31906 24.7012 8.8869 24.6066H8.93422C9.07618 24.6066 9.21814 24.6539 9.31278 24.7485C9.3601 24.7485 9.3601 24.7958 9.3601 24.7958L9.78599 24.7485C10.4958 26.9252 11.8208 28.8654 13.6663 30.285C14.0921 30.6162 14.4707 30.9002 14.9439 31.1368L14.7073 31.468C14.7073 31.5153 14.7546 31.5153 14.7546 31.5153C14.8493 31.6573 14.8493 31.8466 14.8019 31.9885C14.6127 32.4617 14.3287 32.9349 14.0448 33.3608V33.4081C13.9975 33.5028 13.9502 33.5501 13.8555 33.6447C13.7609 33.7394 13.6663 33.9287 13.5243 34.1179C13.477 34.1653 13.477 34.2126 13.4297 34.2599C13.4297 34.2599 13.4297 34.3072 13.3823 34.3072C13.1457 34.7804 13.335 35.3483 13.7609 35.5849C13.8555 35.6322 13.9975 35.6795 14.0921 35.6795C14.4707 35.6795 14.8019 35.4429 14.9912 35.1117C14.9912 35.1117 14.9912 35.0643 15.0385 35.0643C15.0385 35.017 15.0859 34.9697 15.1332 34.9224C15.1805 34.7331 15.2751 34.5911 15.3225 34.4019L15.4171 34.1179C15.5591 33.5974 15.7957 33.1242 16.0323 32.651C16.1269 32.509 16.2689 32.4144 16.4108 32.3671C16.4581 32.3671 16.4581 32.3671 16.4581 32.3198L16.6474 31.9412C17.9724 32.4617 19.3447 32.6983 20.7643 32.6983C21.6161 32.6983 22.4678 32.6037 23.3196 32.3671C23.8401 32.2724 24.3606 32.0832 24.8338 31.9412L25.0231 32.2724C25.0704 32.2724 25.0704 32.2724 25.0704 32.3198C25.2124 32.3671 25.3544 32.4617 25.449 32.6037C25.6856 33.0769 25.9222 33.5501 26.0642 34.0706V34.1179L26.1588 34.4019C26.2061 34.5911 26.2535 34.7804 26.3481 34.9224C26.3954 34.9697 26.3954 35.017 26.4427 35.0643C26.4427 35.0643 26.4427 35.1117 26.4901 35.1117C26.6793 35.4429 27.0106 35.6795 27.3891 35.6795C27.5311 35.6795 27.6257 35.6322 27.7677 35.5849C27.957 35.4902 28.1463 35.3009 28.1936 35.0643C28.2409 34.8277 28.2409 34.5911 28.1463 34.3545C28.1463 34.3072 28.0989 34.3072 28.0989 34.3072C28.0989 34.2599 28.0516 34.2126 28.0043 34.1653C27.9097 33.976 27.815 33.834 27.6731 33.6921C27.6257 33.5974 27.5784 33.5501 27.4838 33.4555V33.3608C27.1525 32.9349 26.9159 32.4617 26.7267 31.9885C26.6793 31.8466 26.6793 31.6573 26.774 31.5153C26.774 31.468 26.8213 31.468 26.8213 31.468L26.6793 31.0894C29.0927 29.6225 30.9382 27.3511 31.7899 24.6539L32.1685 24.7012C32.2158 24.7012 32.2158 24.6539 32.2158 24.6539C32.3105 24.5592 32.4524 24.5119 32.5944 24.5119H32.6417C33.1622 24.6066 33.6827 24.7485 34.1559 24.9378H34.2033C34.2979 24.9851 34.3925 25.0324 34.4872 25.0324C34.6765 25.1271 34.8184 25.2217 35.0077 25.269C35.055 25.269 35.1023 25.3164 35.197 25.3164C35.2443 25.3164 35.2443 25.3164 35.2916 25.3637C35.3863 25.411 35.4336 25.411 35.5282 25.411C35.9541 25.411 36.3327 25.1271 36.4746 24.7485C36.4273 24.228 36.0488 23.8494 35.6229 23.7548ZM21.9473 22.2879L20.6697 22.903L19.392 22.2879L19.0608 20.9156L19.9599 19.7799H21.3795L22.2785 20.9156L21.9473 22.2879ZM29.6605 19.212C29.8971 20.2058 29.9444 21.1995 29.8498 22.1932L25.3544 20.9156C24.9285 20.8209 24.6919 20.395 24.7865 19.9692C24.8338 19.8272 24.8812 19.7326 24.9758 19.6379L28.5248 16.4201C29.0453 17.2719 29.4239 18.2183 29.6605 19.212ZM27.1052 14.6693L23.225 17.4139C22.8937 17.6031 22.4205 17.5558 22.1839 17.2246C22.0893 17.1299 22.0419 17.0353 22.0419 16.8933L21.758 12.114C23.8401 12.3506 25.6856 13.2497 27.1052 14.6693ZM18.5402 12.256L19.4866 12.0667L19.25 16.7987C19.25 17.2246 18.8715 17.5558 18.4456 17.5558C18.3036 17.5558 18.209 17.5085 18.067 17.4612L14.1395 14.6693C15.3698 13.4863 16.884 12.6345 18.5402 12.256ZM12.7672 16.4201L16.2689 19.5433C16.6001 19.8272 16.6474 20.3004 16.3635 20.6316C16.2689 20.7736 16.1742 20.8209 15.9849 20.8682L11.3949 22.1932C11.2529 20.2058 11.7261 18.171 12.7672 16.4201ZM11.9627 24.4173L16.6474 23.6128C17.026 23.6128 17.4046 23.8494 17.4519 24.228C17.4992 24.37 17.4992 24.5592 17.4046 24.7012L15.6064 29.0547C13.9502 27.9663 12.6252 26.3101 11.9627 24.4173ZM22.7044 30.285C22.0419 30.427 21.3795 30.5216 20.6697 30.5216C19.6759 30.5216 18.6349 30.3323 17.6885 30.0484L20.0072 25.8369C20.2438 25.553 20.6223 25.4583 20.9536 25.6476C21.0955 25.7422 21.1902 25.8369 21.3321 25.9788L23.6035 30.0957C23.3196 30.143 23.0357 30.1904 22.7044 30.285ZM28.4775 26.1681C27.7677 27.3038 26.774 28.2975 25.6383 29.0073L23.7928 24.5592C23.6982 24.1807 23.8874 23.8021 24.2187 23.6601C24.3606 23.6128 24.5026 23.5655 24.6446 23.5655L29.3766 24.37C29.14 25.0324 28.8561 25.6476 28.4775 26.1681Z" fill="white"/>
</svg>
