<svg width="80" height="80" viewBox="0 0 80 80" fill="none" xmlns="http://www.w3.org/2000/svg">
<g clip-path="url(#clip0)">
<path d="M59.7822 26.7981C59.7522 26.7979 59.722 26.7978 59.692 26.7978C54.6867 26.79 49.9444 24.6346 46.6545 20.8625C41.7536 15.2431 34.5295 11.7028 26.4794 11.7385C11.8681 11.8032 -0.186716 24.0792 0.00219041 38.6892C0.190159 53.2182 12.0264 64.9384 26.6002 64.9384C30.7163 64.9384 34.6136 64.0029 38.0919 62.3334C41.0909 60.8939 44.6645 61.2734 47.3056 63.2961C50.7217 65.9125 54.9916 67.47 59.6253 67.4778C70.7788 67.4964 79.9348 58.4121 79.9997 47.2589C80.065 36.0012 71.0244 26.8642 59.7822 26.7981Z" fill="url(#paint0_linear)"/>
<path opacity="0.1" d="M76.2899 46.2228L71.5807 44.8818C71.1194 43.0018 70.3773 41.2312 69.4001 39.6201L71.7827 35.3404C71.9848 34.9765 71.9215 34.5215 71.6269 34.227L68.4083 31.0084C68.1138 30.7139 67.6588 30.6506 67.2949 30.8526L63.0152 33.2353C61.4041 32.2581 59.6335 31.5159 57.7535 31.0546L56.4126 26.3454C56.2982 25.9439 55.9319 25.6676 55.5146 25.6676H50.9635C50.5462 25.6676 50.1799 25.9439 50.0655 26.3454L48.7246 31.0546C46.8446 31.5159 45.074 32.2581 43.4629 33.2353L39.1832 30.8526C38.8193 30.6506 38.3643 30.7139 38.0698 31.0084L34.8512 34.227C34.5566 34.5215 34.4933 34.9765 34.6954 35.3404L37.078 39.6201C36.1008 41.2312 35.3587 43.0018 34.8974 44.8818L30.1882 46.2228C29.7866 46.3371 29.5104 46.7034 29.5104 47.1207V51.6718C29.5104 52.0892 29.7866 52.4554 30.1882 52.5698L34.8974 53.9107C35.3587 55.7907 36.1008 57.5613 37.078 59.1724L34.6954 63.4521C34.4933 63.816 34.5566 64.271 34.8512 64.5656L38.0698 67.7842C38.3643 68.0787 38.8193 68.142 39.1832 67.9399L43.4629 65.5573C45.074 66.5345 46.8444 67.2767 48.7246 67.7379L50.0655 72.4471C50.1799 72.8487 50.5462 73.1249 50.9635 73.1249H55.5146C55.9319 73.1249 56.2982 72.8487 56.4126 72.4471L57.7535 67.7379C59.6335 67.2767 61.4041 66.5345 63.0152 65.5573L67.2949 67.9399C67.6588 68.142 68.1138 68.0787 68.4083 67.7842L71.6269 64.5656C71.9215 64.271 71.9848 63.816 71.7827 63.4521L69.4001 59.1724C70.3773 57.5613 71.1194 55.7907 71.5807 53.9107L76.2899 52.5698C76.6915 52.4554 76.9677 52.0892 76.9677 51.6718V47.1207C76.9677 46.7034 76.6915 46.3371 76.2899 46.2228ZM53.239 61.0768C46.7885 61.0768 41.5583 55.8468 41.5583 49.3962C41.5583 42.9456 46.7883 37.7156 53.239 37.7156C59.6896 37.7156 64.9196 42.9456 64.9196 49.3962C64.9196 55.8468 59.6896 61.0768 53.239 61.0768Z" fill="#091E42"/>
<path opacity="0.1" d="M28.292 39.025L25.7492 38.3009C25.5001 37.2858 25.0993 36.3297 24.5717 35.4597L25.8582 33.1487C25.9673 32.9523 25.9331 32.7066 25.7742 32.5475L24.0362 30.8095C23.8771 30.6505 23.6315 30.6164 23.4349 30.7255L21.124 32.012C20.254 31.4844 19.2979 31.0836 18.2828 30.8345L17.5587 28.2917C17.497 28.0748 17.2992 27.9258 17.0737 27.9258H14.6162C14.3909 27.9258 14.1931 28.075 14.1312 28.2917L13.4071 30.8345C12.392 31.0836 11.4359 31.4844 10.5659 32.012L8.25495 30.7255C8.05855 30.6164 7.81276 30.6506 7.6537 30.8095L5.91573 32.5475C5.75667 32.7066 5.72261 32.9522 5.83167 33.1487L7.11823 35.4597C6.59058 36.3297 6.18979 37.2858 5.94073 38.3009L3.39792 39.025C3.18104 39.0867 3.03198 39.2845 3.03198 39.51V41.9675C3.03198 42.1928 3.1812 42.3906 3.39792 42.4523L5.94073 43.1764C6.18979 44.1916 6.59058 45.1477 7.11823 46.0177L5.83167 48.3286C5.72261 48.525 5.75683 48.7708 5.91573 48.9298L7.6537 50.6678C7.81276 50.8269 8.05839 50.8609 8.25495 50.7519L10.5659 49.4653C11.4359 49.993 12.392 50.3938 13.4071 50.6428L14.1312 53.1856C14.1929 53.4025 14.3907 53.5516 14.6162 53.5516H17.0737C17.299 53.5516 17.4968 53.4023 17.5587 53.1856L18.2828 50.6428C19.2979 50.3938 20.254 49.993 21.124 49.4653L23.4349 50.7519C23.6314 50.8609 23.8771 50.8267 24.0362 50.6678L25.7742 48.9298C25.9332 48.7708 25.9673 48.5252 25.8582 48.3286L24.5717 46.0177C25.0993 45.1477 25.5001 44.1917 25.7492 43.1764L28.292 42.4523C28.5089 42.3906 28.6579 42.1928 28.6579 41.9675V39.51C28.6579 39.2845 28.5089 39.0869 28.292 39.025ZM15.845 44.7689C13.6193 44.7689 11.8148 42.9644 11.8148 40.7387C11.8148 38.5131 13.6193 36.7086 15.845 36.7086C18.0706 36.7086 19.8751 38.5131 19.8751 40.7387C19.8751 42.9642 18.0706 44.7689 15.845 44.7689Z" fill="#091E42"/>
<path opacity="0.1" d="M45.3901 14.7653L42.6516 13.9855C42.3835 12.8922 41.9518 11.8627 41.3836 10.9258L42.7691 8.43719C42.8866 8.22563 42.8497 7.96094 42.6785 7.78969L40.8069 5.91812C40.6357 5.74687 40.371 5.71016 40.1594 5.8275L37.6708 7.21297C36.734 6.64484 35.7044 6.21312 34.6111 5.945L33.8313 3.20656C33.7647 2.97312 33.5518 2.8125 33.3091 2.8125H30.6627C30.4201 2.8125 30.2071 2.97312 30.1405 3.20656L29.3607 5.945C28.2674 6.21312 27.2379 6.64484 26.301 7.21297L23.8124 5.8275C23.6008 5.71 23.3361 5.74687 23.1649 5.91812L21.2935 7.78984C21.1222 7.96109 21.0855 8.22578 21.2029 8.43734L22.5883 10.9259C22.0202 11.8628 21.5885 12.8923 21.3204 13.9856L18.5819 14.7655C18.3485 14.832 18.1879 15.045 18.1879 15.2877V17.9341C18.1879 18.1767 18.3485 18.3897 18.5819 18.4563L21.3204 19.2361C21.5885 20.3294 22.0202 21.3589 22.5883 22.2958L21.2029 24.7844C21.0854 24.9959 21.1222 25.2606 21.2935 25.4319L23.1651 27.3034C23.3363 27.4747 23.601 27.5114 23.8126 27.3941L26.3011 26.0086C27.238 26.5769 28.2676 27.0084 29.3608 27.2766L30.1407 30.015C30.2072 30.2484 30.4202 30.4091 30.6629 30.4091H33.3093C33.5519 30.4091 33.7649 30.2484 33.8315 30.015L34.6113 27.2766C35.7046 27.0084 36.7341 26.5767 37.671 26.0086L40.1596 27.3941C40.3711 27.5116 40.6358 27.4747 40.8071 27.3034L42.6786 25.4319C42.8499 25.2606 42.8866 24.9959 42.7693 24.7844L41.3838 22.2958C41.9519 21.3589 42.3836 20.3294 42.6518 19.2361L45.3902 18.4563C45.6236 18.3897 45.7843 18.1767 45.7843 17.9341V15.2875C45.7841 15.0448 45.6235 14.8319 45.3901 14.7653ZM31.986 21.9781C29.0219 21.9781 26.6186 19.5748 26.6186 16.6108C26.6186 13.6467 29.0219 11.2434 31.986 11.2434C34.9501 11.2434 37.3533 13.6467 37.3533 16.6108C37.3533 19.5748 34.9501 21.9781 31.986 21.9781Z" fill="#091E42"/>
<path d="M76.2899 49.5043L71.5807 48.1633C71.1194 46.2833 70.3773 44.5127 69.4001 42.9016L71.7827 38.6219C71.9848 38.258 71.9215 37.803 71.6269 37.5085L68.4083 34.2899C68.1138 33.9953 67.6588 33.9321 67.2949 34.1341L63.0152 36.5168C61.4041 35.5396 59.6335 34.7974 57.7535 34.3361L56.4126 29.6269C56.2982 29.2253 55.9319 28.9491 55.5146 28.9491H50.9635C50.5462 28.9491 50.1799 29.2253 50.0655 29.6269L48.7246 34.3361C46.8446 34.7974 45.074 35.5396 43.4629 36.5168L39.1832 34.1341C38.8193 33.9321 38.3643 33.9953 38.0698 34.2899L34.8512 37.5085C34.5566 37.803 34.4933 38.258 34.6954 38.6219L37.078 42.9016C36.1008 44.5127 35.3587 46.2832 34.8974 48.1633L30.1882 49.5043C29.7866 49.6186 29.5104 49.9849 29.5104 50.4022V54.9533C29.5104 55.3707 29.7866 55.7369 30.1882 55.8513L34.8974 57.1922C35.3587 59.0722 36.1008 60.8429 37.078 62.4539L34.6954 66.7336C34.4933 67.0975 34.5566 67.5525 34.8512 67.8471L38.0698 71.0657C38.3643 71.3602 38.8193 71.4235 39.1832 71.2214L43.4629 68.8388C45.074 69.816 46.8444 70.5582 48.7246 71.0194L50.0655 75.7286C50.1799 76.1302 50.5462 76.4065 50.9635 76.4065H55.5146C55.9319 76.4065 56.2982 76.1302 56.4126 75.7286L57.7535 71.0194C59.6335 70.5582 61.4041 69.816 63.0152 68.8388L67.2949 71.2214C67.6588 71.4235 68.1138 71.3602 68.4083 71.0657L71.6269 67.8471C71.9215 67.5525 71.9848 67.0975 71.7827 66.7336L69.4001 62.4539C70.3773 60.8429 71.1194 59.0722 71.5807 57.1922L76.2899 55.8513C76.6915 55.7369 76.9677 55.3707 76.9677 54.9533V50.4022C76.9677 49.9847 76.6915 49.6185 76.2899 49.5043ZM53.239 64.3582C46.7885 64.3582 41.5583 59.1282 41.5583 52.6775C41.5583 46.2269 46.7883 40.9969 53.239 40.9969C59.6896 40.9969 64.9196 46.2269 64.9196 52.6775C64.9196 59.1282 59.6896 64.3582 53.239 64.3582Z" fill="white"/>
<path d="M28.292 42.3063L25.7492 41.5822C25.5001 40.567 25.0993 39.6109 24.5717 38.7409L25.8582 36.43C25.9673 36.2336 25.9331 35.9878 25.7742 35.8287L24.0362 34.0908C23.8771 33.9317 23.6315 33.8977 23.4349 34.0067L21.124 35.2933C20.254 34.7656 19.2979 34.3648 18.2828 34.1158L17.5587 31.573C17.497 31.3561 17.2992 31.207 17.0737 31.207H14.6162C14.3909 31.207 14.1931 31.3562 14.1312 31.573L13.4071 34.1158C12.392 34.3648 11.4359 34.7656 10.5659 35.2933L8.25495 34.0067C8.05855 33.8977 7.81276 33.9319 7.6537 34.0908L5.91573 35.8287C5.75667 35.9878 5.72261 36.2334 5.83167 36.43L7.11823 38.7409C6.59058 39.6109 6.18979 40.567 5.94073 41.5822L3.39792 42.3063C3.18104 42.368 3.03198 42.5658 3.03198 42.7911V45.2486C3.03198 45.4739 3.1812 45.6717 3.39792 45.7334L5.94073 46.4575C6.18979 47.4727 6.59058 48.4287 7.11823 49.2987L5.83167 51.6097C5.72261 51.8061 5.75683 52.0519 5.91573 52.2109L7.6537 53.9489C7.81276 54.108 8.05839 54.142 8.25495 54.033L10.5659 52.7464C11.4359 53.2741 12.392 53.6748 13.4071 53.9239L14.1312 56.4667C14.1929 56.6836 14.3907 56.8327 14.6162 56.8327H17.0737C17.299 56.8327 17.4968 56.6834 17.5587 56.4667L18.2828 53.9239C19.2979 53.6748 20.254 53.2741 21.124 52.7464L23.4349 54.033C23.6314 54.142 23.8771 54.1078 24.0362 53.9489L25.7742 52.2109C25.9332 52.0519 25.9673 51.8062 25.8582 51.6097L24.5717 49.2987C25.0993 48.4287 25.5001 47.4728 25.7492 46.4575L28.292 45.7334C28.5089 45.6717 28.6579 45.4739 28.6579 45.2486V42.7911C28.6579 42.5659 28.5089 42.368 28.292 42.3063ZM15.845 48.0502C13.6193 48.0502 11.8148 46.2456 11.8148 44.02C11.8148 41.7944 13.6193 39.9898 15.845 39.9898C18.0706 39.9898 19.8751 41.7944 19.8751 44.02C19.8751 46.2455 18.0706 48.0502 15.845 48.0502Z" fill="#0052CC"/>
<path d="M45.3901 18.0466L42.6516 17.2667C42.3835 16.1734 41.9518 15.1439 41.3836 14.207L42.7691 11.7184C42.8866 11.5069 42.8497 11.2422 42.6785 11.0709L40.8069 9.19937C40.6357 9.02812 40.371 8.99141 40.1594 9.10875L37.6708 10.4942C36.734 9.92609 35.7044 9.49437 34.6111 9.22625L33.8313 6.48781C33.7647 6.25437 33.5518 6.09375 33.3091 6.09375H30.6627C30.4201 6.09375 30.2071 6.25437 30.1405 6.48781L29.3607 9.22625C28.2674 9.49437 27.2379 9.92609 26.301 10.4942L23.8124 9.10875C23.6008 8.99125 23.3361 9.02812 23.1649 9.19937L21.2935 11.0711C21.1222 11.2423 21.0855 11.507 21.2029 11.7186L22.5883 14.2072C22.0202 15.1441 21.5885 16.1736 21.3204 17.2669L18.5819 18.0467C18.3485 18.1133 18.1879 18.3263 18.1879 18.5689V21.2153C18.1879 21.458 18.3485 21.6709 18.5819 21.7375L21.3204 22.5173C21.5885 23.6106 22.0202 24.6402 22.5883 25.577L21.2029 28.0656C21.0854 28.2772 21.1222 28.5419 21.2935 28.7131L23.1651 30.5847C23.3363 30.7559 23.601 30.7927 23.8126 30.6753L26.3011 29.2898C27.238 29.8581 28.2676 30.2897 29.3608 30.5578L30.1407 33.2962C30.2072 33.5297 30.4202 33.6903 30.6629 33.6903H33.3093C33.5519 33.6903 33.7649 33.5297 33.8315 33.2962L34.6113 30.5578C35.7046 30.2897 36.7341 29.858 37.671 29.2898L40.1596 30.6753C40.3711 30.7928 40.6358 30.7559 40.8071 30.5847L42.6786 28.7131C42.8499 28.5419 42.8866 28.2772 42.7693 28.0656L41.3838 25.577C41.9519 24.6402 42.3836 23.6106 42.6518 22.5173L45.3902 21.7375C45.6236 21.6709 45.7843 21.458 45.7843 21.2153V18.5689C45.7841 18.3261 45.6235 18.1131 45.3901 18.0466ZM31.986 25.2594C29.0219 25.2594 26.6186 22.8561 26.6186 19.892C26.6186 16.928 29.0219 14.5247 31.986 14.5247C34.9501 14.5247 37.3533 16.928 37.3533 19.892C37.3533 22.8561 34.9501 25.2594 31.986 25.2594Z" fill="white"/>
<path d="M55.5146 77.1874H50.9636C50.2013 77.1874 49.523 76.6754 49.3142 75.9425L48.096 71.6638C46.4702 71.2246 44.9117 70.5788 43.4516 69.7392L39.5633 71.9039C38.8967 72.274 38.0558 72.1562 37.5174 71.6179L34.2988 68.3993C33.7607 67.861 33.6428 67.0201 34.0124 66.3543L36.1775 62.4653C35.3378 61.0051 34.6919 59.4467 34.2528 57.8209L29.9744 56.6024C29.2413 56.3937 28.7292 55.7154 28.7292 54.9531V50.402C28.7292 49.6398 29.2411 48.9615 29.9741 48.7526L34.2528 47.5343C34.6921 45.9085 35.3378 44.3501 36.1775 42.8899L34.0128 39.0018C33.6428 38.3351 33.7607 37.4942 34.2988 36.9559L37.5174 33.7373C38.0557 33.1989 38.8966 33.0814 39.5625 33.4509L43.4516 35.6159C44.9117 34.7762 46.4702 34.1304 48.096 33.6912L49.3142 29.4128C49.523 28.6796 50.2013 28.1676 50.9638 28.1676H55.5147C56.2769 28.1676 56.9552 28.6795 57.1641 29.4126L58.3824 33.6912C60.0083 34.1304 61.5667 34.7764 63.0267 35.6159L66.9149 33.4512C67.5816 33.081 68.4227 33.1989 68.9608 33.7371L72.1794 36.9557C72.7177 37.494 72.8353 38.3351 72.4658 39.0009L70.3008 42.8898C71.1405 44.3498 71.7863 45.9082 72.2255 47.5342L76.5039 48.7524H76.5041C77.2369 48.9614 77.7489 49.6396 77.7489 50.4018V54.9531C77.7489 55.7154 77.2371 56.3937 76.5039 56.6024L72.2253 57.8209C71.7861 59.4467 71.1402 61.0051 70.3007 62.4653L72.4653 66.3534C72.8355 67.0199 72.7177 67.8609 72.1794 68.3993L68.9608 71.6179C68.4225 72.1562 67.5816 72.274 66.9157 71.9043L63.0267 69.7392C61.5666 70.5788 60.0082 71.2246 58.3824 71.6638L57.1641 75.9423C56.955 76.6754 56.2767 77.1874 55.5146 77.1874ZM43.4628 68.0573C43.6033 68.0573 43.7436 68.0951 43.868 68.1706C45.4347 69.1209 47.1314 69.824 48.9107 70.2604C49.1833 70.3273 49.3989 70.5353 49.4758 70.8053L50.8169 75.5145C50.8357 75.5806 50.8947 75.6249 50.9635 75.6249H55.5144C55.5833 75.6249 55.6422 75.5804 55.6611 75.5143L57.0021 70.8053C57.0789 70.5353 57.2947 70.3273 57.5674 70.2604C59.3468 69.824 61.0433 69.1209 62.61 68.1706C62.8502 68.0249 63.15 68.0195 63.3952 68.156L67.6749 70.5387C67.7333 70.5712 67.808 70.5609 67.8558 70.5131L71.0746 67.2945C71.1224 67.2468 71.1327 67.172 71.0997 67.1128L68.7175 62.8339C68.581 62.5885 68.5866 62.2889 68.7321 62.0487C69.6824 60.4818 70.3855 58.7853 70.8219 57.006C70.8888 56.7334 71.0967 56.5178 71.3667 56.4409L76.076 55.0998C76.1419 55.081 76.1864 55.0221 76.1864 54.9532V50.4021C76.1864 50.3332 76.1419 50.2743 76.0758 50.2554L71.3667 48.9145C71.0967 48.8376 70.8888 48.6218 70.8219 48.3492C70.3853 46.5698 69.6822 44.8731 68.7321 43.3065C68.5864 43.0665 68.5808 42.7667 68.7174 42.5214L71.1 38.2417C71.1325 38.1831 71.1222 38.1084 71.0744 38.0607L67.8558 34.8421C67.808 34.7943 67.7335 34.784 67.6741 34.817L63.3952 37.1992C63.15 37.3357 62.8502 37.3303 62.61 37.1845C61.0433 36.2343 59.3468 35.5312 57.5674 35.0946C57.2947 35.0278 57.0791 34.8198 57.0022 34.5498L55.6613 29.8406C55.6424 29.7746 55.5835 29.7301 55.5146 29.7301H50.9636C50.8947 29.7301 50.8358 29.7745 50.8171 29.8407L49.476 34.5498C49.3991 34.8198 49.1833 35.0278 48.9108 35.0946C47.1314 35.531 45.4349 36.2342 43.8682 37.1845C43.628 37.3303 43.3282 37.3357 43.083 37.1992L38.8033 34.8165C38.7447 34.784 38.67 34.7943 38.6224 34.8421L35.4038 38.0607C35.356 38.1084 35.3457 38.1832 35.3786 38.2426L37.7608 42.5214C37.8974 42.7667 37.8917 43.0664 37.7463 43.3065C36.796 44.8732 36.0928 46.5698 35.6564 48.3492C35.5896 48.6218 35.3816 48.8374 35.1116 48.9145L30.4024 50.2554C30.3364 50.2743 30.2919 50.3332 30.2919 50.4021V54.9531C30.2919 55.022 30.3363 55.0809 30.4025 55.0996L35.1117 56.4407C35.3817 56.5176 35.5897 56.7334 35.6566 57.0059C36.093 58.7851 36.7961 60.4818 37.7464 62.0485C37.8921 62.2887 37.8975 62.5884 37.761 62.8337L35.3783 67.1134C35.3458 67.1718 35.3561 67.2467 35.4039 67.2943L38.6225 70.5129C38.6702 70.5607 38.745 70.5712 38.8042 70.5381L43.0832 68.1559C43.2011 68.0901 43.3321 68.0573 43.4628 68.0573ZM53.2389 65.1393C46.3675 65.1393 40.7772 59.549 40.7772 52.6776C40.7772 50.2198 41.4939 47.8404 42.85 45.797C43.0886 45.4374 43.5735 45.3395 43.933 45.5781C44.2925 45.8167 44.3905 46.3015 44.1519 46.661C42.9664 48.4476 42.3397 50.5282 42.3397 52.6776C42.3397 58.6874 47.2291 63.5768 53.2389 63.5768C59.2488 63.5768 64.1383 58.6874 64.1383 52.6776C64.1383 46.6678 59.2489 41.7782 53.2389 41.7782C50.9707 41.7782 48.7942 42.4714 46.9449 43.7824C46.5928 44.0321 46.1052 43.9489 45.8557 43.597C45.6061 43.2449 45.6891 42.7573 46.0411 42.5078C48.1561 41.0082 50.645 40.2156 53.2389 40.2156C60.1105 40.2156 65.7008 45.8059 65.7008 52.6774C65.7008 59.549 60.1105 65.1393 53.2389 65.1393Z" fill="#091E42"/>
<path d="M17.0737 57.6141H14.6162C14.0447 57.6141 13.5364 57.2302 13.3798 56.6808L12.777 54.5639C12.0056 54.3399 11.2628 54.0321 10.5589 53.6447L8.63499 54.7157C8.13499 54.993 7.50467 54.9047 7.10124 54.5013L5.36327 52.7633C4.95967 52.3599 4.87139 51.7296 5.14858 51.2303L6.21999 49.3058C5.83264 48.6021 5.52467 47.8591 5.30077 47.0877L3.18389 46.4849C2.63436 46.3285 2.25061 45.82 2.25061 45.2485V42.791C2.25061 42.2194 2.63452 41.7111 3.18389 41.5546L5.30077 40.9517C5.52483 40.1802 5.83264 39.4372 6.21999 38.7336L5.14905 36.8097C4.87155 36.3099 4.95983 35.6796 5.36342 35.276L7.10139 33.538C7.50514 33.1345 8.13561 33.0464 8.63452 33.3233L10.559 34.3947C11.2628 34.0074 12.0058 33.6994 12.7772 33.4755L13.38 31.3586C13.5364 30.8091 14.0448 30.4252 14.6164 30.4252H17.0739C17.6455 30.4252 18.1539 30.8091 18.3103 31.3586L18.9131 33.4753C19.6845 33.6994 20.4275 34.0072 21.1312 34.3945L23.0551 33.3236C23.555 33.0463 24.1851 33.1344 24.5887 33.5377L26.3269 35.2758C26.7303 35.6792 26.8186 36.3095 26.5417 36.8086L25.4701 38.7333C25.8575 39.4371 26.1655 40.18 26.3894 40.9514L28.5062 41.5542C29.0558 41.7106 29.4395 42.2191 29.4395 42.7906V45.2481C29.4395 45.8197 29.0556 46.328 28.5062 46.4846L26.3894 47.0874C26.1653 47.8588 25.8575 48.6016 25.4701 49.3055L26.5411 51.2294C26.8186 51.7294 26.7301 52.3597 26.3265 52.7631L24.5887 54.501C24.1853 54.9046 23.555 54.9928 23.0559 54.7158L21.1312 53.6442C20.4273 54.0316 19.6844 54.3396 18.9131 54.5635L18.3103 56.6803C18.1536 57.2303 17.6451 57.6141 17.0737 57.6141ZM14.8255 56.0516H16.8647L17.5315 53.71C17.6084 53.44 17.8242 53.2321 18.0967 53.1652C19.0219 52.9382 19.904 52.5727 20.7189 52.0785C20.959 51.9328 21.2589 51.9274 21.504 52.0639L23.6319 53.2485L25.0737 51.8064L23.8892 49.6788C23.7526 49.4335 23.7583 49.1338 23.9037 48.8936C24.398 48.0788 24.7634 47.1966 24.9905 46.2714C25.0573 45.9988 25.2653 45.7831 25.5353 45.7063L27.8769 45.0394V43.0002L25.5353 42.3333C25.2653 42.2564 25.0573 42.0406 24.9905 41.7681C24.7634 40.843 24.398 39.9606 23.9037 39.146C23.7581 38.9058 23.7526 38.6061 23.8892 38.3608L25.0737 36.233L23.6319 34.791L21.504 35.9756C21.2589 36.1124 20.959 36.1066 20.7189 35.9611C19.9042 35.4669 19.022 35.1014 18.0967 34.8744C17.824 34.8075 17.6084 34.5995 17.5315 34.3295L16.8647 31.988H14.8255L14.1586 34.3295C14.0817 34.5995 13.8659 34.8075 13.5934 34.8744C12.6681 35.1014 11.7859 35.4669 10.9712 35.9611C10.7311 36.1067 10.4314 36.1122 10.1861 35.9756L8.05827 34.791L6.61639 36.233L7.80092 38.3608C7.93749 38.6061 7.93186 38.906 7.78624 39.146C7.29217 39.9605 6.9267 40.8427 6.69952 41.7681C6.63264 42.0408 6.42467 42.2564 6.15467 42.3333L3.81311 43.0002V45.0394L6.15467 45.7063C6.42467 45.7831 6.63264 45.9989 6.69952 46.2714C6.92655 47.1967 7.29202 48.0789 7.78624 48.8936C7.93186 49.1336 7.93733 49.4335 7.80077 49.6788L6.61624 51.8064L8.05811 53.2485L10.1859 52.0639C10.4312 51.9274 10.7309 51.933 10.9711 52.0785C11.7859 52.5727 12.6681 52.9382 13.5933 53.1652C13.8659 53.2321 14.0815 53.44 14.1584 53.71L14.8255 56.0516ZM28.0781 43.0577H28.0797H28.0781ZM28.0772 43.0575C28.0775 43.0575 28.0776 43.0577 28.078 43.0577L28.0772 43.0575Z" fill="#091E42"/>
<path d="M15.8451 48.83C13.1921 48.83 11.0337 46.6717 11.0337 44.0186C11.0337 41.3654 13.192 39.2072 15.8451 39.2072C18.4982 39.2072 20.6565 41.3654 20.6565 44.0186C20.6565 46.6715 18.4982 48.83 15.8451 48.83ZM15.8451 40.7695C14.0537 40.7695 12.5962 42.227 12.5962 44.0184C12.5962 45.8098 14.0537 47.2673 15.8451 47.2673C17.6365 47.2673 19.094 45.8098 19.094 44.0184C19.094 42.227 17.6365 40.7695 15.8451 40.7695Z" fill="#091E42"/>
<path d="M33.3092 34.4714H30.6628C30.0742 34.4714 29.5505 34.0761 29.3894 33.51L28.7311 31.1982C27.8825 30.9545 27.0658 30.6161 26.2936 30.1881L24.1928 31.3576C23.6778 31.6434 23.0285 31.5525 22.613 31.1368L20.7413 29.2651C20.3256 28.8495 20.2347 28.2003 20.52 27.6862L21.69 25.5845C21.2621 24.8123 20.9236 23.9956 20.6799 23.147L18.3681 22.4887C17.8021 22.3275 17.4067 21.8037 17.4067 21.2151V18.5687C17.4067 17.9801 17.8021 17.4564 18.3681 17.2953L20.6799 16.637C20.9236 15.7884 21.2621 14.9717 21.69 14.1995L20.5205 12.0987C20.2347 11.5837 20.3256 10.9343 20.7413 10.5189L22.613 8.64715C23.0286 8.23153 23.678 8.14059 24.1919 8.4259L26.2936 9.5959C27.0658 9.16793 27.8825 8.8295 28.7311 8.58575L29.3894 6.27403C29.5506 5.70793 30.0742 5.31262 30.6628 5.31262H33.3092C33.8978 5.31262 34.4216 5.70793 34.5828 6.27403L35.2411 8.58575C36.0897 8.8295 36.9064 9.16793 37.6786 9.5959L39.7794 8.42637C40.2944 8.14059 40.9438 8.23153 41.3592 8.64715L43.231 10.5189C43.6466 10.9345 43.7375 11.5837 43.4522 12.0978L42.2822 14.1995C42.7102 14.9717 43.0486 15.7884 43.2924 16.637L45.6041 17.2953C46.1702 17.4565 46.5655 17.9801 46.5655 18.5687V21.2151C46.5655 21.8037 46.1702 22.3275 45.6041 22.4887L43.2924 23.147C43.0486 23.9956 42.7102 24.8123 42.2822 25.5845L43.4517 27.6853C43.7375 28.2003 43.6466 28.8496 43.231 29.2651L41.3592 31.1367C40.9438 31.5523 40.2944 31.6431 39.7803 31.3579L37.6786 30.1879C36.9064 30.6159 36.0897 30.9543 35.2411 31.1981L34.5828 33.5098C34.4217 34.0759 33.898 34.4714 33.3092 34.4714ZM30.8428 32.9089H33.1295L33.86 30.3437C33.9369 30.0737 34.1527 29.8657 34.4253 29.7989C35.4278 29.5529 36.3835 29.1568 37.266 28.6217C37.5061 28.4759 37.806 28.4704 38.0511 28.607L40.3821 29.9048L41.9989 28.2879L40.7011 25.957C40.5646 25.7117 40.5702 25.4118 40.7158 25.1718C41.251 24.2895 41.647 23.3337 41.893 22.3312C41.9599 22.0586 42.1678 21.8429 42.4378 21.7659L45.003 21.0354V18.7487L42.4378 18.0182C42.1678 17.9414 41.9599 17.7256 41.893 17.4529C41.647 16.4504 41.251 15.4948 40.7158 14.6123C40.5702 14.3722 40.5646 14.0725 40.7011 13.8272L41.9989 11.4962L40.3821 9.87934L38.0511 11.1772C37.8058 11.3137 37.506 11.3081 37.266 11.1625C36.3836 10.6273 35.4278 10.2312 34.4253 9.98528C34.1527 9.9184 33.937 9.71043 33.86 9.44043L33.1295 6.87512H30.8428L30.1124 9.44028C30.0355 9.71028 29.8197 9.91825 29.5471 9.98512C28.5446 10.2311 27.5889 10.6272 26.7064 11.1623C26.4663 11.3081 26.1664 11.3134 25.9213 11.177L23.5903 9.87918L21.9735 11.4961L23.2713 13.827C23.4078 14.0723 23.4022 14.3722 23.2566 14.6122C22.7214 15.4945 22.3253 16.4503 22.0794 17.4528C22.0125 17.7254 21.8046 17.9411 21.5346 18.0181L18.9694 18.7486V21.0353L21.5346 21.7657C21.8046 21.8426 22.0125 22.0584 22.0794 22.3311C22.3253 23.3336 22.7214 24.2892 23.2566 25.1717C23.4022 25.4118 23.4078 25.7115 23.2713 25.9568L21.9735 28.2878L23.5903 29.9046L25.9213 28.6068C26.1666 28.4703 26.4664 28.4757 26.7064 28.6215C27.5888 29.1567 28.5446 29.5528 29.5471 29.7987C29.8197 29.8656 30.0353 30.0736 30.1124 30.3436L30.8428 32.9089ZM31.9861 26.0406C31.1624 26.0406 30.3619 25.8798 29.6069 25.5626C29.2091 25.3956 29.0221 24.9376 29.1891 24.5398C29.3563 24.142 29.8142 23.9551 30.2119 24.122C30.7744 24.3582 31.3713 24.4779 31.9861 24.4779C34.5149 24.4779 36.5722 22.4206 36.5722 19.8918C36.5722 17.3631 34.5149 15.3057 31.9861 15.3057C29.4574 15.3057 27.4 17.3631 27.4 19.8918C27.4 20.4326 27.4931 20.9618 27.6767 21.4646C27.8249 21.87 27.6163 22.3184 27.211 22.4665C26.8056 22.615 26.3572 22.4061 26.2091 22.0007C25.9624 21.3256 25.8374 20.6161 25.8374 19.8918C25.8374 16.5015 28.5956 13.7432 31.986 13.7432C35.3763 13.7432 38.1345 16.5015 38.1345 19.8918C38.1345 23.282 35.3764 26.0406 31.9861 26.0406Z" fill="#091E42"/>
<path d="M49.5914 55.3351C49.3919 55.3351 49.1922 55.259 49.0399 55.1067L47.1624 53.2292C46.8577 52.9246 46.8577 52.4307 47.1624 52.126L49.0399 50.2485C49.3442 49.944 49.8385 49.944 50.1428 50.2485C50.4475 50.5532 50.4475 51.047 50.1428 51.3517L48.817 52.6776L50.1428 54.0035C50.4475 54.3082 50.4475 54.802 50.1428 55.1067C49.9906 55.2588 49.791 55.3351 49.5914 55.3351Z" fill="#091E42"/>
<path d="M56.8862 55.3351C56.6866 55.3351 56.4869 55.259 56.3346 55.1067C56.0299 54.802 56.0299 54.3082 56.3346 54.0035L57.6604 52.6776L56.3346 51.3517C56.0299 51.047 56.0299 50.5532 56.3346 50.2485C56.639 49.944 57.1332 49.944 57.4376 50.2485L59.3151 52.126C59.6198 52.4307 59.6198 52.9245 59.3151 53.2292L57.4376 55.1067C57.2854 55.2588 57.0857 55.3351 56.8862 55.3351Z" fill="#091E42"/>
<path d="M52.1785 55.3351C52.0485 55.3351 51.9169 55.3026 51.7959 55.2342C51.4207 55.0223 51.2882 54.5465 51.5002 54.1713L53.6205 50.4164C53.8323 50.0414 54.3082 49.9089 54.6832 50.1207C55.0583 50.3326 55.1908 50.8084 54.9788 51.1835L52.8585 54.9385C52.7149 55.1924 52.4507 55.3351 52.1785 55.3351Z" fill="#091E42"/>
<path d="M23.9014 64.3827C23.7014 64.3827 23.5015 64.3064 23.3489 64.1539L21.6301 62.4352C21.325 62.13 21.325 61.6353 21.6301 61.3303L23.3489 59.6116C23.4954 59.465 23.694 59.3828 23.9014 59.3828C24.1087 59.3828 24.3073 59.4652 24.4539 59.6116L26.1726 61.3303C26.3192 61.4769 26.4014 61.6755 26.4014 61.8828C26.4014 62.0902 26.319 62.2887 26.1726 62.4353L24.4539 64.1541C24.3012 64.3064 24.1012 64.3827 23.9014 64.3827ZM23.2873 61.8827L23.9012 62.4966L24.5151 61.8827L23.9012 61.2688L23.2873 61.8827Z" fill="#0052CC"/>
<path d="M55.0797 23.1758C54.6483 23.1758 54.2985 22.8259 54.2985 22.3945C54.2985 21.8775 53.8778 21.457 53.361 21.457C52.9296 21.457 52.5797 21.1072 52.5797 20.6758C52.5797 20.2444 52.9296 19.8945 53.361 19.8945C53.878 19.8945 54.2985 19.4739 54.2985 18.957C54.2985 18.5256 54.6483 18.1758 55.0797 18.1758C55.5111 18.1758 55.861 18.5256 55.861 18.957C55.861 19.4741 56.2814 19.8945 56.7985 19.8945C57.2299 19.8945 57.5797 20.2444 57.5797 20.6758C57.5797 21.1072 57.2299 21.457 56.7985 21.457C56.2814 21.457 55.861 21.8775 55.861 22.3945C55.861 22.8259 55.5111 23.1758 55.0797 23.1758Z" fill="#0052CC"/>
<path d="M28.6581 72.1322C28.2267 72.1322 27.8768 71.7824 27.8768 71.351C27.8768 70.8339 27.4562 70.4135 26.9393 70.4135C26.5079 70.4135 26.1581 70.0636 26.1581 69.6322C26.1581 69.2008 26.5079 68.851 26.9393 68.851C27.4564 68.851 27.8768 68.4305 27.8768 67.9135C27.8768 67.482 28.2267 67.1322 28.6581 67.1322C29.0895 67.1322 29.4393 67.482 29.4393 67.9135C29.4393 68.4305 29.8598 68.851 30.3768 68.851C30.8082 68.851 31.1581 69.2008 31.1581 69.6322C31.1581 70.0636 30.8082 70.4135 30.3768 70.4135C29.8598 70.4135 29.4393 70.8341 29.4393 71.351C29.4393 71.7824 29.0896 72.1322 28.6581 72.1322Z" fill="#0052CC"/>
<path d="M11.8148 27.0244C11.3834 27.0244 11.0336 26.6746 11.0336 26.2432C11.0336 25.7261 10.6129 25.3057 10.0961 25.3057C9.66466 25.3057 9.31482 24.9558 9.31482 24.5244C9.31482 24.093 9.66466 23.7432 10.0961 23.7432C10.6131 23.7432 11.0336 23.3225 11.0336 22.8057C11.0336 22.3743 11.3834 22.0244 11.8148 22.0244C12.2462 22.0244 12.5961 22.3743 12.5961 22.8057C12.5961 23.3227 13.0167 23.7432 13.5336 23.7432C13.965 23.7432 14.3148 24.093 14.3148 24.5244C14.3148 24.9558 13.965 25.3057 13.5336 25.3057C13.0165 25.3057 12.5961 25.7263 12.5961 26.2432C12.5961 26.6746 12.2462 27.0244 11.8148 27.0244Z" fill="#0052CC"/>
</g>
<defs>
<linearGradient id="paint0_linear" x1="-3.95328" y1="30.4971" x2="82.688" y2="52.7326" gradientUnits="userSpaceOnUse">
<stop stop-color="#D2E4FF" stop-opacity="0"/>
<stop offset="1" stop-color="#B7D4FF"/>
</linearGradient>
<clipPath id="clip0">
<rect width="80" height="80" fill="white"/>
</clipPath>
</defs>
</svg>
