<svg width="74" height="24" viewBox="0 0 74 24" fill="none" xmlns="http://www.w3.org/2000/svg">
<path d="M6.80851 15.357C7.15015 15.5739 7.86102 15.8263 8.41316 15.8263C8.97909 15.8263 9.2103 15.6237 9.2103 15.3108C9.2103 14.9979 9.02741 14.845 8.32688 14.6032C7.08803 14.173 6.61182 13.4796 6.62562 12.7471C6.62562 11.5987 7.5815 10.7275 9.06191 10.7275C9.75898 10.7275 10.3836 10.8911 10.7528 11.0795L10.4215 12.4058C10.1524 12.2529 9.6382 12.0538 9.12403 12.0538C8.67197 12.0538 8.41316 12.2422 8.41316 12.5587C8.41316 12.8503 8.64781 12.9996 9.38284 13.2663C10.5216 13.6716 11.0013 14.2618 11.0116 15.1721C11.0116 16.3206 10.1317 17.1668 8.41316 17.1668C7.62981 17.1668 6.93274 16.989 6.47723 16.7366L6.80851 15.357Z" fill="#1B171B"/>
<path d="M17.5648 13.8814C17.5648 16.1392 16.0085 17.1775 14.4038 17.1775C12.6508 17.1775 11.3049 15.9899 11.3049 13.9952C11.3049 12.0005 12.5783 10.7275 14.5039 10.7275C16.3432 10.724 17.5648 12.0254 17.5648 13.8814ZM13.2305 13.9418C13.2305 15.0014 13.6584 15.7979 14.4556 15.7979C15.1802 15.7979 15.6427 15.0512 15.6427 13.9418C15.6427 13.0209 15.301 12.0858 14.4556 12.0858C13.5618 12.0858 13.2305 13.0352 13.2305 13.9418Z" fill="#1B171B"/>
<path d="M18.2308 12.8312C18.2308 12.0631 18.2067 11.4053 18.1825 10.8613H19.8009L19.8872 11.7076H19.9252C20.1702 11.3164 20.781 10.7227 21.7748 10.7227C22.9999 10.7227 23.9213 11.5547 23.9213 13.3716V17.0339H22.0578V13.6098C22.0578 12.8134 21.7886 12.2729 21.1157 12.2729C20.6015 12.2729 20.2944 12.6391 20.1736 12.9912C20.1253 13.1049 20.0977 13.2934 20.0977 13.4712V17.0304H18.2377V12.8312H18.2308Z" fill="#1B171B"/>
<path d="M28.3245 17.0371L28.2141 16.4184H28.1796C27.7896 16.9127 27.1754 17.1758 26.468 17.1758C25.2533 17.1758 24.532 16.2656 24.532 15.2806C24.532 13.677 25.9296 12.9055 28.0485 12.9197V12.8308C28.0485 12.5037 27.8759 12.0343 26.958 12.0343C26.3472 12.0343 25.6984 12.2477 25.305 12.5001L24.9599 11.2628C25.3775 11.021 26.1988 10.7188 27.2893 10.7188C29.2873 10.7188 29.9223 11.9312 29.9223 13.3819V15.5295C29.9223 16.1233 29.9464 16.6887 30.0085 17.03H28.3245V17.0371ZM28.1071 14.1215C27.1271 14.1073 26.3679 14.3491 26.3679 15.0922C26.3679 15.5864 26.6854 15.8247 27.1029 15.8247C27.5377 15.8282 27.9277 15.5438 28.0692 15.1171C28.0933 15.0104 28.1071 14.9002 28.1071 14.79V14.1215Z" fill="#1B171B"/>
<path d="M30.9023 12.8966C30.9023 11.9899 30.8782 11.3961 30.854 10.8663H32.4586L32.5208 12.0006H32.5691C32.8762 11.1046 33.6112 10.7277 34.1875 10.7277C34.3187 10.7241 34.4498 10.7312 34.5809 10.7526V12.5588C34.4153 12.5268 34.2462 12.5091 34.0805 12.5091C33.3938 12.5091 32.928 12.8895 32.8037 13.4833C32.7796 13.6255 32.7692 13.7678 32.7692 13.9135V17.0425H30.9058L30.9023 12.8966Z" fill="#1B171B"/>
<path d="M46.8659 15.3675C46.8659 15.9969 46.8797 16.5551 46.9142 17.0351H45.9584L45.8962 16.036H45.8721C45.5891 16.5266 44.9645 17.1738 43.912 17.1738C42.9803 17.1738 41.8657 16.644 41.8657 14.4964V10.9265H42.9424V14.3079C42.9424 15.4671 43.284 16.2529 44.264 16.2529C44.9852 16.2529 45.4891 15.7337 45.6857 15.2431C45.7513 15.0617 45.7824 14.8697 45.7824 14.6742V10.9265H46.859V15.3675H46.8659Z" fill="#1B171B"/>
<path d="M48.1187 17.0341C48.1428 16.6181 48.167 15.9994 48.167 15.4554V8.07031H49.2333V11.9104H49.2574C49.637 11.2277 50.3237 10.7868 51.2796 10.7868C52.7496 10.7868 53.7918 12.0491 53.778 13.9051C53.778 16.0883 52.4425 17.1763 51.1209 17.1763C50.2616 17.1763 49.5783 16.835 49.1366 16.0278H49.0987L49.0504 17.0376L48.1187 17.0341ZM49.2333 14.5842C49.2367 14.7194 49.254 14.8545 49.2816 14.9896C49.4886 15.7576 50.1132 16.2874 50.8966 16.2874C52.025 16.2874 52.6979 15.3416 52.6979 13.9407C52.6979 12.7175 52.0871 11.6686 50.9345 11.6686C50.1995 11.6686 49.5128 12.1842 49.2919 13.0304C49.2678 13.1584 49.2298 13.3078 49.2298 13.4856V14.5842H49.2333Z" fill="#1B171B"/>
<path d="M55.2481 14.1836C55.2722 15.6841 56.2039 16.3028 57.2806 16.3028C58.0536 16.3028 58.5195 16.1641 58.9232 15.9863L59.1061 16.7828C58.7265 16.9606 58.0777 17.1597 57.1322 17.1597C55.3067 17.1597 54.2162 15.9223 54.2162 14.0805C54.2162 12.2387 55.2688 10.7844 56.9976 10.7844C58.9336 10.7844 59.4477 12.5409 59.4477 13.6645C59.4477 13.8387 59.4339 14.0094 59.4132 14.1801L55.2481 14.1836ZM58.409 13.3872C58.4228 12.6796 58.1295 11.5809 56.9148 11.5809C55.8243 11.5809 55.3481 12.6156 55.2584 13.3872H58.409Z" fill="#1B171B"/>
<path d="M40.5889 12.0236C39.5951 10.516 37.6039 10.1249 36.1407 11.1489C34.6776 12.1729 34.298 14.2245 35.2918 15.7321C36.158 17.0441 37.804 17.5348 39.2155 16.9019L40.4543 18.9749L41.4378 18.2851L40.199 16.2121C41.2894 15.0957 41.4551 13.3356 40.5889 12.0236ZM39.2017 15.789C38.1767 16.5072 36.7826 16.2335 36.0855 15.1774C35.3884 14.1214 35.6542 12.6849 36.6791 11.9667C37.704 11.2485 39.0981 11.5222 39.7952 12.5783C40.4888 13.6343 40.2231 15.0708 39.2017 15.789Z" fill="#1B171B"/>
<path d="M66.8187 17.062H66.0596C66.0596 10.7614 61.0144 5.63771 54.8132 5.63771V4.85547C61.432 4.85547 66.8187 10.3312 66.8187 17.062Z" fill="#4E9BCD"/>
<path d="M67.3433 12.8595C66.4322 8.90558 63.323 5.60595 59.427 4.45392L59.5995 3.82812C63.713 5.04415 66.9947 8.52868 67.9575 12.7101L67.3433 12.8595Z" fill="#4E9BCD"/>
<path d="M67.9266 9.15236C66.9879 7.04387 65.3867 5.20205 63.4197 3.9718L63.682 3.52734C65.7353 4.81093 67.4055 6.73453 68.3855 8.93902L67.9266 9.15236Z" fill="#4E9BCD"/>
</svg>
