<svg width="40" height="25" viewBox="0 0 40 25" fill="none" xmlns="http://www.w3.org/2000/svg">
<g clip-path="url(#clip0)">
<path d="M39.6134 22.6502V22.7779C39.6134 23.0586 39.391 23.2637 39.0831 23.2637H35.0784C34.787 23.2637 34.5697 23.0539 34.5697 22.7779V17.9646C34.5697 17.6871 34.7952 17.4789 35.0883 17.4789L35.0899 17.4836H38.9171C39.2249 17.4836 39.4487 17.6871 39.4487 17.9676V18.0955C39.4487 18.3761 39.2249 18.5795 38.9171 18.5795H35.8043V19.8396H38.2059C38.5138 19.8396 38.7376 20.0464 38.7376 20.327V20.4533C38.7376 20.7356 38.5138 20.9389 38.2059 20.9389H35.8043V22.1658H39.0833C39.3928 22.166 39.6134 22.3726 39.6134 22.6502Z" fill="#73BA25"/>
<path d="M35.9774 2.58329C37.2432 2.62587 38.236 3.64783 38.193 4.85904C38.17 5.44571 37.9134 5.98823 37.4655 6.38882C37.0177 6.79097 36.435 6.99915 35.8194 6.97865C34.5552 6.93449 33.5644 5.91411 33.6055 4.7029C33.6269 4.11623 33.8836 3.57213 34.3331 3.17155C34.7807 2.77097 35.3651 2.56279 35.9774 2.58329ZM37.5922 4.8133C37.6218 3.95063 36.9172 3.22517 36.0169 3.1952C35.5809 3.17943 35.1659 3.32768 34.8482 3.61313C34.5303 3.89701 34.3443 4.2834 34.3311 4.70133C34.3015 5.564 35.0062 6.28946 35.905 6.321C36.3428 6.33362 36.7576 6.18537 37.077 5.90149C37.3947 5.61604 37.579 5.22965 37.5922 4.8133Z" fill="white"/>
<path d="M36.0165 3.19511C36.9169 3.22507 37.6215 3.95054 37.5918 4.8132C37.5787 5.22956 37.3943 5.61594 37.0766 5.9014C36.7573 6.18527 36.3425 6.33352 35.9046 6.3209C35.0058 6.28936 34.3013 5.5639 34.3308 4.70123C34.3439 4.2833 34.5299 3.89692 34.8478 3.61304C35.1655 3.32759 35.5803 3.17934 36.0165 3.19511ZM37.0075 4.44259C37.0075 4.18552 36.683 3.97892 36.2832 3.97892C35.8834 3.97892 35.5606 4.18552 35.5606 4.44259C35.5606 4.6965 35.8832 4.90468 36.2832 4.90468C36.6832 4.90468 37.0075 4.6965 37.0075 4.44259Z" fill="#73BA25"/>
<path d="M36.2836 3.979C36.6836 3.979 37.0078 4.1856 37.0078 4.44267C37.0078 4.69658 36.6834 4.90476 36.2836 4.90476C35.8837 4.90476 35.5609 4.69658 35.5609 4.44267C35.5609 4.1856 35.8836 3.979 36.2836 3.979Z" fill="white"/>
<path d="M33.5149 21.04V21.8112C33.5149 22.6945 32.9651 23.2637 32.1075 23.2637H28.8367C28.5289 23.2637 28.3067 23.0571 28.3067 22.7779V22.6502C28.3067 22.3709 28.5289 22.166 28.8367 22.166H31.9398C32.2772 22.166 32.2869 21.7228 32.2869 21.674V21.2119C32.2869 21.0605 32.2244 20.8823 31.9398 20.8823H29.6663C29.0194 20.8823 28.3184 20.3744 28.3184 19.5559V18.8415C28.3184 18.2832 28.8682 17.4789 29.8589 17.4789V17.4852H32.5291C32.8402 17.4852 33.0706 17.6949 33.0706 17.9694V18.0971C33.0706 18.3747 32.8417 18.5828 32.5404 18.5828H30.0614C29.7355 18.5828 29.5495 18.7358 29.5495 19.0039V19.4282C29.5495 19.6017 29.7009 19.8396 30.0385 19.8396H32.2772C32.8943 19.8398 33.5149 20.212 33.5149 21.04Z" fill="#73BA25"/>
<path d="M26.7176 17.4789C27.0157 17.4789 27.2478 17.7028 27.2478 17.9881V21.7779C27.2478 22.6595 26.525 23.2983 25.5277 23.2983H23.6791C22.6816 23.2983 21.9591 22.6595 21.9591 21.7779V17.9881C21.9591 17.7027 22.1945 17.4789 22.4891 17.4789H22.6571C22.9535 17.4789 23.1887 17.7076 23.1887 17.9881V21.6377C23.1887 21.9294 23.434 22.1644 23.7369 22.1644H25.4669C25.7682 22.1644 26.0151 21.9294 26.0151 21.6377V17.9883C26.0151 17.7077 26.2538 17.479 26.5466 17.479H26.5501H26.7176V17.4789Z" fill="#73BA25"/>
<path d="M20.8974 21.04V21.8112C20.8974 22.6945 20.3443 23.2637 19.49 23.2637H16.2176C15.9081 23.2637 15.6859 23.0571 15.6859 22.7779V22.6502C15.6859 22.3709 15.9098 22.166 16.2176 22.166H19.3205C19.6563 22.166 19.6645 21.7228 19.6645 21.674V21.2119C19.6645 21.0605 19.6053 20.8823 19.3205 20.8823H17.0472C16.397 20.8823 15.6991 20.3744 15.6991 19.5559V18.8415C15.6991 18.2832 16.2472 17.4789 17.2398 17.4789L17.2431 17.4852H19.9147C20.2242 17.4852 20.4563 17.6949 20.4563 17.9694V18.0971C20.4563 18.3747 20.2275 18.5828 19.9246 18.5828H17.4456C17.118 18.5828 16.932 18.7358 16.932 19.0039V19.4282C16.932 19.6017 17.0834 19.8396 17.4209 19.8396H19.6579C20.2752 19.8398 20.8974 20.212 20.8974 21.04Z" fill="#73BA25"/>
<path d="M39.6378 7.82864L39.8058 7.79867C39.8518 7.83337 39.8452 7.90434 39.8304 7.96742C39.7993 8.11409 39.725 8.38062 39.674 8.50679L39.6312 8.61088C39.5721 8.76543 39.5127 8.9121 39.3991 9.00042C39.0865 9.27326 38.5861 9.49089 37.8025 9.81893C36.591 10.3268 34.6272 10.6469 32.8034 10.6359C32.1497 10.6217 31.5176 10.5523 30.9629 10.4923C29.2643 10.3063 28.0363 10.1738 27.781 11.6531C27.4583 13.5077 29.2791 15.7598 29.2972 15.7802L29.2954 15.8418L29.2363 15.856C29.2363 15.856 26.3342 14.5754 26.2633 14.5376L26.1711 14.4747L26.097 14.4067C25.8781 14.205 25.4386 13.7524 24.5464 12.7618C22.8164 10.8456 20.7917 10.5933 19.2312 10.9576C18.8509 11.0443 18.367 11.3109 18.0526 11.6105C17.2378 12.3801 17.3299 13.9304 17.376 14.495C17.4304 15.1337 17.4649 15.181 17.4797 15.2331L17.4699 15.2977L17.4123 15.3041L17.3793 15.282L14.9991 14.167L14.9086 13.7948C14.8476 13.5488 14.7769 13.2759 14.6419 12.9337C13.7909 10.7841 11.8781 9.16759 9.7711 8.81905C8.34723 8.58407 5.75135 8.55725 4.37686 11.0428C3.80238 12.0805 3.83695 13.432 4.4674 14.5707C5.10937 15.7363 6.2567 16.4837 7.61472 16.6272C8.96123 16.7678 9.97357 16.4695 10.5415 15.7646C11.1143 15.0533 11.2213 14.085 10.8147 13.2964C10.3785 12.4497 9.72007 12 8.80485 11.9261C8.10855 11.8662 7.59168 12.1437 7.40567 12.4276C7.35135 12.5161 7.25258 12.6801 7.25094 12.9133V12.9212C7.25094 13.5568 7.85834 13.7303 7.9818 13.7383C8.01966 13.7383 8.20238 13.7336 8.44435 13.6752L8.56122 13.6391L8.64188 13.6122L8.70114 13.6013C9.14229 13.524 9.56699 13.7732 9.69044 14.1848C9.71184 14.2603 9.72336 14.3362 9.72336 14.4117C9.72336 14.6846 9.57851 14.9385 9.33818 15.093L9.34806 15.0897L9.32172 15.1039L9.28221 15.1276C9.15546 15.2049 9.03859 15.2474 8.91513 15.2837C8.56946 15.3924 8.26328 15.443 7.95546 15.443C6.90526 15.4414 5.44188 14.5756 5.42213 12.9496C5.41225 12.0317 5.89291 11.1959 6.739 10.6581C7.71349 10.0415 9.39744 9.8317 10.9596 10.7496C12.8822 11.8772 13.3843 14.085 12.8822 15.5912C12.153 17.7724 10.102 18.9378 7.39415 18.706C5.47645 18.542 3.69538 17.5721 2.6353 16.1117C2.16452 15.4649 1.81555 14.7443 1.62789 14.0252C1.19497 12.3803 1.63283 10.6329 1.95876 9.85851C2.99579 7.39667 4.98098 5.27864 7.85341 3.56118L8.03448 3.45236C14.1448 -0.145142 18.469 -4.95613e-05 21.6345 0.105616C25.368 0.230206 29.3497 1.46349 29.8995 1.63855C29.9013 1.52027 29.9227 0.454153 29.9227 0.454153L29.9392 0.41788L29.982 0.40684C30.2323 0.439959 35.5968 1.20327 37.857 2.46495C38.1367 2.62266 38.275 2.78667 38.448 2.957C39.0718 3.57522 39.8982 6.15061 39.9854 6.68209L39.9525 6.73571C39.9196 6.74675 39.8422 6.80195 39.7385 6.86819C39.2118 7.22146 37.9788 8.04785 36.3986 7.91222C34.978 7.79237 33.1229 7.0117 30.8858 5.60021C30.9848 5.82258 31.4504 6.87923 31.5295 7.05744L31.5591 7.09214C31.8835 7.253 34.9914 8.77016 36.5337 8.7402C37.7777 8.71654 39.1061 8.13459 39.6378 7.82864ZM38.1925 4.85897C38.2355 3.64777 37.2427 2.62581 35.9769 2.58323C35.3645 2.56273 34.7802 2.7709 34.3326 3.17148C33.8832 3.57207 33.6264 4.11616 33.605 4.70284C33.5639 5.91405 34.5548 6.93443 35.8188 6.97859C36.4345 6.99909 37.0172 6.79091 37.4649 6.38875C37.9127 5.98817 38.1695 5.44565 38.1925 4.85897Z" fill="#73BA25"/>
<path d="M12.6946 19.9659C12.9086 19.8683 13.1753 19.7483 13.5276 19.7483H13.6362C14.2518 19.7483 14.6502 20.1 14.6502 20.6409V23.0097C14.6502 23.1531 14.5284 23.2698 14.3819 23.2698H14.2765C14.1267 23.2698 14.0082 23.1531 14.0082 23.0097V20.7261C14.0082 20.5116 13.8255 20.3365 13.6033 20.3365H12.7095C12.4856 20.3365 12.3045 20.5114 12.3045 20.7261V23.0097C12.3045 23.1531 12.1827 23.2698 12.0362 23.2698H11.9308C11.7811 23.2698 11.6625 23.1531 11.6625 23.0097V19.9912C11.6625 19.862 11.7531 19.7705 11.8782 19.7705H11.9819C12.0806 19.7705 12.1531 19.8115 12.1926 19.892L12.2667 20.0213C12.2979 20.0749 12.3144 20.0779 12.3555 20.0779C12.4477 20.0779 12.5613 20.0243 12.6946 19.9659Z" fill="#73BA25"/>
<path d="M10.9217 20.6078V21.3064C10.9217 21.6047 10.7406 21.7813 10.441 21.7813H8.56945V22.3081C8.56945 22.5681 8.72253 22.7039 9.01389 22.7039H10.0509C10.2057 22.7039 10.3192 22.8064 10.3192 22.9468V23.0256C10.3192 23.1676 10.2057 23.2701 10.0509 23.2701H8.78673C8.31924 23.2701 7.92418 22.8727 7.92418 22.406V20.6031C7.92418 20.1425 8.33076 19.7705 8.83117 19.7705L8.83282 19.7737H10.0131C10.5135 19.7735 10.9217 20.1489 10.9217 20.6078ZM10.2731 21.2449V20.6851C10.2731 20.4895 10.1151 20.3381 9.91265 20.3381H8.92829C8.72418 20.3381 8.5678 20.4927 8.5678 20.6851V21.2449H10.2731Z" fill="#73BA25"/>
<path d="M4.66541 22.3127C4.66541 22.4607 4.75101 22.5886 4.87776 22.6549L4.72632 22.9749C4.69834 22.9749 4.66706 23.0224 4.66706 23.0664V24.5946C4.66706 24.7349 4.5469 24.8516 4.39875 24.8516H4.2934C4.14196 24.8516 4.02509 24.7365 4.02509 24.5946V19.991C4.02509 19.8682 4.12056 19.7704 4.23414 19.7704H4.3543C4.45636 19.7704 4.53867 19.8459 4.55677 19.8854L4.63578 20.0352C4.65554 20.062 4.69011 20.0778 4.72632 20.0778L4.87611 20.3869C4.74937 20.4515 4.66541 20.5794 4.66541 20.7293V22.3127Z" fill="#73BA25"/>
<path d="M6.00172 19.7499C6.619 19.7499 7.01571 20.1014 7.01571 20.6424V22.3994C7.01571 22.9497 6.62723 23.2903 6.00172 23.2903H5.89143C5.53752 23.2903 5.27085 23.1738 5.05851 23.0806C4.92682 23.0224 4.81489 22.9749 4.726 22.9749L4.87744 22.6549C4.93505 22.6847 5.00089 22.7022 5.07003 22.7022H5.96386C6.18937 22.7022 6.3688 22.5272 6.3688 22.3127V20.7293C6.3688 20.5115 6.19102 20.3413 5.96386 20.3413H5.07003C4.99925 20.3413 4.93341 20.3585 4.87579 20.3869L4.726 20.0778C4.81489 20.0778 4.92682 20.0275 5.05522 19.9675C5.27085 19.8698 5.53587 19.7482 5.88978 19.7482V19.7499H6.00172Z" fill="#73BA25"/>
<path d="M3.11136 20.6031V22.42C3.11136 22.8868 2.7163 23.2669 2.23235 23.2669H1.00766C0.525351 23.2669 0.131935 22.8868 0.131935 22.42V20.6031C0.131935 20.1425 0.53852 19.7705 1.03893 19.7705H2.20436C2.70477 19.7704 3.11136 20.1441 3.11136 20.6031ZM2.46609 22.3489V20.6929C2.46609 20.5005 2.29654 20.3381 2.09737 20.3381H1.14263C0.940166 20.3381 0.77391 20.4974 0.77391 20.6929V22.3489C0.77391 22.5476 0.931935 22.7022 1.1344 22.7022H2.09737C2.30148 22.7022 2.46609 22.5429 2.46609 22.3489Z" fill="#73BA25"/>
</g>
<defs>
<clipPath id="clip0">
<rect width="40" height="25" fill="white" transform="translate(0.000244141)"/>
</clipPath>
</defs>
</svg>
